<svg xmlns="http://www.w3.org/2000/svg" xml:space="preserve" id="Layer_1" x="0" y="0" version="1.1" viewBox="0 0 1920 673"><style>.st4{fill:#fff}</style><path d="M0 0h1920v673H0z" style="fill:#244d6a"/><path d="M24.7 19.9h40.9v11.5H24.7zm51.2 0h71.6v11.5H75.9zm81.9 0h61.4v11.5h-61.4zm71.6 0h40.9v11.5h-40.9zm-204.7 46h40.9v11.5H24.7zm51.2 0h10.2v11.5H75.9zm20.4 0h20.5v11.5H96.3zM24.7 112H127v11.5H24.7zm112.6 0h10.2v11.5h-10.2zm20.5 0h20.5v11.5h-20.5zM24.7 135h30.7v11.5H24.7zm40.9 0h10.2v11.5H65.6zm20.5 0h20.5v11.5H86.1zm30.7 0h81.9v11.5h-81.9zm-51.2 23.1h40.9v11.5H65.6zm51.2 0H127v11.5h-10.2zm20.5 0h20.5v11.5h-20.5zm-71.7 23h20.5v11.5H65.6zm30.7 0h61.4v11.5H96.3zm71.7 0h10.2v11.5H168zm20.4 0H301v11.5H188.4zm-81.8 23h102.3v11.5H106.6zm112.5 0h10.2v11.5h-10.2zm20.5 0H301v11.5h-61.4zm-174 23h30.7v11.5H65.6zm41 0H168v11.5h-61.4zm71.6 0h20.5v11.5h-20.5zm30.7 0h20.5v11.5h-20.5zm-102.3 23.1H127v11.5h-20.5zm30.7 0h61.4v11.5h-61.4zm71.6 0h20.5v11.5h-20.5zm30.7 0h143.3v11.5H239.6zm-92.1 23h143.3v11.5H147.5zm-40.9 23h51.2v11.5h-51.2zm40.9 23h143.3v11.5H147.5zm-81.9 23.1h174v11.5h-174zm-40.9 46h51.2v11.5H24.7zm61.4 0h10.2v11.5H86.1zm20.5 0h102.3v11.5H106.6zm112.5 0h10.2v11.5h-10.2zm20.5 0h122.8v11.5H239.6zm133 0h10.2v11.5h-10.2zm20.5 0h10.2v11.5h-10.2zm20.5 0h10.2v11.5h-10.2zm20.4 0h61.4v11.5H434zM24.7 434.4h30.7v11.5H24.7zm40.9 0h10.2v11.5H65.6zm20.5 0h20.5v11.5H86.1zm30.7 0h174v11.5h-174zm-51.2 23h20.5v11.5H65.6zm30.7 0h10.2v11.5H96.3zm20.5 0H127v11.5h-10.2zm-51.2 23h122.8v11.5H65.6zm133.1 0h10.2v11.5h-10.2zm20.4 0h10.2v11.5h-10.2zm-153.5 23h40.9V515H65.6zm51.2 0H127V515h-10.2zm20.5 0h51.2V515h-51.2zm-71.7 23.1h71.6V538H65.6zm81.9 0h10.2V538h-10.2zm20.5 0h10.2V538H168zm-143.3 46h61.4V584H24.7zm71.6 0h20.5V584H96.3zm30.8 0h501.5V584H127.1zM24.7 618.6h40.9v11.5H24.7zm51.2 0h184.2v11.5H75.9zm194.4 0h40.9v11.5h-40.9zm51.2 0H342v11.5h-20.5zm30.7 0h51.2v11.5h-51.2zm-286.6 23h184.2v11.5H65.6z" style="opacity:.2;fill:#fff"/><path d="M774.4 16h271.3v30.5H774.4zm298.4 0h27.1v30.5h-27.1zm54.3 0h162.8v30.5h-162.8zM665.9 77.1h81.4v30.5h-81.4zm108.5 0h162.8v30.5H774.4zm189.9 0h54.3v30.5h-54.3zm81.4 0h54.3v30.5h-54.3zm-271.3 61h54.3v30.5h-54.3zm81.4 0h162.8v30.5H855.8zm189.9 0h54.3v30.5h-54.3zm81.4 0h379.8v30.5h-379.8zm-244.2 61.1h379.8v30.5H883zm-108.5 61H910v30.5H774.4zm108.6 61h379.8v30.5H883zm-217.1 61.1h461.2v30.5H665.9zM557.4 504.4H693v30.5H557.4zm162.8 0h27.1v30.5h-27.1zm54.2 0h271.3v30.5H774.4zm298.4 0h27.1v30.5h-27.1zm54.3 0h325.5v30.5h-325.5zm352.7 0h27.1v30.5h-27.1zm54.2 0h27.1v30.5H1534zm54.3 0h27.1v30.5h-27.1zm54.2 0h162.8v30.5h-162.8zm-1085.1 122h81.4V657h-81.4zm108.5 0H693V657h-27.1zm54.3 0h54.3V657h-54.3zm81.4 0h461.2V657H801.6z" style="opacity:5.000000e-02;fill:#fff"/><path d="M406 29.3h1109.1v168.8H406z" style="fill:none"/><text class="st4" style="font-family:&quot;JetBrainsMono-Bold&quot;;font-size:123.6908px" transform="translate(638.097 365.26)">harrix-pylib</text><path d="M563.8 318.8c7.5 30.6-5.2 62.7-31.4 79.9L508.1 343l-23.3 10.1 24.2 55.7c-30.5 7.5-62.6-5.2-79.9-31.4l-23.6 10.3c25.3 42.7 79 60.8 125.8 40.6 46.7-20.2 70-71.9 56.2-119.6zm-112.3-74.1c-46.6 20.3-70 72-56.2 119.6l23.6-10.3c-7.4-30.4 5.2-62.6 31.5-79.9l24.2 55.7 23.3-10.1-24.1-55.7c30.5-7.5 62.6 5.2 79.9 31.4l23.6-10.3c-25.4-42.5-79-60.6-125.8-40.4" class="st4"/></svg>