<?xml version="1.0" encoding="UTF-8" standalone="no"?>
<!DOCTYPE svg PUBLIC "-//W3C//DTD SVG 1.1//EN"
 "http://www.w3.org/Graphics/SVG/1.1/DTD/svg11.dtd">
<!-- Generated by graphviz version 2.43.0 (0)
 -->
<!-- Title: Tree Pages: 1 -->
<svg width="1866pt" height="567pt"
 viewBox="0.00 0.00 1865.66 566.71" xmlns="http://www.w3.org/2000/svg" xmlns:xlink="http://www.w3.org/1999/xlink">
<g id="graph0" class="graph" transform="scale(1 1) rotate(0) translate(18 548.71)">
<title>Tree</title>
<polygon fill="white" stroke="transparent" points="-18,18 -18,-548.71 1847.66,-548.71 1847.66,18 -18,18"/>
<!-- 0 -->
<g id="node1" class="node">
<title>0</title>
<polygon fill="white" stroke="transparent" points="815.33,-530.71 761.33,-530.71 761.33,-494.71 815.33,-494.71 815.33,-530.71"/>
<text text-anchor="middle" x="788.33" y="-509.01" font-family="Helvetica,sans-Serif" font-size="14.00">0</text>
</g>
<!-- 1 -->
<g id="node2" class="node">
<title>1</title>
<polygon fill="#cc3d3d" stroke="black" points="879.33,-457.71 697.33,-457.71 697.33,-379.71 879.33,-379.71 879.33,-457.71"/>
<text text-anchor="start" x="727.33" y="-443.51" font-family="Helvetica,sans-Serif" font-weight="bold" font-size="14.00"> Class=&lt;=50K </text>
<text text-anchor="start" x="844.33" y="-443.51" font-family="Helvetica,sans-Serif" font-size="14.00"> </text>
<text text-anchor="start" x="705.33" y="-429.51" font-family="Helvetica,sans-Serif" font-size="14.00"> error: 0.794, n=48842 </text>
<text text-anchor="start" x="733.33" y="-415.51" font-family="Helvetica,sans-Serif" font-size="14.00"> p: (0.76, 0.24) </text>
<text text-anchor="start" x="756.33" y="-401.51" font-family="Helvetica,sans-Serif" font-size="14.00">&#45;&#45;&#45;&#45;&#45;&#45;&#45;&#45;&#45;&#45;&#45;&#45;</text>
<text text-anchor="start" x="741.33" y="-387.51" font-family="Helvetica,sans-Serif" font-weight="bold" font-size="14.00">relationship</text>
</g>
<!-- 0&#45;&gt;1 -->
<!-- 2 -->
<g id="node3" class="node">
<title>2</title>
<ellipse fill="#c5e544" stroke="black" cx="257.33" cy="-289.71" rx="122.16" ry="35.21"/>
<text text-anchor="start" x="196.33" y="-300.51" font-family="Helvetica,sans-Serif" font-weight="bold" font-size="14.00"> Class=&lt;=50K </text>
<text text-anchor="start" x="313.33" y="-300.51" font-family="Helvetica,sans-Serif" font-size="14.00"> </text>
<text text-anchor="start" x="178.83" y="-286.51" font-family="Helvetica,sans-Serif" font-size="14.00"> error: 0.997, n=2331 </text>
<text text-anchor="start" x="202.33" y="-272.51" font-family="Helvetica,sans-Serif" font-size="14.00"> p: (0.53, 0.47) </text>
</g>
<!-- 1&#45;&gt;2 -->
<g id="edge2" class="edge">
<title>1:s&#45;&gt;2:n</title>
<path fill="none" stroke="black" d="M788.33,-379.71C788.33,-379.71 340.87,-335.05 267.46,-327.72"/>
<polygon fill="black" stroke="black" points="267.63,-324.22 257.33,-326.71 266.93,-331.19 267.63,-324.22"/>
<text text-anchor="middle" x="593.83" y="-350.51" font-family="Helvetica,sans-Serif" font-size="14.00">Wife</text>
</g>
<!-- 3 -->
<g id="node4" class="node">
<title>3</title>
<polygon fill="#c5e544" stroke="black" points="624.83,-328.71 451.83,-328.71 451.83,-250.71 624.83,-250.71 624.83,-328.71"/>
<text text-anchor="start" x="477.33" y="-314.51" font-family="Helvetica,sans-Serif" font-weight="bold" font-size="14.00"> Class=&lt;=50K </text>
<text text-anchor="start" x="594.33" y="-314.51" font-family="Helvetica,sans-Serif" font-size="14.00"> </text>
<text text-anchor="start" x="459.83" y="-300.51" font-family="Helvetica,sans-Serif" font-size="14.00"> error: 0.329, n=5125 </text>
<text text-anchor="start" x="483.33" y="-286.51" font-family="Helvetica,sans-Serif" font-size="14.00"> p: (0.94, 0.06) </text>
<text text-anchor="start" x="514.33" y="-272.51" font-family="Helvetica,sans-Serif" font-size="14.00">&#45;&#45;&#45;&#45;&#45;&#45;&#45;&#45;&#45;</text>
<text text-anchor="start" x="498.83" y="-258.51" font-family="Helvetica,sans-Serif" font-weight="bold" font-size="14.00">education</text>
</g>
<!-- 1&#45;&gt;3 -->
<g id="edge3" class="edge">
<title>1:s&#45;&gt;3:n</title>
<path fill="none" stroke="black" d="M788.33,-379.71C788.33,-379.71 594.35,-340.14 548.13,-330.71"/>
<polygon fill="black" stroke="black" points="548.83,-327.28 538.33,-328.71 547.43,-334.14 548.83,-327.28"/>
<text text-anchor="middle" x="733.33" y="-350.51" font-family="Helvetica,sans-Serif" font-size="14.00">Unmarried</text>
</g>
<!-- 5 -->
<g id="node5" class="node">
<title>5</title>
<polygon fill="#c5e544" stroke="black" points="879.33,-328.71 697.33,-328.71 697.33,-250.71 879.33,-250.71 879.33,-328.71"/>
<text text-anchor="start" x="727.33" y="-314.51" font-family="Helvetica,sans-Serif" font-weight="bold" font-size="14.00"> Class=&lt;=50K </text>
<text text-anchor="start" x="844.33" y="-314.51" font-family="Helvetica,sans-Serif" font-size="14.00"> </text>
<text text-anchor="start" x="705.33" y="-300.51" font-family="Helvetica,sans-Serif" font-size="14.00"> error: 0.473, n=12583 </text>
<text text-anchor="start" x="733.33" y="-286.51" font-family="Helvetica,sans-Serif" font-size="14.00"> p: (0.90, 0.10) </text>
<text text-anchor="start" x="756.33" y="-272.51" font-family="Helvetica,sans-Serif" font-size="14.00">&#45;&#45;&#45;&#45;&#45;&#45;&#45;&#45;&#45;&#45;&#45;&#45;</text>
<text text-anchor="start" x="741.33" y="-258.51" font-family="Helvetica,sans-Serif" font-weight="bold" font-size="14.00">capital&#45;gain</text>
</g>
<!-- 1&#45;&gt;5 -->
<g id="edge4" class="edge">
<title>1:s&#45;&gt;5:n</title>
<path fill="none" stroke="black" d="M788.33,-379.71C788.33,-379.71 788.33,-353.93 788.33,-339.03"/>
<polygon fill="black" stroke="black" points="791.83,-338.71 788.33,-328.71 784.83,-338.71 791.83,-338.71"/>
<text text-anchor="middle" x="833.83" y="-350.51" font-family="Helvetica,sans-Serif" font-size="14.00">Not&#45;in&#45;family</text>
</g>
<!-- 10 -->
<g id="node6" class="node">
<title>10</title>
<polygon fill="#c5e544" stroke="black" points="1164.33,-328.71 982.33,-328.71 982.33,-250.71 1164.33,-250.71 1164.33,-328.71"/>
<text text-anchor="start" x="1012.33" y="-314.51" font-family="Helvetica,sans-Serif" font-weight="bold" font-size="14.00"> Class=&lt;=50K </text>
<text text-anchor="start" x="1129.33" y="-314.51" font-family="Helvetica,sans-Serif" font-size="14.00"> </text>
<text text-anchor="start" x="990.33" y="-300.51" font-family="Helvetica,sans-Serif" font-size="14.00"> error: 0.992, n=19716 </text>
<text text-anchor="start" x="1018.33" y="-286.51" font-family="Helvetica,sans-Serif" font-size="14.00"> p: (0.55, 0.45) </text>
<text text-anchor="start" x="1049.33" y="-272.51" font-family="Helvetica,sans-Serif" font-size="14.00">&#45;&#45;&#45;&#45;&#45;&#45;&#45;&#45;&#45;</text>
<text text-anchor="start" x="1033.83" y="-258.51" font-family="Helvetica,sans-Serif" font-weight="bold" font-size="14.00">education</text>
</g>
<!-- 1&#45;&gt;10 -->
<g id="edge5" class="edge">
<title>1:s&#45;&gt;10:n</title>
<path fill="none" stroke="black" d="M788.33,-379.71C788.33,-379.71 1012.42,-339.61 1063.19,-330.53"/>
<polygon fill="black" stroke="black" points="1064.1,-333.92 1073.33,-328.71 1062.87,-327.03 1064.1,-333.92"/>
<text text-anchor="middle" x="1006.83" y="-350.51" font-family="Helvetica,sans-Serif" font-size="14.00">Husband</text>
</g>
<!-- 17 -->
<g id="node7" class="node">
<title>17</title>
<ellipse fill="#c5e544" stroke="black" cx="1358.33" cy="-289.71" rx="122.16" ry="35.21"/>
<text text-anchor="start" x="1297.33" y="-300.51" font-family="Helvetica,sans-Serif" font-weight="bold" font-size="14.00"> Class=&lt;=50K </text>
<text text-anchor="start" x="1414.33" y="-300.51" font-family="Helvetica,sans-Serif" font-size="14.00"> </text>
<text text-anchor="start" x="1279.83" y="-286.51" font-family="Helvetica,sans-Serif" font-size="14.00"> error: 0.110, n=7581 </text>
<text text-anchor="start" x="1303.33" y="-272.51" font-family="Helvetica,sans-Serif" font-size="14.00"> p: (0.99, 0.01) </text>
</g>
<!-- 1&#45;&gt;17 -->
<g id="edge6" class="edge">
<title>1:s&#45;&gt;17:n</title>
<path fill="none" stroke="black" d="M788.33,-379.71C788.33,-379.71 1270.7,-334.86 1347.95,-327.68"/>
<polygon fill="black" stroke="black" points="1348.7,-331.12 1358.33,-326.71 1348.05,-324.15 1348.7,-331.12"/>
<text text-anchor="middle" x="1215.33" y="-350.51" font-family="Helvetica,sans-Serif" font-size="14.00">Own&#45;child</text>
</g>
<!-- 4 -->
<g id="node8" class="node">
<title>4</title>
<ellipse fill="#3dcc76" stroke="black" cx="471.33" cy="-160.71" rx="122.16" ry="35.21"/>
<text text-anchor="start" x="410.33" y="-171.51" font-family="Helvetica,sans-Serif" font-weight="bold" font-size="14.00"> Class=&lt;=50K </text>
<text text-anchor="start" x="527.33" y="-171.51" font-family="Helvetica,sans-Serif" font-size="14.00"> </text>
<text text-anchor="start" x="392.83" y="-157.51" font-family="Helvetica,sans-Serif" font-size="14.00"> error: 0.170, n=1937 </text>
<text text-anchor="start" x="416.33" y="-143.51" font-family="Helvetica,sans-Serif" font-size="14.00"> p: (0.97, 0.03) </text>
</g>
<!-- 3&#45;&gt;4 -->
<g id="edge7" class="edge">
<title>3:s&#45;&gt;4:n</title>
<path fill="none" stroke="black" d="M538.33,-250.71C538.33,-250.71 497.03,-218.04 479.28,-204"/>
<polygon fill="black" stroke="black" points="481.34,-201.17 471.33,-197.71 477,-206.66 481.34,-201.17"/>
<text text-anchor="middle" x="544.33" y="-221.51" font-family="Helvetica,sans-Serif" font-size="14.00">HS&#45;grad</text>
</g>
<!-- 6 -->
<g id="node9" class="node">
<title>6</title>
<polygon fill="#3dcc76" stroke="black" points="847.33,-199.71 665.33,-199.71 665.33,-121.71 847.33,-121.71 847.33,-199.71"/>
<text text-anchor="start" x="695.33" y="-185.51" font-family="Helvetica,sans-Serif" font-weight="bold" font-size="14.00"> Class=&lt;=50K </text>
<text text-anchor="start" x="812.33" y="-185.51" font-family="Helvetica,sans-Serif" font-size="14.00"> </text>
<text text-anchor="start" x="673.33" y="-171.51" font-family="Helvetica,sans-Serif" font-size="14.00"> error: 0.390, n=12198 </text>
<text text-anchor="start" x="701.33" y="-157.51" font-family="Helvetica,sans-Serif" font-size="14.00"> p: (0.92, 0.08) </text>
<text text-anchor="start" x="732.33" y="-143.51" font-family="Helvetica,sans-Serif" font-size="14.00">&#45;&#45;&#45;&#45;&#45;&#45;&#45;&#45;&#45;</text>
<text text-anchor="start" x="716.83" y="-129.51" font-family="Helvetica,sans-Serif" font-weight="bold" font-size="14.00">education</text>
</g>
<!-- 5&#45;&gt;6 -->
<g id="edge8" class="edge">
<title>5:s&#45;&gt;6:n</title>
<path fill="none" stroke="black" d="M788.33,-250.71C788.33,-250.71 771.07,-223.21 761.9,-208.59"/>
<polygon fill="black" stroke="black" points="764.61,-206.32 756.33,-199.71 758.68,-210.04 764.61,-206.32"/>
<text text-anchor="middle" x="808.83" y="-221.51" font-family="Helvetica,sans-Serif" font-size="14.00">&lt;= 5060</text>
</g>
<!-- 11 -->
<g id="node13" class="node">
<title>11</title>
<polygon fill="#3dcc76" stroke="black" points="1159.83,-199.71 986.83,-199.71 986.83,-121.71 1159.83,-121.71 1159.83,-199.71"/>
<text text-anchor="start" x="1012.33" y="-185.51" font-family="Helvetica,sans-Serif" font-weight="bold" font-size="14.00"> Class=&lt;=50K </text>
<text text-anchor="start" x="1129.33" y="-185.51" font-family="Helvetica,sans-Serif" font-size="14.00"> </text>
<text text-anchor="start" x="994.83" y="-171.51" font-family="Helvetica,sans-Serif" font-size="14.00"> error: 0.898, n=6388 </text>
<text text-anchor="start" x="1018.33" y="-157.51" font-family="Helvetica,sans-Serif" font-size="14.00"> p: (0.69, 0.31) </text>
<text text-anchor="start" x="1041.33" y="-143.51" font-family="Helvetica,sans-Serif" font-size="14.00">&#45;&#45;&#45;&#45;&#45;&#45;&#45;&#45;&#45;&#45;&#45;&#45;</text>
<text text-anchor="start" x="1026.33" y="-129.51" font-family="Helvetica,sans-Serif" font-weight="bold" font-size="14.00">capital&#45;gain</text>
</g>
<!-- 10&#45;&gt;11 -->
<g id="edge12" class="edge">
<title>10:s&#45;&gt;11:n</title>
<path fill="none" stroke="black" d="M1073.33,-250.71C1073.33,-250.71 1073.33,-224.93 1073.33,-210.03"/>
<polygon fill="black" stroke="black" points="1076.83,-209.71 1073.33,-199.71 1069.83,-209.71 1076.83,-209.71"/>
<text text-anchor="middle" x="1102.33" y="-221.51" font-family="Helvetica,sans-Serif" font-size="14.00">HS&#45;grad</text>
</g>
<!-- 13 -->
<g id="node14" class="node">
<title>13</title>
<polygon fill="#3dcc76" stroke="black" points="1440.83,-199.71 1267.83,-199.71 1267.83,-121.71 1440.83,-121.71 1440.83,-199.71"/>
<text text-anchor="start" x="1293.33" y="-185.51" font-family="Helvetica,sans-Serif" font-weight="bold" font-size="14.00"> Class=&lt;=50K </text>
<text text-anchor="start" x="1410.33" y="-185.51" font-family="Helvetica,sans-Serif" font-size="14.00"> </text>
<text text-anchor="start" x="1275.83" y="-171.51" font-family="Helvetica,sans-Serif" font-size="14.00"> error: 0.989, n=3658 </text>
<text text-anchor="start" x="1299.33" y="-157.51" font-family="Helvetica,sans-Serif" font-size="14.00"> p: (0.56, 0.44) </text>
<text text-anchor="start" x="1322.33" y="-143.51" font-family="Helvetica,sans-Serif" font-size="14.00">&#45;&#45;&#45;&#45;&#45;&#45;&#45;&#45;&#45;&#45;&#45;&#45;</text>
<text text-anchor="start" x="1307.33" y="-129.51" font-family="Helvetica,sans-Serif" font-weight="bold" font-size="14.00">capital&#45;gain</text>
</g>
<!-- 10&#45;&gt;13 -->
<g id="edge13" class="edge">
<title>10:s&#45;&gt;13:n</title>
<path fill="none" stroke="black" d="M1073.33,-250.71C1073.33,-250.71 1294.27,-210.61 1344.33,-201.53"/>
<polygon fill="black" stroke="black" points="1345.12,-204.94 1354.33,-199.71 1343.87,-198.05 1345.12,-204.94"/>
<text text-anchor="middle" x="1294.33" y="-221.51" font-family="Helvetica,sans-Serif" font-size="14.00">Some&#45;college</text>
</g>
<!-- 15 -->
<g id="node15" class="node">
<title>15</title>
<polygon fill="#3dcc76" stroke="black" points="1739.83,-199.71 1566.83,-199.71 1566.83,-121.71 1739.83,-121.71 1739.83,-199.71"/>
<text text-anchor="start" x="1598.33" y="-185.51" font-family="Helvetica,sans-Serif" font-weight="bold" font-size="14.00"> Class=&gt;50K </text>
<text text-anchor="start" x="1703.33" y="-185.51" font-family="Helvetica,sans-Serif" font-size="14.00"> </text>
<text text-anchor="start" x="1574.83" y="-171.51" font-family="Helvetica,sans-Serif" font-size="14.00"> error: 0.907, n=3636 </text>
<text text-anchor="start" x="1598.33" y="-157.51" font-family="Helvetica,sans-Serif" font-size="14.00"> p: (0.32, 0.68) </text>
<text text-anchor="start" x="1621.33" y="-143.51" font-family="Helvetica,sans-Serif" font-size="14.00">&#45;&#45;&#45;&#45;&#45;&#45;&#45;&#45;&#45;&#45;&#45;&#45;</text>
<text text-anchor="start" x="1606.33" y="-129.51" font-family="Helvetica,sans-Serif" font-weight="bold" font-size="14.00">capital&#45;gain</text>
</g>
<!-- 10&#45;&gt;15 -->
<g id="edge14" class="edge">
<title>10:s&#45;&gt;15:n</title>
<path fill="none" stroke="black" d="M1073.33,-250.71C1073.33,-250.71 1566.24,-207.37 1643.26,-200.6"/>
<polygon fill="black" stroke="black" points="1643.67,-204.07 1653.33,-199.71 1643.06,-197.1 1643.67,-204.07"/>
<text text-anchor="middle" x="1523.83" y="-221.51" font-family="Helvetica,sans-Serif" font-size="14.00">Bachelors</text>
</g>
<!-- 7 -->
<g id="node10" class="node">
<title>7</title>
<ellipse fill="#4485e5" stroke="black" cx="122.33" cy="-35.36" rx="122.16" ry="35.21"/>
<text text-anchor="start" x="61.33" y="-46.16" font-family="Helvetica,sans-Serif" font-weight="bold" font-size="14.00"> Class=&lt;=50K </text>
<text text-anchor="start" x="178.33" y="-46.16" font-family="Helvetica,sans-Serif" font-size="14.00"> </text>
<text text-anchor="start" x="43.83" y="-32.16" font-family="Helvetica,sans-Serif" font-size="14.00"> error: 0.212, n=3775 </text>
<text text-anchor="start" x="67.33" y="-18.16" font-family="Helvetica,sans-Serif" font-size="14.00"> p: (0.97, 0.03) </text>
</g>
<!-- 6&#45;&gt;7 -->
<g id="edge9" class="edge">
<title>6:s&#45;&gt;7:n</title>
<path fill="none" stroke="black" d="M756.33,-121.71C756.33,-121.71 214.09,-78.09 132.54,-71.53"/>
<polygon fill="black" stroke="black" points="132.58,-68.02 122.33,-70.71 132.02,-75 132.58,-68.02"/>
<text text-anchor="middle" x="513.33" y="-92.51" font-family="Helvetica,sans-Serif" font-size="14.00">HS&#45;grad</text>
</g>
<!-- 8 -->
<g id="node11" class="node">
<title>8</title>
<ellipse fill="#4485e5" stroke="black" cx="439.33" cy="-35.36" rx="122.16" ry="35.21"/>
<text text-anchor="start" x="378.33" y="-46.16" font-family="Helvetica,sans-Serif" font-weight="bold" font-size="14.00"> Class=&lt;=50K </text>
<text text-anchor="start" x="495.33" y="-46.16" font-family="Helvetica,sans-Serif" font-size="14.00"> </text>
<text text-anchor="start" x="360.83" y="-32.16" font-family="Helvetica,sans-Serif" font-size="14.00"> error: 0.547, n=2384 </text>
<text text-anchor="start" x="384.33" y="-18.16" font-family="Helvetica,sans-Serif" font-size="14.00"> p: (0.87, 0.13) </text>
</g>
<!-- 6&#45;&gt;8 -->
<g id="edge10" class="edge">
<title>6:s&#45;&gt;8:n</title>
<path fill="none" stroke="black" d="M756.33,-121.71C756.33,-121.71 503.78,-81.08 449.52,-72.35"/>
<polygon fill="black" stroke="black" points="449.76,-68.84 439.33,-70.71 448.65,-75.75 449.76,-68.84"/>
<text text-anchor="middle" x="670.83" y="-92.51" font-family="Helvetica,sans-Serif" font-size="14.00">Bachelors</text>
</g>
<!-- 9 -->
<g id="node12" class="node">
<title>9</title>
<ellipse fill="#4485e5" stroke="black" cx="756.33" cy="-35.36" rx="122.16" ry="35.21"/>
<text text-anchor="start" x="695.33" y="-46.16" font-family="Helvetica,sans-Serif" font-weight="bold" font-size="14.00"> Class=&lt;=50K </text>
<text text-anchor="start" x="812.33" y="-46.16" font-family="Helvetica,sans-Serif" font-size="14.00"> </text>
<text text-anchor="start" x="677.83" y="-32.16" font-family="Helvetica,sans-Serif" font-size="14.00"> error: 0.283, n=2682 </text>
<text text-anchor="start" x="701.33" y="-18.16" font-family="Helvetica,sans-Serif" font-size="14.00"> p: (0.95, 0.05) </text>
</g>
<!-- 6&#45;&gt;9 -->
<g id="edge11" class="edge">
<title>6:s&#45;&gt;9:n</title>
<path fill="none" stroke="black" d="M756.33,-121.71C756.33,-121.71 756.33,-95.93 756.33,-81.03"/>
<polygon fill="black" stroke="black" points="759.83,-80.71 756.33,-70.71 752.83,-80.71 759.83,-80.71"/>
<text text-anchor="middle" x="803.33" y="-92.51" font-family="Helvetica,sans-Serif" font-size="14.00">Some&#45;college</text>
</g>
<!-- 12 -->
<g id="node16" class="node">
<title>12</title>
<ellipse fill="#4485e5" stroke="black" cx="1073.33" cy="-35.36" rx="122.16" ry="35.21"/>
<text text-anchor="start" x="1012.33" y="-46.16" font-family="Helvetica,sans-Serif" font-weight="bold" font-size="14.00"> Class=&lt;=50K </text>
<text text-anchor="start" x="1129.33" y="-46.16" font-family="Helvetica,sans-Serif" font-size="14.00"> </text>
<text text-anchor="start" x="994.83" y="-32.16" font-family="Helvetica,sans-Serif" font-size="14.00"> error: 0.860, n=6031 </text>
<text text-anchor="start" x="1018.33" y="-18.16" font-family="Helvetica,sans-Serif" font-size="14.00"> p: (0.72, 0.28) </text>
</g>
<!-- 11&#45;&gt;12 -->
<g id="edge15" class="edge">
<title>11:s&#45;&gt;12:n</title>
<path fill="none" stroke="black" d="M1073.33,-121.71C1073.33,-121.71 1073.33,-95.93 1073.33,-81.03"/>
<polygon fill="black" stroke="black" points="1076.83,-80.71 1073.33,-70.71 1069.83,-80.71 1076.83,-80.71"/>
<text text-anchor="middle" x="1105.83" y="-92.51" font-family="Helvetica,sans-Serif" font-size="14.00">&lt;= 4064</text>
</g>
<!-- 14 -->
<g id="node17" class="node">
<title>14</title>
<ellipse fill="#4485e5" stroke="black" cx="1390.33" cy="-35.36" rx="122.16" ry="35.21"/>
<text text-anchor="start" x="1329.33" y="-46.16" font-family="Helvetica,sans-Serif" font-weight="bold" font-size="14.00"> Class=&lt;=50K </text>
<text text-anchor="start" x="1446.33" y="-46.16" font-family="Helvetica,sans-Serif" font-size="14.00"> </text>
<text text-anchor="start" x="1311.83" y="-32.16" font-family="Helvetica,sans-Serif" font-size="14.00"> error: 0.980, n=3517 </text>
<text text-anchor="start" x="1335.33" y="-18.16" font-family="Helvetica,sans-Serif" font-size="14.00"> p: (0.58, 0.42) </text>
</g>
<!-- 13&#45;&gt;14 -->
<g id="edge16" class="edge">
<title>13:s&#45;&gt;14:n</title>
<path fill="none" stroke="black" d="M1354.33,-121.71C1354.33,-121.71 1374.16,-93.62 1384.38,-79.13"/>
<polygon fill="black" stroke="black" points="1387.42,-80.9 1390.33,-70.71 1381.7,-76.86 1387.42,-80.9"/>
<text text-anchor="middle" x="1409.83" y="-92.51" font-family="Helvetica,sans-Serif" font-size="14.00">&lt;= 7298</text>
</g>
<!-- 16 -->
<g id="node18" class="node">
<title>16</title>
<ellipse fill="#4485e5" stroke="black" cx="1707.33" cy="-35.36" rx="122.16" ry="35.21"/>
<text text-anchor="start" x="1652.33" y="-46.16" font-family="Helvetica,sans-Serif" font-weight="bold" font-size="14.00"> Class=&gt;50K </text>
<text text-anchor="start" x="1757.33" y="-46.16" font-family="Helvetica,sans-Serif" font-size="14.00"> </text>
<text text-anchor="start" x="1628.83" y="-32.16" font-family="Helvetica,sans-Serif" font-size="14.00"> error: 0.950, n=3178 </text>
<text text-anchor="start" x="1652.33" y="-18.16" font-family="Helvetica,sans-Serif" font-size="14.00"> p: (0.37, 0.63) </text>
</g>
<!-- 15&#45;&gt;16 -->
<g id="edge17" class="edge">
<title>15:s&#45;&gt;16:n</title>
<path fill="none" stroke="black" d="M1653.33,-121.71C1653.33,-121.71 1684.98,-91.82 1699.82,-77.8"/>
<polygon fill="black" stroke="black" points="1702.46,-80.12 1707.33,-70.71 1697.66,-75.03 1702.46,-80.12"/>
<text text-anchor="middle" x="1719.83" y="-92.51" font-family="Helvetica,sans-Serif" font-size="14.00">&lt;= 5178</text>
</g>
</g>
</svg>
