<?xml version="1.0" encoding="UTF-8" standalone="no"?>
<!DOCTYPE svg PUBLIC "-//W3C//DTD SVG 1.1//EN"
 "http://www.w3.org/Graphics/SVG/1.1/DTD/svg11.dtd">
<!-- Generated by graphviz version 2.43.0 (0)
 -->
<!-- Title: Tree Pages: 1 -->
<svg width="10384pt" height="696pt"
 viewBox="0.00 0.00 10384.29 695.71" xmlns="http://www.w3.org/2000/svg" xmlns:xlink="http://www.w3.org/1999/xlink">
<g id="graph0" class="graph" transform="scale(1 1) rotate(0) translate(18 677.71)">
<title>Tree</title>
<polygon fill="white" stroke="transparent" points="-18,18 -18,-677.71 10366.29,-677.71 10366.29,18 -18,18"/>
<!-- 0 -->
<g id="node1" class="node">
<title>0</title>
<polygon fill="white" stroke="transparent" points="4902.65,-659.71 4848.65,-659.71 4848.65,-623.71 4902.65,-623.71 4902.65,-659.71"/>
<text text-anchor="middle" x="4875.65" y="-638.01" font-family="Helvetica,sans-Serif" font-size="14.00">0</text>
</g>
<!-- 1 -->
<g id="node2" class="node">
<title>1</title>
<polygon fill="#cc3d3d" stroke="black" points="5019.65,-586.71 4731.65,-586.71 4731.65,-508.71 5019.65,-508.71 5019.65,-586.71"/>
<text text-anchor="start" x="4796.15" y="-572.51" font-family="Helvetica,sans-Serif" font-weight="bold" font-size="14.00"> Class=Mouthwash </text>
<text text-anchor="start" x="4950.15" y="-572.51" font-family="Helvetica,sans-Serif" font-size="14.00"> </text>
<text text-anchor="start" x="4801.65" y="-558.51" font-family="Helvetica,sans-Serif" font-size="14.00"> error: 0.998, n=797 </text>
<text text-anchor="start" x="4739.65" y="-544.51" font-family="Helvetica,sans-Serif" font-size="14.00"> p: (0.16, 0.17, 0.16, 0.19, 0.17, 0.15) </text>
<text text-anchor="start" x="4849.15" y="-530.51" font-family="Helvetica,sans-Serif" font-size="14.00">&#45;&#45;&#45;&#45;&#45;&#45;&#45;&#45;&#45;&#45;</text>
<text text-anchor="start" x="4829.15" y="-516.51" font-family="Helvetica,sans-Serif" font-weight="bold" font-size="14.00">DMFT.Begin</text>
</g>
<!-- 0&#45;&gt;1 -->
<!-- 2 -->
<g id="node3" class="node">
<title>2</title>
<polygon fill="#e5d544" stroke="black" points="1066.65,-457.71 778.65,-457.71 778.65,-379.71 1066.65,-379.71 1066.65,-457.71"/>
<text text-anchor="start" x="843.15" y="-443.51" font-family="Helvetica,sans-Serif" font-weight="bold" font-size="14.00"> Class=Mouthwash </text>
<text text-anchor="start" x="997.15" y="-443.51" font-family="Helvetica,sans-Serif" font-size="14.00"> </text>
<text text-anchor="start" x="853.15" y="-429.51" font-family="Helvetica,sans-Serif" font-size="14.00"> error: 0.943, n=83 </text>
<text text-anchor="start" x="786.65" y="-415.51" font-family="Helvetica,sans-Serif" font-size="14.00"> p: (0.10, 0.17, 0.17, 0.27, 0.24, 0.06) </text>
<text text-anchor="start" x="901.15" y="-401.51" font-family="Helvetica,sans-Serif" font-size="14.00">&#45;&#45;&#45;&#45;&#45;&#45;&#45;&#45;</text>
<text text-anchor="start" x="883.65" y="-387.51" font-family="Helvetica,sans-Serif" font-weight="bold" font-size="14.00">DMFT.End</text>
</g>
<!-- 1&#45;&gt;2 -->
<g id="edge2" class="edge">
<title>1:s&#45;&gt;2:n</title>
<path fill="none" stroke="black" d="M4875.65,-508.71C4875.65,-508.71 1154.62,-460.7 932.96,-457.84"/>
<polygon fill="black" stroke="black" points="932.69,-454.34 922.65,-457.71 932.6,-461.34 932.69,-454.34"/>
<text text-anchor="middle" x="3085.65" y="-479.51" font-family="Helvetica,sans-Serif" font-size="14.00">5</text>
</g>
<!-- 6 -->
<g id="node4" class="node">
<title>6</title>
<ellipse fill="#e5d544" stroke="black" cx="2418.65" cy="-418.71" rx="203.79" ry="35.21"/>
<text text-anchor="start" x="2320.65" y="-429.51" font-family="Helvetica,sans-Serif" font-weight="bold" font-size="14.00"> Class=Diet_enrichment </text>
<text text-anchor="start" x="2511.65" y="-429.51" font-family="Helvetica,sans-Serif" font-size="14.00"> </text>
<text text-anchor="start" x="2349.15" y="-415.51" font-family="Helvetica,sans-Serif" font-size="14.00"> error: 0.947, n=48 </text>
<text text-anchor="start" x="2282.65" y="-401.51" font-family="Helvetica,sans-Serif" font-size="14.00"> p: (0.12, 0.23, 0.19, 0.21, 0.21, 0.04) </text>
</g>
<!-- 1&#45;&gt;6 -->
<g id="edge3" class="edge">
<title>1:s&#45;&gt;6:n</title>
<path fill="none" stroke="black" d="M4875.65,-508.71C4875.65,-508.71 2599.93,-459.62 2428.81,-455.93"/>
<polygon fill="black" stroke="black" points="2428.72,-452.43 2418.65,-455.71 2428.57,-459.43 2428.72,-452.43"/>
<text text-anchor="middle" x="3592.65" y="-479.51" font-family="Helvetica,sans-Serif" font-size="14.00">8</text>
</g>
<!-- 7 -->
<g id="node5" class="node">
<title>7</title>
<polygon fill="#e5d544" stroke="black" points="2982.65,-457.71 2694.65,-457.71 2694.65,-379.71 2982.65,-379.71 2982.65,-457.71"/>
<text text-anchor="start" x="2736.15" y="-443.51" font-family="Helvetica,sans-Serif" font-weight="bold" font-size="14.00"> Class=Health_education </text>
<text text-anchor="start" x="2936.15" y="-443.51" font-family="Helvetica,sans-Serif" font-size="14.00"> </text>
<text text-anchor="start" x="2769.15" y="-429.51" font-family="Helvetica,sans-Serif" font-size="14.00"> error: 0.985, n=95 </text>
<text text-anchor="start" x="2702.65" y="-415.51" font-family="Helvetica,sans-Serif" font-size="14.00"> p: (0.12, 0.16, 0.23, 0.16, 0.20, 0.14) </text>
<text text-anchor="start" x="2817.15" y="-401.51" font-family="Helvetica,sans-Serif" font-size="14.00">&#45;&#45;&#45;&#45;&#45;&#45;&#45;&#45;</text>
<text text-anchor="start" x="2799.65" y="-387.51" font-family="Helvetica,sans-Serif" font-weight="bold" font-size="14.00">DMFT.End</text>
</g>
<!-- 1&#45;&gt;7 -->
<g id="edge4" class="edge">
<title>1:s&#45;&gt;7:n</title>
<path fill="none" stroke="black" d="M4875.65,-508.71C4875.65,-508.71 3002.32,-461.81 2848.65,-457.96"/>
<polygon fill="black" stroke="black" points="2848.73,-454.46 2838.65,-457.71 2848.56,-461.46 2848.73,-454.46"/>
<text text-anchor="middle" x="4104.65" y="-479.51" font-family="Helvetica,sans-Serif" font-size="14.00">4</text>
</g>
<!-- 12 -->
<g id="node6" class="node">
<title>12</title>
<polygon fill="#e5d544" stroke="black" points="4061.65,-457.71 3773.65,-457.71 3773.65,-379.71 4061.65,-379.71 4061.65,-457.71"/>
<text text-anchor="start" x="3836.65" y="-443.51" font-family="Helvetica,sans-Serif" font-weight="bold" font-size="14.00"> Class=All_methods </text>
<text text-anchor="start" x="3993.65" y="-443.51" font-family="Helvetica,sans-Serif" font-size="14.00"> </text>
<text text-anchor="start" x="3843.65" y="-429.51" font-family="Helvetica,sans-Serif" font-size="14.00"> error: 0.970, n=172 </text>
<text text-anchor="start" x="3781.65" y="-415.51" font-family="Helvetica,sans-Serif" font-size="14.00"> p: (0.23, 0.18, 0.09, 0.23, 0.10, 0.16) </text>
<text text-anchor="start" x="3896.15" y="-401.51" font-family="Helvetica,sans-Serif" font-size="14.00">&#45;&#45;&#45;&#45;&#45;&#45;&#45;&#45;</text>
<text text-anchor="start" x="3878.65" y="-387.51" font-family="Helvetica,sans-Serif" font-weight="bold" font-size="14.00">DMFT.End</text>
</g>
<!-- 1&#45;&gt;12 -->
<g id="edge5" class="edge">
<title>1:s&#45;&gt;12:n</title>
<path fill="none" stroke="black" d="M4875.65,-508.71C4875.65,-508.71 4030.14,-463.7 3927.76,-458.25"/>
<polygon fill="black" stroke="black" points="3927.82,-454.75 3917.65,-457.71 3927.45,-461.74 3927.82,-454.75"/>
<text text-anchor="middle" x="4515.65" y="-479.51" font-family="Helvetica,sans-Serif" font-size="14.00">0</text>
</g>
<!-- 20 -->
<g id="node7" class="node">
<title>20</title>
<polygon fill="#e5d544" stroke="black" points="5019.65,-457.71 4731.65,-457.71 4731.65,-379.71 5019.65,-379.71 5019.65,-457.71"/>
<text text-anchor="start" x="4794.65" y="-443.51" font-family="Helvetica,sans-Serif" font-weight="bold" font-size="14.00"> Class=All_methods </text>
<text text-anchor="start" x="4951.65" y="-443.51" font-family="Helvetica,sans-Serif" font-size="14.00"> </text>
<text text-anchor="start" x="4806.15" y="-429.51" font-family="Helvetica,sans-Serif" font-size="14.00"> error: 0.992, n=80 </text>
<text text-anchor="start" x="4739.65" y="-415.51" font-family="Helvetica,sans-Serif" font-size="14.00"> p: (0.20, 0.18, 0.13, 0.14, 0.20, 0.16) </text>
<text text-anchor="start" x="4854.15" y="-401.51" font-family="Helvetica,sans-Serif" font-size="14.00">&#45;&#45;&#45;&#45;&#45;&#45;&#45;&#45;</text>
<text text-anchor="start" x="4836.65" y="-387.51" font-family="Helvetica,sans-Serif" font-weight="bold" font-size="14.00">DMFT.End</text>
</g>
<!-- 1&#45;&gt;20 -->
<g id="edge6" class="edge">
<title>1:s&#45;&gt;20:n</title>
<path fill="none" stroke="black" d="M4875.65,-508.71C4875.65,-508.71 4875.65,-482.93 4875.65,-468.03"/>
<polygon fill="black" stroke="black" points="4879.15,-467.71 4875.65,-457.71 4872.15,-467.71 4879.15,-467.71"/>
<text text-anchor="middle" x="4880.65" y="-479.51" font-family="Helvetica,sans-Serif" font-size="14.00">3</text>
</g>
<!-- 24 -->
<g id="node8" class="node">
<title>24</title>
<polygon fill="#e5d544" stroke="black" points="5977.65,-457.71 5689.65,-457.71 5689.65,-379.71 5977.65,-379.71 5977.65,-457.71"/>
<text text-anchor="start" x="5754.15" y="-443.51" font-family="Helvetica,sans-Serif" font-weight="bold" font-size="14.00"> Class=Mouthwash </text>
<text text-anchor="start" x="5908.15" y="-443.51" font-family="Helvetica,sans-Serif" font-size="14.00"> </text>
<text text-anchor="start" x="5764.15" y="-429.51" font-family="Helvetica,sans-Serif" font-size="14.00"> error: 0.989, n=65 </text>
<text text-anchor="start" x="5697.65" y="-415.51" font-family="Helvetica,sans-Serif" font-size="14.00"> p: (0.11, 0.15, 0.18, 0.20, 0.15, 0.20) </text>
<text text-anchor="start" x="5817.65" y="-401.51" font-family="Helvetica,sans-Serif" font-size="14.00">&#45;&#45;&#45;&#45;&#45;&#45;</text>
<text text-anchor="start" x="5809.15" y="-387.51" font-family="Helvetica,sans-Serif" font-weight="bold" font-size="14.00">Ethnic</text>
</g>
<!-- 1&#45;&gt;24 -->
<g id="edge7" class="edge">
<title>1:s&#45;&gt;24:n</title>
<path fill="none" stroke="black" d="M4875.65,-508.71C4875.65,-508.71 5721.15,-463.7 5823.54,-458.25"/>
<polygon fill="black" stroke="black" points="5823.85,-461.74 5833.65,-457.71 5823.47,-454.75 5823.85,-461.74"/>
<text text-anchor="middle" x="5473.65" y="-479.51" font-family="Helvetica,sans-Serif" font-size="14.00">7</text>
</g>
<!-- 27 -->
<g id="node9" class="node">
<title>27</title>
<polygon fill="#e5d544" stroke="black" points="6935.65,-457.71 6647.65,-457.71 6647.65,-379.71 6935.65,-379.71 6935.65,-457.71"/>
<text text-anchor="start" x="6712.15" y="-443.51" font-family="Helvetica,sans-Serif" font-weight="bold" font-size="14.00"> Class=Mouthwash </text>
<text text-anchor="start" x="6866.15" y="-443.51" font-family="Helvetica,sans-Serif" font-size="14.00"> </text>
<text text-anchor="start" x="6722.15" y="-429.51" font-family="Helvetica,sans-Serif" font-size="14.00"> error: 0.968, n=73 </text>
<text text-anchor="start" x="6655.65" y="-415.51" font-family="Helvetica,sans-Serif" font-size="14.00"> p: (0.11, 0.22, 0.08, 0.23, 0.18, 0.18) </text>
<text text-anchor="start" x="6770.15" y="-401.51" font-family="Helvetica,sans-Serif" font-size="14.00">&#45;&#45;&#45;&#45;&#45;&#45;&#45;&#45;</text>
<text text-anchor="start" x="6752.65" y="-387.51" font-family="Helvetica,sans-Serif" font-weight="bold" font-size="14.00">DMFT.End</text>
</g>
<!-- 1&#45;&gt;27 -->
<g id="edge8" class="edge">
<title>1:s&#45;&gt;27:n</title>
<path fill="none" stroke="black" d="M4875.65,-508.71C4875.65,-508.71 6630.53,-462 6781.34,-457.99"/>
<polygon fill="black" stroke="black" points="6781.74,-461.48 6791.65,-457.71 6781.56,-454.48 6781.74,-461.48"/>
<text text-anchor="middle" x="6066.65" y="-479.51" font-family="Helvetica,sans-Serif" font-size="14.00">1</text>
</g>
<!-- 30 -->
<g id="node10" class="node">
<title>30</title>
<polygon fill="#e5d544" stroke="black" points="8133.65,-457.71 7845.65,-457.71 7845.65,-379.71 8133.65,-379.71 8133.65,-457.71"/>
<text text-anchor="start" x="7904.65" y="-443.51" font-family="Helvetica,sans-Serif" font-weight="bold" font-size="14.00"> Class=Oral_hygiene </text>
<text text-anchor="start" x="8069.65" y="-443.51" font-family="Helvetica,sans-Serif" font-size="14.00"> </text>
<text text-anchor="start" x="7920.15" y="-429.51" font-family="Helvetica,sans-Serif" font-size="14.00"> error: 0.974, n=96 </text>
<text text-anchor="start" x="7853.65" y="-415.51" font-family="Helvetica,sans-Serif" font-size="14.00"> p: (0.19, 0.09, 0.20, 0.11, 0.17, 0.24) </text>
<text text-anchor="start" x="7968.15" y="-401.51" font-family="Helvetica,sans-Serif" font-size="14.00">&#45;&#45;&#45;&#45;&#45;&#45;&#45;&#45;</text>
<text text-anchor="start" x="7950.65" y="-387.51" font-family="Helvetica,sans-Serif" font-weight="bold" font-size="14.00">DMFT.End</text>
</g>
<!-- 1&#45;&gt;30 -->
<g id="edge9" class="edge">
<title>1:s&#45;&gt;30:n</title>
<path fill="none" stroke="black" d="M4875.65,-508.71C4875.65,-508.71 7786.29,-461.04 7979.58,-457.88"/>
<polygon fill="black" stroke="black" points="7979.71,-461.37 7989.65,-457.71 7979.59,-454.37 7979.71,-461.37"/>
<text text-anchor="middle" x="6931.65" y="-479.51" font-family="Helvetica,sans-Serif" font-size="14.00">2</text>
</g>
<!-- 34 -->
<g id="node11" class="node">
<title>34</title>
<polygon fill="#e5d544" stroke="black" points="9569.65,-457.71 9281.65,-457.71 9281.65,-379.71 9569.65,-379.71 9569.65,-457.71"/>
<text text-anchor="start" x="9346.15" y="-443.51" font-family="Helvetica,sans-Serif" font-weight="bold" font-size="14.00"> Class=Mouthwash </text>
<text text-anchor="start" x="9500.15" y="-443.51" font-family="Helvetica,sans-Serif" font-size="14.00"> </text>
<text text-anchor="start" x="9356.15" y="-429.51" font-family="Helvetica,sans-Serif" font-size="14.00"> error: 0.996, n=85 </text>
<text text-anchor="start" x="9289.65" y="-415.51" font-family="Helvetica,sans-Serif" font-size="14.00"> p: (0.15, 0.14, 0.19, 0.20, 0.16, 0.15) </text>
<text text-anchor="start" x="9404.15" y="-401.51" font-family="Helvetica,sans-Serif" font-size="14.00">&#45;&#45;&#45;&#45;&#45;&#45;&#45;&#45;</text>
<text text-anchor="start" x="9386.65" y="-387.51" font-family="Helvetica,sans-Serif" font-weight="bold" font-size="14.00">DMFT.End</text>
</g>
<!-- 1&#45;&gt;34 -->
<g id="edge10" class="edge">
<title>1:s&#45;&gt;34:n</title>
<path fill="none" stroke="black" d="M4875.65,-508.71C4875.65,-508.71 9180.22,-460.46 9415.63,-457.82"/>
<polygon fill="black" stroke="black" points="9415.69,-461.32 9425.65,-457.71 9415.61,-454.32 9415.69,-461.32"/>
<text text-anchor="middle" x="8047.65" y="-479.51" font-family="Helvetica,sans-Serif" font-size="14.00">6</text>
</g>
<!-- 3 -->
<g id="node12" class="node">
<title>3</title>
<ellipse fill="#59cc3d" stroke="black" cx="203.65" cy="-289.71" rx="203.79" ry="35.21"/>
<text text-anchor="start" x="101.15" y="-300.51" font-family="Helvetica,sans-Serif" font-weight="bold" font-size="14.00"> Class=Health_education </text>
<text text-anchor="start" x="301.15" y="-300.51" font-family="Helvetica,sans-Serif" font-size="14.00"> </text>
<text text-anchor="start" x="134.15" y="-286.51" font-family="Helvetica,sans-Serif" font-size="14.00"> error: 0.857, n=19 </text>
<text text-anchor="start" x="67.65" y="-272.51" font-family="Helvetica,sans-Serif" font-size="14.00"> p: (0.16, 0.11, 0.32, 0.26, 0.16, 0.00) </text>
</g>
<!-- 2&#45;&gt;3 -->
<g id="edge11" class="edge">
<title>2:s&#45;&gt;3:n</title>
<path fill="none" stroke="black" d="M922.65,-379.71C922.65,-379.71 301.2,-333.9 213.81,-327.46"/>
<polygon fill="black" stroke="black" points="213.88,-323.96 203.65,-326.71 213.36,-330.94 213.88,-323.96"/>
<text text-anchor="middle" x="674.65" y="-350.51" font-family="Helvetica,sans-Serif" font-size="14.00">1</text>
</g>
<!-- 4 -->
<g id="node13" class="node">
<title>4</title>
<ellipse fill="#59cc3d" stroke="black" cx="682.65" cy="-289.71" rx="203.79" ry="35.21"/>
<text text-anchor="start" x="603.15" y="-300.51" font-family="Helvetica,sans-Serif" font-weight="bold" font-size="14.00"> Class=Mouthwash </text>
<text text-anchor="start" x="757.15" y="-300.51" font-family="Helvetica,sans-Serif" font-size="14.00"> </text>
<text text-anchor="start" x="613.15" y="-286.51" font-family="Helvetica,sans-Serif" font-size="14.00"> error: 0.767, n=17 </text>
<text text-anchor="start" x="546.65" y="-272.51" font-family="Helvetica,sans-Serif" font-size="14.00"> p: (0.06, 0.06, 0.18, 0.35, 0.35, 0.00) </text>
</g>
<!-- 2&#45;&gt;4 -->
<g id="edge12" class="edge">
<title>2:s&#45;&gt;4:n</title>
<path fill="none" stroke="black" d="M922.65,-379.71C922.65,-379.71 738.08,-338.95 692.65,-328.92"/>
<polygon fill="black" stroke="black" points="693.17,-325.45 682.65,-326.71 691.66,-332.28 693.17,-325.45"/>
<text text-anchor="middle" x="843.65" y="-350.51" font-family="Helvetica,sans-Serif" font-size="14.00">4</text>
</g>
<!-- 5 -->
<g id="node14" class="node">
<title>5</title>
<ellipse fill="#59cc3d" stroke="black" cx="1161.65" cy="-289.71" rx="203.79" ry="35.21"/>
<text text-anchor="start" x="1063.65" y="-300.51" font-family="Helvetica,sans-Serif" font-weight="bold" font-size="14.00"> Class=Diet_enrichment </text>
<text text-anchor="start" x="1254.65" y="-300.51" font-family="Helvetica,sans-Serif" font-size="14.00"> </text>
<text text-anchor="start" x="1092.15" y="-286.51" font-family="Helvetica,sans-Serif" font-size="14.00"> error: 0.840, n=20 </text>
<text text-anchor="start" x="1025.65" y="-272.51" font-family="Helvetica,sans-Serif" font-size="14.00"> p: (0.10, 0.30, 0.00, 0.20, 0.30, 0.10) </text>
</g>
<!-- 2&#45;&gt;5 -->
<g id="edge13" class="edge">
<title>2:s&#45;&gt;5:n</title>
<path fill="none" stroke="black" d="M922.65,-379.71C922.65,-379.71 1106.45,-338.95 1151.68,-328.92"/>
<polygon fill="black" stroke="black" points="1152.64,-332.29 1161.65,-326.71 1151.13,-325.46 1152.64,-332.29"/>
<text text-anchor="middle" x="1075.65" y="-350.51" font-family="Helvetica,sans-Serif" font-size="14.00">3</text>
</g>
<!-- 8 -->
<g id="node15" class="node">
<title>8</title>
<ellipse fill="#59cc3d" stroke="black" cx="1640.65" cy="-289.71" rx="203.79" ry="35.21"/>
<text text-anchor="start" x="1538.15" y="-300.51" font-family="Helvetica,sans-Serif" font-weight="bold" font-size="14.00"> Class=Health_education </text>
<text text-anchor="start" x="1738.15" y="-300.51" font-family="Helvetica,sans-Serif" font-size="14.00"> </text>
<text text-anchor="start" x="1571.15" y="-286.51" font-family="Helvetica,sans-Serif" font-size="14.00"> error: 0.921, n=28 </text>
<text text-anchor="start" x="1504.65" y="-272.51" font-family="Helvetica,sans-Serif" font-size="14.00"> p: (0.07, 0.25, 0.29, 0.21, 0.11, 0.07) </text>
</g>
<!-- 7&#45;&gt;8 -->
<g id="edge14" class="edge">
<title>7:s&#45;&gt;8:n</title>
<path fill="none" stroke="black" d="M2838.65,-379.71C2838.65,-379.71 1765.88,-332.25 1650.64,-327.15"/>
<polygon fill="black" stroke="black" points="1650.79,-323.66 1640.65,-326.71 1650.48,-330.65 1650.79,-323.66"/>
<text text-anchor="middle" x="2370.65" y="-350.51" font-family="Helvetica,sans-Serif" font-size="14.00">3</text>
</g>
<!-- 9 -->
<g id="node16" class="node">
<title>9</title>
<ellipse fill="#59cc3d" stroke="black" cx="2119.65" cy="-289.71" rx="203.79" ry="35.21"/>
<text text-anchor="start" x="2017.15" y="-300.51" font-family="Helvetica,sans-Serif" font-weight="bold" font-size="14.00"> Class=Health_education </text>
<text text-anchor="start" x="2217.15" y="-300.51" font-family="Helvetica,sans-Serif" font-size="14.00"> </text>
<text text-anchor="start" x="2050.15" y="-286.51" font-family="Helvetica,sans-Serif" font-size="14.00"> error: 0.846, n=16 </text>
<text text-anchor="start" x="1983.65" y="-272.51" font-family="Helvetica,sans-Serif" font-size="14.00"> p: (0.19, 0.00, 0.38, 0.12, 0.12, 0.19) </text>
</g>
<!-- 7&#45;&gt;9 -->
<g id="edge15" class="edge">
<title>7:s&#45;&gt;9:n</title>
<path fill="none" stroke="black" d="M2838.65,-379.71C2838.65,-379.71 2217.2,-333.9 2129.81,-327.46"/>
<polygon fill="black" stroke="black" points="2129.88,-323.96 2119.65,-326.71 2129.36,-330.94 2129.88,-323.96"/>
<text text-anchor="middle" x="2590.65" y="-350.51" font-family="Helvetica,sans-Serif" font-size="14.00">0</text>
</g>
<!-- 10 -->
<g id="node17" class="node">
<title>10</title>
<ellipse fill="#59cc3d" stroke="black" cx="2598.65" cy="-289.71" rx="203.79" ry="35.21"/>
<text text-anchor="start" x="2544.15" y="-300.51" font-family="Helvetica,sans-Serif" font-weight="bold" font-size="14.00"> Class=None </text>
<text text-anchor="start" x="2648.15" y="-300.51" font-family="Helvetica,sans-Serif" font-size="14.00"> </text>
<text text-anchor="start" x="2529.15" y="-286.51" font-family="Helvetica,sans-Serif" font-size="14.00"> error: 0.936, n=17 </text>
<text text-anchor="start" x="2462.65" y="-272.51" font-family="Helvetica,sans-Serif" font-size="14.00"> p: (0.06, 0.18, 0.24, 0.12, 0.29, 0.12) </text>
</g>
<!-- 7&#45;&gt;10 -->
<g id="edge16" class="edge">
<title>7:s&#45;&gt;10:n</title>
<path fill="none" stroke="black" d="M2838.65,-379.71C2838.65,-379.71 2654.08,-338.95 2608.65,-328.92"/>
<polygon fill="black" stroke="black" points="2609.17,-325.45 2598.65,-326.71 2607.66,-332.28 2609.17,-325.45"/>
<text text-anchor="middle" x="2759.65" y="-350.51" font-family="Helvetica,sans-Serif" font-size="14.00">2</text>
</g>
<!-- 11 -->
<g id="node18" class="node">
<title>11</title>
<ellipse fill="#59cc3d" stroke="black" cx="3077.65" cy="-289.71" rx="203.79" ry="35.21"/>
<text text-anchor="start" x="3023.15" y="-300.51" font-family="Helvetica,sans-Serif" font-weight="bold" font-size="14.00"> Class=None </text>
<text text-anchor="start" x="3127.15" y="-300.51" font-family="Helvetica,sans-Serif" font-size="14.00"> </text>
<text text-anchor="start" x="3008.15" y="-286.51" font-family="Helvetica,sans-Serif" font-size="14.00"> error: 0.971, n=18 </text>
<text text-anchor="start" x="2941.65" y="-272.51" font-family="Helvetica,sans-Serif" font-size="14.00"> p: (0.11, 0.17, 0.17, 0.11, 0.28, 0.17) </text>
</g>
<!-- 7&#45;&gt;11 -->
<g id="edge17" class="edge">
<title>7:s&#45;&gt;11:n</title>
<path fill="none" stroke="black" d="M2838.65,-379.71C2838.65,-379.71 3022.45,-338.95 3067.68,-328.92"/>
<polygon fill="black" stroke="black" points="3068.64,-332.29 3077.65,-326.71 3067.13,-325.46 3068.64,-332.29"/>
<text text-anchor="middle" x="2991.65" y="-350.51" font-family="Helvetica,sans-Serif" font-size="14.00">1</text>
</g>
<!-- 13 -->
<g id="node19" class="node">
<title>13</title>
<polygon fill="#59cc3d" stroke="black" points="3641.65,-328.71 3353.65,-328.71 3353.65,-250.71 3641.65,-250.71 3641.65,-328.71"/>
<text text-anchor="start" x="3418.15" y="-314.51" font-family="Helvetica,sans-Serif" font-weight="bold" font-size="14.00"> Class=Mouthwash </text>
<text text-anchor="start" x="3572.15" y="-314.51" font-family="Helvetica,sans-Serif" font-size="14.00"> </text>
<text text-anchor="start" x="3423.65" y="-300.51" font-family="Helvetica,sans-Serif" font-size="14.00"> error: 0.954, n=125 </text>
<text text-anchor="start" x="3361.65" y="-286.51" font-family="Helvetica,sans-Serif" font-size="14.00"> p: (0.23, 0.14, 0.09, 0.28, 0.10, 0.15) </text>
<text text-anchor="start" x="3481.65" y="-272.51" font-family="Helvetica,sans-Serif" font-size="14.00">&#45;&#45;&#45;&#45;&#45;&#45;</text>
<text text-anchor="start" x="3473.15" y="-258.51" font-family="Helvetica,sans-Serif" font-weight="bold" font-size="14.00">Ethnic</text>
</g>
<!-- 12&#45;&gt;13 -->
<g id="edge18" class="edge">
<title>12:s&#45;&gt;13:n</title>
<path fill="none" stroke="black" d="M3917.65,-379.71C3917.65,-379.71 3571.22,-337.64 3507.61,-329.92"/>
<polygon fill="black" stroke="black" points="3508,-326.44 3497.65,-328.71 3507.15,-333.39 3508,-326.44"/>
<text text-anchor="middle" x="3762.65" y="-350.51" font-family="Helvetica,sans-Serif" font-size="14.00">0</text>
</g>
<!-- 19 -->
<g id="node20" class="node">
<title>19</title>
<ellipse fill="#59cc3d" stroke="black" cx="3917.65" cy="-289.71" rx="203.79" ry="35.21"/>
<text text-anchor="start" x="3832.65" y="-300.51" font-family="Helvetica,sans-Serif" font-weight="bold" font-size="14.00"> Class=Oral_hygiene </text>
<text text-anchor="start" x="3997.65" y="-300.51" font-family="Helvetica,sans-Serif" font-size="14.00"> </text>
<text text-anchor="start" x="3848.15" y="-286.51" font-family="Helvetica,sans-Serif" font-size="14.00"> error: 0.930, n=29 </text>
<text text-anchor="start" x="3781.65" y="-272.51" font-family="Helvetica,sans-Serif" font-size="14.00"> p: (0.21, 0.24, 0.07, 0.07, 0.14, 0.28) </text>
</g>
<!-- 12&#45;&gt;19 -->
<g id="edge19" class="edge">
<title>12:s&#45;&gt;19:n</title>
<path fill="none" stroke="black" d="M3917.65,-379.71C3917.65,-379.71 3917.65,-352.33 3917.65,-336.93"/>
<polygon fill="black" stroke="black" points="3921.15,-336.71 3917.65,-326.71 3914.15,-336.71 3921.15,-336.71"/>
<text text-anchor="middle" x="3922.65" y="-350.51" font-family="Helvetica,sans-Serif" font-size="14.00">1</text>
</g>
<!-- 21 -->
<g id="node26" class="node">
<title>21</title>
<ellipse fill="#59cc3d" stroke="black" cx="4396.65" cy="-289.71" rx="203.79" ry="35.21"/>
<text text-anchor="start" x="4342.15" y="-300.51" font-family="Helvetica,sans-Serif" font-weight="bold" font-size="14.00"> Class=None </text>
<text text-anchor="start" x="4446.15" y="-300.51" font-family="Helvetica,sans-Serif" font-size="14.00"> </text>
<text text-anchor="start" x="4327.15" y="-286.51" font-family="Helvetica,sans-Serif" font-size="14.00"> error: 0.979, n=21 </text>
<text text-anchor="start" x="4260.65" y="-272.51" font-family="Helvetica,sans-Serif" font-size="14.00"> p: (0.14, 0.19, 0.10, 0.14, 0.24, 0.19) </text>
</g>
<!-- 20&#45;&gt;21 -->
<g id="edge25" class="edge">
<title>20:s&#45;&gt;21:n</title>
<path fill="none" stroke="black" d="M4875.65,-379.71C4875.65,-379.71 4475.44,-335.43 4406.65,-327.82"/>
<polygon fill="black" stroke="black" points="4406.97,-324.33 4396.65,-326.71 4406.2,-331.29 4406.97,-324.33"/>
<text text-anchor="middle" x="4712.65" y="-350.51" font-family="Helvetica,sans-Serif" font-size="14.00">2</text>
</g>
<!-- 22 -->
<g id="node27" class="node">
<title>22</title>
<ellipse fill="#59cc3d" stroke="black" cx="4875.65" cy="-289.71" rx="203.79" ry="35.21"/>
<text text-anchor="start" x="4794.65" y="-300.51" font-family="Helvetica,sans-Serif" font-weight="bold" font-size="14.00"> Class=All_methods </text>
<text text-anchor="start" x="4951.65" y="-300.51" font-family="Helvetica,sans-Serif" font-size="14.00"> </text>
<text text-anchor="start" x="4806.15" y="-286.51" font-family="Helvetica,sans-Serif" font-size="14.00"> error: 0.995, n=20 </text>
<text text-anchor="start" x="4739.65" y="-272.51" font-family="Helvetica,sans-Serif" font-size="14.00"> p: (0.20, 0.20, 0.15, 0.15, 0.15, 0.15) </text>
</g>
<!-- 20&#45;&gt;22 -->
<g id="edge26" class="edge">
<title>20:s&#45;&gt;22:n</title>
<path fill="none" stroke="black" d="M4875.65,-379.71C4875.65,-379.71 4875.65,-352.33 4875.65,-336.93"/>
<polygon fill="black" stroke="black" points="4879.15,-336.71 4875.65,-326.71 4872.15,-336.71 4879.15,-336.71"/>
<text text-anchor="middle" x="4880.65" y="-350.51" font-family="Helvetica,sans-Serif" font-size="14.00">1</text>
</g>
<!-- 23 -->
<g id="node28" class="node">
<title>23</title>
<ellipse fill="#59cc3d" stroke="black" cx="5354.65" cy="-289.71" rx="203.79" ry="35.21"/>
<text text-anchor="start" x="5300.15" y="-300.51" font-family="Helvetica,sans-Serif" font-weight="bold" font-size="14.00"> Class=None </text>
<text text-anchor="start" x="5404.15" y="-300.51" font-family="Helvetica,sans-Serif" font-size="14.00"> </text>
<text text-anchor="start" x="5285.15" y="-286.51" font-family="Helvetica,sans-Serif" font-size="14.00"> error: 0.936, n=17 </text>
<text text-anchor="start" x="5218.65" y="-272.51" font-family="Helvetica,sans-Serif" font-size="14.00"> p: (0.24, 0.18, 0.06, 0.12, 0.29, 0.12) </text>
</g>
<!-- 20&#45;&gt;23 -->
<g id="edge27" class="edge">
<title>20:s&#45;&gt;23:n</title>
<path fill="none" stroke="black" d="M4875.65,-379.71C4875.65,-379.71 5275.86,-335.43 5344.64,-327.82"/>
<polygon fill="black" stroke="black" points="5345.09,-331.29 5354.65,-326.71 5344.32,-324.33 5345.09,-331.29"/>
<text text-anchor="middle" x="5177.65" y="-350.51" font-family="Helvetica,sans-Serif" font-size="14.00">0</text>
</g>
<!-- 25 -->
<g id="node29" class="node">
<title>25</title>
<ellipse fill="#59cc3d" stroke="black" cx="5833.65" cy="-289.71" rx="203.79" ry="35.21"/>
<text text-anchor="start" x="5731.15" y="-300.51" font-family="Helvetica,sans-Serif" font-weight="bold" font-size="14.00"> Class=Health_education </text>
<text text-anchor="start" x="5931.15" y="-300.51" font-family="Helvetica,sans-Serif" font-size="14.00"> </text>
<text text-anchor="start" x="5764.15" y="-286.51" font-family="Helvetica,sans-Serif" font-size="14.00"> error: 0.939, n=36 </text>
<text text-anchor="start" x="5697.65" y="-272.51" font-family="Helvetica,sans-Serif" font-size="14.00"> p: (0.06, 0.11, 0.31, 0.17, 0.17, 0.19) </text>
</g>
<!-- 24&#45;&gt;25 -->
<g id="edge28" class="edge">
<title>24:s&#45;&gt;25:n</title>
<path fill="none" stroke="black" d="M5833.65,-379.71C5833.65,-379.71 5833.65,-352.33 5833.65,-336.93"/>
<polygon fill="black" stroke="black" points="5837.15,-336.71 5833.65,-326.71 5830.15,-336.71 5837.15,-336.71"/>
<text text-anchor="middle" x="5853.65" y="-350.51" font-family="Helvetica,sans-Serif" font-size="14.00">White</text>
</g>
<!-- 26 -->
<g id="node30" class="node">
<title>26</title>
<ellipse fill="#59cc3d" stroke="black" cx="6312.65" cy="-289.71" rx="203.79" ry="35.21"/>
<text text-anchor="start" x="6233.15" y="-300.51" font-family="Helvetica,sans-Serif" font-weight="bold" font-size="14.00"> Class=Mouthwash </text>
<text text-anchor="start" x="6387.15" y="-300.51" font-family="Helvetica,sans-Serif" font-size="14.00"> </text>
<text text-anchor="start" x="6243.15" y="-286.51" font-family="Helvetica,sans-Serif" font-size="14.00"> error: 0.856, n=23 </text>
<text text-anchor="start" x="6176.65" y="-272.51" font-family="Helvetica,sans-Serif" font-size="14.00"> p: (0.17, 0.26, 0.00, 0.30, 0.09, 0.17) </text>
</g>
<!-- 24&#45;&gt;26 -->
<g id="edge29" class="edge">
<title>24:s&#45;&gt;26:n</title>
<path fill="none" stroke="black" d="M5833.65,-379.71C5833.65,-379.71 6233.86,-335.43 6302.64,-327.82"/>
<polygon fill="black" stroke="black" points="6303.09,-331.29 6312.65,-326.71 6302.32,-324.33 6303.09,-331.29"/>
<text text-anchor="middle" x="6147.65" y="-350.51" font-family="Helvetica,sans-Serif" font-size="14.00">Dark</text>
</g>
<!-- 28 -->
<g id="node31" class="node">
<title>28</title>
<ellipse fill="#59cc3d" stroke="black" cx="6791.65" cy="-289.71" rx="203.79" ry="35.21"/>
<text text-anchor="start" x="6712.15" y="-300.51" font-family="Helvetica,sans-Serif" font-weight="bold" font-size="14.00"> Class=Mouthwash </text>
<text text-anchor="start" x="6866.15" y="-300.51" font-family="Helvetica,sans-Serif" font-size="14.00"> </text>
<text text-anchor="start" x="6722.15" y="-286.51" font-family="Helvetica,sans-Serif" font-size="14.00"> error: 0.912, n=29 </text>
<text text-anchor="start" x="6655.65" y="-272.51" font-family="Helvetica,sans-Serif" font-size="14.00"> p: (0.17, 0.14, 0.03, 0.31, 0.10, 0.24) </text>
</g>
<!-- 27&#45;&gt;28 -->
<g id="edge30" class="edge">
<title>27:s&#45;&gt;28:n</title>
<path fill="none" stroke="black" d="M6791.65,-379.71C6791.65,-379.71 6791.65,-352.33 6791.65,-336.93"/>
<polygon fill="black" stroke="black" points="6795.15,-336.71 6791.65,-326.71 6788.15,-336.71 6795.15,-336.71"/>
<text text-anchor="middle" x="6796.65" y="-350.51" font-family="Helvetica,sans-Serif" font-size="14.00">0</text>
</g>
<!-- 29 -->
<g id="node32" class="node">
<title>29</title>
<ellipse fill="#59cc3d" stroke="black" cx="7270.65" cy="-289.71" rx="203.79" ry="35.21"/>
<text text-anchor="start" x="7172.65" y="-300.51" font-family="Helvetica,sans-Serif" font-weight="bold" font-size="14.00"> Class=Diet_enrichment </text>
<text text-anchor="start" x="7363.65" y="-300.51" font-family="Helvetica,sans-Serif" font-size="14.00"> </text>
<text text-anchor="start" x="7201.15" y="-286.51" font-family="Helvetica,sans-Serif" font-size="14.00"> error: 0.965, n=27 </text>
<text text-anchor="start" x="7134.65" y="-272.51" font-family="Helvetica,sans-Serif" font-size="14.00"> p: (0.11, 0.26, 0.11, 0.19, 0.22, 0.11) </text>
</g>
<!-- 27&#45;&gt;29 -->
<g id="edge31" class="edge">
<title>27:s&#45;&gt;29:n</title>
<path fill="none" stroke="black" d="M6791.65,-379.71C6791.65,-379.71 7191.86,-335.43 7260.64,-327.82"/>
<polygon fill="black" stroke="black" points="7261.09,-331.29 7270.65,-326.71 7260.32,-324.33 7261.09,-331.29"/>
<text text-anchor="middle" x="7093.65" y="-350.51" font-family="Helvetica,sans-Serif" font-size="14.00">1</text>
</g>
<!-- 31 -->
<g id="node33" class="node">
<title>31</title>
<ellipse fill="#59cc3d" stroke="black" cx="7749.65" cy="-289.71" rx="203.79" ry="35.21"/>
<text text-anchor="start" x="7664.65" y="-300.51" font-family="Helvetica,sans-Serif" font-weight="bold" font-size="14.00"> Class=Oral_hygiene </text>
<text text-anchor="start" x="7829.65" y="-300.51" font-family="Helvetica,sans-Serif" font-size="14.00"> </text>
<text text-anchor="start" x="7680.15" y="-286.51" font-family="Helvetica,sans-Serif" font-size="14.00"> error: 0.850, n=31 </text>
<text text-anchor="start" x="7613.65" y="-272.51" font-family="Helvetica,sans-Serif" font-size="14.00"> p: (0.19, 0.00, 0.26, 0.13, 0.10, 0.32) </text>
</g>
<!-- 30&#45;&gt;31 -->
<g id="edge32" class="edge">
<title>30:s&#45;&gt;31:n</title>
<path fill="none" stroke="black" d="M7989.65,-379.71C7989.65,-379.71 7805.08,-338.95 7759.65,-328.92"/>
<polygon fill="black" stroke="black" points="7760.17,-325.45 7749.65,-326.71 7758.66,-332.28 7760.17,-325.45"/>
<text text-anchor="middle" x="7910.65" y="-350.51" font-family="Helvetica,sans-Serif" font-size="14.00">1</text>
</g>
<!-- 32 -->
<g id="node34" class="node">
<title>32</title>
<ellipse fill="#59cc3d" stroke="black" cx="8228.65" cy="-289.71" rx="203.79" ry="35.21"/>
<text text-anchor="start" x="8174.15" y="-300.51" font-family="Helvetica,sans-Serif" font-weight="bold" font-size="14.00"> Class=None </text>
<text text-anchor="start" x="8278.15" y="-300.51" font-family="Helvetica,sans-Serif" font-size="14.00"> </text>
<text text-anchor="start" x="8159.15" y="-286.51" font-family="Helvetica,sans-Serif" font-size="14.00"> error: 0.975, n=31 </text>
<text text-anchor="start" x="8092.65" y="-272.51" font-family="Helvetica,sans-Serif" font-size="14.00"> p: (0.16, 0.10, 0.16, 0.13, 0.26, 0.19) </text>
</g>
<!-- 30&#45;&gt;32 -->
<g id="edge33" class="edge">
<title>30:s&#45;&gt;32:n</title>
<path fill="none" stroke="black" d="M7989.65,-379.71C7989.65,-379.71 8173.45,-338.95 8218.68,-328.92"/>
<polygon fill="black" stroke="black" points="8219.64,-332.29 8228.65,-326.71 8218.13,-325.46 8219.64,-332.29"/>
<text text-anchor="middle" x="8142.65" y="-350.51" font-family="Helvetica,sans-Serif" font-size="14.00">2</text>
</g>
<!-- 33 -->
<g id="node35" class="node">
<title>33</title>
<ellipse fill="#59cc3d" stroke="black" cx="8707.65" cy="-289.71" rx="203.79" ry="35.21"/>
<text text-anchor="start" x="8626.65" y="-300.51" font-family="Helvetica,sans-Serif" font-weight="bold" font-size="14.00"> Class=All_methods </text>
<text text-anchor="start" x="8783.65" y="-300.51" font-family="Helvetica,sans-Serif" font-size="14.00"> </text>
<text text-anchor="start" x="8638.15" y="-286.51" font-family="Helvetica,sans-Serif" font-size="14.00"> error: 0.936, n=19 </text>
<text text-anchor="start" x="8571.65" y="-272.51" font-family="Helvetica,sans-Serif" font-size="14.00"> p: (0.26, 0.05, 0.16, 0.11, 0.16, 0.26) </text>
</g>
<!-- 30&#45;&gt;33 -->
<g id="edge34" class="edge">
<title>30:s&#45;&gt;33:n</title>
<path fill="none" stroke="black" d="M7989.65,-379.71C7989.65,-379.71 8610.23,-333.9 8697.5,-327.46"/>
<polygon fill="black" stroke="black" points="8697.93,-330.94 8707.65,-326.71 8697.42,-323.96 8697.93,-330.94"/>
<text text-anchor="middle" x="8439.65" y="-350.51" font-family="Helvetica,sans-Serif" font-size="14.00">0</text>
</g>
<!-- 35 -->
<g id="node36" class="node">
<title>35</title>
<ellipse fill="#59cc3d" stroke="black" cx="9186.65" cy="-289.71" rx="203.79" ry="35.21"/>
<text text-anchor="start" x="9132.15" y="-300.51" font-family="Helvetica,sans-Serif" font-weight="bold" font-size="14.00"> Class=None </text>
<text text-anchor="start" x="9236.15" y="-300.51" font-family="Helvetica,sans-Serif" font-size="14.00"> </text>
<text text-anchor="start" x="9117.15" y="-286.51" font-family="Helvetica,sans-Serif" font-size="14.00"> error: 0.864, n=19 </text>
<text text-anchor="start" x="9050.65" y="-272.51" font-family="Helvetica,sans-Serif" font-size="14.00"> p: (0.00, 0.21, 0.16, 0.21, 0.32, 0.11) </text>
</g>
<!-- 34&#45;&gt;35 -->
<g id="edge35" class="edge">
<title>34:s&#45;&gt;35:n</title>
<path fill="none" stroke="black" d="M9425.65,-379.71C9425.65,-379.71 9241.84,-338.95 9196.61,-328.92"/>
<polygon fill="black" stroke="black" points="9197.17,-325.46 9186.65,-326.71 9195.65,-332.29 9197.17,-325.46"/>
<text text-anchor="middle" x="9346.65" y="-350.51" font-family="Helvetica,sans-Serif" font-size="14.00">3</text>
</g>
<!-- 36 -->
<g id="node37" class="node">
<title>36</title>
<ellipse fill="#59cc3d" stroke="black" cx="9665.65" cy="-289.71" rx="203.79" ry="35.21"/>
<text text-anchor="start" x="9563.15" y="-300.51" font-family="Helvetica,sans-Serif" font-weight="bold" font-size="14.00"> Class=Health_education </text>
<text text-anchor="start" x="9763.15" y="-300.51" font-family="Helvetica,sans-Serif" font-size="14.00"> </text>
<text text-anchor="start" x="9596.15" y="-286.51" font-family="Helvetica,sans-Serif" font-size="14.00"> error: 0.910, n=16 </text>
<text text-anchor="start" x="9529.65" y="-272.51" font-family="Helvetica,sans-Serif" font-size="14.00"> p: (0.06, 0.25, 0.31, 0.19, 0.12, 0.06) </text>
</g>
<!-- 34&#45;&gt;36 -->
<g id="edge36" class="edge">
<title>34:s&#45;&gt;36:n</title>
<path fill="none" stroke="black" d="M9425.65,-379.71C9425.65,-379.71 9610.22,-338.95 9655.64,-328.92"/>
<polygon fill="black" stroke="black" points="9656.64,-332.28 9665.65,-326.71 9655.13,-325.45 9656.64,-332.28"/>
<text text-anchor="middle" x="9579.65" y="-350.51" font-family="Helvetica,sans-Serif" font-size="14.00">4</text>
</g>
<!-- 37 -->
<g id="node38" class="node">
<title>37</title>
<ellipse fill="#59cc3d" stroke="black" cx="10144.65" cy="-289.71" rx="203.79" ry="35.21"/>
<text text-anchor="start" x="10059.65" y="-300.51" font-family="Helvetica,sans-Serif" font-weight="bold" font-size="14.00"> Class=Oral_hygiene </text>
<text text-anchor="start" x="10224.65" y="-300.51" font-family="Helvetica,sans-Serif" font-size="14.00"> </text>
<text text-anchor="start" x="10075.15" y="-286.51" font-family="Helvetica,sans-Serif" font-size="14.00"> error: 0.932, n=20 </text>
<text text-anchor="start" x="10008.65" y="-272.51" font-family="Helvetica,sans-Serif" font-size="14.00"> p: (0.20, 0.10, 0.20, 0.15, 0.05, 0.30) </text>
</g>
<!-- 34&#45;&gt;37 -->
<g id="edge37" class="edge">
<title>34:s&#45;&gt;37:n</title>
<path fill="none" stroke="black" d="M9425.65,-379.71C9425.65,-379.71 10047.09,-333.9 10134.48,-327.46"/>
<polygon fill="black" stroke="black" points="10134.93,-330.94 10144.65,-326.71 10134.42,-323.96 10134.93,-330.94"/>
<text text-anchor="middle" x="9876.65" y="-350.51" font-family="Helvetica,sans-Serif" font-size="14.00">2</text>
</g>
<!-- 14 -->
<g id="node21" class="node">
<title>14</title>
<ellipse fill="#44e5b5" stroke="black" cx="3018.65" cy="-160.71" rx="203.79" ry="35.21"/>
<text text-anchor="start" x="2939.15" y="-171.51" font-family="Helvetica,sans-Serif" font-weight="bold" font-size="14.00"> Class=Mouthwash </text>
<text text-anchor="start" x="3093.15" y="-171.51" font-family="Helvetica,sans-Serif" font-size="14.00"> </text>
<text text-anchor="start" x="2949.15" y="-157.51" font-family="Helvetica,sans-Serif" font-size="14.00"> error: 0.868, n=22 </text>
<text text-anchor="start" x="2882.65" y="-143.51" font-family="Helvetica,sans-Serif" font-size="14.00"> p: (0.27, 0.05, 0.09, 0.32, 0.23, 0.05) </text>
</g>
<!-- 13&#45;&gt;14 -->
<g id="edge20" class="edge">
<title>13:s&#45;&gt;14:n</title>
<path fill="none" stroke="black" d="M3497.65,-250.71C3497.65,-250.71 3097.44,-206.43 3028.65,-198.82"/>
<polygon fill="black" stroke="black" points="3028.97,-195.33 3018.65,-197.71 3028.2,-202.29 3028.97,-195.33"/>
<text text-anchor="middle" x="3348.65" y="-221.51" font-family="Helvetica,sans-Serif" font-size="14.00">Black</text>
</g>
<!-- 15 -->
<g id="node22" class="node">
<title>15</title>
<ellipse fill="#44e5b5" stroke="black" cx="3497.65" cy="-160.71" rx="203.79" ry="35.21"/>
<text text-anchor="start" x="3416.65" y="-171.51" font-family="Helvetica,sans-Serif" font-weight="bold" font-size="14.00"> Class=All_methods </text>
<text text-anchor="start" x="3573.65" y="-171.51" font-family="Helvetica,sans-Serif" font-size="14.00"> </text>
<text text-anchor="start" x="3428.15" y="-157.51" font-family="Helvetica,sans-Serif" font-size="14.00"> error: 0.926, n=48 </text>
<text text-anchor="start" x="3361.65" y="-143.51" font-family="Helvetica,sans-Serif" font-size="14.00"> p: (0.25, 0.25, 0.04, 0.23, 0.10, 0.13) </text>
</g>
<!-- 13&#45;&gt;15 -->
<g id="edge21" class="edge">
<title>13:s&#45;&gt;15:n</title>
<path fill="none" stroke="black" d="M3497.65,-250.71C3497.65,-250.71 3497.65,-223.33 3497.65,-207.93"/>
<polygon fill="black" stroke="black" points="3501.15,-207.71 3497.65,-197.71 3494.15,-207.71 3501.15,-207.71"/>
<text text-anchor="middle" x="3514.65" y="-221.51" font-family="Helvetica,sans-Serif" font-size="14.00">Dark</text>
</g>
<!-- 16 -->
<g id="node23" class="node">
<title>16</title>
<polygon fill="#44e5b5" stroke="black" points="4061.65,-199.71 3773.65,-199.71 3773.65,-121.71 4061.65,-121.71 4061.65,-199.71"/>
<text text-anchor="start" x="3838.15" y="-185.51" font-family="Helvetica,sans-Serif" font-weight="bold" font-size="14.00"> Class=Mouthwash </text>
<text text-anchor="start" x="3992.15" y="-185.51" font-family="Helvetica,sans-Serif" font-size="14.00"> </text>
<text text-anchor="start" x="3848.15" y="-171.51" font-family="Helvetica,sans-Serif" font-size="14.00"> error: 0.924, n=55 </text>
<text text-anchor="start" x="3781.65" y="-157.51" font-family="Helvetica,sans-Serif" font-size="14.00"> p: (0.20, 0.09, 0.13, 0.31, 0.05, 0.22) </text>
<text text-anchor="start" x="3901.65" y="-143.51" font-family="Helvetica,sans-Serif" font-size="14.00">&#45;&#45;&#45;&#45;&#45;&#45;</text>
<text text-anchor="start" x="3888.65" y="-129.51" font-family="Helvetica,sans-Serif" font-weight="bold" font-size="14.00">Gender</text>
</g>
<!-- 13&#45;&gt;16 -->
<g id="edge22" class="edge">
<title>13:s&#45;&gt;16:n</title>
<path fill="none" stroke="black" d="M3497.65,-250.71C3497.65,-250.71 3844.08,-208.64 3907.68,-200.92"/>
<polygon fill="black" stroke="black" points="3908.14,-204.39 3917.65,-199.71 3907.3,-197.44 3908.14,-204.39"/>
<text text-anchor="middle" x="3777.65" y="-221.51" font-family="Helvetica,sans-Serif" font-size="14.00">White</text>
</g>
<!-- 17 -->
<g id="node24" class="node">
<title>17</title>
<ellipse fill="#3d76cc" stroke="black" cx="3678.65" cy="-35.36" rx="203.79" ry="35.21"/>
<text text-anchor="start" x="3593.65" y="-46.16" font-family="Helvetica,sans-Serif" font-weight="bold" font-size="14.00"> Class=Oral_hygiene </text>
<text text-anchor="start" x="3758.65" y="-46.16" font-family="Helvetica,sans-Serif" font-size="14.00"> </text>
<text text-anchor="start" x="3609.15" y="-32.16" font-family="Helvetica,sans-Serif" font-size="14.00"> error: 0.937, n=29 </text>
<text text-anchor="start" x="3542.65" y="-18.16" font-family="Helvetica,sans-Serif" font-size="14.00"> p: (0.10, 0.10, 0.21, 0.24, 0.07, 0.28) </text>
</g>
<!-- 16&#45;&gt;17 -->
<g id="edge23" class="edge">
<title>16:s&#45;&gt;17:n</title>
<path fill="none" stroke="black" d="M3917.65,-121.71C3917.65,-121.71 3733.84,-82.49 3688.61,-72.84"/>
<polygon fill="black" stroke="black" points="3689.16,-69.37 3678.65,-70.71 3687.7,-76.22 3689.16,-69.37"/>
<text text-anchor="middle" x="3851.65" y="-92.51" font-family="Helvetica,sans-Serif" font-size="14.00">Female</text>
</g>
<!-- 18 -->
<g id="node25" class="node">
<title>18</title>
<ellipse fill="#3d76cc" stroke="black" cx="4157.65" cy="-35.36" rx="203.79" ry="35.21"/>
<text text-anchor="start" x="4078.15" y="-46.16" font-family="Helvetica,sans-Serif" font-weight="bold" font-size="14.00"> Class=Mouthwash </text>
<text text-anchor="start" x="4232.15" y="-46.16" font-family="Helvetica,sans-Serif" font-size="14.00"> </text>
<text text-anchor="start" x="4088.15" y="-32.16" font-family="Helvetica,sans-Serif" font-size="14.00"> error: 0.818, n=26 </text>
<text text-anchor="start" x="4021.65" y="-18.16" font-family="Helvetica,sans-Serif" font-size="14.00"> p: (0.31, 0.08, 0.04, 0.38, 0.04, 0.15) </text>
</g>
<!-- 16&#45;&gt;18 -->
<g id="edge24" class="edge">
<title>16:s&#45;&gt;18:n</title>
<path fill="none" stroke="black" d="M3917.65,-121.71C3917.65,-121.71 4102.22,-82.49 4147.64,-72.84"/>
<polygon fill="black" stroke="black" points="4148.59,-76.21 4157.65,-70.71 4147.14,-69.37 4148.59,-76.21"/>
<text text-anchor="middle" x="4083.15" y="-92.51" font-family="Helvetica,sans-Serif" font-size="14.00">Male</text>
</g>
</g>
</svg>
