<?xml version="1.0" encoding="UTF-8" standalone="no"?>
<!DOCTYPE svg PUBLIC "-//W3C//DTD SVG 1.1//EN"
 "http://www.w3.org/Graphics/SVG/1.1/DTD/svg11.dtd">
<!-- Generated by graphviz version 2.43.0 (0)
 -->
<!-- Title: Tree Pages: 1 -->
<svg width="3352pt" height="696pt"
 viewBox="0.00 0.00 3352.17 695.71" xmlns="http://www.w3.org/2000/svg" xmlns:xlink="http://www.w3.org/1999/xlink">
<g id="graph0" class="graph" transform="scale(1 1) rotate(0) translate(18 677.71)">
<title>Tree</title>
<polygon fill="white" stroke="transparent" points="-18,18 -18,-677.71 3334.17,-677.71 3334.17,18 -18,18"/>
<!-- 0 -->
<g id="node1" class="node">
<title>0</title>
<polygon fill="white" stroke="transparent" points="1727.09,-659.71 1673.09,-659.71 1673.09,-623.71 1727.09,-623.71 1727.09,-659.71"/>
<text text-anchor="middle" x="1700.09" y="-638.01" font-family="Helvetica,sans-Serif" font-size="14.00">0</text>
</g>
<!-- 1 -->
<g id="node2" class="node">
<title>1</title>
<polygon fill="#cc3d3d" stroke="black" points="1783.59,-586.71 1616.59,-586.71 1616.59,-508.71 1783.59,-508.71 1783.59,-586.71"/>
<text text-anchor="start" x="1661.59" y="-572.51" font-family="Helvetica,sans-Serif" font-weight="bold" font-size="14.00"> Class=L </text>
<text text-anchor="start" x="1733.59" y="-572.51" font-family="Helvetica,sans-Serif" font-size="14.00"> </text>
<text text-anchor="start" x="1626.09" y="-558.51" font-family="Helvetica,sans-Serif" font-size="14.00"> error: 0.832, n=625 </text>
<text text-anchor="start" x="1624.59" y="-544.51" font-family="Helvetica,sans-Serif" font-size="14.00"> p: (0.08, 0.46, 0.46) </text>
<text text-anchor="start" x="1671.09" y="-530.51" font-family="Helvetica,sans-Serif" font-size="14.00">&#45;&#45;&#45;&#45;&#45;&#45;&#45;&#45;&#45;&#45;&#45;</text>
<text text-anchor="start" x="1656.59" y="-516.51" font-family="Helvetica,sans-Serif" font-weight="bold" font-size="14.00">left&#45;weight</text>
</g>
<!-- 0&#45;&gt;1 -->
<!-- 2 -->
<g id="node3" class="node">
<title>2</title>
<polygon fill="#e5d544" stroke="black" points="1493.59,-457.71 1326.59,-457.71 1326.59,-379.71 1493.59,-379.71 1493.59,-457.71"/>
<text text-anchor="start" x="1371.59" y="-443.51" font-family="Helvetica,sans-Serif" font-weight="bold" font-size="14.00"> Class=L </text>
<text text-anchor="start" x="1443.59" y="-443.51" font-family="Helvetica,sans-Serif" font-size="14.00"> </text>
<text text-anchor="start" x="1336.09" y="-429.51" font-family="Helvetica,sans-Serif" font-size="14.00"> error: 0.783, n=375 </text>
<text text-anchor="start" x="1334.59" y="-415.51" font-family="Helvetica,sans-Serif" font-size="14.00"> p: (0.07, 0.61, 0.32) </text>
<text text-anchor="start" x="1375.59" y="-401.51" font-family="Helvetica,sans-Serif" font-size="14.00">&#45;&#45;&#45;&#45;&#45;&#45;&#45;&#45;&#45;&#45;&#45;&#45;&#45;</text>
<text text-anchor="start" x="1360.09" y="-387.51" font-family="Helvetica,sans-Serif" font-weight="bold" font-size="14.00">left&#45;distance</text>
</g>
<!-- 1&#45;&gt;2 -->
<g id="edge2" class="edge">
<title>1:s&#45;&gt;2:n</title>
<path fill="none" stroke="black" d="M1700.09,-508.71C1700.09,-508.71 1471.06,-468.43 1420.07,-459.47"/>
<polygon fill="black" stroke="black" points="1420.54,-456 1410.09,-457.71 1419.33,-462.89 1420.54,-456"/>
<text text-anchor="middle" x="1603.09" y="-479.51" font-family="Helvetica,sans-Serif" font-size="14.00">&gt; 2</text>
</g>
<!-- 15 -->
<g id="node4" class="node">
<title>15</title>
<polygon fill="#e5d544" stroke="black" points="2220.59,-457.71 2053.59,-457.71 2053.59,-379.71 2220.59,-379.71 2220.59,-457.71"/>
<text text-anchor="start" x="2098.09" y="-443.51" font-family="Helvetica,sans-Serif" font-weight="bold" font-size="14.00"> Class=R </text>
<text text-anchor="start" x="2171.09" y="-443.51" font-family="Helvetica,sans-Serif" font-size="14.00"> </text>
<text text-anchor="start" x="2063.09" y="-429.51" font-family="Helvetica,sans-Serif" font-size="14.00"> error: 0.742, n=250 </text>
<text text-anchor="start" x="2061.59" y="-415.51" font-family="Helvetica,sans-Serif" font-size="14.00"> p: (0.08, 0.24, 0.68) </text>
<text text-anchor="start" x="2105.09" y="-401.51" font-family="Helvetica,sans-Serif" font-size="14.00">&#45;&#45;&#45;&#45;&#45;&#45;&#45;&#45;&#45;&#45;&#45;&#45;</text>
<text text-anchor="start" x="2088.59" y="-387.51" font-family="Helvetica,sans-Serif" font-weight="bold" font-size="14.00">right&#45;weight</text>
</g>
<!-- 1&#45;&gt;15 -->
<g id="edge3" class="edge">
<title>1:s&#45;&gt;15:n</title>
<path fill="none" stroke="black" d="M1700.09,-508.71C1700.09,-508.71 2062.09,-466.46 2127.14,-458.87"/>
<polygon fill="black" stroke="black" points="2127.56,-462.35 2137.09,-457.71 2126.75,-455.39 2127.56,-462.35"/>
<text text-anchor="middle" x="1990.09" y="-479.51" font-family="Helvetica,sans-Serif" font-size="14.00">&lt;= 2</text>
</g>
<!-- 3 -->
<g id="node5" class="node">
<title>3</title>
<polygon fill="#59cc3d" stroke="black" points="1000.59,-328.71 833.59,-328.71 833.59,-250.71 1000.59,-250.71 1000.59,-328.71"/>
<text text-anchor="start" x="878.09" y="-314.51" font-family="Helvetica,sans-Serif" font-weight="bold" font-size="14.00"> Class=R </text>
<text text-anchor="start" x="951.09" y="-314.51" font-family="Helvetica,sans-Serif" font-size="14.00"> </text>
<text text-anchor="start" x="843.09" y="-300.51" font-family="Helvetica,sans-Serif" font-size="14.00"> error: 0.823, n=150 </text>
<text text-anchor="start" x="841.59" y="-286.51" font-family="Helvetica,sans-Serif" font-size="14.00"> p: (0.09, 0.35, 0.56) </text>
<text text-anchor="start" x="885.09" y="-272.51" font-family="Helvetica,sans-Serif" font-size="14.00">&#45;&#45;&#45;&#45;&#45;&#45;&#45;&#45;&#45;&#45;&#45;&#45;</text>
<text text-anchor="start" x="868.59" y="-258.51" font-family="Helvetica,sans-Serif" font-weight="bold" font-size="14.00">right&#45;weight</text>
</g>
<!-- 2&#45;&gt;3 -->
<g id="edge4" class="edge">
<title>2:s&#45;&gt;3:n</title>
<path fill="none" stroke="black" d="M1410.09,-379.71C1410.09,-379.71 998.18,-337.1 927.38,-329.78"/>
<polygon fill="black" stroke="black" points="927.39,-326.26 917.09,-328.71 926.67,-333.22 927.39,-326.26"/>
<text text-anchor="middle" x="1242.09" y="-350.51" font-family="Helvetica,sans-Serif" font-size="14.00">&lt;= 2</text>
</g>
<!-- 10 -->
<g id="node6" class="node">
<title>10</title>
<polygon fill="#59cc3d" stroke="black" points="1493.59,-328.71 1326.59,-328.71 1326.59,-250.71 1493.59,-250.71 1493.59,-328.71"/>
<text text-anchor="start" x="1371.59" y="-314.51" font-family="Helvetica,sans-Serif" font-weight="bold" font-size="14.00"> Class=L </text>
<text text-anchor="start" x="1443.59" y="-314.51" font-family="Helvetica,sans-Serif" font-size="14.00"> </text>
<text text-anchor="start" x="1336.09" y="-300.51" font-family="Helvetica,sans-Serif" font-size="14.00"> error: 0.606, n=225 </text>
<text text-anchor="start" x="1334.59" y="-286.51" font-family="Helvetica,sans-Serif" font-size="14.00"> p: (0.07, 0.78, 0.16) </text>
<text text-anchor="start" x="1378.09" y="-272.51" font-family="Helvetica,sans-Serif" font-size="14.00">&#45;&#45;&#45;&#45;&#45;&#45;&#45;&#45;&#45;&#45;&#45;&#45;</text>
<text text-anchor="start" x="1361.59" y="-258.51" font-family="Helvetica,sans-Serif" font-weight="bold" font-size="14.00">right&#45;weight</text>
</g>
<!-- 2&#45;&gt;10 -->
<g id="edge5" class="edge">
<title>2:s&#45;&gt;10:n</title>
<path fill="none" stroke="black" d="M1410.09,-379.71C1410.09,-379.71 1410.09,-353.93 1410.09,-339.03"/>
<polygon fill="black" stroke="black" points="1413.59,-338.71 1410.09,-328.71 1406.59,-338.71 1413.59,-338.71"/>
<text text-anchor="middle" x="1423.09" y="-350.51" font-family="Helvetica,sans-Serif" font-size="14.00">&gt; 2</text>
</g>
<!-- 16 -->
<g id="node17" class="node">
<title>16</title>
<polygon fill="#59cc3d" stroke="black" points="2220.59,-328.71 2053.59,-328.71 2053.59,-250.71 2220.59,-250.71 2220.59,-328.71"/>
<text text-anchor="start" x="2098.59" y="-314.51" font-family="Helvetica,sans-Serif" font-weight="bold" font-size="14.00"> Class=L </text>
<text text-anchor="start" x="2170.59" y="-314.51" font-family="Helvetica,sans-Serif" font-size="14.00"> </text>
<text text-anchor="start" x="2063.09" y="-300.51" font-family="Helvetica,sans-Serif" font-size="14.00"> error: 0.911, n=100 </text>
<text text-anchor="start" x="2061.59" y="-286.51" font-family="Helvetica,sans-Serif" font-size="14.00"> p: (0.14, 0.43, 0.43) </text>
<text text-anchor="start" x="2102.59" y="-272.51" font-family="Helvetica,sans-Serif" font-size="14.00">&#45;&#45;&#45;&#45;&#45;&#45;&#45;&#45;&#45;&#45;&#45;&#45;&#45;</text>
<text text-anchor="start" x="2087.09" y="-258.51" font-family="Helvetica,sans-Serif" font-weight="bold" font-size="14.00">left&#45;distance</text>
</g>
<!-- 15&#45;&gt;16 -->
<g id="edge16" class="edge">
<title>15:s&#45;&gt;16:n</title>
<path fill="none" stroke="black" d="M2137.09,-379.71C2137.09,-379.71 2137.09,-353.93 2137.09,-339.03"/>
<polygon fill="black" stroke="black" points="2140.59,-338.71 2137.09,-328.71 2133.59,-338.71 2140.59,-338.71"/>
<text text-anchor="middle" x="2156.09" y="-350.51" font-family="Helvetica,sans-Serif" font-size="14.00">&lt;= 2</text>
</g>
<!-- 22 -->
<g id="node18" class="node">
<title>22</title>
<polygon fill="#59cc3d" stroke="black" points="2973.59,-328.71 2806.59,-328.71 2806.59,-250.71 2973.59,-250.71 2973.59,-328.71"/>
<text text-anchor="start" x="2851.09" y="-314.51" font-family="Helvetica,sans-Serif" font-weight="bold" font-size="14.00"> Class=R </text>
<text text-anchor="start" x="2924.09" y="-314.51" font-family="Helvetica,sans-Serif" font-size="14.00"> </text>
<text text-anchor="start" x="2816.09" y="-300.51" font-family="Helvetica,sans-Serif" font-size="14.00"> error: 0.488, n=150 </text>
<text text-anchor="start" x="2814.59" y="-286.51" font-family="Helvetica,sans-Serif" font-size="14.00"> p: (0.05, 0.11, 0.84) </text>
<text text-anchor="start" x="2853.09" y="-272.51" font-family="Helvetica,sans-Serif" font-size="14.00">&#45;&#45;&#45;&#45;&#45;&#45;&#45;&#45;&#45;&#45;&#45;&#45;&#45;&#45;</text>
<text text-anchor="start" x="2834.59" y="-258.51" font-family="Helvetica,sans-Serif" font-weight="bold" font-size="14.00">right&#45;distance</text>
</g>
<!-- 15&#45;&gt;22 -->
<g id="edge17" class="edge">
<title>15:s&#45;&gt;22:n</title>
<path fill="none" stroke="black" d="M2137.09,-379.71C2137.09,-379.71 2790.66,-335.45 2880.01,-329.39"/>
<polygon fill="black" stroke="black" points="2880.35,-332.88 2890.09,-328.71 2879.87,-325.89 2880.35,-332.88"/>
<text text-anchor="middle" x="2617.09" y="-350.51" font-family="Helvetica,sans-Serif" font-size="14.00">&gt; 2</text>
</g>
<!-- 4 -->
<g id="node7" class="node">
<title>4</title>
<polygon fill="#44e5b5" stroke="black" points="509.59,-199.71 342.59,-199.71 342.59,-121.71 509.59,-121.71 509.59,-199.71"/>
<text text-anchor="start" x="387.59" y="-185.51" font-family="Helvetica,sans-Serif" font-weight="bold" font-size="14.00"> Class=L </text>
<text text-anchor="start" x="459.59" y="-185.51" font-family="Helvetica,sans-Serif" font-size="14.00"> </text>
<text text-anchor="start" x="356.59" y="-171.51" font-family="Helvetica,sans-Serif" font-size="14.00"> error: 0.820, n=60 </text>
<text text-anchor="start" x="350.59" y="-157.51" font-family="Helvetica,sans-Serif" font-size="14.00"> p: (0.12, 0.62, 0.27) </text>
<text text-anchor="start" x="389.09" y="-143.51" font-family="Helvetica,sans-Serif" font-size="14.00">&#45;&#45;&#45;&#45;&#45;&#45;&#45;&#45;&#45;&#45;&#45;&#45;&#45;&#45;</text>
<text text-anchor="start" x="370.59" y="-129.51" font-family="Helvetica,sans-Serif" font-weight="bold" font-size="14.00">right&#45;distance</text>
</g>
<!-- 3&#45;&gt;4 -->
<g id="edge6" class="edge">
<title>3:s&#45;&gt;4:n</title>
<path fill="none" stroke="black" d="M917.09,-250.71C917.09,-250.71 506.85,-208.1 436.34,-200.78"/>
<polygon fill="black" stroke="black" points="436.39,-197.26 426.09,-199.71 435.67,-204.23 436.39,-197.26"/>
<text text-anchor="middle" x="749.09" y="-221.51" font-family="Helvetica,sans-Serif" font-size="14.00">&lt;= 2</text>
</g>
<!-- 7 -->
<g id="node8" class="node">
<title>7</title>
<polygon fill="#44e5b5" stroke="black" points="1000.59,-199.71 833.59,-199.71 833.59,-121.71 1000.59,-121.71 1000.59,-199.71"/>
<text text-anchor="start" x="878.09" y="-185.51" font-family="Helvetica,sans-Serif" font-weight="bold" font-size="14.00"> Class=R </text>
<text text-anchor="start" x="951.09" y="-185.51" font-family="Helvetica,sans-Serif" font-size="14.00"> </text>
<text text-anchor="start" x="847.59" y="-171.51" font-family="Helvetica,sans-Serif" font-size="14.00"> error: 0.637, n=90 </text>
<text text-anchor="start" x="841.59" y="-157.51" font-family="Helvetica,sans-Serif" font-size="14.00"> p: (0.07, 0.18, 0.76) </text>
<text text-anchor="start" x="880.09" y="-143.51" font-family="Helvetica,sans-Serif" font-size="14.00">&#45;&#45;&#45;&#45;&#45;&#45;&#45;&#45;&#45;&#45;&#45;&#45;&#45;&#45;</text>
<text text-anchor="start" x="861.59" y="-129.51" font-family="Helvetica,sans-Serif" font-weight="bold" font-size="14.00">right&#45;distance</text>
</g>
<!-- 3&#45;&gt;7 -->
<g id="edge7" class="edge">
<title>3:s&#45;&gt;7:n</title>
<path fill="none" stroke="black" d="M917.09,-250.71C917.09,-250.71 917.09,-224.93 917.09,-210.03"/>
<polygon fill="black" stroke="black" points="920.59,-209.71 917.09,-199.71 913.59,-209.71 920.59,-209.71"/>
<text text-anchor="middle" x="930.09" y="-221.51" font-family="Helvetica,sans-Serif" font-size="14.00">&gt; 2</text>
</g>
<!-- 11 -->
<g id="node13" class="node">
<title>11</title>
<ellipse fill="#44e5b5" stroke="black" cx="1350.09" cy="-160.71" rx="118.17" ry="35.21"/>
<text text-anchor="start" x="1311.59" y="-171.51" font-family="Helvetica,sans-Serif" font-weight="bold" font-size="14.00"> Class=L </text>
<text text-anchor="start" x="1383.59" y="-171.51" font-family="Helvetica,sans-Serif" font-size="14.00"> </text>
<text text-anchor="start" x="1280.59" y="-157.51" font-family="Helvetica,sans-Serif" font-size="14.00"> error: 0.056, n=90 </text>
<text text-anchor="start" x="1274.59" y="-143.51" font-family="Helvetica,sans-Serif" font-size="14.00"> p: (0.00, 0.99, 0.01) </text>
</g>
<!-- 10&#45;&gt;11 -->
<g id="edge12" class="edge">
<title>10:s&#45;&gt;11:n</title>
<path fill="none" stroke="black" d="M1410.09,-250.71C1410.09,-250.71 1374.19,-219.01 1357.93,-204.64"/>
<polygon fill="black" stroke="black" points="1359.9,-201.71 1350.09,-197.71 1355.26,-206.95 1359.9,-201.71"/>
<text text-anchor="middle" x="1408.09" y="-221.51" font-family="Helvetica,sans-Serif" font-size="14.00">&lt;= 2</text>
</g>
<!-- 12 -->
<g id="node14" class="node">
<title>12</title>
<polygon fill="#44e5b5" stroke="black" points="1707.59,-199.71 1540.59,-199.71 1540.59,-121.71 1707.59,-121.71 1707.59,-199.71"/>
<text text-anchor="start" x="1585.59" y="-185.51" font-family="Helvetica,sans-Serif" font-weight="bold" font-size="14.00"> Class=L </text>
<text text-anchor="start" x="1657.59" y="-185.51" font-family="Helvetica,sans-Serif" font-size="14.00"> </text>
<text text-anchor="start" x="1550.09" y="-171.51" font-family="Helvetica,sans-Serif" font-size="14.00"> error: 0.800, n=135 </text>
<text text-anchor="start" x="1548.59" y="-157.51" font-family="Helvetica,sans-Serif" font-size="14.00"> p: (0.11, 0.64, 0.25) </text>
<text text-anchor="start" x="1587.09" y="-143.51" font-family="Helvetica,sans-Serif" font-size="14.00">&#45;&#45;&#45;&#45;&#45;&#45;&#45;&#45;&#45;&#45;&#45;&#45;&#45;&#45;</text>
<text text-anchor="start" x="1568.59" y="-129.51" font-family="Helvetica,sans-Serif" font-weight="bold" font-size="14.00">right&#45;distance</text>
</g>
<!-- 10&#45;&gt;12 -->
<g id="edge13" class="edge">
<title>10:s&#45;&gt;12:n</title>
<path fill="none" stroke="black" d="M1410.09,-250.71C1410.09,-250.71 1572.47,-212.01 1614.34,-202.03"/>
<polygon fill="black" stroke="black" points="1615.17,-205.43 1624.09,-199.71 1613.55,-198.62 1615.17,-205.43"/>
<text text-anchor="middle" x="1556.09" y="-221.51" font-family="Helvetica,sans-Serif" font-size="14.00">&gt; 2</text>
</g>
<!-- 5 -->
<g id="node9" class="node">
<title>5</title>
<ellipse fill="#3d76cc" stroke="black" cx="118.09" cy="-35.36" rx="118.17" ry="35.21"/>
<text text-anchor="start" x="79.59" y="-46.16" font-family="Helvetica,sans-Serif" font-weight="bold" font-size="14.00"> Class=L </text>
<text text-anchor="start" x="151.59" y="-46.16" font-family="Helvetica,sans-Serif" font-size="14.00"> </text>
<text text-anchor="start" x="48.59" y="-32.16" font-family="Helvetica,sans-Serif" font-size="14.00"> error: 0.314, n=24 </text>
<text text-anchor="start" x="42.59" y="-18.16" font-family="Helvetica,sans-Serif" font-size="14.00"> p: (0.04, 0.92, 0.04) </text>
</g>
<!-- 4&#45;&gt;5 -->
<g id="edge8" class="edge">
<title>4:s&#45;&gt;5:n</title>
<path fill="none" stroke="black" d="M426.09,-121.71C426.09,-121.71 180.7,-81.08 127.99,-72.35"/>
<polygon fill="black" stroke="black" points="128.52,-68.89 118.09,-70.71 127.38,-75.8 128.52,-68.89"/>
<text text-anchor="middle" x="328.09" y="-92.51" font-family="Helvetica,sans-Serif" font-size="14.00">&lt;= 2</text>
</g>
<!-- 6 -->
<g id="node10" class="node">
<title>6</title>
<ellipse fill="#3d76cc" stroke="black" cx="426.09" cy="-35.36" rx="118.17" ry="35.21"/>
<text text-anchor="start" x="387.59" y="-46.16" font-family="Helvetica,sans-Serif" font-weight="bold" font-size="14.00"> Class=L </text>
<text text-anchor="start" x="459.59" y="-46.16" font-family="Helvetica,sans-Serif" font-size="14.00"> </text>
<text text-anchor="start" x="356.59" y="-32.16" font-family="Helvetica,sans-Serif" font-size="14.00"> error: 0.936, n=36 </text>
<text text-anchor="start" x="350.59" y="-18.16" font-family="Helvetica,sans-Serif" font-size="14.00"> p: (0.17, 0.42, 0.42) </text>
</g>
<!-- 4&#45;&gt;6 -->
<g id="edge9" class="edge">
<title>4:s&#45;&gt;6:n</title>
<path fill="none" stroke="black" d="M426.09,-121.71C426.09,-121.71 426.09,-95.93 426.09,-81.03"/>
<polygon fill="black" stroke="black" points="429.59,-80.71 426.09,-70.71 422.59,-80.71 429.59,-80.71"/>
<text text-anchor="middle" x="439.09" y="-92.51" font-family="Helvetica,sans-Serif" font-size="14.00">&gt; 2</text>
</g>
<!-- 8 -->
<g id="node11" class="node">
<title>8</title>
<ellipse fill="#3d76cc" stroke="black" cx="734.09" cy="-35.36" rx="118.17" ry="35.21"/>
<text text-anchor="start" x="695.59" y="-46.16" font-family="Helvetica,sans-Serif" font-weight="bold" font-size="14.00"> Class=L </text>
<text text-anchor="start" x="767.59" y="-46.16" font-family="Helvetica,sans-Serif" font-size="14.00"> </text>
<text text-anchor="start" x="664.59" y="-32.16" font-family="Helvetica,sans-Serif" font-size="14.00"> error: 0.936, n=36 </text>
<text text-anchor="start" x="658.59" y="-18.16" font-family="Helvetica,sans-Serif" font-size="14.00"> p: (0.17, 0.42, 0.42) </text>
</g>
<!-- 7&#45;&gt;8 -->
<g id="edge10" class="edge">
<title>7:s&#45;&gt;8:n</title>
<path fill="none" stroke="black" d="M917.09,-121.71C917.09,-121.71 781.94,-84.05 743.93,-73.45"/>
<polygon fill="black" stroke="black" points="744.66,-70.02 734.09,-70.71 742.78,-76.77 744.66,-70.02"/>
<text text-anchor="middle" x="867.09" y="-92.51" font-family="Helvetica,sans-Serif" font-size="14.00">&lt;= 2</text>
</g>
<!-- 9 -->
<g id="node12" class="node">
<title>9</title>
<ellipse fill="#3d76cc" stroke="black" cx="1042.09" cy="-35.36" rx="118.17" ry="35.21"/>
<text text-anchor="start" x="1003.09" y="-46.16" font-family="Helvetica,sans-Serif" font-weight="bold" font-size="14.00"> Class=R </text>
<text text-anchor="start" x="1076.09" y="-46.16" font-family="Helvetica,sans-Serif" font-size="14.00"> </text>
<text text-anchor="start" x="972.59" y="-32.16" font-family="Helvetica,sans-Serif" font-size="14.00"> error: 0.084, n=54 </text>
<text text-anchor="start" x="966.59" y="-18.16" font-family="Helvetica,sans-Serif" font-size="14.00"> p: (0.00, 0.02, 0.98) </text>
</g>
<!-- 7&#45;&gt;9 -->
<g id="edge11" class="edge">
<title>7:s&#45;&gt;9:n</title>
<path fill="none" stroke="black" d="M917.09,-121.71C917.09,-121.71 1003.62,-86.4 1032.69,-74.54"/>
<polygon fill="black" stroke="black" points="1034.15,-77.73 1042.09,-70.71 1031.51,-71.25 1034.15,-77.73"/>
<text text-anchor="middle" x="1008.09" y="-92.51" font-family="Helvetica,sans-Serif" font-size="14.00">&gt; 2</text>
</g>
<!-- 13 -->
<g id="node15" class="node">
<title>13</title>
<ellipse fill="#3d76cc" stroke="black" cx="1350.09" cy="-35.36" rx="118.17" ry="35.21"/>
<text text-anchor="start" x="1311.59" y="-46.16" font-family="Helvetica,sans-Serif" font-weight="bold" font-size="14.00"> Class=L </text>
<text text-anchor="start" x="1383.59" y="-46.16" font-family="Helvetica,sans-Serif" font-size="14.00"> </text>
<text text-anchor="start" x="1280.59" y="-32.16" font-family="Helvetica,sans-Serif" font-size="14.00"> error: 0.084, n=54 </text>
<text text-anchor="start" x="1274.59" y="-18.16" font-family="Helvetica,sans-Serif" font-size="14.00"> p: (0.00, 0.98, 0.02) </text>
</g>
<!-- 12&#45;&gt;13 -->
<g id="edge14" class="edge">
<title>12:s&#45;&gt;13:n</title>
<path fill="none" stroke="black" d="M1624.09,-121.71C1624.09,-121.71 1409.6,-81.79 1360.16,-72.59"/>
<polygon fill="black" stroke="black" points="1360.56,-69.1 1350.09,-70.71 1359.28,-75.98 1360.56,-69.1"/>
<text text-anchor="middle" x="1539.09" y="-92.51" font-family="Helvetica,sans-Serif" font-size="14.00">&lt;= 2</text>
</g>
<!-- 14 -->
<g id="node16" class="node">
<title>14</title>
<ellipse fill="#3d76cc" stroke="black" cx="1658.09" cy="-35.36" rx="118.17" ry="35.21"/>
<text text-anchor="start" x="1619.59" y="-46.16" font-family="Helvetica,sans-Serif" font-weight="bold" font-size="14.00"> Class=L </text>
<text text-anchor="start" x="1691.59" y="-46.16" font-family="Helvetica,sans-Serif" font-size="14.00"> </text>
<text text-anchor="start" x="1588.59" y="-32.16" font-family="Helvetica,sans-Serif" font-size="14.00"> error: 0.950, n=81 </text>
<text text-anchor="start" x="1582.59" y="-18.16" font-family="Helvetica,sans-Serif" font-size="14.00"> p: (0.19, 0.41, 0.41) </text>
</g>
<!-- 12&#45;&gt;14 -->
<g id="edge15" class="edge">
<title>12:s&#45;&gt;14:n</title>
<path fill="none" stroke="black" d="M1624.09,-121.71C1624.09,-121.71 1642.82,-93.62 1652.47,-79.13"/>
<polygon fill="black" stroke="black" points="1655.45,-80.97 1658.09,-70.71 1649.63,-77.09 1655.45,-80.97"/>
<text text-anchor="middle" x="1659.09" y="-92.51" font-family="Helvetica,sans-Serif" font-size="14.00">&gt; 2</text>
</g>
<!-- 17 -->
<g id="node19" class="node">
<title>17</title>
<polygon fill="#44e5b5" stroke="black" points="2083.59,-199.71 1916.59,-199.71 1916.59,-121.71 2083.59,-121.71 2083.59,-199.71"/>
<text text-anchor="start" x="1961.09" y="-185.51" font-family="Helvetica,sans-Serif" font-weight="bold" font-size="14.00"> Class=R </text>
<text text-anchor="start" x="2034.09" y="-185.51" font-family="Helvetica,sans-Serif" font-size="14.00"> </text>
<text text-anchor="start" x="1930.59" y="-171.51" font-family="Helvetica,sans-Serif" font-size="14.00"> error: 0.778, n=40 </text>
<text text-anchor="start" x="1924.59" y="-157.51" font-family="Helvetica,sans-Serif" font-size="14.00"> p: (0.17, 0.15, 0.68) </text>
<text text-anchor="start" x="1963.09" y="-143.51" font-family="Helvetica,sans-Serif" font-size="14.00">&#45;&#45;&#45;&#45;&#45;&#45;&#45;&#45;&#45;&#45;&#45;&#45;&#45;&#45;</text>
<text text-anchor="start" x="1944.59" y="-129.51" font-family="Helvetica,sans-Serif" font-weight="bold" font-size="14.00">right&#45;distance</text>
</g>
<!-- 16&#45;&gt;17 -->
<g id="edge18" class="edge">
<title>16:s&#45;&gt;17:n</title>
<path fill="none" stroke="black" d="M2137.09,-250.71C2137.09,-250.71 2040.46,-214.74 2009.5,-203.22"/>
<polygon fill="black" stroke="black" points="2010.68,-199.92 2000.09,-199.71 2008.24,-206.48 2010.68,-199.92"/>
<text text-anchor="middle" x="2069.09" y="-221.51" font-family="Helvetica,sans-Serif" font-size="14.00">&lt;= 2</text>
</g>
<!-- 19 -->
<g id="node20" class="node">
<title>19</title>
<polygon fill="#44e5b5" stroke="black" points="2357.59,-199.71 2190.59,-199.71 2190.59,-121.71 2357.59,-121.71 2357.59,-199.71"/>
<text text-anchor="start" x="2235.59" y="-185.51" font-family="Helvetica,sans-Serif" font-weight="bold" font-size="14.00"> Class=L </text>
<text text-anchor="start" x="2307.59" y="-185.51" font-family="Helvetica,sans-Serif" font-size="14.00"> </text>
<text text-anchor="start" x="2204.59" y="-171.51" font-family="Helvetica,sans-Serif" font-size="14.00"> error: 0.820, n=60 </text>
<text text-anchor="start" x="2198.59" y="-157.51" font-family="Helvetica,sans-Serif" font-size="14.00"> p: (0.12, 0.62, 0.27) </text>
<text text-anchor="start" x="2237.09" y="-143.51" font-family="Helvetica,sans-Serif" font-size="14.00">&#45;&#45;&#45;&#45;&#45;&#45;&#45;&#45;&#45;&#45;&#45;&#45;&#45;&#45;</text>
<text text-anchor="start" x="2218.59" y="-129.51" font-family="Helvetica,sans-Serif" font-weight="bold" font-size="14.00">right&#45;distance</text>
</g>
<!-- 16&#45;&gt;19 -->
<g id="edge19" class="edge">
<title>16:s&#45;&gt;19:n</title>
<path fill="none" stroke="black" d="M2137.09,-250.71C2137.09,-250.71 2233.72,-214.74 2264.67,-203.22"/>
<polygon fill="black" stroke="black" points="2265.94,-206.48 2274.09,-199.71 2263.49,-199.92 2265.94,-206.48"/>
<text text-anchor="middle" x="2235.09" y="-221.51" font-family="Helvetica,sans-Serif" font-size="14.00">&gt; 2</text>
</g>
<!-- 23 -->
<g id="node24" class="node">
<title>23</title>
<polygon fill="#44e5b5" stroke="black" points="2973.59,-199.71 2806.59,-199.71 2806.59,-121.71 2973.59,-121.71 2973.59,-199.71"/>
<text text-anchor="start" x="2851.09" y="-185.51" font-family="Helvetica,sans-Serif" font-weight="bold" font-size="14.00"> Class=R </text>
<text text-anchor="start" x="2924.09" y="-185.51" font-family="Helvetica,sans-Serif" font-size="14.00"> </text>
<text text-anchor="start" x="2820.59" y="-171.51" font-family="Helvetica,sans-Serif" font-size="14.00"> error: 0.820, n=60 </text>
<text text-anchor="start" x="2814.59" y="-157.51" font-family="Helvetica,sans-Serif" font-size="14.00"> p: (0.12, 0.27, 0.62) </text>
<text text-anchor="start" x="2855.59" y="-143.51" font-family="Helvetica,sans-Serif" font-size="14.00">&#45;&#45;&#45;&#45;&#45;&#45;&#45;&#45;&#45;&#45;&#45;&#45;&#45;</text>
<text text-anchor="start" x="2840.09" y="-129.51" font-family="Helvetica,sans-Serif" font-weight="bold" font-size="14.00">left&#45;distance</text>
</g>
<!-- 22&#45;&gt;23 -->
<g id="edge23" class="edge">
<title>22:s&#45;&gt;23:n</title>
<path fill="none" stroke="black" d="M2890.09,-250.71C2890.09,-250.71 2890.09,-224.93 2890.09,-210.03"/>
<polygon fill="black" stroke="black" points="2893.59,-209.71 2890.09,-199.71 2886.59,-209.71 2893.59,-209.71"/>
<text text-anchor="middle" x="2909.09" y="-221.51" font-family="Helvetica,sans-Serif" font-size="14.00">&lt;= 2</text>
</g>
<!-- 26 -->
<g id="node25" class="node">
<title>26</title>
<ellipse fill="#44e5b5" stroke="black" cx="3164.09" cy="-160.71" rx="118.17" ry="35.21"/>
<text text-anchor="start" x="3125.09" y="-171.51" font-family="Helvetica,sans-Serif" font-weight="bold" font-size="14.00"> Class=R </text>
<text text-anchor="start" x="3198.09" y="-171.51" font-family="Helvetica,sans-Serif" font-size="14.00"> </text>
<text text-anchor="start" x="3094.59" y="-157.51" font-family="Helvetica,sans-Serif" font-size="14.00"> error: 0.056, n=90 </text>
<text text-anchor="start" x="3088.59" y="-143.51" font-family="Helvetica,sans-Serif" font-size="14.00"> p: (0.00, 0.01, 0.99) </text>
</g>
<!-- 22&#45;&gt;26 -->
<g id="edge24" class="edge">
<title>22:s&#45;&gt;26:n</title>
<path fill="none" stroke="black" d="M2890.09,-250.71C2890.09,-250.71 3104.58,-209.22 3154.01,-199.66"/>
<polygon fill="black" stroke="black" points="3154.93,-203.05 3164.09,-197.71 3153.6,-196.17 3154.93,-203.05"/>
<text text-anchor="middle" x="3073.09" y="-221.51" font-family="Helvetica,sans-Serif" font-size="14.00">&gt; 2</text>
</g>
<!-- 18 -->
<g id="node21" class="node">
<title>18</title>
<ellipse fill="#3d76cc" stroke="black" cx="1966.09" cy="-35.36" rx="118.17" ry="35.21"/>
<text text-anchor="start" x="1927.09" y="-46.16" font-family="Helvetica,sans-Serif" font-weight="bold" font-size="14.00"> Class=R </text>
<text text-anchor="start" x="2000.09" y="-46.16" font-family="Helvetica,sans-Serif" font-size="14.00"> </text>
<text text-anchor="start" x="1896.59" y="-32.16" font-family="Helvetica,sans-Serif" font-size="14.00"> error: 0.314, n=24 </text>
<text text-anchor="start" x="1890.59" y="-18.16" font-family="Helvetica,sans-Serif" font-size="14.00"> p: (0.04, 0.04, 0.92) </text>
</g>
<!-- 17&#45;&gt;18 -->
<g id="edge20" class="edge">
<title>17:s&#45;&gt;18:n</title>
<path fill="none" stroke="black" d="M2000.09,-121.71C2000.09,-121.71 1981.36,-93.62 1971.7,-79.13"/>
<polygon fill="black" stroke="black" points="1974.55,-77.09 1966.09,-70.71 1968.72,-80.97 1974.55,-77.09"/>
<text text-anchor="middle" x="2001.09" y="-92.51" font-family="Helvetica,sans-Serif" font-size="14.00">&gt; 2</text>
</g>
<!-- 20 -->
<g id="node22" class="node">
<title>20</title>
<ellipse fill="#3d76cc" stroke="black" cx="2274.09" cy="-35.36" rx="118.17" ry="35.21"/>
<text text-anchor="start" x="2235.59" y="-46.16" font-family="Helvetica,sans-Serif" font-weight="bold" font-size="14.00"> Class=L </text>
<text text-anchor="start" x="2307.59" y="-46.16" font-family="Helvetica,sans-Serif" font-size="14.00"> </text>
<text text-anchor="start" x="2204.59" y="-32.16" font-family="Helvetica,sans-Serif" font-size="14.00"> error: 0.314, n=24 </text>
<text text-anchor="start" x="2198.59" y="-18.16" font-family="Helvetica,sans-Serif" font-size="14.00"> p: (0.04, 0.92, 0.04) </text>
</g>
<!-- 19&#45;&gt;20 -->
<g id="edge21" class="edge">
<title>19:s&#45;&gt;20:n</title>
<path fill="none" stroke="black" d="M2274.09,-121.71C2274.09,-121.71 2274.09,-95.93 2274.09,-81.03"/>
<polygon fill="black" stroke="black" points="2277.59,-80.71 2274.09,-70.71 2270.59,-80.71 2277.59,-80.71"/>
<text text-anchor="middle" x="2293.09" y="-92.51" font-family="Helvetica,sans-Serif" font-size="14.00">&lt;= 2</text>
</g>
<!-- 21 -->
<g id="node23" class="node">
<title>21</title>
<ellipse fill="#3d76cc" stroke="black" cx="2582.09" cy="-35.36" rx="118.17" ry="35.21"/>
<text text-anchor="start" x="2543.59" y="-46.16" font-family="Helvetica,sans-Serif" font-weight="bold" font-size="14.00"> Class=L </text>
<text text-anchor="start" x="2615.59" y="-46.16" font-family="Helvetica,sans-Serif" font-size="14.00"> </text>
<text text-anchor="start" x="2512.59" y="-32.16" font-family="Helvetica,sans-Serif" font-size="14.00"> error: 0.936, n=36 </text>
<text text-anchor="start" x="2506.59" y="-18.16" font-family="Helvetica,sans-Serif" font-size="14.00"> p: (0.17, 0.42, 0.42) </text>
</g>
<!-- 19&#45;&gt;21 -->
<g id="edge22" class="edge">
<title>19:s&#45;&gt;21:n</title>
<path fill="none" stroke="black" d="M2274.09,-121.71C2274.09,-121.71 2519.47,-81.08 2572.19,-72.35"/>
<polygon fill="black" stroke="black" points="2572.79,-75.8 2582.09,-70.71 2571.65,-68.89 2572.79,-75.8"/>
<text text-anchor="middle" x="2478.09" y="-92.51" font-family="Helvetica,sans-Serif" font-size="14.00">&gt; 2</text>
</g>
<!-- 24 -->
<g id="node26" class="node">
<title>24</title>
<ellipse fill="#3d76cc" stroke="black" cx="2890.09" cy="-35.36" rx="118.17" ry="35.21"/>
<text text-anchor="start" x="2851.09" y="-46.16" font-family="Helvetica,sans-Serif" font-weight="bold" font-size="14.00"> Class=R </text>
<text text-anchor="start" x="2924.09" y="-46.16" font-family="Helvetica,sans-Serif" font-size="14.00"> </text>
<text text-anchor="start" x="2820.59" y="-32.16" font-family="Helvetica,sans-Serif" font-size="14.00"> error: 0.314, n=24 </text>
<text text-anchor="start" x="2814.59" y="-18.16" font-family="Helvetica,sans-Serif" font-size="14.00"> p: (0.04, 0.04, 0.92) </text>
</g>
<!-- 23&#45;&gt;24 -->
<g id="edge25" class="edge">
<title>23:s&#45;&gt;24:n</title>
<path fill="none" stroke="black" d="M2890.09,-121.71C2890.09,-121.71 2890.09,-95.93 2890.09,-81.03"/>
<polygon fill="black" stroke="black" points="2893.59,-80.71 2890.09,-70.71 2886.59,-80.71 2893.59,-80.71"/>
<text text-anchor="middle" x="2909.09" y="-92.51" font-family="Helvetica,sans-Serif" font-size="14.00">&lt;= 2</text>
</g>
<!-- 25 -->
<g id="node27" class="node">
<title>25</title>
<ellipse fill="#3d76cc" stroke="black" cx="3198.09" cy="-35.36" rx="118.17" ry="35.21"/>
<text text-anchor="start" x="3159.59" y="-46.16" font-family="Helvetica,sans-Serif" font-weight="bold" font-size="14.00"> Class=L </text>
<text text-anchor="start" x="3231.59" y="-46.16" font-family="Helvetica,sans-Serif" font-size="14.00"> </text>
<text text-anchor="start" x="3128.59" y="-32.16" font-family="Helvetica,sans-Serif" font-size="14.00"> error: 0.936, n=36 </text>
<text text-anchor="start" x="3122.59" y="-18.16" font-family="Helvetica,sans-Serif" font-size="14.00"> p: (0.17, 0.42, 0.42) </text>
</g>
<!-- 23&#45;&gt;25 -->
<g id="edge26" class="edge">
<title>23:s&#45;&gt;25:n</title>
<path fill="none" stroke="black" d="M2890.09,-121.71C2890.09,-121.71 3135.47,-81.08 3188.19,-72.35"/>
<polygon fill="black" stroke="black" points="3188.79,-75.8 3198.09,-70.71 3187.65,-68.89 3188.79,-75.8"/>
<text text-anchor="middle" x="3094.09" y="-92.51" font-family="Helvetica,sans-Serif" font-size="14.00">&gt; 2</text>
</g>
</g>
</svg>
