<?xml version="1.0" encoding="UTF-8" standalone="no"?>
<!DOCTYPE svg PUBLIC "-//W3C//DTD SVG 1.1//EN"
 "http://www.w3.org/Graphics/SVG/1.1/DTD/svg11.dtd">
<!-- Generated by graphviz version 2.43.0 (0)
 -->
<!-- Title: Tree Pages: 1 -->
<svg width="1848pt" height="696pt"
 viewBox="0.00 0.00 1848.20 695.71" xmlns="http://www.w3.org/2000/svg" xmlns:xlink="http://www.w3.org/1999/xlink">
<g id="graph0" class="graph" transform="scale(1 1) rotate(0) translate(18 677.71)">
<title>Tree</title>
<polygon fill="white" stroke="transparent" points="-18,18 -18,-677.71 1830.2,-677.71 1830.2,18 -18,18"/>
<!-- 0 -->
<g id="node1" class="node">
<title>0</title>
<polygon fill="white" stroke="transparent" points="983.6,-659.71 929.6,-659.71 929.6,-623.71 983.6,-623.71 983.6,-659.71"/>
<text text-anchor="middle" x="956.6" y="-638.01" font-family="Helvetica,sans-Serif" font-size="14.00">0</text>
</g>
<!-- 1 -->
<g id="node2" class="node">
<title>1</title>
<polygon fill="#cc3d3d" stroke="black" points="1043.1,-586.71 870.1,-586.71 870.1,-508.71 1043.1,-508.71 1043.1,-586.71"/>
<text text-anchor="start" x="917.6" y="-572.51" font-family="Helvetica,sans-Serif" font-weight="bold" font-size="14.00"> Class=1 </text>
<text text-anchor="start" x="990.6" y="-572.51" font-family="Helvetica,sans-Serif" font-size="14.00"> </text>
<text text-anchor="start" x="878.1" y="-558.51" font-family="Helvetica,sans-Serif" font-size="14.00"> error: 0.991, n=1372 </text>
<text text-anchor="start" x="901.6" y="-544.51" font-family="Helvetica,sans-Serif" font-size="14.00"> p: (0.56, 0.44) </text>
<text text-anchor="start" x="951.1" y="-530.51" font-family="Helvetica,sans-Serif" font-size="14.00">&#45;&#45;</text>
<text text-anchor="start" x="946.1" y="-516.51" font-family="Helvetica,sans-Serif" font-weight="bold" font-size="14.00">V1</text>
</g>
<!-- 0&#45;&gt;1 -->
<!-- 2 -->
<g id="node3" class="node">
<title>2</title>
<polygon fill="#e5d544" stroke="black" points="903.6,-457.71 739.6,-457.71 739.6,-379.71 903.6,-379.71 903.6,-457.71"/>
<text text-anchor="start" x="782.6" y="-443.51" font-family="Helvetica,sans-Serif" font-weight="bold" font-size="14.00"> Class=1 </text>
<text text-anchor="start" x="855.6" y="-443.51" font-family="Helvetica,sans-Serif" font-size="14.00"> </text>
<text text-anchor="start" x="747.6" y="-429.51" font-family="Helvetica,sans-Serif" font-size="14.00"> error: 0.471, n=686 </text>
<text text-anchor="start" x="766.6" y="-415.51" font-family="Helvetica,sans-Serif" font-size="14.00"> p: (0.90, 0.10) </text>
<text text-anchor="start" x="816.1" y="-401.51" font-family="Helvetica,sans-Serif" font-size="14.00">&#45;&#45;</text>
<text text-anchor="start" x="811.1" y="-387.51" font-family="Helvetica,sans-Serif" font-weight="bold" font-size="14.00">V3</text>
</g>
<!-- 1&#45;&gt;2 -->
<g id="edge2" class="edge">
<title>1:s&#45;&gt;2:n</title>
<path fill="none" stroke="black" d="M956.6,-508.71C956.6,-508.71 862.26,-473.07 831.31,-461.38"/>
<polygon fill="black" stroke="black" points="832.19,-457.97 821.6,-457.71 829.72,-464.52 832.19,-457.97"/>
<text text-anchor="middle" x="936.1" y="-479.51" font-family="Helvetica,sans-Serif" font-size="14.00">&gt; 0.4957</text>
</g>
<!-- 9 -->
<g id="node4" class="node">
<title>9</title>
<polygon fill="#e5d544" stroke="black" points="1190.6,-457.71 1026.6,-457.71 1026.6,-379.71 1190.6,-379.71 1190.6,-457.71"/>
<text text-anchor="start" x="1069.6" y="-443.51" font-family="Helvetica,sans-Serif" font-weight="bold" font-size="14.00"> Class=2 </text>
<text text-anchor="start" x="1142.6" y="-443.51" font-family="Helvetica,sans-Serif" font-size="14.00"> </text>
<text text-anchor="start" x="1034.6" y="-429.51" font-family="Helvetica,sans-Serif" font-size="14.00"> error: 0.744, n=686 </text>
<text text-anchor="start" x="1053.6" y="-415.51" font-family="Helvetica,sans-Serif" font-size="14.00"> p: (0.21, 0.79) </text>
<text text-anchor="start" x="1103.1" y="-401.51" font-family="Helvetica,sans-Serif" font-size="14.00">&#45;&#45;</text>
<text text-anchor="start" x="1098.1" y="-387.51" font-family="Helvetica,sans-Serif" font-weight="bold" font-size="14.00">V2</text>
</g>
<!-- 1&#45;&gt;9 -->
<g id="edge3" class="edge">
<title>1:s&#45;&gt;9:n</title>
<path fill="none" stroke="black" d="M956.6,-508.71C956.6,-508.71 1065.82,-472.07 1099.09,-460.9"/>
<polygon fill="black" stroke="black" points="1100.23,-464.21 1108.6,-457.71 1098.01,-457.57 1100.23,-464.21"/>
<text text-anchor="middle" x="1091.1" y="-479.51" font-family="Helvetica,sans-Serif" font-size="14.00">&lt;= 0.4957</text>
</g>
<!-- 3 -->
<g id="node5" class="node">
<title>3</title>
<polygon fill="#59cc3d" stroke="black" points="628.6,-328.71 464.6,-328.71 464.6,-250.71 628.6,-250.71 628.6,-328.71"/>
<text text-anchor="start" x="507.6" y="-314.51" font-family="Helvetica,sans-Serif" font-weight="bold" font-size="14.00"> Class=1 </text>
<text text-anchor="start" x="580.6" y="-314.51" font-family="Helvetica,sans-Serif" font-size="14.00"> </text>
<text text-anchor="start" x="472.6" y="-300.51" font-family="Helvetica,sans-Serif" font-size="14.00"> error: 0.745, n=307 </text>
<text text-anchor="start" x="491.6" y="-286.51" font-family="Helvetica,sans-Serif" font-size="14.00"> p: (0.79, 0.21) </text>
<text text-anchor="start" x="541.1" y="-272.51" font-family="Helvetica,sans-Serif" font-size="14.00">&#45;&#45;</text>
<text text-anchor="start" x="536.1" y="-258.51" font-family="Helvetica,sans-Serif" font-weight="bold" font-size="14.00">V1</text>
</g>
<!-- 2&#45;&gt;3 -->
<g id="edge4" class="edge">
<title>2:s&#45;&gt;3:n</title>
<path fill="none" stroke="black" d="M821.6,-379.71C821.6,-379.71 606.33,-339.79 556.72,-330.59"/>
<polygon fill="black" stroke="black" points="557.07,-327.09 546.6,-328.71 555.8,-333.98 557.07,-327.09"/>
<text text-anchor="middle" x="761.6" y="-350.51" font-family="Helvetica,sans-Serif" font-size="14.00">&lt;= &#45;0.4775</text>
</g>
<!-- 8 -->
<g id="node6" class="node">
<title>8</title>
<ellipse fill="#59cc3d" stroke="black" cx="821.6" cy="-289.71" rx="115.93" ry="35.21"/>
<text text-anchor="start" x="782.6" y="-300.51" font-family="Helvetica,sans-Serif" font-weight="bold" font-size="14.00"> Class=1 </text>
<text text-anchor="start" x="855.6" y="-300.51" font-family="Helvetica,sans-Serif" font-size="14.00"> </text>
<text text-anchor="start" x="747.6" y="-286.51" font-family="Helvetica,sans-Serif" font-size="14.00"> error: 0.084, n=379 </text>
<text text-anchor="start" x="766.6" y="-272.51" font-family="Helvetica,sans-Serif" font-size="14.00"> p: (0.99, 0.01) </text>
</g>
<!-- 2&#45;&gt;8 -->
<g id="edge5" class="edge">
<title>2:s&#45;&gt;8:n</title>
<path fill="none" stroke="black" d="M821.6,-379.71C821.6,-379.71 821.6,-352.33 821.6,-336.93"/>
<polygon fill="black" stroke="black" points="825.1,-336.71 821.6,-326.71 818.1,-336.71 825.1,-336.71"/>
<text text-anchor="middle" x="857.6" y="-350.51" font-family="Helvetica,sans-Serif" font-size="14.00">&gt; &#45;0.4775</text>
</g>
<!-- 10 -->
<g id="node11" class="node">
<title>10</title>
<polygon fill="#59cc3d" stroke="black" points="1190.6,-328.71 1026.6,-328.71 1026.6,-250.71 1190.6,-250.71 1190.6,-328.71"/>
<text text-anchor="start" x="1069.6" y="-314.51" font-family="Helvetica,sans-Serif" font-weight="bold" font-size="14.00"> Class=2 </text>
<text text-anchor="start" x="1142.6" y="-314.51" font-family="Helvetica,sans-Serif" font-size="14.00"> </text>
<text text-anchor="start" x="1034.6" y="-300.51" font-family="Helvetica,sans-Serif" font-size="14.00"> error: 0.402, n=487 </text>
<text text-anchor="start" x="1053.6" y="-286.51" font-family="Helvetica,sans-Serif" font-size="14.00"> p: (0.08, 0.92) </text>
<text text-anchor="start" x="1103.1" y="-272.51" font-family="Helvetica,sans-Serif" font-size="14.00">&#45;&#45;</text>
<text text-anchor="start" x="1098.1" y="-258.51" font-family="Helvetica,sans-Serif" font-weight="bold" font-size="14.00">V1</text>
</g>
<!-- 9&#45;&gt;10 -->
<g id="edge10" class="edge">
<title>9:s&#45;&gt;10:n</title>
<path fill="none" stroke="black" d="M1108.6,-379.71C1108.6,-379.71 1108.6,-353.93 1108.6,-339.03"/>
<polygon fill="black" stroke="black" points="1112.1,-338.71 1108.6,-328.71 1105.1,-338.71 1112.1,-338.71"/>
<text text-anchor="middle" x="1143.6" y="-350.51" font-family="Helvetica,sans-Serif" font-size="14.00">&lt;= 3.325</text>
</g>
<!-- 15 -->
<g id="node12" class="node">
<title>15</title>
<polygon fill="#59cc3d" stroke="black" points="1493.6,-328.71 1329.6,-328.71 1329.6,-250.71 1493.6,-250.71 1493.6,-328.71"/>
<text text-anchor="start" x="1372.6" y="-314.51" font-family="Helvetica,sans-Serif" font-weight="bold" font-size="14.00"> Class=1 </text>
<text text-anchor="start" x="1445.6" y="-314.51" font-family="Helvetica,sans-Serif" font-size="14.00"> </text>
<text text-anchor="start" x="1337.6" y="-300.51" font-family="Helvetica,sans-Serif" font-size="14.00"> error: 0.997, n=199 </text>
<text text-anchor="start" x="1356.6" y="-286.51" font-family="Helvetica,sans-Serif" font-size="14.00"> p: (0.53, 0.47) </text>
<text text-anchor="start" x="1406.1" y="-272.51" font-family="Helvetica,sans-Serif" font-size="14.00">&#45;&#45;</text>
<text text-anchor="start" x="1401.1" y="-258.51" font-family="Helvetica,sans-Serif" font-weight="bold" font-size="14.00">V1</text>
</g>
<!-- 9&#45;&gt;15 -->
<g id="edge11" class="edge">
<title>9:s&#45;&gt;15:n</title>
<path fill="none" stroke="black" d="M1108.6,-379.71C1108.6,-379.71 1348.95,-339.26 1401.52,-330.41"/>
<polygon fill="black" stroke="black" points="1402.32,-333.82 1411.6,-328.71 1401.16,-326.92 1402.32,-333.82"/>
<text text-anchor="middle" x="1325.6" y="-350.51" font-family="Helvetica,sans-Serif" font-size="14.00">&gt; 3.325</text>
</g>
<!-- 4 -->
<g id="node7" class="node">
<title>4</title>
<polygon fill="#44e5b5" stroke="black" points="358.6,-199.71 194.6,-199.71 194.6,-121.71 358.6,-121.71 358.6,-199.71"/>
<text text-anchor="start" x="237.6" y="-185.51" font-family="Helvetica,sans-Serif" font-weight="bold" font-size="14.00"> Class=1 </text>
<text text-anchor="start" x="310.6" y="-185.51" font-family="Helvetica,sans-Serif" font-size="14.00"> </text>
<text text-anchor="start" x="202.6" y="-171.51" font-family="Helvetica,sans-Serif" font-size="14.00"> error: 1.000, n=133 </text>
<text text-anchor="start" x="221.6" y="-157.51" font-family="Helvetica,sans-Serif" font-size="14.00"> p: (0.51, 0.49) </text>
<text text-anchor="start" x="271.1" y="-143.51" font-family="Helvetica,sans-Serif" font-size="14.00">&#45;&#45;</text>
<text text-anchor="start" x="266.1" y="-129.51" font-family="Helvetica,sans-Serif" font-weight="bold" font-size="14.00">V2</text>
</g>
<!-- 3&#45;&gt;4 -->
<g id="edge6" class="edge">
<title>3:s&#45;&gt;4:n</title>
<path fill="none" stroke="black" d="M546.6,-250.71C546.6,-250.71 335.24,-210.79 286.53,-201.59"/>
<polygon fill="black" stroke="black" points="287.08,-198.13 276.6,-199.71 285.78,-205.01 287.08,-198.13"/>
<text text-anchor="middle" x="479.6" y="-221.51" font-family="Helvetica,sans-Serif" font-size="14.00">&lt;= 2.614</text>
</g>
<!-- 7 -->
<g id="node8" class="node">
<title>7</title>
<ellipse fill="#44e5b5" stroke="black" cx="546.6" cy="-160.71" rx="115.93" ry="35.21"/>
<text text-anchor="start" x="507.6" y="-171.51" font-family="Helvetica,sans-Serif" font-weight="bold" font-size="14.00"> Class=1 </text>
<text text-anchor="start" x="580.6" y="-171.51" font-family="Helvetica,sans-Serif" font-size="14.00"> </text>
<text text-anchor="start" x="472.6" y="-157.51" font-family="Helvetica,sans-Serif" font-size="14.00"> error: 0.000, n=174 </text>
<text text-anchor="start" x="491.6" y="-143.51" font-family="Helvetica,sans-Serif" font-size="14.00"> p: (1.00, 0.00) </text>
</g>
<!-- 3&#45;&gt;7 -->
<g id="edge7" class="edge">
<title>3:s&#45;&gt;7:n</title>
<path fill="none" stroke="black" d="M546.6,-250.71C546.6,-250.71 546.6,-223.33 546.6,-207.93"/>
<polygon fill="black" stroke="black" points="550.1,-207.71 546.6,-197.71 543.1,-207.71 550.1,-207.71"/>
<text text-anchor="middle" x="575.6" y="-221.51" font-family="Helvetica,sans-Serif" font-size="14.00">&gt; 2.614</text>
</g>
<!-- 5 -->
<g id="node9" class="node">
<title>5</title>
<ellipse fill="#3d76cc" stroke="black" cx="109.6" cy="-35.36" rx="109.7" ry="35.21"/>
<text text-anchor="start" x="70.6" y="-46.16" font-family="Helvetica,sans-Serif" font-weight="bold" font-size="14.00"> Class=2 </text>
<text text-anchor="start" x="143.6" y="-46.16" font-family="Helvetica,sans-Serif" font-size="14.00"> </text>
<text text-anchor="start" x="40.1" y="-32.16" font-family="Helvetica,sans-Serif" font-size="14.00"> error: 0.206, n=62 </text>
<text text-anchor="start" x="54.6" y="-18.16" font-family="Helvetica,sans-Serif" font-size="14.00"> p: (0.03, 0.97) </text>
</g>
<!-- 4&#45;&gt;5 -->
<g id="edge8" class="edge">
<title>4:s&#45;&gt;5:n</title>
<path fill="none" stroke="black" d="M276.6,-121.71C276.6,-121.71 155.5,-84.73 119.55,-73.75"/>
<polygon fill="black" stroke="black" points="120.19,-70.28 109.6,-70.71 118.14,-76.98 120.19,-70.28"/>
<text text-anchor="middle" x="244.1" y="-92.51" font-family="Helvetica,sans-Serif" font-size="14.00">&lt;= 4.78</text>
</g>
<!-- 6 -->
<g id="node10" class="node">
<title>6</title>
<ellipse fill="#3d76cc" stroke="black" cx="400.6" cy="-35.36" rx="109.7" ry="35.21"/>
<text text-anchor="start" x="361.6" y="-46.16" font-family="Helvetica,sans-Serif" font-weight="bold" font-size="14.00"> Class=1 </text>
<text text-anchor="start" x="434.6" y="-46.16" font-family="Helvetica,sans-Serif" font-size="14.00"> </text>
<text text-anchor="start" x="331.1" y="-32.16" font-family="Helvetica,sans-Serif" font-size="14.00"> error: 0.367, n=71 </text>
<text text-anchor="start" x="345.6" y="-18.16" font-family="Helvetica,sans-Serif" font-size="14.00"> p: (0.93, 0.07) </text>
</g>
<!-- 4&#45;&gt;6 -->
<g id="edge9" class="edge">
<title>4:s&#45;&gt;6:n</title>
<path fill="none" stroke="black" d="M276.6,-121.71C276.6,-121.71 362.44,-86.4 391.28,-74.54"/>
<polygon fill="black" stroke="black" points="392.68,-77.75 400.6,-70.71 390.02,-71.28 392.68,-77.75"/>
<text text-anchor="middle" x="378.1" y="-92.51" font-family="Helvetica,sans-Serif" font-size="14.00">&gt; 4.78</text>
</g>
<!-- 11 -->
<g id="node13" class="node">
<title>11</title>
<ellipse fill="#44e5b5" stroke="black" cx="850.6" cy="-160.71" rx="115.93" ry="35.21"/>
<text text-anchor="start" x="811.6" y="-171.51" font-family="Helvetica,sans-Serif" font-weight="bold" font-size="14.00"> Class=2 </text>
<text text-anchor="start" x="884.6" y="-171.51" font-family="Helvetica,sans-Serif" font-size="14.00"> </text>
<text text-anchor="start" x="776.6" y="-157.51" font-family="Helvetica,sans-Serif" font-size="14.00"> error: 0.040, n=231 </text>
<text text-anchor="start" x="795.6" y="-143.51" font-family="Helvetica,sans-Serif" font-size="14.00"> p: (0.00, 1.00) </text>
</g>
<!-- 10&#45;&gt;11 -->
<g id="edge12" class="edge">
<title>10:s&#45;&gt;11:n</title>
<path fill="none" stroke="black" d="M1108.6,-250.71C1108.6,-250.71 907.53,-209.4 860.4,-199.72"/>
<polygon fill="black" stroke="black" points="861.1,-196.29 850.6,-197.71 859.69,-203.15 861.1,-196.29"/>
<text text-anchor="middle" x="1058.1" y="-221.51" font-family="Helvetica,sans-Serif" font-size="14.00">&lt;= &#45;1.798</text>
</g>
<!-- 12 -->
<g id="node14" class="node">
<title>12</title>
<polygon fill="#44e5b5" stroke="black" points="1202.6,-199.71 1038.6,-199.71 1038.6,-121.71 1202.6,-121.71 1202.6,-199.71"/>
<text text-anchor="start" x="1081.6" y="-185.51" font-family="Helvetica,sans-Serif" font-weight="bold" font-size="14.00"> Class=2 </text>
<text text-anchor="start" x="1154.6" y="-185.51" font-family="Helvetica,sans-Serif" font-size="14.00"> </text>
<text text-anchor="start" x="1046.6" y="-171.51" font-family="Helvetica,sans-Serif" font-size="14.00"> error: 0.606, n=256 </text>
<text text-anchor="start" x="1065.6" y="-157.51" font-family="Helvetica,sans-Serif" font-size="14.00"> p: (0.15, 0.85) </text>
<text text-anchor="start" x="1115.1" y="-143.51" font-family="Helvetica,sans-Serif" font-size="14.00">&#45;&#45;</text>
<text text-anchor="start" x="1110.1" y="-129.51" font-family="Helvetica,sans-Serif" font-weight="bold" font-size="14.00">V3</text>
</g>
<!-- 10&#45;&gt;12 -->
<g id="edge13" class="edge">
<title>10:s&#45;&gt;12:n</title>
<path fill="none" stroke="black" d="M1108.6,-250.71C1108.6,-250.71 1114.8,-224.36 1118.29,-209.54"/>
<polygon fill="black" stroke="black" points="1121.72,-210.25 1120.6,-199.71 1114.9,-208.64 1121.72,-210.25"/>
<text text-anchor="middle" x="1148.1" y="-221.51" font-family="Helvetica,sans-Serif" font-size="14.00">&gt; &#45;1.798</text>
</g>
<!-- 16 -->
<g id="node17" class="node">
<title>16</title>
<polygon fill="#44e5b5" stroke="black" points="1489.1,-199.71 1334.1,-199.71 1334.1,-121.71 1489.1,-121.71 1489.1,-199.71"/>
<text text-anchor="start" x="1372.6" y="-185.51" font-family="Helvetica,sans-Serif" font-weight="bold" font-size="14.00"> Class=2 </text>
<text text-anchor="start" x="1445.6" y="-185.51" font-family="Helvetica,sans-Serif" font-size="14.00"> </text>
<text text-anchor="start" x="1342.1" y="-171.51" font-family="Helvetica,sans-Serif" font-size="14.00"> error: 0.116, n=64 </text>
<text text-anchor="start" x="1356.6" y="-157.51" font-family="Helvetica,sans-Serif" font-size="14.00"> p: (0.02, 0.98) </text>
<text text-anchor="start" x="1406.1" y="-143.51" font-family="Helvetica,sans-Serif" font-size="14.00">&#45;&#45;</text>
<text text-anchor="start" x="1401.1" y="-129.51" font-family="Helvetica,sans-Serif" font-weight="bold" font-size="14.00">V4</text>
</g>
<!-- 15&#45;&gt;16 -->
<g id="edge16" class="edge">
<title>15:s&#45;&gt;16:n</title>
<path fill="none" stroke="black" d="M1411.6,-250.71C1411.6,-250.71 1411.6,-224.93 1411.6,-210.03"/>
<polygon fill="black" stroke="black" points="1415.1,-209.71 1411.6,-199.71 1408.1,-209.71 1415.1,-209.71"/>
<text text-anchor="middle" x="1449.1" y="-221.51" font-family="Helvetica,sans-Serif" font-size="14.00">&lt;= &#45;2.982</text>
</g>
<!-- 18 -->
<g id="node18" class="node">
<title>18</title>
<polygon fill="#44e5b5" stroke="black" points="1755.6,-199.71 1591.6,-199.71 1591.6,-121.71 1755.6,-121.71 1755.6,-199.71"/>
<text text-anchor="start" x="1634.6" y="-185.51" font-family="Helvetica,sans-Serif" font-weight="bold" font-size="14.00"> Class=1 </text>
<text text-anchor="start" x="1707.6" y="-185.51" font-family="Helvetica,sans-Serif" font-size="14.00"> </text>
<text text-anchor="start" x="1599.6" y="-171.51" font-family="Helvetica,sans-Serif" font-size="14.00"> error: 0.764, n=135 </text>
<text text-anchor="start" x="1618.6" y="-157.51" font-family="Helvetica,sans-Serif" font-size="14.00"> p: (0.78, 0.22) </text>
<text text-anchor="start" x="1668.1" y="-143.51" font-family="Helvetica,sans-Serif" font-size="14.00">&#45;&#45;</text>
<text text-anchor="start" x="1663.1" y="-129.51" font-family="Helvetica,sans-Serif" font-weight="bold" font-size="14.00">V2</text>
</g>
<!-- 15&#45;&gt;18 -->
<g id="edge17" class="edge">
<title>15:s&#45;&gt;18:n</title>
<path fill="none" stroke="black" d="M1411.6,-250.71C1411.6,-250.71 1615.79,-210.96 1663.65,-201.65"/>
<polygon fill="black" stroke="black" points="1664.45,-205.06 1673.6,-199.71 1663.12,-198.19 1664.45,-205.06"/>
<text text-anchor="middle" x="1611.1" y="-221.51" font-family="Helvetica,sans-Serif" font-size="14.00">&gt; &#45;2.982</text>
</g>
<!-- 13 -->
<g id="node15" class="node">
<title>13</title>
<ellipse fill="#3d76cc" stroke="black" cx="822.6" cy="-35.36" rx="115.93" ry="35.21"/>
<text text-anchor="start" x="783.6" y="-46.16" font-family="Helvetica,sans-Serif" font-weight="bold" font-size="14.00"> Class=2 </text>
<text text-anchor="start" x="856.6" y="-46.16" font-family="Helvetica,sans-Serif" font-size="14.00"> </text>
<text text-anchor="start" x="748.6" y="-32.16" font-family="Helvetica,sans-Serif" font-size="14.00"> error: 0.198, n=163 </text>
<text text-anchor="start" x="767.6" y="-18.16" font-family="Helvetica,sans-Serif" font-size="14.00"> p: (0.03, 0.97) </text>
</g>
<!-- 12&#45;&gt;13 -->
<g id="edge14" class="edge">
<title>12:s&#45;&gt;13:n</title>
<path fill="none" stroke="black" d="M1120.6,-121.71C1120.6,-121.71 884.22,-81.26 832.52,-72.41"/>
<polygon fill="black" stroke="black" points="833.05,-68.95 822.6,-70.71 831.87,-75.85 833.05,-68.95"/>
<text text-anchor="middle" x="1042.6" y="-92.51" font-family="Helvetica,sans-Serif" font-size="14.00">&lt;= 2.809</text>
</g>
<!-- 14 -->
<g id="node16" class="node">
<title>14</title>
<ellipse fill="#3d76cc" stroke="black" cx="1120.6" cy="-35.36" rx="109.7" ry="35.21"/>
<text text-anchor="start" x="1081.6" y="-46.16" font-family="Helvetica,sans-Serif" font-weight="bold" font-size="14.00"> Class=2 </text>
<text text-anchor="start" x="1154.6" y="-46.16" font-family="Helvetica,sans-Serif" font-size="14.00"> </text>
<text text-anchor="start" x="1051.1" y="-32.16" font-family="Helvetica,sans-Serif" font-size="14.00"> error: 0.938, n=93 </text>
<text text-anchor="start" x="1065.6" y="-18.16" font-family="Helvetica,sans-Serif" font-size="14.00"> p: (0.35, 0.65) </text>
</g>
<!-- 12&#45;&gt;14 -->
<g id="edge15" class="edge">
<title>12:s&#45;&gt;14:n</title>
<path fill="none" stroke="black" d="M1120.6,-121.71C1120.6,-121.71 1120.6,-95.93 1120.6,-81.03"/>
<polygon fill="black" stroke="black" points="1124.1,-80.71 1120.6,-70.71 1117.1,-80.71 1124.1,-80.71"/>
<text text-anchor="middle" x="1149.6" y="-92.51" font-family="Helvetica,sans-Serif" font-size="14.00">&gt; 2.809</text>
</g>
<!-- 17 -->
<g id="node19" class="node">
<title>17</title>
<ellipse fill="#3d76cc" stroke="black" cx="1411.6" cy="-35.36" rx="109.7" ry="35.21"/>
<text text-anchor="start" x="1372.6" y="-46.16" font-family="Helvetica,sans-Serif" font-weight="bold" font-size="14.00"> Class=2 </text>
<text text-anchor="start" x="1445.6" y="-46.16" font-family="Helvetica,sans-Serif" font-size="14.00"> </text>
<text text-anchor="start" x="1342.1" y="-32.16" font-family="Helvetica,sans-Serif" font-size="14.00"> error: 0.000, n=55 </text>
<text text-anchor="start" x="1356.6" y="-18.16" font-family="Helvetica,sans-Serif" font-size="14.00"> p: (0.00, 1.00) </text>
</g>
<!-- 16&#45;&gt;17 -->
<g id="edge18" class="edge">
<title>16:s&#45;&gt;17:n</title>
<path fill="none" stroke="black" d="M1411.6,-121.71C1411.6,-121.71 1411.6,-95.93 1411.6,-81.03"/>
<polygon fill="black" stroke="black" points="1415.1,-80.71 1411.6,-70.71 1408.1,-80.71 1415.1,-80.71"/>
<text text-anchor="middle" x="1449.1" y="-92.51" font-family="Helvetica,sans-Serif" font-size="14.00">&lt;= &#45;2.916</text>
</g>
<!-- 19 -->
<g id="node20" class="node">
<title>19</title>
<ellipse fill="#3d76cc" stroke="black" cx="1702.6" cy="-35.36" rx="109.7" ry="35.21"/>
<text text-anchor="start" x="1663.6" y="-46.16" font-family="Helvetica,sans-Serif" font-weight="bold" font-size="14.00"> Class=1 </text>
<text text-anchor="start" x="1736.6" y="-46.16" font-family="Helvetica,sans-Serif" font-size="14.00"> </text>
<text text-anchor="start" x="1633.1" y="-32.16" font-family="Helvetica,sans-Serif" font-size="14.00"> error: 0.000, n=95 </text>
<text text-anchor="start" x="1647.6" y="-18.16" font-family="Helvetica,sans-Serif" font-size="14.00"> p: (1.00, 0.00) </text>
</g>
<!-- 18&#45;&gt;19 -->
<g id="edge19" class="edge">
<title>18:s&#45;&gt;19:n</title>
<path fill="none" stroke="black" d="M1673.6,-121.71C1673.6,-121.71 1689.24,-94.21 1697.55,-79.59"/>
<polygon fill="black" stroke="black" points="1700.7,-81.13 1702.6,-70.71 1694.62,-77.67 1700.7,-81.13"/>
<text text-anchor="middle" x="1720.6" y="-92.51" font-family="Helvetica,sans-Serif" font-size="14.00">&gt; 6.599</text>
</g>
</g>
</svg>
