<?xml version="1.0" encoding="UTF-8" standalone="no"?>
<!DOCTYPE svg PUBLIC "-//W3C//DTD SVG 1.1//EN"
 "http://www.w3.org/Graphics/SVG/1.1/DTD/svg11.dtd">
<!-- Generated by graphviz version 2.43.0 (0)
 -->
<!-- Title: Tree Pages: 1 -->
<svg width="1400pt" height="825pt"
 viewBox="0.00 0.00 1399.57 824.71" xmlns="http://www.w3.org/2000/svg" xmlns:xlink="http://www.w3.org/1999/xlink">
<g id="graph0" class="graph" transform="scale(1 1) rotate(0) translate(18 806.71)">
<title>Tree</title>
<polygon fill="white" stroke="transparent" points="-18,18 -18,-806.71 1381.57,-806.71 1381.57,18 -18,18"/>
<!-- 0 -->
<g id="node1" class="node">
<title>0</title>
<polygon fill="white" stroke="transparent" points="945.6,-788.71 891.6,-788.71 891.6,-752.71 945.6,-752.71 945.6,-788.71"/>
<text text-anchor="middle" x="918.6" y="-767.01" font-family="Helvetica,sans-Serif" font-size="14.00">0</text>
</g>
<!-- 1 -->
<g id="node2" class="node">
<title>1</title>
<polygon fill="#cc3d3d" stroke="black" points="1005.6,-715.71 831.6,-715.71 831.6,-637.71 1005.6,-637.71 1005.6,-715.71"/>
<text text-anchor="start" x="858.1" y="-701.51" font-family="Helvetica,sans-Serif" font-weight="bold" font-size="14.00"> Class=benign </text>
<text text-anchor="start" x="974.1" y="-701.51" font-family="Helvetica,sans-Serif" font-size="14.00"> </text>
<text text-anchor="start" x="844.6" y="-687.51" font-family="Helvetica,sans-Serif" font-size="14.00"> error: 0.929, n=699 </text>
<text text-anchor="start" x="863.6" y="-673.51" font-family="Helvetica,sans-Serif" font-size="14.00"> p: (0.66, 0.34) </text>
<text text-anchor="start" x="865.6" y="-659.51" font-family="Helvetica,sans-Serif" font-size="14.00">&#45;&#45;&#45;&#45;&#45;&#45;&#45;&#45;&#45;&#45;&#45;&#45;&#45;&#45;&#45;&#45;&#45;&#45;&#45;&#45;</text>
<text text-anchor="start" x="839.6" y="-645.51" font-family="Helvetica,sans-Serif" font-weight="bold" font-size="14.00">Cell_Size_Uniformity</text>
</g>
<!-- 0&#45;&gt;1 -->
<!-- 2 -->
<g id="node3" class="node">
<title>2</title>
<polygon fill="#e5b844" stroke="black" points="883.6,-586.71 719.6,-586.71 719.6,-508.71 883.6,-508.71 883.6,-586.71"/>
<text text-anchor="start" x="728.1" y="-572.51" font-family="Helvetica,sans-Serif" font-weight="bold" font-size="14.00"> Class=malignant </text>
<text text-anchor="start" x="870.1" y="-572.51" font-family="Helvetica,sans-Serif" font-size="14.00"> </text>
<text text-anchor="start" x="727.6" y="-558.51" font-family="Helvetica,sans-Serif" font-size="14.00"> error: 0.614, n=270 </text>
<text text-anchor="start" x="746.6" y="-544.51" font-family="Helvetica,sans-Serif" font-size="14.00"> p: (0.15, 0.85) </text>
<text text-anchor="start" x="772.6" y="-530.51" font-family="Helvetica,sans-Serif" font-size="14.00">&#45;&#45;&#45;&#45;&#45;&#45;&#45;&#45;&#45;&#45;&#45;</text>
<text text-anchor="start" x="755.1" y="-516.51" font-family="Helvetica,sans-Serif" font-weight="bold" font-size="14.00">Bare_Nuclei</text>
</g>
<!-- 1&#45;&gt;2 -->
<g id="edge2" class="edge">
<title>1:s&#45;&gt;2:n</title>
<path fill="none" stroke="black" d="M918.6,-637.71C918.6,-637.71 838.36,-602.74 810.78,-590.71"/>
<polygon fill="black" stroke="black" points="812.17,-587.5 801.6,-586.71 809.37,-593.92 812.17,-587.5"/>
<text text-anchor="middle" x="887.6" y="-608.51" font-family="Helvetica,sans-Serif" font-size="14.00">&gt; 2</text>
</g>
<!-- 12 -->
<g id="node4" class="node">
<title>12</title>
<polygon fill="#e5b844" stroke="black" points="1287.6,-586.71 1123.6,-586.71 1123.6,-508.71 1287.6,-508.71 1287.6,-586.71"/>
<text text-anchor="start" x="1145.1" y="-572.51" font-family="Helvetica,sans-Serif" font-weight="bold" font-size="14.00"> Class=benign </text>
<text text-anchor="start" x="1261.1" y="-572.51" font-family="Helvetica,sans-Serif" font-size="14.00"> </text>
<text text-anchor="start" x="1131.6" y="-558.51" font-family="Helvetica,sans-Serif" font-size="14.00"> error: 0.184, n=429 </text>
<text text-anchor="start" x="1150.6" y="-544.51" font-family="Helvetica,sans-Serif" font-size="14.00"> p: (0.97, 0.03) </text>
<text text-anchor="start" x="1176.6" y="-530.51" font-family="Helvetica,sans-Serif" font-size="14.00">&#45;&#45;&#45;&#45;&#45;&#45;&#45;&#45;&#45;&#45;&#45;</text>
<text text-anchor="start" x="1159.1" y="-516.51" font-family="Helvetica,sans-Serif" font-weight="bold" font-size="14.00">Bare_Nuclei</text>
</g>
<!-- 1&#45;&gt;12 -->
<g id="edge3" class="edge">
<title>1:s&#45;&gt;12:n</title>
<path fill="none" stroke="black" d="M918.6,-637.71C918.6,-637.71 1145.26,-597.43 1195.72,-588.47"/>
<polygon fill="black" stroke="black" points="1196.37,-591.91 1205.6,-586.71 1195.14,-585.01 1196.37,-591.91"/>
<text text-anchor="middle" x="1115.6" y="-608.51" font-family="Helvetica,sans-Serif" font-size="14.00">&lt;= 2</text>
</g>
<!-- 3 -->
<g id="node5" class="node">
<title>3</title>
<polygon fill="#8dcc3d" stroke="black" points="493.6,-457.71 319.6,-457.71 319.6,-379.71 493.6,-379.71 493.6,-457.71"/>
<text text-anchor="start" x="333.1" y="-443.51" font-family="Helvetica,sans-Serif" font-weight="bold" font-size="14.00"> Class=malignant </text>
<text text-anchor="start" x="475.1" y="-443.51" font-family="Helvetica,sans-Serif" font-size="14.00"> </text>
<text text-anchor="start" x="337.1" y="-429.51" font-family="Helvetica,sans-Serif" font-size="14.00"> error: 0.992, n=65 </text>
<text text-anchor="start" x="351.6" y="-415.51" font-family="Helvetica,sans-Serif" font-size="14.00"> p: (0.45, 0.55) </text>
<text text-anchor="start" x="353.6" y="-401.51" font-family="Helvetica,sans-Serif" font-size="14.00">&#45;&#45;&#45;&#45;&#45;&#45;&#45;&#45;&#45;&#45;&#45;&#45;&#45;&#45;&#45;&#45;&#45;&#45;&#45;&#45;</text>
<text text-anchor="start" x="327.6" y="-387.51" font-family="Helvetica,sans-Serif" font-weight="bold" font-size="14.00">Cell_Size_Uniformity</text>
</g>
<!-- 2&#45;&gt;3 -->
<g id="edge4" class="edge">
<title>2:s&#45;&gt;3:n</title>
<path fill="none" stroke="black" d="M801.6,-508.71C801.6,-508.71 478.59,-467.01 416.76,-459.02"/>
<polygon fill="black" stroke="black" points="416.97,-455.52 406.6,-457.71 416.07,-462.46 416.97,-455.52"/>
<text text-anchor="middle" x="670.6" y="-479.51" font-family="Helvetica,sans-Serif" font-size="14.00">&lt;= 3</text>
</g>
<!-- 6 -->
<g id="node6" class="node">
<title>6</title>
<polygon fill="#8dcc3d" stroke="black" points="883.6,-457.71 719.6,-457.71 719.6,-379.71 883.6,-379.71 883.6,-457.71"/>
<text text-anchor="start" x="728.1" y="-443.51" font-family="Helvetica,sans-Serif" font-weight="bold" font-size="14.00"> Class=malignant </text>
<text text-anchor="start" x="870.1" y="-443.51" font-family="Helvetica,sans-Serif" font-size="14.00"> </text>
<text text-anchor="start" x="727.6" y="-429.51" font-family="Helvetica,sans-Serif" font-size="14.00"> error: 0.265, n=200 </text>
<text text-anchor="start" x="746.6" y="-415.51" font-family="Helvetica,sans-Serif" font-size="14.00"> p: (0.04, 0.95) </text>
<text text-anchor="start" x="756.6" y="-401.51" font-family="Helvetica,sans-Serif" font-size="14.00">&#45;&#45;&#45;&#45;&#45;&#45;&#45;&#45;&#45;&#45;&#45;&#45;&#45;&#45;&#45;&#45;&#45;</text>
<text text-anchor="start" x="727.6" y="-387.51" font-family="Helvetica,sans-Serif" font-weight="bold" font-size="14.00">Marginal_Adhesion</text>
</g>
<!-- 2&#45;&gt;6 -->
<g id="edge5" class="edge">
<title>2:s&#45;&gt;6:n</title>
<path fill="none" stroke="black" d="M801.6,-508.71C801.6,-508.71 801.6,-482.93 801.6,-468.03"/>
<polygon fill="black" stroke="black" points="805.1,-467.71 801.6,-457.71 798.1,-467.71 805.1,-467.71"/>
<text text-anchor="middle" x="814.6" y="-479.51" font-family="Helvetica,sans-Serif" font-size="14.00">&gt; 3</text>
</g>
<!-- 13 -->
<g id="node14" class="node">
<title>13</title>
<polygon fill="#8dcc3d" stroke="black" points="1319.6,-457.71 1155.6,-457.71 1155.6,-379.71 1319.6,-379.71 1319.6,-457.71"/>
<text text-anchor="start" x="1177.1" y="-443.51" font-family="Helvetica,sans-Serif" font-weight="bold" font-size="14.00"> Class=benign </text>
<text text-anchor="start" x="1293.1" y="-443.51" font-family="Helvetica,sans-Serif" font-size="14.00"> </text>
<text text-anchor="start" x="1163.6" y="-429.51" font-family="Helvetica,sans-Serif" font-size="14.00"> error: 0.064, n=401 </text>
<text text-anchor="start" x="1182.6" y="-415.51" font-family="Helvetica,sans-Serif" font-size="14.00"> p: (0.99, 0.01) </text>
<text text-anchor="start" x="1198.1" y="-401.51" font-family="Helvetica,sans-Serif" font-size="14.00">&#45;&#45;&#45;&#45;&#45;&#45;&#45;&#45;&#45;&#45;&#45;&#45;&#45;&#45;&#45;</text>
<text text-anchor="start" x="1171.1" y="-387.51" font-family="Helvetica,sans-Serif" font-weight="bold" font-size="14.00">Clump_Thickness</text>
</g>
<!-- 12&#45;&gt;13 -->
<g id="edge13" class="edge">
<title>12:s&#45;&gt;13:n</title>
<path fill="none" stroke="black" d="M1205.6,-508.71C1205.6,-508.71 1222.86,-481.21 1232.03,-466.59"/>
<polygon fill="black" stroke="black" points="1235.25,-468.04 1237.6,-457.71 1229.32,-464.32 1235.25,-468.04"/>
<text text-anchor="middle" x="1244.6" y="-479.51" font-family="Helvetica,sans-Serif" font-size="14.00">&lt;= 4</text>
</g>
<!-- 4 -->
<g id="node7" class="node">
<title>4</title>
<ellipse fill="#44e55e" stroke="black" cx="109.6" cy="-289.71" rx="109.7" ry="35.21"/>
<text text-anchor="start" x="49.1" y="-300.51" font-family="Helvetica,sans-Serif" font-weight="bold" font-size="14.00"> Class=benign </text>
<text text-anchor="start" x="165.1" y="-300.51" font-family="Helvetica,sans-Serif" font-size="14.00"> </text>
<text text-anchor="start" x="40.1" y="-286.51" font-family="Helvetica,sans-Serif" font-size="14.00"> error: 0.872, n=41 </text>
<text text-anchor="start" x="54.6" y="-272.51" font-family="Helvetica,sans-Serif" font-size="14.00"> p: (0.71, 0.29) </text>
</g>
<!-- 3&#45;&gt;4 -->
<g id="edge6" class="edge">
<title>3:s&#45;&gt;4:n</title>
<path fill="none" stroke="black" d="M406.6,-379.71C406.6,-379.71 171.02,-337.67 119.48,-328.47"/>
<polygon fill="black" stroke="black" points="120.06,-325.02 109.6,-326.71 118.83,-331.91 120.06,-325.02"/>
<text text-anchor="middle" x="321.6" y="-350.51" font-family="Helvetica,sans-Serif" font-size="14.00">&lt;= 5</text>
</g>
<!-- 5 -->
<g id="node8" class="node">
<title>5</title>
<ellipse fill="#44e55e" stroke="black" cx="406.6" cy="-289.71" rx="115.02" ry="35.21"/>
<text text-anchor="start" x="333.1" y="-300.51" font-family="Helvetica,sans-Serif" font-weight="bold" font-size="14.00"> Class=malignant </text>
<text text-anchor="start" x="475.1" y="-300.51" font-family="Helvetica,sans-Serif" font-size="14.00"> </text>
<text text-anchor="start" x="337.1" y="-286.51" font-family="Helvetica,sans-Serif" font-size="14.00"> error: 0.000, n=24 </text>
<text text-anchor="start" x="351.6" y="-272.51" font-family="Helvetica,sans-Serif" font-size="14.00"> p: (0.00, 1.00) </text>
</g>
<!-- 3&#45;&gt;5 -->
<g id="edge7" class="edge">
<title>3:s&#45;&gt;5:n</title>
<path fill="none" stroke="black" d="M406.6,-379.71C406.6,-379.71 406.6,-351.81 406.6,-336.12"/>
<polygon fill="black" stroke="black" points="410.1,-335.71 406.6,-325.71 403.1,-335.71 410.1,-335.71"/>
<text text-anchor="middle" x="419.6" y="-350.51" font-family="Helvetica,sans-Serif" font-size="14.00">&gt; 5</text>
</g>
<!-- 7 -->
<g id="node9" class="node">
<title>7</title>
<polygon fill="#44e55e" stroke="black" points="757.6,-328.71 593.6,-328.71 593.6,-250.71 757.6,-250.71 757.6,-328.71"/>
<text text-anchor="start" x="602.1" y="-314.51" font-family="Helvetica,sans-Serif" font-weight="bold" font-size="14.00"> Class=malignant </text>
<text text-anchor="start" x="744.1" y="-314.51" font-family="Helvetica,sans-Serif" font-size="14.00"> </text>
<text text-anchor="start" x="601.6" y="-300.51" font-family="Helvetica,sans-Serif" font-size="14.00"> error: 0.428, n=103 </text>
<text text-anchor="start" x="620.6" y="-286.51" font-family="Helvetica,sans-Serif" font-size="14.00"> p: (0.09, 0.91) </text>
<text text-anchor="start" x="636.1" y="-272.51" font-family="Helvetica,sans-Serif" font-size="14.00">&#45;&#45;&#45;&#45;&#45;&#45;&#45;&#45;&#45;&#45;&#45;&#45;&#45;&#45;&#45;</text>
<text text-anchor="start" x="609.1" y="-258.51" font-family="Helvetica,sans-Serif" font-weight="bold" font-size="14.00">Clump_Thickness</text>
</g>
<!-- 6&#45;&gt;7 -->
<g id="edge8" class="edge">
<title>6:s&#45;&gt;7:n</title>
<path fill="none" stroke="black" d="M801.6,-379.71C801.6,-379.71 714.37,-344.4 685.07,-332.54"/>
<polygon fill="black" stroke="black" points="686.18,-329.22 675.6,-328.71 683.56,-335.71 686.18,-329.22"/>
<text text-anchor="middle" x="772.6" y="-350.51" font-family="Helvetica,sans-Serif" font-size="14.00">&lt;= 5</text>
</g>
<!-- 11 -->
<g id="node10" class="node">
<title>11</title>
<ellipse fill="#44e55e" stroke="black" cx="944.6" cy="-289.71" rx="115.02" ry="35.21"/>
<text text-anchor="start" x="871.1" y="-300.51" font-family="Helvetica,sans-Serif" font-weight="bold" font-size="14.00"> Class=malignant </text>
<text text-anchor="start" x="1013.1" y="-300.51" font-family="Helvetica,sans-Serif" font-size="14.00"> </text>
<text text-anchor="start" x="875.1" y="-286.51" font-family="Helvetica,sans-Serif" font-size="14.00"> error: 0.000, n=97 </text>
<text text-anchor="start" x="889.6" y="-272.51" font-family="Helvetica,sans-Serif" font-size="14.00"> p: (0.00, 1.00) </text>
</g>
<!-- 6&#45;&gt;11 -->
<g id="edge9" class="edge">
<title>6:s&#45;&gt;11:n</title>
<path fill="none" stroke="black" d="M801.6,-379.71C801.6,-379.71 903.41,-341.27 935.22,-329.25"/>
<polygon fill="black" stroke="black" points="936.48,-332.52 944.6,-325.71 934.01,-325.97 936.48,-332.52"/>
<text text-anchor="middle" x="899.6" y="-350.51" font-family="Helvetica,sans-Serif" font-size="14.00">&gt; 5</text>
</g>
<!-- 8 -->
<g id="node11" class="node">
<title>8</title>
<polygon fill="#3dccba" stroke="black" points="587.1,-199.71 396.1,-199.71 396.1,-121.71 587.1,-121.71 587.1,-199.71"/>
<text text-anchor="start" x="418.1" y="-185.51" font-family="Helvetica,sans-Serif" font-weight="bold" font-size="14.00"> Class=malignant </text>
<text text-anchor="start" x="560.1" y="-185.51" font-family="Helvetica,sans-Serif" font-size="14.00"> </text>
<text text-anchor="start" x="422.1" y="-171.51" font-family="Helvetica,sans-Serif" font-size="14.00"> error: 0.580, n=65 </text>
<text text-anchor="start" x="436.6" y="-157.51" font-family="Helvetica,sans-Serif" font-size="14.00"> p: (0.14, 0.86) </text>
<text text-anchor="start" x="436.1" y="-143.51" font-family="Helvetica,sans-Serif" font-size="14.00">&#45;&#45;&#45;&#45;&#45;&#45;&#45;&#45;&#45;&#45;&#45;&#45;&#45;&#45;&#45;&#45;&#45;&#45;&#45;&#45;&#45;</text>
<text text-anchor="start" x="404.1" y="-129.51" font-family="Helvetica,sans-Serif" font-weight="bold" font-size="14.00">Cell_Shape_Uniformity</text>
</g>
<!-- 7&#45;&gt;8 -->
<g id="edge10" class="edge">
<title>7:s&#45;&gt;8:n</title>
<path fill="none" stroke="black" d="M675.6,-250.71C675.6,-250.71 539.71,-213.05 501.49,-202.45"/>
<polygon fill="black" stroke="black" points="502.17,-199.01 491.6,-199.71 500.3,-205.75 502.17,-199.01"/>
<text text-anchor="middle" x="624.6" y="-221.51" font-family="Helvetica,sans-Serif" font-size="14.00">&lt;= 8</text>
</g>
<!-- 10 -->
<g id="node12" class="node">
<title>10</title>
<ellipse fill="#3dccba" stroke="black" cx="774.6" cy="-160.71" rx="115.02" ry="35.21"/>
<text text-anchor="start" x="701.1" y="-171.51" font-family="Helvetica,sans-Serif" font-weight="bold" font-size="14.00"> Class=malignant </text>
<text text-anchor="start" x="843.1" y="-171.51" font-family="Helvetica,sans-Serif" font-size="14.00"> </text>
<text text-anchor="start" x="705.1" y="-157.51" font-family="Helvetica,sans-Serif" font-size="14.00"> error: 0.000, n=38 </text>
<text text-anchor="start" x="719.6" y="-143.51" font-family="Helvetica,sans-Serif" font-size="14.00"> p: (0.00, 1.00) </text>
</g>
<!-- 7&#45;&gt;10 -->
<g id="edge11" class="edge">
<title>7:s&#45;&gt;10:n</title>
<path fill="none" stroke="black" d="M675.6,-250.71C675.6,-250.71 741.59,-214.72 765.82,-201.5"/>
<polygon fill="black" stroke="black" points="767.5,-204.57 774.6,-196.71 764.15,-198.43 767.5,-204.57"/>
<text text-anchor="middle" x="747.6" y="-221.51" font-family="Helvetica,sans-Serif" font-size="14.00">&gt; 8</text>
</g>
<!-- 9 -->
<g id="node13" class="node">
<title>9</title>
<ellipse fill="#4485e5" stroke="black" cx="491.6" cy="-35.36" rx="115.02" ry="35.21"/>
<text text-anchor="start" x="418.1" y="-46.16" font-family="Helvetica,sans-Serif" font-weight="bold" font-size="14.00"> Class=malignant </text>
<text text-anchor="start" x="560.1" y="-46.16" font-family="Helvetica,sans-Serif" font-size="14.00"> </text>
<text text-anchor="start" x="422.1" y="-32.16" font-family="Helvetica,sans-Serif" font-size="14.00"> error: 0.353, n=45 </text>
<text text-anchor="start" x="436.6" y="-18.16" font-family="Helvetica,sans-Serif" font-size="14.00"> p: (0.07, 0.93) </text>
</g>
<!-- 8&#45;&gt;9 -->
<g id="edge12" class="edge">
<title>8:s&#45;&gt;9:n</title>
<path fill="none" stroke="black" d="M491.6,-121.71C491.6,-121.71 491.6,-95.93 491.6,-81.03"/>
<polygon fill="black" stroke="black" points="495.1,-80.71 491.6,-70.71 488.1,-80.71 495.1,-80.71"/>
<text text-anchor="middle" x="504.6" y="-92.51" font-family="Helvetica,sans-Serif" font-size="14.00">&gt; 4</text>
</g>
<!-- 14 -->
<g id="node15" class="node">
<title>14</title>
<ellipse fill="#44e55e" stroke="black" cx="1247.6" cy="-289.71" rx="115.93" ry="35.21"/>
<text text-anchor="start" x="1187.1" y="-300.51" font-family="Helvetica,sans-Serif" font-weight="bold" font-size="14.00"> Class=benign </text>
<text text-anchor="start" x="1303.1" y="-300.51" font-family="Helvetica,sans-Serif" font-size="14.00"> </text>
<text text-anchor="start" x="1173.6" y="-286.51" font-family="Helvetica,sans-Serif" font-size="14.00"> error: 0.000, n=385 </text>
<text text-anchor="start" x="1192.6" y="-272.51" font-family="Helvetica,sans-Serif" font-size="14.00"> p: (1.00, 0.00) </text>
</g>
<!-- 13&#45;&gt;14 -->
<g id="edge14" class="edge">
<title>13:s&#45;&gt;14:n</title>
<path fill="none" stroke="black" d="M1237.6,-379.71C1237.6,-379.71 1242.77,-352.33 1245.67,-336.93"/>
<polygon fill="black" stroke="black" points="1249.19,-337.19 1247.6,-326.71 1242.31,-335.89 1249.19,-337.19"/>
<text text-anchor="middle" x="1263.6" y="-350.51" font-family="Helvetica,sans-Serif" font-size="14.00">&lt;= 5</text>
</g>
</g>
</svg>
