<?xml version="1.0" encoding="UTF-8" standalone="no"?>
<!DOCTYPE svg PUBLIC "-//W3C//DTD SVG 1.1//EN"
 "http://www.w3.org/Graphics/SVG/1.1/DTD/svg11.dtd">
<!-- Generated by graphviz version 2.43.0 (0)
 -->
<!-- Title: Tree Pages: 1 -->
<svg width="5804pt" height="567pt"
 viewBox="0.00 0.00 5803.74 566.71" xmlns="http://www.w3.org/2000/svg" xmlns:xlink="http://www.w3.org/1999/xlink">
<g id="graph0" class="graph" transform="scale(1 1) rotate(0) translate(18 548.71)">
<title>Tree</title>
<polygon fill="white" stroke="transparent" points="-18,18 -18,-548.71 5785.74,-548.71 5785.74,18 -18,18"/>
<!-- 0 -->
<g id="node1" class="node">
<title>0</title>
<polygon fill="white" stroke="transparent" points="3420.37,-530.71 3366.37,-530.71 3366.37,-494.71 3420.37,-494.71 3420.37,-530.71"/>
<text text-anchor="middle" x="3393.37" y="-509.01" font-family="Helvetica,sans-Serif" font-size="14.00">0</text>
</g>
<!-- 1 -->
<g id="node2" class="node">
<title>1</title>
<polygon fill="#cc3d3d" stroke="black" points="3496.87,-457.71 3289.87,-457.71 3289.87,-379.71 3496.87,-379.71 3496.87,-457.71"/>
<text text-anchor="start" x="3336.37" y="-443.51" font-family="Helvetica,sans-Serif" font-weight="bold" font-size="14.00"> Class=unacc </text>
<text text-anchor="start" x="3445.37" y="-443.51" font-family="Helvetica,sans-Serif" font-size="14.00"> </text>
<text text-anchor="start" x="3314.87" y="-429.51" font-family="Helvetica,sans-Serif" font-size="14.00"> error: 0.603, n=1728 </text>
<text text-anchor="start" x="3297.87" y="-415.51" font-family="Helvetica,sans-Serif" font-size="14.00"> p: (0.22, 0.04, 0.70, 0.04) </text>
<text text-anchor="start" x="3377.37" y="-401.51" font-family="Helvetica,sans-Serif" font-size="14.00">&#45;&#45;&#45;&#45;&#45;&#45;</text>
<text text-anchor="start" x="3368.37" y="-387.51" font-family="Helvetica,sans-Serif" font-weight="bold" font-size="14.00">safety</text>
</g>
<!-- 0&#45;&gt;1 -->
<!-- 2 -->
<g id="node3" class="node">
<title>2</title>
<polygon fill="#c5e544" stroke="black" points="1412.87,-328.71 1205.87,-328.71 1205.87,-250.71 1412.87,-250.71 1412.87,-328.71"/>
<text text-anchor="start" x="1252.37" y="-314.51" font-family="Helvetica,sans-Serif" font-weight="bold" font-size="14.00"> Class=unacc </text>
<text text-anchor="start" x="1361.37" y="-314.51" font-family="Helvetica,sans-Serif" font-size="14.00"> </text>
<text text-anchor="start" x="1235.37" y="-300.51" font-family="Helvetica,sans-Serif" font-size="14.00"> error: 0.808, n=576 </text>
<text text-anchor="start" x="1213.87" y="-286.51" font-family="Helvetica,sans-Serif" font-size="14.00"> p: (0.35, 0.05, 0.48, 0.11) </text>
<text text-anchor="start" x="1290.87" y="-272.51" font-family="Helvetica,sans-Serif" font-size="14.00">&#45;&#45;&#45;&#45;&#45;&#45;&#45;</text>
<text text-anchor="start" x="1277.87" y="-258.51" font-family="Helvetica,sans-Serif" font-weight="bold" font-size="14.00">persons</text>
</g>
<!-- 1&#45;&gt;2 -->
<g id="edge2" class="edge">
<title>1:s&#45;&gt;2:n</title>
<path fill="none" stroke="black" d="M3393.37,-379.71C3393.37,-379.71 1476.82,-332.81 1319.6,-328.96"/>
<polygon fill="black" stroke="black" points="1319.45,-325.46 1309.37,-328.71 1319.28,-332.45 1319.45,-325.46"/>
<text text-anchor="middle" x="2614.87" y="-350.51" font-family="Helvetica,sans-Serif" font-size="14.00">high</text>
</g>
<!-- 14 -->
<g id="node4" class="node">
<title>14</title>
<polygon fill="#c5e544" stroke="black" points="3496.87,-328.71 3289.87,-328.71 3289.87,-250.71 3496.87,-250.71 3496.87,-328.71"/>
<text text-anchor="start" x="3336.37" y="-314.51" font-family="Helvetica,sans-Serif" font-weight="bold" font-size="14.00"> Class=unacc </text>
<text text-anchor="start" x="3445.37" y="-314.51" font-family="Helvetica,sans-Serif" font-size="14.00"> </text>
<text text-anchor="start" x="3319.37" y="-300.51" font-family="Helvetica,sans-Serif" font-size="14.00"> error: 0.608, n=576 </text>
<text text-anchor="start" x="3297.87" y="-286.51" font-family="Helvetica,sans-Serif" font-size="14.00"> p: (0.31, 0.07, 0.62, 0.00) </text>
<text text-anchor="start" x="3374.87" y="-272.51" font-family="Helvetica,sans-Serif" font-size="14.00">&#45;&#45;&#45;&#45;&#45;&#45;&#45;</text>
<text text-anchor="start" x="3361.87" y="-258.51" font-family="Helvetica,sans-Serif" font-weight="bold" font-size="14.00">persons</text>
</g>
<!-- 1&#45;&gt;14 -->
<g id="edge3" class="edge">
<title>1:s&#45;&gt;14:n</title>
<path fill="none" stroke="black" d="M3393.37,-379.71C3393.37,-379.71 3393.37,-353.93 3393.37,-339.03"/>
<polygon fill="black" stroke="black" points="3396.87,-338.71 3393.37,-328.71 3389.87,-338.71 3396.87,-338.71"/>
<text text-anchor="middle" x="3408.87" y="-350.51" font-family="Helvetica,sans-Serif" font-size="14.00">med</text>
</g>
<!-- 26 -->
<g id="node5" class="node">
<title>26</title>
<ellipse fill="#c5e544" stroke="black" cx="3715.37" cy="-289.71" rx="146.24" ry="35.21"/>
<text text-anchor="start" x="3658.37" y="-300.51" font-family="Helvetica,sans-Serif" font-weight="bold" font-size="14.00"> Class=unacc </text>
<text text-anchor="start" x="3767.37" y="-300.51" font-family="Helvetica,sans-Serif" font-size="14.00"> </text>
<text text-anchor="start" x="3641.37" y="-286.51" font-family="Helvetica,sans-Serif" font-size="14.00"> error: 0.000, n=576 </text>
<text text-anchor="start" x="3619.87" y="-272.51" font-family="Helvetica,sans-Serif" font-size="14.00"> p: (0.00, 0.00, 1.00, 0.00) </text>
</g>
<!-- 1&#45;&gt;26 -->
<g id="edge4" class="edge">
<title>1:s&#45;&gt;26:n</title>
<path fill="none" stroke="black" d="M3393.37,-379.71C3393.37,-379.71 3651.03,-337.3 3705.38,-328.35"/>
<polygon fill="black" stroke="black" points="3706.07,-331.79 3715.37,-326.71 3704.94,-324.88 3706.07,-331.79"/>
<text text-anchor="middle" x="3605.37" y="-350.51" font-family="Helvetica,sans-Serif" font-size="14.00">low</text>
</g>
<!-- 3 -->
<g id="node6" class="node">
<title>3</title>
<ellipse fill="#3dcc76" stroke="black" cx="737.37" cy="-160.71" rx="146.24" ry="35.21"/>
<text text-anchor="start" x="680.37" y="-171.51" font-family="Helvetica,sans-Serif" font-weight="bold" font-size="14.00"> Class=unacc </text>
<text text-anchor="start" x="789.37" y="-171.51" font-family="Helvetica,sans-Serif" font-size="14.00"> </text>
<text text-anchor="start" x="663.37" y="-157.51" font-family="Helvetica,sans-Serif" font-size="14.00"> error: 0.000, n=192 </text>
<text text-anchor="start" x="641.87" y="-143.51" font-family="Helvetica,sans-Serif" font-size="14.00"> p: (0.00, 0.00, 1.00, 0.00) </text>
</g>
<!-- 2&#45;&gt;3 -->
<g id="edge5" class="edge">
<title>2:s&#45;&gt;3:n</title>
<path fill="none" stroke="black" d="M1309.37,-250.71C1309.37,-250.71 825.31,-205.86 747.79,-198.68"/>
<polygon fill="black" stroke="black" points="747.65,-195.15 737.37,-197.71 747.01,-202.12 747.65,-195.15"/>
<text text-anchor="middle" x="1113.37" y="-221.51" font-family="Helvetica,sans-Serif" font-size="14.00">2</text>
</g>
<!-- 4 -->
<g id="node7" class="node">
<title>4</title>
<polygon fill="#3dcc76" stroke="black" points="1162.87,-199.71 955.87,-199.71 955.87,-121.71 1162.87,-121.71 1162.87,-199.71"/>
<text text-anchor="start" x="1012.37" y="-185.51" font-family="Helvetica,sans-Serif" font-weight="bold" font-size="14.00"> Class=acc </text>
<text text-anchor="start" x="1101.37" y="-185.51" font-family="Helvetica,sans-Serif" font-size="14.00"> </text>
<text text-anchor="start" x="985.37" y="-171.51" font-family="Helvetica,sans-Serif" font-size="14.00"> error: 0.829, n=192 </text>
<text text-anchor="start" x="963.87" y="-157.51" font-family="Helvetica,sans-Serif" font-size="14.00"> p: (0.56, 0.09, 0.19, 0.16) </text>
<text text-anchor="start" x="1043.37" y="-143.51" font-family="Helvetica,sans-Serif" font-size="14.00">&#45;&#45;&#45;&#45;&#45;&#45;</text>
<text text-anchor="start" x="1032.87" y="-129.51" font-family="Helvetica,sans-Serif" font-weight="bold" font-size="14.00">buying</text>
</g>
<!-- 2&#45;&gt;4 -->
<g id="edge6" class="edge">
<title>2:s&#45;&gt;4:n</title>
<path fill="none" stroke="black" d="M1309.37,-250.71C1309.37,-250.71 1115.39,-211.14 1069.17,-201.71"/>
<polygon fill="black" stroke="black" points="1069.87,-198.28 1059.37,-199.71 1068.47,-205.14 1069.87,-198.28"/>
<text text-anchor="middle" x="1219.37" y="-221.51" font-family="Helvetica,sans-Serif" font-size="14.00">4</text>
</g>
<!-- 9 -->
<g id="node8" class="node">
<title>9</title>
<polygon fill="#3dcc76" stroke="black" points="2074.87,-199.71 1867.87,-199.71 1867.87,-121.71 2074.87,-121.71 2074.87,-199.71"/>
<text text-anchor="start" x="1924.37" y="-185.51" font-family="Helvetica,sans-Serif" font-weight="bold" font-size="14.00"> Class=acc </text>
<text text-anchor="start" x="2013.37" y="-185.51" font-family="Helvetica,sans-Serif" font-size="14.00"> </text>
<text text-anchor="start" x="1897.37" y="-171.51" font-family="Helvetica,sans-Serif" font-size="14.00"> error: 0.850, n=192 </text>
<text text-anchor="start" x="1875.87" y="-157.51" font-family="Helvetica,sans-Serif" font-size="14.00"> p: (0.50, 0.06, 0.26, 0.18) </text>
<text text-anchor="start" x="1955.37" y="-143.51" font-family="Helvetica,sans-Serif" font-size="14.00">&#45;&#45;&#45;&#45;&#45;&#45;</text>
<text text-anchor="start" x="1944.87" y="-129.51" font-family="Helvetica,sans-Serif" font-weight="bold" font-size="14.00">buying</text>
</g>
<!-- 2&#45;&gt;9 -->
<g id="edge7" class="edge">
<title>2:s&#45;&gt;9:n</title>
<path fill="none" stroke="black" d="M1309.37,-250.71C1309.37,-250.71 1877.95,-206.91 1961.24,-200.49"/>
<polygon fill="black" stroke="black" points="1961.67,-203.97 1971.37,-199.71 1961.13,-196.99 1961.67,-203.97"/>
<text text-anchor="middle" x="1737.37" y="-221.51" font-family="Helvetica,sans-Serif" font-size="14.00">more</text>
</g>
<!-- 15 -->
<g id="node17" class="node">
<title>15</title>
<ellipse fill="#3dcc76" stroke="black" cx="3291.37" cy="-160.71" rx="146.24" ry="35.21"/>
<text text-anchor="start" x="3234.37" y="-171.51" font-family="Helvetica,sans-Serif" font-weight="bold" font-size="14.00"> Class=unacc </text>
<text text-anchor="start" x="3343.37" y="-171.51" font-family="Helvetica,sans-Serif" font-size="14.00"> </text>
<text text-anchor="start" x="3217.37" y="-157.51" font-family="Helvetica,sans-Serif" font-size="14.00"> error: 0.000, n=192 </text>
<text text-anchor="start" x="3195.87" y="-143.51" font-family="Helvetica,sans-Serif" font-size="14.00"> p: (0.00, 0.00, 1.00, 0.00) </text>
</g>
<!-- 14&#45;&gt;15 -->
<g id="edge16" class="edge">
<title>14:s&#45;&gt;15:n</title>
<path fill="none" stroke="black" d="M3393.37,-250.71C3393.37,-250.71 3325.39,-215.39 3300.42,-202.41"/>
<polygon fill="black" stroke="black" points="3301.86,-199.22 3291.37,-197.71 3298.63,-205.43 3301.86,-199.22"/>
<text text-anchor="middle" x="3363.37" y="-221.51" font-family="Helvetica,sans-Serif" font-size="14.00">2</text>
</g>
<!-- 16 -->
<g id="node18" class="node">
<title>16</title>
<polygon fill="#3dcc76" stroke="black" points="3716.87,-199.71 3509.87,-199.71 3509.87,-121.71 3716.87,-121.71 3716.87,-199.71"/>
<text text-anchor="start" x="3566.37" y="-185.51" font-family="Helvetica,sans-Serif" font-weight="bold" font-size="14.00"> Class=acc </text>
<text text-anchor="start" x="3655.37" y="-185.51" font-family="Helvetica,sans-Serif" font-size="14.00"> </text>
<text text-anchor="start" x="3539.37" y="-171.51" font-family="Helvetica,sans-Serif" font-size="14.00"> error: 0.677, n=192 </text>
<text text-anchor="start" x="3517.87" y="-157.51" font-family="Helvetica,sans-Serif" font-size="14.00"> p: (0.47, 0.09, 0.44, 0.00) </text>
<text text-anchor="start" x="3597.37" y="-143.51" font-family="Helvetica,sans-Serif" font-size="14.00">&#45;&#45;&#45;&#45;&#45;&#45;</text>
<text text-anchor="start" x="3586.87" y="-129.51" font-family="Helvetica,sans-Serif" font-weight="bold" font-size="14.00">buying</text>
</g>
<!-- 14&#45;&gt;16 -->
<g id="edge17" class="edge">
<title>14:s&#45;&gt;16:n</title>
<path fill="none" stroke="black" d="M3393.37,-250.71C3393.37,-250.71 3560.31,-212.01 3603.35,-202.03"/>
<polygon fill="black" stroke="black" points="3604.42,-205.38 3613.37,-199.71 3602.84,-198.56 3604.42,-205.38"/>
<text text-anchor="middle" x="3535.37" y="-221.51" font-family="Helvetica,sans-Serif" font-size="14.00">4</text>
</g>
<!-- 21 -->
<g id="node19" class="node">
<title>21</title>
<polygon fill="#3dcc76" stroke="black" points="4994.87,-199.71 4787.87,-199.71 4787.87,-121.71 4994.87,-121.71 4994.87,-199.71"/>
<text text-anchor="start" x="4844.37" y="-185.51" font-family="Helvetica,sans-Serif" font-weight="bold" font-size="14.00"> Class=acc </text>
<text text-anchor="start" x="4933.37" y="-185.51" font-family="Helvetica,sans-Serif" font-size="14.00"> </text>
<text text-anchor="start" x="4817.37" y="-171.51" font-family="Helvetica,sans-Serif" font-size="14.00"> error: 0.693, n=192 </text>
<text text-anchor="start" x="4795.87" y="-157.51" font-family="Helvetica,sans-Serif" font-size="14.00"> p: (0.47, 0.11, 0.42, 0.00) </text>
<text text-anchor="start" x="4875.37" y="-143.51" font-family="Helvetica,sans-Serif" font-size="14.00">&#45;&#45;&#45;&#45;&#45;&#45;</text>
<text text-anchor="start" x="4864.87" y="-129.51" font-family="Helvetica,sans-Serif" font-weight="bold" font-size="14.00">buying</text>
</g>
<!-- 14&#45;&gt;21 -->
<g id="edge18" class="edge">
<title>14:s&#45;&gt;21:n</title>
<path fill="none" stroke="black" d="M3393.37,-250.71C3393.37,-250.71 4748.65,-204.57 4881.01,-200.06"/>
<polygon fill="black" stroke="black" points="4881.5,-203.55 4891.37,-199.71 4881.26,-196.55 4881.5,-203.55"/>
<text text-anchor="middle" x="4339.37" y="-221.51" font-family="Helvetica,sans-Serif" font-size="14.00">more</text>
</g>
<!-- 5 -->
<g id="node9" class="node">
<title>5</title>
<ellipse fill="#4485e5" stroke="black" cx="146.37" cy="-35.36" rx="146.24" ry="35.21"/>
<text text-anchor="start" x="99.37" y="-46.16" font-family="Helvetica,sans-Serif" font-weight="bold" font-size="14.00"> Class=acc </text>
<text text-anchor="start" x="188.37" y="-46.16" font-family="Helvetica,sans-Serif" font-size="14.00"> </text>
<text text-anchor="start" x="76.87" y="-32.16" font-family="Helvetica,sans-Serif" font-size="14.00"> error: 0.500, n=48 </text>
<text text-anchor="start" x="50.87" y="-18.16" font-family="Helvetica,sans-Serif" font-size="14.00"> p: (0.50, 0.00, 0.50, 0.00) </text>
</g>
<!-- 4&#45;&gt;5 -->
<g id="edge8" class="edge">
<title>4:s&#45;&gt;5:n</title>
<path fill="none" stroke="black" d="M1059.37,-121.71C1059.37,-121.71 256.93,-76.89 156.62,-71.28"/>
<polygon fill="black" stroke="black" points="156.55,-67.77 146.37,-70.71 156.16,-74.76 156.55,-67.77"/>
<text text-anchor="middle" x="682.37" y="-92.51" font-family="Helvetica,sans-Serif" font-size="14.00">vhigh</text>
</g>
<!-- 6 -->
<g id="node10" class="node">
<title>6</title>
<ellipse fill="#4485e5" stroke="black" cx="511.37" cy="-35.36" rx="146.24" ry="35.21"/>
<text text-anchor="start" x="464.37" y="-46.16" font-family="Helvetica,sans-Serif" font-weight="bold" font-size="14.00"> Class=acc </text>
<text text-anchor="start" x="553.37" y="-46.16" font-family="Helvetica,sans-Serif" font-size="14.00"> </text>
<text text-anchor="start" x="441.87" y="-32.16" font-family="Helvetica,sans-Serif" font-size="14.00"> error: 0.406, n=48 </text>
<text text-anchor="start" x="415.87" y="-18.16" font-family="Helvetica,sans-Serif" font-size="14.00"> p: (0.75, 0.00, 0.25, 0.00) </text>
</g>
<!-- 4&#45;&gt;6 -->
<g id="edge9" class="edge">
<title>4:s&#45;&gt;6:n</title>
<path fill="none" stroke="black" d="M1059.37,-121.71C1059.37,-121.71 595.62,-78.55 521.35,-71.64"/>
<polygon fill="black" stroke="black" points="521.65,-68.15 511.37,-70.71 521,-75.12 521.65,-68.15"/>
<text text-anchor="middle" x="866.87" y="-92.51" font-family="Helvetica,sans-Serif" font-size="14.00">high</text>
</g>
<!-- 7 -->
<g id="node11" class="node">
<title>7</title>
<ellipse fill="#4485e5" stroke="black" cx="876.37" cy="-35.36" rx="146.24" ry="35.21"/>
<text text-anchor="start" x="829.37" y="-46.16" font-family="Helvetica,sans-Serif" font-weight="bold" font-size="14.00"> Class=acc </text>
<text text-anchor="start" x="918.37" y="-46.16" font-family="Helvetica,sans-Serif" font-size="14.00"> </text>
<text text-anchor="start" x="806.87" y="-32.16" font-family="Helvetica,sans-Serif" font-size="14.00"> error: 0.649, n=48 </text>
<text text-anchor="start" x="780.87" y="-18.16" font-family="Helvetica,sans-Serif" font-size="14.00"> p: (0.62, 0.12, 0.00, 0.25) </text>
</g>
<!-- 4&#45;&gt;7 -->
<g id="edge10" class="edge">
<title>4:s&#45;&gt;7:n</title>
<path fill="none" stroke="black" d="M1059.37,-121.71C1059.37,-121.71 924.22,-84.05 886.21,-73.45"/>
<polygon fill="black" stroke="black" points="886.94,-70.02 876.37,-70.71 885.06,-76.77 886.94,-70.02"/>
<text text-anchor="middle" x="1005.87" y="-92.51" font-family="Helvetica,sans-Serif" font-size="14.00">med</text>
</g>
<!-- 8 -->
<g id="node12" class="node">
<title>8</title>
<ellipse fill="#4485e5" stroke="black" cx="1241.37" cy="-35.36" rx="146.24" ry="35.21"/>
<text text-anchor="start" x="1194.37" y="-46.16" font-family="Helvetica,sans-Serif" font-weight="bold" font-size="14.00"> Class=acc </text>
<text text-anchor="start" x="1283.37" y="-46.16" font-family="Helvetica,sans-Serif" font-size="14.00"> </text>
<text text-anchor="start" x="1171.87" y="-32.16" font-family="Helvetica,sans-Serif" font-size="14.00"> error: 0.781, n=48 </text>
<text text-anchor="start" x="1145.87" y="-18.16" font-family="Helvetica,sans-Serif" font-size="14.00"> p: (0.38, 0.25, 0.00, 0.38) </text>
</g>
<!-- 4&#45;&gt;8 -->
<g id="edge11" class="edge">
<title>4:s&#45;&gt;8:n</title>
<path fill="none" stroke="black" d="M1059.37,-121.71C1059.37,-121.71 1193.78,-84.05 1231.59,-73.45"/>
<polygon fill="black" stroke="black" points="1232.69,-76.78 1241.37,-70.71 1230.8,-70.04 1232.69,-76.78"/>
<text text-anchor="middle" x="1184.37" y="-92.51" font-family="Helvetica,sans-Serif" font-size="14.00">low</text>
</g>
<!-- 10 -->
<g id="node13" class="node">
<title>10</title>
<ellipse fill="#4485e5" stroke="black" cx="1606.37" cy="-35.36" rx="146.24" ry="35.21"/>
<text text-anchor="start" x="1549.37" y="-46.16" font-family="Helvetica,sans-Serif" font-weight="bold" font-size="14.00"> Class=unacc </text>
<text text-anchor="start" x="1658.37" y="-46.16" font-family="Helvetica,sans-Serif" font-size="14.00"> </text>
<text text-anchor="start" x="1536.87" y="-32.16" font-family="Helvetica,sans-Serif" font-size="14.00"> error: 0.497, n=48 </text>
<text text-anchor="start" x="1510.87" y="-18.16" font-family="Helvetica,sans-Serif" font-size="14.00"> p: (0.46, 0.00, 0.54, 0.00) </text>
</g>
<!-- 9&#45;&gt;10 -->
<g id="edge12" class="edge">
<title>9:s&#45;&gt;10:n</title>
<path fill="none" stroke="black" d="M1971.37,-121.71C1971.37,-121.71 1675.46,-80.36 1616.51,-72.13"/>
<polygon fill="black" stroke="black" points="1616.76,-68.63 1606.37,-70.71 1615.79,-75.56 1616.76,-68.63"/>
<text text-anchor="middle" x="1852.37" y="-92.51" font-family="Helvetica,sans-Serif" font-size="14.00">vhigh</text>
</g>
<!-- 11 -->
<g id="node14" class="node">
<title>11</title>
<ellipse fill="#4485e5" stroke="black" cx="1971.37" cy="-35.36" rx="146.24" ry="35.21"/>
<text text-anchor="start" x="1924.37" y="-46.16" font-family="Helvetica,sans-Serif" font-weight="bold" font-size="14.00"> Class=acc </text>
<text text-anchor="start" x="2013.37" y="-46.16" font-family="Helvetica,sans-Serif" font-size="14.00"> </text>
<text text-anchor="start" x="1901.87" y="-32.16" font-family="Helvetica,sans-Serif" font-size="14.00"> error: 0.448, n=48 </text>
<text text-anchor="start" x="1875.87" y="-18.16" font-family="Helvetica,sans-Serif" font-size="14.00"> p: (0.69, 0.00, 0.31, 0.00) </text>
</g>
<!-- 9&#45;&gt;11 -->
<g id="edge13" class="edge">
<title>9:s&#45;&gt;11:n</title>
<path fill="none" stroke="black" d="M1971.37,-121.71C1971.37,-121.71 1971.37,-95.93 1971.37,-81.03"/>
<polygon fill="black" stroke="black" points="1974.87,-80.71 1971.37,-70.71 1967.87,-80.71 1974.87,-80.71"/>
<text text-anchor="middle" x="1986.87" y="-92.51" font-family="Helvetica,sans-Serif" font-size="14.00">high</text>
</g>
<!-- 12 -->
<g id="node15" class="node">
<title>12</title>
<ellipse fill="#4485e5" stroke="black" cx="2336.37" cy="-35.36" rx="146.24" ry="35.21"/>
<text text-anchor="start" x="2289.37" y="-46.16" font-family="Helvetica,sans-Serif" font-weight="bold" font-size="14.00"> Class=acc </text>
<text text-anchor="start" x="2378.37" y="-46.16" font-family="Helvetica,sans-Serif" font-size="14.00"> </text>
<text text-anchor="start" x="2266.87" y="-32.16" font-family="Helvetica,sans-Serif" font-size="14.00"> error: 0.798, n=48 </text>
<text text-anchor="start" x="2240.87" y="-18.16" font-family="Helvetica,sans-Serif" font-size="14.00"> p: (0.54, 0.08, 0.08, 0.29) </text>
</g>
<!-- 9&#45;&gt;12 -->
<g id="edge14" class="edge">
<title>9:s&#45;&gt;12:n</title>
<path fill="none" stroke="black" d="M1971.37,-121.71C1971.37,-121.71 2267.28,-80.36 2326.23,-72.13"/>
<polygon fill="black" stroke="black" points="2326.95,-75.56 2336.37,-70.71 2325.98,-68.63 2326.95,-75.56"/>
<text text-anchor="middle" x="2212.87" y="-92.51" font-family="Helvetica,sans-Serif" font-size="14.00">med</text>
</g>
<!-- 13 -->
<g id="node16" class="node">
<title>13</title>
<ellipse fill="#4485e5" stroke="black" cx="2701.37" cy="-35.36" rx="146.24" ry="35.21"/>
<text text-anchor="start" x="2643.37" y="-46.16" font-family="Helvetica,sans-Serif" font-weight="bold" font-size="14.00"> Class=vgood </text>
<text text-anchor="start" x="2754.37" y="-46.16" font-family="Helvetica,sans-Serif" font-size="14.00"> </text>
<text text-anchor="start" x="2631.87" y="-32.16" font-family="Helvetica,sans-Serif" font-size="14.00"> error: 0.888, n=48 </text>
<text text-anchor="start" x="2605.87" y="-18.16" font-family="Helvetica,sans-Serif" font-size="14.00"> p: (0.31, 0.17, 0.08, 0.44) </text>
</g>
<!-- 9&#45;&gt;13 -->
<g id="edge15" class="edge">
<title>9:s&#45;&gt;13:n</title>
<path fill="none" stroke="black" d="M1971.37,-121.71C1971.37,-121.71 2603.65,-77.54 2691.33,-71.41"/>
<polygon fill="black" stroke="black" points="2691.64,-74.9 2701.37,-70.71 2691.15,-67.92 2691.64,-74.9"/>
<text text-anchor="middle" x="2459.37" y="-92.51" font-family="Helvetica,sans-Serif" font-size="14.00">low</text>
</g>
<!-- 17 -->
<g id="node20" class="node">
<title>17</title>
<ellipse fill="#4485e5" stroke="black" cx="3066.37" cy="-35.36" rx="146.24" ry="35.21"/>
<text text-anchor="start" x="3009.37" y="-46.16" font-family="Helvetica,sans-Serif" font-weight="bold" font-size="14.00"> Class=unacc </text>
<text text-anchor="start" x="3118.37" y="-46.16" font-family="Helvetica,sans-Serif" font-size="14.00"> </text>
<text text-anchor="start" x="2996.87" y="-32.16" font-family="Helvetica,sans-Serif" font-size="14.00"> error: 0.406, n=48 </text>
<text text-anchor="start" x="2970.87" y="-18.16" font-family="Helvetica,sans-Serif" font-size="14.00"> p: (0.25, 0.00, 0.75, 0.00) </text>
</g>
<!-- 16&#45;&gt;17 -->
<g id="edge19" class="edge">
<title>16:s&#45;&gt;17:n</title>
<path fill="none" stroke="black" d="M3613.37,-121.71C3613.37,-121.71 3150.47,-78.55 3076.33,-71.64"/>
<polygon fill="black" stroke="black" points="3076.65,-68.15 3066.37,-70.71 3076,-75.12 3076.65,-68.15"/>
<text text-anchor="middle" x="3425.37" y="-92.51" font-family="Helvetica,sans-Serif" font-size="14.00">vhigh</text>
</g>
<!-- 18 -->
<g id="node21" class="node">
<title>18</title>
<ellipse fill="#4485e5" stroke="black" cx="3431.37" cy="-35.36" rx="146.24" ry="35.21"/>
<text text-anchor="start" x="3374.37" y="-46.16" font-family="Helvetica,sans-Serif" font-weight="bold" font-size="14.00"> Class=unacc </text>
<text text-anchor="start" x="3483.37" y="-46.16" font-family="Helvetica,sans-Serif" font-size="14.00"> </text>
<text text-anchor="start" x="3361.87" y="-32.16" font-family="Helvetica,sans-Serif" font-size="14.00"> error: 0.477, n=48 </text>
<text text-anchor="start" x="3335.87" y="-18.16" font-family="Helvetica,sans-Serif" font-size="14.00"> p: (0.38, 0.00, 0.62, 0.00) </text>
</g>
<!-- 16&#45;&gt;18 -->
<g id="edge20" class="edge">
<title>16:s&#45;&gt;18:n</title>
<path fill="none" stroke="black" d="M3613.37,-121.71C3613.37,-121.71 3478.96,-84.05 3441.16,-73.45"/>
<polygon fill="black" stroke="black" points="3441.94,-70.04 3431.37,-70.71 3440.06,-76.78 3441.94,-70.04"/>
<text text-anchor="middle" x="3559.87" y="-92.51" font-family="Helvetica,sans-Serif" font-size="14.00">high</text>
</g>
<!-- 19 -->
<g id="node22" class="node">
<title>19</title>
<ellipse fill="#4485e5" stroke="black" cx="3796.37" cy="-35.36" rx="146.24" ry="35.21"/>
<text text-anchor="start" x="3749.37" y="-46.16" font-family="Helvetica,sans-Serif" font-weight="bold" font-size="14.00"> Class=acc </text>
<text text-anchor="start" x="3838.37" y="-46.16" font-family="Helvetica,sans-Serif" font-size="14.00"> </text>
<text text-anchor="start" x="3726.87" y="-32.16" font-family="Helvetica,sans-Serif" font-size="14.00"> error: 0.649, n=48 </text>
<text text-anchor="start" x="3700.87" y="-18.16" font-family="Helvetica,sans-Serif" font-size="14.00"> p: (0.62, 0.12, 0.25, 0.00) </text>
</g>
<!-- 16&#45;&gt;19 -->
<g id="edge21" class="edge">
<title>16:s&#45;&gt;19:n</title>
<path fill="none" stroke="black" d="M3613.37,-121.71C3613.37,-121.71 3748.52,-84.05 3786.53,-73.45"/>
<polygon fill="black" stroke="black" points="3787.68,-76.77 3796.37,-70.71 3785.8,-70.02 3787.68,-76.77"/>
<text text-anchor="middle" x="3742.87" y="-92.51" font-family="Helvetica,sans-Serif" font-size="14.00">med</text>
</g>
<!-- 20 -->
<g id="node23" class="node">
<title>20</title>
<ellipse fill="#4485e5" stroke="black" cx="4161.37" cy="-35.36" rx="146.24" ry="35.21"/>
<text text-anchor="start" x="4114.37" y="-46.16" font-family="Helvetica,sans-Serif" font-weight="bold" font-size="14.00"> Class=acc </text>
<text text-anchor="start" x="4203.37" y="-46.16" font-family="Helvetica,sans-Serif" font-size="14.00"> </text>
<text text-anchor="start" x="4091.87" y="-32.16" font-family="Helvetica,sans-Serif" font-size="14.00"> error: 0.649, n=48 </text>
<text text-anchor="start" x="4065.87" y="-18.16" font-family="Helvetica,sans-Serif" font-size="14.00"> p: (0.62, 0.25, 0.12, 0.00) </text>
</g>
<!-- 16&#45;&gt;20 -->
<g id="edge22" class="edge">
<title>16:s&#45;&gt;20:n</title>
<path fill="none" stroke="black" d="M3613.37,-121.71C3613.37,-121.71 4077.12,-78.55 4151.39,-71.64"/>
<polygon fill="black" stroke="black" points="4151.74,-75.12 4161.37,-70.71 4151.09,-68.15 4151.74,-75.12"/>
<text text-anchor="middle" x="3965.37" y="-92.51" font-family="Helvetica,sans-Serif" font-size="14.00">low</text>
</g>
<!-- 22 -->
<g id="node24" class="node">
<title>22</title>
<ellipse fill="#4485e5" stroke="black" cx="4526.37" cy="-35.36" rx="146.24" ry="35.21"/>
<text text-anchor="start" x="4469.37" y="-46.16" font-family="Helvetica,sans-Serif" font-weight="bold" font-size="14.00"> Class=unacc </text>
<text text-anchor="start" x="4578.37" y="-46.16" font-family="Helvetica,sans-Serif" font-size="14.00"> </text>
<text text-anchor="start" x="4456.87" y="-32.16" font-family="Helvetica,sans-Serif" font-size="14.00"> error: 0.435, n=48 </text>
<text text-anchor="start" x="4430.87" y="-18.16" font-family="Helvetica,sans-Serif" font-size="14.00"> p: (0.29, 0.00, 0.71, 0.00) </text>
</g>
<!-- 21&#45;&gt;22 -->
<g id="edge23" class="edge">
<title>21:s&#45;&gt;22:n</title>
<path fill="none" stroke="black" d="M4891.37,-121.71C4891.37,-121.71 4595.46,-80.36 4536.51,-72.13"/>
<polygon fill="black" stroke="black" points="4536.76,-68.63 4526.37,-70.71 4535.79,-75.56 4536.76,-68.63"/>
<text text-anchor="middle" x="4772.37" y="-92.51" font-family="Helvetica,sans-Serif" font-size="14.00">vhigh</text>
</g>
<!-- 23 -->
<g id="node25" class="node">
<title>23</title>
<ellipse fill="#4485e5" stroke="black" cx="4891.37" cy="-35.36" rx="146.24" ry="35.21"/>
<text text-anchor="start" x="4834.37" y="-46.16" font-family="Helvetica,sans-Serif" font-weight="bold" font-size="14.00"> Class=unacc </text>
<text text-anchor="start" x="4943.37" y="-46.16" font-family="Helvetica,sans-Serif" font-size="14.00"> </text>
<text text-anchor="start" x="4821.87" y="-32.16" font-family="Helvetica,sans-Serif" font-size="14.00"> error: 0.494, n=48 </text>
<text text-anchor="start" x="4795.87" y="-18.16" font-family="Helvetica,sans-Serif" font-size="14.00"> p: (0.44, 0.00, 0.56, 0.00) </text>
</g>
<!-- 21&#45;&gt;23 -->
<g id="edge24" class="edge">
<title>21:s&#45;&gt;23:n</title>
<path fill="none" stroke="black" d="M4891.37,-121.71C4891.37,-121.71 4891.37,-95.93 4891.37,-81.03"/>
<polygon fill="black" stroke="black" points="4894.87,-80.71 4891.37,-70.71 4887.87,-80.71 4894.87,-80.71"/>
<text text-anchor="middle" x="4906.87" y="-92.51" font-family="Helvetica,sans-Serif" font-size="14.00">high</text>
</g>
<!-- 24 -->
<g id="node26" class="node">
<title>24</title>
<ellipse fill="#4485e5" stroke="black" cx="5256.37" cy="-35.36" rx="146.24" ry="35.21"/>
<text text-anchor="start" x="5209.37" y="-46.16" font-family="Helvetica,sans-Serif" font-weight="bold" font-size="14.00"> Class=acc </text>
<text text-anchor="start" x="5298.37" y="-46.16" font-family="Helvetica,sans-Serif" font-size="14.00"> </text>
<text text-anchor="start" x="5186.87" y="-32.16" font-family="Helvetica,sans-Serif" font-size="14.00"> error: 0.672, n=48 </text>
<text text-anchor="start" x="5160.87" y="-18.16" font-family="Helvetica,sans-Serif" font-size="14.00"> p: (0.60, 0.15, 0.25, 0.00) </text>
</g>
<!-- 21&#45;&gt;24 -->
<g id="edge25" class="edge">
<title>21:s&#45;&gt;24:n</title>
<path fill="none" stroke="black" d="M4891.37,-121.71C4891.37,-121.71 5187.28,-80.36 5246.23,-72.13"/>
<polygon fill="black" stroke="black" points="5246.95,-75.56 5256.37,-70.71 5245.98,-68.63 5246.95,-75.56"/>
<text text-anchor="middle" x="5132.87" y="-92.51" font-family="Helvetica,sans-Serif" font-size="14.00">med</text>
</g>
<!-- 25 -->
<g id="node27" class="node">
<title>25</title>
<ellipse fill="#4485e5" stroke="black" cx="5621.37" cy="-35.36" rx="146.24" ry="35.21"/>
<text text-anchor="start" x="5574.37" y="-46.16" font-family="Helvetica,sans-Serif" font-weight="bold" font-size="14.00"> Class=acc </text>
<text text-anchor="start" x="5663.37" y="-46.16" font-family="Helvetica,sans-Serif" font-size="14.00"> </text>
<text text-anchor="start" x="5551.87" y="-32.16" font-family="Helvetica,sans-Serif" font-size="14.00"> error: 0.714, n=48 </text>
<text text-anchor="start" x="5525.87" y="-18.16" font-family="Helvetica,sans-Serif" font-size="14.00"> p: (0.54, 0.29, 0.17, 0.00) </text>
</g>
<!-- 21&#45;&gt;25 -->
<g id="edge26" class="edge">
<title>21:s&#45;&gt;25:n</title>
<path fill="none" stroke="black" d="M4891.37,-121.71C4891.37,-121.71 5523.65,-77.54 5611.33,-71.41"/>
<polygon fill="black" stroke="black" points="5611.64,-74.9 5621.37,-70.71 5611.15,-67.92 5611.64,-74.9"/>
<text text-anchor="middle" x="5378.37" y="-92.51" font-family="Helvetica,sans-Serif" font-size="14.00">low</text>
</g>
</g>
</svg>
