<?xml version="1.0" encoding="UTF-8" standalone="no"?>
<!DOCTYPE svg PUBLIC "-//W3C//DTD SVG 1.1//EN"
 "http://www.w3.org/Graphics/SVG/1.1/DTD/svg11.dtd">
<!-- Generated by graphviz version 2.43.0 (0)
 -->
<!-- Title: Tree Pages: 1 -->
<svg width="3245pt" height="696pt"
 viewBox="0.00 0.00 3245.20 695.71" xmlns="http://www.w3.org/2000/svg" xmlns:xlink="http://www.w3.org/1999/xlink">
<g id="graph0" class="graph" transform="scale(1 1) rotate(0) translate(18 677.71)">
<title>Tree</title>
<polygon fill="white" stroke="transparent" points="-18,18 -18,-677.71 3227.2,-677.71 3227.2,18 -18,18"/>
<!-- 0 -->
<g id="node1" class="node">
<title>0</title>
<polygon fill="white" stroke="transparent" points="1212.6,-659.71 1158.6,-659.71 1158.6,-623.71 1212.6,-623.71 1212.6,-659.71"/>
<text text-anchor="middle" x="1185.6" y="-638.01" font-family="Helvetica,sans-Serif" font-size="14.00">0</text>
</g>
<!-- 1 -->
<g id="node2" class="node">
<title>1</title>
<polygon fill="#cc3d3d" stroke="black" points="1272.1,-586.71 1099.1,-586.71 1099.1,-508.71 1272.1,-508.71 1272.1,-586.71"/>
<text text-anchor="start" x="1132.1" y="-572.51" font-family="Helvetica,sans-Serif" font-weight="bold" font-size="14.00"> Class=good </text>
<text text-anchor="start" x="1234.1" y="-572.51" font-family="Helvetica,sans-Serif" font-size="14.00"> </text>
<text text-anchor="start" x="1107.1" y="-558.51" font-family="Helvetica,sans-Serif" font-size="14.00"> error: 0.881, n=1000 </text>
<text text-anchor="start" x="1130.6" y="-544.51" font-family="Helvetica,sans-Serif" font-size="14.00"> p: (0.30, 0.70) </text>
<text text-anchor="start" x="1146.1" y="-530.51" font-family="Helvetica,sans-Serif" font-size="14.00">&#45;&#45;&#45;&#45;&#45;&#45;&#45;&#45;&#45;&#45;&#45;&#45;&#45;&#45;&#45;</text>
<text text-anchor="start" x="1122.6" y="-516.51" font-family="Helvetica,sans-Serif" font-weight="bold" font-size="14.00">checking_status</text>
</g>
<!-- 0&#45;&gt;1 -->
<!-- 2 -->
<g id="node3" class="node">
<title>2</title>
<ellipse fill="#e5d544" stroke="black" cx="695.6" cy="-418.71" rx="109.7" ry="35.21"/>
<text text-anchor="start" x="642.1" y="-429.51" font-family="Helvetica,sans-Serif" font-weight="bold" font-size="14.00"> Class=good </text>
<text text-anchor="start" x="744.1" y="-429.51" font-family="Helvetica,sans-Serif" font-size="14.00"> </text>
<text text-anchor="start" x="626.1" y="-415.51" font-family="Helvetica,sans-Serif" font-size="14.00"> error: 0.764, n=63 </text>
<text text-anchor="start" x="640.6" y="-401.51" font-family="Helvetica,sans-Serif" font-size="14.00"> p: (0.22, 0.78) </text>
</g>
<!-- 1&#45;&gt;2 -->
<g id="edge2" class="edge">
<title>1:s&#45;&gt;2:n</title>
<path fill="none" stroke="black" d="M1185.6,-508.71C1185.6,-508.71 776.2,-464.43 705.84,-456.82"/>
<polygon fill="black" stroke="black" points="705.92,-453.31 695.6,-455.71 705.17,-460.27 705.92,-453.31"/>
<text text-anchor="middle" x="1002.6" y="-479.51" font-family="Helvetica,sans-Serif" font-size="14.00">&gt;=200</text>
</g>
<!-- 3 -->
<g id="node4" class="node">
<title>3</title>
<polygon fill="#e5d544" stroke="black" points="1041.6,-457.71 877.6,-457.71 877.6,-379.71 1041.6,-379.71 1041.6,-457.71"/>
<text text-anchor="start" x="906.1" y="-443.51" font-family="Helvetica,sans-Serif" font-weight="bold" font-size="14.00"> Class=good </text>
<text text-anchor="start" x="1008.1" y="-443.51" font-family="Helvetica,sans-Serif" font-size="14.00"> </text>
<text text-anchor="start" x="885.6" y="-429.51" font-family="Helvetica,sans-Serif" font-size="14.00"> error: 0.520, n=394 </text>
<text text-anchor="start" x="904.6" y="-415.51" font-family="Helvetica,sans-Serif" font-size="14.00"> p: (0.12, 0.88) </text>
<text text-anchor="start" x="941.1" y="-401.51" font-family="Helvetica,sans-Serif" font-size="14.00">&#45;&#45;&#45;&#45;&#45;&#45;&#45;</text>
<text text-anchor="start" x="927.6" y="-387.51" font-family="Helvetica,sans-Serif" font-weight="bold" font-size="14.00">purpose</text>
</g>
<!-- 1&#45;&gt;3 -->
<g id="edge3" class="edge">
<title>1:s&#45;&gt;3:n</title>
<path fill="none" stroke="black" d="M1185.6,-508.71C1185.6,-508.71 1013.34,-469.84 969.6,-459.97"/>
<polygon fill="black" stroke="black" points="970.13,-456.5 959.6,-457.71 968.59,-463.33 970.13,-456.5"/>
<text text-anchor="middle" x="1142.1" y="-479.51" font-family="Helvetica,sans-Serif" font-size="14.00">no checking</text>
</g>
<!-- 11 -->
<g id="node5" class="node">
<title>11</title>
<polygon fill="#e5d544" stroke="black" points="1788.6,-457.71 1612.6,-457.71 1612.6,-379.71 1788.6,-379.71 1788.6,-457.71"/>
<text text-anchor="start" x="1647.1" y="-443.51" font-family="Helvetica,sans-Serif" font-weight="bold" font-size="14.00"> Class=good </text>
<text text-anchor="start" x="1749.1" y="-443.51" font-family="Helvetica,sans-Serif" font-size="14.00"> </text>
<text text-anchor="start" x="1626.6" y="-429.51" font-family="Helvetica,sans-Serif" font-size="14.00"> error: 0.965, n=269 </text>
<text text-anchor="start" x="1645.6" y="-415.51" font-family="Helvetica,sans-Serif" font-size="14.00"> p: (0.39, 0.61) </text>
<text text-anchor="start" x="1653.1" y="-401.51" font-family="Helvetica,sans-Serif" font-size="14.00">&#45;&#45;&#45;&#45;&#45;&#45;&#45;&#45;&#45;&#45;&#45;&#45;&#45;&#45;&#45;&#45;&#45;&#45;</text>
<text text-anchor="start" x="1620.6" y="-387.51" font-family="Helvetica,sans-Serif" font-weight="bold" font-size="14.00">property_magnitude</text>
</g>
<!-- 1&#45;&gt;11 -->
<g id="edge4" class="edge">
<title>1:s&#45;&gt;11:n</title>
<path fill="none" stroke="black" d="M1185.6,-508.71C1185.6,-508.71 1617.73,-465.92 1690.31,-458.73"/>
<polygon fill="black" stroke="black" points="1691,-462.18 1700.6,-457.71 1690.31,-455.21 1691,-462.18"/>
<text text-anchor="middle" x="1545.6" y="-479.51" font-family="Helvetica,sans-Serif" font-size="14.00">0&lt;=X&lt;200</text>
</g>
<!-- 19 -->
<g id="node6" class="node">
<title>19</title>
<polygon fill="#e5d544" stroke="black" points="2623.6,-457.71 2459.6,-457.71 2459.6,-379.71 2623.6,-379.71 2623.6,-457.71"/>
<text text-anchor="start" x="2488.1" y="-443.51" font-family="Helvetica,sans-Serif" font-weight="bold" font-size="14.00"> Class=good </text>
<text text-anchor="start" x="2590.1" y="-443.51" font-family="Helvetica,sans-Serif" font-size="14.00"> </text>
<text text-anchor="start" x="2467.6" y="-429.51" font-family="Helvetica,sans-Serif" font-size="14.00"> error: 1.000, n=274 </text>
<text text-anchor="start" x="2486.6" y="-415.51" font-family="Helvetica,sans-Serif" font-size="14.00"> p: (0.49, 0.51) </text>
<text text-anchor="start" x="2504.6" y="-401.51" font-family="Helvetica,sans-Serif" font-size="14.00">&#45;&#45;&#45;&#45;&#45;&#45;&#45;&#45;&#45;&#45;&#45;&#45;&#45;&#45;</text>
<text text-anchor="start" x="2487.6" y="-387.51" font-family="Helvetica,sans-Serif" font-weight="bold" font-size="14.00">credit_history</text>
</g>
<!-- 1&#45;&gt;19 -->
<g id="edge5" class="edge">
<title>1:s&#45;&gt;19:n</title>
<path fill="none" stroke="black" d="M1185.6,-508.71C1185.6,-508.71 2407.38,-462.76 2531.47,-458.09"/>
<polygon fill="black" stroke="black" points="2531.74,-461.58 2541.6,-457.71 2531.48,-454.59 2531.74,-461.58"/>
<text text-anchor="middle" x="2036.6" y="-479.51" font-family="Helvetica,sans-Serif" font-size="14.00">&lt;0</text>
</g>
<!-- 4 -->
<g id="node7" class="node">
<title>4</title>
<ellipse fill="#59cc3d" stroke="black" cx="109.6" cy="-289.71" rx="109.7" ry="35.21"/>
<text text-anchor="start" x="56.1" y="-300.51" font-family="Helvetica,sans-Serif" font-weight="bold" font-size="14.00"> Class=good </text>
<text text-anchor="start" x="158.1" y="-300.51" font-family="Helvetica,sans-Serif" font-size="14.00"> </text>
<text text-anchor="start" x="40.1" y="-286.51" font-family="Helvetica,sans-Serif" font-size="14.00"> error: 0.616, n=59 </text>
<text text-anchor="start" x="54.6" y="-272.51" font-family="Helvetica,sans-Serif" font-size="14.00"> p: (0.15, 0.85) </text>
</g>
<!-- 3&#45;&gt;4 -->
<g id="edge6" class="edge">
<title>3:s&#45;&gt;4:n</title>
<path fill="none" stroke="black" d="M959.6,-379.71C959.6,-379.71 215.64,-333.32 119.74,-327.34"/>
<polygon fill="black" stroke="black" points="119.8,-323.84 109.6,-326.71 119.36,-330.83 119.8,-323.84"/>
<text text-anchor="middle" x="503.6" y="-350.51" font-family="Helvetica,sans-Serif" font-size="14.00">furniture/equipment</text>
</g>
<!-- 5 -->
<g id="node8" class="node">
<title>5</title>
<ellipse fill="#59cc3d" stroke="black" cx="407.6" cy="-289.71" rx="115.93" ry="35.21"/>
<text text-anchor="start" x="354.1" y="-300.51" font-family="Helvetica,sans-Serif" font-weight="bold" font-size="14.00"> Class=good </text>
<text text-anchor="start" x="456.1" y="-300.51" font-family="Helvetica,sans-Serif" font-size="14.00"> </text>
<text text-anchor="start" x="333.6" y="-286.51" font-family="Helvetica,sans-Serif" font-size="14.00"> error: 0.308, n=127 </text>
<text text-anchor="start" x="352.6" y="-272.51" font-family="Helvetica,sans-Serif" font-size="14.00"> p: (0.06, 0.94) </text>
</g>
<!-- 3&#45;&gt;5 -->
<g id="edge7" class="edge">
<title>3:s&#45;&gt;5:n</title>
<path fill="none" stroke="black" d="M959.6,-379.71C959.6,-379.71 492.47,-334.86 417.65,-327.68"/>
<polygon fill="black" stroke="black" points="417.89,-324.18 407.6,-326.71 417.22,-331.15 417.89,-324.18"/>
<text text-anchor="middle" x="746.6" y="-350.51" font-family="Helvetica,sans-Serif" font-size="14.00">radio/tv</text>
</g>
<!-- 6 -->
<g id="node9" class="node">
<title>6</title>
<polygon fill="#59cc3d" stroke="black" points="778.1,-328.71 595.1,-328.71 595.1,-250.71 778.1,-250.71 778.1,-328.71"/>
<text text-anchor="start" x="633.1" y="-314.51" font-family="Helvetica,sans-Serif" font-weight="bold" font-size="14.00"> Class=good </text>
<text text-anchor="start" x="735.1" y="-314.51" font-family="Helvetica,sans-Serif" font-size="14.00"> </text>
<text text-anchor="start" x="617.1" y="-300.51" font-family="Helvetica,sans-Serif" font-size="14.00"> error: 0.610, n=80 </text>
<text text-anchor="start" x="631.6" y="-286.51" font-family="Helvetica,sans-Serif" font-size="14.00"> p: (0.15, 0.85) </text>
<text text-anchor="start" x="636.6" y="-272.51" font-family="Helvetica,sans-Serif" font-size="14.00">&#45;&#45;&#45;&#45;&#45;&#45;&#45;&#45;&#45;&#45;&#45;&#45;&#45;&#45;&#45;&#45;&#45;&#45;&#45;</text>
<text text-anchor="start" x="603.1" y="-258.51" font-family="Helvetica,sans-Serif" font-weight="bold" font-size="14.00">other_payment_plans</text>
</g>
<!-- 3&#45;&gt;6 -->
<g id="edge8" class="edge">
<title>3:s&#45;&gt;6:n</title>
<path fill="none" stroke="black" d="M959.6,-379.71C959.6,-379.71 745.89,-339.79 696.64,-330.59"/>
<polygon fill="black" stroke="black" points="697.07,-327.11 686.6,-328.71 695.79,-333.99 697.07,-327.11"/>
<text text-anchor="middle" x="883.1" y="-350.51" font-family="Helvetica,sans-Serif" font-size="14.00">new car</text>
</g>
<!-- 8 -->
<g id="node10" class="node">
<title>8</title>
<ellipse fill="#59cc3d" stroke="black" cx="959.6" cy="-289.71" rx="109.7" ry="35.21"/>
<text text-anchor="start" x="906.1" y="-300.51" font-family="Helvetica,sans-Serif" font-weight="bold" font-size="14.00"> Class=good </text>
<text text-anchor="start" x="1008.1" y="-300.51" font-family="Helvetica,sans-Serif" font-size="14.00"> </text>
<text text-anchor="start" x="890.1" y="-286.51" font-family="Helvetica,sans-Serif" font-size="14.00"> error: 0.842, n=37 </text>
<text text-anchor="start" x="904.6" y="-272.51" font-family="Helvetica,sans-Serif" font-size="14.00"> p: (0.27, 0.73) </text>
</g>
<!-- 3&#45;&gt;8 -->
<g id="edge9" class="edge">
<title>3:s&#45;&gt;8:n</title>
<path fill="none" stroke="black" d="M959.6,-379.71C959.6,-379.71 959.6,-352.33 959.6,-336.93"/>
<polygon fill="black" stroke="black" points="963.1,-336.71 959.6,-326.71 956.1,-336.71 963.1,-336.71"/>
<text text-anchor="middle" x="990.6" y="-350.51" font-family="Helvetica,sans-Serif" font-size="14.00">business</text>
</g>
<!-- 9 -->
<g id="node11" class="node">
<title>9</title>
<polygon fill="#59cc3d" stroke="black" points="1324.1,-328.71 1141.1,-328.71 1141.1,-250.71 1324.1,-250.71 1324.1,-328.71"/>
<text text-anchor="start" x="1179.1" y="-314.51" font-family="Helvetica,sans-Serif" font-weight="bold" font-size="14.00"> Class=good </text>
<text text-anchor="start" x="1281.1" y="-314.51" font-family="Helvetica,sans-Serif" font-size="14.00"> </text>
<text text-anchor="start" x="1163.1" y="-300.51" font-family="Helvetica,sans-Serif" font-size="14.00"> error: 0.229, n=54 </text>
<text text-anchor="start" x="1177.6" y="-286.51" font-family="Helvetica,sans-Serif" font-size="14.00"> p: (0.04, 0.96) </text>
<text text-anchor="start" x="1182.6" y="-272.51" font-family="Helvetica,sans-Serif" font-size="14.00">&#45;&#45;&#45;&#45;&#45;&#45;&#45;&#45;&#45;&#45;&#45;&#45;&#45;&#45;&#45;&#45;&#45;&#45;&#45;</text>
<text text-anchor="start" x="1149.1" y="-258.51" font-family="Helvetica,sans-Serif" font-weight="bold" font-size="14.00">other_payment_plans</text>
</g>
<!-- 3&#45;&gt;9 -->
<g id="edge10" class="edge">
<title>3:s&#45;&gt;9:n</title>
<path fill="none" stroke="black" d="M959.6,-379.71C959.6,-379.71 1173.31,-339.79 1222.56,-330.59"/>
<polygon fill="black" stroke="black" points="1223.41,-333.99 1232.6,-328.71 1222.13,-327.11 1223.41,-333.99"/>
<text text-anchor="middle" x="1159.1" y="-350.51" font-family="Helvetica,sans-Serif" font-size="14.00">used car</text>
</g>
<!-- 12 -->
<g id="node14" class="node">
<title>12</title>
<polygon fill="#59cc3d" stroke="black" points="1551.1,-328.71 1396.1,-328.71 1396.1,-250.71 1551.1,-250.71 1551.1,-328.71"/>
<text text-anchor="start" x="1420.1" y="-314.51" font-family="Helvetica,sans-Serif" font-weight="bold" font-size="14.00"> Class=good </text>
<text text-anchor="start" x="1522.1" y="-314.51" font-family="Helvetica,sans-Serif" font-size="14.00"> </text>
<text text-anchor="start" x="1404.1" y="-300.51" font-family="Helvetica,sans-Serif" font-size="14.00"> error: 0.748, n=75 </text>
<text text-anchor="start" x="1418.6" y="-286.51" font-family="Helvetica,sans-Serif" font-size="14.00"> p: (0.21, 0.79) </text>
<text text-anchor="start" x="1452.1" y="-272.51" font-family="Helvetica,sans-Serif" font-size="14.00">&#45;&#45;&#45;&#45;&#45;&#45;&#45;&#45;</text>
<text text-anchor="start" x="1440.1" y="-258.51" font-family="Helvetica,sans-Serif" font-weight="bold" font-size="14.00">duration</text>
</g>
<!-- 11&#45;&gt;12 -->
<g id="edge13" class="edge">
<title>11:s&#45;&gt;12:n</title>
<path fill="none" stroke="black" d="M1700.6,-379.71C1700.6,-379.71 1527.58,-340.84 1483.65,-330.97"/>
<polygon fill="black" stroke="black" points="1484.13,-327.49 1473.6,-328.71 1482.59,-334.32 1484.13,-327.49"/>
<text text-anchor="middle" x="1646.1" y="-350.51" font-family="Helvetica,sans-Serif" font-size="14.00">real estate</text>
</g>
<!-- 15 -->
<g id="node15" class="node">
<title>15</title>
<polygon fill="#59cc3d" stroke="black" points="1778.1,-328.71 1623.1,-328.71 1623.1,-250.71 1778.1,-250.71 1778.1,-328.71"/>
<text text-anchor="start" x="1647.1" y="-314.51" font-family="Helvetica,sans-Serif" font-weight="bold" font-size="14.00"> Class=good </text>
<text text-anchor="start" x="1749.1" y="-314.51" font-family="Helvetica,sans-Serif" font-size="14.00"> </text>
<text text-anchor="start" x="1631.1" y="-300.51" font-family="Helvetica,sans-Serif" font-size="14.00"> error: 0.972, n=92 </text>
<text text-anchor="start" x="1645.6" y="-286.51" font-family="Helvetica,sans-Serif" font-size="14.00"> p: (0.40, 0.60) </text>
<text text-anchor="start" x="1663.6" y="-272.51" font-family="Helvetica,sans-Serif" font-size="14.00">&#45;&#45;&#45;&#45;&#45;&#45;&#45;&#45;&#45;&#45;&#45;&#45;&#45;&#45;</text>
<text text-anchor="start" x="1642.6" y="-258.51" font-family="Helvetica,sans-Serif" font-weight="bold" font-size="14.00">savings_status</text>
</g>
<!-- 11&#45;&gt;15 -->
<g id="edge14" class="edge">
<title>11:s&#45;&gt;15:n</title>
<path fill="none" stroke="black" d="M1700.6,-379.71C1700.6,-379.71 1700.6,-353.93 1700.6,-339.03"/>
<polygon fill="black" stroke="black" points="1704.1,-338.71 1700.6,-328.71 1697.1,-338.71 1704.1,-338.71"/>
<text text-anchor="middle" x="1711.6" y="-350.51" font-family="Helvetica,sans-Serif" font-size="14.00">car</text>
</g>
<!-- 17 -->
<g id="node16" class="node">
<title>17</title>
<ellipse fill="#59cc3d" stroke="black" cx="1959.6" cy="-289.71" rx="109.7" ry="35.21"/>
<text text-anchor="start" x="1911.1" y="-300.51" font-family="Helvetica,sans-Serif" font-weight="bold" font-size="14.00"> Class=bad </text>
<text text-anchor="start" x="2003.1" y="-300.51" font-family="Helvetica,sans-Serif" font-size="14.00"> </text>
<text text-anchor="start" x="1890.1" y="-286.51" font-family="Helvetica,sans-Serif" font-size="14.00"> error: 0.973, n=47 </text>
<text text-anchor="start" x="1904.6" y="-272.51" font-family="Helvetica,sans-Serif" font-size="14.00"> p: (0.60, 0.40) </text>
</g>
<!-- 11&#45;&gt;17 -->
<g id="edge15" class="edge">
<title>11:s&#45;&gt;17:n</title>
<path fill="none" stroke="black" d="M1700.6,-379.71C1700.6,-379.71 1902.46,-338.4 1949.76,-328.72"/>
<polygon fill="black" stroke="black" points="1950.51,-332.14 1959.6,-326.71 1949.1,-325.29 1950.51,-332.14"/>
<text text-anchor="middle" x="1927.6" y="-350.51" font-family="Helvetica,sans-Serif" font-size="14.00">no known property</text>
</g>
<!-- 18 -->
<g id="node17" class="node">
<title>18</title>
<ellipse fill="#59cc3d" stroke="black" cx="2250.6" cy="-289.71" rx="109.7" ry="35.21"/>
<text text-anchor="start" x="2197.1" y="-300.51" font-family="Helvetica,sans-Serif" font-weight="bold" font-size="14.00"> Class=good </text>
<text text-anchor="start" x="2299.1" y="-300.51" font-family="Helvetica,sans-Serif" font-size="14.00"> </text>
<text text-anchor="start" x="2181.1" y="-286.51" font-family="Helvetica,sans-Serif" font-size="14.00"> error: 0.988, n=55 </text>
<text text-anchor="start" x="2195.6" y="-272.51" font-family="Helvetica,sans-Serif" font-size="14.00"> p: (0.44, 0.56) </text>
</g>
<!-- 11&#45;&gt;18 -->
<g id="edge16" class="edge">
<title>11:s&#45;&gt;18:n</title>
<path fill="none" stroke="black" d="M1700.6,-379.71C1700.6,-379.71 2166.04,-334.86 2240.59,-327.68"/>
<polygon fill="black" stroke="black" points="2240.98,-331.15 2250.6,-326.71 2240.31,-324.19 2240.98,-331.15"/>
<text text-anchor="middle" x="2157.6" y="-350.51" font-family="Helvetica,sans-Serif" font-size="14.00">life insurance</text>
</g>
<!-- 20 -->
<g id="node21" class="node">
<title>20</title>
<ellipse fill="#59cc3d" stroke="black" cx="2541.6" cy="-289.71" rx="109.7" ry="35.21"/>
<text text-anchor="start" x="2488.1" y="-300.51" font-family="Helvetica,sans-Serif" font-weight="bold" font-size="14.00"> Class=good </text>
<text text-anchor="start" x="2590.1" y="-300.51" font-family="Helvetica,sans-Serif" font-size="14.00"> </text>
<text text-anchor="start" x="2472.1" y="-286.51" font-family="Helvetica,sans-Serif" font-size="14.00"> error: 0.840, n=67 </text>
<text text-anchor="start" x="2486.6" y="-272.51" font-family="Helvetica,sans-Serif" font-size="14.00"> p: (0.27, 0.73) </text>
</g>
<!-- 19&#45;&gt;20 -->
<g id="edge20" class="edge">
<title>19:s&#45;&gt;20:n</title>
<path fill="none" stroke="black" d="M2541.6,-379.71C2541.6,-379.71 2541.6,-352.33 2541.6,-336.93"/>
<polygon fill="black" stroke="black" points="2545.1,-336.71 2541.6,-326.71 2538.1,-336.71 2545.1,-336.71"/>
<text text-anchor="middle" x="2623.6" y="-350.51" font-family="Helvetica,sans-Serif" font-size="14.00">critical/other existing credit</text>
</g>
<!-- 21 -->
<g id="node22" class="node">
<title>21</title>
<polygon fill="#59cc3d" stroke="black" points="2890.6,-328.71 2726.6,-328.71 2726.6,-250.71 2890.6,-250.71 2890.6,-328.71"/>
<text text-anchor="start" x="2760.1" y="-314.51" font-family="Helvetica,sans-Serif" font-weight="bold" font-size="14.00"> Class=bad </text>
<text text-anchor="start" x="2852.1" y="-314.51" font-family="Helvetica,sans-Serif" font-size="14.00"> </text>
<text text-anchor="start" x="2734.6" y="-300.51" font-family="Helvetica,sans-Serif" font-size="14.00"> error: 1.000, n=160 </text>
<text text-anchor="start" x="2753.6" y="-286.51" font-family="Helvetica,sans-Serif" font-size="14.00"> p: (0.51, 0.49) </text>
<text text-anchor="start" x="2790.1" y="-272.51" font-family="Helvetica,sans-Serif" font-size="14.00">&#45;&#45;&#45;&#45;&#45;&#45;&#45;</text>
<text text-anchor="start" x="2776.6" y="-258.51" font-family="Helvetica,sans-Serif" font-weight="bold" font-size="14.00">purpose</text>
</g>
<!-- 19&#45;&gt;21 -->
<g id="edge21" class="edge">
<title>19:s&#45;&gt;21:n</title>
<path fill="none" stroke="black" d="M2541.6,-379.71C2541.6,-379.71 2749.69,-339.96 2798.46,-330.65"/>
<polygon fill="black" stroke="black" points="2799.44,-334.02 2808.6,-328.71 2798.12,-327.15 2799.44,-334.02"/>
<text text-anchor="middle" x="2811.6" y="-350.51" font-family="Helvetica,sans-Serif" font-size="14.00">existing paid</text>
</g>
<!-- 7 -->
<g id="node12" class="node">
<title>7</title>
<ellipse fill="#44e5b5" stroke="black" cx="686.6" cy="-160.71" rx="109.7" ry="35.21"/>
<text text-anchor="start" x="633.1" y="-171.51" font-family="Helvetica,sans-Serif" font-weight="bold" font-size="14.00"> Class=good </text>
<text text-anchor="start" x="735.1" y="-171.51" font-family="Helvetica,sans-Serif" font-size="14.00"> </text>
<text text-anchor="start" x="617.1" y="-157.51" font-family="Helvetica,sans-Serif" font-size="14.00"> error: 0.426, n=69 </text>
<text text-anchor="start" x="631.6" y="-143.51" font-family="Helvetica,sans-Serif" font-size="14.00"> p: (0.09, 0.91) </text>
</g>
<!-- 6&#45;&gt;7 -->
<g id="edge11" class="edge">
<title>6:s&#45;&gt;7:n</title>
<path fill="none" stroke="black" d="M686.6,-250.71C686.6,-250.71 686.6,-223.33 686.6,-207.93"/>
<polygon fill="black" stroke="black" points="690.1,-207.71 686.6,-197.71 683.1,-207.71 690.1,-207.71"/>
<text text-anchor="middle" x="704.1" y="-221.51" font-family="Helvetica,sans-Serif" font-size="14.00">none</text>
</g>
<!-- 10 -->
<g id="node13" class="node">
<title>10</title>
<ellipse fill="#44e5b5" stroke="black" cx="1214.6" cy="-160.71" rx="109.7" ry="35.21"/>
<text text-anchor="start" x="1161.1" y="-171.51" font-family="Helvetica,sans-Serif" font-weight="bold" font-size="14.00"> Class=good </text>
<text text-anchor="start" x="1263.1" y="-171.51" font-family="Helvetica,sans-Serif" font-size="14.00"> </text>
<text text-anchor="start" x="1145.1" y="-157.51" font-family="Helvetica,sans-Serif" font-size="14.00"> error: 0.000, n=46 </text>
<text text-anchor="start" x="1159.6" y="-143.51" font-family="Helvetica,sans-Serif" font-size="14.00"> p: (0.00, 1.00) </text>
</g>
<!-- 9&#45;&gt;10 -->
<g id="edge12" class="edge">
<title>9:s&#45;&gt;10:n</title>
<path fill="none" stroke="black" d="M1232.6,-250.71C1232.6,-250.71 1223.1,-222.73 1217.9,-207.43"/>
<polygon fill="black" stroke="black" points="1221.13,-206.05 1214.6,-197.71 1214.5,-208.31 1221.13,-206.05"/>
<text text-anchor="middle" x="1244.1" y="-221.51" font-family="Helvetica,sans-Serif" font-size="14.00">none</text>
</g>
<!-- 13 -->
<g id="node18" class="node">
<title>13</title>
<polygon fill="#44e5b5" stroke="black" points="1551.1,-199.71 1396.1,-199.71 1396.1,-121.71 1551.1,-121.71 1551.1,-199.71"/>
<text text-anchor="start" x="1420.1" y="-185.51" font-family="Helvetica,sans-Serif" font-weight="bold" font-size="14.00"> Class=good </text>
<text text-anchor="start" x="1522.1" y="-185.51" font-family="Helvetica,sans-Serif" font-size="14.00"> </text>
<text text-anchor="start" x="1404.1" y="-171.51" font-family="Helvetica,sans-Serif" font-size="14.00"> error: 0.536, n=49 </text>
<text text-anchor="start" x="1418.6" y="-157.51" font-family="Helvetica,sans-Serif" font-size="14.00"> p: (0.12, 0.88) </text>
<text text-anchor="start" x="1434.1" y="-143.51" font-family="Helvetica,sans-Serif" font-size="14.00">&#45;&#45;&#45;&#45;&#45;&#45;&#45;&#45;&#45;&#45;&#45;&#45;&#45;&#45;&#45;</text>
<text text-anchor="start" x="1411.6" y="-129.51" font-family="Helvetica,sans-Serif" font-weight="bold" font-size="14.00">residence_since</text>
</g>
<!-- 12&#45;&gt;13 -->
<g id="edge17" class="edge">
<title>12:s&#45;&gt;13:n</title>
<path fill="none" stroke="black" d="M1473.6,-250.71C1473.6,-250.71 1473.6,-224.93 1473.6,-210.03"/>
<polygon fill="black" stroke="black" points="1477.1,-209.71 1473.6,-199.71 1470.1,-209.71 1477.1,-209.71"/>
<text text-anchor="middle" x="1497.1" y="-221.51" font-family="Helvetica,sans-Serif" font-size="14.00">&lt;= 15</text>
</g>
<!-- 16 -->
<g id="node20" class="node">
<title>16</title>
<ellipse fill="#44e5b5" stroke="black" cx="1732.6" cy="-160.71" rx="109.7" ry="35.21"/>
<text text-anchor="start" x="1684.1" y="-171.51" font-family="Helvetica,sans-Serif" font-weight="bold" font-size="14.00"> Class=bad </text>
<text text-anchor="start" x="1776.1" y="-171.51" font-family="Helvetica,sans-Serif" font-size="14.00"> </text>
<text text-anchor="start" x="1663.1" y="-157.51" font-family="Helvetica,sans-Serif" font-size="14.00"> error: 0.999, n=52 </text>
<text text-anchor="start" x="1677.6" y="-143.51" font-family="Helvetica,sans-Serif" font-size="14.00"> p: (0.52, 0.48) </text>
</g>
<!-- 15&#45;&gt;16 -->
<g id="edge19" class="edge">
<title>15:s&#45;&gt;16:n</title>
<path fill="none" stroke="black" d="M1700.6,-250.71C1700.6,-250.71 1718.23,-221.52 1727.32,-206.46"/>
<polygon fill="black" stroke="black" points="1730.43,-208.08 1732.6,-197.71 1724.44,-204.46 1730.43,-208.08"/>
<text text-anchor="middle" x="1740.6" y="-221.51" font-family="Helvetica,sans-Serif" font-size="14.00">&lt;100</text>
</g>
<!-- 14 -->
<g id="node19" class="node">
<title>14</title>
<ellipse fill="#3d76cc" stroke="black" cx="1473.6" cy="-35.36" rx="109.7" ry="35.21"/>
<text text-anchor="start" x="1420.1" y="-46.16" font-family="Helvetica,sans-Serif" font-weight="bold" font-size="14.00"> Class=good </text>
<text text-anchor="start" x="1522.1" y="-46.16" font-family="Helvetica,sans-Serif" font-size="14.00"> </text>
<text text-anchor="start" x="1404.1" y="-32.16" font-family="Helvetica,sans-Serif" font-size="14.00"> error: 0.303, n=37 </text>
<text text-anchor="start" x="1418.6" y="-18.16" font-family="Helvetica,sans-Serif" font-size="14.00"> p: (0.05, 0.95) </text>
</g>
<!-- 13&#45;&gt;14 -->
<g id="edge18" class="edge">
<title>13:s&#45;&gt;14:n</title>
<path fill="none" stroke="black" d="M1473.6,-121.71C1473.6,-121.71 1473.6,-95.93 1473.6,-81.03"/>
<polygon fill="black" stroke="black" points="1477.1,-80.71 1473.6,-70.71 1470.1,-80.71 1477.1,-80.71"/>
<text text-anchor="middle" x="1486.6" y="-92.51" font-family="Helvetica,sans-Serif" font-size="14.00">&gt; 1</text>
</g>
<!-- 22 -->
<g id="node23" class="node">
<title>22</title>
<ellipse fill="#44e5b5" stroke="black" cx="2517.6" cy="-160.71" rx="109.7" ry="35.21"/>
<text text-anchor="start" x="2464.1" y="-171.51" font-family="Helvetica,sans-Serif" font-weight="bold" font-size="14.00"> Class=good </text>
<text text-anchor="start" x="2566.1" y="-171.51" font-family="Helvetica,sans-Serif" font-size="14.00"> </text>
<text text-anchor="start" x="2448.1" y="-157.51" font-family="Helvetica,sans-Serif" font-size="14.00"> error: 0.956, n=45 </text>
<text text-anchor="start" x="2462.6" y="-143.51" font-family="Helvetica,sans-Serif" font-size="14.00"> p: (0.38, 0.62) </text>
</g>
<!-- 21&#45;&gt;22 -->
<g id="edge22" class="edge">
<title>21:s&#45;&gt;22:n</title>
<path fill="none" stroke="black" d="M2808.6,-250.71C2808.6,-250.71 2578.79,-208.85 2527.62,-199.54"/>
<polygon fill="black" stroke="black" points="2528.07,-196.06 2517.6,-197.71 2526.81,-202.95 2528.07,-196.06"/>
<text text-anchor="middle" x="2720.6" y="-221.51" font-family="Helvetica,sans-Serif" font-size="14.00">furniture/equipment</text>
</g>
<!-- 23 -->
<g id="node24" class="node">
<title>23</title>
<ellipse fill="#44e5b5" stroke="black" cx="2808.6" cy="-160.71" rx="109.7" ry="35.21"/>
<text text-anchor="start" x="2760.1" y="-171.51" font-family="Helvetica,sans-Serif" font-weight="bold" font-size="14.00"> Class=bad </text>
<text text-anchor="start" x="2852.1" y="-171.51" font-family="Helvetica,sans-Serif" font-size="14.00"> </text>
<text text-anchor="start" x="2739.1" y="-157.51" font-family="Helvetica,sans-Serif" font-size="14.00"> error: 0.940, n=42 </text>
<text text-anchor="start" x="2753.6" y="-143.51" font-family="Helvetica,sans-Serif" font-size="14.00"> p: (0.64, 0.36) </text>
</g>
<!-- 21&#45;&gt;23 -->
<g id="edge23" class="edge">
<title>21:s&#45;&gt;23:n</title>
<path fill="none" stroke="black" d="M2808.6,-250.71C2808.6,-250.71 2808.6,-223.33 2808.6,-207.93"/>
<polygon fill="black" stroke="black" points="2812.1,-207.71 2808.6,-197.71 2805.1,-207.71 2812.1,-207.71"/>
<text text-anchor="middle" x="2836.1" y="-221.51" font-family="Helvetica,sans-Serif" font-size="14.00">new car</text>
</g>
<!-- 24 -->
<g id="node25" class="node">
<title>24</title>
<ellipse fill="#44e5b5" stroke="black" cx="3099.6" cy="-160.71" rx="109.7" ry="35.21"/>
<text text-anchor="start" x="3051.1" y="-171.51" font-family="Helvetica,sans-Serif" font-weight="bold" font-size="14.00"> Class=bad </text>
<text text-anchor="start" x="3143.1" y="-171.51" font-family="Helvetica,sans-Serif" font-size="14.00"> </text>
<text text-anchor="start" x="3030.1" y="-157.51" font-family="Helvetica,sans-Serif" font-size="14.00"> error: 1.000, n=39 </text>
<text text-anchor="start" x="3044.6" y="-143.51" font-family="Helvetica,sans-Serif" font-size="14.00"> p: (0.51, 0.49) </text>
</g>
<!-- 21&#45;&gt;24 -->
<g id="edge24" class="edge">
<title>21:s&#45;&gt;24:n</title>
<path fill="none" stroke="black" d="M2808.6,-250.71C2808.6,-250.71 3038.42,-208.85 3089.58,-199.54"/>
<polygon fill="black" stroke="black" points="3090.39,-202.95 3099.6,-197.71 3089.14,-196.06 3090.39,-202.95"/>
<text text-anchor="middle" x="3015.6" y="-221.51" font-family="Helvetica,sans-Serif" font-size="14.00">radio/tv</text>
</g>
</g>
</svg>
