<?xml version="1.0" encoding="UTF-8" standalone="no"?>
<!DOCTYPE svg PUBLIC "-//W3C//DTD SVG 1.1//EN"
 "http://www.w3.org/Graphics/SVG/1.1/DTD/svg11.dtd">
<!-- Generated by graphviz version 2.43.0 (0)
 -->
<!-- Title: Tree Pages: 1 -->
<svg width="2132pt" height="438pt"
 viewBox="0.00 0.00 2132.20 437.71" xmlns="http://www.w3.org/2000/svg" xmlns:xlink="http://www.w3.org/1999/xlink">
<g id="graph0" class="graph" transform="scale(1 1) rotate(0) translate(18 419.71)">
<title>Tree</title>
<polygon fill="white" stroke="transparent" points="-18,18 -18,-419.71 2114.2,-419.71 2114.2,18 -18,18"/>
<!-- 0 -->
<g id="node1" class="node">
<title>0</title>
<polygon fill="white" stroke="transparent" points="1039.6,-401.71 985.6,-401.71 985.6,-365.71 1039.6,-365.71 1039.6,-401.71"/>
<text text-anchor="middle" x="1012.6" y="-380.01" font-family="Helvetica,sans-Serif" font-size="14.00">0</text>
</g>
<!-- 1 -->
<g id="node2" class="node">
<title>1</title>
<polygon fill="#cc3d3d" stroke="black" points="1094.6,-328.71 930.6,-328.71 930.6,-250.71 1094.6,-250.71 1094.6,-328.71"/>
<text text-anchor="start" x="949.6" y="-314.51" font-family="Helvetica,sans-Serif" font-weight="bold" font-size="14.00"> Class=noband </text>
<text text-anchor="start" x="1070.6" y="-314.51" font-family="Helvetica,sans-Serif" font-size="14.00"> </text>
<text text-anchor="start" x="938.6" y="-300.51" font-family="Helvetica,sans-Serif" font-size="14.00"> error: 0.982, n=540 </text>
<text text-anchor="start" x="957.6" y="-286.51" font-family="Helvetica,sans-Serif" font-size="14.00"> p: (0.42, 0.58) </text>
<text text-anchor="start" x="991.1" y="-272.51" font-family="Helvetica,sans-Serif" font-size="14.00">&#45;&#45;&#45;&#45;&#45;&#45;&#45;&#45;</text>
<text text-anchor="start" x="975.6" y="-258.51" font-family="Helvetica,sans-Serif" font-weight="bold" font-size="14.00">customer</text>
</g>
<!-- 0&#45;&gt;1 -->
<!-- 2 -->
<g id="node3" class="node">
<title>2</title>
<ellipse fill="#64e544" stroke="black" cx="109.6" cy="-160.71" rx="109.7" ry="35.21"/>
<text text-anchor="start" x="46.6" y="-171.51" font-family="Helvetica,sans-Serif" font-weight="bold" font-size="14.00"> Class=noband </text>
<text text-anchor="start" x="167.6" y="-171.51" font-family="Helvetica,sans-Serif" font-size="14.00"> </text>
<text text-anchor="start" x="40.1" y="-157.51" font-family="Helvetica,sans-Serif" font-size="14.00"> error: 0.931, n=26 </text>
<text text-anchor="start" x="54.6" y="-143.51" font-family="Helvetica,sans-Serif" font-size="14.00"> p: (0.35, 0.65) </text>
</g>
<!-- 1&#45;&gt;2 -->
<g id="edge2" class="edge">
<title>1:s&#45;&gt;2:n</title>
<path fill="none" stroke="black" d="M1012.6,-250.71C1012.6,-250.71 218.95,-204.13 119.74,-198.31"/>
<polygon fill="black" stroke="black" points="119.79,-194.8 109.6,-197.71 119.38,-201.79 119.79,-194.8"/>
<text text-anchor="middle" x="556.6" y="-221.51" font-family="Helvetica,sans-Serif" font-size="14.00">toysrus</text>
</g>
<!-- 3 -->
<g id="node4" class="node">
<title>3</title>
<ellipse fill="#64e544" stroke="black" cx="400.6" cy="-160.71" rx="109.7" ry="35.21"/>
<text text-anchor="start" x="337.6" y="-171.51" font-family="Helvetica,sans-Serif" font-weight="bold" font-size="14.00"> Class=noband </text>
<text text-anchor="start" x="458.6" y="-171.51" font-family="Helvetica,sans-Serif" font-size="14.00"> </text>
<text text-anchor="start" x="331.1" y="-157.51" font-family="Helvetica,sans-Serif" font-size="14.00"> error: 0.871, n=24 </text>
<text text-anchor="start" x="345.6" y="-143.51" font-family="Helvetica,sans-Serif" font-size="14.00"> p: (0.29, 0.71) </text>
</g>
<!-- 1&#45;&gt;3 -->
<g id="edge3" class="edge">
<title>1:s&#45;&gt;3:n</title>
<path fill="none" stroke="black" d="M1012.6,-250.71C1012.6,-250.71 490.29,-205.48 410.71,-198.59"/>
<polygon fill="black" stroke="black" points="410.87,-195.09 400.6,-197.71 410.26,-202.06 410.87,-195.09"/>
<text text-anchor="middle" x="757.6" y="-221.51" font-family="Helvetica,sans-Serif" font-size="14.00">ames</text>
</g>
<!-- 4 -->
<g id="node5" class="node">
<title>4</title>
<polygon fill="#64e544" stroke="black" points="737.1,-199.71 582.1,-199.71 582.1,-121.71 737.1,-121.71 737.1,-199.71"/>
<text text-anchor="start" x="596.6" y="-185.51" font-family="Helvetica,sans-Serif" font-weight="bold" font-size="14.00"> Class=noband </text>
<text text-anchor="start" x="717.6" y="-185.51" font-family="Helvetica,sans-Serif" font-size="14.00"> </text>
<text text-anchor="start" x="590.1" y="-171.51" font-family="Helvetica,sans-Serif" font-size="14.00"> error: 0.926, n=41 </text>
<text text-anchor="start" x="604.6" y="-157.51" font-family="Helvetica,sans-Serif" font-size="14.00"> p: (0.34, 0.66) </text>
<text text-anchor="start" x="630.6" y="-143.51" font-family="Helvetica,sans-Serif" font-size="14.00">&#45;&#45;&#45;&#45;&#45;&#45;&#45;&#45;&#45;&#45;&#45;</text>
<text text-anchor="start" x="614.6" y="-129.51" font-family="Helvetica,sans-Serif" font-weight="bold" font-size="14.00">solvent_pct</text>
</g>
<!-- 1&#45;&gt;4 -->
<g id="edge4" class="edge">
<title>1:s&#45;&gt;4:n</title>
<path fill="none" stroke="black" d="M1012.6,-250.71C1012.6,-250.71 727.66,-209.54 669.79,-201.18"/>
<polygon fill="black" stroke="black" points="670,-197.68 659.6,-199.71 669,-204.6 670,-197.68"/>
<text text-anchor="middle" x="899.6" y="-221.51" font-family="Helvetica,sans-Serif" font-size="14.00">target</text>
</g>
<!-- 6 -->
<g id="node6" class="node">
<title>6</title>
<ellipse fill="#64e544" stroke="black" cx="918.6" cy="-160.71" rx="109.7" ry="35.21"/>
<text text-anchor="start" x="855.6" y="-171.51" font-family="Helvetica,sans-Serif" font-weight="bold" font-size="14.00"> Class=noband </text>
<text text-anchor="start" x="976.6" y="-171.51" font-family="Helvetica,sans-Serif" font-size="14.00"> </text>
<text text-anchor="start" x="849.1" y="-157.51" font-family="Helvetica,sans-Serif" font-size="14.00"> error: 0.746, n=33 </text>
<text text-anchor="start" x="863.6" y="-143.51" font-family="Helvetica,sans-Serif" font-size="14.00"> p: (0.21, 0.79) </text>
</g>
<!-- 1&#45;&gt;6 -->
<g id="edge5" class="edge">
<title>1:s&#45;&gt;6:n</title>
<path fill="none" stroke="black" d="M1012.6,-250.71C1012.6,-250.71 951.14,-216.06 927.61,-202.79"/>
<polygon fill="black" stroke="black" points="929.03,-199.57 918.6,-197.71 925.59,-205.67 929.03,-199.57"/>
<text text-anchor="middle" x="996.6" y="-221.51" font-family="Helvetica,sans-Serif" font-size="14.00">wards</text>
</g>
<!-- 7 -->
<g id="node7" class="node">
<title>7</title>
<polygon fill="#64e544" stroke="black" points="1255.1,-199.71 1100.1,-199.71 1100.1,-121.71 1255.1,-121.71 1255.1,-199.71"/>
<text text-anchor="start" x="1114.6" y="-185.51" font-family="Helvetica,sans-Serif" font-weight="bold" font-size="14.00"> Class=noband </text>
<text text-anchor="start" x="1235.6" y="-185.51" font-family="Helvetica,sans-Serif" font-size="14.00"> </text>
<text text-anchor="start" x="1108.1" y="-171.51" font-family="Helvetica,sans-Serif" font-size="14.00"> error: 0.575, n=22 </text>
<text text-anchor="start" x="1122.6" y="-157.51" font-family="Helvetica,sans-Serif" font-size="14.00"> p: (0.14, 0.86) </text>
<text text-anchor="start" x="1135.1" y="-143.51" font-family="Helvetica,sans-Serif" font-size="14.00">&#45;&#45;&#45;&#45;&#45;&#45;&#45;&#45;&#45;&#45;&#45;&#45;&#45;&#45;&#45;&#45;</text>
<text text-anchor="start" x="1112.6" y="-129.51" font-family="Helvetica,sans-Serif" font-weight="bold" font-size="14.00">proof_on_ctd_ink</text>
</g>
<!-- 1&#45;&gt;7 -->
<g id="edge6" class="edge">
<title>1:s&#45;&gt;7:n</title>
<path fill="none" stroke="black" d="M1012.6,-250.71C1012.6,-250.71 1132.25,-213.73 1167.77,-202.75"/>
<polygon fill="black" stroke="black" points="1169.08,-206.01 1177.6,-199.71 1167.01,-199.32 1169.08,-206.01"/>
<text text-anchor="middle" x="1134.1" y="-221.51" font-family="Helvetica,sans-Serif" font-size="14.00">roses</text>
</g>
<!-- 9 -->
<g id="node8" class="node">
<title>9</title>
<ellipse fill="#64e544" stroke="black" cx="1436.6" cy="-160.71" rx="109.7" ry="35.21"/>
<text text-anchor="start" x="1383.1" y="-171.51" font-family="Helvetica,sans-Serif" font-weight="bold" font-size="14.00"> Class=band </text>
<text text-anchor="start" x="1485.1" y="-171.51" font-family="Helvetica,sans-Serif" font-size="14.00"> </text>
<text text-anchor="start" x="1367.1" y="-157.51" font-family="Helvetica,sans-Serif" font-size="14.00"> error: 0.987, n=67 </text>
<text text-anchor="start" x="1381.6" y="-143.51" font-family="Helvetica,sans-Serif" font-size="14.00"> p: (0.57, 0.43) </text>
</g>
<!-- 1&#45;&gt;9 -->
<g id="edge7" class="edge">
<title>1:s&#45;&gt;9:n</title>
<path fill="none" stroke="black" d="M1012.6,-250.71C1012.6,-250.71 1362.33,-206.99 1426.54,-198.97"/>
<polygon fill="black" stroke="black" points="1427.11,-202.42 1436.6,-197.71 1426.24,-195.48 1427.11,-202.42"/>
<text text-anchor="middle" x="1300.6" y="-221.51" font-family="Helvetica,sans-Serif" font-size="14.00">kmart</text>
</g>
<!-- 10 -->
<g id="node9" class="node">
<title>10</title>
<ellipse fill="#64e544" stroke="black" cx="1727.6" cy="-160.71" rx="109.7" ry="35.21"/>
<text text-anchor="start" x="1664.6" y="-171.51" font-family="Helvetica,sans-Serif" font-weight="bold" font-size="14.00"> Class=noband </text>
<text text-anchor="start" x="1785.6" y="-171.51" font-family="Helvetica,sans-Serif" font-size="14.00"> </text>
<text text-anchor="start" x="1658.1" y="-157.51" font-family="Helvetica,sans-Serif" font-size="14.00"> error: 0.954, n=64 </text>
<text text-anchor="start" x="1672.6" y="-143.51" font-family="Helvetica,sans-Serif" font-size="14.00"> p: (0.38, 0.62) </text>
</g>
<!-- 1&#45;&gt;10 -->
<g id="edge8" class="edge">
<title>1:s&#45;&gt;10:n</title>
<path fill="none" stroke="black" d="M1012.6,-250.71C1012.6,-250.71 1630.59,-204.9 1717.49,-198.46"/>
<polygon fill="black" stroke="black" points="1717.89,-201.94 1727.6,-197.71 1717.37,-194.96 1717.89,-201.94"/>
<text text-anchor="middle" x="1527.6" y="-221.51" font-family="Helvetica,sans-Serif" font-size="14.00">modmat</text>
</g>
<!-- 11 -->
<g id="node10" class="node">
<title>11</title>
<polygon fill="#64e544" stroke="black" points="2064.1,-199.71 1909.1,-199.71 1909.1,-121.71 2064.1,-121.71 2064.1,-199.71"/>
<text text-anchor="start" x="1933.1" y="-185.51" font-family="Helvetica,sans-Serif" font-weight="bold" font-size="14.00"> Class=band </text>
<text text-anchor="start" x="2035.1" y="-185.51" font-family="Helvetica,sans-Serif" font-size="14.00"> </text>
<text text-anchor="start" x="1917.1" y="-171.51" font-family="Helvetica,sans-Serif" font-size="14.00"> error: 0.992, n=38 </text>
<text text-anchor="start" x="1931.6" y="-157.51" font-family="Helvetica,sans-Serif" font-size="14.00"> p: (0.55, 0.45) </text>
<text text-anchor="start" x="1949.6" y="-143.51" font-family="Helvetica,sans-Serif" font-size="14.00">&#45;&#45;&#45;&#45;&#45;&#45;&#45;&#45;&#45;&#45;&#45;&#45;&#45;&#45;</text>
<text text-anchor="start" x="1926.6" y="-129.51" font-family="Helvetica,sans-Serif" font-weight="bold" font-size="14.00">blade_pressure</text>
</g>
<!-- 1&#45;&gt;11 -->
<g id="edge9" class="edge">
<title>1:s&#45;&gt;11:n</title>
<path fill="none" stroke="black" d="M1012.6,-250.71C1012.6,-250.71 1872.23,-205.7 1976.32,-200.25"/>
<polygon fill="black" stroke="black" points="1976.8,-203.73 1986.6,-199.71 1976.43,-196.74 1976.8,-203.73"/>
<text text-anchor="middle" x="1782.1" y="-221.51" font-family="Helvetica,sans-Serif" font-size="14.00">tvguide</text>
</g>
<!-- 5 -->
<g id="node11" class="node">
<title>5</title>
<ellipse fill="#3d76cc" stroke="black" cx="659.6" cy="-35.36" rx="109.7" ry="35.21"/>
<text text-anchor="start" x="596.6" y="-46.16" font-family="Helvetica,sans-Serif" font-weight="bold" font-size="14.00"> Class=noband </text>
<text text-anchor="start" x="717.6" y="-46.16" font-family="Helvetica,sans-Serif" font-size="14.00"> </text>
<text text-anchor="start" x="590.1" y="-32.16" font-family="Helvetica,sans-Serif" font-size="14.00"> error: 0.276, n=21 </text>
<text text-anchor="start" x="604.6" y="-18.16" font-family="Helvetica,sans-Serif" font-size="14.00"> p: (0.05, 0.95) </text>
</g>
<!-- 4&#45;&gt;5 -->
<g id="edge10" class="edge">
<title>4:s&#45;&gt;5:n</title>
<path fill="none" stroke="black" d="M659.6,-121.71C659.6,-121.71 659.6,-95.93 659.6,-81.03"/>
<polygon fill="black" stroke="black" points="663.1,-80.71 659.6,-70.71 656.1,-80.71 663.1,-80.71"/>
<text text-anchor="middle" x="684.1" y="-92.51" font-family="Helvetica,sans-Serif" font-size="14.00">&gt; 37.5</text>
</g>
<!-- 8 -->
<g id="node12" class="node">
<title>8</title>
<ellipse fill="#3d76cc" stroke="black" cx="1177.6" cy="-35.36" rx="109.7" ry="35.21"/>
<text text-anchor="start" x="1114.6" y="-46.16" font-family="Helvetica,sans-Serif" font-weight="bold" font-size="14.00"> Class=noband </text>
<text text-anchor="start" x="1235.6" y="-46.16" font-family="Helvetica,sans-Serif" font-size="14.00"> </text>
<text text-anchor="start" x="1108.1" y="-32.16" font-family="Helvetica,sans-Serif" font-size="14.00"> error: 0.000, n=19 </text>
<text text-anchor="start" x="1122.6" y="-18.16" font-family="Helvetica,sans-Serif" font-size="14.00"> p: (0.00, 1.00) </text>
</g>
<!-- 7&#45;&gt;8 -->
<g id="edge11" class="edge">
<title>7:s&#45;&gt;8:n</title>
<path fill="none" stroke="black" d="M1177.6,-121.71C1177.6,-121.71 1177.6,-95.93 1177.6,-81.03"/>
<polygon fill="black" stroke="black" points="1181.1,-80.71 1177.6,-70.71 1174.1,-80.71 1181.1,-80.71"/>
<text text-anchor="middle" x="1190.1" y="-92.51" font-family="Helvetica,sans-Serif" font-size="14.00">yes</text>
</g>
<!-- 12 -->
<g id="node13" class="node">
<title>12</title>
<ellipse fill="#3d76cc" stroke="black" cx="1986.6" cy="-35.36" rx="109.7" ry="35.21"/>
<text text-anchor="start" x="1923.6" y="-46.16" font-family="Helvetica,sans-Serif" font-weight="bold" font-size="14.00"> Class=noband </text>
<text text-anchor="start" x="2044.6" y="-46.16" font-family="Helvetica,sans-Serif" font-size="14.00"> </text>
<text text-anchor="start" x="1917.1" y="-32.16" font-family="Helvetica,sans-Serif" font-size="14.00"> error: 0.967, n=28 </text>
<text text-anchor="start" x="1931.6" y="-18.16" font-family="Helvetica,sans-Serif" font-size="14.00"> p: (0.39, 0.61) </text>
</g>
<!-- 11&#45;&gt;12 -->
<g id="edge12" class="edge">
<title>11:s&#45;&gt;12:n</title>
<path fill="none" stroke="black" d="M1986.6,-121.71C1986.6,-121.71 1986.6,-95.93 1986.6,-81.03"/>
<polygon fill="black" stroke="black" points="1990.1,-80.71 1986.6,-70.71 1983.1,-80.71 1990.1,-80.71"/>
<text text-anchor="middle" x="2010.1" y="-92.51" font-family="Helvetica,sans-Serif" font-size="14.00">&lt;= 25</text>
</g>
</g>
</svg>
