<?xml version="1.0" encoding="UTF-8" standalone="no"?>
<!DOCTYPE svg PUBLIC "-//W3C//DTD SVG 1.1//EN"
 "http://www.w3.org/Graphics/SVG/1.1/DTD/svg11.dtd">
<!-- Generated by graphviz version 2.43.0 (0)
 -->
<!-- Title: Tree Pages: 1 -->
<svg width="1988pt" height="1212pt"
 viewBox="0.00 0.00 1988.17 1211.71" xmlns="http://www.w3.org/2000/svg" xmlns:xlink="http://www.w3.org/1999/xlink">
<g id="graph0" class="graph" transform="scale(1 1) rotate(0) translate(18 1193.71)">
<title>Tree</title>
<polygon fill="white" stroke="transparent" points="-18,18 -18,-1193.71 1970.17,-1193.71 1970.17,18 -18,18"/>
<!-- 0 -->
<g id="node1" class="node">
<title>0</title>
<polygon fill="white" stroke="transparent" points="1163.09,-1175.71 1109.09,-1175.71 1109.09,-1139.71 1163.09,-1139.71 1163.09,-1175.71"/>
<text text-anchor="middle" x="1136.09" y="-1154.01" font-family="Helvetica,sans-Serif" font-size="14.00">0</text>
</g>
<!-- 1 -->
<g id="node2" class="node">
<title>1</title>
<polygon fill="#cc3d3d" stroke="black" points="1222.59,-1102.71 1049.59,-1102.71 1049.59,-1024.71 1222.59,-1024.71 1222.59,-1102.71"/>
<text text-anchor="start" x="1097.09" y="-1088.51" font-family="Helvetica,sans-Serif" font-weight="bold" font-size="14.00"> Class=3 </text>
<text text-anchor="start" x="1170.09" y="-1088.51" font-family="Helvetica,sans-Serif" font-size="14.00"> </text>
<text text-anchor="start" x="1057.59" y="-1074.51" font-family="Helvetica,sans-Serif" font-size="14.00"> error: 0.934, n=3186 </text>
<text text-anchor="start" x="1060.59" y="-1060.51" font-family="Helvetica,sans-Serif" font-size="14.00"> p: (0.24, 0.24, 0.52) </text>
<text text-anchor="start" x="1128.09" y="-1046.51" font-family="Helvetica,sans-Serif" font-size="14.00">&#45;&#45;&#45;</text>
<text text-anchor="start" x="1120.59" y="-1032.51" font-family="Helvetica,sans-Serif" font-weight="bold" font-size="14.00">A89</text>
</g>
<!-- 0&#45;&gt;1 -->
<!-- 2 -->
<g id="node3" class="node">
<title>2</title>
<polygon fill="#e58d44" stroke="black" points="1086.59,-973.71 913.59,-973.71 913.59,-895.71 1086.59,-895.71 1086.59,-973.71"/>
<text text-anchor="start" x="961.09" y="-959.51" font-family="Helvetica,sans-Serif" font-weight="bold" font-size="14.00"> Class=2 </text>
<text text-anchor="start" x="1034.09" y="-959.51" font-family="Helvetica,sans-Serif" font-size="14.00"> </text>
<text text-anchor="start" x="921.59" y="-945.51" font-family="Helvetica,sans-Serif" font-size="14.00"> error: 0.976, n=1820 </text>
<text text-anchor="start" x="924.59" y="-931.51" font-family="Helvetica,sans-Serif" font-size="14.00"> p: (0.34, 0.42, 0.24) </text>
<text text-anchor="start" x="992.09" y="-917.51" font-family="Helvetica,sans-Serif" font-size="14.00">&#45;&#45;&#45;</text>
<text text-anchor="start" x="984.59" y="-903.51" font-family="Helvetica,sans-Serif" font-weight="bold" font-size="14.00">A84</text>
</g>
<!-- 1&#45;&gt;2 -->
<g id="edge2" class="edge">
<title>1:s&#45;&gt;2:n</title>
<path fill="none" stroke="black" d="M1136.09,-1024.71C1136.09,-1024.71 1041.05,-989.07 1009.87,-977.38"/>
<polygon fill="black" stroke="black" points="1010.68,-973.94 1000.09,-973.71 1008.22,-980.5 1010.68,-973.94"/>
<text text-anchor="middle" x="1090.09" y="-995.51" font-family="Helvetica,sans-Serif" font-size="14.00">1</text>
</g>
<!-- 27 -->
<g id="node4" class="node">
<title>27</title>
<polygon fill="#e58d44" stroke="black" points="1368.59,-973.71 1195.59,-973.71 1195.59,-895.71 1368.59,-895.71 1368.59,-973.71"/>
<text text-anchor="start" x="1243.09" y="-959.51" font-family="Helvetica,sans-Serif" font-weight="bold" font-size="14.00"> Class=3 </text>
<text text-anchor="start" x="1316.09" y="-959.51" font-family="Helvetica,sans-Serif" font-size="14.00"> </text>
<text text-anchor="start" x="1203.59" y="-945.51" font-family="Helvetica,sans-Serif" font-size="14.00"> error: 0.312, n=1366 </text>
<text text-anchor="start" x="1206.59" y="-931.51" font-family="Helvetica,sans-Serif" font-size="14.00"> p: (0.10, 0.00, 0.90) </text>
<text text-anchor="start" x="1271.09" y="-917.51" font-family="Helvetica,sans-Serif" font-size="14.00">&#45;&#45;&#45;&#45;</text>
<text text-anchor="start" x="1262.09" y="-903.51" font-family="Helvetica,sans-Serif" font-weight="bold" font-size="14.00">A104</text>
</g>
<!-- 1&#45;&gt;27 -->
<g id="edge3" class="edge">
<title>1:s&#45;&gt;27:n</title>
<path fill="none" stroke="black" d="M1136.09,-1024.71C1136.09,-1024.71 1240.03,-988.4 1272.51,-977.06"/>
<polygon fill="black" stroke="black" points="1273.8,-980.31 1282.09,-973.71 1271.49,-973.7 1273.8,-980.31"/>
<text text-anchor="middle" x="1232.09" y="-995.51" font-family="Helvetica,sans-Serif" font-size="14.00">0</text>
</g>
<!-- 3 -->
<g id="node5" class="node">
<title>3</title>
<polygon fill="#ccbd3d" stroke="black" points="809.59,-844.71 636.59,-844.71 636.59,-766.71 809.59,-766.71 809.59,-844.71"/>
<text text-anchor="start" x="684.09" y="-830.51" font-family="Helvetica,sans-Serif" font-weight="bold" font-size="14.00"> Class=2 </text>
<text text-anchor="start" x="757.09" y="-830.51" font-family="Helvetica,sans-Serif" font-size="14.00"> </text>
<text text-anchor="start" x="644.59" y="-816.51" font-family="Helvetica,sans-Serif" font-size="14.00"> error: 0.819, n=1277 </text>
<text text-anchor="start" x="647.59" y="-802.51" font-family="Helvetica,sans-Serif" font-size="14.00"> p: (0.30, 0.60, 0.10) </text>
<text text-anchor="start" x="715.09" y="-788.51" font-family="Helvetica,sans-Serif" font-size="14.00">&#45;&#45;&#45;</text>
<text text-anchor="start" x="707.59" y="-774.51" font-family="Helvetica,sans-Serif" font-weight="bold" font-size="14.00">A92</text>
</g>
<!-- 2&#45;&gt;3 -->
<g id="edge4" class="edge">
<title>2:s&#45;&gt;3:n</title>
<path fill="none" stroke="black" d="M1000.09,-895.71C1000.09,-895.71 782.29,-855.61 732.95,-846.53"/>
<polygon fill="black" stroke="black" points="733.56,-843.08 723.09,-844.71 732.29,-849.96 733.56,-843.08"/>
<text text-anchor="middle" x="900.09" y="-866.51" font-family="Helvetica,sans-Serif" font-size="14.00">1</text>
</g>
<!-- 19 -->
<g id="node6" class="node">
<title>19</title>
<polygon fill="#ccbd3d" stroke="black" points="1083.59,-844.71 916.59,-844.71 916.59,-766.71 1083.59,-766.71 1083.59,-844.71"/>
<text text-anchor="start" x="961.09" y="-830.51" font-family="Helvetica,sans-Serif" font-weight="bold" font-size="14.00"> Class=3 </text>
<text text-anchor="start" x="1034.09" y="-830.51" font-family="Helvetica,sans-Serif" font-size="14.00"> </text>
<text text-anchor="start" x="926.09" y="-816.51" font-family="Helvetica,sans-Serif" font-size="14.00"> error: 0.644, n=543 </text>
<text text-anchor="start" x="924.59" y="-802.51" font-family="Helvetica,sans-Serif" font-size="14.00"> p: (0.44, 0.00, 0.56) </text>
<text text-anchor="start" x="992.09" y="-788.51" font-family="Helvetica,sans-Serif" font-size="14.00">&#45;&#45;&#45;</text>
<text text-anchor="start" x="984.59" y="-774.51" font-family="Helvetica,sans-Serif" font-weight="bold" font-size="14.00">A92</text>
</g>
<!-- 2&#45;&gt;19 -->
<g id="edge5" class="edge">
<title>2:s&#45;&gt;19:n</title>
<path fill="none" stroke="black" d="M1000.09,-895.71C1000.09,-895.71 1000.09,-869.93 1000.09,-855.03"/>
<polygon fill="black" stroke="black" points="1003.59,-854.71 1000.09,-844.71 996.59,-854.71 1003.59,-854.71"/>
<text text-anchor="middle" x="1005.09" y="-866.51" font-family="Helvetica,sans-Serif" font-size="14.00">0</text>
</g>
<!-- 28 -->
<g id="node29" class="node">
<title>28</title>
<ellipse fill="#ccbd3d" stroke="black" cx="1282.09" cy="-805.71" rx="118.17" ry="35.21"/>
<text text-anchor="start" x="1243.09" y="-816.51" font-family="Helvetica,sans-Serif" font-weight="bold" font-size="14.00"> Class=3 </text>
<text text-anchor="start" x="1316.09" y="-816.51" font-family="Helvetica,sans-Serif" font-size="14.00"> </text>
<text text-anchor="start" x="1208.09" y="-802.51" font-family="Helvetica,sans-Serif" font-size="14.00"> error: 0.033, n=945 </text>
<text text-anchor="start" x="1206.59" y="-788.51" font-family="Helvetica,sans-Serif" font-size="14.00"> p: (0.00, 0.00, 0.99) </text>
</g>
<!-- 27&#45;&gt;28 -->
<g id="edge28" class="edge">
<title>27:s&#45;&gt;28:n</title>
<path fill="none" stroke="black" d="M1282.09,-895.71C1282.09,-895.71 1282.09,-868.33 1282.09,-852.93"/>
<polygon fill="black" stroke="black" points="1285.59,-852.71 1282.09,-842.71 1278.59,-852.71 1285.59,-852.71"/>
<text text-anchor="middle" x="1287.09" y="-866.51" font-family="Helvetica,sans-Serif" font-size="14.00">0</text>
</g>
<!-- 29 -->
<g id="node30" class="node">
<title>29</title>
<polygon fill="#ccbd3d" stroke="black" points="1643.59,-844.71 1476.59,-844.71 1476.59,-766.71 1643.59,-766.71 1643.59,-844.71"/>
<text text-anchor="start" x="1521.09" y="-830.51" font-family="Helvetica,sans-Serif" font-weight="bold" font-size="14.00"> Class=3 </text>
<text text-anchor="start" x="1594.09" y="-830.51" font-family="Helvetica,sans-Serif" font-size="14.00"> </text>
<text text-anchor="start" x="1486.09" y="-816.51" font-family="Helvetica,sans-Serif" font-size="14.00"> error: 0.576, n=421 </text>
<text text-anchor="start" x="1484.59" y="-802.51" font-family="Helvetica,sans-Serif" font-size="14.00"> p: (0.33, 0.00, 0.67) </text>
<text text-anchor="start" x="1552.09" y="-788.51" font-family="Helvetica,sans-Serif" font-size="14.00">&#45;&#45;&#45;</text>
<text text-anchor="start" x="1544.59" y="-774.51" font-family="Helvetica,sans-Serif" font-weight="bold" font-size="14.00">A92</text>
</g>
<!-- 27&#45;&gt;29 -->
<g id="edge29" class="edge">
<title>27:s&#45;&gt;29:n</title>
<path fill="none" stroke="black" d="M1282.09,-895.71C1282.09,-895.71 1500.67,-855.61 1550.19,-846.53"/>
<polygon fill="black" stroke="black" points="1550.88,-849.96 1560.09,-844.71 1549.62,-843.07 1550.88,-849.96"/>
<text text-anchor="middle" x="1460.09" y="-866.51" font-family="Helvetica,sans-Serif" font-size="14.00">1</text>
</g>
<!-- 4 -->
<g id="node7" class="node">
<title>4</title>
<polygon fill="#ade544" stroke="black" points="509.59,-715.71 342.59,-715.71 342.59,-637.71 509.59,-637.71 509.59,-715.71"/>
<text text-anchor="start" x="387.09" y="-701.51" font-family="Helvetica,sans-Serif" font-weight="bold" font-size="14.00"> Class=2 </text>
<text text-anchor="start" x="460.09" y="-701.51" font-family="Helvetica,sans-Serif" font-size="14.00"> </text>
<text text-anchor="start" x="352.09" y="-687.51" font-family="Helvetica,sans-Serif" font-size="14.00"> error: 0.411, n=479 </text>
<text text-anchor="start" x="350.59" y="-673.51" font-family="Helvetica,sans-Serif" font-size="14.00"> p: (0.00, 0.83, 0.17) </text>
<text text-anchor="start" x="418.09" y="-659.51" font-family="Helvetica,sans-Serif" font-size="14.00">&#45;&#45;&#45;</text>
<text text-anchor="start" x="410.59" y="-645.51" font-family="Helvetica,sans-Serif" font-weight="bold" font-size="14.00">A82</text>
</g>
<!-- 3&#45;&gt;4 -->
<g id="edge6" class="edge">
<title>3:s&#45;&gt;4:n</title>
<path fill="none" stroke="black" d="M723.09,-766.71C723.09,-766.71 487.5,-726.26 435.97,-717.41"/>
<polygon fill="black" stroke="black" points="436.53,-713.95 426.09,-715.71 435.35,-720.85 436.53,-713.95"/>
<text text-anchor="middle" x="615.09" y="-737.51" font-family="Helvetica,sans-Serif" font-size="14.00">0</text>
</g>
<!-- 9 -->
<g id="node8" class="node">
<title>9</title>
<polygon fill="#ade544" stroke="black" points="806.59,-715.71 639.59,-715.71 639.59,-637.71 806.59,-637.71 806.59,-715.71"/>
<text text-anchor="start" x="684.09" y="-701.51" font-family="Helvetica,sans-Serif" font-weight="bold" font-size="14.00"> Class=1 </text>
<text text-anchor="start" x="757.09" y="-701.51" font-family="Helvetica,sans-Serif" font-size="14.00"> </text>
<text text-anchor="start" x="649.09" y="-687.51" font-family="Helvetica,sans-Serif" font-size="14.00"> error: 0.797, n=798 </text>
<text text-anchor="start" x="647.59" y="-673.51" font-family="Helvetica,sans-Serif" font-size="14.00"> p: (0.49, 0.45, 0.06) </text>
<text text-anchor="start" x="712.09" y="-659.51" font-family="Helvetica,sans-Serif" font-size="14.00">&#45;&#45;&#45;&#45;</text>
<text text-anchor="start" x="703.09" y="-645.51" font-family="Helvetica,sans-Serif" font-weight="bold" font-size="14.00">A104</text>
</g>
<!-- 3&#45;&gt;9 -->
<g id="edge7" class="edge">
<title>3:s&#45;&gt;9:n</title>
<path fill="none" stroke="black" d="M723.09,-766.71C723.09,-766.71 723.09,-740.93 723.09,-726.03"/>
<polygon fill="black" stroke="black" points="726.59,-725.71 723.09,-715.71 719.59,-725.71 726.59,-725.71"/>
<text text-anchor="middle" x="728.09" y="-737.51" font-family="Helvetica,sans-Serif" font-size="14.00">1</text>
</g>
<!-- 20 -->
<g id="node22" class="node">
<title>20</title>
<ellipse fill="#ade544" stroke="black" cx="998.09" cy="-676.71" rx="118.17" ry="35.21"/>
<text text-anchor="start" x="959.09" y="-687.51" font-family="Helvetica,sans-Serif" font-weight="bold" font-size="14.00"> Class=3 </text>
<text text-anchor="start" x="1032.09" y="-687.51" font-family="Helvetica,sans-Serif" font-size="14.00"> </text>
<text text-anchor="start" x="924.09" y="-673.51" font-family="Helvetica,sans-Serif" font-size="14.00"> error: 0.050, n=207 </text>
<text text-anchor="start" x="922.59" y="-659.51" font-family="Helvetica,sans-Serif" font-size="14.00"> p: (0.00, 0.01, 0.99) </text>
</g>
<!-- 19&#45;&gt;20 -->
<g id="edge21" class="edge">
<title>19:s&#45;&gt;20:n</title>
<path fill="none" stroke="black" d="M1000.09,-766.71C1000.09,-766.71 999.05,-739.33 998.47,-723.93"/>
<polygon fill="black" stroke="black" points="1001.96,-723.57 998.09,-713.71 994.97,-723.84 1001.96,-723.57"/>
<text text-anchor="middle" x="1005.09" y="-737.51" font-family="Helvetica,sans-Serif" font-size="14.00">0</text>
</g>
<!-- 21 -->
<g id="node23" class="node">
<title>21</title>
<polygon fill="#ade544" stroke="black" points="1355.59,-715.71 1188.59,-715.71 1188.59,-637.71 1355.59,-637.71 1355.59,-715.71"/>
<text text-anchor="start" x="1233.09" y="-701.51" font-family="Helvetica,sans-Serif" font-weight="bold" font-size="14.00"> Class=1 </text>
<text text-anchor="start" x="1306.09" y="-701.51" font-family="Helvetica,sans-Serif" font-size="14.00"> </text>
<text text-anchor="start" x="1198.09" y="-687.51" font-family="Helvetica,sans-Serif" font-size="14.00"> error: 0.552, n=336 </text>
<text text-anchor="start" x="1196.59" y="-673.51" font-family="Helvetica,sans-Serif" font-size="14.00"> p: (0.71, 0.00, 0.29) </text>
<text text-anchor="start" x="1261.09" y="-659.51" font-family="Helvetica,sans-Serif" font-size="14.00">&#45;&#45;&#45;&#45;</text>
<text text-anchor="start" x="1252.09" y="-645.51" font-family="Helvetica,sans-Serif" font-weight="bold" font-size="14.00">A104</text>
</g>
<!-- 19&#45;&gt;21 -->
<g id="edge22" class="edge">
<title>19:s&#45;&gt;21:n</title>
<path fill="none" stroke="black" d="M1000.09,-766.71C1000.09,-766.71 1213.01,-726.79 1262.08,-717.59"/>
<polygon fill="black" stroke="black" points="1262.9,-720.99 1272.09,-715.71 1261.61,-714.11 1262.9,-720.99"/>
<text text-anchor="middle" x="1174.09" y="-737.51" font-family="Helvetica,sans-Serif" font-size="14.00">1</text>
</g>
<!-- 5 -->
<g id="node9" class="node">
<title>5</title>
<polygon fill="#59cc3d" stroke="black" points="236.59,-586.71 69.59,-586.71 69.59,-508.71 236.59,-508.71 236.59,-586.71"/>
<text text-anchor="start" x="114.09" y="-572.51" font-family="Helvetica,sans-Serif" font-weight="bold" font-size="14.00"> Class=2 </text>
<text text-anchor="start" x="187.09" y="-572.51" font-family="Helvetica,sans-Serif" font-size="14.00"> </text>
<text text-anchor="start" x="79.09" y="-558.51" font-family="Helvetica,sans-Serif" font-size="14.00"> error: 0.623, n=127 </text>
<text text-anchor="start" x="77.59" y="-544.51" font-family="Helvetica,sans-Serif" font-size="14.00"> p: (0.00, 0.57, 0.43) </text>
<text text-anchor="start" x="145.09" y="-530.51" font-family="Helvetica,sans-Serif" font-size="14.00">&#45;&#45;&#45;</text>
<text text-anchor="start" x="137.59" y="-516.51" font-family="Helvetica,sans-Serif" font-weight="bold" font-size="14.00">A83</text>
</g>
<!-- 4&#45;&gt;5 -->
<g id="edge8" class="edge">
<title>4:s&#45;&gt;5:n</title>
<path fill="none" stroke="black" d="M426.09,-637.71C426.09,-637.71 212.38,-597.79 163.13,-588.59"/>
<polygon fill="black" stroke="black" points="163.56,-585.11 153.09,-586.71 162.27,-591.99 163.56,-585.11"/>
<text text-anchor="middle" x="327.09" y="-608.51" font-family="Helvetica,sans-Serif" font-size="14.00">0</text>
</g>
<!-- 7 -->
<g id="node10" class="node">
<title>7</title>
<polygon fill="#59cc3d" stroke="black" points="509.59,-586.71 342.59,-586.71 342.59,-508.71 509.59,-508.71 509.59,-586.71"/>
<text text-anchor="start" x="387.09" y="-572.51" font-family="Helvetica,sans-Serif" font-weight="bold" font-size="14.00"> Class=2 </text>
<text text-anchor="start" x="460.09" y="-572.51" font-family="Helvetica,sans-Serif" font-size="14.00"> </text>
<text text-anchor="start" x="352.09" y="-558.51" font-family="Helvetica,sans-Serif" font-size="14.00"> error: 0.233, n=352 </text>
<text text-anchor="start" x="350.59" y="-544.51" font-family="Helvetica,sans-Serif" font-size="14.00"> p: (0.00, 0.93, 0.07) </text>
<text text-anchor="start" x="418.09" y="-530.51" font-family="Helvetica,sans-Serif" font-size="14.00">&#45;&#45;&#45;</text>
<text text-anchor="start" x="410.59" y="-516.51" font-family="Helvetica,sans-Serif" font-weight="bold" font-size="14.00">A74</text>
</g>
<!-- 4&#45;&gt;7 -->
<g id="edge9" class="edge">
<title>4:s&#45;&gt;7:n</title>
<path fill="none" stroke="black" d="M426.09,-637.71C426.09,-637.71 426.09,-611.93 426.09,-597.03"/>
<polygon fill="black" stroke="black" points="429.59,-596.71 426.09,-586.71 422.59,-596.71 429.59,-596.71"/>
<text text-anchor="middle" x="431.09" y="-608.51" font-family="Helvetica,sans-Serif" font-size="14.00">1</text>
</g>
<!-- 10 -->
<g id="node13" class="node">
<title>10</title>
<polygon fill="#59cc3d" stroke="black" points="783.59,-586.71 616.59,-586.71 616.59,-508.71 783.59,-508.71 783.59,-586.71"/>
<text text-anchor="start" x="661.09" y="-572.51" font-family="Helvetica,sans-Serif" font-weight="bold" font-size="14.00"> Class=1 </text>
<text text-anchor="start" x="734.09" y="-572.51" font-family="Helvetica,sans-Serif" font-size="14.00"> </text>
<text text-anchor="start" x="626.09" y="-558.51" font-family="Helvetica,sans-Serif" font-size="14.00"> error: 0.500, n=379 </text>
<text text-anchor="start" x="624.59" y="-544.51" font-family="Helvetica,sans-Serif" font-size="14.00"> p: (0.80, 0.19, 0.01) </text>
<text text-anchor="start" x="692.09" y="-530.51" font-family="Helvetica,sans-Serif" font-size="14.00">&#45;&#45;&#45;</text>
<text text-anchor="start" x="684.59" y="-516.51" font-family="Helvetica,sans-Serif" font-weight="bold" font-size="14.00">A95</text>
</g>
<!-- 9&#45;&gt;10 -->
<g id="edge12" class="edge">
<title>9:s&#45;&gt;10:n</title>
<path fill="none" stroke="black" d="M723.09,-637.71C723.09,-637.71 710.95,-610.79 704.31,-596.06"/>
<polygon fill="black" stroke="black" points="707.39,-594.39 700.09,-586.71 701.01,-597.27 707.39,-594.39"/>
<text text-anchor="middle" x="720.09" y="-608.51" font-family="Helvetica,sans-Serif" font-size="14.00">1</text>
</g>
<!-- 14 -->
<g id="node14" class="node">
<title>14</title>
<polygon fill="#59cc3d" stroke="black" points="1022.59,-586.71 855.59,-586.71 855.59,-508.71 1022.59,-508.71 1022.59,-586.71"/>
<text text-anchor="start" x="900.09" y="-572.51" font-family="Helvetica,sans-Serif" font-weight="bold" font-size="14.00"> Class=2 </text>
<text text-anchor="start" x="973.09" y="-572.51" font-family="Helvetica,sans-Serif" font-size="14.00"> </text>
<text text-anchor="start" x="865.09" y="-558.51" font-family="Helvetica,sans-Serif" font-size="14.00"> error: 0.736, n=419 </text>
<text text-anchor="start" x="863.59" y="-544.51" font-family="Helvetica,sans-Serif" font-size="14.00"> p: (0.21, 0.69, 0.10) </text>
<text text-anchor="start" x="931.09" y="-530.51" font-family="Helvetica,sans-Serif" font-size="14.00">&#45;&#45;&#45;</text>
<text text-anchor="start" x="923.59" y="-516.51" font-family="Helvetica,sans-Serif" font-weight="bold" font-size="14.00">A83</text>
</g>
<!-- 9&#45;&gt;14 -->
<g id="edge13" class="edge">
<title>9:s&#45;&gt;14:n</title>
<path fill="none" stroke="black" d="M723.09,-637.71C723.09,-637.71 886.99,-599.01 929.24,-589.03"/>
<polygon fill="black" stroke="black" points="930.16,-592.42 939.09,-586.71 928.55,-585.6 930.16,-592.42"/>
<text text-anchor="middle" x="862.09" y="-608.51" font-family="Helvetica,sans-Serif" font-size="14.00">0</text>
</g>
<!-- 6 -->
<g id="node11" class="node">
<title>6</title>
<ellipse fill="#44e56d" stroke="black" cx="118.09" cy="-418.71" rx="118.17" ry="35.21"/>
<text text-anchor="start" x="79.09" y="-429.51" font-family="Helvetica,sans-Serif" font-weight="bold" font-size="14.00"> Class=2 </text>
<text text-anchor="start" x="152.09" y="-429.51" font-family="Helvetica,sans-Serif" font-size="14.00"> </text>
<text text-anchor="start" x="48.59" y="-415.51" font-family="Helvetica,sans-Serif" font-size="14.00"> error: 0.566, n=99 </text>
<text text-anchor="start" x="42.59" y="-401.51" font-family="Helvetica,sans-Serif" font-size="14.00"> p: (0.00, 0.69, 0.31) </text>
</g>
<!-- 5&#45;&gt;6 -->
<g id="edge10" class="edge">
<title>5:s&#45;&gt;6:n</title>
<path fill="none" stroke="black" d="M153.09,-508.71C153.09,-508.71 133.81,-479.52 123.87,-464.46"/>
<polygon fill="black" stroke="black" points="126.52,-462.13 118.09,-455.71 120.68,-465.98 126.52,-462.13"/>
<text text-anchor="middle" x="146.09" y="-479.51" font-family="Helvetica,sans-Serif" font-size="14.00">0</text>
</g>
<!-- 8 -->
<g id="node12" class="node">
<title>8</title>
<ellipse fill="#44e56d" stroke="black" cx="426.09" cy="-418.71" rx="118.17" ry="35.21"/>
<text text-anchor="start" x="387.09" y="-429.51" font-family="Helvetica,sans-Serif" font-weight="bold" font-size="14.00"> Class=2 </text>
<text text-anchor="start" x="460.09" y="-429.51" font-family="Helvetica,sans-Serif" font-size="14.00"> </text>
<text text-anchor="start" x="352.09" y="-415.51" font-family="Helvetica,sans-Serif" font-size="14.00"> error: 0.154, n=321 </text>
<text text-anchor="start" x="350.59" y="-401.51" font-family="Helvetica,sans-Serif" font-size="14.00"> p: (0.00, 0.96, 0.04) </text>
</g>
<!-- 7&#45;&gt;8 -->
<g id="edge11" class="edge">
<title>7:s&#45;&gt;8:n</title>
<path fill="none" stroke="black" d="M426.09,-508.71C426.09,-508.71 426.09,-481.33 426.09,-465.93"/>
<polygon fill="black" stroke="black" points="429.59,-465.71 426.09,-455.71 422.59,-465.71 429.59,-465.71"/>
<text text-anchor="middle" x="431.09" y="-479.51" font-family="Helvetica,sans-Serif" font-size="14.00">0</text>
</g>
<!-- 11 -->
<g id="node15" class="node">
<title>11</title>
<polygon fill="#44e56d" stroke="black" points="783.59,-457.71 616.59,-457.71 616.59,-379.71 783.59,-379.71 783.59,-457.71"/>
<text text-anchor="start" x="661.09" y="-443.51" font-family="Helvetica,sans-Serif" font-weight="bold" font-size="14.00"> Class=1 </text>
<text text-anchor="start" x="734.09" y="-443.51" font-family="Helvetica,sans-Serif" font-size="14.00"> </text>
<text text-anchor="start" x="626.09" y="-429.51" font-family="Helvetica,sans-Serif" font-size="14.00"> error: 0.409, n=357 </text>
<text text-anchor="start" x="624.59" y="-415.51" font-family="Helvetica,sans-Serif" font-size="14.00"> p: (0.85, 0.15, 0.01) </text>
<text text-anchor="start" x="692.09" y="-401.51" font-family="Helvetica,sans-Serif" font-size="14.00">&#45;&#45;&#45;</text>
<text text-anchor="start" x="684.59" y="-387.51" font-family="Helvetica,sans-Serif" font-weight="bold" font-size="14.00">A94</text>
</g>
<!-- 10&#45;&gt;11 -->
<g id="edge14" class="edge">
<title>10:s&#45;&gt;11:n</title>
<path fill="none" stroke="black" d="M700.09,-508.71C700.09,-508.71 700.09,-482.93 700.09,-468.03"/>
<polygon fill="black" stroke="black" points="703.59,-467.71 700.09,-457.71 696.59,-467.71 703.59,-467.71"/>
<text text-anchor="middle" x="705.09" y="-479.51" font-family="Helvetica,sans-Serif" font-size="14.00">0</text>
</g>
<!-- 15 -->
<g id="node18" class="node">
<title>15</title>
<polygon fill="#44e56d" stroke="black" points="1022.59,-457.71 855.59,-457.71 855.59,-379.71 1022.59,-379.71 1022.59,-457.71"/>
<text text-anchor="start" x="900.09" y="-443.51" font-family="Helvetica,sans-Serif" font-weight="bold" font-size="14.00"> Class=2 </text>
<text text-anchor="start" x="973.09" y="-443.51" font-family="Helvetica,sans-Serif" font-size="14.00"> </text>
<text text-anchor="start" x="865.09" y="-429.51" font-family="Helvetica,sans-Serif" font-size="14.00"> error: 0.660, n=392 </text>
<text text-anchor="start" x="863.59" y="-415.51" font-family="Helvetica,sans-Serif" font-size="14.00"> p: (0.18, 0.74, 0.07) </text>
<text text-anchor="start" x="931.09" y="-401.51" font-family="Helvetica,sans-Serif" font-size="14.00">&#45;&#45;&#45;</text>
<text text-anchor="start" x="923.59" y="-387.51" font-family="Helvetica,sans-Serif" font-weight="bold" font-size="14.00">A81</text>
</g>
<!-- 14&#45;&gt;15 -->
<g id="edge17" class="edge">
<title>14:s&#45;&gt;15:n</title>
<path fill="none" stroke="black" d="M939.09,-508.71C939.09,-508.71 939.09,-482.93 939.09,-468.03"/>
<polygon fill="black" stroke="black" points="942.59,-467.71 939.09,-457.71 935.59,-467.71 942.59,-467.71"/>
<text text-anchor="middle" x="944.09" y="-479.51" font-family="Helvetica,sans-Serif" font-size="14.00">0</text>
</g>
<!-- 12 -->
<g id="node16" class="node">
<title>12</title>
<polygon fill="#3dcca1" stroke="black" points="765.59,-328.71 598.59,-328.71 598.59,-250.71 765.59,-250.71 765.59,-328.71"/>
<text text-anchor="start" x="643.09" y="-314.51" font-family="Helvetica,sans-Serif" font-weight="bold" font-size="14.00"> Class=1 </text>
<text text-anchor="start" x="716.09" y="-314.51" font-family="Helvetica,sans-Serif" font-size="14.00"> </text>
<text text-anchor="start" x="608.09" y="-300.51" font-family="Helvetica,sans-Serif" font-size="14.00"> error: 0.305, n=335 </text>
<text text-anchor="start" x="606.59" y="-286.51" font-family="Helvetica,sans-Serif" font-size="14.00"> p: (0.90, 0.10, 0.00) </text>
<text text-anchor="start" x="674.09" y="-272.51" font-family="Helvetica,sans-Serif" font-size="14.00">&#45;&#45;&#45;</text>
<text text-anchor="start" x="666.59" y="-258.51" font-family="Helvetica,sans-Serif" font-weight="bold" font-size="14.00">A93</text>
</g>
<!-- 11&#45;&gt;12 -->
<g id="edge15" class="edge">
<title>11:s&#45;&gt;12:n</title>
<path fill="none" stroke="black" d="M700.09,-379.71C700.09,-379.71 690.79,-353.36 685.56,-338.54"/>
<polygon fill="black" stroke="black" points="688.72,-336.98 682.09,-328.71 682.11,-339.31 688.72,-336.98"/>
<text text-anchor="middle" x="699.09" y="-350.51" font-family="Helvetica,sans-Serif" font-size="14.00">0</text>
</g>
<!-- 13 -->
<g id="node17" class="node">
<title>13</title>
<ellipse fill="#44cde5" stroke="black" cx="665.09" cy="-160.71" rx="118.17" ry="35.21"/>
<text text-anchor="start" x="626.09" y="-171.51" font-family="Helvetica,sans-Serif" font-weight="bold" font-size="14.00"> Class=1 </text>
<text text-anchor="start" x="699.09" y="-171.51" font-family="Helvetica,sans-Serif" font-size="14.00"> </text>
<text text-anchor="start" x="591.09" y="-157.51" font-family="Helvetica,sans-Serif" font-size="14.00"> error: 0.227, n=322 </text>
<text text-anchor="start" x="589.59" y="-143.51" font-family="Helvetica,sans-Serif" font-size="14.00"> p: (0.93, 0.07, 0.00) </text>
</g>
<!-- 12&#45;&gt;13 -->
<g id="edge16" class="edge">
<title>12:s&#45;&gt;13:n</title>
<path fill="none" stroke="black" d="M682.09,-250.71C682.09,-250.71 673.11,-222.73 668.2,-207.43"/>
<polygon fill="black" stroke="black" points="671.47,-206.16 665.09,-197.71 664.81,-208.3 671.47,-206.16"/>
<text text-anchor="middle" x="682.09" y="-221.51" font-family="Helvetica,sans-Serif" font-size="14.00">0</text>
</g>
<!-- 16 -->
<g id="node19" class="node">
<title>16</title>
<polygon fill="#3dcca1" stroke="black" points="1022.59,-328.71 855.59,-328.71 855.59,-250.71 1022.59,-250.71 1022.59,-328.71"/>
<text text-anchor="start" x="900.09" y="-314.51" font-family="Helvetica,sans-Serif" font-weight="bold" font-size="14.00"> Class=2 </text>
<text text-anchor="start" x="973.09" y="-314.51" font-family="Helvetica,sans-Serif" font-size="14.00"> </text>
<text text-anchor="start" x="865.09" y="-300.51" font-family="Helvetica,sans-Serif" font-size="14.00"> error: 0.522, n=345 </text>
<text text-anchor="start" x="863.59" y="-286.51" font-family="Helvetica,sans-Serif" font-size="14.00"> p: (0.13, 0.82, 0.05) </text>
<text text-anchor="start" x="931.09" y="-272.51" font-family="Helvetica,sans-Serif" font-size="14.00">&#45;&#45;&#45;</text>
<text text-anchor="start" x="923.59" y="-258.51" font-family="Helvetica,sans-Serif" font-weight="bold" font-size="14.00">A62</text>
</g>
<!-- 15&#45;&gt;16 -->
<g id="edge18" class="edge">
<title>15:s&#45;&gt;16:n</title>
<path fill="none" stroke="black" d="M939.09,-379.71C939.09,-379.71 939.09,-353.93 939.09,-339.03"/>
<polygon fill="black" stroke="black" points="942.59,-338.71 939.09,-328.71 935.59,-338.71 942.59,-338.71"/>
<text text-anchor="middle" x="944.09" y="-350.51" font-family="Helvetica,sans-Serif" font-size="14.00">0</text>
</g>
<!-- 17 -->
<g id="node20" class="node">
<title>17</title>
<polygon fill="#44cde5" stroke="black" points="1022.59,-199.71 855.59,-199.71 855.59,-121.71 1022.59,-121.71 1022.59,-199.71"/>
<text text-anchor="start" x="900.09" y="-185.51" font-family="Helvetica,sans-Serif" font-weight="bold" font-size="14.00"> Class=2 </text>
<text text-anchor="start" x="973.09" y="-185.51" font-family="Helvetica,sans-Serif" font-size="14.00"> </text>
<text text-anchor="start" x="865.09" y="-171.51" font-family="Helvetica,sans-Serif" font-size="14.00"> error: 0.413, n=295 </text>
<text text-anchor="start" x="863.59" y="-157.51" font-family="Helvetica,sans-Serif" font-size="14.00"> p: (0.09, 0.87, 0.04) </text>
<text text-anchor="start" x="931.09" y="-143.51" font-family="Helvetica,sans-Serif" font-size="14.00">&#45;&#45;&#45;</text>
<text text-anchor="start" x="923.59" y="-129.51" font-family="Helvetica,sans-Serif" font-weight="bold" font-size="14.00">A60</text>
</g>
<!-- 16&#45;&gt;17 -->
<g id="edge19" class="edge">
<title>16:s&#45;&gt;17:n</title>
<path fill="none" stroke="black" d="M939.09,-250.71C939.09,-250.71 939.09,-224.93 939.09,-210.03"/>
<polygon fill="black" stroke="black" points="942.59,-209.71 939.09,-199.71 935.59,-209.71 942.59,-209.71"/>
<text text-anchor="middle" x="944.09" y="-221.51" font-family="Helvetica,sans-Serif" font-size="14.00">0</text>
</g>
<!-- 18 -->
<g id="node21" class="node">
<title>18</title>
<ellipse fill="#3d76cc" stroke="black" cx="939.09" cy="-35.36" rx="118.17" ry="35.21"/>
<text text-anchor="start" x="900.09" y="-46.16" font-family="Helvetica,sans-Serif" font-weight="bold" font-size="14.00"> Class=2 </text>
<text text-anchor="start" x="973.09" y="-46.16" font-family="Helvetica,sans-Serif" font-size="14.00"> </text>
<text text-anchor="start" x="865.09" y="-32.16" font-family="Helvetica,sans-Serif" font-size="14.00"> error: 0.242, n=249 </text>
<text text-anchor="start" x="863.59" y="-18.16" font-family="Helvetica,sans-Serif" font-size="14.00"> p: (0.04, 0.94, 0.02) </text>
</g>
<!-- 17&#45;&gt;18 -->
<g id="edge20" class="edge">
<title>17:s&#45;&gt;18:n</title>
<path fill="none" stroke="black" d="M939.09,-121.71C939.09,-121.71 939.09,-95.93 939.09,-81.03"/>
<polygon fill="black" stroke="black" points="942.59,-80.71 939.09,-70.71 935.59,-80.71 942.59,-80.71"/>
<text text-anchor="middle" x="944.09" y="-92.51" font-family="Helvetica,sans-Serif" font-size="14.00">0</text>
</g>
<!-- 22 -->
<g id="node24" class="node">
<title>22</title>
<polygon fill="#59cc3d" stroke="black" points="1265.59,-586.71 1098.59,-586.71 1098.59,-508.71 1265.59,-508.71 1265.59,-586.71"/>
<text text-anchor="start" x="1143.09" y="-572.51" font-family="Helvetica,sans-Serif" font-weight="bold" font-size="14.00"> Class=1 </text>
<text text-anchor="start" x="1216.09" y="-572.51" font-family="Helvetica,sans-Serif" font-size="14.00"> </text>
<text text-anchor="start" x="1108.09" y="-558.51" font-family="Helvetica,sans-Serif" font-size="14.00"> error: 0.263, n=237 </text>
<text text-anchor="start" x="1106.59" y="-544.51" font-family="Helvetica,sans-Serif" font-size="14.00"> p: (0.92, 0.00, 0.08) </text>
<text text-anchor="start" x="1174.09" y="-530.51" font-family="Helvetica,sans-Serif" font-size="14.00">&#45;&#45;&#45;</text>
<text text-anchor="start" x="1166.59" y="-516.51" font-family="Helvetica,sans-Serif" font-weight="bold" font-size="14.00">A93</text>
</g>
<!-- 21&#45;&gt;22 -->
<g id="edge23" class="edge">
<title>21:s&#45;&gt;22:n</title>
<path fill="none" stroke="black" d="M1272.09,-637.71C1272.09,-637.71 1213.81,-604.69 1191.05,-591.79"/>
<polygon fill="black" stroke="black" points="1192.51,-588.6 1182.09,-586.71 1189.06,-594.69 1192.51,-588.6"/>
<text text-anchor="middle" x="1243.09" y="-608.51" font-family="Helvetica,sans-Serif" font-size="14.00">1</text>
</g>
<!-- 26 -->
<g id="node25" class="node">
<title>26</title>
<ellipse fill="#59cc3d" stroke="black" cx="1456.09" cy="-547.71" rx="118.17" ry="35.21"/>
<text text-anchor="start" x="1417.09" y="-558.51" font-family="Helvetica,sans-Serif" font-weight="bold" font-size="14.00"> Class=3 </text>
<text text-anchor="start" x="1490.09" y="-558.51" font-family="Helvetica,sans-Serif" font-size="14.00"> </text>
<text text-anchor="start" x="1386.59" y="-544.51" font-family="Helvetica,sans-Serif" font-size="14.00"> error: 0.458, n=99 </text>
<text text-anchor="start" x="1380.59" y="-530.51" font-family="Helvetica,sans-Serif" font-size="14.00"> p: (0.20, 0.00, 0.80) </text>
</g>
<!-- 21&#45;&gt;26 -->
<g id="edge24" class="edge">
<title>21:s&#45;&gt;26:n</title>
<path fill="none" stroke="black" d="M1272.09,-637.71C1272.09,-637.71 1408.59,-598.39 1446.45,-587.49"/>
<polygon fill="black" stroke="black" points="1447.45,-590.84 1456.09,-584.71 1445.51,-584.12 1447.45,-590.84"/>
<text text-anchor="middle" x="1391.09" y="-608.51" font-family="Helvetica,sans-Serif" font-size="14.00">0</text>
</g>
<!-- 23 -->
<g id="node26" class="node">
<title>23</title>
<polygon fill="#44e56d" stroke="black" points="1269.59,-457.71 1102.59,-457.71 1102.59,-379.71 1269.59,-379.71 1269.59,-457.71"/>
<text text-anchor="start" x="1147.09" y="-443.51" font-family="Helvetica,sans-Serif" font-weight="bold" font-size="14.00"> Class=1 </text>
<text text-anchor="start" x="1220.09" y="-443.51" font-family="Helvetica,sans-Serif" font-size="14.00"> </text>
<text text-anchor="start" x="1112.09" y="-429.51" font-family="Helvetica,sans-Serif" font-size="14.00"> error: 0.187, n=229 </text>
<text text-anchor="start" x="1110.59" y="-415.51" font-family="Helvetica,sans-Serif" font-size="14.00"> p: (0.95, 0.00, 0.05) </text>
<text text-anchor="start" x="1178.09" y="-401.51" font-family="Helvetica,sans-Serif" font-size="14.00">&#45;&#45;&#45;</text>
<text text-anchor="start" x="1170.59" y="-387.51" font-family="Helvetica,sans-Serif" font-weight="bold" font-size="14.00">A94</text>
</g>
<!-- 22&#45;&gt;23 -->
<g id="edge25" class="edge">
<title>22:s&#45;&gt;23:n</title>
<path fill="none" stroke="black" d="M1182.09,-508.71C1182.09,-508.71 1184.11,-482.93 1185.28,-468.03"/>
<polygon fill="black" stroke="black" points="1188.79,-467.95 1186.09,-457.71 1181.82,-467.41 1188.79,-467.95"/>
<text text-anchor="middle" x="1190.09" y="-479.51" font-family="Helvetica,sans-Serif" font-size="14.00">0</text>
</g>
<!-- 24 -->
<g id="node27" class="node">
<title>24</title>
<polygon fill="#3dcca1" stroke="black" points="1279.59,-328.71 1112.59,-328.71 1112.59,-250.71 1279.59,-250.71 1279.59,-328.71"/>
<text text-anchor="start" x="1157.09" y="-314.51" font-family="Helvetica,sans-Serif" font-weight="bold" font-size="14.00"> Class=1 </text>
<text text-anchor="start" x="1230.09" y="-314.51" font-family="Helvetica,sans-Serif" font-size="14.00"> </text>
<text text-anchor="start" x="1122.09" y="-300.51" font-family="Helvetica,sans-Serif" font-size="14.00"> error: 0.113, n=222 </text>
<text text-anchor="start" x="1120.59" y="-286.51" font-family="Helvetica,sans-Serif" font-size="14.00"> p: (0.97, 0.00, 0.03) </text>
<text text-anchor="start" x="1188.09" y="-272.51" font-family="Helvetica,sans-Serif" font-size="14.00">&#45;&#45;&#45;</text>
<text text-anchor="start" x="1180.59" y="-258.51" font-family="Helvetica,sans-Serif" font-weight="bold" font-size="14.00">A95</text>
</g>
<!-- 23&#45;&gt;24 -->
<g id="edge26" class="edge">
<title>23:s&#45;&gt;24:n</title>
<path fill="none" stroke="black" d="M1186.09,-379.71C1186.09,-379.71 1191.25,-353.36 1194.16,-338.54"/>
<polygon fill="black" stroke="black" points="1197.6,-339.2 1196.09,-328.71 1190.73,-337.85 1197.6,-339.2"/>
<text text-anchor="middle" x="1198.09" y="-350.51" font-family="Helvetica,sans-Serif" font-size="14.00">0</text>
</g>
<!-- 25 -->
<g id="node28" class="node">
<title>25</title>
<ellipse fill="#44cde5" stroke="black" cx="1213.09" cy="-160.71" rx="118.17" ry="35.21"/>
<text text-anchor="start" x="1174.09" y="-171.51" font-family="Helvetica,sans-Serif" font-weight="bold" font-size="14.00"> Class=1 </text>
<text text-anchor="start" x="1247.09" y="-171.51" font-family="Helvetica,sans-Serif" font-size="14.00"> </text>
<text text-anchor="start" x="1139.09" y="-157.51" font-family="Helvetica,sans-Serif" font-size="14.00"> error: 0.048, n=217 </text>
<text text-anchor="start" x="1137.59" y="-143.51" font-family="Helvetica,sans-Serif" font-size="14.00"> p: (0.99, 0.00, 0.01) </text>
</g>
<!-- 24&#45;&gt;25 -->
<g id="edge27" class="edge">
<title>24:s&#45;&gt;25:n</title>
<path fill="none" stroke="black" d="M1196.09,-250.71C1196.09,-250.71 1205.06,-222.73 1209.97,-207.43"/>
<polygon fill="black" stroke="black" points="1213.37,-208.3 1213.09,-197.71 1206.7,-206.16 1213.37,-208.3"/>
<text text-anchor="middle" x="1212.09" y="-221.51" font-family="Helvetica,sans-Serif" font-size="14.00">0</text>
</g>
<!-- 30 -->
<g id="node31" class="node">
<title>30</title>
<polygon fill="#ade544" stroke="black" points="1643.59,-715.71 1476.59,-715.71 1476.59,-637.71 1643.59,-637.71 1643.59,-715.71"/>
<text text-anchor="start" x="1521.09" y="-701.51" font-family="Helvetica,sans-Serif" font-weight="bold" font-size="14.00"> Class=1 </text>
<text text-anchor="start" x="1594.09" y="-701.51" font-family="Helvetica,sans-Serif" font-size="14.00"> </text>
<text text-anchor="start" x="1486.09" y="-687.51" font-family="Helvetica,sans-Serif" font-size="14.00"> error: 0.595, n=214 </text>
<text text-anchor="start" x="1484.59" y="-673.51" font-family="Helvetica,sans-Serif" font-size="14.00"> p: (0.64, 0.00, 0.36) </text>
<text text-anchor="start" x="1552.09" y="-659.51" font-family="Helvetica,sans-Serif" font-size="14.00">&#45;&#45;&#45;</text>
<text text-anchor="start" x="1544.59" y="-645.51" font-family="Helvetica,sans-Serif" font-weight="bold" font-size="14.00">A99</text>
</g>
<!-- 29&#45;&gt;30 -->
<g id="edge30" class="edge">
<title>29:s&#45;&gt;30:n</title>
<path fill="none" stroke="black" d="M1560.09,-766.71C1560.09,-766.71 1560.09,-740.93 1560.09,-726.03"/>
<polygon fill="black" stroke="black" points="1563.59,-725.71 1560.09,-715.71 1556.59,-725.71 1563.59,-725.71"/>
<text text-anchor="middle" x="1565.09" y="-737.51" font-family="Helvetica,sans-Serif" font-size="14.00">1</text>
</g>
<!-- 36 -->
<g id="node32" class="node">
<title>36</title>
<ellipse fill="#ade544" stroke="black" cx="1834.09" cy="-676.71" rx="118.17" ry="35.21"/>
<text text-anchor="start" x="1795.09" y="-687.51" font-family="Helvetica,sans-Serif" font-weight="bold" font-size="14.00"> Class=3 </text>
<text text-anchor="start" x="1868.09" y="-687.51" font-family="Helvetica,sans-Serif" font-size="14.00"> </text>
<text text-anchor="start" x="1760.09" y="-673.51" font-family="Helvetica,sans-Serif" font-size="14.00"> error: 0.028, n=207 </text>
<text text-anchor="start" x="1758.59" y="-659.51" font-family="Helvetica,sans-Serif" font-size="14.00"> p: (0.00, 0.00, 1.00) </text>
</g>
<!-- 29&#45;&gt;36 -->
<g id="edge31" class="edge">
<title>29:s&#45;&gt;36:n</title>
<path fill="none" stroke="black" d="M1560.09,-766.71C1560.09,-766.71 1774.58,-725.22 1824.01,-715.66"/>
<polygon fill="black" stroke="black" points="1824.93,-719.05 1834.09,-713.71 1823.6,-712.17 1824.93,-719.05"/>
<text text-anchor="middle" x="1735.09" y="-737.51" font-family="Helvetica,sans-Serif" font-size="14.00">0</text>
</g>
<!-- 31 -->
<g id="node33" class="node">
<title>31</title>
<polygon fill="#59cc3d" stroke="black" points="1813.59,-586.71 1646.59,-586.71 1646.59,-508.71 1813.59,-508.71 1813.59,-586.71"/>
<text text-anchor="start" x="1691.09" y="-572.51" font-family="Helvetica,sans-Serif" font-weight="bold" font-size="14.00"> Class=1 </text>
<text text-anchor="start" x="1764.09" y="-572.51" font-family="Helvetica,sans-Serif" font-size="14.00"> </text>
<text text-anchor="start" x="1656.09" y="-558.51" font-family="Helvetica,sans-Serif" font-size="14.00"> error: 0.364, n=146 </text>
<text text-anchor="start" x="1654.59" y="-544.51" font-family="Helvetica,sans-Serif" font-size="14.00"> p: (0.86, 0.00, 0.14) </text>
<text text-anchor="start" x="1722.09" y="-530.51" font-family="Helvetica,sans-Serif" font-size="14.00">&#45;&#45;&#45;</text>
<text text-anchor="start" x="1714.59" y="-516.51" font-family="Helvetica,sans-Serif" font-weight="bold" font-size="14.00">A93</text>
</g>
<!-- 30&#45;&gt;31 -->
<g id="edge32" class="edge">
<title>30:s&#45;&gt;31:n</title>
<path fill="none" stroke="black" d="M1560.09,-637.71C1560.09,-637.71 1684.5,-600.39 1720.46,-589.6"/>
<polygon fill="black" stroke="black" points="1721.51,-592.94 1730.09,-586.71 1719.5,-586.23 1721.51,-592.94"/>
<text text-anchor="middle" x="1671.09" y="-608.51" font-family="Helvetica,sans-Serif" font-size="14.00">1</text>
</g>
<!-- 32 -->
<g id="node34" class="node">
<title>32</title>
<polygon fill="#44e56d" stroke="black" points="1813.59,-457.71 1646.59,-457.71 1646.59,-379.71 1813.59,-379.71 1813.59,-457.71"/>
<text text-anchor="start" x="1691.09" y="-443.51" font-family="Helvetica,sans-Serif" font-weight="bold" font-size="14.00"> Class=1 </text>
<text text-anchor="start" x="1764.09" y="-443.51" font-family="Helvetica,sans-Serif" font-size="14.00"> </text>
<text text-anchor="start" x="1656.09" y="-429.51" font-family="Helvetica,sans-Serif" font-size="14.00"> error: 0.254, n=137 </text>
<text text-anchor="start" x="1654.59" y="-415.51" font-family="Helvetica,sans-Serif" font-size="14.00"> p: (0.92, 0.00, 0.08) </text>
<text text-anchor="start" x="1722.09" y="-401.51" font-family="Helvetica,sans-Serif" font-size="14.00">&#45;&#45;&#45;</text>
<text text-anchor="start" x="1714.59" y="-387.51" font-family="Helvetica,sans-Serif" font-weight="bold" font-size="14.00">A94</text>
</g>
<!-- 31&#45;&gt;32 -->
<g id="edge33" class="edge">
<title>31:s&#45;&gt;32:n</title>
<path fill="none" stroke="black" d="M1730.09,-508.71C1730.09,-508.71 1730.09,-482.93 1730.09,-468.03"/>
<polygon fill="black" stroke="black" points="1733.59,-467.71 1730.09,-457.71 1726.59,-467.71 1733.59,-467.71"/>
<text text-anchor="middle" x="1735.09" y="-479.51" font-family="Helvetica,sans-Serif" font-size="14.00">0</text>
</g>
<!-- 33 -->
<g id="node35" class="node">
<title>33</title>
<polygon fill="#3dcca1" stroke="black" points="1813.59,-328.71 1646.59,-328.71 1646.59,-250.71 1813.59,-250.71 1813.59,-328.71"/>
<text text-anchor="start" x="1691.09" y="-314.51" font-family="Helvetica,sans-Serif" font-weight="bold" font-size="14.00"> Class=1 </text>
<text text-anchor="start" x="1764.09" y="-314.51" font-family="Helvetica,sans-Serif" font-size="14.00"> </text>
<text text-anchor="start" x="1656.09" y="-300.51" font-family="Helvetica,sans-Serif" font-size="14.00"> error: 0.168, n=132 </text>
<text text-anchor="start" x="1654.59" y="-286.51" font-family="Helvetica,sans-Serif" font-size="14.00"> p: (0.95, 0.00, 0.05) </text>
<text text-anchor="start" x="1722.09" y="-272.51" font-family="Helvetica,sans-Serif" font-size="14.00">&#45;&#45;&#45;</text>
<text text-anchor="start" x="1714.59" y="-258.51" font-family="Helvetica,sans-Serif" font-weight="bold" font-size="14.00">A95</text>
</g>
<!-- 32&#45;&gt;33 -->
<g id="edge34" class="edge">
<title>32:s&#45;&gt;33:n</title>
<path fill="none" stroke="black" d="M1730.09,-379.71C1730.09,-379.71 1730.09,-353.93 1730.09,-339.03"/>
<polygon fill="black" stroke="black" points="1733.59,-338.71 1730.09,-328.71 1726.59,-338.71 1733.59,-338.71"/>
<text text-anchor="middle" x="1735.09" y="-350.51" font-family="Helvetica,sans-Serif" font-size="14.00">0</text>
</g>
<!-- 34 -->
<g id="node36" class="node">
<title>34</title>
<polygon fill="#44cde5" stroke="black" points="1813.59,-199.71 1646.59,-199.71 1646.59,-121.71 1813.59,-121.71 1813.59,-199.71"/>
<text text-anchor="start" x="1691.09" y="-185.51" font-family="Helvetica,sans-Serif" font-weight="bold" font-size="14.00"> Class=1 </text>
<text text-anchor="start" x="1764.09" y="-185.51" font-family="Helvetica,sans-Serif" font-size="14.00"> </text>
<text text-anchor="start" x="1656.09" y="-171.51" font-family="Helvetica,sans-Serif" font-size="14.00"> error: 0.042, n=127 </text>
<text text-anchor="start" x="1654.59" y="-157.51" font-family="Helvetica,sans-Serif" font-size="14.00"> p: (0.99, 0.00, 0.01) </text>
<text text-anchor="start" x="1722.09" y="-143.51" font-family="Helvetica,sans-Serif" font-size="14.00">&#45;&#45;&#45;</text>
<text text-anchor="start" x="1714.59" y="-129.51" font-family="Helvetica,sans-Serif" font-weight="bold" font-size="14.00">A97</text>
</g>
<!-- 33&#45;&gt;34 -->
<g id="edge35" class="edge">
<title>33:s&#45;&gt;34:n</title>
<path fill="none" stroke="black" d="M1730.09,-250.71C1730.09,-250.71 1730.09,-224.93 1730.09,-210.03"/>
<polygon fill="black" stroke="black" points="1733.59,-209.71 1730.09,-199.71 1726.59,-209.71 1733.59,-209.71"/>
<text text-anchor="middle" x="1735.09" y="-221.51" font-family="Helvetica,sans-Serif" font-size="14.00">0</text>
</g>
<!-- 35 -->
<g id="node37" class="node">
<title>35</title>
<ellipse fill="#3d76cc" stroke="black" cx="1730.09" cy="-35.36" rx="118.17" ry="35.21"/>
<text text-anchor="start" x="1691.09" y="-46.16" font-family="Helvetica,sans-Serif" font-weight="bold" font-size="14.00"> Class=1 </text>
<text text-anchor="start" x="1764.09" y="-46.16" font-family="Helvetica,sans-Serif" font-size="14.00"> </text>
<text text-anchor="start" x="1656.09" y="-32.16" font-family="Helvetica,sans-Serif" font-size="14.00"> error: 0.000, n=126 </text>
<text text-anchor="start" x="1654.59" y="-18.16" font-family="Helvetica,sans-Serif" font-size="14.00"> p: (1.00, 0.00, 0.00) </text>
</g>
<!-- 34&#45;&gt;35 -->
<g id="edge36" class="edge">
<title>34:s&#45;&gt;35:n</title>
<path fill="none" stroke="black" d="M1730.09,-121.71C1730.09,-121.71 1730.09,-95.93 1730.09,-81.03"/>
<polygon fill="black" stroke="black" points="1733.59,-80.71 1730.09,-70.71 1726.59,-80.71 1733.59,-80.71"/>
<text text-anchor="middle" x="1735.09" y="-92.51" font-family="Helvetica,sans-Serif" font-size="14.00">0</text>
</g>
</g>
</svg>
