<?xml version="1.0" encoding="UTF-8" standalone="no"?>
<!DOCTYPE svg PUBLIC "-//W3C//DTD SVG 1.1//EN"
 "http://www.w3.org/Graphics/SVG/1.1/DTD/svg11.dtd">
<!-- Generated by graphviz version 2.43.0 (0)
 -->
<!-- Title: Tree Pages: 1 -->
<svg width="1101pt" height="438pt"
 viewBox="0.00 0.00 1101.20 437.71" xmlns="http://www.w3.org/2000/svg" xmlns:xlink="http://www.w3.org/1999/xlink">
<g id="graph0" class="graph" transform="scale(1 1) rotate(0) translate(18 419.71)">
<title>Tree</title>
<polygon fill="white" stroke="transparent" points="-18,18 -18,-419.71 1083.2,-419.71 1083.2,18 -18,18"/>
<!-- 0 -->
<g id="node1" class="node">
<title>0</title>
<polygon fill="white" stroke="transparent" points="545.6,-401.71 491.6,-401.71 491.6,-365.71 545.6,-365.71 545.6,-401.71"/>
<text text-anchor="middle" x="518.6" y="-380.01" font-family="Helvetica,sans-Serif" font-size="14.00">0</text>
</g>
<!-- 1 -->
<g id="node2" class="node">
<title>1</title>
<polygon fill="#cc3d3d" stroke="black" points="600.6,-328.71 436.6,-328.71 436.6,-250.71 600.6,-250.71 600.6,-328.71"/>
<text text-anchor="start" x="479.6" y="-314.51" font-family="Helvetica,sans-Serif" font-weight="bold" font-size="14.00"> Class=1 </text>
<text text-anchor="start" x="552.6" y="-314.51" font-family="Helvetica,sans-Serif" font-size="14.00"> </text>
<text text-anchor="start" x="444.6" y="-300.51" font-family="Helvetica,sans-Serif" font-size="14.00"> error: 0.981, n=500 </text>
<text text-anchor="start" x="463.6" y="-286.51" font-family="Helvetica,sans-Serif" font-size="14.00"> p: (0.58, 0.42) </text>
<text text-anchor="start" x="510.6" y="-272.51" font-family="Helvetica,sans-Serif" font-size="14.00">&#45;&#45;&#45;</text>
<text text-anchor="start" x="503.1" y="-258.51" font-family="Helvetica,sans-Serif" font-weight="bold" font-size="14.00">V10</text>
</g>
<!-- 0&#45;&gt;1 -->
<!-- 2 -->
<g id="node3" class="node">
<title>2</title>
<polygon fill="#64e544" stroke="black" points="191.6,-199.71 27.6,-199.71 27.6,-121.71 191.6,-121.71 191.6,-199.71"/>
<text text-anchor="start" x="70.6" y="-185.51" font-family="Helvetica,sans-Serif" font-weight="bold" font-size="14.00"> Class=1 </text>
<text text-anchor="start" x="143.6" y="-185.51" font-family="Helvetica,sans-Serif" font-size="14.00"> </text>
<text text-anchor="start" x="35.6" y="-171.51" font-family="Helvetica,sans-Serif" font-size="14.00"> error: 0.982, n=152 </text>
<text text-anchor="start" x="54.6" y="-157.51" font-family="Helvetica,sans-Serif" font-size="14.00"> p: (0.58, 0.42) </text>
<text text-anchor="start" x="101.6" y="-143.51" font-family="Helvetica,sans-Serif" font-size="14.00">&#45;&#45;&#45;</text>
<text text-anchor="start" x="94.1" y="-129.51" font-family="Helvetica,sans-Serif" font-weight="bold" font-size="14.00">V12</text>
</g>
<!-- 1&#45;&gt;2 -->
<g id="edge2" class="edge">
<title>1:s&#45;&gt;2:n</title>
<path fill="none" stroke="black" d="M518.6,-250.71C518.6,-250.71 182.69,-208.82 119.71,-200.97"/>
<polygon fill="black" stroke="black" points="119.96,-197.48 109.6,-199.71 119.09,-204.42 119.96,-197.48"/>
<text text-anchor="middle" x="389.6" y="-221.51" font-family="Helvetica,sans-Serif" font-size="14.00">cotton</text>
</g>
<!-- 4 -->
<g id="node4" class="node">
<title>4</title>
<ellipse fill="#64e544" stroke="black" cx="373.6" cy="-160.71" rx="109.7" ry="35.21"/>
<text text-anchor="start" x="334.6" y="-171.51" font-family="Helvetica,sans-Serif" font-weight="bold" font-size="14.00"> Class=1 </text>
<text text-anchor="start" x="407.6" y="-171.51" font-family="Helvetica,sans-Serif" font-size="14.00"> </text>
<text text-anchor="start" x="304.1" y="-157.51" font-family="Helvetica,sans-Serif" font-size="14.00"> error: 0.904, n=25 </text>
<text text-anchor="start" x="318.6" y="-143.51" font-family="Helvetica,sans-Serif" font-size="14.00"> p: (0.68, 0.32) </text>
</g>
<!-- 1&#45;&gt;4 -->
<g id="edge3" class="edge">
<title>1:s&#45;&gt;4:n</title>
<path fill="none" stroke="black" d="M518.6,-250.71C518.6,-250.71 415.37,-212.98 383.12,-201.19"/>
<polygon fill="black" stroke="black" points="384.2,-197.86 373.6,-197.71 381.79,-204.43 384.2,-197.86"/>
<text text-anchor="middle" x="511.6" y="-221.51" font-family="Helvetica,sans-Serif" font-size="14.00">chiffonfabric</text>
</g>
<!-- 5 -->
<g id="node5" class="node">
<title>5</title>
<ellipse fill="#64e544" stroke="black" cx="664.6" cy="-160.71" rx="109.7" ry="35.21"/>
<text text-anchor="start" x="625.6" y="-171.51" font-family="Helvetica,sans-Serif" font-weight="bold" font-size="14.00"> Class=1 </text>
<text text-anchor="start" x="698.6" y="-171.51" font-family="Helvetica,sans-Serif" font-size="14.00"> </text>
<text text-anchor="start" x="595.1" y="-157.51" font-family="Helvetica,sans-Serif" font-size="14.00"> error: 0.996, n=26 </text>
<text text-anchor="start" x="609.6" y="-143.51" font-family="Helvetica,sans-Serif" font-size="14.00"> p: (0.54, 0.46) </text>
</g>
<!-- 1&#45;&gt;5 -->
<g id="edge4" class="edge">
<title>1:s&#45;&gt;5:n</title>
<path fill="none" stroke="black" d="M518.6,-250.71C518.6,-250.71 622.54,-212.98 655.02,-201.19"/>
<polygon fill="black" stroke="black" points="656.4,-204.41 664.6,-197.71 654.01,-197.83 656.4,-204.41"/>
<text text-anchor="middle" x="623.6" y="-221.51" font-family="Helvetica,sans-Serif" font-size="14.00">silk</text>
</g>
<!-- 6 -->
<g id="node6" class="node">
<title>6</title>
<ellipse fill="#64e544" stroke="black" cx="955.6" cy="-160.71" rx="109.7" ry="35.21"/>
<text text-anchor="start" x="916.6" y="-171.51" font-family="Helvetica,sans-Serif" font-weight="bold" font-size="14.00"> Class=1 </text>
<text text-anchor="start" x="989.6" y="-171.51" font-family="Helvetica,sans-Serif" font-size="14.00"> </text>
<text text-anchor="start" x="886.1" y="-157.51" font-family="Helvetica,sans-Serif" font-size="14.00"> error: 0.897, n=99 </text>
<text text-anchor="start" x="900.6" y="-143.51" font-family="Helvetica,sans-Serif" font-size="14.00"> p: (0.69, 0.31) </text>
</g>
<!-- 1&#45;&gt;6 -->
<g id="edge5" class="edge">
<title>1:s&#45;&gt;6:n</title>
<path fill="none" stroke="black" d="M518.6,-250.71C518.6,-250.71 880.61,-206.81 945.65,-198.92"/>
<polygon fill="black" stroke="black" points="946.1,-202.39 955.6,-197.71 945.25,-195.44 946.1,-202.39"/>
<text text-anchor="middle" x="818.1" y="-221.51" font-family="Helvetica,sans-Serif" font-size="14.00">polyster</text>
</g>
<!-- 3 -->
<g id="node7" class="node">
<title>3</title>
<ellipse fill="#3d76cc" stroke="black" cx="109.6" cy="-35.36" rx="109.7" ry="35.21"/>
<text text-anchor="start" x="70.6" y="-46.16" font-family="Helvetica,sans-Serif" font-weight="bold" font-size="14.00"> Class=2 </text>
<text text-anchor="start" x="143.6" y="-46.16" font-family="Helvetica,sans-Serif" font-size="14.00"> </text>
<text text-anchor="start" x="40.1" y="-32.16" font-family="Helvetica,sans-Serif" font-size="14.00"> error: 0.949, n=19 </text>
<text text-anchor="start" x="54.6" y="-18.16" font-family="Helvetica,sans-Serif" font-size="14.00"> p: (0.37, 0.63) </text>
</g>
<!-- 2&#45;&gt;3 -->
<g id="edge6" class="edge">
<title>2:s&#45;&gt;3:n</title>
<path fill="none" stroke="black" d="M109.6,-121.71C109.6,-121.71 109.6,-95.93 109.6,-81.03"/>
<polygon fill="black" stroke="black" points="113.1,-80.71 109.6,-70.71 106.1,-80.71 113.1,-80.71"/>
<text text-anchor="middle" x="123.6" y="-92.51" font-family="Helvetica,sans-Serif" font-size="14.00">lace</text>
</g>
</g>
</svg>
