<?xml version="1.0" encoding="UTF-8" standalone="no"?>
<!DOCTYPE svg PUBLIC "-//W3C//DTD SVG 1.1//EN"
 "http://www.w3.org/Graphics/SVG/1.1/DTD/svg11.dtd">
<!-- Generated by graphviz version 2.43.0 (0)
 -->
<!-- Title: Tree Pages: 1 -->
<svg width="1244pt" height="438pt"
 viewBox="0.00 0.00 1244.02 437.71" xmlns="http://www.w3.org/2000/svg" xmlns:xlink="http://www.w3.org/1999/xlink">
<g id="graph0" class="graph" transform="scale(1 1) rotate(0) translate(18 419.71)">
<title>Tree</title>
<polygon fill="white" stroke="transparent" points="-18,18 -18,-419.71 1226.02,-419.71 1226.02,18 -18,18"/>
<!-- 0 -->
<g id="node1" class="node">
<title>0</title>
<polygon fill="white" stroke="transparent" points="624.33,-401.71 570.33,-401.71 570.33,-365.71 624.33,-365.71 624.33,-401.71"/>
<text text-anchor="middle" x="597.33" y="-380.01" font-family="Helvetica,sans-Serif" font-size="14.00">0</text>
</g>
<!-- 1 -->
<g id="node2" class="node">
<title>1</title>
<polygon fill="#cc3d3d" stroke="black" points="688.33,-328.71 506.33,-328.71 506.33,-250.71 688.33,-250.71 688.33,-328.71"/>
<text text-anchor="start" x="537.83" y="-314.51" font-family="Helvetica,sans-Serif" font-weight="bold" font-size="14.00"> Class=DOWN </text>
<text text-anchor="start" x="651.83" y="-314.51" font-family="Helvetica,sans-Serif" font-size="14.00"> </text>
<text text-anchor="start" x="514.33" y="-300.51" font-family="Helvetica,sans-Serif" font-size="14.00"> error: 0.984, n=45312 </text>
<text text-anchor="start" x="542.33" y="-286.51" font-family="Helvetica,sans-Serif" font-size="14.00"> p: (0.58, 0.42) </text>
<text text-anchor="start" x="575.83" y="-272.51" font-family="Helvetica,sans-Serif" font-size="14.00">&#45;&#45;&#45;&#45;&#45;&#45;&#45;&#45;</text>
<text text-anchor="start" x="562.33" y="-258.51" font-family="Helvetica,sans-Serif" font-weight="bold" font-size="14.00">nswprice</text>
</g>
<!-- 0&#45;&gt;1 -->
<!-- 2 -->
<g id="node3" class="node">
<title>2</title>
<polygon fill="#64e544" stroke="black" points="530.33,-199.71 348.33,-199.71 348.33,-121.71 530.33,-121.71 530.33,-199.71"/>
<text text-anchor="start" x="394.33" y="-185.51" font-family="Helvetica,sans-Serif" font-weight="bold" font-size="14.00"> Class=UP </text>
<text text-anchor="start" x="479.33" y="-185.51" font-family="Helvetica,sans-Serif" font-size="14.00"> </text>
<text text-anchor="start" x="356.33" y="-171.51" font-family="Helvetica,sans-Serif" font-size="14.00"> error: 0.727, n=13803 </text>
<text text-anchor="start" x="384.33" y="-157.51" font-family="Helvetica,sans-Serif" font-size="14.00"> p: (0.20, 0.80) </text>
<text text-anchor="start" x="417.83" y="-143.51" font-family="Helvetica,sans-Serif" font-size="14.00">&#45;&#45;&#45;&#45;&#45;&#45;&#45;&#45;</text>
<text text-anchor="start" x="404.33" y="-129.51" font-family="Helvetica,sans-Serif" font-weight="bold" font-size="14.00">nswprice</text>
</g>
<!-- 1&#45;&gt;2 -->
<g id="edge2" class="edge">
<title>1:s&#45;&gt;2:n</title>
<path fill="none" stroke="black" d="M597.33,-250.71C597.33,-250.71 483.8,-214.07 449.21,-202.9"/>
<polygon fill="black" stroke="black" points="449.92,-199.45 439.33,-199.71 447.77,-206.11 449.92,-199.45"/>
<text text-anchor="middle" x="575.33" y="-221.51" font-family="Helvetica,sans-Serif" font-size="14.00">&gt; 0.06722</text>
</g>
<!-- 5 -->
<g id="node4" class="node">
<title>5</title>
<polygon fill="#64e544" stroke="black" points="847.33,-199.71 665.33,-199.71 665.33,-121.71 847.33,-121.71 847.33,-199.71"/>
<text text-anchor="start" x="696.83" y="-185.51" font-family="Helvetica,sans-Serif" font-weight="bold" font-size="14.00"> Class=DOWN </text>
<text text-anchor="start" x="810.83" y="-185.51" font-family="Helvetica,sans-Serif" font-size="14.00"> </text>
<text text-anchor="start" x="673.33" y="-171.51" font-family="Helvetica,sans-Serif" font-size="14.00"> error: 0.828, n=31509 </text>
<text text-anchor="start" x="701.33" y="-157.51" font-family="Helvetica,sans-Serif" font-size="14.00"> p: (0.74, 0.26) </text>
<text text-anchor="start" x="732.33" y="-143.51" font-family="Helvetica,sans-Serif" font-size="14.00">&#45;&#45;&#45;&#45;&#45;&#45;&#45;&#45;&#45;</text>
<text text-anchor="start" x="709.33" y="-129.51" font-family="Helvetica,sans-Serif" font-weight="bold" font-size="14.00">nswdemand</text>
</g>
<!-- 1&#45;&gt;5 -->
<g id="edge3" class="edge">
<title>1:s&#45;&gt;5:n</title>
<path fill="none" stroke="black" d="M597.33,-250.71C597.33,-250.71 711.57,-214.07 746.38,-202.9"/>
<polygon fill="black" stroke="black" points="747.88,-206.1 756.33,-199.71 745.74,-199.43 747.88,-206.1"/>
<text text-anchor="middle" x="740.33" y="-221.51" font-family="Helvetica,sans-Serif" font-size="14.00">&lt;= 0.06722</text>
</g>
<!-- 3 -->
<g id="node5" class="node">
<title>3</title>
<ellipse fill="#3d76cc" stroke="black" cx="122.33" cy="-35.36" rx="122.16" ry="35.21"/>
<text text-anchor="start" x="77.33" y="-46.16" font-family="Helvetica,sans-Serif" font-weight="bold" font-size="14.00"> Class=UP </text>
<text text-anchor="start" x="162.33" y="-46.16" font-family="Helvetica,sans-Serif" font-size="14.00"> </text>
<text text-anchor="start" x="43.83" y="-32.16" font-family="Helvetica,sans-Serif" font-size="14.00"> error: 0.956, n=3835 </text>
<text text-anchor="start" x="67.33" y="-18.16" font-family="Helvetica,sans-Serif" font-size="14.00"> p: (0.38, 0.62) </text>
</g>
<!-- 2&#45;&gt;3 -->
<g id="edge4" class="edge">
<title>2:s&#45;&gt;3:n</title>
<path fill="none" stroke="black" d="M439.33,-121.71C439.33,-121.71 186.78,-81.08 132.52,-72.35"/>
<polygon fill="black" stroke="black" points="132.76,-68.84 122.33,-70.71 131.65,-75.75 132.76,-68.84"/>
<text text-anchor="middle" x="363.33" y="-92.51" font-family="Helvetica,sans-Serif" font-size="14.00">&lt;= 0.07587</text>
</g>
<!-- 4 -->
<g id="node6" class="node">
<title>4</title>
<ellipse fill="#3d76cc" stroke="black" cx="439.33" cy="-35.36" rx="122.16" ry="35.21"/>
<text text-anchor="start" x="394.33" y="-46.16" font-family="Helvetica,sans-Serif" font-weight="bold" font-size="14.00"> Class=UP </text>
<text text-anchor="start" x="479.33" y="-46.16" font-family="Helvetica,sans-Serif" font-size="14.00"> </text>
<text text-anchor="start" x="360.83" y="-32.16" font-family="Helvetica,sans-Serif" font-size="14.00"> error: 0.572, n=9968 </text>
<text text-anchor="start" x="384.33" y="-18.16" font-family="Helvetica,sans-Serif" font-size="14.00"> p: (0.14, 0.86) </text>
</g>
<!-- 2&#45;&gt;4 -->
<g id="edge5" class="edge">
<title>2:s&#45;&gt;4:n</title>
<path fill="none" stroke="black" d="M439.33,-121.71C439.33,-121.71 439.33,-95.93 439.33,-81.03"/>
<polygon fill="black" stroke="black" points="442.83,-80.71 439.33,-70.71 435.83,-80.71 442.83,-80.71"/>
<text text-anchor="middle" x="477.33" y="-92.51" font-family="Helvetica,sans-Serif" font-size="14.00">&gt; 0.07587</text>
</g>
<!-- 6 -->
<g id="node7" class="node">
<title>6</title>
<ellipse fill="#3d76cc" stroke="black" cx="756.33" cy="-35.36" rx="122.16" ry="35.21"/>
<text text-anchor="start" x="696.83" y="-46.16" font-family="Helvetica,sans-Serif" font-weight="bold" font-size="14.00"> Class=DOWN </text>
<text text-anchor="start" x="810.83" y="-46.16" font-family="Helvetica,sans-Serif" font-size="14.00"> </text>
<text text-anchor="start" x="677.83" y="-32.16" font-family="Helvetica,sans-Serif" font-size="14.00"> error: 0.342, n=5295 </text>
<text text-anchor="start" x="701.33" y="-18.16" font-family="Helvetica,sans-Serif" font-size="14.00"> p: (0.94, 0.06) </text>
</g>
<!-- 5&#45;&gt;6 -->
<g id="edge6" class="edge">
<title>5:s&#45;&gt;6:n</title>
<path fill="none" stroke="black" d="M756.33,-121.71C756.33,-121.71 756.33,-95.93 756.33,-81.03"/>
<polygon fill="black" stroke="black" points="759.83,-80.71 756.33,-70.71 752.83,-80.71 759.83,-80.71"/>
<text text-anchor="middle" x="795.83" y="-92.51" font-family="Helvetica,sans-Serif" font-size="14.00">&lt;= 0.2126</text>
</g>
<!-- 7 -->
<g id="node8" class="node">
<title>7</title>
<ellipse fill="#3d76cc" stroke="black" cx="1079.33" cy="-35.36" rx="128.89" ry="35.21"/>
<text text-anchor="start" x="1019.83" y="-46.16" font-family="Helvetica,sans-Serif" font-weight="bold" font-size="14.00"> Class=DOWN </text>
<text text-anchor="start" x="1133.83" y="-46.16" font-family="Helvetica,sans-Serif" font-size="14.00"> </text>
<text text-anchor="start" x="996.33" y="-32.16" font-family="Helvetica,sans-Serif" font-size="14.00"> error: 0.883, n=26214 </text>
<text text-anchor="start" x="1024.33" y="-18.16" font-family="Helvetica,sans-Serif" font-size="14.00"> p: (0.70, 0.30) </text>
</g>
<!-- 5&#45;&gt;7 -->
<g id="edge7" class="edge">
<title>5:s&#45;&gt;7:n</title>
<path fill="none" stroke="black" d="M756.33,-121.71C756.33,-121.71 1014.79,-80.9 1069.31,-72.29"/>
<polygon fill="black" stroke="black" points="1070,-75.73 1079.33,-70.71 1068.91,-68.81 1070,-75.73"/>
<text text-anchor="middle" x="988.83" y="-92.51" font-family="Helvetica,sans-Serif" font-size="14.00">&gt; 0.2126</text>
</g>
</g>
</svg>
