<?xml version="1.0" encoding="UTF-8" standalone="no"?>
<!DOCTYPE svg PUBLIC "-//W3C//DTD SVG 1.1//EN"
 "http://www.w3.org/Graphics/SVG/1.1/DTD/svg11.dtd">
<!-- Generated by graphviz version 2.43.0 (0)
 -->
<!-- Title: Tree Pages: 1 -->
<svg width="5834pt" height="438pt"
 viewBox="0.00 0.00 5833.72 437.71" xmlns="http://www.w3.org/2000/svg" xmlns:xlink="http://www.w3.org/1999/xlink">
<g id="graph0" class="graph" transform="scale(1 1) rotate(0) translate(18 419.71)">
<title>Tree</title>
<polygon fill="white" stroke="transparent" points="-18,18 -18,-419.71 5815.72,-419.71 5815.72,18 -18,18"/>
<!-- 0 -->
<g id="node1" class="node">
<title>0</title>
<polygon fill="white" stroke="transparent" points="2899.36,-401.71 2845.36,-401.71 2845.36,-365.71 2899.36,-365.71 2899.36,-401.71"/>
<text text-anchor="middle" x="2872.36" y="-380.01" font-family="Helvetica,sans-Serif" font-size="14.00">0</text>
</g>
<!-- 1 -->
<g id="node2" class="node">
<title>1</title>
<polygon fill="#cc3d3d" stroke="black" points="2996.36,-328.71 2748.36,-328.71 2748.36,-250.71 2996.36,-250.71 2996.36,-328.71"/>
<text text-anchor="start" x="2818.86" y="-314.51" font-family="Helvetica,sans-Serif" font-weight="bold" font-size="14.00"> Class=good </text>
<text text-anchor="start" x="2920.86" y="-314.51" font-family="Helvetica,sans-Serif" font-size="14.00"> </text>
<text text-anchor="start" x="2798.36" y="-300.51" font-family="Helvetica,sans-Serif" font-size="14.00"> error: 0.974, n=736 </text>
<text text-anchor="start" x="2756.36" y="-286.51" font-family="Helvetica,sans-Serif" font-size="14.00"> p: (0.18, 0.14, 0.29, 0.15, 0.24) </text>
<text text-anchor="start" x="2866.86" y="-272.51" font-family="Helvetica,sans-Serif" font-size="14.00">&#45;&#45;</text>
<text text-anchor="start" x="2862.36" y="-258.51" font-family="Helvetica,sans-Serif" font-weight="bold" font-size="14.00">Sp</text>
</g>
<!-- 0&#45;&gt;1 -->
<!-- 2 -->
<g id="node3" class="node">
<title>2</title>
<polygon fill="#64e544" stroke="black" points="299.36,-199.71 51.36,-199.71 51.36,-121.71 299.36,-121.71 299.36,-199.71"/>
<text text-anchor="start" x="121.86" y="-185.51" font-family="Helvetica,sans-Serif" font-weight="bold" font-size="14.00"> Class=none </text>
<text text-anchor="start" x="223.86" y="-185.51" font-family="Helvetica,sans-Serif" font-size="14.00"> </text>
<text text-anchor="start" x="105.86" y="-171.51" font-family="Helvetica,sans-Serif" font-size="14.00"> error: 0.791, n=48 </text>
<text text-anchor="start" x="59.36" y="-157.51" font-family="Helvetica,sans-Serif" font-size="14.00"> p: (0.15, 0.12, 0.33, 0.00, 0.40) </text>
<text text-anchor="start" x="159.36" y="-143.51" font-family="Helvetica,sans-Serif" font-size="14.00">&#45;&#45;&#45;&#45;&#45;&#45;</text>
<text text-anchor="start" x="147.36" y="-129.51" font-family="Helvetica,sans-Serif" font-weight="bold" font-size="14.00">Abbrev</text>
</g>
<!-- 1&#45;&gt;2 -->
<g id="edge2" class="edge">
<title>1:s&#45;&gt;2:n</title>
<path fill="none" stroke="black" d="M2872.36,-250.71C2872.36,-250.71 364.2,-203.28 185.4,-199.9"/>
<polygon fill="black" stroke="black" points="185.43,-196.4 175.36,-199.71 185.29,-203.4 185.43,-196.4"/>
<text text-anchor="middle" x="1040.36" y="-221.51" font-family="Helvetica,sans-Serif" font-size="14.00">am</text>
</g>
<!-- 4 -->
<g id="node4" class="node">
<title>4</title>
<ellipse fill="#64e544" stroke="black" cx="546.36" cy="-160.71" rx="175.23" ry="35.21"/>
<text text-anchor="start" x="492.86" y="-171.51" font-family="Helvetica,sans-Serif" font-weight="bold" font-size="14.00"> Class=good </text>
<text text-anchor="start" x="594.86" y="-171.51" font-family="Helvetica,sans-Serif" font-size="14.00"> </text>
<text text-anchor="start" x="476.86" y="-157.51" font-family="Helvetica,sans-Serif" font-size="14.00"> error: 0.878, n=82 </text>
<text text-anchor="start" x="430.36" y="-143.51" font-family="Helvetica,sans-Serif" font-size="14.00"> p: (0.21, 0.30, 0.35, 0.05, 0.09) </text>
</g>
<!-- 1&#45;&gt;4 -->
<g id="edge3" class="edge">
<title>1:s&#45;&gt;4:n</title>
<path fill="none" stroke="black" d="M2872.36,-250.71C2872.36,-250.71 724.53,-201.77 556.73,-197.95"/>
<polygon fill="black" stroke="black" points="556.44,-194.44 546.36,-197.71 556.28,-201.44 556.44,-194.44"/>
<text text-anchor="middle" x="1440.36" y="-221.51" font-family="Helvetica,sans-Serif" font-size="14.00">re</text>
</g>
<!-- 5 -->
<g id="node5" class="node">
<title>5</title>
<ellipse fill="#64e544" stroke="black" cx="969.36" cy="-160.71" rx="175.23" ry="35.21"/>
<text text-anchor="start" x="915.86" y="-171.51" font-family="Helvetica,sans-Serif" font-weight="bold" font-size="14.00"> Class=none </text>
<text text-anchor="start" x="1017.86" y="-171.51" font-family="Helvetica,sans-Serif" font-size="14.00"> </text>
<text text-anchor="start" x="899.86" y="-157.51" font-family="Helvetica,sans-Serif" font-size="14.00"> error: 0.423, n=19 </text>
<text text-anchor="start" x="853.36" y="-143.51" font-family="Helvetica,sans-Serif" font-size="14.00"> p: (0.00, 0.00, 0.00, 0.42, 0.58) </text>
</g>
<!-- 1&#45;&gt;5 -->
<g id="edge4" class="edge">
<title>1:s&#45;&gt;5:n</title>
<path fill="none" stroke="black" d="M2872.36,-250.71C2872.36,-250.71 1129.39,-202.17 979.6,-198"/>
<polygon fill="black" stroke="black" points="979.46,-194.49 969.36,-197.71 979.26,-201.49 979.46,-194.49"/>
<text text-anchor="middle" x="1817.36" y="-221.51" font-family="Helvetica,sans-Serif" font-size="14.00">ka</text>
</g>
<!-- 6 -->
<g id="node6" class="node">
<title>6</title>
<ellipse fill="#64e544" stroke="black" cx="1392.36" cy="-160.71" rx="175.23" ry="35.21"/>
<text text-anchor="start" x="1338.86" y="-171.51" font-family="Helvetica,sans-Serif" font-weight="bold" font-size="14.00"> Class=good </text>
<text text-anchor="start" x="1440.86" y="-171.51" font-family="Helvetica,sans-Serif" font-size="14.00"> </text>
<text text-anchor="start" x="1322.86" y="-157.51" font-family="Helvetica,sans-Serif" font-size="14.00"> error: 0.917, n=52 </text>
<text text-anchor="start" x="1276.36" y="-143.51" font-family="Helvetica,sans-Serif" font-size="14.00"> p: (0.25, 0.15, 0.38, 0.10, 0.12) </text>
</g>
<!-- 1&#45;&gt;6 -->
<g id="edge5" class="edge">
<title>1:s&#45;&gt;6:n</title>
<path fill="none" stroke="black" d="M2872.36,-250.71C2872.36,-250.71 1533.37,-202.76 1402.6,-198.08"/>
<polygon fill="black" stroke="black" points="1402.48,-194.57 1392.36,-197.71 1402.23,-201.57 1402.48,-194.57"/>
<text text-anchor="middle" x="2163.36" y="-221.51" font-family="Helvetica,sans-Serif" font-size="14.00">fa</text>
</g>
<!-- 7 -->
<g id="node7" class="node">
<title>7</title>
<ellipse fill="#64e544" stroke="black" cx="1815.36" cy="-160.71" rx="175.23" ry="35.21"/>
<text text-anchor="start" x="1767.86" y="-171.51" font-family="Helvetica,sans-Serif" font-weight="bold" font-size="14.00"> Class=low </text>
<text text-anchor="start" x="1857.86" y="-171.51" font-family="Helvetica,sans-Serif" font-size="14.00"> </text>
<text text-anchor="start" x="1745.86" y="-157.51" font-family="Helvetica,sans-Serif" font-size="14.00"> error: 0.803, n=28 </text>
<text text-anchor="start" x="1699.36" y="-143.51" font-family="Helvetica,sans-Serif" font-size="14.00"> p: (0.18, 0.07, 0.04, 0.50, 0.21) </text>
</g>
<!-- 1&#45;&gt;7 -->
<g id="edge6" class="edge">
<title>1:s&#45;&gt;7:n</title>
<path fill="none" stroke="black" d="M2872.36,-250.71C2872.36,-250.71 1933.66,-203.64 1825.49,-198.22"/>
<polygon fill="black" stroke="black" points="1825.53,-194.72 1815.36,-197.71 1825.17,-201.71 1825.53,-194.72"/>
<text text-anchor="middle" x="2454.36" y="-221.51" font-family="Helvetica,sans-Serif" font-size="14.00">br</text>
</g>
<!-- 8 -->
<g id="node8" class="node">
<title>8</title>
<ellipse fill="#64e544" stroke="black" cx="2238.36" cy="-160.71" rx="175.23" ry="35.21"/>
<text text-anchor="start" x="2172.36" y="-171.51" font-family="Helvetica,sans-Serif" font-weight="bold" font-size="14.00"> Class=average </text>
<text text-anchor="start" x="2299.36" y="-171.51" font-family="Helvetica,sans-Serif" font-size="14.00"> </text>
<text text-anchor="start" x="2168.86" y="-157.51" font-family="Helvetica,sans-Serif" font-size="14.00"> error: 0.819, n=17 </text>
<text text-anchor="start" x="2122.36" y="-143.51" font-family="Helvetica,sans-Serif" font-size="14.00"> p: (0.41, 0.00, 0.24, 0.18, 0.18) </text>
</g>
<!-- 1&#45;&gt;8 -->
<g id="edge7" class="edge">
<title>1:s&#45;&gt;8:n</title>
<path fill="none" stroke="black" d="M2872.36,-250.71C2872.36,-250.71 2330.13,-205.38 2248.58,-198.56"/>
<polygon fill="black" stroke="black" points="2248.62,-195.06 2238.36,-197.71 2248.04,-202.03 2248.62,-195.06"/>
<text text-anchor="middle" x="2661.86" y="-221.51" font-family="Helvetica,sans-Serif" font-size="14.00">bxs</text>
</g>
<!-- 9 -->
<g id="node9" class="node">
<title>9</title>
<ellipse fill="#64e544" stroke="black" cx="2661.36" cy="-160.71" rx="175.23" ry="35.21"/>
<text text-anchor="start" x="2607.86" y="-171.51" font-family="Helvetica,sans-Serif" font-weight="bold" font-size="14.00"> Class=none </text>
<text text-anchor="start" x="2709.86" y="-171.51" font-family="Helvetica,sans-Serif" font-size="14.00"> </text>
<text text-anchor="start" x="2591.86" y="-157.51" font-family="Helvetica,sans-Serif" font-size="14.00"> error: 0.737, n=37 </text>
<text text-anchor="start" x="2545.36" y="-143.51" font-family="Helvetica,sans-Serif" font-size="14.00"> p: (0.16, 0.00, 0.05, 0.38, 0.41) </text>
</g>
<!-- 1&#45;&gt;9 -->
<g id="edge8" class="edge">
<title>1:s&#45;&gt;9:n</title>
<path fill="none" stroke="black" d="M2872.36,-250.71C2872.36,-250.71 2712.97,-210.67 2671.26,-200.2"/>
<polygon fill="black" stroke="black" points="2671.91,-196.75 2661.36,-197.71 2670.21,-203.54 2671.91,-196.75"/>
<text text-anchor="middle" x="2805.86" y="-221.51" font-family="Helvetica,sans-Serif" font-size="14.00">rd</text>
</g>
<!-- 10 -->
<g id="node10" class="node">
<title>10</title>
<ellipse fill="#64e544" stroke="black" cx="3084.36" cy="-160.71" rx="175.23" ry="35.21"/>
<text text-anchor="start" x="3030.86" y="-171.51" font-family="Helvetica,sans-Serif" font-weight="bold" font-size="14.00"> Class=none </text>
<text text-anchor="start" x="3132.86" y="-171.51" font-family="Helvetica,sans-Serif" font-size="14.00"> </text>
<text text-anchor="start" x="3014.86" y="-157.51" font-family="Helvetica,sans-Serif" font-size="14.00"> error: 0.818, n=39 </text>
<text text-anchor="start" x="2968.36" y="-143.51" font-family="Helvetica,sans-Serif" font-size="14.00"> p: (0.15, 0.21, 0.23, 0.00, 0.41) </text>
</g>
<!-- 1&#45;&gt;10 -->
<g id="edge9" class="edge">
<title>1:s&#45;&gt;10:n</title>
<path fill="none" stroke="black" d="M2872.36,-250.71C2872.36,-250.71 3032.51,-210.67 3074.42,-200.2"/>
<polygon fill="black" stroke="black" points="3075.51,-203.53 3084.36,-197.71 3073.81,-196.74 3075.51,-203.53"/>
<text text-anchor="middle" x="3013.86" y="-221.51" font-family="Helvetica,sans-Serif" font-size="14.00">pu</text>
</g>
<!-- 11 -->
<g id="node11" class="node">
<title>11</title>
<ellipse fill="#64e544" stroke="black" cx="3507.36" cy="-160.71" rx="175.23" ry="35.21"/>
<text text-anchor="start" x="3441.36" y="-171.51" font-family="Helvetica,sans-Serif" font-weight="bold" font-size="14.00"> Class=average </text>
<text text-anchor="start" x="3568.36" y="-171.51" font-family="Helvetica,sans-Serif" font-size="14.00"> </text>
<text text-anchor="start" x="3437.86" y="-157.51" font-family="Helvetica,sans-Serif" font-size="14.00"> error: 0.983, n=62 </text>
<text text-anchor="start" x="3391.36" y="-143.51" font-family="Helvetica,sans-Serif" font-size="14.00"> p: (0.26, 0.13, 0.24, 0.19, 0.18) </text>
</g>
<!-- 1&#45;&gt;11 -->
<g id="edge10" class="edge">
<title>1:s&#45;&gt;11:n</title>
<path fill="none" stroke="black" d="M2872.36,-250.71C2872.36,-250.71 3416.6,-205.29 3497.39,-198.54"/>
<polygon fill="black" stroke="black" points="3497.69,-202.03 3507.36,-197.71 3497.11,-195.05 3497.69,-202.03"/>
<text text-anchor="middle" x="3274.86" y="-221.51" font-family="Helvetica,sans-Serif" font-size="14.00">ov</text>
</g>
<!-- 12 -->
<g id="node12" class="node">
<title>12</title>
<ellipse fill="#64e544" stroke="black" cx="3930.36" cy="-160.71" rx="175.23" ry="35.21"/>
<text text-anchor="start" x="3876.86" y="-171.51" font-family="Helvetica,sans-Serif" font-weight="bold" font-size="14.00"> Class=good </text>
<text text-anchor="start" x="3978.86" y="-171.51" font-family="Helvetica,sans-Serif" font-size="14.00"> </text>
<text text-anchor="start" x="3860.86" y="-157.51" font-family="Helvetica,sans-Serif" font-size="14.00"> error: 0.853, n=50 </text>
<text text-anchor="start" x="3814.36" y="-143.51" font-family="Helvetica,sans-Serif" font-size="14.00"> p: (0.12, 0.34, 0.38, 0.04, 0.12) </text>
</g>
<!-- 1&#45;&gt;12 -->
<g id="edge11" class="edge">
<title>1:s&#45;&gt;12:n</title>
<path fill="none" stroke="black" d="M2872.36,-250.71C2872.36,-250.71 3811.96,-203.64 3920.23,-198.22"/>
<polygon fill="black" stroke="black" points="3920.55,-201.71 3930.36,-197.71 3920.2,-194.72 3920.55,-201.71"/>
<text text-anchor="middle" x="3569.36" y="-221.51" font-family="Helvetica,sans-Serif" font-size="14.00">ob</text>
</g>
<!-- 13 -->
<g id="node13" class="node">
<title>13</title>
<ellipse fill="#64e544" stroke="black" cx="4353.36" cy="-160.71" rx="175.23" ry="35.21"/>
<text text-anchor="start" x="4299.86" y="-171.51" font-family="Helvetica,sans-Serif" font-weight="bold" font-size="14.00"> Class=good </text>
<text text-anchor="start" x="4401.86" y="-171.51" font-family="Helvetica,sans-Serif" font-size="14.00"> </text>
<text text-anchor="start" x="4283.86" y="-157.51" font-family="Helvetica,sans-Serif" font-size="14.00"> error: 0.639, n=31 </text>
<text text-anchor="start" x="4237.36" y="-143.51" font-family="Helvetica,sans-Serif" font-size="14.00"> p: (0.16, 0.10, 0.65, 0.10, 0.00) </text>
</g>
<!-- 1&#45;&gt;13 -->
<g id="edge12" class="edge">
<title>1:s&#45;&gt;13:n</title>
<path fill="none" stroke="black" d="M2872.36,-250.71C2872.36,-250.71 4212.26,-202.76 4343.11,-198.08"/>
<polygon fill="black" stroke="black" points="4343.49,-201.57 4353.36,-197.71 4343.24,-194.57 4343.49,-201.57"/>
<text text-anchor="middle" x="3913.86" y="-221.51" font-family="Helvetica,sans-Serif" font-size="14.00">ni</text>
</g>
<!-- 14 -->
<g id="node14" class="node">
<title>14</title>
<ellipse fill="#64e544" stroke="black" cx="4776.36" cy="-160.71" rx="175.23" ry="35.21"/>
<text text-anchor="start" x="4722.86" y="-171.51" font-family="Helvetica,sans-Serif" font-weight="bold" font-size="14.00"> Class=good </text>
<text text-anchor="start" x="4824.86" y="-171.51" font-family="Helvetica,sans-Serif" font-size="14.00"> </text>
<text text-anchor="start" x="4706.86" y="-157.51" font-family="Helvetica,sans-Serif" font-size="14.00"> error: 0.859, n=86 </text>
<text text-anchor="start" x="4660.36" y="-143.51" font-family="Helvetica,sans-Serif" font-size="14.00"> p: (0.16, 0.16, 0.42, 0.02, 0.23) </text>
</g>
<!-- 1&#45;&gt;14 -->
<g id="edge13" class="edge">
<title>1:s&#45;&gt;14:n</title>
<path fill="none" stroke="black" d="M2872.36,-250.71C2872.36,-250.71 4616.25,-202.17 4766.12,-198"/>
<polygon fill="black" stroke="black" points="4766.46,-201.49 4776.36,-197.71 4766.27,-194.49 4766.46,-201.49"/>
<text text-anchor="middle" x="4291.86" y="-221.51" font-family="Helvetica,sans-Serif" font-size="14.00">nd</text>
</g>
<!-- 15 -->
<g id="node15" class="node">
<title>15</title>
<ellipse fill="#64e544" stroke="black" cx="5199.36" cy="-160.71" rx="175.23" ry="35.21"/>
<text text-anchor="start" x="5145.86" y="-171.51" font-family="Helvetica,sans-Serif" font-weight="bold" font-size="14.00"> Class=good </text>
<text text-anchor="start" x="5247.86" y="-171.51" font-family="Helvetica,sans-Serif" font-size="14.00"> </text>
<text text-anchor="start" x="5129.86" y="-157.51" font-family="Helvetica,sans-Serif" font-size="14.00"> error: 0.879, n=52 </text>
<text text-anchor="start" x="5083.36" y="-143.51" font-family="Helvetica,sans-Serif" font-size="14.00"> p: (0.17, 0.17, 0.46, 0.10, 0.10) </text>
</g>
<!-- 1&#45;&gt;15 -->
<g id="edge14" class="edge">
<title>1:s&#45;&gt;15:n</title>
<path fill="none" stroke="black" d="M2872.36,-250.71C2872.36,-250.71 5021.12,-201.77 5188.99,-197.95"/>
<polygon fill="black" stroke="black" points="5189.44,-201.44 5199.36,-197.71 5189.29,-194.44 5189.44,-201.44"/>
<text text-anchor="middle" x="4687.36" y="-221.51" font-family="Helvetica,sans-Serif" font-size="14.00">fr</text>
</g>
<!-- 16 -->
<g id="node16" class="node">
<title>16</title>
<ellipse fill="#64e544" stroke="black" cx="5622.36" cy="-160.71" rx="175.23" ry="35.21"/>
<text text-anchor="start" x="5568.86" y="-171.51" font-family="Helvetica,sans-Serif" font-weight="bold" font-size="14.00"> Class=good </text>
<text text-anchor="start" x="5670.86" y="-171.51" font-family="Helvetica,sans-Serif" font-size="14.00"> </text>
<text text-anchor="start" x="5552.86" y="-157.51" font-family="Helvetica,sans-Serif" font-size="14.00"> error: 0.917, n=27 </text>
<text text-anchor="start" x="5506.36" y="-143.51" font-family="Helvetica,sans-Serif" font-size="14.00"> p: (0.26, 0.07, 0.37, 0.15, 0.15) </text>
</g>
<!-- 1&#45;&gt;16 -->
<g id="edge15" class="edge">
<title>1:s&#45;&gt;16:n</title>
<path fill="none" stroke="black" d="M2872.36,-250.71C2872.36,-250.71 5429.81,-201.42 5612.13,-197.91"/>
<polygon fill="black" stroke="black" points="5612.43,-201.4 5622.36,-197.71 5612.3,-194.4 5612.43,-201.4"/>
<text text-anchor="middle" x="5093.36" y="-221.51" font-family="Helvetica,sans-Serif" font-size="14.00">co</text>
</g>
<!-- 3 -->
<g id="node17" class="node">
<title>3</title>
<ellipse fill="#3d76cc" stroke="black" cx="175.36" cy="-35.36" rx="175.23" ry="35.21"/>
<text text-anchor="start" x="121.86" y="-46.16" font-family="Helvetica,sans-Serif" font-weight="bold" font-size="14.00"> Class=none </text>
<text text-anchor="start" x="223.86" y="-46.16" font-family="Helvetica,sans-Serif" font-size="14.00"> </text>
<text text-anchor="start" x="105.86" y="-32.16" font-family="Helvetica,sans-Serif" font-size="14.00"> error: 0.000, n=18 </text>
<text text-anchor="start" x="59.36" y="-18.16" font-family="Helvetica,sans-Serif" font-size="14.00"> p: (0.00, 0.00, 0.00, 0.00, 1.00) </text>
</g>
<!-- 2&#45;&gt;3 -->
<g id="edge16" class="edge">
<title>2:s&#45;&gt;3:n</title>
<path fill="none" stroke="black" d="M175.36,-121.71C175.36,-121.71 175.36,-95.93 175.36,-81.03"/>
<polygon fill="black" stroke="black" points="178.86,-80.71 175.36,-70.71 171.86,-80.71 178.86,-80.71"/>
<text text-anchor="middle" x="188.86" y="-92.51" font-family="Helvetica,sans-Serif" font-size="14.00">Mor</text>
</g>
</g>
</svg>
