<?xml version="1.0" encoding="UTF-8" standalone="no"?>
<!DOCTYPE svg PUBLIC "-//W3C//DTD SVG 1.1//EN"
 "http://www.w3.org/Graphics/SVG/1.1/DTD/svg11.dtd">
<!-- Generated by graphviz version 2.43.0 (0)
 -->
<!-- Title: Tree Pages: 1 -->
<svg width="1976pt" height="1083pt"
 viewBox="0.00 0.00 1976.29 1082.71" xmlns="http://www.w3.org/2000/svg" xmlns:xlink="http://www.w3.org/1999/xlink">
<g id="graph0" class="graph" transform="scale(1 1) rotate(0) translate(18 1064.71)">
<title>Tree</title>
<polygon fill="white" stroke="transparent" points="-18,18 -18,-1064.71 1958.29,-1064.71 1958.29,18 -18,18"/>
<!-- 0 -->
<g id="node1" class="node">
<title>0</title>
<polygon fill="white" stroke="transparent" points="1070.65,-1046.71 1016.65,-1046.71 1016.65,-1010.71 1070.65,-1010.71 1070.65,-1046.71"/>
<text text-anchor="middle" x="1043.65" y="-1025.01" font-family="Helvetica,sans-Serif" font-size="14.00">0</text>
</g>
<!-- 1 -->
<g id="node2" class="node">
<title>1</title>
<polygon fill="#cc3d3d" stroke="black" points="1187.65,-973.71 899.65,-973.71 899.65,-895.71 1187.65,-895.71 1187.65,-973.71"/>
<text text-anchor="start" x="1004.65" y="-959.51" font-family="Helvetica,sans-Serif" font-weight="bold" font-size="14.00"> Class=6 </text>
<text text-anchor="start" x="1077.65" y="-959.51" font-family="Helvetica,sans-Serif" font-size="14.00"> </text>
<text text-anchor="start" x="965.15" y="-945.51" font-family="Helvetica,sans-Serif" font-size="14.00"> error: 0.890, n=6118 </text>
<text text-anchor="start" x="907.65" y="-931.51" font-family="Helvetica,sans-Serif" font-size="14.00"> p: (0.18, 0.08, 0.12, 0.10, 0.10, 0.42) </text>
<text text-anchor="start" x="1022.15" y="-917.51" font-family="Helvetica,sans-Serif" font-size="14.00">&#45;&#45;&#45;&#45;&#45;&#45;&#45;&#45;</text>
<text text-anchor="start" x="1007.15" y="-903.51" font-family="Helvetica,sans-Serif" font-weight="bold" font-size="14.00">v_7=0.04</text>
</g>
<!-- 0&#45;&gt;1 -->
<!-- 2 -->
<g id="node3" class="node">
<title>2</title>
<polygon fill="#e59744" stroke="black" points="977.65,-844.71 689.65,-844.71 689.65,-766.71 977.65,-766.71 977.65,-844.71"/>
<text text-anchor="start" x="794.65" y="-830.51" font-family="Helvetica,sans-Serif" font-weight="bold" font-size="14.00"> Class=6 </text>
<text text-anchor="start" x="867.65" y="-830.51" font-family="Helvetica,sans-Serif" font-size="14.00"> </text>
<text text-anchor="start" x="755.15" y="-816.51" font-family="Helvetica,sans-Serif" font-size="14.00"> error: 0.645, n=1270 </text>
<text text-anchor="start" x="697.65" y="-802.51" font-family="Helvetica,sans-Serif" font-size="14.00"> p: (0.09, 0.08, 0.06, 0.07, 0.03, 0.67) </text>
<text text-anchor="start" x="812.15" y="-788.51" font-family="Helvetica,sans-Serif" font-size="14.00">&#45;&#45;&#45;&#45;&#45;&#45;&#45;&#45;</text>
<text text-anchor="start" x="797.15" y="-774.51" font-family="Helvetica,sans-Serif" font-weight="bold" font-size="14.00">v_2=0.09</text>
</g>
<!-- 1&#45;&gt;2 -->
<g id="edge2" class="edge">
<title>1:s&#45;&gt;2:n</title>
<path fill="none" stroke="black" d="M1043.65,-895.71C1043.65,-895.71 885.01,-857.19 843.49,-847.1"/>
<polygon fill="black" stroke="black" points="844.19,-843.67 833.65,-844.71 842.54,-850.47 844.19,-843.67"/>
<text text-anchor="middle" x="983.65" y="-866.51" font-family="Helvetica,sans-Serif" font-size="14.00">&gt; 1.6</text>
</g>
<!-- 15 -->
<g id="node4" class="node">
<title>15</title>
<ellipse fill="#e59744" stroke="black" cx="1253.65" cy="-805.71" rx="203.79" ry="35.21"/>
<text text-anchor="start" x="1214.65" y="-816.51" font-family="Helvetica,sans-Serif" font-weight="bold" font-size="14.00"> Class=6 </text>
<text text-anchor="start" x="1287.65" y="-816.51" font-family="Helvetica,sans-Serif" font-size="14.00"> </text>
<text text-anchor="start" x="1175.15" y="-802.51" font-family="Helvetica,sans-Serif" font-size="14.00"> error: 0.927, n=4848 </text>
<text text-anchor="start" x="1117.65" y="-788.51" font-family="Helvetica,sans-Serif" font-size="14.00"> p: (0.20, 0.08, 0.14, 0.11, 0.12, 0.35) </text>
</g>
<!-- 1&#45;&gt;15 -->
<g id="edge3" class="edge">
<title>1:s&#45;&gt;15:n</title>
<path fill="none" stroke="black" d="M1043.65,-895.71C1043.65,-895.71 1202.28,-855.67 1243.8,-845.2"/>
<polygon fill="black" stroke="black" points="1244.81,-848.55 1253.65,-842.71 1243.09,-841.76 1244.81,-848.55"/>
<text text-anchor="middle" x="1199.65" y="-866.51" font-family="Helvetica,sans-Serif" font-size="14.00">&lt;= 1.6</text>
</g>
<!-- 3 -->
<g id="node5" class="node">
<title>3</title>
<polygon fill="#c8cc3d" stroke="black" points="767.65,-715.71 479.65,-715.71 479.65,-637.71 767.65,-637.71 767.65,-715.71"/>
<text text-anchor="start" x="584.65" y="-701.51" font-family="Helvetica,sans-Serif" font-weight="bold" font-size="14.00"> Class=6 </text>
<text text-anchor="start" x="657.65" y="-701.51" font-family="Helvetica,sans-Serif" font-size="14.00"> </text>
<text text-anchor="start" x="549.65" y="-687.51" font-family="Helvetica,sans-Serif" font-size="14.00"> error: 0.918, n=331 </text>
<text text-anchor="start" x="487.65" y="-673.51" font-family="Helvetica,sans-Serif" font-size="14.00"> p: (0.15, 0.15, 0.15, 0.11, 0.07, 0.37) </text>
<text text-anchor="start" x="602.15" y="-659.51" font-family="Helvetica,sans-Serif" font-size="14.00">&#45;&#45;&#45;&#45;&#45;&#45;&#45;&#45;</text>
<text text-anchor="start" x="587.15" y="-645.51" font-family="Helvetica,sans-Serif" font-weight="bold" font-size="14.00">v_2=0.09</text>
</g>
<!-- 2&#45;&gt;3 -->
<g id="edge4" class="edge">
<title>2:s&#45;&gt;3:n</title>
<path fill="none" stroke="black" d="M833.65,-766.71C833.65,-766.71 675.01,-728.19 633.49,-718.1"/>
<polygon fill="black" stroke="black" points="634.19,-714.67 623.65,-715.71 632.54,-721.47 634.19,-714.67"/>
<text text-anchor="middle" x="793.15" y="-737.51" font-family="Helvetica,sans-Serif" font-size="14.00">&lt;= 0.8013</text>
</g>
<!-- 7 -->
<g id="node6" class="node">
<title>7</title>
<polygon fill="#c8cc3d" stroke="black" points="1187.65,-715.71 899.65,-715.71 899.65,-637.71 1187.65,-637.71 1187.65,-715.71"/>
<text text-anchor="start" x="1004.65" y="-701.51" font-family="Helvetica,sans-Serif" font-weight="bold" font-size="14.00"> Class=6 </text>
<text text-anchor="start" x="1077.65" y="-701.51" font-family="Helvetica,sans-Serif" font-size="14.00"> </text>
<text text-anchor="start" x="969.65" y="-687.51" font-family="Helvetica,sans-Serif" font-size="14.00"> error: 0.497, n=939 </text>
<text text-anchor="start" x="907.65" y="-673.51" font-family="Helvetica,sans-Serif" font-size="14.00"> p: (0.07, 0.05, 0.03, 0.06, 0.02, 0.77) </text>
<text text-anchor="start" x="1022.15" y="-659.51" font-family="Helvetica,sans-Serif" font-size="14.00">&#45;&#45;&#45;&#45;&#45;&#45;&#45;&#45;</text>
<text text-anchor="start" x="1007.15" y="-645.51" font-family="Helvetica,sans-Serif" font-weight="bold" font-size="14.00">v_3=0.07</text>
</g>
<!-- 2&#45;&gt;7 -->
<g id="edge5" class="edge">
<title>2:s&#45;&gt;7:n</title>
<path fill="none" stroke="black" d="M833.65,-766.71C833.65,-766.71 992.28,-728.19 1033.8,-718.1"/>
<polygon fill="black" stroke="black" points="1034.76,-721.47 1043.65,-715.71 1033.1,-714.67 1034.76,-721.47"/>
<text text-anchor="middle" x="997.15" y="-737.51" font-family="Helvetica,sans-Serif" font-size="14.00">&gt; 0.8013</text>
</g>
<!-- 4 -->
<g id="node7" class="node">
<title>4</title>
<ellipse fill="#8ee544" stroke="black" cx="203.65" cy="-547.71" rx="203.79" ry="35.21"/>
<text text-anchor="start" x="164.65" y="-558.51" font-family="Helvetica,sans-Serif" font-weight="bold" font-size="14.00"> Class=6 </text>
<text text-anchor="start" x="237.65" y="-558.51" font-family="Helvetica,sans-Serif" font-size="14.00"> </text>
<text text-anchor="start" x="129.65" y="-544.51" font-family="Helvetica,sans-Serif" font-size="14.00"> error: 0.932, n=184 </text>
<text text-anchor="start" x="67.65" y="-530.51" font-family="Helvetica,sans-Serif" font-size="14.00"> p: (0.22, 0.13, 0.22, 0.07, 0.08, 0.29) </text>
</g>
<!-- 3&#45;&gt;4 -->
<g id="edge6" class="edge">
<title>3:s&#45;&gt;4:n</title>
<path fill="none" stroke="black" d="M623.65,-637.71C623.65,-637.71 277.22,-593.99 213.61,-585.97"/>
<polygon fill="black" stroke="black" points="214.01,-582.49 203.65,-584.71 213.13,-589.44 214.01,-582.49"/>
<text text-anchor="middle" x="514.15" y="-608.51" font-family="Helvetica,sans-Serif" font-size="14.00">&lt;= &#45;1.275</text>
</g>
<!-- 5 -->
<g id="node8" class="node">
<title>5</title>
<polygon fill="#8ee544" stroke="black" points="767.65,-586.71 479.65,-586.71 479.65,-508.71 767.65,-508.71 767.65,-586.71"/>
<text text-anchor="start" x="584.65" y="-572.51" font-family="Helvetica,sans-Serif" font-weight="bold" font-size="14.00"> Class=6 </text>
<text text-anchor="start" x="657.65" y="-572.51" font-family="Helvetica,sans-Serif" font-size="14.00"> </text>
<text text-anchor="start" x="549.65" y="-558.51" font-family="Helvetica,sans-Serif" font-size="14.00"> error: 0.811, n=147 </text>
<text text-anchor="start" x="487.65" y="-544.51" font-family="Helvetica,sans-Serif" font-size="14.00"> p: (0.07, 0.18, 0.05, 0.16, 0.05, 0.48) </text>
<text text-anchor="start" x="602.15" y="-530.51" font-family="Helvetica,sans-Serif" font-size="14.00">&#45;&#45;&#45;&#45;&#45;&#45;&#45;&#45;</text>
<text text-anchor="start" x="587.15" y="-516.51" font-family="Helvetica,sans-Serif" font-weight="bold" font-size="14.00">v_6=0.04</text>
</g>
<!-- 3&#45;&gt;5 -->
<g id="edge7" class="edge">
<title>3:s&#45;&gt;5:n</title>
<path fill="none" stroke="black" d="M623.65,-637.71C623.65,-637.71 623.65,-611.93 623.65,-597.03"/>
<polygon fill="black" stroke="black" points="627.15,-596.71 623.65,-586.71 620.15,-596.71 627.15,-596.71"/>
<text text-anchor="middle" x="655.15" y="-608.51" font-family="Helvetica,sans-Serif" font-size="14.00">&gt; &#45;1.275</text>
</g>
<!-- 8 -->
<g id="node10" class="node">
<title>8</title>
<ellipse fill="#8ee544" stroke="black" cx="1043.65" cy="-547.71" rx="203.79" ry="35.21"/>
<text text-anchor="start" x="1004.65" y="-558.51" font-family="Helvetica,sans-Serif" font-weight="bold" font-size="14.00"> Class=6 </text>
<text text-anchor="start" x="1077.65" y="-558.51" font-family="Helvetica,sans-Serif" font-size="14.00"> </text>
<text text-anchor="start" x="969.65" y="-544.51" font-family="Helvetica,sans-Serif" font-size="14.00"> error: 0.289, n=459 </text>
<text text-anchor="start" x="907.65" y="-530.51" font-family="Helvetica,sans-Serif" font-size="14.00"> p: (0.03, 0.03, 0.01, 0.04, 0.01, 0.89) </text>
</g>
<!-- 7&#45;&gt;8 -->
<g id="edge9" class="edge">
<title>7:s&#45;&gt;8:n</title>
<path fill="none" stroke="black" d="M1043.65,-637.71C1043.65,-637.71 1043.65,-610.33 1043.65,-594.93"/>
<polygon fill="black" stroke="black" points="1047.15,-594.71 1043.65,-584.71 1040.15,-594.71 1047.15,-594.71"/>
<text text-anchor="middle" x="1081.15" y="-608.51" font-family="Helvetica,sans-Serif" font-size="14.00">&lt;= &#45;1.608</text>
</g>
<!-- 9 -->
<g id="node11" class="node">
<title>9</title>
<polygon fill="#8ee544" stroke="black" points="1607.65,-586.71 1319.65,-586.71 1319.65,-508.71 1607.65,-508.71 1607.65,-586.71"/>
<text text-anchor="start" x="1424.65" y="-572.51" font-family="Helvetica,sans-Serif" font-weight="bold" font-size="14.00"> Class=6 </text>
<text text-anchor="start" x="1497.65" y="-572.51" font-family="Helvetica,sans-Serif" font-size="14.00"> </text>
<text text-anchor="start" x="1389.65" y="-558.51" font-family="Helvetica,sans-Serif" font-size="14.00"> error: 0.652, n=480 </text>
<text text-anchor="start" x="1327.65" y="-544.51" font-family="Helvetica,sans-Serif" font-size="14.00"> p: (0.10, 0.08, 0.06, 0.08, 0.03, 0.66) </text>
<text text-anchor="start" x="1442.15" y="-530.51" font-family="Helvetica,sans-Serif" font-size="14.00">&#45;&#45;&#45;&#45;&#45;&#45;&#45;&#45;</text>
<text text-anchor="start" x="1427.15" y="-516.51" font-family="Helvetica,sans-Serif" font-weight="bold" font-size="14.00">v_8=0.03</text>
</g>
<!-- 7&#45;&gt;9 -->
<g id="edge10" class="edge">
<title>7:s&#45;&gt;9:n</title>
<path fill="none" stroke="black" d="M1043.65,-637.71C1043.65,-637.71 1390.08,-595.64 1453.68,-587.92"/>
<polygon fill="black" stroke="black" points="1454.14,-591.39 1463.65,-586.71 1453.3,-584.44 1454.14,-591.39"/>
<text text-anchor="middle" x="1335.15" y="-608.51" font-family="Helvetica,sans-Serif" font-size="14.00">&gt; &#45;1.608</text>
</g>
<!-- 6 -->
<g id="node9" class="node">
<title>6</title>
<ellipse fill="#3dcc45" stroke="black" cx="623.65" cy="-418.71" rx="203.79" ry="35.21"/>
<text text-anchor="start" x="584.65" y="-429.51" font-family="Helvetica,sans-Serif" font-weight="bold" font-size="14.00"> Class=6 </text>
<text text-anchor="start" x="657.65" y="-429.51" font-family="Helvetica,sans-Serif" font-size="14.00"> </text>
<text text-anchor="start" x="549.65" y="-415.51" font-family="Helvetica,sans-Serif" font-size="14.00"> error: 0.742, n=124 </text>
<text text-anchor="start" x="487.65" y="-401.51" font-family="Helvetica,sans-Serif" font-size="14.00"> p: (0.07, 0.21, 0.00, 0.17, 0.06, 0.49) </text>
</g>
<!-- 5&#45;&gt;6 -->
<g id="edge8" class="edge">
<title>5:s&#45;&gt;6:n</title>
<path fill="none" stroke="black" d="M623.65,-508.71C623.65,-508.71 623.65,-481.33 623.65,-465.93"/>
<polygon fill="black" stroke="black" points="627.15,-465.71 623.65,-455.71 620.15,-465.71 627.15,-465.71"/>
<text text-anchor="middle" x="655.15" y="-479.51" font-family="Helvetica,sans-Serif" font-size="14.00">&gt; &#45;1.573</text>
</g>
<!-- 10 -->
<g id="node12" class="node">
<title>10</title>
<polygon fill="#3dcc45" stroke="black" points="1607.65,-457.71 1319.65,-457.71 1319.65,-379.71 1607.65,-379.71 1607.65,-457.71"/>
<text text-anchor="start" x="1424.65" y="-443.51" font-family="Helvetica,sans-Serif" font-weight="bold" font-size="14.00"> Class=6 </text>
<text text-anchor="start" x="1497.65" y="-443.51" font-family="Helvetica,sans-Serif" font-size="14.00"> </text>
<text text-anchor="start" x="1389.65" y="-429.51" font-family="Helvetica,sans-Serif" font-size="14.00"> error: 0.604, n=452 </text>
<text text-anchor="start" x="1327.65" y="-415.51" font-family="Helvetica,sans-Serif" font-size="14.00"> p: (0.09, 0.07, 0.05, 0.07, 0.02, 0.69) </text>
<text text-anchor="start" x="1439.65" y="-401.51" font-family="Helvetica,sans-Serif" font-size="14.00">&#45;&#45;&#45;&#45;&#45;&#45;&#45;&#45;&#45;</text>
<text text-anchor="start" x="1422.65" y="-387.51" font-family="Helvetica,sans-Serif" font-weight="bold" font-size="14.00">v_27=0.00</text>
</g>
<!-- 9&#45;&gt;10 -->
<g id="edge11" class="edge">
<title>9:s&#45;&gt;10:n</title>
<path fill="none" stroke="black" d="M1463.65,-508.71C1463.65,-508.71 1463.65,-482.93 1463.65,-468.03"/>
<polygon fill="black" stroke="black" points="1467.15,-467.71 1463.65,-457.71 1460.15,-467.71 1467.15,-467.71"/>
<text text-anchor="middle" x="1503.15" y="-479.51" font-family="Helvetica,sans-Serif" font-size="14.00">&lt;= 0.7395</text>
</g>
<!-- 11 -->
<g id="node13" class="node">
<title>11</title>
<ellipse fill="#44e5a1" stroke="black" cx="1316.65" cy="-289.71" rx="203.79" ry="35.21"/>
<text text-anchor="start" x="1277.65" y="-300.51" font-family="Helvetica,sans-Serif" font-weight="bold" font-size="14.00"> Class=6 </text>
<text text-anchor="start" x="1350.65" y="-300.51" font-family="Helvetica,sans-Serif" font-size="14.00"> </text>
<text text-anchor="start" x="1242.65" y="-286.51" font-family="Helvetica,sans-Serif" font-size="14.00"> error: 0.772, n=192 </text>
<text text-anchor="start" x="1180.65" y="-272.51" font-family="Helvetica,sans-Serif" font-size="14.00"> p: (0.10, 0.13, 0.09, 0.10, 0.03, 0.55) </text>
</g>
<!-- 10&#45;&gt;11 -->
<g id="edge12" class="edge">
<title>10:s&#45;&gt;11:n</title>
<path fill="none" stroke="black" d="M1463.65,-379.71C1463.65,-379.71 1359,-341.98 1326.29,-330.19"/>
<polygon fill="black" stroke="black" points="1327.24,-326.81 1316.65,-326.71 1324.87,-333.4 1327.24,-326.81"/>
<text text-anchor="middle" x="1459.15" y="-350.51" font-family="Helvetica,sans-Serif" font-size="14.00">&lt;= &#45;0.01227</text>
</g>
<!-- 12 -->
<g id="node14" class="node">
<title>12</title>
<polygon fill="#44e5a1" stroke="black" points="1880.65,-328.71 1592.65,-328.71 1592.65,-250.71 1880.65,-250.71 1880.65,-328.71"/>
<text text-anchor="start" x="1697.65" y="-314.51" font-family="Helvetica,sans-Serif" font-weight="bold" font-size="14.00"> Class=6 </text>
<text text-anchor="start" x="1770.65" y="-314.51" font-family="Helvetica,sans-Serif" font-size="14.00"> </text>
<text text-anchor="start" x="1662.65" y="-300.51" font-family="Helvetica,sans-Serif" font-size="14.00"> error: 0.435, n=260 </text>
<text text-anchor="start" x="1600.65" y="-286.51" font-family="Helvetica,sans-Serif" font-size="14.00"> p: (0.08, 0.03, 0.03, 0.05, 0.02, 0.80) </text>
<text text-anchor="start" x="1715.15" y="-272.51" font-family="Helvetica,sans-Serif" font-size="14.00">&#45;&#45;&#45;&#45;&#45;&#45;&#45;&#45;</text>
<text text-anchor="start" x="1700.15" y="-258.51" font-family="Helvetica,sans-Serif" font-weight="bold" font-size="14.00">v_5=0.05</text>
</g>
<!-- 10&#45;&gt;12 -->
<g id="edge13" class="edge">
<title>10:s&#45;&gt;12:n</title>
<path fill="none" stroke="black" d="M1463.65,-379.71C1463.65,-379.71 1677.35,-339.79 1726.61,-330.59"/>
<polygon fill="black" stroke="black" points="1727.46,-333.99 1736.65,-328.71 1726.17,-327.11 1727.46,-333.99"/>
<text text-anchor="middle" x="1673.15" y="-350.51" font-family="Helvetica,sans-Serif" font-size="14.00">&gt; &#45;0.01227</text>
</g>
<!-- 13 -->
<g id="node15" class="node">
<title>13</title>
<polygon fill="#3dc0cc" stroke="black" points="1880.65,-199.71 1592.65,-199.71 1592.65,-121.71 1880.65,-121.71 1880.65,-199.71"/>
<text text-anchor="start" x="1697.65" y="-185.51" font-family="Helvetica,sans-Serif" font-weight="bold" font-size="14.00"> Class=6 </text>
<text text-anchor="start" x="1770.65" y="-185.51" font-family="Helvetica,sans-Serif" font-size="14.00"> </text>
<text text-anchor="start" x="1662.65" y="-171.51" font-family="Helvetica,sans-Serif" font-size="14.00"> error: 0.355, n=184 </text>
<text text-anchor="start" x="1600.65" y="-157.51" font-family="Helvetica,sans-Serif" font-size="14.00"> p: (0.05, 0.02, 0.04, 0.02, 0.02, 0.85) </text>
<text text-anchor="start" x="1715.15" y="-143.51" font-family="Helvetica,sans-Serif" font-size="14.00">&#45;&#45;&#45;&#45;&#45;&#45;&#45;&#45;</text>
<text text-anchor="start" x="1700.15" y="-129.51" font-family="Helvetica,sans-Serif" font-weight="bold" font-size="14.00">v_3=0.07</text>
</g>
<!-- 12&#45;&gt;13 -->
<g id="edge14" class="edge">
<title>12:s&#45;&gt;13:n</title>
<path fill="none" stroke="black" d="M1736.65,-250.71C1736.65,-250.71 1736.65,-224.93 1736.65,-210.03"/>
<polygon fill="black" stroke="black" points="1740.15,-209.71 1736.65,-199.71 1733.15,-209.71 1740.15,-209.71"/>
<text text-anchor="middle" x="1776.15" y="-221.51" font-family="Helvetica,sans-Serif" font-size="14.00">&lt;= 0.1117</text>
</g>
<!-- 14 -->
<g id="node16" class="node">
<title>14</title>
<ellipse fill="#4485e5" stroke="black" cx="1736.65" cy="-35.36" rx="203.79" ry="35.21"/>
<text text-anchor="start" x="1697.65" y="-46.16" font-family="Helvetica,sans-Serif" font-weight="bold" font-size="14.00"> Class=6 </text>
<text text-anchor="start" x="1770.65" y="-46.16" font-family="Helvetica,sans-Serif" font-size="14.00"> </text>
<text text-anchor="start" x="1662.65" y="-32.16" font-family="Helvetica,sans-Serif" font-size="14.00"> error: 0.326, n=136 </text>
<text text-anchor="start" x="1600.65" y="-18.16" font-family="Helvetica,sans-Serif" font-size="14.00"> p: (0.02, 0.03, 0.05, 0.01, 0.02, 0.87) </text>
</g>
<!-- 13&#45;&gt;14 -->
<g id="edge15" class="edge">
<title>13:s&#45;&gt;14:n</title>
<path fill="none" stroke="black" d="M1736.65,-121.71C1736.65,-121.71 1736.65,-95.93 1736.65,-81.03"/>
<polygon fill="black" stroke="black" points="1740.15,-80.71 1736.65,-70.71 1733.15,-80.71 1740.15,-80.71"/>
<text text-anchor="middle" x="1776.15" y="-92.51" font-family="Helvetica,sans-Serif" font-size="14.00">&lt;= 0.7424</text>
</g>
</g>
</svg>
