<?xml version="1.0" encoding="UTF-8" standalone="no"?>
<!DOCTYPE svg PUBLIC "-//W3C//DTD SVG 1.1//EN"
 "http://www.w3.org/Graphics/SVG/1.1/DTD/svg11.dtd">
<!-- Generated by graphviz version 2.43.0 (0)
 -->
<!-- Title: Tree Pages: 1 -->
<svg width="3317pt" height="954pt"
 viewBox="0.00 0.00 3316.72 953.71" xmlns="http://www.w3.org/2000/svg" xmlns:xlink="http://www.w3.org/1999/xlink">
<g id="graph0" class="graph" transform="scale(1 1) rotate(0) translate(18 935.71)">
<title>Tree</title>
<polygon fill="white" stroke="transparent" points="-18,18 -18,-935.71 3298.72,-935.71 3298.72,18 -18,18"/>
<!-- 0 -->
<g id="node1" class="node">
<title>0</title>
<polygon fill="white" stroke="transparent" points="1601.36,-917.71 1547.36,-917.71 1547.36,-881.71 1601.36,-881.71 1601.36,-917.71"/>
<text text-anchor="middle" x="1574.36" y="-896.01" font-family="Helvetica,sans-Serif" font-size="14.00">0</text>
</g>
<!-- 1 -->
<g id="node2" class="node">
<title>1</title>
<polygon fill="#cc3d3d" stroke="black" points="1698.36,-844.71 1450.36,-844.71 1450.36,-766.71 1698.36,-766.71 1698.36,-844.71"/>
<text text-anchor="start" x="1535.36" y="-830.51" font-family="Helvetica,sans-Serif" font-weight="bold" font-size="14.00"> Class=S </text>
<text text-anchor="start" x="1608.36" y="-830.51" font-family="Helvetica,sans-Serif" font-size="14.00"> </text>
<text text-anchor="start" x="1495.86" y="-816.51" font-family="Helvetica,sans-Serif" font-size="14.00"> error: 0.945, n=9873 </text>
<text text-anchor="start" x="1458.36" y="-802.51" font-family="Helvetica,sans-Serif" font-size="14.00"> p: (0.28, 0.10, 0.21, 0.11, 0.30) </text>
<text text-anchor="start" x="1566.36" y="-788.51" font-family="Helvetica,sans-Serif" font-size="14.00">&#45;&#45;&#45;</text>
<text text-anchor="start" x="1558.86" y="-774.51" font-family="Helvetica,sans-Serif" font-weight="bold" font-size="14.00">X28</text>
</g>
<!-- 0&#45;&gt;1 -->
<!-- 2 -->
<g id="node3" class="node">
<title>2</title>
<polygon fill="#e5a544" stroke="black" points="1487.36,-715.71 1239.36,-715.71 1239.36,-637.71 1487.36,-637.71 1487.36,-715.71"/>
<text text-anchor="start" x="1324.36" y="-701.51" font-family="Helvetica,sans-Serif" font-weight="bold" font-size="14.00"> Class=S </text>
<text text-anchor="start" x="1397.36" y="-701.51" font-family="Helvetica,sans-Serif" font-size="14.00"> </text>
<text text-anchor="start" x="1284.86" y="-687.51" font-family="Helvetica,sans-Serif" font-size="14.00"> error: 0.892, n=5929 </text>
<text text-anchor="start" x="1247.36" y="-673.51" font-family="Helvetica,sans-Serif" font-size="14.00"> p: (0.12, 0.07, 0.26, 0.15, 0.40) </text>
<text text-anchor="start" x="1355.36" y="-659.51" font-family="Helvetica,sans-Serif" font-size="14.00">&#45;&#45;&#45;</text>
<text text-anchor="start" x="1347.86" y="-645.51" font-family="Helvetica,sans-Serif" font-weight="bold" font-size="14.00">X11</text>
</g>
<!-- 1&#45;&gt;2 -->
<g id="edge2" class="edge">
<title>1:s&#45;&gt;2:n</title>
<path fill="none" stroke="black" d="M1574.36,-766.71C1574.36,-766.71 1414.97,-728.19 1373.26,-718.1"/>
<polygon fill="black" stroke="black" points="1373.9,-714.66 1363.36,-715.71 1372.26,-721.46 1373.9,-714.66"/>
<text text-anchor="middle" x="1536.86" y="-737.51" font-family="Helvetica,sans-Serif" font-size="14.00">&gt; 0.003048</text>
</g>
<!-- 14 -->
<g id="node4" class="node">
<title>14</title>
<polygon fill="#e5a544" stroke="black" points="1910.36,-715.71 1662.36,-715.71 1662.36,-637.71 1910.36,-637.71 1910.36,-715.71"/>
<text text-anchor="start" x="1746.86" y="-701.51" font-family="Helvetica,sans-Serif" font-weight="bold" font-size="14.00"> Class=D </text>
<text text-anchor="start" x="1820.86" y="-701.51" font-family="Helvetica,sans-Serif" font-size="14.00"> </text>
<text text-anchor="start" x="1707.86" y="-687.51" font-family="Helvetica,sans-Serif" font-size="14.00"> error: 0.820, n=3944 </text>
<text text-anchor="start" x="1670.36" y="-673.51" font-family="Helvetica,sans-Serif" font-size="14.00"> p: (0.52, 0.16, 0.14, 0.04, 0.14) </text>
<text text-anchor="start" x="1778.36" y="-659.51" font-family="Helvetica,sans-Serif" font-size="14.00">&#45;&#45;&#45;</text>
<text text-anchor="start" x="1770.86" y="-645.51" font-family="Helvetica,sans-Serif" font-weight="bold" font-size="14.00">X26</text>
</g>
<!-- 1&#45;&gt;14 -->
<g id="edge3" class="edge">
<title>1:s&#45;&gt;14:n</title>
<path fill="none" stroke="black" d="M1574.36,-766.71C1574.36,-766.71 1734.51,-728.19 1776.42,-718.1"/>
<polygon fill="black" stroke="black" points="1777.46,-721.45 1786.36,-715.71 1775.82,-714.65 1777.46,-721.45"/>
<text text-anchor="middle" x="1754.86" y="-737.51" font-family="Helvetica,sans-Serif" font-size="14.00">&lt;= 0.003048</text>
</g>
<!-- 3 -->
<g id="node5" class="node">
<title>3</title>
<polygon fill="#afcc3d" stroke="black" points="1116.36,-586.71 868.36,-586.71 868.36,-508.71 1116.36,-508.71 1116.36,-586.71"/>
<text text-anchor="start" x="953.36" y="-572.51" font-family="Helvetica,sans-Serif" font-weight="bold" font-size="14.00"> Class=S </text>
<text text-anchor="start" x="1026.36" y="-572.51" font-family="Helvetica,sans-Serif" font-size="14.00"> </text>
<text text-anchor="start" x="913.86" y="-558.51" font-family="Helvetica,sans-Serif" font-size="14.00"> error: 0.936, n=3817 </text>
<text text-anchor="start" x="876.36" y="-544.51" font-family="Helvetica,sans-Serif" font-size="14.00"> p: (0.16, 0.08, 0.18, 0.21, 0.37) </text>
<text text-anchor="start" x="986.86" y="-530.51" font-family="Helvetica,sans-Serif" font-size="14.00">&#45;&#45;</text>
<text text-anchor="start" x="981.86" y="-516.51" font-family="Helvetica,sans-Serif" font-weight="bold" font-size="14.00">X5</text>
</g>
<!-- 2&#45;&gt;3 -->
<g id="edge4" class="edge">
<title>2:s&#45;&gt;3:n</title>
<path fill="none" stroke="black" d="M1363.36,-637.71C1363.36,-637.71 1061.29,-596.19 1002.29,-588.07"/>
<polygon fill="black" stroke="black" points="1002.75,-584.61 992.36,-586.71 1001.79,-591.54 1002.75,-584.61"/>
<text text-anchor="middle" x="1270.86" y="-608.51" font-family="Helvetica,sans-Serif" font-size="14.00">&lt;= 0.003173</text>
</g>
<!-- 13 -->
<g id="node6" class="node">
<title>13</title>
<ellipse fill="#afcc3d" stroke="black" cx="1363.36" cy="-547.71" rx="175.23" ry="35.21"/>
<text text-anchor="start" x="1324.36" y="-558.51" font-family="Helvetica,sans-Serif" font-weight="bold" font-size="14.00"> Class=S </text>
<text text-anchor="start" x="1397.36" y="-558.51" font-family="Helvetica,sans-Serif" font-size="14.00"> </text>
<text text-anchor="start" x="1284.86" y="-544.51" font-family="Helvetica,sans-Serif" font-size="14.00"> error: 0.702, n=2112 </text>
<text text-anchor="start" x="1247.36" y="-530.51" font-family="Helvetica,sans-Serif" font-size="14.00"> p: (0.04, 0.03, 0.40, 0.06, 0.46) </text>
</g>
<!-- 2&#45;&gt;13 -->
<g id="edge5" class="edge">
<title>2:s&#45;&gt;13:n</title>
<path fill="none" stroke="black" d="M1363.36,-637.71C1363.36,-637.71 1363.36,-610.33 1363.36,-594.93"/>
<polygon fill="black" stroke="black" points="1366.86,-594.71 1363.36,-584.71 1359.86,-594.71 1366.86,-594.71"/>
<text text-anchor="middle" x="1405.86" y="-608.51" font-family="Helvetica,sans-Serif" font-size="14.00">&gt; 0.003173</text>
</g>
<!-- 15 -->
<g id="node16" class="node">
<title>15</title>
<ellipse fill="#afcc3d" stroke="black" cx="1786.36" cy="-547.71" rx="175.23" ry="35.21"/>
<text text-anchor="start" x="1746.86" y="-558.51" font-family="Helvetica,sans-Serif" font-weight="bold" font-size="14.00"> Class=D </text>
<text text-anchor="start" x="1820.86" y="-558.51" font-family="Helvetica,sans-Serif" font-size="14.00"> </text>
<text text-anchor="start" x="1707.86" y="-544.51" font-family="Helvetica,sans-Serif" font-size="14.00"> error: 0.679, n=2053 </text>
<text text-anchor="start" x="1670.36" y="-530.51" font-family="Helvetica,sans-Serif" font-size="14.00"> p: (0.64, 0.16, 0.08, 0.02, 0.10) </text>
</g>
<!-- 14&#45;&gt;15 -->
<g id="edge15" class="edge">
<title>14:s&#45;&gt;15:n</title>
<path fill="none" stroke="black" d="M1786.36,-637.71C1786.36,-637.71 1786.36,-610.33 1786.36,-594.93"/>
<polygon fill="black" stroke="black" points="1789.86,-594.71 1786.36,-584.71 1782.86,-594.71 1789.86,-594.71"/>
<text text-anchor="middle" x="1834.86" y="-608.51" font-family="Helvetica,sans-Serif" font-size="14.00">&lt;= 0.001334</text>
</g>
<!-- 16 -->
<g id="node17" class="node">
<title>16</title>
<polygon fill="#afcc3d" stroke="black" points="2281.36,-586.71 2033.36,-586.71 2033.36,-508.71 2281.36,-508.71 2281.36,-586.71"/>
<text text-anchor="start" x="2117.86" y="-572.51" font-family="Helvetica,sans-Serif" font-weight="bold" font-size="14.00"> Class=D </text>
<text text-anchor="start" x="2191.86" y="-572.51" font-family="Helvetica,sans-Serif" font-size="14.00"> </text>
<text text-anchor="start" x="2078.86" y="-558.51" font-family="Helvetica,sans-Serif" font-size="14.00"> error: 0.917, n=1891 </text>
<text text-anchor="start" x="2041.36" y="-544.51" font-family="Helvetica,sans-Serif" font-size="14.00"> p: (0.38, 0.15, 0.20, 0.07, 0.20) </text>
<text text-anchor="start" x="2149.36" y="-530.51" font-family="Helvetica,sans-Serif" font-size="14.00">&#45;&#45;&#45;</text>
<text text-anchor="start" x="2141.86" y="-516.51" font-family="Helvetica,sans-Serif" font-weight="bold" font-size="14.00">X25</text>
</g>
<!-- 14&#45;&gt;16 -->
<g id="edge16" class="edge">
<title>14:s&#45;&gt;16:n</title>
<path fill="none" stroke="black" d="M1786.36,-637.71C1786.36,-637.71 2088.44,-596.19 2147.44,-588.07"/>
<polygon fill="black" stroke="black" points="2147.93,-591.54 2157.36,-586.71 2146.98,-584.61 2147.93,-591.54"/>
<text text-anchor="middle" x="2058.86" y="-608.51" font-family="Helvetica,sans-Serif" font-size="14.00">&gt; 0.001334</text>
</g>
<!-- 4 -->
<g id="node7" class="node">
<title>4</title>
<polygon fill="#64e544" stroke="black" points="855.36,-457.71 607.36,-457.71 607.36,-379.71 855.36,-379.71 855.36,-457.71"/>
<text text-anchor="start" x="692.36" y="-443.51" font-family="Helvetica,sans-Serif" font-weight="bold" font-size="14.00"> Class=S </text>
<text text-anchor="start" x="765.36" y="-443.51" font-family="Helvetica,sans-Serif" font-size="14.00"> </text>
<text text-anchor="start" x="652.86" y="-429.51" font-family="Helvetica,sans-Serif" font-size="14.00"> error: 0.774, n=1489 </text>
<text text-anchor="start" x="615.36" y="-415.51" font-family="Helvetica,sans-Serif" font-size="14.00"> p: (0.05, 0.04, 0.12, 0.31, 0.48) </text>
<text text-anchor="start" x="725.86" y="-401.51" font-family="Helvetica,sans-Serif" font-size="14.00">&#45;&#45;</text>
<text text-anchor="start" x="720.86" y="-387.51" font-family="Helvetica,sans-Serif" font-weight="bold" font-size="14.00">X2</text>
</g>
<!-- 3&#45;&gt;4 -->
<g id="edge6" class="edge">
<title>3:s&#45;&gt;4:n</title>
<path fill="none" stroke="black" d="M992.36,-508.71C992.36,-508.71 788.95,-468.96 741.28,-459.65"/>
<polygon fill="black" stroke="black" points="741.85,-456.19 731.36,-457.71 740.51,-463.06 741.85,-456.19"/>
<text text-anchor="middle" x="944.36" y="-479.51" font-family="Helvetica,sans-Serif" font-size="14.00">&lt;= &#45;0.006675</text>
</g>
<!-- 10 -->
<g id="node8" class="node">
<title>10</title>
<polygon fill="#64e544" stroke="black" points="1278.36,-457.71 1030.36,-457.71 1030.36,-379.71 1278.36,-379.71 1278.36,-457.71"/>
<text text-anchor="start" x="1115.36" y="-443.51" font-family="Helvetica,sans-Serif" font-weight="bold" font-size="14.00"> Class=S </text>
<text text-anchor="start" x="1188.36" y="-443.51" font-family="Helvetica,sans-Serif" font-size="14.00"> </text>
<text text-anchor="start" x="1075.86" y="-429.51" font-family="Helvetica,sans-Serif" font-size="14.00"> error: 0.969, n=2328 </text>
<text text-anchor="start" x="1038.36" y="-415.51" font-family="Helvetica,sans-Serif" font-size="14.00"> p: (0.23, 0.12, 0.22, 0.15, 0.29) </text>
<text text-anchor="start" x="1146.36" y="-401.51" font-family="Helvetica,sans-Serif" font-size="14.00">&#45;&#45;&#45;</text>
<text text-anchor="start" x="1138.86" y="-387.51" font-family="Helvetica,sans-Serif" font-weight="bold" font-size="14.00">X26</text>
</g>
<!-- 3&#45;&gt;10 -->
<g id="edge7" class="edge">
<title>3:s&#45;&gt;10:n</title>
<path fill="none" stroke="black" d="M992.36,-508.71C992.36,-508.71 1109.84,-471.73 1144.71,-460.75"/>
<polygon fill="black" stroke="black" points="1145.88,-464.05 1154.36,-457.71 1143.77,-457.38 1145.88,-464.05"/>
<text text-anchor="middle" x="1138.36" y="-479.51" font-family="Helvetica,sans-Serif" font-size="14.00">&gt; &#45;0.006675</text>
</g>
<!-- 5 -->
<g id="node9" class="node">
<title>5</title>
<polygon fill="#3dcc76" stroke="black" points="484.36,-328.71 236.36,-328.71 236.36,-250.71 484.36,-250.71 484.36,-328.71"/>
<text text-anchor="start" x="321.36" y="-314.51" font-family="Helvetica,sans-Serif" font-weight="bold" font-size="14.00"> Class=S </text>
<text text-anchor="start" x="394.36" y="-314.51" font-family="Helvetica,sans-Serif" font-size="14.00"> </text>
<text text-anchor="start" x="281.86" y="-300.51" font-family="Helvetica,sans-Serif" font-size="14.00"> error: 0.818, n=1076 </text>
<text text-anchor="start" x="244.36" y="-286.51" font-family="Helvetica,sans-Serif" font-size="14.00"> p: (0.06, 0.05, 0.13, 0.38, 0.38) </text>
<text text-anchor="start" x="354.86" y="-272.51" font-family="Helvetica,sans-Serif" font-size="14.00">&#45;&#45;</text>
<text text-anchor="start" x="349.86" y="-258.51" font-family="Helvetica,sans-Serif" font-weight="bold" font-size="14.00">X6</text>
</g>
<!-- 4&#45;&gt;5 -->
<g id="edge8" class="edge">
<title>4:s&#45;&gt;5:n</title>
<path fill="none" stroke="black" d="M731.36,-379.71C731.36,-379.71 429.29,-338.19 370.29,-330.07"/>
<polygon fill="black" stroke="black" points="370.75,-326.61 360.36,-328.71 369.79,-333.54 370.75,-326.61"/>
<text text-anchor="middle" x="638.86" y="-350.51" font-family="Helvetica,sans-Serif" font-size="14.00">&lt;= 0.002442</text>
</g>
<!-- 9 -->
<g id="node10" class="node">
<title>9</title>
<ellipse fill="#3dcc76" stroke="black" cx="731.36" cy="-289.71" rx="175.23" ry="35.21"/>
<text text-anchor="start" x="692.36" y="-300.51" font-family="Helvetica,sans-Serif" font-weight="bold" font-size="14.00"> Class=S </text>
<text text-anchor="start" x="765.36" y="-300.51" font-family="Helvetica,sans-Serif" font-size="14.00"> </text>
<text text-anchor="start" x="657.36" y="-286.51" font-family="Helvetica,sans-Serif" font-size="14.00"> error: 0.523, n=413 </text>
<text text-anchor="start" x="615.36" y="-272.51" font-family="Helvetica,sans-Serif" font-size="14.00"> p: (0.03, 0.01, 0.09, 0.11, 0.75) </text>
</g>
<!-- 4&#45;&gt;9 -->
<g id="edge9" class="edge">
<title>4:s&#45;&gt;9:n</title>
<path fill="none" stroke="black" d="M731.36,-379.71C731.36,-379.71 731.36,-352.33 731.36,-336.93"/>
<polygon fill="black" stroke="black" points="734.86,-336.71 731.36,-326.71 727.86,-336.71 734.86,-336.71"/>
<text text-anchor="middle" x="773.86" y="-350.51" font-family="Helvetica,sans-Serif" font-size="14.00">&gt; 0.002442</text>
</g>
<!-- 11 -->
<g id="node14" class="node">
<title>11</title>
<ellipse fill="#3dcc76" stroke="black" cx="1154.36" cy="-289.71" rx="175.23" ry="35.21"/>
<text text-anchor="start" x="1114.36" y="-300.51" font-family="Helvetica,sans-Serif" font-weight="bold" font-size="14.00"> Class=H </text>
<text text-anchor="start" x="1189.36" y="-300.51" font-family="Helvetica,sans-Serif" font-size="14.00"> </text>
<text text-anchor="start" x="1080.36" y="-286.51" font-family="Helvetica,sans-Serif" font-size="14.00"> error: 0.909, n=261 </text>
<text text-anchor="start" x="1038.36" y="-272.51" font-family="Helvetica,sans-Serif" font-size="14.00"> p: (0.30, 0.36, 0.13, 0.11, 0.09) </text>
</g>
<!-- 10&#45;&gt;11 -->
<g id="edge13" class="edge">
<title>10:s&#45;&gt;11:n</title>
<path fill="none" stroke="black" d="M1154.36,-379.71C1154.36,-379.71 1154.36,-352.33 1154.36,-336.93"/>
<polygon fill="black" stroke="black" points="1157.86,-336.71 1154.36,-326.71 1150.86,-336.71 1157.86,-336.71"/>
<text text-anchor="middle" x="1202.86" y="-350.51" font-family="Helvetica,sans-Serif" font-size="14.00">&lt;= 0.002965</text>
</g>
<!-- 12 -->
<g id="node15" class="node">
<title>12</title>
<ellipse fill="#3dcc76" stroke="black" cx="1577.36" cy="-289.71" rx="175.23" ry="35.21"/>
<text text-anchor="start" x="1538.36" y="-300.51" font-family="Helvetica,sans-Serif" font-weight="bold" font-size="14.00"> Class=S </text>
<text text-anchor="start" x="1611.36" y="-300.51" font-family="Helvetica,sans-Serif" font-size="14.00"> </text>
<text text-anchor="start" x="1498.86" y="-286.51" font-family="Helvetica,sans-Serif" font-size="14.00"> error: 0.950, n=2067 </text>
<text text-anchor="start" x="1461.36" y="-272.51" font-family="Helvetica,sans-Serif" font-size="14.00"> p: (0.22, 0.09, 0.23, 0.15, 0.32) </text>
</g>
<!-- 10&#45;&gt;12 -->
<g id="edge14" class="edge">
<title>10:s&#45;&gt;12:n</title>
<path fill="none" stroke="black" d="M1154.36,-379.71C1154.36,-379.71 1503.27,-335.99 1567.32,-327.97"/>
<polygon fill="black" stroke="black" points="1567.88,-331.43 1577.36,-326.71 1567,-324.48 1567.88,-331.43"/>
<text text-anchor="middle" x="1458.86" y="-350.51" font-family="Helvetica,sans-Serif" font-size="14.00">&gt; 0.002965</text>
</g>
<!-- 6 -->
<g id="node11" class="node">
<title>6</title>
<ellipse fill="#44e5e5" stroke="black" cx="175.36" cy="-160.71" rx="175.23" ry="35.21"/>
<text text-anchor="start" x="136.36" y="-171.51" font-family="Helvetica,sans-Serif" font-weight="bold" font-size="14.00"> Class=R </text>
<text text-anchor="start" x="209.36" y="-171.51" font-family="Helvetica,sans-Serif" font-size="14.00"> </text>
<text text-anchor="start" x="101.36" y="-157.51" font-family="Helvetica,sans-Serif" font-size="14.00"> error: 0.821, n=656 </text>
<text text-anchor="start" x="59.36" y="-143.51" font-family="Helvetica,sans-Serif" font-size="14.00"> p: (0.08, 0.06, 0.10, 0.46, 0.29) </text>
</g>
<!-- 5&#45;&gt;6 -->
<g id="edge10" class="edge">
<title>5:s&#45;&gt;6:n</title>
<path fill="none" stroke="black" d="M360.36,-250.71C360.36,-250.71 223.11,-211.39 185.05,-200.49"/>
<polygon fill="black" stroke="black" points="185.94,-197.1 175.36,-197.71 184.01,-203.83 185.94,-197.1"/>
<text text-anchor="middle" x="310.36" y="-221.51" font-family="Helvetica,sans-Serif" font-size="14.00">&lt;= 0.0003169</text>
</g>
<!-- 7 -->
<g id="node12" class="node">
<title>7</title>
<polygon fill="#44e5e5" stroke="black" points="670.36,-199.71 422.36,-199.71 422.36,-121.71 670.36,-121.71 670.36,-199.71"/>
<text text-anchor="start" x="507.36" y="-185.51" font-family="Helvetica,sans-Serif" font-weight="bold" font-size="14.00"> Class=S </text>
<text text-anchor="start" x="580.36" y="-185.51" font-family="Helvetica,sans-Serif" font-size="14.00"> </text>
<text text-anchor="start" x="472.36" y="-171.51" font-family="Helvetica,sans-Serif" font-size="14.00"> error: 0.742, n=420 </text>
<text text-anchor="start" x="430.36" y="-157.51" font-family="Helvetica,sans-Serif" font-size="14.00"> p: (0.04, 0.02, 0.17, 0.25, 0.52) </text>
<text text-anchor="start" x="538.36" y="-143.51" font-family="Helvetica,sans-Serif" font-size="14.00">&#45;&#45;&#45;</text>
<text text-anchor="start" x="530.86" y="-129.51" font-family="Helvetica,sans-Serif" font-weight="bold" font-size="14.00">X28</text>
</g>
<!-- 5&#45;&gt;7 -->
<g id="edge11" class="edge">
<title>5:s&#45;&gt;7:n</title>
<path fill="none" stroke="black" d="M360.36,-250.71C360.36,-250.71 498.35,-212.87 536.62,-202.38"/>
<polygon fill="black" stroke="black" points="537.64,-205.73 546.36,-199.71 535.79,-198.98 537.64,-205.73"/>
<text text-anchor="middle" x="523.36" y="-221.51" font-family="Helvetica,sans-Serif" font-size="14.00">&gt; 0.0003169</text>
</g>
<!-- 8 -->
<g id="node13" class="node">
<title>8</title>
<ellipse fill="#3d76cc" stroke="black" cx="546.36" cy="-35.36" rx="175.23" ry="35.21"/>
<text text-anchor="start" x="507.36" y="-46.16" font-family="Helvetica,sans-Serif" font-weight="bold" font-size="14.00"> Class=S </text>
<text text-anchor="start" x="580.36" y="-46.16" font-family="Helvetica,sans-Serif" font-size="14.00"> </text>
<text text-anchor="start" x="472.36" y="-32.16" font-family="Helvetica,sans-Serif" font-size="14.00"> error: 0.606, n=227 </text>
<text text-anchor="start" x="430.36" y="-18.16" font-family="Helvetica,sans-Serif" font-size="14.00"> p: (0.01, 0.01, 0.08, 0.33, 0.57) </text>
</g>
<!-- 7&#45;&gt;8 -->
<g id="edge12" class="edge">
<title>7:s&#45;&gt;8:n</title>
<path fill="none" stroke="black" d="M546.36,-121.71C546.36,-121.71 546.36,-95.93 546.36,-81.03"/>
<polygon fill="black" stroke="black" points="549.86,-80.71 546.36,-70.71 542.86,-80.71 549.86,-80.71"/>
<text text-anchor="middle" x="584.36" y="-92.51" font-family="Helvetica,sans-Serif" font-size="14.00">&gt; 0.01512</text>
</g>
<!-- 17 -->
<g id="node18" class="node">
<title>17</title>
<polygon fill="#64e544" stroke="black" points="2167.36,-457.71 1919.36,-457.71 1919.36,-379.71 2167.36,-379.71 2167.36,-457.71"/>
<text text-anchor="start" x="2003.86" y="-443.51" font-family="Helvetica,sans-Serif" font-weight="bold" font-size="14.00"> Class=D </text>
<text text-anchor="start" x="2077.86" y="-443.51" font-family="Helvetica,sans-Serif" font-size="14.00"> </text>
<text text-anchor="start" x="1969.36" y="-429.51" font-family="Helvetica,sans-Serif" font-size="14.00"> error: 0.740, n=605 </text>
<text text-anchor="start" x="1927.36" y="-415.51" font-family="Helvetica,sans-Serif" font-size="14.00"> p: (0.59, 0.11, 0.10, 0.03, 0.18) </text>
<text text-anchor="start" x="2035.36" y="-401.51" font-family="Helvetica,sans-Serif" font-size="14.00">&#45;&#45;&#45;</text>
<text text-anchor="start" x="2027.86" y="-387.51" font-family="Helvetica,sans-Serif" font-weight="bold" font-size="14.00">X11</text>
</g>
<!-- 16&#45;&gt;17 -->
<g id="edge17" class="edge">
<title>16:s&#45;&gt;17:n</title>
<path fill="none" stroke="black" d="M2157.36,-508.71C2157.36,-508.71 2079.92,-474.06 2052.69,-461.88"/>
<polygon fill="black" stroke="black" points="2053.92,-458.6 2043.36,-457.71 2051.06,-464.99 2053.92,-458.6"/>
<text text-anchor="middle" x="2123.86" y="-479.51" font-family="Helvetica,sans-Serif" font-size="14.00">&lt;= 0.001235</text>
</g>
<!-- 19 -->
<g id="node19" class="node">
<title>19</title>
<polygon fill="#64e544" stroke="black" points="2513.36,-457.71 2265.36,-457.71 2265.36,-379.71 2513.36,-379.71 2513.36,-457.71"/>
<text text-anchor="start" x="2349.86" y="-443.51" font-family="Helvetica,sans-Serif" font-weight="bold" font-size="14.00"> Class=D </text>
<text text-anchor="start" x="2423.86" y="-443.51" font-family="Helvetica,sans-Serif" font-size="14.00"> </text>
<text text-anchor="start" x="2310.86" y="-429.51" font-family="Helvetica,sans-Serif" font-size="14.00"> error: 0.959, n=1286 </text>
<text text-anchor="start" x="2273.36" y="-415.51" font-family="Helvetica,sans-Serif" font-size="14.00"> p: (0.29, 0.17, 0.25, 0.09, 0.20) </text>
<text text-anchor="start" x="2383.86" y="-401.51" font-family="Helvetica,sans-Serif" font-size="14.00">&#45;&#45;</text>
<text text-anchor="start" x="2378.86" y="-387.51" font-family="Helvetica,sans-Serif" font-weight="bold" font-size="14.00">X2</text>
</g>
<!-- 16&#45;&gt;19 -->
<g id="edge18" class="edge">
<title>16:s&#45;&gt;19:n</title>
<path fill="none" stroke="black" d="M2157.36,-508.71C2157.36,-508.71 2334.99,-469.66 2379.39,-459.9"/>
<polygon fill="black" stroke="black" points="2380.35,-463.28 2389.36,-457.71 2378.84,-456.44 2380.35,-463.28"/>
<text text-anchor="middle" x="2343.86" y="-479.51" font-family="Helvetica,sans-Serif" font-size="14.00">&gt; 0.001235</text>
</g>
<!-- 18 -->
<g id="node20" class="node">
<title>18</title>
<ellipse fill="#3dcc76" stroke="black" cx="2018.36" cy="-289.71" rx="175.23" ry="35.21"/>
<text text-anchor="start" x="1978.86" y="-300.51" font-family="Helvetica,sans-Serif" font-weight="bold" font-size="14.00"> Class=D </text>
<text text-anchor="start" x="2052.86" y="-300.51" font-family="Helvetica,sans-Serif" font-size="14.00"> </text>
<text text-anchor="start" x="1944.36" y="-286.51" font-family="Helvetica,sans-Serif" font-size="14.00"> error: 0.662, n=469 </text>
<text text-anchor="start" x="1902.36" y="-272.51" font-family="Helvetica,sans-Serif" font-size="14.00"> p: (0.65, 0.12, 0.07, 0.02, 0.14) </text>
</g>
<!-- 17&#45;&gt;18 -->
<g id="edge19" class="edge">
<title>17:s&#45;&gt;18:n</title>
<path fill="none" stroke="black" d="M2043.36,-379.71C2043.36,-379.71 2029.88,-351.13 2022.72,-335.94"/>
<polygon fill="black" stroke="black" points="2025.79,-334.26 2018.36,-326.71 2019.46,-337.25 2025.79,-334.26"/>
<text text-anchor="middle" x="2079.36" y="-350.51" font-family="Helvetica,sans-Serif" font-size="14.00">&lt;= 0.00066</text>
</g>
<!-- 20 -->
<g id="node21" class="node">
<title>20</title>
<polygon fill="#3dcc76" stroke="black" points="2513.36,-328.71 2265.36,-328.71 2265.36,-250.71 2513.36,-250.71 2513.36,-328.71"/>
<text text-anchor="start" x="2349.86" y="-314.51" font-family="Helvetica,sans-Serif" font-weight="bold" font-size="14.00"> Class=D </text>
<text text-anchor="start" x="2423.86" y="-314.51" font-family="Helvetica,sans-Serif" font-size="14.00"> </text>
<text text-anchor="start" x="2315.36" y="-300.51" font-family="Helvetica,sans-Serif" font-size="14.00"> error: 0.993, n=511 </text>
<text text-anchor="start" x="2273.36" y="-286.51" font-family="Helvetica,sans-Serif" font-size="14.00"> p: (0.24, 0.17, 0.18, 0.18, 0.23) </text>
<text text-anchor="start" x="2383.86" y="-272.51" font-family="Helvetica,sans-Serif" font-size="14.00">&#45;&#45;</text>
<text text-anchor="start" x="2378.86" y="-258.51" font-family="Helvetica,sans-Serif" font-weight="bold" font-size="14.00">X2</text>
</g>
<!-- 19&#45;&gt;20 -->
<g id="edge20" class="edge">
<title>19:s&#45;&gt;20:n</title>
<path fill="none" stroke="black" d="M2389.36,-379.71C2389.36,-379.71 2389.36,-353.93 2389.36,-339.03"/>
<polygon fill="black" stroke="black" points="2392.86,-338.71 2389.36,-328.71 2385.86,-338.71 2392.86,-338.71"/>
<text text-anchor="middle" x="2440.36" y="-350.51" font-family="Helvetica,sans-Serif" font-size="14.00">&lt;= &#45;0.001026</text>
</g>
<!-- 23 -->
<g id="node22" class="node">
<title>23</title>
<polygon fill="#3dcc76" stroke="black" points="2858.36,-328.71 2610.36,-328.71 2610.36,-250.71 2858.36,-250.71 2858.36,-328.71"/>
<text text-anchor="start" x="2694.86" y="-314.51" font-family="Helvetica,sans-Serif" font-weight="bold" font-size="14.00"> Class=D </text>
<text text-anchor="start" x="2768.86" y="-314.51" font-family="Helvetica,sans-Serif" font-size="14.00"> </text>
<text text-anchor="start" x="2660.36" y="-300.51" font-family="Helvetica,sans-Serif" font-size="14.00"> error: 0.892, n=775 </text>
<text text-anchor="start" x="2618.36" y="-286.51" font-family="Helvetica,sans-Serif" font-size="14.00"> p: (0.32, 0.17, 0.29, 0.03, 0.18) </text>
<text text-anchor="start" x="2728.86" y="-272.51" font-family="Helvetica,sans-Serif" font-size="14.00">&#45;&#45;</text>
<text text-anchor="start" x="2723.86" y="-258.51" font-family="Helvetica,sans-Serif" font-weight="bold" font-size="14.00">X2</text>
</g>
<!-- 19&#45;&gt;23 -->
<g id="edge21" class="edge">
<title>19:s&#45;&gt;23:n</title>
<path fill="none" stroke="black" d="M2389.36,-379.71C2389.36,-379.71 2667.84,-338.54 2724.41,-330.18"/>
<polygon fill="black" stroke="black" points="2724.98,-333.64 2734.36,-328.71 2723.96,-326.71 2724.98,-333.64"/>
<text text-anchor="middle" x="2648.36" y="-350.51" font-family="Helvetica,sans-Serif" font-size="14.00">&gt; &#45;0.001026</text>
</g>
<!-- 21 -->
<g id="node23" class="node">
<title>21</title>
<polygon fill="#44e5e5" stroke="black" points="2487.36,-199.71 2239.36,-199.71 2239.36,-121.71 2487.36,-121.71 2487.36,-199.71"/>
<text text-anchor="start" x="2323.86" y="-185.51" font-family="Helvetica,sans-Serif" font-weight="bold" font-size="14.00"> Class=D </text>
<text text-anchor="start" x="2397.86" y="-185.51" font-family="Helvetica,sans-Serif" font-size="14.00"> </text>
<text text-anchor="start" x="2289.36" y="-171.51" font-family="Helvetica,sans-Serif" font-size="14.00"> error: 0.986, n=430 </text>
<text text-anchor="start" x="2247.36" y="-157.51" font-family="Helvetica,sans-Serif" font-size="14.00"> p: (0.28, 0.20, 0.17, 0.16, 0.20) </text>
<text text-anchor="start" x="2357.86" y="-143.51" font-family="Helvetica,sans-Serif" font-size="14.00">&#45;&#45;</text>
<text text-anchor="start" x="2352.86" y="-129.51" font-family="Helvetica,sans-Serif" font-weight="bold" font-size="14.00">X6</text>
</g>
<!-- 20&#45;&gt;21 -->
<g id="edge22" class="edge">
<title>20:s&#45;&gt;21:n</title>
<path fill="none" stroke="black" d="M2389.36,-250.71C2389.36,-250.71 2375.64,-223.79 2368.13,-209.06"/>
<polygon fill="black" stroke="black" points="2371.02,-207.03 2363.36,-199.71 2364.79,-210.21 2371.02,-207.03"/>
<text text-anchor="middle" x="2425.36" y="-221.51" font-family="Helvetica,sans-Serif" font-size="14.00">&gt; &#45;0.009847</text>
</g>
<!-- 24 -->
<g id="node25" class="node">
<title>24</title>
<ellipse fill="#44e5e5" stroke="black" cx="2734.36" cy="-160.71" rx="175.23" ry="35.21"/>
<text text-anchor="start" x="2694.86" y="-171.51" font-family="Helvetica,sans-Serif" font-weight="bold" font-size="14.00"> Class=D </text>
<text text-anchor="start" x="2768.86" y="-171.51" font-family="Helvetica,sans-Serif" font-size="14.00"> </text>
<text text-anchor="start" x="2660.36" y="-157.51" font-family="Helvetica,sans-Serif" font-size="14.00"> error: 0.872, n=471 </text>
<text text-anchor="start" x="2618.36" y="-143.51" font-family="Helvetica,sans-Serif" font-size="14.00"> p: (0.40, 0.21, 0.21, 0.03, 0.15) </text>
</g>
<!-- 23&#45;&gt;24 -->
<g id="edge24" class="edge">
<title>23:s&#45;&gt;24:n</title>
<path fill="none" stroke="black" d="M2734.36,-250.71C2734.36,-250.71 2734.36,-223.33 2734.36,-207.93"/>
<polygon fill="black" stroke="black" points="2737.86,-207.71 2734.36,-197.71 2730.86,-207.71 2737.86,-207.71"/>
<text text-anchor="middle" x="2782.86" y="-221.51" font-family="Helvetica,sans-Serif" font-size="14.00">&lt;= 0.002397</text>
</g>
<!-- 25 -->
<g id="node26" class="node">
<title>25</title>
<polygon fill="#44e5e5" stroke="black" points="3229.36,-199.71 2981.36,-199.71 2981.36,-121.71 3229.36,-121.71 3229.36,-199.71"/>
<text text-anchor="start" x="3066.36" y="-185.51" font-family="Helvetica,sans-Serif" font-weight="bold" font-size="14.00"> Class=P </text>
<text text-anchor="start" x="3139.36" y="-185.51" font-family="Helvetica,sans-Serif" font-size="14.00"> </text>
<text text-anchor="start" x="3031.36" y="-171.51" font-family="Helvetica,sans-Serif" font-size="14.00"> error: 0.857, n=304 </text>
<text text-anchor="start" x="2989.36" y="-157.51" font-family="Helvetica,sans-Serif" font-size="14.00"> p: (0.21, 0.12, 0.41, 0.03, 0.23) </text>
<text text-anchor="start" x="3097.36" y="-143.51" font-family="Helvetica,sans-Serif" font-size="14.00">&#45;&#45;&#45;</text>
<text text-anchor="start" x="3089.86" y="-129.51" font-family="Helvetica,sans-Serif" font-weight="bold" font-size="14.00">X29</text>
</g>
<!-- 23&#45;&gt;25 -->
<g id="edge25" class="edge">
<title>23:s&#45;&gt;25:n</title>
<path fill="none" stroke="black" d="M2734.36,-250.71C2734.36,-250.71 3036.44,-209.19 3095.44,-201.07"/>
<polygon fill="black" stroke="black" points="3095.93,-204.54 3105.36,-199.71 3094.98,-197.61 3095.93,-204.54"/>
<text text-anchor="middle" x="3006.86" y="-221.51" font-family="Helvetica,sans-Serif" font-size="14.00">&gt; 0.002397</text>
</g>
<!-- 22 -->
<g id="node24" class="node">
<title>22</title>
<ellipse fill="#3d76cc" stroke="black" cx="2363.36" cy="-35.36" rx="175.23" ry="35.21"/>
<text text-anchor="start" x="2323.86" y="-46.16" font-family="Helvetica,sans-Serif" font-weight="bold" font-size="14.00"> Class=D </text>
<text text-anchor="start" x="2397.86" y="-46.16" font-family="Helvetica,sans-Serif" font-size="14.00"> </text>
<text text-anchor="start" x="2289.36" y="-32.16" font-family="Helvetica,sans-Serif" font-size="14.00"> error: 0.957, n=224 </text>
<text text-anchor="start" x="2247.36" y="-18.16" font-family="Helvetica,sans-Serif" font-size="14.00"> p: (0.33, 0.15, 0.14, 0.25, 0.13) </text>
</g>
<!-- 21&#45;&gt;22 -->
<g id="edge23" class="edge">
<title>21:s&#45;&gt;22:n</title>
<path fill="none" stroke="black" d="M2363.36,-121.71C2363.36,-121.71 2363.36,-95.93 2363.36,-81.03"/>
<polygon fill="black" stroke="black" points="2366.86,-80.71 2363.36,-70.71 2359.86,-80.71 2366.86,-80.71"/>
<text text-anchor="middle" x="2416.36" y="-92.51" font-family="Helvetica,sans-Serif" font-size="14.00">&lt;= &#45;4.231e&#45;05</text>
</g>
<!-- 26 -->
<g id="node27" class="node">
<title>26</title>
<ellipse fill="#3d76cc" stroke="black" cx="3105.36" cy="-35.36" rx="175.23" ry="35.21"/>
<text text-anchor="start" x="3066.36" y="-46.16" font-family="Helvetica,sans-Serif" font-weight="bold" font-size="14.00"> Class=P </text>
<text text-anchor="start" x="3139.36" y="-46.16" font-family="Helvetica,sans-Serif" font-size="14.00"> </text>
<text text-anchor="start" x="3031.36" y="-32.16" font-family="Helvetica,sans-Serif" font-size="14.00"> error: 0.807, n=225 </text>
<text text-anchor="start" x="2989.36" y="-18.16" font-family="Helvetica,sans-Serif" font-size="14.00"> p: (0.14, 0.10, 0.50, 0.03, 0.23) </text>
</g>
<!-- 25&#45;&gt;26 -->
<g id="edge26" class="edge">
<title>25:s&#45;&gt;26:n</title>
<path fill="none" stroke="black" d="M3105.36,-121.71C3105.36,-121.71 3105.36,-95.93 3105.36,-81.03"/>
<polygon fill="black" stroke="black" points="3108.86,-80.71 3105.36,-70.71 3101.86,-80.71 3108.86,-80.71"/>
<text text-anchor="middle" x="3153.86" y="-92.51" font-family="Helvetica,sans-Serif" font-size="14.00">&lt;= 0.001926</text>
</g>
</g>
</svg>
