<?xml version="1.0" encoding="UTF-8" standalone="no"?>
<!DOCTYPE svg PUBLIC "-//W3C//DTD SVG 1.1//EN"
 "http://www.w3.org/Graphics/SVG/1.1/DTD/svg11.dtd">
<!-- Generated by graphviz version 2.43.0 (0)
 -->
<!-- Title: Tree Pages: 1 -->
<svg width="598pt" height="309pt"
 viewBox="0.00 0.00 597.66 308.71" xmlns="http://www.w3.org/2000/svg" xmlns:xlink="http://www.w3.org/1999/xlink">
<g id="graph0" class="graph" transform="scale(1 1) rotate(0) translate(18 290.71)">
<title>Tree</title>
<polygon fill="white" stroke="transparent" points="-18,18 -18,-290.71 579.66,-290.71 579.66,18 -18,18"/>
<!-- 0 -->
<g id="node1" class="node">
<title>0</title>
<polygon fill="white" stroke="transparent" points="307.33,-272.71 253.33,-272.71 253.33,-236.71 307.33,-236.71 307.33,-272.71"/>
<text text-anchor="middle" x="280.33" y="-251.01" font-family="Helvetica,sans-Serif" font-size="14.00">0</text>
</g>
<!-- 1 -->
<g id="node2" class="node">
<title>1</title>
<polygon fill="#cc3d3d" stroke="black" points="371.33,-199.71 189.33,-199.71 189.33,-121.71 371.33,-121.71 371.33,-199.71"/>
<text text-anchor="start" x="225.83" y="-185.51" font-family="Helvetica,sans-Serif" font-weight="bold" font-size="14.00"> Class=False </text>
<text text-anchor="start" x="329.83" y="-185.51" font-family="Helvetica,sans-Serif" font-size="14.00"> </text>
<text text-anchor="start" x="197.33" y="-171.51" font-family="Helvetica,sans-Serif" font-size="14.00"> error: 0.709, n=10885 </text>
<text text-anchor="start" x="225.33" y="-157.51" font-family="Helvetica,sans-Serif" font-size="14.00"> p: (0.81, 0.19) </text>
<text text-anchor="start" x="272.33" y="-143.51" font-family="Helvetica,sans-Serif" font-size="14.00">&#45;&#45;&#45;</text>
<text text-anchor="start" x="268.83" y="-129.51" font-family="Helvetica,sans-Serif" font-weight="bold" font-size="14.00">loc</text>
</g>
<!-- 0&#45;&gt;1 -->
<!-- 2 -->
<g id="node3" class="node">
<title>2</title>
<ellipse fill="#4485e5" stroke="black" cx="122.33" cy="-35.36" rx="122.16" ry="35.21"/>
<text text-anchor="start" x="67.83" y="-46.16" font-family="Helvetica,sans-Serif" font-weight="bold" font-size="14.00"> Class=False </text>
<text text-anchor="start" x="171.83" y="-46.16" font-family="Helvetica,sans-Serif" font-size="14.00"> </text>
<text text-anchor="start" x="43.83" y="-32.16" font-family="Helvetica,sans-Serif" font-size="14.00"> error: 0.929, n=3644 </text>
<text text-anchor="start" x="67.33" y="-18.16" font-family="Helvetica,sans-Serif" font-size="14.00"> p: (0.66, 0.34) </text>
</g>
<!-- 1&#45;&gt;2 -->
<g id="edge2" class="edge">
<title>1:s&#45;&gt;2:n</title>
<path fill="none" stroke="black" d="M280.33,-121.71C280.33,-121.71 166.8,-85.07 132.21,-73.9"/>
<polygon fill="black" stroke="black" points="132.92,-70.45 122.33,-70.71 130.77,-77.11 132.92,-70.45"/>
<text text-anchor="middle" x="237.83" y="-92.51" font-family="Helvetica,sans-Serif" font-size="14.00">&gt; 34</text>
</g>
<!-- 3 -->
<g id="node4" class="node">
<title>3</title>
<ellipse fill="#4485e5" stroke="black" cx="439.33" cy="-35.36" rx="122.16" ry="35.21"/>
<text text-anchor="start" x="384.83" y="-46.16" font-family="Helvetica,sans-Serif" font-weight="bold" font-size="14.00"> Class=False </text>
<text text-anchor="start" x="488.83" y="-46.16" font-family="Helvetica,sans-Serif" font-size="14.00"> </text>
<text text-anchor="start" x="360.83" y="-32.16" font-family="Helvetica,sans-Serif" font-size="14.00"> error: 0.522, n=7241 </text>
<text text-anchor="start" x="384.33" y="-18.16" font-family="Helvetica,sans-Serif" font-size="14.00"> p: (0.88, 0.12) </text>
</g>
<!-- 1&#45;&gt;3 -->
<g id="edge3" class="edge">
<title>1:s&#45;&gt;3:n</title>
<path fill="none" stroke="black" d="M280.33,-121.71C280.33,-121.71 394.57,-85.07 429.38,-73.9"/>
<polygon fill="black" stroke="black" points="430.88,-77.1 439.33,-70.71 428.74,-70.43 430.88,-77.1"/>
<text text-anchor="middle" x="401.83" y="-92.51" font-family="Helvetica,sans-Serif" font-size="14.00">&lt;= 34</text>
</g>
</g>
</svg>
