<?xml version="1.0" encoding="UTF-8" standalone="no"?>
<!DOCTYPE svg PUBLIC "-//W3C//DTD SVG 1.1//EN"
 "http://www.w3.org/Graphics/SVG/1.1/DTD/svg11.dtd">
<!-- Generated by graphviz version 2.43.0 (0)
 -->
<!-- Title: Tree Pages: 1 -->
<svg width="610pt" height="696pt"
 viewBox="0.00 0.00 610.29 695.71" xmlns="http://www.w3.org/2000/svg" xmlns:xlink="http://www.w3.org/1999/xlink">
<g id="graph0" class="graph" transform="scale(1 1) rotate(0) translate(18 677.71)">
<title>Tree</title>
<polygon fill="white" stroke="transparent" points="-18,18 -18,-677.71 592.29,-677.71 592.29,18 -18,18"/>
<!-- 0 -->
<g id="node1" class="node">
<title>0</title>
<polygon fill="white" stroke="transparent" points="416.33,-659.71 362.33,-659.71 362.33,-623.71 416.33,-623.71 416.33,-659.71"/>
<text text-anchor="middle" x="389.33" y="-638.01" font-family="Helvetica,sans-Serif" font-size="14.00">0</text>
</g>
<!-- 1 -->
<g id="node2" class="node">
<title>1</title>
<polygon fill="#cc3d3d" stroke="black" points="475.83,-586.71 302.83,-586.71 302.83,-508.71 475.83,-508.71 475.83,-586.71"/>
<text text-anchor="start" x="334.83" y="-572.51" font-family="Helvetica,sans-Serif" font-weight="bold" font-size="14.00"> Class=False </text>
<text text-anchor="start" x="438.83" y="-572.51" font-family="Helvetica,sans-Serif" font-size="14.00"> </text>
<text text-anchor="start" x="310.83" y="-558.51" font-family="Helvetica,sans-Serif" font-size="14.00"> error: 0.621, n=2109 </text>
<text text-anchor="start" x="334.33" y="-544.51" font-family="Helvetica,sans-Serif" font-size="14.00"> p: (0.85, 0.15) </text>
<text text-anchor="start" x="373.33" y="-530.51" font-family="Helvetica,sans-Serif" font-size="14.00">&#45;&#45;&#45;&#45;&#45;&#45;</text>
<text text-anchor="start" x="360.83" y="-516.51" font-family="Helvetica,sans-Serif" font-weight="bold" font-size="14.00">lOCode</text>
</g>
<!-- 0&#45;&gt;1 -->
<!-- 2 -->
<g id="node3" class="node">
<title>2</title>
<polygon fill="#e5d544" stroke="black" points="270.83,-457.71 97.83,-457.71 97.83,-379.71 270.83,-379.71 270.83,-457.71"/>
<text text-anchor="start" x="129.83" y="-443.51" font-family="Helvetica,sans-Serif" font-weight="bold" font-size="14.00"> Class=False </text>
<text text-anchor="start" x="233.83" y="-443.51" font-family="Helvetica,sans-Serif" font-size="14.00"> </text>
<text text-anchor="start" x="105.83" y="-429.51" font-family="Helvetica,sans-Serif" font-size="14.00"> error: 0.805, n=1245 </text>
<text text-anchor="start" x="129.33" y="-415.51" font-family="Helvetica,sans-Serif" font-size="14.00"> p: (0.75, 0.25) </text>
<text text-anchor="start" x="157.83" y="-401.51" font-family="Helvetica,sans-Serif" font-size="14.00">&#45;&#45;&#45;&#45;&#45;&#45;&#45;&#45;&#45;&#45;</text>
<text text-anchor="start" x="141.33" y="-387.51" font-family="Helvetica,sans-Serif" font-weight="bold" font-size="14.00">total_Opnd</text>
</g>
<!-- 1&#45;&gt;2 -->
<g id="edge2" class="edge">
<title>1:s&#45;&gt;2:n</title>
<path fill="none" stroke="black" d="M389.33,-508.71C389.33,-508.71 235.17,-470.36 194.22,-460.17"/>
<polygon fill="black" stroke="black" points="194.88,-456.73 184.33,-457.71 193.19,-463.52 194.88,-456.73"/>
<text text-anchor="middle" x="324.33" y="-479.51" font-family="Helvetica,sans-Serif" font-size="14.00">&gt; 2</text>
</g>
<!-- 7 -->
<g id="node4" class="node">
<title>7</title>
<ellipse fill="#e5d544" stroke="black" cx="458.33" cy="-418.71" rx="115.93" ry="35.21"/>
<text text-anchor="start" x="403.83" y="-429.51" font-family="Helvetica,sans-Serif" font-weight="bold" font-size="14.00"> Class=False </text>
<text text-anchor="start" x="507.83" y="-429.51" font-family="Helvetica,sans-Serif" font-size="14.00"> </text>
<text text-anchor="start" x="384.33" y="-415.51" font-family="Helvetica,sans-Serif" font-size="14.00"> error: 0.159, n=864 </text>
<text text-anchor="start" x="403.33" y="-401.51" font-family="Helvetica,sans-Serif" font-size="14.00"> p: (0.98, 0.02) </text>
</g>
<!-- 1&#45;&gt;7 -->
<g id="edge3" class="edge">
<title>1:s&#45;&gt;7:n</title>
<path fill="none" stroke="black" d="M389.33,-508.71C389.33,-508.71 431.87,-476.04 450.14,-462"/>
<polygon fill="black" stroke="black" points="452.53,-464.58 458.33,-455.71 448.27,-459.03 452.53,-464.58"/>
<text text-anchor="middle" x="451.33" y="-479.51" font-family="Helvetica,sans-Serif" font-size="14.00">&lt;= 2</text>
</g>
<!-- 3 -->
<g id="node5" class="node">
<title>3</title>
<ellipse fill="#59cc3d" stroke="black" cx="122.33" cy="-289.71" rx="122.16" ry="35.21"/>
<text text-anchor="start" x="67.83" y="-300.51" font-family="Helvetica,sans-Serif" font-weight="bold" font-size="14.00"> Class=False </text>
<text text-anchor="start" x="171.83" y="-300.51" font-family="Helvetica,sans-Serif" font-size="14.00"> </text>
<text text-anchor="start" x="43.83" y="-286.51" font-family="Helvetica,sans-Serif" font-size="14.00"> error: 0.728, n=1098 </text>
<text text-anchor="start" x="67.33" y="-272.51" font-family="Helvetica,sans-Serif" font-size="14.00"> p: (0.80, 0.20) </text>
</g>
<!-- 2&#45;&gt;3 -->
<g id="edge4" class="edge">
<title>2:s&#45;&gt;3:n</title>
<path fill="none" stroke="black" d="M184.33,-379.71C184.33,-379.71 146.49,-347.36 129.93,-333.21"/>
<polygon fill="black" stroke="black" points="132.2,-330.55 122.33,-326.71 127.66,-335.87 132.2,-330.55"/>
<text text-anchor="middle" x="186.83" y="-350.51" font-family="Helvetica,sans-Serif" font-size="14.00">&lt;= 64</text>
</g>
<!-- 4 -->
<g id="node6" class="node">
<title>4</title>
<polygon fill="#59cc3d" stroke="black" points="500.33,-328.71 316.33,-328.71 316.33,-250.71 500.33,-250.71 500.33,-328.71"/>
<text text-anchor="start" x="357.33" y="-314.51" font-family="Helvetica,sans-Serif" font-weight="bold" font-size="14.00"> Class=True </text>
<text text-anchor="start" x="454.33" y="-314.51" font-family="Helvetica,sans-Serif" font-size="14.00"> </text>
<text text-anchor="start" x="334.33" y="-300.51" font-family="Helvetica,sans-Serif" font-size="14.00"> error: 0.988, n=147 </text>
<text text-anchor="start" x="353.33" y="-286.51" font-family="Helvetica,sans-Serif" font-size="14.00"> p: (0.44, 0.56) </text>
<text text-anchor="start" x="363.33" y="-272.51" font-family="Helvetica,sans-Serif" font-size="14.00">&#45;&#45;&#45;&#45;&#45;&#45;&#45;&#45;&#45;&#45;&#45;&#45;&#45;&#45;&#45;&#45;&#45;</text>
<text text-anchor="start" x="324.33" y="-258.51" font-family="Helvetica,sans-Serif" font-weight="bold" font-size="14.00">locCodeAndComment</text>
</g>
<!-- 2&#45;&gt;4 -->
<g id="edge5" class="edge">
<title>2:s&#45;&gt;4:n</title>
<path fill="none" stroke="black" d="M184.33,-379.71C184.33,-379.71 355.06,-340.84 398.42,-330.97"/>
<polygon fill="black" stroke="black" points="399.36,-334.34 408.33,-328.71 397.8,-327.52 399.36,-334.34"/>
<text text-anchor="middle" x="340.83" y="-350.51" font-family="Helvetica,sans-Serif" font-size="14.00">&gt; 64</text>
</g>
<!-- 5 -->
<g id="node7" class="node">
<title>5</title>
<polygon fill="#44e5b5" stroke="black" points="490.33,-199.71 326.33,-199.71 326.33,-121.71 490.33,-121.71 490.33,-199.71"/>
<text text-anchor="start" x="357.33" y="-185.51" font-family="Helvetica,sans-Serif" font-weight="bold" font-size="14.00"> Class=True </text>
<text text-anchor="start" x="454.33" y="-185.51" font-family="Helvetica,sans-Serif" font-size="14.00"> </text>
<text text-anchor="start" x="334.33" y="-171.51" font-family="Helvetica,sans-Serif" font-size="14.00"> error: 0.943, n=111 </text>
<text text-anchor="start" x="353.33" y="-157.51" font-family="Helvetica,sans-Serif" font-size="14.00"> p: (0.36, 0.64) </text>
<text text-anchor="start" x="384.33" y="-143.51" font-family="Helvetica,sans-Serif" font-size="14.00">&#45;&#45;&#45;&#45;&#45;&#45;&#45;&#45;&#45;</text>
<text text-anchor="start" x="362.33" y="-129.51" font-family="Helvetica,sans-Serif" font-weight="bold" font-size="14.00">lOComment</text>
</g>
<!-- 4&#45;&gt;5 -->
<g id="edge6" class="edge">
<title>4:s&#45;&gt;5:n</title>
<path fill="none" stroke="black" d="M408.33,-250.71C408.33,-250.71 408.33,-224.93 408.33,-210.03"/>
<polygon fill="black" stroke="black" points="411.83,-209.71 408.33,-199.71 404.83,-209.71 411.83,-209.71"/>
<text text-anchor="middle" x="427.33" y="-221.51" font-family="Helvetica,sans-Serif" font-size="14.00">&lt;= 0</text>
</g>
<!-- 6 -->
<g id="node8" class="node">
<title>6</title>
<ellipse fill="#3d76cc" stroke="black" cx="408.33" cy="-35.36" rx="115.93" ry="35.21"/>
<text text-anchor="start" x="357.33" y="-46.16" font-family="Helvetica,sans-Serif" font-weight="bold" font-size="14.00"> Class=True </text>
<text text-anchor="start" x="454.33" y="-46.16" font-family="Helvetica,sans-Serif" font-size="14.00"> </text>
<text text-anchor="start" x="334.33" y="-32.16" font-family="Helvetica,sans-Serif" font-size="14.00"> error: 0.966, n=102 </text>
<text text-anchor="start" x="353.33" y="-18.16" font-family="Helvetica,sans-Serif" font-size="14.00"> p: (0.39, 0.61) </text>
</g>
<!-- 5&#45;&gt;6 -->
<g id="edge7" class="edge">
<title>5:s&#45;&gt;6:n</title>
<path fill="none" stroke="black" d="M408.33,-121.71C408.33,-121.71 408.33,-95.93 408.33,-81.03"/>
<polygon fill="black" stroke="black" points="411.83,-80.71 408.33,-70.71 404.83,-80.71 411.83,-80.71"/>
<text text-anchor="middle" x="431.83" y="-92.51" font-family="Helvetica,sans-Serif" font-size="14.00">&lt;= 19</text>
</g>
</g>
</svg>
