<?xml version="1.0" encoding="UTF-8" standalone="no"?>
<!DOCTYPE svg PUBLIC "-//W3C//DTD SVG 1.1//EN"
 "http://www.w3.org/Graphics/SVG/1.1/DTD/svg11.dtd">
<!-- Generated by graphviz version 2.43.0 (0)
 -->
<!-- Title: Tree Pages: 1 -->
<svg width="6196pt" height="696pt"
 viewBox="0.00 0.00 6196.40 695.71" xmlns="http://www.w3.org/2000/svg" xmlns:xlink="http://www.w3.org/1999/xlink">
<g id="graph0" class="graph" transform="scale(1 1) rotate(0) translate(18 677.71)">
<title>Tree</title>
<polygon fill="white" stroke="transparent" points="-18,18 -18,-677.71 6178.4,-677.71 6178.4,18 -18,18"/>
<!-- 0 -->
<g id="node1" class="node">
<title>0</title>
<polygon fill="white" stroke="transparent" points="2070.2,-659.71 2016.2,-659.71 2016.2,-623.71 2070.2,-623.71 2070.2,-659.71"/>
<text text-anchor="middle" x="2043.2" y="-638.01" font-family="Helvetica,sans-Serif" font-size="14.00">0</text>
</g>
<!-- 1 -->
<g id="node2" class="node">
<title>1</title>
<polygon fill="#cc3d3d" stroke="black" points="2268.2,-586.71 1818.2,-586.71 1818.2,-508.71 2268.2,-508.71 2268.2,-586.71"/>
<text text-anchor="start" x="2004.2" y="-572.51" font-family="Helvetica,sans-Serif" font-weight="bold" font-size="14.00"> Class=1 </text>
<text text-anchor="start" x="2077.2" y="-572.51" font-family="Helvetica,sans-Serif" font-size="14.00"> </text>
<text text-anchor="start" x="1964.7" y="-558.51" font-family="Helvetica,sans-Serif" font-size="14.00"> error: 1.000, n=2000 </text>
<text text-anchor="start" x="1826.2" y="-544.51" font-family="Helvetica,sans-Serif" font-size="14.00"> p: (0.10, 0.10, 0.10, 0.10, 0.10, 0.10, 0.10, 0.10, 0.10, 0.10) </text>
<text text-anchor="start" x="2032.2" y="-530.51" font-family="Helvetica,sans-Serif" font-size="14.00">&#45;&#45;&#45;&#45;</text>
<text text-anchor="start" x="2026.2" y="-516.51" font-family="Helvetica,sans-Serif" font-weight="bold" font-size="14.00">att1</text>
</g>
<!-- 0&#45;&gt;1 -->
<!-- 2 -->
<g id="node3" class="node">
<title>2</title>
<polygon fill="#e5d544" stroke="black" points="1866.2,-457.71 1416.2,-457.71 1416.2,-379.71 1866.2,-379.71 1866.2,-457.71"/>
<text text-anchor="start" x="1602.2" y="-443.51" font-family="Helvetica,sans-Serif" font-weight="bold" font-size="14.00"> Class=9 </text>
<text text-anchor="start" x="1675.2" y="-443.51" font-family="Helvetica,sans-Serif" font-size="14.00"> </text>
<text text-anchor="start" x="1567.2" y="-429.51" font-family="Helvetica,sans-Serif" font-size="14.00"> error: 0.615, n=793 </text>
<text text-anchor="start" x="1424.2" y="-415.51" font-family="Helvetica,sans-Serif" font-size="14.00"> p: (0.25, 0.24, 0.00, 0.00, 0.00, 0.00, 0.00, 0.25, 0.00, 0.25) </text>
<text text-anchor="start" x="1630.2" y="-401.51" font-family="Helvetica,sans-Serif" font-size="14.00">&#45;&#45;&#45;&#45;</text>
<text text-anchor="start" x="1624.2" y="-387.51" font-family="Helvetica,sans-Serif" font-weight="bold" font-size="14.00">att2</text>
</g>
<!-- 1&#45;&gt;2 -->
<g id="edge2" class="edge">
<title>1:s&#45;&gt;2:n</title>
<path fill="none" stroke="black" d="M2043.2,-508.71C2043.2,-508.71 1713.04,-466.82 1651.14,-458.97"/>
<polygon fill="black" stroke="black" points="1651.56,-455.5 1641.2,-457.71 1650.68,-462.44 1651.56,-455.5"/>
<text text-anchor="middle" x="1903.2" y="-479.51" font-family="Helvetica,sans-Serif" font-size="14.00">&gt; 0</text>
</g>
<!-- 9 -->
<g id="node4" class="node">
<title>9</title>
<polygon fill="#e5d544" stroke="black" points="2765.2,-457.71 2315.2,-457.71 2315.2,-379.71 2765.2,-379.71 2765.2,-457.71"/>
<text text-anchor="start" x="2501.2" y="-443.51" font-family="Helvetica,sans-Serif" font-weight="bold" font-size="14.00"> Class=4 </text>
<text text-anchor="start" x="2574.2" y="-443.51" font-family="Helvetica,sans-Serif" font-size="14.00"> </text>
<text text-anchor="start" x="2461.7" y="-429.51" font-family="Helvetica,sans-Serif" font-size="14.00"> error: 0.798, n=1207 </text>
<text text-anchor="start" x="2323.2" y="-415.51" font-family="Helvetica,sans-Serif" font-size="14.00"> p: (0.00, 0.00, 0.16, 0.16, 0.17, 0.16, 0.17, 0.00, 0.17, 0.00) </text>
<text text-anchor="start" x="2529.2" y="-401.51" font-family="Helvetica,sans-Serif" font-size="14.00">&#45;&#45;&#45;&#45;</text>
<text text-anchor="start" x="2523.2" y="-387.51" font-family="Helvetica,sans-Serif" font-weight="bold" font-size="14.00">att6</text>
</g>
<!-- 1&#45;&gt;9 -->
<g id="edge3" class="edge">
<title>1:s&#45;&gt;9:n</title>
<path fill="none" stroke="black" d="M2043.2,-508.71C2043.2,-508.71 2458.45,-466.1 2529.82,-458.78"/>
<polygon fill="black" stroke="black" points="2530.61,-462.21 2540.2,-457.71 2529.89,-455.25 2530.61,-462.21"/>
<text text-anchor="middle" x="2370.2" y="-479.51" font-family="Helvetica,sans-Serif" font-size="14.00">&lt;= 0</text>
</g>
<!-- 3 -->
<g id="node5" class="node">
<title>3</title>
<polygon fill="#59cc3d" stroke="black" points="1251.2,-328.71 801.2,-328.71 801.2,-250.71 1251.2,-250.71 1251.2,-328.71"/>
<text text-anchor="start" x="987.2" y="-314.51" font-family="Helvetica,sans-Serif" font-weight="bold" font-size="14.00"> Class=1 </text>
<text text-anchor="start" x="1060.2" y="-314.51" font-family="Helvetica,sans-Serif" font-size="14.00"> </text>
<text text-anchor="start" x="952.2" y="-300.51" font-family="Helvetica,sans-Serif" font-size="14.00"> error: 0.301, n=387 </text>
<text text-anchor="start" x="809.2" y="-286.51" font-family="Helvetica,sans-Serif" font-size="14.00"> p: (0.51, 0.00, 0.00, 0.00, 0.00, 0.00, 0.00, 0.00, 0.00, 0.49) </text>
<text text-anchor="start" x="1015.2" y="-272.51" font-family="Helvetica,sans-Serif" font-size="14.00">&#45;&#45;&#45;&#45;</text>
<text text-anchor="start" x="1009.2" y="-258.51" font-family="Helvetica,sans-Serif" font-weight="bold" font-size="14.00">att1</text>
</g>
<!-- 2&#45;&gt;3 -->
<g id="edge4" class="edge">
<title>2:s&#45;&gt;3:n</title>
<path fill="none" stroke="black" d="M1641.2,-379.71C1641.2,-379.71 1116.32,-336.18 1036.36,-329.55"/>
<polygon fill="black" stroke="black" points="1036.45,-326.05 1026.2,-328.71 1035.87,-333.03 1036.45,-326.05"/>
<text text-anchor="middle" x="1426.2" y="-350.51" font-family="Helvetica,sans-Serif" font-size="14.00">&lt;= 0</text>
</g>
<!-- 6 -->
<g id="node6" class="node">
<title>6</title>
<polygon fill="#59cc3d" stroke="black" points="1866.2,-328.71 1416.2,-328.71 1416.2,-250.71 1866.2,-250.71 1866.2,-328.71"/>
<text text-anchor="start" x="1602.2" y="-314.51" font-family="Helvetica,sans-Serif" font-weight="bold" font-size="14.00"> Class=7 </text>
<text text-anchor="start" x="1675.2" y="-314.51" font-family="Helvetica,sans-Serif" font-size="14.00"> </text>
<text text-anchor="start" x="1567.2" y="-300.51" font-family="Helvetica,sans-Serif" font-size="14.00"> error: 0.369, n=406 </text>
<text text-anchor="start" x="1424.2" y="-286.51" font-family="Helvetica,sans-Serif" font-size="14.00"> p: (0.00, 0.48, 0.00, 0.00, 0.00, 0.00, 0.00, 0.49, 0.00, 0.02) </text>
<text text-anchor="start" x="1630.2" y="-272.51" font-family="Helvetica,sans-Serif" font-size="14.00">&#45;&#45;&#45;&#45;</text>
<text text-anchor="start" x="1624.2" y="-258.51" font-family="Helvetica,sans-Serif" font-weight="bold" font-size="14.00">att6</text>
</g>
<!-- 2&#45;&gt;6 -->
<g id="edge5" class="edge">
<title>2:s&#45;&gt;6:n</title>
<path fill="none" stroke="black" d="M1641.2,-379.71C1641.2,-379.71 1641.2,-353.93 1641.2,-339.03"/>
<polygon fill="black" stroke="black" points="1644.7,-338.71 1641.2,-328.71 1637.7,-338.71 1644.7,-338.71"/>
<text text-anchor="middle" x="1654.2" y="-350.51" font-family="Helvetica,sans-Serif" font-size="14.00">&gt; 0</text>
</g>
<!-- 10 -->
<g id="node11" class="node">
<title>10</title>
<polygon fill="#59cc3d" stroke="black" points="2765.2,-328.71 2315.2,-328.71 2315.2,-250.71 2765.2,-250.71 2765.2,-328.71"/>
<text text-anchor="start" x="2501.2" y="-314.51" font-family="Helvetica,sans-Serif" font-weight="bold" font-size="14.00"> Class=2 </text>
<text text-anchor="start" x="2574.2" y="-314.51" font-family="Helvetica,sans-Serif" font-size="14.00"> </text>
<text text-anchor="start" x="2466.2" y="-300.51" font-family="Helvetica,sans-Serif" font-size="14.00"> error: 0.609, n=569 </text>
<text text-anchor="start" x="2323.2" y="-286.51" font-family="Helvetica,sans-Serif" font-size="14.00"> p: (0.00, 0.00, 0.35, 0.03, 0.07, 0.22, 0.01, 0.00, 0.33, 0.00) </text>
<text text-anchor="start" x="2529.2" y="-272.51" font-family="Helvetica,sans-Serif" font-size="14.00">&#45;&#45;&#45;&#45;</text>
<text text-anchor="start" x="2523.2" y="-258.51" font-family="Helvetica,sans-Serif" font-weight="bold" font-size="14.00">att5</text>
</g>
<!-- 9&#45;&gt;10 -->
<g id="edge10" class="edge">
<title>9:s&#45;&gt;10:n</title>
<path fill="none" stroke="black" d="M2540.2,-379.71C2540.2,-379.71 2540.2,-353.93 2540.2,-339.03"/>
<polygon fill="black" stroke="black" points="2543.7,-338.71 2540.2,-328.71 2536.7,-338.71 2543.7,-338.71"/>
<text text-anchor="middle" x="2572.7" y="-350.51" font-family="Helvetica,sans-Serif" font-size="14.00">&lt;= 7817</text>
</g>
<!-- 15 -->
<g id="node12" class="node">
<title>15</title>
<polygon fill="#59cc3d" stroke="black" points="4297.2,-328.71 3847.2,-328.71 3847.2,-250.71 4297.2,-250.71 4297.2,-328.71"/>
<text text-anchor="start" x="4033.2" y="-314.51" font-family="Helvetica,sans-Serif" font-weight="bold" font-size="14.00"> Class=6 </text>
<text text-anchor="start" x="4106.2" y="-314.51" font-family="Helvetica,sans-Serif" font-size="14.00"> </text>
<text text-anchor="start" x="3998.2" y="-300.51" font-family="Helvetica,sans-Serif" font-size="14.00"> error: 0.641, n=638 </text>
<text text-anchor="start" x="3855.2" y="-286.51" font-family="Helvetica,sans-Serif" font-size="14.00"> p: (0.00, 0.01, 0.00, 0.29, 0.25, 0.12, 0.31, 0.00, 0.02, 0.00) </text>
<text text-anchor="start" x="4061.2" y="-272.51" font-family="Helvetica,sans-Serif" font-size="14.00">&#45;&#45;&#45;&#45;</text>
<text text-anchor="start" x="4055.2" y="-258.51" font-family="Helvetica,sans-Serif" font-weight="bold" font-size="14.00">att3</text>
</g>
<!-- 9&#45;&gt;15 -->
<g id="edge11" class="edge">
<title>9:s&#45;&gt;15:n</title>
<path fill="none" stroke="black" d="M2540.2,-379.71C2540.2,-379.71 3929.09,-333.47 4062.01,-329.05"/>
<polygon fill="black" stroke="black" points="4062.32,-332.54 4072.2,-328.71 4062.09,-325.55 4062.32,-332.54"/>
<text text-anchor="middle" x="3515.7" y="-350.51" font-family="Helvetica,sans-Serif" font-size="14.00">&gt; 7817</text>
</g>
<!-- 4 -->
<g id="node7" class="node">
<title>4</title>
<ellipse fill="#44e5b5" stroke="black" cx="318.2" cy="-160.71" rx="318.4" ry="35.21"/>
<text text-anchor="start" x="279.2" y="-171.51" font-family="Helvetica,sans-Serif" font-weight="bold" font-size="14.00"> Class=1 </text>
<text text-anchor="start" x="352.2" y="-171.51" font-family="Helvetica,sans-Serif" font-size="14.00"> </text>
<text text-anchor="start" x="244.2" y="-157.51" font-family="Helvetica,sans-Serif" font-size="14.00"> error: 0.000, n=197 </text>
<text text-anchor="start" x="101.2" y="-143.51" font-family="Helvetica,sans-Serif" font-size="14.00"> p: (1.00, 0.00, 0.00, 0.00, 0.00, 0.00, 0.00, 0.00, 0.00, 0.00) </text>
</g>
<!-- 3&#45;&gt;4 -->
<g id="edge6" class="edge">
<title>3:s&#45;&gt;4:n</title>
<path fill="none" stroke="black" d="M1026.2,-250.71C1026.2,-250.71 414.26,-204.04 328.21,-197.47"/>
<polygon fill="black" stroke="black" points="328.44,-193.98 318.2,-196.71 327.9,-200.96 328.44,-193.98"/>
<text text-anchor="middle" x="796.2" y="-221.51" font-family="Helvetica,sans-Serif" font-size="14.00">&lt;= 1</text>
</g>
<!-- 5 -->
<g id="node8" class="node">
<title>5</title>
<ellipse fill="#44e5b5" stroke="black" cx="1026.2" cy="-160.71" rx="318.4" ry="35.21"/>
<text text-anchor="start" x="987.2" y="-171.51" font-family="Helvetica,sans-Serif" font-weight="bold" font-size="14.00"> Class=9 </text>
<text text-anchor="start" x="1060.2" y="-171.51" font-family="Helvetica,sans-Serif" font-size="14.00"> </text>
<text text-anchor="start" x="952.2" y="-157.51" font-family="Helvetica,sans-Serif" font-size="14.00"> error: 0.000, n=190 </text>
<text text-anchor="start" x="809.2" y="-143.51" font-family="Helvetica,sans-Serif" font-size="14.00"> p: (0.00, 0.00, 0.00, 0.00, 0.00, 0.00, 0.00, 0.00, 0.00, 1.00) </text>
</g>
<!-- 3&#45;&gt;5 -->
<g id="edge7" class="edge">
<title>3:s&#45;&gt;5:n</title>
<path fill="none" stroke="black" d="M1026.2,-250.71C1026.2,-250.71 1026.2,-222.81 1026.2,-207.12"/>
<polygon fill="black" stroke="black" points="1029.7,-206.71 1026.2,-196.71 1022.7,-206.71 1029.7,-206.71"/>
<text text-anchor="middle" x="1039.2" y="-221.51" font-family="Helvetica,sans-Serif" font-size="14.00">&gt; 1</text>
</g>
<!-- 7 -->
<g id="node9" class="node">
<title>7</title>
<polygon fill="#44e5b5" stroke="black" points="1866.2,-199.71 1416.2,-199.71 1416.2,-121.71 1866.2,-121.71 1866.2,-199.71"/>
<text text-anchor="start" x="1602.2" y="-185.51" font-family="Helvetica,sans-Serif" font-weight="bold" font-size="14.00"> Class=7 </text>
<text text-anchor="start" x="1675.2" y="-185.51" font-family="Helvetica,sans-Serif" font-size="14.00"> </text>
<text text-anchor="start" x="1567.2" y="-171.51" font-family="Helvetica,sans-Serif" font-size="14.00"> error: 0.342, n=385 </text>
<text text-anchor="start" x="1424.2" y="-157.51" font-family="Helvetica,sans-Serif" font-size="14.00"> p: (0.00, 0.48, 0.00, 0.01, 0.00, 0.00, 0.00, 0.50, 0.00, 0.01) </text>
<text text-anchor="start" x="1630.2" y="-143.51" font-family="Helvetica,sans-Serif" font-size="14.00">&#45;&#45;&#45;&#45;</text>
<text text-anchor="start" x="1624.2" y="-129.51" font-family="Helvetica,sans-Serif" font-weight="bold" font-size="14.00">att4</text>
</g>
<!-- 6&#45;&gt;7 -->
<g id="edge8" class="edge">
<title>6:s&#45;&gt;7:n</title>
<path fill="none" stroke="black" d="M1641.2,-250.71C1641.2,-250.71 1641.2,-224.93 1641.2,-210.03"/>
<polygon fill="black" stroke="black" points="1644.7,-209.71 1641.2,-199.71 1637.7,-209.71 1644.7,-209.71"/>
<text text-anchor="middle" x="1667.7" y="-221.51" font-family="Helvetica,sans-Serif" font-size="14.00">&gt; 2820</text>
</g>
<!-- 8 -->
<g id="node10" class="node">
<title>8</title>
<ellipse fill="#3d76cc" stroke="black" cx="1594.2" cy="-35.36" rx="318.4" ry="35.21"/>
<text text-anchor="start" x="1555.2" y="-46.16" font-family="Helvetica,sans-Serif" font-weight="bold" font-size="14.00"> Class=7 </text>
<text text-anchor="start" x="1628.2" y="-46.16" font-family="Helvetica,sans-Serif" font-size="14.00"> </text>
<text text-anchor="start" x="1520.2" y="-32.16" font-family="Helvetica,sans-Serif" font-size="14.00"> error: 0.321, n=376 </text>
<text text-anchor="start" x="1377.2" y="-18.16" font-family="Helvetica,sans-Serif" font-size="14.00"> p: (0.00, 0.49, 0.00, 0.01, 0.00, 0.00, 0.00, 0.51, 0.00, 0.00) </text>
</g>
<!-- 7&#45;&gt;8 -->
<g id="edge9" class="edge">
<title>7:s&#45;&gt;8:n</title>
<path fill="none" stroke="black" d="M1641.2,-121.71C1641.2,-121.71 1614.21,-92.42 1601.13,-78.24"/>
<polygon fill="black" stroke="black" points="1603.55,-75.69 1594.2,-70.71 1598.4,-80.44 1603.55,-75.69"/>
<text text-anchor="middle" x="1659.2" y="-92.51" font-family="Helvetica,sans-Serif" font-size="14.00">&lt;= 169.5</text>
</g>
<!-- 11 -->
<g id="node13" class="node">
<title>11</title>
<ellipse fill="#44e5b5" stroke="black" cx="2349.2" cy="-160.71" rx="318.4" ry="35.21"/>
<text text-anchor="start" x="2310.2" y="-171.51" font-family="Helvetica,sans-Serif" font-weight="bold" font-size="14.00"> Class=2 </text>
<text text-anchor="start" x="2383.2" y="-171.51" font-family="Helvetica,sans-Serif" font-size="14.00"> </text>
<text text-anchor="start" x="2275.2" y="-157.51" font-family="Helvetica,sans-Serif" font-size="14.00"> error: 0.073, n=160 </text>
<text text-anchor="start" x="2132.2" y="-143.51" font-family="Helvetica,sans-Serif" font-size="14.00"> p: (0.00, 0.01, 0.97, 0.00, 0.00, 0.02, 0.00, 0.01, 0.00, 0.00) </text>
</g>
<!-- 10&#45;&gt;11 -->
<g id="edge12" class="edge">
<title>10:s&#45;&gt;11:n</title>
<path fill="none" stroke="black" d="M2540.2,-250.71C2540.2,-250.71 2397.85,-210.47 2358.93,-199.46"/>
<polygon fill="black" stroke="black" points="2359.77,-196.06 2349.2,-196.71 2357.87,-202.8 2359.77,-196.06"/>
<text text-anchor="middle" x="2508.2" y="-221.51" font-family="Helvetica,sans-Serif" font-size="14.00">&lt;= 1.452</text>
</g>
<!-- 12 -->
<g id="node14" class="node">
<title>12</title>
<polygon fill="#44e5b5" stroke="black" points="3189.2,-199.71 2739.2,-199.71 2739.2,-121.71 3189.2,-121.71 3189.2,-199.71"/>
<text text-anchor="start" x="2925.2" y="-185.51" font-family="Helvetica,sans-Serif" font-weight="bold" font-size="14.00"> Class=8 </text>
<text text-anchor="start" x="2998.2" y="-185.51" font-family="Helvetica,sans-Serif" font-size="14.00"> </text>
<text text-anchor="start" x="2890.2" y="-171.51" font-family="Helvetica,sans-Serif" font-size="14.00"> error: 0.586, n=409 </text>
<text text-anchor="start" x="2747.2" y="-157.51" font-family="Helvetica,sans-Serif" font-size="14.00"> p: (0.00, 0.00, 0.11, 0.04, 0.10, 0.30, 0.01, 0.00, 0.45, 0.00) </text>
<text text-anchor="start" x="2953.2" y="-143.51" font-family="Helvetica,sans-Serif" font-size="14.00">&#45;&#45;&#45;&#45;</text>
<text text-anchor="start" x="2947.2" y="-129.51" font-family="Helvetica,sans-Serif" font-weight="bold" font-size="14.00">att6</text>
</g>
<!-- 10&#45;&gt;12 -->
<g id="edge13" class="edge">
<title>10:s&#45;&gt;12:n</title>
<path fill="none" stroke="black" d="M2540.2,-250.71C2540.2,-250.71 2889.93,-208.64 2954.14,-200.92"/>
<polygon fill="black" stroke="black" points="2954.69,-204.38 2964.2,-199.71 2953.85,-197.43 2954.69,-204.38"/>
<text text-anchor="middle" x="2832.2" y="-221.51" font-family="Helvetica,sans-Serif" font-size="14.00">&gt; 1.452</text>
</g>
<!-- 16 -->
<g id="node17" class="node">
<title>16</title>
<polygon fill="#44e5b5" stroke="black" points="4297.2,-199.71 3847.2,-199.71 3847.2,-121.71 4297.2,-121.71 4297.2,-199.71"/>
<text text-anchor="start" x="4033.2" y="-185.51" font-family="Helvetica,sans-Serif" font-weight="bold" font-size="14.00"> Class=3 </text>
<text text-anchor="start" x="4106.2" y="-185.51" font-family="Helvetica,sans-Serif" font-size="14.00"> </text>
<text text-anchor="start" x="3998.2" y="-171.51" font-family="Helvetica,sans-Serif" font-size="14.00"> error: 0.485, n=284 </text>
<text text-anchor="start" x="3855.2" y="-157.51" font-family="Helvetica,sans-Serif" font-size="14.00"> p: (0.01, 0.01, 0.00, 0.60, 0.07, 0.01, 0.26, 0.00, 0.04, 0.00) </text>
<text text-anchor="start" x="4061.2" y="-143.51" font-family="Helvetica,sans-Serif" font-size="14.00">&#45;&#45;&#45;&#45;</text>
<text text-anchor="start" x="4055.2" y="-129.51" font-family="Helvetica,sans-Serif" font-weight="bold" font-size="14.00">att6</text>
</g>
<!-- 15&#45;&gt;16 -->
<g id="edge16" class="edge">
<title>15:s&#45;&gt;16:n</title>
<path fill="none" stroke="black" d="M4072.2,-250.71C4072.2,-250.71 4072.2,-224.93 4072.2,-210.03"/>
<polygon fill="black" stroke="black" points="4075.7,-209.71 4072.2,-199.71 4068.7,-209.71 4075.7,-209.71"/>
<text text-anchor="middle" x="4091.2" y="-221.51" font-family="Helvetica,sans-Serif" font-size="14.00">&lt;= 0</text>
</g>
<!-- 19 -->
<g id="node18" class="node">
<title>19</title>
<polygon fill="#44e5b5" stroke="black" points="5359.2,-199.71 4909.2,-199.71 4909.2,-121.71 5359.2,-121.71 5359.2,-199.71"/>
<text text-anchor="start" x="5095.2" y="-185.51" font-family="Helvetica,sans-Serif" font-weight="bold" font-size="14.00"> Class=4 </text>
<text text-anchor="start" x="5168.2" y="-185.51" font-family="Helvetica,sans-Serif" font-size="14.00"> </text>
<text text-anchor="start" x="5060.2" y="-171.51" font-family="Helvetica,sans-Serif" font-size="14.00"> error: 0.552, n=354 </text>
<text text-anchor="start" x="4917.2" y="-157.51" font-family="Helvetica,sans-Serif" font-size="14.00"> p: (0.00, 0.01, 0.00, 0.04, 0.40, 0.20, 0.34, 0.00, 0.01, 0.00) </text>
<text text-anchor="start" x="5123.2" y="-143.51" font-family="Helvetica,sans-Serif" font-size="14.00">&#45;&#45;&#45;&#45;</text>
<text text-anchor="start" x="5117.2" y="-129.51" font-family="Helvetica,sans-Serif" font-weight="bold" font-size="14.00">att4</text>
</g>
<!-- 15&#45;&gt;19 -->
<g id="edge17" class="edge">
<title>15:s&#45;&gt;19:n</title>
<path fill="none" stroke="black" d="M4072.2,-250.71C4072.2,-250.71 5015.34,-205.42 5124.03,-200.2"/>
<polygon fill="black" stroke="black" points="5124.38,-203.69 5134.2,-199.71 5124.04,-196.69 5124.38,-203.69"/>
<text text-anchor="middle" x="4742.2" y="-221.51" font-family="Helvetica,sans-Serif" font-size="14.00">&gt; 0</text>
</g>
<!-- 13 -->
<g id="node15" class="node">
<title>13</title>
<ellipse fill="#3d76cc" stroke="black" cx="2302.2" cy="-35.36" rx="318.4" ry="35.21"/>
<text text-anchor="start" x="2263.2" y="-46.16" font-family="Helvetica,sans-Serif" font-weight="bold" font-size="14.00"> Class=8 </text>
<text text-anchor="start" x="2336.2" y="-46.16" font-family="Helvetica,sans-Serif" font-size="14.00"> </text>
<text text-anchor="start" x="2228.2" y="-32.16" font-family="Helvetica,sans-Serif" font-size="14.00"> error: 0.422, n=167 </text>
<text text-anchor="start" x="2085.2" y="-18.16" font-family="Helvetica,sans-Serif" font-size="14.00"> p: (0.00, 0.00, 0.23, 0.01, 0.03, 0.08, 0.00, 0.00, 0.65, 0.00) </text>
</g>
<!-- 12&#45;&gt;13 -->
<g id="edge14" class="edge">
<title>12:s&#45;&gt;13:n</title>
<path fill="none" stroke="black" d="M2964.2,-121.71C2964.2,-121.71 2395.62,-77.91 2312.33,-71.49"/>
<polygon fill="black" stroke="black" points="2312.44,-67.99 2302.2,-70.71 2311.9,-74.97 2312.44,-67.99"/>
<text text-anchor="middle" x="2744.7" y="-92.51" font-family="Helvetica,sans-Serif" font-size="14.00">&lt;= 5819</text>
</g>
<!-- 14 -->
<g id="node16" class="node">
<title>14</title>
<ellipse fill="#3d76cc" stroke="black" cx="3010.2" cy="-35.36" rx="318.4" ry="35.21"/>
<text text-anchor="start" x="2971.2" y="-46.16" font-family="Helvetica,sans-Serif" font-weight="bold" font-size="14.00"> Class=5 </text>
<text text-anchor="start" x="3044.2" y="-46.16" font-family="Helvetica,sans-Serif" font-size="14.00"> </text>
<text text-anchor="start" x="2936.2" y="-32.16" font-family="Helvetica,sans-Serif" font-size="14.00"> error: 0.572, n=242 </text>
<text text-anchor="start" x="2793.2" y="-18.16" font-family="Helvetica,sans-Serif" font-size="14.00"> p: (0.00, 0.00, 0.02, 0.05, 0.14, 0.45, 0.02, 0.00, 0.32, 0.00) </text>
</g>
<!-- 12&#45;&gt;14 -->
<g id="edge15" class="edge">
<title>12:s&#45;&gt;14:n</title>
<path fill="none" stroke="black" d="M2964.2,-121.71C2964.2,-121.71 2990.61,-92.42 3003.41,-78.24"/>
<polygon fill="black" stroke="black" points="3006.1,-80.48 3010.2,-70.71 3000.9,-75.79 3006.1,-80.48"/>
<text text-anchor="middle" x="3019.7" y="-92.51" font-family="Helvetica,sans-Serif" font-size="14.00">&gt; 5819</text>
</g>
<!-- 17 -->
<g id="node19" class="node">
<title>17</title>
<ellipse fill="#3d76cc" stroke="black" cx="3718.2" cy="-35.36" rx="318.4" ry="35.21"/>
<text text-anchor="start" x="3679.2" y="-46.16" font-family="Helvetica,sans-Serif" font-weight="bold" font-size="14.00"> Class=3 </text>
<text text-anchor="start" x="3752.2" y="-46.16" font-family="Helvetica,sans-Serif" font-size="14.00"> </text>
<text text-anchor="start" x="3648.7" y="-32.16" font-family="Helvetica,sans-Serif" font-size="14.00"> error: 0.663, n=41 </text>
<text text-anchor="start" x="3501.2" y="-18.16" font-family="Helvetica,sans-Serif" font-size="14.00"> p: (0.00, 0.02, 0.00, 0.34, 0.22, 0.07, 0.07, 0.00, 0.27, 0.00) </text>
</g>
<!-- 16&#45;&gt;17 -->
<g id="edge18" class="edge">
<title>16:s&#45;&gt;17:n</title>
<path fill="none" stroke="black" d="M4072.2,-121.71C4072.2,-121.71 3786.45,-80.54 3728.41,-72.18"/>
<polygon fill="black" stroke="black" points="3728.59,-68.67 3718.2,-70.71 3727.6,-75.6 3728.59,-68.67"/>
<text text-anchor="middle" x="3969.7" y="-92.51" font-family="Helvetica,sans-Serif" font-size="14.00">&lt;= 8875</text>
</g>
<!-- 18 -->
<g id="node20" class="node">
<title>18</title>
<ellipse fill="#3d76cc" stroke="black" cx="4426.2" cy="-35.36" rx="318.4" ry="35.21"/>
<text text-anchor="start" x="4387.2" y="-46.16" font-family="Helvetica,sans-Serif" font-weight="bold" font-size="14.00"> Class=3 </text>
<text text-anchor="start" x="4460.2" y="-46.16" font-family="Helvetica,sans-Serif" font-size="14.00"> </text>
<text text-anchor="start" x="4352.2" y="-32.16" font-family="Helvetica,sans-Serif" font-size="14.00"> error: 0.383, n=243 </text>
<text text-anchor="start" x="4209.2" y="-18.16" font-family="Helvetica,sans-Serif" font-size="14.00"> p: (0.01, 0.01, 0.00, 0.64, 0.05, 0.00, 0.30, 0.00, 0.00, 0.00) </text>
</g>
<!-- 16&#45;&gt;18 -->
<g id="edge19" class="edge">
<title>16:s&#45;&gt;18:n</title>
<path fill="none" stroke="black" d="M4072.2,-121.71C4072.2,-121.71 4357.94,-80.54 4415.99,-72.18"/>
<polygon fill="black" stroke="black" points="4416.8,-75.6 4426.2,-70.71 4415.8,-68.67 4416.8,-75.6"/>
<text text-anchor="middle" x="4317.7" y="-92.51" font-family="Helvetica,sans-Serif" font-size="14.00">&gt; 8875</text>
</g>
<!-- 20 -->
<g id="node21" class="node">
<title>20</title>
<ellipse fill="#3d76cc" stroke="black" cx="5134.2" cy="-35.36" rx="318.4" ry="35.21"/>
<text text-anchor="start" x="5095.2" y="-46.16" font-family="Helvetica,sans-Serif" font-weight="bold" font-size="14.00"> Class=5 </text>
<text text-anchor="start" x="5168.2" y="-46.16" font-family="Helvetica,sans-Serif" font-size="14.00"> </text>
<text text-anchor="start" x="5060.2" y="-32.16" font-family="Helvetica,sans-Serif" font-size="14.00"> error: 0.500, n=165 </text>
<text text-anchor="start" x="4917.2" y="-18.16" font-family="Helvetica,sans-Serif" font-size="14.00"> p: (0.00, 0.01, 0.00, 0.02, 0.42, 0.44, 0.09, 0.01, 0.02, 0.00) </text>
</g>
<!-- 19&#45;&gt;20 -->
<g id="edge20" class="edge">
<title>19:s&#45;&gt;20:n</title>
<path fill="none" stroke="black" d="M5134.2,-121.71C5134.2,-121.71 5134.2,-95.93 5134.2,-81.03"/>
<polygon fill="black" stroke="black" points="5137.7,-80.71 5134.2,-70.71 5130.7,-80.71 5137.7,-80.71"/>
<text text-anchor="middle" x="5169.2" y="-92.51" font-family="Helvetica,sans-Serif" font-size="14.00">&lt;= 183.9</text>
</g>
<!-- 21 -->
<g id="node22" class="node">
<title>21</title>
<ellipse fill="#3d76cc" stroke="black" cx="5842.2" cy="-35.36" rx="318.4" ry="35.21"/>
<text text-anchor="start" x="5803.2" y="-46.16" font-family="Helvetica,sans-Serif" font-weight="bold" font-size="14.00"> Class=6 </text>
<text text-anchor="start" x="5876.2" y="-46.16" font-family="Helvetica,sans-Serif" font-size="14.00"> </text>
<text text-anchor="start" x="5768.2" y="-32.16" font-family="Helvetica,sans-Serif" font-size="14.00"> error: 0.385, n=189 </text>
<text text-anchor="start" x="5625.2" y="-18.16" font-family="Helvetica,sans-Serif" font-size="14.00"> p: (0.00, 0.01, 0.00, 0.06, 0.38, 0.00, 0.56, 0.00, 0.00, 0.00) </text>
</g>
<!-- 19&#45;&gt;21 -->
<g id="edge21" class="edge">
<title>19:s&#45;&gt;21:n</title>
<path fill="none" stroke="black" d="M5134.2,-121.71C5134.2,-121.71 5746.14,-77.63 5832.19,-71.43"/>
<polygon fill="black" stroke="black" points="5832.48,-74.92 5842.2,-70.71 5831.97,-67.94 5832.48,-74.92"/>
<text text-anchor="middle" x="5601.2" y="-92.51" font-family="Helvetica,sans-Serif" font-size="14.00">&gt; 183.9</text>
</g>
</g>
</svg>
