<?xml version="1.0" encoding="UTF-8" standalone="no"?>
<!DOCTYPE svg PUBLIC "-//W3C//DTD SVG 1.1//EN"
 "http://www.w3.org/Graphics/SVG/1.1/DTD/svg11.dtd">
<!-- Generated by graphviz version 2.43.0 (0)
 -->
<!-- Title: Tree Pages: 1 -->
<svg width="1706pt" height="954pt"
 viewBox="0.00 0.00 1706.20 953.71" xmlns="http://www.w3.org/2000/svg" xmlns:xlink="http://www.w3.org/1999/xlink">
<g id="graph0" class="graph" transform="scale(1 1) rotate(0) translate(18 935.71)">
<title>Tree</title>
<polygon fill="white" stroke="transparent" points="-18,18 -18,-935.71 1688.2,-935.71 1688.2,18 -18,18"/>
<!-- 0 -->
<g id="node1" class="node">
<title>0</title>
<polygon fill="white" stroke="transparent" points="648.6,-917.71 594.6,-917.71 594.6,-881.71 648.6,-881.71 648.6,-917.71"/>
<text text-anchor="middle" x="621.6" y="-896.01" font-family="Helvetica,sans-Serif" font-size="14.00">0</text>
</g>
<!-- 1 -->
<g id="node2" class="node">
<title>1</title>
<polygon fill="#cc3d3d" stroke="black" points="708.1,-844.71 535.1,-844.71 535.1,-766.71 708.1,-766.71 708.1,-844.71"/>
<text text-anchor="start" x="567.1" y="-830.51" font-family="Helvetica,sans-Serif" font-weight="bold" font-size="14.00"> Class=False </text>
<text text-anchor="start" x="671.1" y="-830.51" font-family="Helvetica,sans-Serif" font-size="14.00"> </text>
<text text-anchor="start" x="543.1" y="-816.51" font-family="Helvetica,sans-Serif" font-size="14.00"> error: 0.535, n=1458 </text>
<text text-anchor="start" x="566.6" y="-802.51" font-family="Helvetica,sans-Serif" font-size="14.00"> p: (0.88, 0.12) </text>
<text text-anchor="start" x="597.6" y="-788.51" font-family="Helvetica,sans-Serif" font-size="14.00">&#45;&#45;&#45;&#45;&#45;&#45;&#45;&#45;&#45;</text>
<text text-anchor="start" x="580.6" y="-774.51" font-family="Helvetica,sans-Serif" font-weight="bold" font-size="14.00">v_11=0.00</text>
</g>
<!-- 0&#45;&gt;1 -->
<!-- 2 -->
<g id="node3" class="node">
<title>2</title>
<polygon fill="#e5a544" stroke="black" points="586.6,-715.71 422.6,-715.71 422.6,-637.71 586.6,-637.71 586.6,-715.71"/>
<text text-anchor="start" x="450.1" y="-701.51" font-family="Helvetica,sans-Serif" font-weight="bold" font-size="14.00"> Class=False </text>
<text text-anchor="start" x="554.1" y="-701.51" font-family="Helvetica,sans-Serif" font-size="14.00"> </text>
<text text-anchor="start" x="430.6" y="-687.51" font-family="Helvetica,sans-Serif" font-size="14.00"> error: 0.171, n=863 </text>
<text text-anchor="start" x="449.6" y="-673.51" font-family="Helvetica,sans-Serif" font-size="14.00"> p: (0.97, 0.03) </text>
<text text-anchor="start" x="483.1" y="-659.51" font-family="Helvetica,sans-Serif" font-size="14.00">&#45;&#45;&#45;&#45;&#45;&#45;&#45;&#45;</text>
<text text-anchor="start" x="468.1" y="-645.51" font-family="Helvetica,sans-Serif" font-weight="bold" font-size="14.00">v_1=0.00</text>
</g>
<!-- 1&#45;&gt;2 -->
<g id="edge2" class="edge">
<title>1:s&#45;&gt;2:n</title>
<path fill="none" stroke="black" d="M621.6,-766.71C621.6,-766.71 541.36,-731.74 513.78,-719.71"/>
<polygon fill="black" stroke="black" points="515.17,-716.5 504.6,-715.71 512.37,-722.92 515.17,-716.5"/>
<text text-anchor="middle" x="592.6" y="-737.51" font-family="Helvetica,sans-Serif" font-size="14.00">&gt; &#45;0.3947</text>
</g>
<!-- 8 -->
<g id="node4" class="node">
<title>8</title>
<polygon fill="#e5a544" stroke="black" points="901.6,-715.71 737.6,-715.71 737.6,-637.71 901.6,-637.71 901.6,-715.71"/>
<text text-anchor="start" x="765.1" y="-701.51" font-family="Helvetica,sans-Serif" font-weight="bold" font-size="14.00"> Class=False </text>
<text text-anchor="start" x="869.1" y="-701.51" font-family="Helvetica,sans-Serif" font-size="14.00"> </text>
<text text-anchor="start" x="745.6" y="-687.51" font-family="Helvetica,sans-Serif" font-size="14.00"> error: 0.830, n=595 </text>
<text text-anchor="start" x="764.6" y="-673.51" font-family="Helvetica,sans-Serif" font-size="14.00"> p: (0.74, 0.26) </text>
<text text-anchor="start" x="795.6" y="-659.51" font-family="Helvetica,sans-Serif" font-size="14.00">&#45;&#45;&#45;&#45;&#45;&#45;&#45;&#45;&#45;</text>
<text text-anchor="start" x="778.6" y="-645.51" font-family="Helvetica,sans-Serif" font-weight="bold" font-size="14.00">v_12=0.00</text>
</g>
<!-- 1&#45;&gt;8 -->
<g id="edge3" class="edge">
<title>1:s&#45;&gt;8:n</title>
<path fill="none" stroke="black" d="M621.6,-766.71C621.6,-766.71 769.83,-728.53 809.78,-718.24"/>
<polygon fill="black" stroke="black" points="810.79,-721.59 819.6,-715.71 809.04,-714.82 810.79,-721.59"/>
<text text-anchor="middle" x="786.6" y="-737.51" font-family="Helvetica,sans-Serif" font-size="14.00">&lt;= &#45;0.3947</text>
</g>
<!-- 3 -->
<g id="node5" class="node">
<title>3</title>
<ellipse fill="#afcc3d" stroke="black" cx="234.6" cy="-547.71" rx="115.93" ry="35.21"/>
<text text-anchor="start" x="180.1" y="-558.51" font-family="Helvetica,sans-Serif" font-weight="bold" font-size="14.00"> Class=False </text>
<text text-anchor="start" x="284.1" y="-558.51" font-family="Helvetica,sans-Serif" font-size="14.00"> </text>
<text text-anchor="start" x="160.6" y="-544.51" font-family="Helvetica,sans-Serif" font-size="14.00"> error: 0.067, n=752 </text>
<text text-anchor="start" x="179.6" y="-530.51" font-family="Helvetica,sans-Serif" font-size="14.00"> p: (0.99, 0.01) </text>
</g>
<!-- 2&#45;&gt;3 -->
<g id="edge4" class="edge">
<title>2:s&#45;&gt;3:n</title>
<path fill="none" stroke="black" d="M504.6,-637.71C504.6,-637.71 293.24,-596.22 244.53,-586.66"/>
<polygon fill="black" stroke="black" points="245.09,-583.2 234.6,-584.71 243.74,-590.07 245.09,-583.2"/>
<text text-anchor="middle" x="444.6" y="-608.51" font-family="Helvetica,sans-Serif" font-size="14.00">&lt;= 173.4</text>
</g>
<!-- 4 -->
<g id="node6" class="node">
<title>4</title>
<polygon fill="#afcc3d" stroke="black" points="586.6,-586.71 422.6,-586.71 422.6,-508.71 586.6,-508.71 586.6,-586.71"/>
<text text-anchor="start" x="450.1" y="-572.51" font-family="Helvetica,sans-Serif" font-weight="bold" font-size="14.00"> Class=False </text>
<text text-anchor="start" x="554.1" y="-572.51" font-family="Helvetica,sans-Serif" font-size="14.00"> </text>
<text text-anchor="start" x="430.6" y="-558.51" font-family="Helvetica,sans-Serif" font-size="14.00"> error: 0.595, n=111 </text>
<text text-anchor="start" x="449.6" y="-544.51" font-family="Helvetica,sans-Serif" font-size="14.00"> p: (0.86, 0.14) </text>
<text text-anchor="start" x="483.1" y="-530.51" font-family="Helvetica,sans-Serif" font-size="14.00">&#45;&#45;&#45;&#45;&#45;&#45;&#45;&#45;</text>
<text text-anchor="start" x="468.1" y="-516.51" font-family="Helvetica,sans-Serif" font-weight="bold" font-size="14.00">v_9=0.00</text>
</g>
<!-- 2&#45;&gt;4 -->
<g id="edge5" class="edge">
<title>2:s&#45;&gt;4:n</title>
<path fill="none" stroke="black" d="M504.6,-637.71C504.6,-637.71 504.6,-611.93 504.6,-597.03"/>
<polygon fill="black" stroke="black" points="508.1,-596.71 504.6,-586.71 501.1,-596.71 508.1,-596.71"/>
<text text-anchor="middle" x="533.6" y="-608.51" font-family="Helvetica,sans-Serif" font-size="14.00">&gt; 173.4</text>
</g>
<!-- 9 -->
<g id="node10" class="node">
<title>9</title>
<polygon fill="#afcc3d" stroke="black" points="901.6,-586.71 737.6,-586.71 737.6,-508.71 901.6,-508.71 901.6,-586.71"/>
<text text-anchor="start" x="765.1" y="-572.51" font-family="Helvetica,sans-Serif" font-weight="bold" font-size="14.00"> Class=False </text>
<text text-anchor="start" x="869.1" y="-572.51" font-family="Helvetica,sans-Serif" font-size="14.00"> </text>
<text text-anchor="start" x="745.6" y="-558.51" font-family="Helvetica,sans-Serif" font-size="14.00"> error: 0.599, n=302 </text>
<text text-anchor="start" x="764.6" y="-544.51" font-family="Helvetica,sans-Serif" font-size="14.00"> p: (0.85, 0.15) </text>
<text text-anchor="start" x="795.6" y="-530.51" font-family="Helvetica,sans-Serif" font-size="14.00">&#45;&#45;&#45;&#45;&#45;&#45;&#45;&#45;&#45;</text>
<text text-anchor="start" x="778.6" y="-516.51" font-family="Helvetica,sans-Serif" font-weight="bold" font-size="14.00">v_15=0.00</text>
</g>
<!-- 8&#45;&gt;9 -->
<g id="edge9" class="edge">
<title>8:s&#45;&gt;9:n</title>
<path fill="none" stroke="black" d="M819.6,-637.71C819.6,-637.71 819.6,-611.93 819.6,-597.03"/>
<polygon fill="black" stroke="black" points="823.1,-596.71 819.6,-586.71 816.1,-596.71 823.1,-596.71"/>
<text text-anchor="middle" x="857.1" y="-608.51" font-family="Helvetica,sans-Serif" font-size="14.00">&lt;= &#45;0.285</text>
</g>
<!-- 17 -->
<g id="node11" class="node">
<title>17</title>
<polygon fill="#afcc3d" stroke="black" points="1178.6,-586.71 1014.6,-586.71 1014.6,-508.71 1178.6,-508.71 1178.6,-586.71"/>
<text text-anchor="start" x="1042.1" y="-572.51" font-family="Helvetica,sans-Serif" font-weight="bold" font-size="14.00"> Class=False </text>
<text text-anchor="start" x="1146.1" y="-572.51" font-family="Helvetica,sans-Serif" font-size="14.00"> </text>
<text text-anchor="start" x="1022.6" y="-558.51" font-family="Helvetica,sans-Serif" font-size="14.00"> error: 0.960, n=293 </text>
<text text-anchor="start" x="1041.6" y="-544.51" font-family="Helvetica,sans-Serif" font-size="14.00"> p: (0.62, 0.38) </text>
<text text-anchor="start" x="1072.6" y="-530.51" font-family="Helvetica,sans-Serif" font-size="14.00">&#45;&#45;&#45;&#45;&#45;&#45;&#45;&#45;&#45;</text>
<text text-anchor="start" x="1055.6" y="-516.51" font-family="Helvetica,sans-Serif" font-weight="bold" font-size="14.00">v_13=0.00</text>
</g>
<!-- 8&#45;&gt;17 -->
<g id="edge10" class="edge">
<title>8:s&#45;&gt;17:n</title>
<path fill="none" stroke="black" d="M819.6,-637.71C819.6,-637.71 1037.4,-597.61 1086.74,-588.53"/>
<polygon fill="black" stroke="black" points="1087.4,-591.96 1096.6,-586.71 1086.13,-585.08 1087.4,-591.96"/>
<text text-anchor="middle" x="1023.1" y="-608.51" font-family="Helvetica,sans-Serif" font-size="14.00">&gt; &#45;0.285</text>
</g>
<!-- 5 -->
<g id="node7" class="node">
<title>5</title>
<polygon fill="#64e544" stroke="black" points="413.1,-457.71 258.1,-457.71 258.1,-379.71 413.1,-379.71 413.1,-457.71"/>
<text text-anchor="start" x="281.1" y="-443.51" font-family="Helvetica,sans-Serif" font-weight="bold" font-size="14.00"> Class=False </text>
<text text-anchor="start" x="385.1" y="-443.51" font-family="Helvetica,sans-Serif" font-size="14.00"> </text>
<text text-anchor="start" x="266.1" y="-429.51" font-family="Helvetica,sans-Serif" font-size="14.00"> error: 0.707, n=83 </text>
<text text-anchor="start" x="280.6" y="-415.51" font-family="Helvetica,sans-Serif" font-size="14.00"> p: (0.81, 0.19) </text>
<text text-anchor="start" x="311.6" y="-401.51" font-family="Helvetica,sans-Serif" font-size="14.00">&#45;&#45;&#45;&#45;&#45;&#45;&#45;&#45;&#45;</text>
<text text-anchor="start" x="294.6" y="-387.51" font-family="Helvetica,sans-Serif" font-weight="bold" font-size="14.00">v_10=0.00</text>
</g>
<!-- 4&#45;&gt;5 -->
<g id="edge6" class="edge">
<title>4:s&#45;&gt;5:n</title>
<path fill="none" stroke="black" d="M504.6,-508.71C504.6,-508.71 382.05,-471.73 345.67,-460.75"/>
<polygon fill="black" stroke="black" points="346.19,-457.25 335.6,-457.71 344.16,-463.95 346.19,-457.25"/>
<text text-anchor="middle" x="475.6" y="-479.51" font-family="Helvetica,sans-Serif" font-size="14.00">&lt;= 6.441</text>
</g>
<!-- 6 -->
<g id="node8" class="node">
<title>6</title>
<polygon fill="#3dcc76" stroke="black" points="219.1,-328.71 64.1,-328.71 64.1,-250.71 219.1,-250.71 219.1,-328.71"/>
<text text-anchor="start" x="87.1" y="-314.51" font-family="Helvetica,sans-Serif" font-weight="bold" font-size="14.00"> Class=False </text>
<text text-anchor="start" x="191.1" y="-314.51" font-family="Helvetica,sans-Serif" font-size="14.00"> </text>
<text text-anchor="start" x="72.1" y="-300.51" font-family="Helvetica,sans-Serif" font-size="14.00"> error: 0.528, n=67 </text>
<text text-anchor="start" x="86.6" y="-286.51" font-family="Helvetica,sans-Serif" font-size="14.00"> p: (0.88, 0.12) </text>
<text text-anchor="start" x="120.1" y="-272.51" font-family="Helvetica,sans-Serif" font-size="14.00">&#45;&#45;&#45;&#45;&#45;&#45;&#45;&#45;</text>
<text text-anchor="start" x="105.1" y="-258.51" font-family="Helvetica,sans-Serif" font-weight="bold" font-size="14.00">v_9=0.00</text>
</g>
<!-- 5&#45;&gt;6 -->
<g id="edge7" class="edge">
<title>5:s&#45;&gt;6:n</title>
<path fill="none" stroke="black" d="M335.6,-379.71C335.6,-379.71 191.02,-341.7 151.49,-331.31"/>
<polygon fill="black" stroke="black" points="152.16,-327.87 141.6,-328.71 150.38,-334.64 152.16,-327.87"/>
<text text-anchor="middle" x="289.6" y="-350.51" font-family="Helvetica,sans-Serif" font-size="14.00">&gt; &#45;10.1</text>
</g>
<!-- 7 -->
<g id="node9" class="node">
<title>7</title>
<ellipse fill="#44e5e5" stroke="black" cx="109.6" cy="-160.71" rx="109.7" ry="35.21"/>
<text text-anchor="start" x="55.1" y="-171.51" font-family="Helvetica,sans-Serif" font-weight="bold" font-size="14.00"> Class=False </text>
<text text-anchor="start" x="159.1" y="-171.51" font-family="Helvetica,sans-Serif" font-size="14.00"> </text>
<text text-anchor="start" x="40.1" y="-157.51" font-family="Helvetica,sans-Serif" font-size="14.00"> error: 0.362, n=58 </text>
<text text-anchor="start" x="54.6" y="-143.51" font-family="Helvetica,sans-Serif" font-size="14.00"> p: (0.93, 0.07) </text>
</g>
<!-- 6&#45;&gt;7 -->
<g id="edge8" class="edge">
<title>6:s&#45;&gt;7:n</title>
<path fill="none" stroke="black" d="M141.6,-250.71C141.6,-250.71 123.97,-221.52 114.89,-206.46"/>
<polygon fill="black" stroke="black" points="117.77,-204.46 109.6,-197.71 111.77,-208.08 117.77,-204.46"/>
<text text-anchor="middle" x="162.1" y="-221.51" font-family="Helvetica,sans-Serif" font-size="14.00">&gt; &#45;18.56</text>
</g>
<!-- 10 -->
<g id="node12" class="node">
<title>10</title>
<polygon fill="#64e544" stroke="black" points="714.6,-457.71 550.6,-457.71 550.6,-379.71 714.6,-379.71 714.6,-457.71"/>
<text text-anchor="start" x="578.1" y="-443.51" font-family="Helvetica,sans-Serif" font-weight="bold" font-size="14.00"> Class=False </text>
<text text-anchor="start" x="682.1" y="-443.51" font-family="Helvetica,sans-Serif" font-size="14.00"> </text>
<text text-anchor="start" x="558.6" y="-429.51" font-family="Helvetica,sans-Serif" font-size="14.00"> error: 0.728, n=207 </text>
<text text-anchor="start" x="577.6" y="-415.51" font-family="Helvetica,sans-Serif" font-size="14.00"> p: (0.80, 0.20) </text>
<text text-anchor="start" x="611.1" y="-401.51" font-family="Helvetica,sans-Serif" font-size="14.00">&#45;&#45;&#45;&#45;&#45;&#45;&#45;&#45;</text>
<text text-anchor="start" x="596.1" y="-387.51" font-family="Helvetica,sans-Serif" font-weight="bold" font-size="14.00">v_7=0.00</text>
</g>
<!-- 9&#45;&gt;10 -->
<g id="edge11" class="edge">
<title>9:s&#45;&gt;10:n</title>
<path fill="none" stroke="black" d="M819.6,-508.71C819.6,-508.71 680.87,-470.87 642.39,-460.38"/>
<polygon fill="black" stroke="black" points="643.17,-456.97 632.6,-457.71 641.33,-463.72 643.17,-456.97"/>
<text text-anchor="middle" x="783.6" y="-479.51" font-family="Helvetica,sans-Serif" font-size="14.00">&lt;= 0.645</text>
</g>
<!-- 15 -->
<g id="node13" class="node">
<title>15</title>
<polygon fill="#64e544" stroke="black" points="958.1,-457.71 803.1,-457.71 803.1,-379.71 958.1,-379.71 958.1,-457.71"/>
<text text-anchor="start" x="826.1" y="-443.51" font-family="Helvetica,sans-Serif" font-weight="bold" font-size="14.00"> Class=False </text>
<text text-anchor="start" x="930.1" y="-443.51" font-family="Helvetica,sans-Serif" font-size="14.00"> </text>
<text text-anchor="start" x="811.1" y="-429.51" font-family="Helvetica,sans-Serif" font-size="14.00"> error: 0.147, n=95 </text>
<text text-anchor="start" x="825.6" y="-415.51" font-family="Helvetica,sans-Serif" font-size="14.00"> p: (0.98, 0.02) </text>
<text text-anchor="start" x="856.6" y="-401.51" font-family="Helvetica,sans-Serif" font-size="14.00">&#45;&#45;&#45;&#45;&#45;&#45;&#45;&#45;&#45;</text>
<text text-anchor="start" x="839.6" y="-387.51" font-family="Helvetica,sans-Serif" font-weight="bold" font-size="14.00">v_30=0.00</text>
</g>
<!-- 9&#45;&gt;15 -->
<g id="edge12" class="edge">
<title>9:s&#45;&gt;15:n</title>
<path fill="none" stroke="black" d="M819.6,-508.71C819.6,-508.71 856.46,-477.89 872.88,-464.17"/>
<polygon fill="black" stroke="black" points="875.17,-466.81 880.6,-457.71 870.68,-461.44 875.17,-466.81"/>
<text text-anchor="middle" x="886.6" y="-479.51" font-family="Helvetica,sans-Serif" font-size="14.00">&gt; 0.645</text>
</g>
<!-- 18 -->
<g id="node19" class="node">
<title>18</title>
<polygon fill="#64e544" stroke="black" points="1237.6,-457.71 1073.6,-457.71 1073.6,-379.71 1237.6,-379.71 1237.6,-457.71"/>
<text text-anchor="start" x="1101.1" y="-443.51" font-family="Helvetica,sans-Serif" font-weight="bold" font-size="14.00"> Class=False </text>
<text text-anchor="start" x="1205.1" y="-443.51" font-family="Helvetica,sans-Serif" font-size="14.00"> </text>
<text text-anchor="start" x="1081.6" y="-429.51" font-family="Helvetica,sans-Serif" font-size="14.00"> error: 0.901, n=259 </text>
<text text-anchor="start" x="1100.6" y="-415.51" font-family="Helvetica,sans-Serif" font-size="14.00"> p: (0.68, 0.32) </text>
<text text-anchor="start" x="1131.6" y="-401.51" font-family="Helvetica,sans-Serif" font-size="14.00">&#45;&#45;&#45;&#45;&#45;&#45;&#45;&#45;&#45;</text>
<text text-anchor="start" x="1114.6" y="-387.51" font-family="Helvetica,sans-Serif" font-weight="bold" font-size="14.00">v_13=0.00</text>
</g>
<!-- 17&#45;&gt;18 -->
<g id="edge18" class="edge">
<title>17:s&#45;&gt;18:n</title>
<path fill="none" stroke="black" d="M1096.6,-508.71C1096.6,-508.71 1131.9,-478.2 1147.89,-464.38"/>
<polygon fill="black" stroke="black" points="1150.33,-466.9 1155.6,-457.71 1145.75,-461.6 1150.33,-466.9"/>
<text text-anchor="middle" x="1168.6" y="-479.51" font-family="Helvetica,sans-Serif" font-size="14.00">&lt;= 5.412</text>
</g>
<!-- 11 -->
<g id="node14" class="node">
<title>11</title>
<polygon fill="#3dcc76" stroke="black" points="478.1,-328.71 323.1,-328.71 323.1,-250.71 478.1,-250.71 478.1,-328.71"/>
<text text-anchor="start" x="346.1" y="-314.51" font-family="Helvetica,sans-Serif" font-weight="bold" font-size="14.00"> Class=False </text>
<text text-anchor="start" x="450.1" y="-314.51" font-family="Helvetica,sans-Serif" font-size="14.00"> </text>
<text text-anchor="start" x="331.1" y="-300.51" font-family="Helvetica,sans-Serif" font-size="14.00"> error: 0.439, n=99 </text>
<text text-anchor="start" x="345.6" y="-286.51" font-family="Helvetica,sans-Serif" font-size="14.00"> p: (0.91, 0.09) </text>
<text text-anchor="start" x="376.6" y="-272.51" font-family="Helvetica,sans-Serif" font-size="14.00">&#45;&#45;&#45;&#45;&#45;&#45;&#45;&#45;&#45;</text>
<text text-anchor="start" x="359.6" y="-258.51" font-family="Helvetica,sans-Serif" font-weight="bold" font-size="14.00">v_10=0.00</text>
</g>
<!-- 10&#45;&gt;11 -->
<g id="edge13" class="edge">
<title>10:s&#45;&gt;11:n</title>
<path fill="none" stroke="black" d="M632.6,-379.71C632.6,-379.71 454.98,-340.66 410.57,-330.9"/>
<polygon fill="black" stroke="black" points="411.12,-327.44 400.6,-328.71 409.62,-334.28 411.12,-327.44"/>
<text text-anchor="middle" x="581.6" y="-350.51" font-family="Helvetica,sans-Serif" font-size="14.00">&lt;= &#45;4.41</text>
</g>
<!-- 13 -->
<g id="node15" class="node">
<title>13</title>
<polygon fill="#3dcc76" stroke="black" points="714.6,-328.71 550.6,-328.71 550.6,-250.71 714.6,-250.71 714.6,-328.71"/>
<text text-anchor="start" x="578.1" y="-314.51" font-family="Helvetica,sans-Serif" font-weight="bold" font-size="14.00"> Class=False </text>
<text text-anchor="start" x="682.1" y="-314.51" font-family="Helvetica,sans-Serif" font-size="14.00"> </text>
<text text-anchor="start" x="558.6" y="-300.51" font-family="Helvetica,sans-Serif" font-size="14.00"> error: 0.888, n=108 </text>
<text text-anchor="start" x="577.6" y="-286.51" font-family="Helvetica,sans-Serif" font-size="14.00"> p: (0.69, 0.31) </text>
<text text-anchor="start" x="611.1" y="-272.51" font-family="Helvetica,sans-Serif" font-size="14.00">&#45;&#45;&#45;&#45;&#45;&#45;&#45;&#45;</text>
<text text-anchor="start" x="596.1" y="-258.51" font-family="Helvetica,sans-Serif" font-weight="bold" font-size="14.00">v_9=0.00</text>
</g>
<!-- 10&#45;&gt;13 -->
<g id="edge14" class="edge">
<title>10:s&#45;&gt;13:n</title>
<path fill="none" stroke="black" d="M632.6,-379.71C632.6,-379.71 632.6,-353.93 632.6,-339.03"/>
<polygon fill="black" stroke="black" points="636.1,-338.71 632.6,-328.71 629.1,-338.71 636.1,-338.71"/>
<text text-anchor="middle" x="659.6" y="-350.51" font-family="Helvetica,sans-Serif" font-size="14.00">&gt; &#45;4.41</text>
</g>
<!-- 16 -->
<g id="node18" class="node">
<title>16</title>
<ellipse fill="#3dcc76" stroke="black" cx="896.6" cy="-289.71" rx="109.7" ry="35.21"/>
<text text-anchor="start" x="842.1" y="-300.51" font-family="Helvetica,sans-Serif" font-weight="bold" font-size="14.00"> Class=False </text>
<text text-anchor="start" x="946.1" y="-300.51" font-family="Helvetica,sans-Serif" font-size="14.00"> </text>
<text text-anchor="start" x="827.1" y="-286.51" font-family="Helvetica,sans-Serif" font-size="14.00"> error: 0.000, n=76 </text>
<text text-anchor="start" x="841.6" y="-272.51" font-family="Helvetica,sans-Serif" font-size="14.00"> p: (1.00, 0.00) </text>
</g>
<!-- 15&#45;&gt;16 -->
<g id="edge17" class="edge">
<title>15:s&#45;&gt;16:n</title>
<path fill="none" stroke="black" d="M880.6,-379.71C880.6,-379.71 889.05,-351.73 893.67,-336.43"/>
<polygon fill="black" stroke="black" points="897.06,-337.3 896.6,-326.71 890.36,-335.27 897.06,-337.3"/>
<text text-anchor="middle" x="934.6" y="-350.51" font-family="Helvetica,sans-Serif" font-size="14.00">&lt;= 0.07007</text>
</g>
<!-- 12 -->
<g id="node16" class="node">
<title>12</title>
<ellipse fill="#44e5e5" stroke="black" cx="400.6" cy="-160.71" rx="109.7" ry="35.21"/>
<text text-anchor="start" x="346.1" y="-171.51" font-family="Helvetica,sans-Serif" font-weight="bold" font-size="14.00"> Class=False </text>
<text text-anchor="start" x="450.1" y="-171.51" font-family="Helvetica,sans-Serif" font-size="14.00"> </text>
<text text-anchor="start" x="331.1" y="-157.51" font-family="Helvetica,sans-Serif" font-size="14.00"> error: 0.139, n=51 </text>
<text text-anchor="start" x="345.6" y="-143.51" font-family="Helvetica,sans-Serif" font-size="14.00"> p: (0.98, 0.02) </text>
</g>
<!-- 11&#45;&gt;12 -->
<g id="edge15" class="edge">
<title>11:s&#45;&gt;12:n</title>
<path fill="none" stroke="black" d="M400.6,-250.71C400.6,-250.71 400.6,-223.33 400.6,-207.93"/>
<polygon fill="black" stroke="black" points="404.1,-207.71 400.6,-197.71 397.1,-207.71 404.1,-207.71"/>
<text text-anchor="middle" x="442.6" y="-221.51" font-family="Helvetica,sans-Serif" font-size="14.00">&lt;= &#45;0.9361</text>
</g>
<!-- 14 -->
<g id="node17" class="node">
<title>14</title>
<ellipse fill="#44e5e5" stroke="black" cx="691.6" cy="-160.71" rx="109.7" ry="35.21"/>
<text text-anchor="start" x="637.1" y="-171.51" font-family="Helvetica,sans-Serif" font-weight="bold" font-size="14.00"> Class=False </text>
<text text-anchor="start" x="741.1" y="-171.51" font-family="Helvetica,sans-Serif" font-size="14.00"> </text>
<text text-anchor="start" x="622.1" y="-157.51" font-family="Helvetica,sans-Serif" font-size="14.00"> error: 0.978, n=75 </text>
<text text-anchor="start" x="636.6" y="-143.51" font-family="Helvetica,sans-Serif" font-size="14.00"> p: (0.59, 0.41) </text>
</g>
<!-- 13&#45;&gt;14 -->
<g id="edge16" class="edge">
<title>13:s&#45;&gt;14:n</title>
<path fill="none" stroke="black" d="M632.6,-250.71C632.6,-250.71 667.9,-219.01 683.89,-204.64"/>
<polygon fill="black" stroke="black" points="686.5,-207 691.6,-197.71 681.82,-201.79 686.5,-207"/>
<text text-anchor="middle" x="701.1" y="-221.51" font-family="Helvetica,sans-Serif" font-size="14.00">&gt; &#45;4.254</text>
</g>
<!-- 19 -->
<g id="node20" class="node">
<title>19</title>
<polygon fill="#3dcc76" stroke="black" points="1233.1,-328.71 1078.1,-328.71 1078.1,-250.71 1233.1,-250.71 1233.1,-328.71"/>
<text text-anchor="start" x="1101.1" y="-314.51" font-family="Helvetica,sans-Serif" font-weight="bold" font-size="14.00"> Class=False </text>
<text text-anchor="start" x="1205.1" y="-314.51" font-family="Helvetica,sans-Serif" font-size="14.00"> </text>
<text text-anchor="start" x="1086.1" y="-300.51" font-family="Helvetica,sans-Serif" font-size="14.00"> error: 0.596, n=90 </text>
<text text-anchor="start" x="1100.6" y="-286.51" font-family="Helvetica,sans-Serif" font-size="14.00"> p: (0.86, 0.14) </text>
<text text-anchor="start" x="1134.1" y="-272.51" font-family="Helvetica,sans-Serif" font-size="14.00">&#45;&#45;&#45;&#45;&#45;&#45;&#45;&#45;</text>
<text text-anchor="start" x="1119.1" y="-258.51" font-family="Helvetica,sans-Serif" font-weight="bold" font-size="14.00">v_7=0.00</text>
</g>
<!-- 18&#45;&gt;19 -->
<g id="edge19" class="edge">
<title>18:s&#45;&gt;19:n</title>
<path fill="none" stroke="black" d="M1155.6,-379.71C1155.6,-379.71 1155.6,-353.93 1155.6,-339.03"/>
<polygon fill="black" stroke="black" points="1159.1,-338.71 1155.6,-328.71 1152.1,-338.71 1159.1,-338.71"/>
<text text-anchor="middle" x="1193.1" y="-350.51" font-family="Helvetica,sans-Serif" font-size="14.00">&lt;= &#45;2.438</text>
</g>
<!-- 21 -->
<g id="node21" class="node">
<title>21</title>
<polygon fill="#3dcc76" stroke="black" points="1485.6,-328.71 1321.6,-328.71 1321.6,-250.71 1485.6,-250.71 1485.6,-328.71"/>
<text text-anchor="start" x="1349.1" y="-314.51" font-family="Helvetica,sans-Serif" font-weight="bold" font-size="14.00"> Class=False </text>
<text text-anchor="start" x="1453.1" y="-314.51" font-family="Helvetica,sans-Serif" font-size="14.00"> </text>
<text text-anchor="start" x="1329.6" y="-300.51" font-family="Helvetica,sans-Serif" font-size="14.00"> error: 0.976, n=169 </text>
<text text-anchor="start" x="1348.6" y="-286.51" font-family="Helvetica,sans-Serif" font-size="14.00"> p: (0.59, 0.41) </text>
<text text-anchor="start" x="1379.6" y="-272.51" font-family="Helvetica,sans-Serif" font-size="14.00">&#45;&#45;&#45;&#45;&#45;&#45;&#45;&#45;&#45;</text>
<text text-anchor="start" x="1362.6" y="-258.51" font-family="Helvetica,sans-Serif" font-weight="bold" font-size="14.00">v_22=0.00</text>
</g>
<!-- 18&#45;&gt;21 -->
<g id="edge20" class="edge">
<title>18:s&#45;&gt;21:n</title>
<path fill="none" stroke="black" d="M1155.6,-379.71C1155.6,-379.71 1347.18,-340.31 1393.57,-330.77"/>
<polygon fill="black" stroke="black" points="1394.51,-334.15 1403.6,-328.71 1393.1,-327.3 1394.51,-334.15"/>
<text text-anchor="middle" x="1349.1" y="-350.51" font-family="Helvetica,sans-Serif" font-size="14.00">&gt; &#45;2.438</text>
</g>
<!-- 20 -->
<g id="node22" class="node">
<title>20</title>
<ellipse fill="#44e5e5" stroke="black" cx="1151.6" cy="-160.71" rx="109.7" ry="35.21"/>
<text text-anchor="start" x="1097.1" y="-171.51" font-family="Helvetica,sans-Serif" font-weight="bold" font-size="14.00"> Class=False </text>
<text text-anchor="start" x="1201.1" y="-171.51" font-family="Helvetica,sans-Serif" font-size="14.00"> </text>
<text text-anchor="start" x="1082.1" y="-157.51" font-family="Helvetica,sans-Serif" font-size="14.00"> error: 0.741, n=62 </text>
<text text-anchor="start" x="1096.6" y="-143.51" font-family="Helvetica,sans-Serif" font-size="14.00"> p: (0.79, 0.21) </text>
</g>
<!-- 19&#45;&gt;20 -->
<g id="edge21" class="edge">
<title>19:s&#45;&gt;20:n</title>
<path fill="none" stroke="black" d="M1155.6,-250.71C1155.6,-250.71 1153.54,-223.33 1152.37,-207.93"/>
<polygon fill="black" stroke="black" points="1155.84,-207.42 1151.6,-197.71 1148.86,-207.95 1155.84,-207.42"/>
<text text-anchor="middle" x="1190.6" y="-221.51" font-family="Helvetica,sans-Serif" font-size="14.00">&gt; &#45;0.5457</text>
</g>
<!-- 22 -->
<g id="node23" class="node">
<title>22</title>
<polygon fill="#44e5e5" stroke="black" points="1497.6,-199.71 1333.6,-199.71 1333.6,-121.71 1497.6,-121.71 1497.6,-199.71"/>
<text text-anchor="start" x="1361.1" y="-185.51" font-family="Helvetica,sans-Serif" font-weight="bold" font-size="14.00"> Class=False </text>
<text text-anchor="start" x="1465.1" y="-185.51" font-family="Helvetica,sans-Serif" font-size="14.00"> </text>
<text text-anchor="start" x="1341.6" y="-171.51" font-family="Helvetica,sans-Serif" font-size="14.00"> error: 0.999, n=131 </text>
<text text-anchor="start" x="1360.6" y="-157.51" font-family="Helvetica,sans-Serif" font-size="14.00"> p: (0.52, 0.48) </text>
<text text-anchor="start" x="1391.6" y="-143.51" font-family="Helvetica,sans-Serif" font-size="14.00">&#45;&#45;&#45;&#45;&#45;&#45;&#45;&#45;&#45;</text>
<text text-anchor="start" x="1374.6" y="-129.51" font-family="Helvetica,sans-Serif" font-weight="bold" font-size="14.00">v_18=0.00</text>
</g>
<!-- 21&#45;&gt;22 -->
<g id="edge22" class="edge">
<title>21:s&#45;&gt;22:n</title>
<path fill="none" stroke="black" d="M1403.6,-250.71C1403.6,-250.71 1409.8,-224.36 1413.29,-209.54"/>
<polygon fill="black" stroke="black" points="1416.72,-210.25 1415.6,-199.71 1409.9,-208.64 1416.72,-210.25"/>
<text text-anchor="middle" x="1446.6" y="-221.51" font-family="Helvetica,sans-Serif" font-size="14.00">&gt; &#45;0.4512</text>
</g>
<!-- 23 -->
<g id="node24" class="node">
<title>23</title>
<ellipse fill="#3d76cc" stroke="black" cx="1269.6" cy="-35.36" rx="109.7" ry="35.21"/>
<text text-anchor="start" x="1215.1" y="-46.16" font-family="Helvetica,sans-Serif" font-weight="bold" font-size="14.00"> Class=False </text>
<text text-anchor="start" x="1319.1" y="-46.16" font-family="Helvetica,sans-Serif" font-size="14.00"> </text>
<text text-anchor="start" x="1200.1" y="-32.16" font-family="Helvetica,sans-Serif" font-size="14.00"> error: 0.894, n=58 </text>
<text text-anchor="start" x="1214.6" y="-18.16" font-family="Helvetica,sans-Serif" font-size="14.00"> p: (0.69, 0.31) </text>
</g>
<!-- 22&#45;&gt;23 -->
<g id="edge23" class="edge">
<title>22:s&#45;&gt;23:n</title>
<path fill="none" stroke="black" d="M1415.6,-121.71C1415.6,-121.71 1311.66,-85.4 1279.18,-74.06"/>
<polygon fill="black" stroke="black" points="1280.2,-70.7 1269.6,-70.71 1277.89,-77.31 1280.2,-70.7"/>
<text text-anchor="middle" x="1404.6" y="-92.51" font-family="Helvetica,sans-Serif" font-size="14.00">&lt;= 0.08397</text>
</g>
<!-- 24 -->
<g id="node25" class="node">
<title>24</title>
<ellipse fill="#3d76cc" stroke="black" cx="1560.6" cy="-35.36" rx="109.7" ry="35.21"/>
<text text-anchor="start" x="1509.6" y="-46.16" font-family="Helvetica,sans-Serif" font-weight="bold" font-size="14.00"> Class=True </text>
<text text-anchor="start" x="1606.6" y="-46.16" font-family="Helvetica,sans-Serif" font-size="14.00"> </text>
<text text-anchor="start" x="1491.1" y="-32.16" font-family="Helvetica,sans-Serif" font-size="14.00"> error: 0.961, n=73 </text>
<text text-anchor="start" x="1505.6" y="-18.16" font-family="Helvetica,sans-Serif" font-size="14.00"> p: (0.38, 0.62) </text>
</g>
<!-- 22&#45;&gt;24 -->
<g id="edge24" class="edge">
<title>22:s&#45;&gt;24:n</title>
<path fill="none" stroke="black" d="M1415.6,-121.71C1415.6,-121.71 1518.83,-85.4 1551.09,-74.06"/>
<polygon fill="black" stroke="black" points="1552.33,-77.33 1560.6,-70.71 1550.01,-70.73 1552.33,-77.33"/>
<text text-anchor="middle" x="1542.6" y="-92.51" font-family="Helvetica,sans-Serif" font-size="14.00">&gt; 0.08397</text>
</g>
</g>
</svg>
