<?xml version="1.0" encoding="UTF-8" standalone="no"?>
<!DOCTYPE svg PUBLIC "-//W3C//DTD SVG 1.1//EN"
 "http://www.w3.org/Graphics/SVG/1.1/DTD/svg11.dtd">
<!-- Generated by graphviz version 2.43.0 (0)
 -->
<!-- Title: Tree Pages: 1 -->
<svg width="1571pt" height="696pt"
 viewBox="0.00 0.00 1570.93 695.71" xmlns="http://www.w3.org/2000/svg" xmlns:xlink="http://www.w3.org/1999/xlink">
<g id="graph0" class="graph" transform="scale(1 1) rotate(0) translate(18 677.71)">
<title>Tree</title>
<polygon fill="white" stroke="transparent" points="-18,18 -18,-677.71 1552.93,-677.71 1552.93,18 -18,18"/>
<!-- 0 -->
<g id="node1" class="node">
<title>0</title>
<polygon fill="white" stroke="transparent" points="598.97,-659.71 544.97,-659.71 544.97,-623.71 598.97,-623.71 598.97,-659.71"/>
<text text-anchor="middle" x="571.97" y="-638.01" font-family="Helvetica,sans-Serif" font-size="14.00">0</text>
</g>
<!-- 1 -->
<g id="node2" class="node">
<title>1</title>
<polygon fill="#cc3d3d" stroke="black" points="662.97,-586.71 480.97,-586.71 480.97,-508.71 662.97,-508.71 662.97,-586.71"/>
<text text-anchor="start" x="532.97" y="-572.51" font-family="Helvetica,sans-Serif" font-weight="bold" font-size="14.00"> Class=1 </text>
<text text-anchor="start" x="605.97" y="-572.51" font-family="Helvetica,sans-Serif" font-size="14.00"> </text>
<text text-anchor="start" x="488.97" y="-558.51" font-family="Helvetica,sans-Serif" font-size="14.00"> error: 0.991, n=11055 </text>
<text text-anchor="start" x="516.97" y="-544.51" font-family="Helvetica,sans-Serif" font-size="14.00"> p: (0.44, 0.56) </text>
<text text-anchor="start" x="534.97" y="-530.51" font-family="Helvetica,sans-Serif" font-size="14.00">&#45;&#45;&#45;&#45;&#45;&#45;&#45;&#45;&#45;&#45;&#45;&#45;&#45;&#45;</text>
<text text-anchor="start" x="515.47" y="-516.51" font-family="Helvetica,sans-Serif" font-weight="bold" font-size="14.00">SSLfinal_State</text>
</g>
<!-- 0&#45;&gt;1 -->
<!-- 2 -->
<g id="node3" class="node">
<title>2</title>
<polygon fill="#e5d544" stroke="black" points="399.47,-457.71 226.47,-457.71 226.47,-379.71 399.47,-379.71 399.47,-457.71"/>
<text text-anchor="start" x="270.97" y="-443.51" font-family="Helvetica,sans-Serif" font-weight="bold" font-size="14.00"> Class=&#45;1 </text>
<text text-anchor="start" x="349.97" y="-443.51" font-family="Helvetica,sans-Serif" font-size="14.00"> </text>
<text text-anchor="start" x="234.47" y="-429.51" font-family="Helvetica,sans-Serif" font-size="14.00"> error: 0.130, n=1167 </text>
<text text-anchor="start" x="257.97" y="-415.51" font-family="Helvetica,sans-Serif" font-size="14.00"> p: (0.98, 0.02) </text>
<text text-anchor="start" x="278.47" y="-401.51" font-family="Helvetica,sans-Serif" font-size="14.00">&#45;&#45;&#45;&#45;&#45;&#45;&#45;&#45;&#45;&#45;&#45;&#45;&#45;</text>
<text text-anchor="start" x="255.47" y="-387.51" font-family="Helvetica,sans-Serif" font-weight="bold" font-size="14.00">URL_of_Anchor</text>
</g>
<!-- 1&#45;&gt;2 -->
<g id="edge2" class="edge">
<title>1:s&#45;&gt;2:n</title>
<path fill="none" stroke="black" d="M571.97,-508.71C571.97,-508.71 370.11,-468.96 322.8,-459.65"/>
<polygon fill="black" stroke="black" points="323.45,-456.21 312.97,-457.71 322.1,-463.08 323.45,-456.21"/>
<text text-anchor="middle" x="478.97" y="-479.51" font-family="Helvetica,sans-Serif" font-size="14.00">0</text>
</g>
<!-- 4 -->
<g id="node4" class="node">
<title>4</title>
<polygon fill="#e5d544" stroke="black" points="658.47,-457.71 485.47,-457.71 485.47,-379.71 658.47,-379.71 658.47,-457.71"/>
<text text-anchor="start" x="532.97" y="-443.51" font-family="Helvetica,sans-Serif" font-weight="bold" font-size="14.00"> Class=1 </text>
<text text-anchor="start" x="605.97" y="-443.51" font-family="Helvetica,sans-Serif" font-size="14.00"> </text>
<text text-anchor="start" x="493.47" y="-429.51" font-family="Helvetica,sans-Serif" font-size="14.00"> error: 0.502, n=6331 </text>
<text text-anchor="start" x="516.97" y="-415.51" font-family="Helvetica,sans-Serif" font-size="14.00"> p: (0.11, 0.89) </text>
<text text-anchor="start" x="537.47" y="-401.51" font-family="Helvetica,sans-Serif" font-size="14.00">&#45;&#45;&#45;&#45;&#45;&#45;&#45;&#45;&#45;&#45;&#45;&#45;&#45;</text>
<text text-anchor="start" x="514.47" y="-387.51" font-family="Helvetica,sans-Serif" font-weight="bold" font-size="14.00">URL_of_Anchor</text>
</g>
<!-- 1&#45;&gt;4 -->
<g id="edge3" class="edge">
<title>1:s&#45;&gt;4:n</title>
<path fill="none" stroke="black" d="M571.97,-508.71C571.97,-508.71 571.97,-482.93 571.97,-468.03"/>
<polygon fill="black" stroke="black" points="575.47,-467.71 571.97,-457.71 568.47,-467.71 575.47,-467.71"/>
<text text-anchor="middle" x="576.97" y="-479.51" font-family="Helvetica,sans-Serif" font-size="14.00">1</text>
</g>
<!-- 11 -->
<g id="node5" class="node">
<title>11</title>
<polygon fill="#e5d544" stroke="black" points="1080.47,-457.71 907.47,-457.71 907.47,-379.71 1080.47,-379.71 1080.47,-457.71"/>
<text text-anchor="start" x="951.97" y="-443.51" font-family="Helvetica,sans-Serif" font-weight="bold" font-size="14.00"> Class=&#45;1 </text>
<text text-anchor="start" x="1030.97" y="-443.51" font-family="Helvetica,sans-Serif" font-size="14.00"> </text>
<text text-anchor="start" x="915.47" y="-429.51" font-family="Helvetica,sans-Serif" font-size="14.00"> error: 0.590, n=3557 </text>
<text text-anchor="start" x="938.97" y="-415.51" font-family="Helvetica,sans-Serif" font-size="14.00"> p: (0.86, 0.14) </text>
<text text-anchor="start" x="959.47" y="-401.51" font-family="Helvetica,sans-Serif" font-size="14.00">&#45;&#45;&#45;&#45;&#45;&#45;&#45;&#45;&#45;&#45;&#45;&#45;&#45;</text>
<text text-anchor="start" x="936.47" y="-387.51" font-family="Helvetica,sans-Serif" font-weight="bold" font-size="14.00">URL_of_Anchor</text>
</g>
<!-- 1&#45;&gt;11 -->
<g id="edge4" class="edge">
<title>1:s&#45;&gt;11:n</title>
<path fill="none" stroke="black" d="M571.97,-508.71C571.97,-508.71 920.05,-466.64 983.95,-458.92"/>
<polygon fill="black" stroke="black" points="984.46,-462.39 993.97,-457.71 983.62,-455.44 984.46,-462.39"/>
<text text-anchor="middle" x="841.47" y="-479.51" font-family="Helvetica,sans-Serif" font-size="14.00">&#45;1</text>
</g>
<!-- 3 -->
<g id="node6" class="node">
<title>3</title>
<ellipse fill="#59cc3d" stroke="black" cx="121.97" cy="-289.71" rx="115.93" ry="35.21"/>
<text text-anchor="start" x="79.97" y="-300.51" font-family="Helvetica,sans-Serif" font-weight="bold" font-size="14.00"> Class=&#45;1 </text>
<text text-anchor="start" x="158.97" y="-300.51" font-family="Helvetica,sans-Serif" font-size="14.00"> </text>
<text text-anchor="start" x="47.97" y="-286.51" font-family="Helvetica,sans-Serif" font-size="14.00"> error: 0.000, n=969 </text>
<text text-anchor="start" x="66.97" y="-272.51" font-family="Helvetica,sans-Serif" font-size="14.00"> p: (1.00, 0.00) </text>
</g>
<!-- 2&#45;&gt;3 -->
<g id="edge5" class="edge">
<title>2:s&#45;&gt;3:n</title>
<path fill="none" stroke="black" d="M312.97,-379.71C312.97,-379.71 170.62,-340.21 131.7,-329.41"/>
<polygon fill="black" stroke="black" points="132.54,-326.01 121.97,-326.71 130.67,-332.76 132.54,-326.01"/>
<text text-anchor="middle" x="253.47" y="-350.51" font-family="Helvetica,sans-Serif" font-size="14.00">&#45;1</text>
</g>
<!-- 5 -->
<g id="node7" class="node">
<title>5</title>
<polygon fill="#59cc3d" stroke="black" points="482.47,-328.71 309.47,-328.71 309.47,-250.71 482.47,-250.71 482.47,-328.71"/>
<text text-anchor="start" x="356.97" y="-314.51" font-family="Helvetica,sans-Serif" font-weight="bold" font-size="14.00"> Class=1 </text>
<text text-anchor="start" x="429.97" y="-314.51" font-family="Helvetica,sans-Serif" font-size="14.00"> </text>
<text text-anchor="start" x="317.47" y="-300.51" font-family="Helvetica,sans-Serif" font-size="14.00"> error: 0.518, n=3934 </text>
<text text-anchor="start" x="340.97" y="-286.51" font-family="Helvetica,sans-Serif" font-size="14.00"> p: (0.12, 0.88) </text>
<text text-anchor="start" x="366.97" y="-272.51" font-family="Helvetica,sans-Serif" font-size="14.00">&#45;&#45;&#45;&#45;&#45;&#45;&#45;&#45;&#45;&#45;&#45;</text>
<text text-anchor="start" x="352.47" y="-258.51" font-family="Helvetica,sans-Serif" font-weight="bold" font-size="14.00">web_traffic</text>
</g>
<!-- 4&#45;&gt;5 -->
<g id="edge6" class="edge">
<title>4:s&#45;&gt;5:n</title>
<path fill="none" stroke="black" d="M571.97,-379.71C571.97,-379.71 442.58,-342.22 405.68,-331.53"/>
<polygon fill="black" stroke="black" points="406.54,-328.13 395.97,-328.71 404.6,-334.86 406.54,-328.13"/>
<text text-anchor="middle" x="509.97" y="-350.51" font-family="Helvetica,sans-Serif" font-size="14.00">0</text>
</g>
<!-- 10 -->
<g id="node8" class="node">
<title>10</title>
<ellipse fill="#59cc3d" stroke="black" cx="676.97" cy="-289.71" rx="122.16" ry="35.21"/>
<text text-anchor="start" x="637.97" y="-300.51" font-family="Helvetica,sans-Serif" font-weight="bold" font-size="14.00"> Class=1 </text>
<text text-anchor="start" x="710.97" y="-300.51" font-family="Helvetica,sans-Serif" font-size="14.00"> </text>
<text text-anchor="start" x="598.47" y="-286.51" font-family="Helvetica,sans-Serif" font-size="14.00"> error: 0.064, n=2133 </text>
<text text-anchor="start" x="621.97" y="-272.51" font-family="Helvetica,sans-Serif" font-size="14.00"> p: (0.01, 0.99) </text>
</g>
<!-- 4&#45;&gt;10 -->
<g id="edge7" class="edge">
<title>4:s&#45;&gt;10:n</title>
<path fill="none" stroke="black" d="M571.97,-379.71C571.97,-379.71 642.62,-344.05 668.01,-331.23"/>
<polygon fill="black" stroke="black" points="669.62,-334.34 676.97,-326.71 666.46,-328.09 669.62,-334.34"/>
<text text-anchor="middle" x="641.97" y="-350.51" font-family="Helvetica,sans-Serif" font-size="14.00">1</text>
</g>
<!-- 12 -->
<g id="node13" class="node">
<title>12</title>
<ellipse fill="#59cc3d" stroke="black" cx="993.97" cy="-289.71" rx="122.16" ry="35.21"/>
<text text-anchor="start" x="951.97" y="-300.51" font-family="Helvetica,sans-Serif" font-weight="bold" font-size="14.00"> Class=&#45;1 </text>
<text text-anchor="start" x="1030.97" y="-300.51" font-family="Helvetica,sans-Serif" font-size="14.00"> </text>
<text text-anchor="start" x="915.47" y="-286.51" font-family="Helvetica,sans-Serif" font-size="14.00"> error: 0.000, n=2049 </text>
<text text-anchor="start" x="938.97" y="-272.51" font-family="Helvetica,sans-Serif" font-size="14.00"> p: (1.00, 0.00) </text>
</g>
<!-- 11&#45;&gt;12 -->
<g id="edge12" class="edge">
<title>11:s&#45;&gt;12:n</title>
<path fill="none" stroke="black" d="M993.97,-379.71C993.97,-379.71 993.97,-352.33 993.97,-336.93"/>
<polygon fill="black" stroke="black" points="997.47,-336.71 993.97,-326.71 990.47,-336.71 997.47,-336.71"/>
<text text-anchor="middle" x="1001.47" y="-350.51" font-family="Helvetica,sans-Serif" font-size="14.00">&#45;1</text>
</g>
<!-- 13 -->
<g id="node14" class="node">
<title>13</title>
<polygon fill="#59cc3d" stroke="black" points="1361.47,-328.71 1188.47,-328.71 1188.47,-250.71 1361.47,-250.71 1361.47,-328.71"/>
<text text-anchor="start" x="1232.97" y="-314.51" font-family="Helvetica,sans-Serif" font-weight="bold" font-size="14.00"> Class=&#45;1 </text>
<text text-anchor="start" x="1311.97" y="-314.51" font-family="Helvetica,sans-Serif" font-size="14.00"> </text>
<text text-anchor="start" x="1196.47" y="-300.51" font-family="Helvetica,sans-Serif" font-size="14.00"> error: 0.844, n=1240 </text>
<text text-anchor="start" x="1219.97" y="-286.51" font-family="Helvetica,sans-Serif" font-size="14.00"> p: (0.73, 0.27) </text>
<text text-anchor="start" x="1240.47" y="-272.51" font-family="Helvetica,sans-Serif" font-size="14.00">&#45;&#45;&#45;&#45;&#45;&#45;&#45;&#45;&#45;&#45;&#45;&#45;&#45;</text>
<text text-anchor="start" x="1223.47" y="-258.51" font-family="Helvetica,sans-Serif" font-weight="bold" font-size="14.00">Links_in_tags</text>
</g>
<!-- 11&#45;&gt;13 -->
<g id="edge13" class="edge">
<title>11:s&#45;&gt;13:n</title>
<path fill="none" stroke="black" d="M993.97,-379.71C993.97,-379.71 1214.91,-339.61 1264.96,-330.53"/>
<polygon fill="black" stroke="black" points="1265.75,-333.94 1274.97,-328.71 1264.5,-327.05 1265.75,-333.94"/>
<text text-anchor="middle" x="1171.97" y="-350.51" font-family="Helvetica,sans-Serif" font-size="14.00">0</text>
</g>
<!-- 6 -->
<g id="node9" class="node">
<title>6</title>
<polygon fill="#44e5b5" stroke="black" points="201.47,-199.71 30.47,-199.71 30.47,-121.71 201.47,-121.71 201.47,-199.71"/>
<text text-anchor="start" x="76.97" y="-185.51" font-family="Helvetica,sans-Serif" font-weight="bold" font-size="14.00"> Class=1 </text>
<text text-anchor="start" x="149.97" y="-185.51" font-family="Helvetica,sans-Serif" font-size="14.00"> </text>
<text text-anchor="start" x="41.97" y="-171.51" font-family="Helvetica,sans-Serif" font-size="14.00"> error: 0.955, n=833 </text>
<text text-anchor="start" x="60.97" y="-157.51" font-family="Helvetica,sans-Serif" font-size="14.00"> p: (0.38, 0.62) </text>
<text text-anchor="start" x="70.97" y="-143.51" font-family="Helvetica,sans-Serif" font-size="14.00">&#45;&#45;&#45;&#45;&#45;&#45;&#45;&#45;&#45;&#45;&#45;&#45;&#45;&#45;&#45;&#45;&#45;</text>
<text text-anchor="start" x="38.47" y="-129.51" font-family="Helvetica,sans-Serif" font-weight="bold" font-size="14.00">having_Sub_Domain</text>
</g>
<!-- 5&#45;&gt;6 -->
<g id="edge8" class="edge">
<title>5:s&#45;&gt;6:n</title>
<path fill="none" stroke="black" d="M395.97,-250.71C395.97,-250.71 175.81,-210.61 125.93,-201.53"/>
<polygon fill="black" stroke="black" points="126.43,-198.06 115.97,-199.71 125.18,-204.95 126.43,-198.06"/>
<text text-anchor="middle" x="294.97" y="-221.51" font-family="Helvetica,sans-Serif" font-size="14.00">0</text>
</g>
<!-- 8 -->
<g id="node10" class="node">
<title>8</title>
<ellipse fill="#44e5b5" stroke="black" cx="395.97" cy="-160.71" rx="122.16" ry="35.21"/>
<text text-anchor="start" x="356.97" y="-171.51" font-family="Helvetica,sans-Serif" font-weight="bold" font-size="14.00"> Class=1 </text>
<text text-anchor="start" x="429.97" y="-171.51" font-family="Helvetica,sans-Serif" font-size="14.00"> </text>
<text text-anchor="start" x="317.47" y="-157.51" font-family="Helvetica,sans-Serif" font-size="14.00"> error: 0.298, n=2537 </text>
<text text-anchor="start" x="340.97" y="-143.51" font-family="Helvetica,sans-Serif" font-size="14.00"> p: (0.05, 0.95) </text>
</g>
<!-- 5&#45;&gt;8 -->
<g id="edge9" class="edge">
<title>5:s&#45;&gt;8:n</title>
<path fill="none" stroke="black" d="M395.97,-250.71C395.97,-250.71 395.97,-223.33 395.97,-207.93"/>
<polygon fill="black" stroke="black" points="399.47,-207.71 395.97,-197.71 392.47,-207.71 399.47,-207.71"/>
<text text-anchor="middle" x="400.97" y="-221.51" font-family="Helvetica,sans-Serif" font-size="14.00">1</text>
</g>
<!-- 9 -->
<g id="node11" class="node">
<title>9</title>
<ellipse fill="#44e5b5" stroke="black" cx="705.97" cy="-160.71" rx="115.93" ry="35.21"/>
<text text-anchor="start" x="666.97" y="-171.51" font-family="Helvetica,sans-Serif" font-weight="bold" font-size="14.00"> Class=1 </text>
<text text-anchor="start" x="739.97" y="-171.51" font-family="Helvetica,sans-Serif" font-size="14.00"> </text>
<text text-anchor="start" x="631.97" y="-157.51" font-family="Helvetica,sans-Serif" font-size="14.00"> error: 0.129, n=564 </text>
<text text-anchor="start" x="650.97" y="-143.51" font-family="Helvetica,sans-Serif" font-size="14.00"> p: (0.02, 0.98) </text>
</g>
<!-- 5&#45;&gt;9 -->
<g id="edge10" class="edge">
<title>5:s&#45;&gt;9:n</title>
<path fill="none" stroke="black" d="M395.97,-250.71C395.97,-250.71 642.94,-208.49 696,-199.41"/>
<polygon fill="black" stroke="black" points="696.7,-202.85 705.97,-197.71 695.52,-195.95 696.7,-202.85"/>
<text text-anchor="middle" x="595.47" y="-221.51" font-family="Helvetica,sans-Serif" font-size="14.00">&#45;1</text>
</g>
<!-- 7 -->
<g id="node12" class="node">
<title>7</title>
<ellipse fill="#3d76cc" stroke="black" cx="115.97" cy="-35.36" rx="115.93" ry="35.21"/>
<text text-anchor="start" x="76.97" y="-46.16" font-family="Helvetica,sans-Serif" font-weight="bold" font-size="14.00"> Class=1 </text>
<text text-anchor="start" x="149.97" y="-46.16" font-family="Helvetica,sans-Serif" font-size="14.00"> </text>
<text text-anchor="start" x="41.97" y="-32.16" font-family="Helvetica,sans-Serif" font-size="14.00"> error: 0.755, n=451 </text>
<text text-anchor="start" x="60.97" y="-18.16" font-family="Helvetica,sans-Serif" font-size="14.00"> p: (0.22, 0.78) </text>
</g>
<!-- 6&#45;&gt;7 -->
<g id="edge11" class="edge">
<title>6:s&#45;&gt;7:n</title>
<path fill="none" stroke="black" d="M115.97,-121.71C115.97,-121.71 115.97,-95.93 115.97,-81.03"/>
<polygon fill="black" stroke="black" points="119.47,-80.71 115.97,-70.71 112.47,-80.71 119.47,-80.71"/>
<text text-anchor="middle" x="120.97" y="-92.51" font-family="Helvetica,sans-Serif" font-size="14.00">1</text>
</g>
<!-- 14 -->
<g id="node15" class="node">
<title>14</title>
<polygon fill="#44e5b5" stroke="black" points="1231.47,-199.71 1034.47,-199.71 1034.47,-121.71 1231.47,-121.71 1231.47,-199.71"/>
<text text-anchor="start" x="1090.97" y="-185.51" font-family="Helvetica,sans-Serif" font-weight="bold" font-size="14.00"> Class=&#45;1 </text>
<text text-anchor="start" x="1169.97" y="-185.51" font-family="Helvetica,sans-Serif" font-size="14.00"> </text>
<text text-anchor="start" x="1058.97" y="-171.51" font-family="Helvetica,sans-Serif" font-size="14.00"> error: 0.563, n=659 </text>
<text text-anchor="start" x="1077.97" y="-157.51" font-family="Helvetica,sans-Serif" font-size="14.00"> p: (0.87, 0.13) </text>
<text text-anchor="start" x="1074.97" y="-143.51" font-family="Helvetica,sans-Serif" font-size="14.00">&#45;&#45;&#45;&#45;&#45;&#45;&#45;&#45;&#45;&#45;&#45;&#45;&#45;&#45;&#45;&#45;&#45;&#45;&#45;&#45;&#45;&#45;</text>
<text text-anchor="start" x="1042.47" y="-129.51" font-family="Helvetica,sans-Serif" font-weight="bold" font-size="14.00">Links_pointing_to_page</text>
</g>
<!-- 13&#45;&gt;14 -->
<g id="edge14" class="edge">
<title>13:s&#45;&gt;14:n</title>
<path fill="none" stroke="black" d="M1274.97,-250.71C1274.97,-250.71 1174.81,-214.74 1142.73,-203.22"/>
<polygon fill="black" stroke="black" points="1143.56,-199.8 1132.97,-199.71 1141.19,-206.38 1143.56,-199.8"/>
<text text-anchor="middle" x="1227.47" y="-221.51" font-family="Helvetica,sans-Serif" font-size="14.00">&#45;1</text>
</g>
<!-- 16 -->
<g id="node16" class="node">
<title>16</title>
<ellipse fill="#44e5b5" stroke="black" cx="1418.97" cy="-160.71" rx="115.93" ry="35.21"/>
<text text-anchor="start" x="1376.97" y="-171.51" font-family="Helvetica,sans-Serif" font-weight="bold" font-size="14.00"> Class=&#45;1 </text>
<text text-anchor="start" x="1455.97" y="-171.51" font-family="Helvetica,sans-Serif" font-size="14.00"> </text>
<text text-anchor="start" x="1344.97" y="-157.51" font-family="Helvetica,sans-Serif" font-size="14.00"> error: 0.970, n=467 </text>
<text text-anchor="start" x="1363.97" y="-143.51" font-family="Helvetica,sans-Serif" font-size="14.00"> p: (0.60, 0.40) </text>
</g>
<!-- 13&#45;&gt;16 -->
<g id="edge15" class="edge">
<title>13:s&#45;&gt;16:n</title>
<path fill="none" stroke="black" d="M1274.97,-250.71C1274.97,-250.71 1377.48,-212.98 1409.52,-201.19"/>
<polygon fill="black" stroke="black" points="1410.79,-204.45 1418.97,-197.71 1408.37,-197.88 1410.79,-204.45"/>
<text text-anchor="middle" x="1368.97" y="-221.51" font-family="Helvetica,sans-Serif" font-size="14.00">0</text>
</g>
<!-- 15 -->
<g id="node17" class="node">
<title>15</title>
<ellipse fill="#3d76cc" stroke="black" cx="1132.97" cy="-35.36" rx="115.93" ry="35.21"/>
<text text-anchor="start" x="1090.97" y="-46.16" font-family="Helvetica,sans-Serif" font-weight="bold" font-size="14.00"> Class=&#45;1 </text>
<text text-anchor="start" x="1169.97" y="-46.16" font-family="Helvetica,sans-Serif" font-size="14.00"> </text>
<text text-anchor="start" x="1058.97" y="-32.16" font-family="Helvetica,sans-Serif" font-size="14.00"> error: 0.416, n=405 </text>
<text text-anchor="start" x="1077.97" y="-18.16" font-family="Helvetica,sans-Serif" font-size="14.00"> p: (0.92, 0.08) </text>
</g>
<!-- 14&#45;&gt;15 -->
<g id="edge16" class="edge">
<title>14:s&#45;&gt;15:n</title>
<path fill="none" stroke="black" d="M1132.97,-121.71C1132.97,-121.71 1132.97,-95.93 1132.97,-81.03"/>
<polygon fill="black" stroke="black" points="1136.47,-80.71 1132.97,-70.71 1129.47,-80.71 1136.47,-80.71"/>
<text text-anchor="middle" x="1137.97" y="-92.51" font-family="Helvetica,sans-Serif" font-size="14.00">0</text>
</g>
</g>
</svg>
