<?xml version="1.0" encoding="UTF-8" standalone="no"?>
<!DOCTYPE svg PUBLIC "-//W3C//DTD SVG 1.1//EN"
 "http://www.w3.org/Graphics/SVG/1.1/DTD/svg11.dtd">
<!-- Generated by graphviz version 2.43.0 (0)
 -->
<!-- Title: Tree Pages: 1 -->
<svg width="4453pt" height="825pt"
 viewBox="0.00 0.00 4453.17 824.71" xmlns="http://www.w3.org/2000/svg" xmlns:xlink="http://www.w3.org/1999/xlink">
<g id="graph0" class="graph" transform="scale(1 1) rotate(0) translate(18 806.71)">
<title>Tree</title>
<polygon fill="white" stroke="transparent" points="-18,18 -18,-806.71 4435.17,-806.71 4435.17,18 -18,18"/>
<!-- 0 -->
<g id="node1" class="node">
<title>0</title>
<polygon fill="white" stroke="transparent" points="2168.09,-788.71 2114.09,-788.71 2114.09,-752.71 2168.09,-752.71 2168.09,-788.71"/>
<text text-anchor="middle" x="2141.09" y="-767.01" font-family="Helvetica,sans-Serif" font-size="14.00">0</text>
</g>
<!-- 1 -->
<g id="node2" class="node">
<title>1</title>
<polygon fill="#cc3d3d" stroke="black" points="2227.59,-715.71 2054.59,-715.71 2054.59,-637.71 2227.59,-637.71 2227.59,-715.71"/>
<text text-anchor="start" x="2101.09" y="-701.51" font-family="Helvetica,sans-Serif" font-weight="bold" font-size="14.00"> Class=N </text>
<text text-anchor="start" x="2176.09" y="-701.51" font-family="Helvetica,sans-Serif" font-size="14.00"> </text>
<text text-anchor="start" x="2062.59" y="-687.51" font-family="Helvetica,sans-Serif" font-size="14.00"> error: 0.934, n=3190 </text>
<text text-anchor="start" x="2065.59" y="-673.51" font-family="Helvetica,sans-Serif" font-size="14.00"> p: (0.24, 0.24, 0.52) </text>
<text text-anchor="start" x="2109.09" y="-659.51" font-family="Helvetica,sans-Serif" font-size="14.00">&#45;&#45;&#45;&#45;&#45;&#45;&#45;&#45;&#45;&#45;&#45;&#45;</text>
<text text-anchor="start" x="2092.59" y="-645.51" font-family="Helvetica,sans-Serif" font-weight="bold" font-size="14.00">attribute_30</text>
</g>
<!-- 0&#45;&gt;1 -->
<!-- 2 -->
<g id="node3" class="node">
<title>2</title>
<polygon fill="#e5b844" stroke="black" points="817.59,-586.71 650.59,-586.71 650.59,-508.71 817.59,-508.71 817.59,-586.71"/>
<text text-anchor="start" x="694.09" y="-572.51" font-family="Helvetica,sans-Serif" font-weight="bold" font-size="14.00"> Class=N </text>
<text text-anchor="start" x="769.09" y="-572.51" font-family="Helvetica,sans-Serif" font-size="14.00"> </text>
<text text-anchor="start" x="660.09" y="-558.51" font-family="Helvetica,sans-Serif" font-size="14.00"> error: 0.345, n=451 </text>
<text text-anchor="start" x="658.59" y="-544.51" font-family="Helvetica,sans-Serif" font-size="14.00"> p: (0.13, 0.00, 0.87) </text>
<text text-anchor="start" x="702.09" y="-530.51" font-family="Helvetica,sans-Serif" font-size="14.00">&#45;&#45;&#45;&#45;&#45;&#45;&#45;&#45;&#45;&#45;&#45;&#45;</text>
<text text-anchor="start" x="685.59" y="-516.51" font-family="Helvetica,sans-Serif" font-weight="bold" font-size="14.00">attribute_35</text>
</g>
<!-- 1&#45;&gt;2 -->
<g id="edge2" class="edge">
<title>1:s&#45;&gt;2:n</title>
<path fill="none" stroke="black" d="M2141.09,-637.71C2141.09,-637.71 870.75,-591.66 744.21,-587.08"/>
<polygon fill="black" stroke="black" points="744.21,-583.58 734.09,-586.71 743.95,-590.57 744.21,-583.58"/>
<text text-anchor="middle" x="1609.59" y="-608.51" font-family="Helvetica,sans-Serif" font-size="14.00">T</text>
</g>
<!-- 7 -->
<g id="node4" class="node">
<title>7</title>
<polygon fill="#e5b844" stroke="black" points="2049.59,-586.71 1882.59,-586.71 1882.59,-508.71 2049.59,-508.71 2049.59,-586.71"/>
<text text-anchor="start" x="1926.09" y="-572.51" font-family="Helvetica,sans-Serif" font-weight="bold" font-size="14.00"> Class=N </text>
<text text-anchor="start" x="2001.09" y="-572.51" font-family="Helvetica,sans-Serif" font-size="14.00"> </text>
<text text-anchor="start" x="1892.09" y="-558.51" font-family="Helvetica,sans-Serif" font-size="14.00"> error: 0.363, n=474 </text>
<text text-anchor="start" x="1890.59" y="-544.51" font-family="Helvetica,sans-Serif" font-size="14.00"> p: (0.13, 0.00, 0.87) </text>
<text text-anchor="start" x="1934.09" y="-530.51" font-family="Helvetica,sans-Serif" font-size="14.00">&#45;&#45;&#45;&#45;&#45;&#45;&#45;&#45;&#45;&#45;&#45;&#45;</text>
<text text-anchor="start" x="1917.59" y="-516.51" font-family="Helvetica,sans-Serif" font-weight="bold" font-size="14.00">attribute_32</text>
</g>
<!-- 1&#45;&gt;7 -->
<g id="edge3" class="edge">
<title>1:s&#45;&gt;7:n</title>
<path fill="none" stroke="black" d="M2141.09,-637.71C2141.09,-637.71 2012.43,-600.22 1975.74,-589.53"/>
<polygon fill="black" stroke="black" points="1976.67,-586.15 1966.09,-586.71 1974.71,-592.87 1976.67,-586.15"/>
<text text-anchor="middle" x="2080.09" y="-608.51" font-family="Helvetica,sans-Serif" font-size="14.00">A</text>
</g>
<!-- 12 -->
<g id="node5" class="node">
<title>12</title>
<polygon fill="#e5b844" stroke="black" points="2819.59,-586.71 2652.59,-586.71 2652.59,-508.71 2819.59,-508.71 2819.59,-586.71"/>
<text text-anchor="start" x="2696.09" y="-572.51" font-family="Helvetica,sans-Serif" font-weight="bold" font-size="14.00"> Class=N </text>
<text text-anchor="start" x="2771.09" y="-572.51" font-family="Helvetica,sans-Serif" font-size="14.00"> </text>
<text text-anchor="start" x="2662.09" y="-558.51" font-family="Helvetica,sans-Serif" font-size="14.00"> error: 0.201, n=442 </text>
<text text-anchor="start" x="2660.59" y="-544.51" font-family="Helvetica,sans-Serif" font-size="14.00"> p: (0.05, 0.00, 0.95) </text>
<text text-anchor="start" x="2704.09" y="-530.51" font-family="Helvetica,sans-Serif" font-size="14.00">&#45;&#45;&#45;&#45;&#45;&#45;&#45;&#45;&#45;&#45;&#45;&#45;</text>
<text text-anchor="start" x="2687.59" y="-516.51" font-family="Helvetica,sans-Serif" font-weight="bold" font-size="14.00">attribute_31</text>
</g>
<!-- 1&#45;&gt;12 -->
<g id="edge4" class="edge">
<title>1:s&#45;&gt;12:n</title>
<path fill="none" stroke="black" d="M2141.09,-637.71C2141.09,-637.71 2646.75,-594.37 2725.76,-587.6"/>
<polygon fill="black" stroke="black" points="2726.42,-591.05 2736.09,-586.71 2725.82,-584.08 2726.42,-591.05"/>
<text text-anchor="middle" x="2515.09" y="-608.51" font-family="Helvetica,sans-Serif" font-size="14.00">C</text>
</g>
<!-- 16 -->
<g id="node6" class="node">
<title>16</title>
<polygon fill="#e5b844" stroke="black" points="3797.59,-586.71 3624.59,-586.71 3624.59,-508.71 3797.59,-508.71 3797.59,-586.71"/>
<text text-anchor="start" x="3669.59" y="-572.51" font-family="Helvetica,sans-Serif" font-weight="bold" font-size="14.00"> Class=IE </text>
<text text-anchor="start" x="3747.59" y="-572.51" font-family="Helvetica,sans-Serif" font-size="14.00"> </text>
<text text-anchor="start" x="3632.59" y="-558.51" font-family="Helvetica,sans-Serif" font-size="14.00"> error: 0.976, n=1822 </text>
<text text-anchor="start" x="3635.59" y="-544.51" font-family="Helvetica,sans-Serif" font-size="14.00"> p: (0.34, 0.42, 0.24) </text>
<text text-anchor="start" x="3679.09" y="-530.51" font-family="Helvetica,sans-Serif" font-size="14.00">&#45;&#45;&#45;&#45;&#45;&#45;&#45;&#45;&#45;&#45;&#45;&#45;</text>
<text text-anchor="start" x="3662.59" y="-516.51" font-family="Helvetica,sans-Serif" font-weight="bold" font-size="14.00">attribute_32</text>
</g>
<!-- 1&#45;&gt;16 -->
<g id="edge5" class="edge">
<title>1:s&#45;&gt;16:n</title>
<path fill="none" stroke="black" d="M2141.09,-637.71C2141.09,-637.71 3567.35,-591.38 3701.06,-587.04"/>
<polygon fill="black" stroke="black" points="3701.21,-590.53 3711.09,-586.71 3700.98,-583.54 3701.21,-590.53"/>
<text text-anchor="middle" x="3118.59" y="-608.51" font-family="Helvetica,sans-Serif" font-size="14.00">G</text>
</g>
<!-- 3 -->
<g id="node7" class="node">
<title>3</title>
<ellipse fill="#8dcc3d" stroke="black" cx="118.09" cy="-418.71" rx="118.17" ry="35.21"/>
<text text-anchor="start" x="78.09" y="-429.51" font-family="Helvetica,sans-Serif" font-weight="bold" font-size="14.00"> Class=N </text>
<text text-anchor="start" x="153.09" y="-429.51" font-family="Helvetica,sans-Serif" font-size="14.00"> </text>
<text text-anchor="start" x="44.09" y="-415.51" font-family="Helvetica,sans-Serif" font-size="14.00"> error: 0.618, n=135 </text>
<text text-anchor="start" x="42.59" y="-401.51" font-family="Helvetica,sans-Serif" font-size="14.00"> p: (0.41, 0.00, 0.59) </text>
</g>
<!-- 2&#45;&gt;3 -->
<g id="edge6" class="edge">
<title>2:s&#45;&gt;3:n</title>
<path fill="none" stroke="black" d="M734.09,-508.71C734.09,-508.71 208.36,-463.48 128.26,-456.59"/>
<polygon fill="black" stroke="black" points="128.35,-453.08 118.09,-455.71 127.75,-460.06 128.35,-453.08"/>
<text text-anchor="middle" x="520.59" y="-479.51" font-family="Helvetica,sans-Serif" font-size="14.00">G</text>
</g>
<!-- 4 -->
<g id="node8" class="node">
<title>4</title>
<ellipse fill="#8dcc3d" stroke="black" cx="426.09" cy="-418.71" rx="118.17" ry="35.21"/>
<text text-anchor="start" x="386.09" y="-429.51" font-family="Helvetica,sans-Serif" font-weight="bold" font-size="14.00"> Class=N </text>
<text text-anchor="start" x="461.09" y="-429.51" font-family="Helvetica,sans-Serif" font-size="14.00"> </text>
<text text-anchor="start" x="356.59" y="-415.51" font-family="Helvetica,sans-Serif" font-size="14.00"> error: 0.054, n=94 </text>
<text text-anchor="start" x="350.59" y="-401.51" font-family="Helvetica,sans-Serif" font-size="14.00"> p: (0.01, 0.00, 0.99) </text>
</g>
<!-- 2&#45;&gt;4 -->
<g id="edge7" class="edge">
<title>2:s&#45;&gt;4:n</title>
<path fill="none" stroke="black" d="M734.09,-508.71C734.09,-508.71 488.7,-466.49 435.99,-457.41"/>
<polygon fill="black" stroke="black" points="436.54,-453.96 426.09,-455.71 435.35,-460.86 436.54,-453.96"/>
<text text-anchor="middle" x="631.09" y="-479.51" font-family="Helvetica,sans-Serif" font-size="14.00">C</text>
</g>
<!-- 5 -->
<g id="node9" class="node">
<title>5</title>
<ellipse fill="#8dcc3d" stroke="black" cx="734.09" cy="-418.71" rx="118.17" ry="35.21"/>
<text text-anchor="start" x="694.09" y="-429.51" font-family="Helvetica,sans-Serif" font-weight="bold" font-size="14.00"> Class=N </text>
<text text-anchor="start" x="769.09" y="-429.51" font-family="Helvetica,sans-Serif" font-size="14.00"> </text>
<text text-anchor="start" x="660.09" y="-415.51" font-family="Helvetica,sans-Serif" font-size="14.00"> error: 0.000, n=116 </text>
<text text-anchor="start" x="658.59" y="-401.51" font-family="Helvetica,sans-Serif" font-size="14.00"> p: (0.00, 0.00, 1.00) </text>
</g>
<!-- 2&#45;&gt;5 -->
<g id="edge8" class="edge">
<title>2:s&#45;&gt;5:n</title>
<path fill="none" stroke="black" d="M734.09,-508.71C734.09,-508.71 734.09,-481.33 734.09,-465.93"/>
<polygon fill="black" stroke="black" points="737.59,-465.71 734.09,-455.71 730.59,-465.71 737.59,-465.71"/>
<text text-anchor="middle" x="738.59" y="-479.51" font-family="Helvetica,sans-Serif" font-size="14.00">T</text>
</g>
<!-- 6 -->
<g id="node10" class="node">
<title>6</title>
<ellipse fill="#8dcc3d" stroke="black" cx="1042.09" cy="-418.71" rx="118.17" ry="35.21"/>
<text text-anchor="start" x="1002.09" y="-429.51" font-family="Helvetica,sans-Serif" font-weight="bold" font-size="14.00"> Class=N </text>
<text text-anchor="start" x="1077.09" y="-429.51" font-family="Helvetica,sans-Serif" font-size="14.00"> </text>
<text text-anchor="start" x="968.09" y="-415.51" font-family="Helvetica,sans-Serif" font-size="14.00"> error: 0.000, n=106 </text>
<text text-anchor="start" x="966.59" y="-401.51" font-family="Helvetica,sans-Serif" font-size="14.00"> p: (0.00, 0.00, 1.00) </text>
</g>
<!-- 2&#45;&gt;6 -->
<g id="edge9" class="edge">
<title>2:s&#45;&gt;6:n</title>
<path fill="none" stroke="black" d="M734.09,-508.71C734.09,-508.71 979.47,-466.49 1032.19,-457.41"/>
<polygon fill="black" stroke="black" points="1032.83,-460.86 1042.09,-455.71 1031.64,-453.96 1032.83,-460.86"/>
<text text-anchor="middle" x="930.09" y="-479.51" font-family="Helvetica,sans-Serif" font-size="14.00">A</text>
</g>
<!-- 8 -->
<g id="node11" class="node">
<title>8</title>
<ellipse fill="#8dcc3d" stroke="black" cx="1350.09" cy="-418.71" rx="118.17" ry="35.21"/>
<text text-anchor="start" x="1310.09" y="-429.51" font-family="Helvetica,sans-Serif" font-weight="bold" font-size="14.00"> Class=N </text>
<text text-anchor="start" x="1385.09" y="-429.51" font-family="Helvetica,sans-Serif" font-size="14.00"> </text>
<text text-anchor="start" x="1276.09" y="-415.51" font-family="Helvetica,sans-Serif" font-size="14.00"> error: 0.605, n=157 </text>
<text text-anchor="start" x="1274.59" y="-401.51" font-family="Helvetica,sans-Serif" font-size="14.00"> p: (0.38, 0.00, 0.62) </text>
</g>
<!-- 7&#45;&gt;8 -->
<g id="edge10" class="edge">
<title>7:s&#45;&gt;8:n</title>
<path fill="none" stroke="black" d="M1966.09,-508.71C1966.09,-508.71 1440.36,-463.48 1360.26,-456.59"/>
<polygon fill="black" stroke="black" points="1360.35,-453.08 1350.09,-455.71 1359.75,-460.06 1360.35,-453.08"/>
<text text-anchor="middle" x="1753.59" y="-479.51" font-family="Helvetica,sans-Serif" font-size="14.00">T</text>
</g>
<!-- 9 -->
<g id="node12" class="node">
<title>9</title>
<ellipse fill="#8dcc3d" stroke="black" cx="1658.09" cy="-418.71" rx="118.17" ry="35.21"/>
<text text-anchor="start" x="1618.09" y="-429.51" font-family="Helvetica,sans-Serif" font-weight="bold" font-size="14.00"> Class=N </text>
<text text-anchor="start" x="1693.09" y="-429.51" font-family="Helvetica,sans-Serif" font-size="14.00"> </text>
<text text-anchor="start" x="1584.09" y="-415.51" font-family="Helvetica,sans-Serif" font-size="14.00"> error: 0.044, n=118 </text>
<text text-anchor="start" x="1582.59" y="-401.51" font-family="Helvetica,sans-Serif" font-size="14.00"> p: (0.01, 0.00, 0.99) </text>
</g>
<!-- 7&#45;&gt;9 -->
<g id="edge11" class="edge">
<title>7:s&#45;&gt;9:n</title>
<path fill="none" stroke="black" d="M1966.09,-508.71C1966.09,-508.71 1720.7,-466.49 1667.99,-457.41"/>
<polygon fill="black" stroke="black" points="1668.54,-453.96 1658.09,-455.71 1667.35,-460.86 1668.54,-453.96"/>
<text text-anchor="middle" x="1863.09" y="-479.51" font-family="Helvetica,sans-Serif" font-size="14.00">A</text>
</g>
<!-- 10 -->
<g id="node13" class="node">
<title>10</title>
<ellipse fill="#8dcc3d" stroke="black" cx="1966.09" cy="-418.71" rx="118.17" ry="35.21"/>
<text text-anchor="start" x="1926.09" y="-429.51" font-family="Helvetica,sans-Serif" font-weight="bold" font-size="14.00"> Class=N </text>
<text text-anchor="start" x="2001.09" y="-429.51" font-family="Helvetica,sans-Serif" font-size="14.00"> </text>
<text text-anchor="start" x="1896.59" y="-415.51" font-family="Helvetica,sans-Serif" font-size="14.00"> error: 0.052, n=97 </text>
<text text-anchor="start" x="1890.59" y="-401.51" font-family="Helvetica,sans-Serif" font-size="14.00"> p: (0.00, 0.01, 0.99) </text>
</g>
<!-- 7&#45;&gt;10 -->
<g id="edge12" class="edge">
<title>7:s&#45;&gt;10:n</title>
<path fill="none" stroke="black" d="M1966.09,-508.71C1966.09,-508.71 1966.09,-481.33 1966.09,-465.93"/>
<polygon fill="black" stroke="black" points="1969.59,-465.71 1966.09,-455.71 1962.59,-465.71 1969.59,-465.71"/>
<text text-anchor="middle" x="1971.59" y="-479.51" font-family="Helvetica,sans-Serif" font-size="14.00">G</text>
</g>
<!-- 11 -->
<g id="node14" class="node">
<title>11</title>
<ellipse fill="#8dcc3d" stroke="black" cx="2274.09" cy="-418.71" rx="118.17" ry="35.21"/>
<text text-anchor="start" x="2234.09" y="-429.51" font-family="Helvetica,sans-Serif" font-weight="bold" font-size="14.00"> Class=N </text>
<text text-anchor="start" x="2309.09" y="-429.51" font-family="Helvetica,sans-Serif" font-size="14.00"> </text>
<text text-anchor="start" x="2200.09" y="-415.51" font-family="Helvetica,sans-Serif" font-size="14.00"> error: 0.000, n=102 </text>
<text text-anchor="start" x="2198.59" y="-401.51" font-family="Helvetica,sans-Serif" font-size="14.00"> p: (0.00, 0.00, 1.00) </text>
</g>
<!-- 7&#45;&gt;11 -->
<g id="edge13" class="edge">
<title>7:s&#45;&gt;11:n</title>
<path fill="none" stroke="black" d="M1966.09,-508.71C1966.09,-508.71 2211.47,-466.49 2264.19,-457.41"/>
<polygon fill="black" stroke="black" points="2264.83,-460.86 2274.09,-455.71 2263.64,-453.96 2264.83,-460.86"/>
<text text-anchor="middle" x="2162.09" y="-479.51" font-family="Helvetica,sans-Serif" font-size="14.00">C</text>
</g>
<!-- 13 -->
<g id="node15" class="node">
<title>13</title>
<ellipse fill="#8dcc3d" stroke="black" cx="2582.09" cy="-418.71" rx="118.17" ry="35.21"/>
<text text-anchor="start" x="2542.09" y="-429.51" font-family="Helvetica,sans-Serif" font-weight="bold" font-size="14.00"> Class=N </text>
<text text-anchor="start" x="2617.09" y="-429.51" font-family="Helvetica,sans-Serif" font-size="14.00"> </text>
<text text-anchor="start" x="2508.09" y="-415.51" font-family="Helvetica,sans-Serif" font-size="14.00"> error: 0.042, n=125 </text>
<text text-anchor="start" x="2506.59" y="-401.51" font-family="Helvetica,sans-Serif" font-size="14.00"> p: (0.00, 0.01, 0.99) </text>
</g>
<!-- 12&#45;&gt;13 -->
<g id="edge14" class="edge">
<title>12:s&#45;&gt;13:n</title>
<path fill="none" stroke="black" d="M2736.09,-508.71C2736.09,-508.71 2625.43,-470.63 2591.72,-459.03"/>
<polygon fill="black" stroke="black" points="2592.68,-455.66 2582.09,-455.71 2590.4,-462.27 2592.68,-455.66"/>
<text text-anchor="middle" x="2687.09" y="-479.51" font-family="Helvetica,sans-Serif" font-size="14.00">A</text>
</g>
<!-- 14 -->
<g id="node16" class="node">
<title>14</title>
<ellipse fill="#8dcc3d" stroke="black" cx="2890.09" cy="-418.71" rx="118.17" ry="35.21"/>
<text text-anchor="start" x="2850.09" y="-429.51" font-family="Helvetica,sans-Serif" font-weight="bold" font-size="14.00"> Class=N </text>
<text text-anchor="start" x="2925.09" y="-429.51" font-family="Helvetica,sans-Serif" font-size="14.00"> </text>
<text text-anchor="start" x="2816.09" y="-415.51" font-family="Helvetica,sans-Serif" font-size="14.00"> error: 0.000, n=118 </text>
<text text-anchor="start" x="2814.59" y="-401.51" font-family="Helvetica,sans-Serif" font-size="14.00"> p: (0.00, 0.00, 1.00) </text>
</g>
<!-- 12&#45;&gt;14 -->
<g id="edge15" class="edge">
<title>12:s&#45;&gt;14:n</title>
<path fill="none" stroke="black" d="M2736.09,-508.71C2736.09,-508.71 2846.74,-470.63 2880.45,-459.03"/>
<polygon fill="black" stroke="black" points="2881.77,-462.27 2890.09,-455.71 2879.49,-455.66 2881.77,-462.27"/>
<text text-anchor="middle" x="2837.09" y="-479.51" font-family="Helvetica,sans-Serif" font-size="14.00">C</text>
</g>
<!-- 15 -->
<g id="node17" class="node">
<title>15</title>
<ellipse fill="#8dcc3d" stroke="black" cx="3198.09" cy="-418.71" rx="118.17" ry="35.21"/>
<text text-anchor="start" x="3158.09" y="-429.51" font-family="Helvetica,sans-Serif" font-weight="bold" font-size="14.00"> Class=N </text>
<text text-anchor="start" x="3233.09" y="-429.51" font-family="Helvetica,sans-Serif" font-size="14.00"> </text>
<text text-anchor="start" x="3124.09" y="-415.51" font-family="Helvetica,sans-Serif" font-size="14.00"> error: 0.000, n=133 </text>
<text text-anchor="start" x="3122.59" y="-401.51" font-family="Helvetica,sans-Serif" font-size="14.00"> p: (0.00, 0.00, 1.00) </text>
</g>
<!-- 12&#45;&gt;15 -->
<g id="edge16" class="edge">
<title>12:s&#45;&gt;15:n</title>
<path fill="none" stroke="black" d="M2736.09,-508.71C2736.09,-508.71 3120.44,-464.62 3188.01,-456.87"/>
<polygon fill="black" stroke="black" points="3188.55,-460.33 3198.09,-455.71 3187.75,-453.37 3188.55,-460.33"/>
<text text-anchor="middle" x="3026.59" y="-479.51" font-family="Helvetica,sans-Serif" font-size="14.00">T</text>
</g>
<!-- 17 -->
<g id="node18" class="node">
<title>17</title>
<polygon fill="#8dcc3d" stroke="black" points="3555.59,-457.71 3388.59,-457.71 3388.59,-379.71 3555.59,-379.71 3555.59,-457.71"/>
<text text-anchor="start" x="3430.59" y="-443.51" font-family="Helvetica,sans-Serif" font-weight="bold" font-size="14.00"> Class=EI </text>
<text text-anchor="start" x="3508.59" y="-443.51" font-family="Helvetica,sans-Serif" font-size="14.00"> </text>
<text text-anchor="start" x="3398.09" y="-429.51" font-family="Helvetica,sans-Serif" font-size="14.00"> error: 0.772, n=954 </text>
<text text-anchor="start" x="3396.59" y="-415.51" font-family="Helvetica,sans-Serif" font-size="14.00"> p: (0.65, 0.26, 0.09) </text>
<text text-anchor="start" x="3440.09" y="-401.51" font-family="Helvetica,sans-Serif" font-size="14.00">&#45;&#45;&#45;&#45;&#45;&#45;&#45;&#45;&#45;&#45;&#45;&#45;</text>
<text text-anchor="start" x="3423.59" y="-387.51" font-family="Helvetica,sans-Serif" font-weight="bold" font-size="14.00">attribute_31</text>
</g>
<!-- 16&#45;&gt;17 -->
<g id="edge17" class="edge">
<title>16:s&#45;&gt;17:n</title>
<path fill="none" stroke="black" d="M3711.09,-508.71C3711.09,-508.71 3527.28,-469.49 3482.05,-459.84"/>
<polygon fill="black" stroke="black" points="3482.6,-456.37 3472.09,-457.71 3481.14,-463.22 3482.6,-456.37"/>
<text text-anchor="middle" x="3624.59" y="-479.51" font-family="Helvetica,sans-Serif" font-size="14.00">T</text>
</g>
<!-- 24 -->
<g id="node19" class="node">
<title>24</title>
<polygon fill="#8dcc3d" stroke="black" points="3794.59,-457.71 3627.59,-457.71 3627.59,-379.71 3794.59,-379.71 3794.59,-457.71"/>
<text text-anchor="start" x="3669.59" y="-443.51" font-family="Helvetica,sans-Serif" font-weight="bold" font-size="14.00"> Class=IE </text>
<text text-anchor="start" x="3747.59" y="-443.51" font-family="Helvetica,sans-Serif" font-size="14.00"> </text>
<text text-anchor="start" x="3637.09" y="-429.51" font-family="Helvetica,sans-Serif" font-size="14.00"> error: 0.667, n=270 </text>
<text text-anchor="start" x="3635.59" y="-415.51" font-family="Helvetica,sans-Serif" font-size="14.00"> p: (0.01, 0.61, 0.38) </text>
<text text-anchor="start" x="3679.09" y="-401.51" font-family="Helvetica,sans-Serif" font-size="14.00">&#45;&#45;&#45;&#45;&#45;&#45;&#45;&#45;&#45;&#45;&#45;&#45;</text>
<text text-anchor="start" x="3662.59" y="-387.51" font-family="Helvetica,sans-Serif" font-weight="bold" font-size="14.00">attribute_29</text>
</g>
<!-- 16&#45;&gt;24 -->
<g id="edge18" class="edge">
<title>16:s&#45;&gt;24:n</title>
<path fill="none" stroke="black" d="M3711.09,-508.71C3711.09,-508.71 3711.09,-482.93 3711.09,-468.03"/>
<polygon fill="black" stroke="black" points="3714.59,-467.71 3711.09,-457.71 3707.59,-467.71 3714.59,-467.71"/>
<text text-anchor="middle" x="3716.09" y="-479.51" font-family="Helvetica,sans-Serif" font-size="14.00">C</text>
</g>
<!-- 27 -->
<g id="node20" class="node">
<title>27</title>
<polygon fill="#8dcc3d" stroke="black" points="4037.59,-457.71 3870.59,-457.71 3870.59,-379.71 4037.59,-379.71 4037.59,-457.71"/>
<text text-anchor="start" x="3912.59" y="-443.51" font-family="Helvetica,sans-Serif" font-weight="bold" font-size="14.00"> Class=IE </text>
<text text-anchor="start" x="3990.59" y="-443.51" font-family="Helvetica,sans-Serif" font-size="14.00"> </text>
<text text-anchor="start" x="3880.09" y="-429.51" font-family="Helvetica,sans-Serif" font-size="14.00"> error: 0.635, n=295 </text>
<text text-anchor="start" x="3878.59" y="-415.51" font-family="Helvetica,sans-Serif" font-size="14.00"> p: (0.00, 0.59, 0.41) </text>
<text text-anchor="start" x="3922.09" y="-401.51" font-family="Helvetica,sans-Serif" font-size="14.00">&#45;&#45;&#45;&#45;&#45;&#45;&#45;&#45;&#45;&#45;&#45;&#45;</text>
<text text-anchor="start" x="3905.59" y="-387.51" font-family="Helvetica,sans-Serif" font-weight="bold" font-size="14.00">attribute_29</text>
</g>
<!-- 16&#45;&gt;27 -->
<g id="edge19" class="edge">
<title>16:s&#45;&gt;27:n</title>
<path fill="none" stroke="black" d="M3711.09,-508.71C3711.09,-508.71 3898.8,-469.31 3944.26,-459.77"/>
<polygon fill="black" stroke="black" points="3945.02,-463.19 3954.09,-457.71 3943.58,-456.34 3945.02,-463.19"/>
<text text-anchor="middle" x="3867.59" y="-479.51" font-family="Helvetica,sans-Serif" font-size="14.00">G</text>
</g>
<!-- 30 -->
<g id="node21" class="node">
<title>30</title>
<polygon fill="#8dcc3d" stroke="black" points="4330.59,-457.71 4163.59,-457.71 4163.59,-379.71 4330.59,-379.71 4330.59,-457.71"/>
<text text-anchor="start" x="4205.59" y="-443.51" font-family="Helvetica,sans-Serif" font-weight="bold" font-size="14.00"> Class=IE </text>
<text text-anchor="start" x="4283.59" y="-443.51" font-family="Helvetica,sans-Serif" font-size="14.00"> </text>
<text text-anchor="start" x="4173.09" y="-429.51" font-family="Helvetica,sans-Serif" font-size="14.00"> error: 0.632, n=303 </text>
<text text-anchor="start" x="4171.59" y="-415.51" font-family="Helvetica,sans-Serif" font-size="14.00"> p: (0.00, 0.59, 0.40) </text>
<text text-anchor="start" x="4215.09" y="-401.51" font-family="Helvetica,sans-Serif" font-size="14.00">&#45;&#45;&#45;&#45;&#45;&#45;&#45;&#45;&#45;&#45;&#45;&#45;</text>
<text text-anchor="start" x="4198.59" y="-387.51" font-family="Helvetica,sans-Serif" font-weight="bold" font-size="14.00">attribute_29</text>
</g>
<!-- 16&#45;&gt;30 -->
<g id="edge20" class="edge">
<title>16:s&#45;&gt;30:n</title>
<path fill="none" stroke="black" d="M3711.09,-508.71C3711.09,-508.71 4162.76,-465.73 4236.86,-458.68"/>
<polygon fill="black" stroke="black" points="4237.46,-462.14 4247.09,-457.71 4236.8,-455.17 4237.46,-462.14"/>
<text text-anchor="middle" x="4048.09" y="-479.51" font-family="Helvetica,sans-Serif" font-size="14.00">A</text>
</g>
<!-- 18 -->
<g id="node22" class="node">
<title>18</title>
<polygon fill="#44e55e" stroke="black" points="3527.59,-328.71 3360.59,-328.71 3360.59,-250.71 3527.59,-250.71 3527.59,-328.71"/>
<text text-anchor="start" x="3402.59" y="-314.51" font-family="Helvetica,sans-Serif" font-weight="bold" font-size="14.00"> Class=EI </text>
<text text-anchor="start" x="3480.59" y="-314.51" font-family="Helvetica,sans-Serif" font-size="14.00"> </text>
<text text-anchor="start" x="3370.09" y="-300.51" font-family="Helvetica,sans-Serif" font-size="14.00"> error: 0.503, n=752 </text>
<text text-anchor="start" x="3368.59" y="-286.51" font-family="Helvetica,sans-Serif" font-size="14.00"> p: (0.82, 0.14, 0.03) </text>
<text text-anchor="start" x="3412.09" y="-272.51" font-family="Helvetica,sans-Serif" font-size="14.00">&#45;&#45;&#45;&#45;&#45;&#45;&#45;&#45;&#45;&#45;&#45;&#45;</text>
<text text-anchor="start" x="3395.59" y="-258.51" font-family="Helvetica,sans-Serif" font-weight="bold" font-size="14.00">attribute_35</text>
</g>
<!-- 17&#45;&gt;18 -->
<g id="edge21" class="edge">
<title>17:s&#45;&gt;18:n</title>
<path fill="none" stroke="black" d="M3472.09,-379.71C3472.09,-379.71 3456.99,-352.21 3448.96,-337.59"/>
<polygon fill="black" stroke="black" points="3451.97,-335.79 3444.09,-328.71 3445.83,-339.16 3451.97,-335.79"/>
<text text-anchor="middle" x="3467.59" y="-350.51" font-family="Helvetica,sans-Serif" font-size="14.00">G</text>
</g>
<!-- 25 -->
<g id="node28" class="node">
<title>25</title>
<polygon fill="#44e55e" stroke="black" points="3775.59,-328.71 3608.59,-328.71 3608.59,-250.71 3775.59,-250.71 3775.59,-328.71"/>
<text text-anchor="start" x="3650.59" y="-314.51" font-family="Helvetica,sans-Serif" font-weight="bold" font-size="14.00"> Class=IE </text>
<text text-anchor="start" x="3728.59" y="-314.51" font-family="Helvetica,sans-Serif" font-size="14.00"> </text>
<text text-anchor="start" x="3618.09" y="-300.51" font-family="Helvetica,sans-Serif" font-size="14.00"> error: 0.459, n=196 </text>
<text text-anchor="start" x="3616.59" y="-286.51" font-family="Helvetica,sans-Serif" font-size="14.00"> p: (0.02, 0.83, 0.15) </text>
<text text-anchor="start" x="3660.09" y="-272.51" font-family="Helvetica,sans-Serif" font-size="14.00">&#45;&#45;&#45;&#45;&#45;&#45;&#45;&#45;&#45;&#45;&#45;&#45;</text>
<text text-anchor="start" x="3643.59" y="-258.51" font-family="Helvetica,sans-Serif" font-weight="bold" font-size="14.00">attribute_28</text>
</g>
<!-- 24&#45;&gt;25 -->
<g id="edge27" class="edge">
<title>24:s&#45;&gt;25:n</title>
<path fill="none" stroke="black" d="M3711.09,-379.71C3711.09,-379.71 3701.27,-353.36 3695.75,-338.54"/>
<polygon fill="black" stroke="black" points="3698.86,-336.86 3692.09,-328.71 3692.3,-339.3 3698.86,-336.86"/>
<text text-anchor="middle" x="3709.09" y="-350.51" font-family="Helvetica,sans-Serif" font-size="14.00">A</text>
</g>
<!-- 28 -->
<g id="node30" class="node">
<title>28</title>
<polygon fill="#44e55e" stroke="black" points="4073.59,-328.71 3906.59,-328.71 3906.59,-250.71 4073.59,-250.71 4073.59,-328.71"/>
<text text-anchor="start" x="3948.59" y="-314.51" font-family="Helvetica,sans-Serif" font-weight="bold" font-size="14.00"> Class=IE </text>
<text text-anchor="start" x="4026.59" y="-314.51" font-family="Helvetica,sans-Serif" font-size="14.00"> </text>
<text text-anchor="start" x="3916.09" y="-300.51" font-family="Helvetica,sans-Serif" font-size="14.00"> error: 0.395, n=204 </text>
<text text-anchor="start" x="3914.59" y="-286.51" font-family="Helvetica,sans-Serif" font-size="14.00"> p: (0.00, 0.84, 0.16) </text>
<text text-anchor="start" x="3958.09" y="-272.51" font-family="Helvetica,sans-Serif" font-size="14.00">&#45;&#45;&#45;&#45;&#45;&#45;&#45;&#45;&#45;&#45;&#45;&#45;</text>
<text text-anchor="start" x="3941.59" y="-258.51" font-family="Helvetica,sans-Serif" font-weight="bold" font-size="14.00">attribute_28</text>
</g>
<!-- 27&#45;&gt;28 -->
<g id="edge29" class="edge">
<title>27:s&#45;&gt;28:n</title>
<path fill="none" stroke="black" d="M3954.09,-379.71C3954.09,-379.71 3973.92,-351.62 3984.14,-337.13"/>
<polygon fill="black" stroke="black" points="3987.18,-338.9 3990.09,-328.71 3981.46,-334.86 3987.18,-338.9"/>
<text text-anchor="middle" x="3982.09" y="-350.51" font-family="Helvetica,sans-Serif" font-size="14.00">A</text>
</g>
<!-- 31 -->
<g id="node32" class="node">
<title>31</title>
<polygon fill="#44e55e" stroke="black" points="4356.59,-328.71 4189.59,-328.71 4189.59,-250.71 4356.59,-250.71 4356.59,-328.71"/>
<text text-anchor="start" x="4231.59" y="-314.51" font-family="Helvetica,sans-Serif" font-weight="bold" font-size="14.00"> Class=IE </text>
<text text-anchor="start" x="4309.59" y="-314.51" font-family="Helvetica,sans-Serif" font-size="14.00"> </text>
<text text-anchor="start" x="4199.09" y="-300.51" font-family="Helvetica,sans-Serif" font-size="14.00"> error: 0.451, n=224 </text>
<text text-anchor="start" x="4197.59" y="-286.51" font-family="Helvetica,sans-Serif" font-size="14.00"> p: (0.00, 0.80, 0.20) </text>
<text text-anchor="start" x="4241.09" y="-272.51" font-family="Helvetica,sans-Serif" font-size="14.00">&#45;&#45;&#45;&#45;&#45;&#45;&#45;&#45;&#45;&#45;&#45;&#45;</text>
<text text-anchor="start" x="4224.59" y="-258.51" font-family="Helvetica,sans-Serif" font-weight="bold" font-size="14.00">attribute_28</text>
</g>
<!-- 30&#45;&gt;31 -->
<g id="edge31" class="edge">
<title>30:s&#45;&gt;31:n</title>
<path fill="none" stroke="black" d="M4247.09,-379.71C4247.09,-379.71 4260.81,-352.79 4268.32,-338.06"/>
<polygon fill="black" stroke="black" points="4271.66,-339.21 4273.09,-328.71 4265.43,-336.03 4271.66,-339.21"/>
<text text-anchor="middle" x="4269.09" y="-350.51" font-family="Helvetica,sans-Serif" font-size="14.00">A</text>
</g>
<!-- 19 -->
<g id="node23" class="node">
<title>19</title>
<polygon fill="#3dccba" stroke="black" points="3492.59,-199.71 3325.59,-199.71 3325.59,-121.71 3492.59,-121.71 3492.59,-199.71"/>
<text text-anchor="start" x="3367.59" y="-185.51" font-family="Helvetica,sans-Serif" font-weight="bold" font-size="14.00"> Class=EI </text>
<text text-anchor="start" x="3445.59" y="-185.51" font-family="Helvetica,sans-Serif" font-size="14.00"> </text>
<text text-anchor="start" x="3335.09" y="-171.51" font-family="Helvetica,sans-Serif" font-size="14.00"> error: 0.177, n=539 </text>
<text text-anchor="start" x="3333.59" y="-157.51" font-family="Helvetica,sans-Serif" font-size="14.00"> p: (0.96, 0.04, 0.00) </text>
<text text-anchor="start" x="3377.09" y="-143.51" font-family="Helvetica,sans-Serif" font-size="14.00">&#45;&#45;&#45;&#45;&#45;&#45;&#45;&#45;&#45;&#45;&#45;&#45;</text>
<text text-anchor="start" x="3360.59" y="-129.51" font-family="Helvetica,sans-Serif" font-weight="bold" font-size="14.00">attribute_25</text>
</g>
<!-- 18&#45;&gt;19 -->
<g id="edge22" class="edge">
<title>18:s&#45;&gt;19:n</title>
<path fill="none" stroke="black" d="M3444.09,-250.71C3444.09,-250.71 3424.81,-222.62 3414.87,-208.13"/>
<polygon fill="black" stroke="black" points="3417.63,-205.98 3409.09,-199.71 3411.86,-209.94 3417.63,-205.98"/>
<text text-anchor="middle" x="3436.59" y="-221.51" font-family="Helvetica,sans-Serif" font-size="14.00">G</text>
</g>
<!-- 20 -->
<g id="node24" class="node">
<title>20</title>
<ellipse fill="#4485e5" stroke="black" cx="2947.09" cy="-35.36" rx="118.17" ry="35.21"/>
<text text-anchor="start" x="2905.59" y="-46.16" font-family="Helvetica,sans-Serif" font-weight="bold" font-size="14.00"> Class=EI </text>
<text text-anchor="start" x="2983.59" y="-46.16" font-family="Helvetica,sans-Serif" font-size="14.00"> </text>
<text text-anchor="start" x="2873.09" y="-32.16" font-family="Helvetica,sans-Serif" font-size="14.00"> error: 0.000, n=134 </text>
<text text-anchor="start" x="2871.59" y="-18.16" font-family="Helvetica,sans-Serif" font-size="14.00"> p: (1.00, 0.00, 0.00) </text>
</g>
<!-- 19&#45;&gt;20 -->
<g id="edge23" class="edge">
<title>19:s&#45;&gt;20:n</title>
<path fill="none" stroke="black" d="M3409.09,-121.71C3409.09,-121.71 3024.73,-79.28 2957.17,-71.82"/>
<polygon fill="black" stroke="black" points="2957.41,-68.33 2947.09,-70.71 2956.64,-75.29 2957.41,-68.33"/>
<text text-anchor="middle" x="3238.59" y="-92.51" font-family="Helvetica,sans-Serif" font-size="14.00">G</text>
</g>
<!-- 21 -->
<g id="node25" class="node">
<title>21</title>
<ellipse fill="#4485e5" stroke="black" cx="3255.09" cy="-35.36" rx="118.17" ry="35.21"/>
<text text-anchor="start" x="3213.59" y="-46.16" font-family="Helvetica,sans-Serif" font-weight="bold" font-size="14.00"> Class=EI </text>
<text text-anchor="start" x="3291.59" y="-46.16" font-family="Helvetica,sans-Serif" font-size="14.00"> </text>
<text text-anchor="start" x="3181.09" y="-32.16" font-family="Helvetica,sans-Serif" font-size="14.00"> error: 0.284, n=143 </text>
<text text-anchor="start" x="3179.59" y="-18.16" font-family="Helvetica,sans-Serif" font-size="14.00"> p: (0.92, 0.08, 0.01) </text>
</g>
<!-- 19&#45;&gt;21 -->
<g id="edge24" class="edge">
<title>19:s&#45;&gt;21:n</title>
<path fill="none" stroke="black" d="M3409.09,-121.71C3409.09,-121.71 3298.43,-85.07 3264.72,-73.9"/>
<polygon fill="black" stroke="black" points="3265.68,-70.53 3255.09,-70.71 3263.48,-77.18 3265.68,-70.53"/>
<text text-anchor="middle" x="3355.59" y="-92.51" font-family="Helvetica,sans-Serif" font-size="14.00">T</text>
</g>
<!-- 22 -->
<g id="node26" class="node">
<title>22</title>
<ellipse fill="#4485e5" stroke="black" cx="3563.09" cy="-35.36" rx="118.17" ry="35.21"/>
<text text-anchor="start" x="3521.59" y="-46.16" font-family="Helvetica,sans-Serif" font-weight="bold" font-size="14.00"> Class=EI </text>
<text text-anchor="start" x="3599.59" y="-46.16" font-family="Helvetica,sans-Serif" font-size="14.00"> </text>
<text text-anchor="start" x="3489.09" y="-32.16" font-family="Helvetica,sans-Serif" font-size="14.00"> error: 0.309, n=127 </text>
<text text-anchor="start" x="3487.59" y="-18.16" font-family="Helvetica,sans-Serif" font-size="14.00"> p: (0.91, 0.09, 0.01) </text>
</g>
<!-- 19&#45;&gt;22 -->
<g id="edge25" class="edge">
<title>19:s&#45;&gt;22:n</title>
<path fill="none" stroke="black" d="M3409.09,-121.71C3409.09,-121.71 3519.74,-85.07 3553.45,-73.9"/>
<polygon fill="black" stroke="black" points="3554.69,-77.18 3563.09,-70.71 3552.49,-70.53 3554.69,-77.18"/>
<text text-anchor="middle" x="3510.09" y="-92.51" font-family="Helvetica,sans-Serif" font-size="14.00">C</text>
</g>
<!-- 23 -->
<g id="node27" class="node">
<title>23</title>
<ellipse fill="#4485e5" stroke="black" cx="3871.09" cy="-35.36" rx="118.17" ry="35.21"/>
<text text-anchor="start" x="3829.59" y="-46.16" font-family="Helvetica,sans-Serif" font-weight="bold" font-size="14.00"> Class=EI </text>
<text text-anchor="start" x="3907.59" y="-46.16" font-family="Helvetica,sans-Serif" font-size="14.00"> </text>
<text text-anchor="start" x="3797.09" y="-32.16" font-family="Helvetica,sans-Serif" font-size="14.00"> error: 0.000, n=135 </text>
<text text-anchor="start" x="3795.59" y="-18.16" font-family="Helvetica,sans-Serif" font-size="14.00"> p: (1.00, 0.00, 0.00) </text>
</g>
<!-- 19&#45;&gt;23 -->
<g id="edge26" class="edge">
<title>19:s&#45;&gt;23:n</title>
<path fill="none" stroke="black" d="M3409.09,-121.71C3409.09,-121.71 3793.44,-79.28 3861.01,-71.82"/>
<polygon fill="black" stroke="black" points="3861.53,-75.29 3871.09,-70.71 3860.76,-68.33 3861.53,-75.29"/>
<text text-anchor="middle" x="3700.09" y="-92.51" font-family="Helvetica,sans-Serif" font-size="14.00">A</text>
</g>
<!-- 26 -->
<g id="node29" class="node">
<title>26</title>
<ellipse fill="#3dccba" stroke="black" cx="3683.09" cy="-160.71" rx="118.17" ry="35.21"/>
<text text-anchor="start" x="3641.59" y="-171.51" font-family="Helvetica,sans-Serif" font-weight="bold" font-size="14.00"> Class=IE </text>
<text text-anchor="start" x="3719.59" y="-171.51" font-family="Helvetica,sans-Serif" font-size="14.00"> </text>
<text text-anchor="start" x="3609.09" y="-157.51" font-family="Helvetica,sans-Serif" font-size="14.00"> error: 0.310, n=145 </text>
<text text-anchor="start" x="3607.59" y="-143.51" font-family="Helvetica,sans-Serif" font-size="14.00"> p: (0.01, 0.91, 0.08) </text>
</g>
<!-- 25&#45;&gt;26 -->
<g id="edge28" class="edge">
<title>25:s&#45;&gt;26:n</title>
<path fill="none" stroke="black" d="M3692.09,-250.71C3692.09,-250.71 3687.44,-223.33 3684.82,-207.93"/>
<polygon fill="black" stroke="black" points="3688.21,-206.98 3683.09,-197.71 3681.31,-208.16 3688.21,-206.98"/>
<text text-anchor="middle" x="3694.09" y="-221.51" font-family="Helvetica,sans-Serif" font-size="14.00">C</text>
</g>
<!-- 29 -->
<g id="node31" class="node">
<title>29</title>
<ellipse fill="#3dccba" stroke="black" cx="3991.09" cy="-160.71" rx="118.17" ry="35.21"/>
<text text-anchor="start" x="3949.59" y="-171.51" font-family="Helvetica,sans-Serif" font-weight="bold" font-size="14.00"> Class=IE </text>
<text text-anchor="start" x="4027.59" y="-171.51" font-family="Helvetica,sans-Serif" font-size="14.00"> </text>
<text text-anchor="start" x="3917.09" y="-157.51" font-family="Helvetica,sans-Serif" font-size="14.00"> error: 0.219, n=154 </text>
<text text-anchor="start" x="3915.59" y="-143.51" font-family="Helvetica,sans-Serif" font-size="14.00"> p: (0.00, 0.94, 0.06) </text>
</g>
<!-- 28&#45;&gt;29 -->
<g id="edge30" class="edge">
<title>28:s&#45;&gt;29:n</title>
<path fill="none" stroke="black" d="M3990.09,-250.71C3990.09,-250.71 3990.6,-223.33 3990.89,-207.93"/>
<polygon fill="black" stroke="black" points="3994.4,-207.77 3991.09,-197.71 3987.4,-207.64 3994.4,-207.77"/>
<text text-anchor="middle" x="3996.09" y="-221.51" font-family="Helvetica,sans-Serif" font-size="14.00">C</text>
</g>
<!-- 32 -->
<g id="node33" class="node">
<title>32</title>
<ellipse fill="#3dccba" stroke="black" cx="4299.09" cy="-160.71" rx="118.17" ry="35.21"/>
<text text-anchor="start" x="4257.59" y="-171.51" font-family="Helvetica,sans-Serif" font-weight="bold" font-size="14.00"> Class=IE </text>
<text text-anchor="start" x="4335.59" y="-171.51" font-family="Helvetica,sans-Serif" font-size="14.00"> </text>
<text text-anchor="start" x="4225.09" y="-157.51" font-family="Helvetica,sans-Serif" font-size="14.00"> error: 0.251, n=140 </text>
<text text-anchor="start" x="4223.59" y="-143.51" font-family="Helvetica,sans-Serif" font-size="14.00"> p: (0.00, 0.92, 0.08) </text>
</g>
<!-- 31&#45;&gt;32 -->
<g id="edge32" class="edge">
<title>31:s&#45;&gt;32:n</title>
<path fill="none" stroke="black" d="M4273.09,-250.71C4273.09,-250.71 4287.11,-222.13 4294.56,-206.94"/>
<polygon fill="black" stroke="black" points="4297.82,-208.23 4299.09,-197.71 4291.54,-205.15 4297.82,-208.23"/>
<text text-anchor="middle" x="4295.09" y="-221.51" font-family="Helvetica,sans-Serif" font-size="14.00">C</text>
</g>
</g>
</svg>
