<?xml version="1.0" encoding="UTF-8" standalone="no"?>
<!DOCTYPE svg PUBLIC "-//W3C//DTD SVG 1.1//EN"
 "http://www.w3.org/Graphics/SVG/1.1/DTD/svg11.dtd">
<!-- Generated by graphviz version 2.43.0 (0)
 -->
<!-- Title: Tree Pages: 1 -->
<svg width="1761pt" height="1083pt"
 viewBox="0.00 0.00 1760.74 1082.71" xmlns="http://www.w3.org/2000/svg" xmlns:xlink="http://www.w3.org/1999/xlink">
<g id="graph0" class="graph" transform="scale(1 1) rotate(0) translate(18 1064.71)">
<title>Tree</title>
<polygon fill="white" stroke="transparent" points="-18,18 -18,-1064.71 1742.74,-1064.71 1742.74,18 -18,18"/>
<!-- 0 -->
<g id="node1" class="node">
<title>0</title>
<polygon fill="white" stroke="transparent" points="782.37,-1046.71 728.37,-1046.71 728.37,-1010.71 782.37,-1010.71 782.37,-1046.71"/>
<text text-anchor="middle" x="755.37" y="-1025.01" font-family="Helvetica,sans-Serif" font-size="14.00">0</text>
</g>
<!-- 1 -->
<g id="node2" class="node">
<title>1</title>
<polygon fill="#cc3d3d" stroke="black" points="858.87,-973.71 651.87,-973.71 651.87,-895.71 858.87,-895.71 858.87,-973.71"/>
<text text-anchor="start" x="716.37" y="-959.51" font-family="Helvetica,sans-Serif" font-weight="bold" font-size="14.00"> Class=1 </text>
<text text-anchor="start" x="789.37" y="-959.51" font-family="Helvetica,sans-Serif" font-size="14.00"> </text>
<text text-anchor="start" x="676.87" y="-945.51" font-family="Helvetica,sans-Serif" font-size="14.00"> error: 0.857, n=5456 </text>
<text text-anchor="start" x="659.87" y="-931.51" font-family="Helvetica,sans-Serif" font-size="14.00"> p: (0.40, 0.38, 0.06, 0.15) </text>
<text text-anchor="start" x="747.37" y="-917.51" font-family="Helvetica,sans-Serif" font-size="14.00">&#45;&#45;&#45;</text>
<text text-anchor="start" x="739.87" y="-903.51" font-family="Helvetica,sans-Serif" font-weight="bold" font-size="14.00">V15</text>
</g>
<!-- 0&#45;&gt;1 -->
<!-- 2 -->
<g id="node3" class="node">
<title>2</title>
<polygon fill="#e59744" stroke="black" points="697.87,-844.71 490.87,-844.71 490.87,-766.71 697.87,-766.71 697.87,-844.71"/>
<text text-anchor="start" x="555.37" y="-830.51" font-family="Helvetica,sans-Serif" font-weight="bold" font-size="14.00"> Class=1 </text>
<text text-anchor="start" x="628.37" y="-830.51" font-family="Helvetica,sans-Serif" font-size="14.00"> </text>
<text text-anchor="start" x="515.87" y="-816.51" font-family="Helvetica,sans-Serif" font-size="14.00"> error: 0.808, n=3830 </text>
<text text-anchor="start" x="498.87" y="-802.51" font-family="Helvetica,sans-Serif" font-size="14.00"> p: (0.57, 0.13, 0.09, 0.22) </text>
<text text-anchor="start" x="586.37" y="-788.51" font-family="Helvetica,sans-Serif" font-size="14.00">&#45;&#45;&#45;</text>
<text text-anchor="start" x="578.87" y="-774.51" font-family="Helvetica,sans-Serif" font-weight="bold" font-size="14.00">V19</text>
</g>
<!-- 1&#45;&gt;2 -->
<g id="edge2" class="edge">
<title>1:s&#45;&gt;2:n</title>
<path fill="none" stroke="black" d="M755.37,-895.71C755.37,-895.71 638.62,-858.73 603.96,-847.75"/>
<polygon fill="black" stroke="black" points="604.96,-844.39 594.37,-844.71 602.85,-851.07 604.96,-844.39"/>
<text text-anchor="middle" x="723.37" y="-866.51" font-family="Helvetica,sans-Serif" font-size="14.00">&gt; 0.904</text>
</g>
<!-- 24 -->
<g id="node4" class="node">
<title>24</title>
<ellipse fill="#e59744" stroke="black" cx="916.37" cy="-805.71" rx="146.24" ry="35.21"/>
<text text-anchor="start" x="877.37" y="-816.51" font-family="Helvetica,sans-Serif" font-weight="bold" font-size="14.00"> Class=2 </text>
<text text-anchor="start" x="950.37" y="-816.51" font-family="Helvetica,sans-Serif" font-size="14.00"> </text>
<text text-anchor="start" x="837.87" y="-802.51" font-family="Helvetica,sans-Serif" font-size="14.00"> error: 0.027, n=1626 </text>
<text text-anchor="start" x="820.87" y="-788.51" font-family="Helvetica,sans-Serif" font-size="14.00"> p: (0.00, 0.99, 0.00, 0.00) </text>
</g>
<!-- 1&#45;&gt;24 -->
<g id="edge3" class="edge">
<title>1:s&#45;&gt;24:n</title>
<path fill="none" stroke="black" d="M755.37,-895.71C755.37,-895.71 872.12,-857.28 906.78,-845.87"/>
<polygon fill="black" stroke="black" points="907.97,-849.16 916.37,-842.71 905.78,-842.51 907.97,-849.16"/>
<text text-anchor="middle" x="890.37" y="-866.51" font-family="Helvetica,sans-Serif" font-size="14.00">&lt;= 0.904</text>
</g>
<!-- 3 -->
<g id="node5" class="node">
<title>3</title>
<polygon fill="#c8cc3d" stroke="black" points="558.87,-715.71 351.87,-715.71 351.87,-637.71 558.87,-637.71 558.87,-715.71"/>
<text text-anchor="start" x="416.37" y="-701.51" font-family="Helvetica,sans-Serif" font-weight="bold" font-size="14.00"> Class=4 </text>
<text text-anchor="start" x="489.37" y="-701.51" font-family="Helvetica,sans-Serif" font-size="14.00"> </text>
<text text-anchor="start" x="381.37" y="-687.51" font-family="Helvetica,sans-Serif" font-size="14.00"> error: 0.381, n=833 </text>
<text text-anchor="start" x="359.87" y="-673.51" font-family="Helvetica,sans-Serif" font-size="14.00"> p: (0.03, 0.14, 0.00, 0.83) </text>
<text text-anchor="start" x="447.37" y="-659.51" font-family="Helvetica,sans-Serif" font-size="14.00">&#45;&#45;&#45;</text>
<text text-anchor="start" x="439.87" y="-645.51" font-family="Helvetica,sans-Serif" font-weight="bold" font-size="14.00">V13</text>
</g>
<!-- 2&#45;&gt;3 -->
<g id="edge4" class="edge">
<title>2:s&#45;&gt;3:n</title>
<path fill="none" stroke="black" d="M594.37,-766.71C594.37,-766.71 496.33,-730.74 464.93,-719.22"/>
<polygon fill="black" stroke="black" points="465.96,-715.87 455.37,-715.71 463.55,-722.44 465.96,-715.87"/>
<text text-anchor="middle" x="576.37" y="-737.51" font-family="Helvetica,sans-Serif" font-size="14.00">&lt;= 0.504</text>
</g>
<!-- 10 -->
<g id="node6" class="node">
<title>10</title>
<polygon fill="#c8cc3d" stroke="black" points="848.87,-715.71 641.87,-715.71 641.87,-637.71 848.87,-637.71 848.87,-715.71"/>
<text text-anchor="start" x="706.37" y="-701.51" font-family="Helvetica,sans-Serif" font-weight="bold" font-size="14.00"> Class=1 </text>
<text text-anchor="start" x="779.37" y="-701.51" font-family="Helvetica,sans-Serif" font-size="14.00"> </text>
<text text-anchor="start" x="666.87" y="-687.51" font-family="Helvetica,sans-Serif" font-size="14.00"> error: 0.625, n=2997 </text>
<text text-anchor="start" x="649.87" y="-673.51" font-family="Helvetica,sans-Serif" font-size="14.00"> p: (0.73, 0.12, 0.11, 0.04) </text>
<text text-anchor="start" x="737.37" y="-659.51" font-family="Helvetica,sans-Serif" font-size="14.00">&#45;&#45;&#45;</text>
<text text-anchor="start" x="729.87" y="-645.51" font-family="Helvetica,sans-Serif" font-weight="bold" font-size="14.00">V12</text>
</g>
<!-- 2&#45;&gt;10 -->
<g id="edge5" class="edge">
<title>2:s&#45;&gt;10:n</title>
<path fill="none" stroke="black" d="M594.37,-766.71C594.37,-766.71 701.87,-730.4 735.46,-719.06"/>
<polygon fill="black" stroke="black" points="737.02,-722.23 745.37,-715.71 734.78,-715.59 737.02,-722.23"/>
<text text-anchor="middle" x="717.37" y="-737.51" font-family="Helvetica,sans-Serif" font-size="14.00">&gt; 0.504</text>
</g>
<!-- 4 -->
<g id="node7" class="node">
<title>4</title>
<polygon fill="#8ee544" stroke="black" points="526.87,-586.71 319.87,-586.71 319.87,-508.71 526.87,-508.71 526.87,-586.71"/>
<text text-anchor="start" x="384.37" y="-572.51" font-family="Helvetica,sans-Serif" font-weight="bold" font-size="14.00"> Class=4 </text>
<text text-anchor="start" x="457.37" y="-572.51" font-family="Helvetica,sans-Serif" font-size="14.00"> </text>
<text text-anchor="start" x="349.37" y="-558.51" font-family="Helvetica,sans-Serif" font-size="14.00"> error: 0.190, n=735 </text>
<text text-anchor="start" x="327.87" y="-544.51" font-family="Helvetica,sans-Serif" font-size="14.00"> p: (0.03, 0.03, 0.00, 0.94) </text>
<text text-anchor="start" x="415.37" y="-530.51" font-family="Helvetica,sans-Serif" font-size="14.00">&#45;&#45;&#45;</text>
<text text-anchor="start" x="407.87" y="-516.51" font-family="Helvetica,sans-Serif" font-weight="bold" font-size="14.00">V14</text>
</g>
<!-- 3&#45;&gt;4 -->
<g id="edge6" class="edge">
<title>3:s&#45;&gt;4:n</title>
<path fill="none" stroke="black" d="M455.37,-637.71C455.37,-637.71 438.11,-610.21 428.95,-595.59"/>
<polygon fill="black" stroke="black" points="431.65,-593.32 423.37,-586.71 425.72,-597.04 431.65,-593.32"/>
<text text-anchor="middle" x="463.37" y="-608.51" font-family="Helvetica,sans-Serif" font-size="14.00">&gt; 0.9</text>
</g>
<!-- 11 -->
<g id="node13" class="node">
<title>11</title>
<ellipse fill="#8ee544" stroke="black" cx="745.37" cy="-547.71" rx="146.24" ry="35.21"/>
<text text-anchor="start" x="706.37" y="-558.51" font-family="Helvetica,sans-Serif" font-weight="bold" font-size="14.00"> Class=2 </text>
<text text-anchor="start" x="779.37" y="-558.51" font-family="Helvetica,sans-Serif" font-size="14.00"> </text>
<text text-anchor="start" x="671.37" y="-544.51" font-family="Helvetica,sans-Serif" font-size="14.00"> error: 0.029, n=298 </text>
<text text-anchor="start" x="649.87" y="-530.51" font-family="Helvetica,sans-Serif" font-size="14.00"> p: (0.01, 0.99, 0.00, 0.00) </text>
</g>
<!-- 10&#45;&gt;11 -->
<g id="edge12" class="edge">
<title>10:s&#45;&gt;11:n</title>
<path fill="none" stroke="black" d="M745.37,-637.71C745.37,-637.71 745.37,-610.33 745.37,-594.93"/>
<polygon fill="black" stroke="black" points="748.87,-594.71 745.37,-584.71 741.87,-594.71 748.87,-594.71"/>
<text text-anchor="middle" x="780.37" y="-608.51" font-family="Helvetica,sans-Serif" font-size="14.00">&lt;= 0.903</text>
</g>
<!-- 12 -->
<g id="node14" class="node">
<title>12</title>
<polygon fill="#8ee544" stroke="black" points="1170.87,-586.71 963.87,-586.71 963.87,-508.71 1170.87,-508.71 1170.87,-586.71"/>
<text text-anchor="start" x="1028.37" y="-572.51" font-family="Helvetica,sans-Serif" font-weight="bold" font-size="14.00"> Class=1 </text>
<text text-anchor="start" x="1101.37" y="-572.51" font-family="Helvetica,sans-Serif" font-size="14.00"> </text>
<text text-anchor="start" x="988.87" y="-558.51" font-family="Helvetica,sans-Serif" font-size="14.00"> error: 0.482, n=2699 </text>
<text text-anchor="start" x="971.87" y="-544.51" font-family="Helvetica,sans-Serif" font-size="14.00"> p: (0.81, 0.02, 0.12, 0.05) </text>
<text text-anchor="start" x="1059.37" y="-530.51" font-family="Helvetica,sans-Serif" font-size="14.00">&#45;&#45;&#45;</text>
<text text-anchor="start" x="1051.87" y="-516.51" font-family="Helvetica,sans-Serif" font-weight="bold" font-size="14.00">V20</text>
</g>
<!-- 10&#45;&gt;12 -->
<g id="edge13" class="edge">
<title>10:s&#45;&gt;12:n</title>
<path fill="none" stroke="black" d="M745.37,-637.71C745.37,-637.71 1003.03,-596.9 1057.38,-588.29"/>
<polygon fill="black" stroke="black" points="1058.04,-591.73 1067.37,-586.71 1056.95,-584.82 1058.04,-591.73"/>
<text text-anchor="middle" x="974.37" y="-608.51" font-family="Helvetica,sans-Serif" font-size="14.00">&gt; 0.903</text>
</g>
<!-- 5 -->
<g id="node8" class="node">
<title>5</title>
<polygon fill="#3dcc45" stroke="black" points="526.87,-457.71 319.87,-457.71 319.87,-379.71 526.87,-379.71 526.87,-457.71"/>
<text text-anchor="start" x="384.37" y="-443.51" font-family="Helvetica,sans-Serif" font-weight="bold" font-size="14.00"> Class=4 </text>
<text text-anchor="start" x="457.37" y="-443.51" font-family="Helvetica,sans-Serif" font-size="14.00"> </text>
<text text-anchor="start" x="349.37" y="-429.51" font-family="Helvetica,sans-Serif" font-size="14.00"> error: 0.147, n=720 </text>
<text text-anchor="start" x="327.87" y="-415.51" font-family="Helvetica,sans-Serif" font-size="14.00"> p: (0.03, 0.01, 0.00, 0.96) </text>
<text text-anchor="start" x="415.37" y="-401.51" font-family="Helvetica,sans-Serif" font-size="14.00">&#45;&#45;&#45;</text>
<text text-anchor="start" x="407.87" y="-387.51" font-family="Helvetica,sans-Serif" font-weight="bold" font-size="14.00">V11</text>
</g>
<!-- 4&#45;&gt;5 -->
<g id="edge7" class="edge">
<title>4:s&#45;&gt;5:n</title>
<path fill="none" stroke="black" d="M423.37,-508.71C423.37,-508.71 423.37,-482.93 423.37,-468.03"/>
<polygon fill="black" stroke="black" points="426.87,-467.71 423.37,-457.71 419.87,-467.71 426.87,-467.71"/>
<text text-anchor="middle" x="452.37" y="-479.51" font-family="Helvetica,sans-Serif" font-size="14.00">&gt; 1.277</text>
</g>
<!-- 6 -->
<g id="node9" class="node">
<title>6</title>
<polygon fill="#44e5a1" stroke="black" points="526.87,-328.71 319.87,-328.71 319.87,-250.71 526.87,-250.71 526.87,-328.71"/>
<text text-anchor="start" x="384.37" y="-314.51" font-family="Helvetica,sans-Serif" font-weight="bold" font-size="14.00"> Class=4 </text>
<text text-anchor="start" x="457.37" y="-314.51" font-family="Helvetica,sans-Serif" font-size="14.00"> </text>
<text text-anchor="start" x="349.37" y="-300.51" font-family="Helvetica,sans-Serif" font-size="14.00"> error: 0.100, n=704 </text>
<text text-anchor="start" x="327.87" y="-286.51" font-family="Helvetica,sans-Serif" font-size="14.00"> p: (0.03, 0.00, 0.00, 0.97) </text>
<text text-anchor="start" x="415.37" y="-272.51" font-family="Helvetica,sans-Serif" font-size="14.00">&#45;&#45;&#45;</text>
<text text-anchor="start" x="407.87" y="-258.51" font-family="Helvetica,sans-Serif" font-weight="bold" font-size="14.00">V18</text>
</g>
<!-- 5&#45;&gt;6 -->
<g id="edge8" class="edge">
<title>5:s&#45;&gt;6:n</title>
<path fill="none" stroke="black" d="M423.37,-379.71C423.37,-379.71 423.37,-353.93 423.37,-339.03"/>
<polygon fill="black" stroke="black" points="426.87,-338.71 423.37,-328.71 419.87,-338.71 426.87,-338.71"/>
<text text-anchor="middle" x="452.37" y="-350.51" font-family="Helvetica,sans-Serif" font-size="14.00">&gt; 1.484</text>
</g>
<!-- 7 -->
<g id="node10" class="node">
<title>7</title>
<ellipse fill="#3dc0cc" stroke="black" cx="146.37" cy="-160.71" rx="146.24" ry="35.21"/>
<text text-anchor="start" x="107.37" y="-171.51" font-family="Helvetica,sans-Serif" font-weight="bold" font-size="14.00"> Class=4 </text>
<text text-anchor="start" x="180.37" y="-171.51" font-family="Helvetica,sans-Serif" font-size="14.00"> </text>
<text text-anchor="start" x="72.37" y="-157.51" font-family="Helvetica,sans-Serif" font-size="14.00"> error: 0.000, n=469 </text>
<text text-anchor="start" x="50.87" y="-143.51" font-family="Helvetica,sans-Serif" font-size="14.00"> p: (0.00, 0.00, 0.00, 1.00) </text>
</g>
<!-- 6&#45;&gt;7 -->
<g id="edge9" class="edge">
<title>6:s&#45;&gt;7:n</title>
<path fill="none" stroke="black" d="M423.37,-250.71C423.37,-250.71 205.57,-209.04 156.23,-199.6"/>
<polygon fill="black" stroke="black" points="156.85,-196.15 146.37,-197.71 155.54,-203.03 156.85,-196.15"/>
<text text-anchor="middle" x="361.37" y="-221.51" font-family="Helvetica,sans-Serif" font-size="14.00">&lt;= 0.493</text>
</g>
<!-- 8 -->
<g id="node11" class="node">
<title>8</title>
<polygon fill="#3dc0cc" stroke="black" points="571.87,-199.71 364.87,-199.71 364.87,-121.71 571.87,-121.71 571.87,-199.71"/>
<text text-anchor="start" x="429.37" y="-185.51" font-family="Helvetica,sans-Serif" font-weight="bold" font-size="14.00"> Class=4 </text>
<text text-anchor="start" x="502.37" y="-185.51" font-family="Helvetica,sans-Serif" font-size="14.00"> </text>
<text text-anchor="start" x="394.37" y="-171.51" font-family="Helvetica,sans-Serif" font-size="14.00"> error: 0.224, n=235 </text>
<text text-anchor="start" x="372.87" y="-157.51" font-family="Helvetica,sans-Serif" font-size="14.00"> p: (0.09, 0.00, 0.00, 0.91) </text>
<text text-anchor="start" x="460.37" y="-143.51" font-family="Helvetica,sans-Serif" font-size="14.00">&#45;&#45;&#45;</text>
<text text-anchor="start" x="452.87" y="-129.51" font-family="Helvetica,sans-Serif" font-weight="bold" font-size="14.00">V19</text>
</g>
<!-- 6&#45;&gt;8 -->
<g id="edge10" class="edge">
<title>6:s&#45;&gt;8:n</title>
<path fill="none" stroke="black" d="M423.37,-250.71C423.37,-250.71 449.21,-221.42 461.73,-207.24"/>
<polygon fill="black" stroke="black" points="464.38,-209.52 468.37,-199.71 459.13,-204.89 464.38,-209.52"/>
<text text-anchor="middle" x="480.37" y="-221.51" font-family="Helvetica,sans-Serif" font-size="14.00">&gt; 0.493</text>
</g>
<!-- 9 -->
<g id="node12" class="node">
<title>9</title>
<ellipse fill="#4485e5" stroke="black" cx="468.37" cy="-35.36" rx="146.24" ry="35.21"/>
<text text-anchor="start" x="429.37" y="-46.16" font-family="Helvetica,sans-Serif" font-weight="bold" font-size="14.00"> Class=4 </text>
<text text-anchor="start" x="502.37" y="-46.16" font-family="Helvetica,sans-Serif" font-size="14.00"> </text>
<text text-anchor="start" x="394.37" y="-32.16" font-family="Helvetica,sans-Serif" font-size="14.00"> error: 0.057, n=195 </text>
<text text-anchor="start" x="372.87" y="-18.16" font-family="Helvetica,sans-Serif" font-size="14.00"> p: (0.02, 0.00, 0.00, 0.98) </text>
</g>
<!-- 8&#45;&gt;9 -->
<g id="edge11" class="edge">
<title>8:s&#45;&gt;9:n</title>
<path fill="none" stroke="black" d="M468.37,-121.71C468.37,-121.71 468.37,-95.93 468.37,-81.03"/>
<polygon fill="black" stroke="black" points="471.87,-80.71 468.37,-70.71 464.87,-80.71 471.87,-80.71"/>
<text text-anchor="middle" x="503.37" y="-92.51" font-family="Helvetica,sans-Serif" font-size="14.00">&lt;= 0.497</text>
</g>
<!-- 13 -->
<g id="node15" class="node">
<title>13</title>
<polygon fill="#3dcc45" stroke="black" points="1059.87,-457.71 852.87,-457.71 852.87,-379.71 1059.87,-379.71 1059.87,-457.71"/>
<text text-anchor="start" x="917.37" y="-443.51" font-family="Helvetica,sans-Serif" font-weight="bold" font-size="14.00"> Class=1 </text>
<text text-anchor="start" x="990.37" y="-443.51" font-family="Helvetica,sans-Serif" font-size="14.00"> </text>
<text text-anchor="start" x="877.87" y="-429.51" font-family="Helvetica,sans-Serif" font-size="14.00"> error: 0.286, n=1882 </text>
<text text-anchor="start" x="860.87" y="-415.51" font-family="Helvetica,sans-Serif" font-size="14.00"> p: (0.90, 0.03, 0.00, 0.07) </text>
<text text-anchor="start" x="948.37" y="-401.51" font-family="Helvetica,sans-Serif" font-size="14.00">&#45;&#45;&#45;</text>
<text text-anchor="start" x="940.87" y="-387.51" font-family="Helvetica,sans-Serif" font-weight="bold" font-size="14.00">V20</text>
</g>
<!-- 12&#45;&gt;13 -->
<g id="edge14" class="edge">
<title>12:s&#45;&gt;13:n</title>
<path fill="none" stroke="black" d="M1067.37,-508.71C1067.37,-508.71 992.68,-474.39 965.83,-462.06"/>
<polygon fill="black" stroke="black" points="966.92,-458.71 956.37,-457.71 964,-465.07 966.92,-458.71"/>
<text text-anchor="middle" x="1017.37" y="-479.51" font-family="Helvetica,sans-Serif" font-size="14.00">&lt;= 0.9</text>
</g>
<!-- 19 -->
<g id="node16" class="node">
<title>19</title>
<polygon fill="#3dcc45" stroke="black" points="1359.87,-457.71 1152.87,-457.71 1152.87,-379.71 1359.87,-379.71 1359.87,-457.71"/>
<text text-anchor="start" x="1217.37" y="-443.51" font-family="Helvetica,sans-Serif" font-weight="bold" font-size="14.00"> Class=1 </text>
<text text-anchor="start" x="1290.37" y="-443.51" font-family="Helvetica,sans-Serif" font-size="14.00"> </text>
<text text-anchor="start" x="1182.37" y="-429.51" font-family="Helvetica,sans-Serif" font-size="14.00"> error: 0.502, n=817 </text>
<text text-anchor="start" x="1160.87" y="-415.51" font-family="Helvetica,sans-Serif" font-size="14.00"> p: (0.59, 0.00, 0.40, 0.00) </text>
<text text-anchor="start" x="1248.37" y="-401.51" font-family="Helvetica,sans-Serif" font-size="14.00">&#45;&#45;&#45;</text>
<text text-anchor="start" x="1240.87" y="-387.51" font-family="Helvetica,sans-Serif" font-weight="bold" font-size="14.00">V24</text>
</g>
<!-- 12&#45;&gt;19 -->
<g id="edge15" class="edge">
<title>12:s&#45;&gt;19:n</title>
<path fill="none" stroke="black" d="M1067.37,-508.71C1067.37,-508.71 1207.59,-470.87 1246.48,-460.38"/>
<polygon fill="black" stroke="black" points="1247.63,-463.7 1256.37,-457.71 1245.8,-456.94 1247.63,-463.7"/>
<text text-anchor="middle" x="1204.37" y="-479.51" font-family="Helvetica,sans-Serif" font-size="14.00">&gt; 0.9</text>
</g>
<!-- 14 -->
<g id="node17" class="node">
<title>14</title>
<polygon fill="#44e5a1" stroke="black" points="1037.87,-328.71 830.87,-328.71 830.87,-250.71 1037.87,-250.71 1037.87,-328.71"/>
<text text-anchor="start" x="895.37" y="-314.51" font-family="Helvetica,sans-Serif" font-weight="bold" font-size="14.00"> Class=1 </text>
<text text-anchor="start" x="968.37" y="-314.51" font-family="Helvetica,sans-Serif" font-size="14.00"> </text>
<text text-anchor="start" x="855.87" y="-300.51" font-family="Helvetica,sans-Serif" font-size="14.00"> error: 0.174, n=1758 </text>
<text text-anchor="start" x="838.87" y="-286.51" font-family="Helvetica,sans-Serif" font-size="14.00"> p: (0.95, 0.03, 0.00, 0.02) </text>
<text text-anchor="start" x="926.37" y="-272.51" font-family="Helvetica,sans-Serif" font-size="14.00">&#45;&#45;&#45;</text>
<text text-anchor="start" x="918.87" y="-258.51" font-family="Helvetica,sans-Serif" font-weight="bold" font-size="14.00">V14</text>
</g>
<!-- 13&#45;&gt;14 -->
<g id="edge16" class="edge">
<title>13:s&#45;&gt;14:n</title>
<path fill="none" stroke="black" d="M956.37,-379.71C956.37,-379.71 944.76,-352.79 938.41,-338.06"/>
<polygon fill="black" stroke="black" points="941.55,-336.51 934.37,-328.71 935.12,-339.28 941.55,-336.51"/>
<text text-anchor="middle" x="977.37" y="-350.51" font-family="Helvetica,sans-Serif" font-size="14.00">&gt; 0.501</text>
</g>
<!-- 20 -->
<g id="node22" class="node">
<title>20</title>
<ellipse fill="#44e5a1" stroke="black" cx="1256.37" cy="-289.71" rx="146.24" ry="35.21"/>
<text text-anchor="start" x="1217.37" y="-300.51" font-family="Helvetica,sans-Serif" font-weight="bold" font-size="14.00"> Class=1 </text>
<text text-anchor="start" x="1290.37" y="-300.51" font-family="Helvetica,sans-Serif" font-size="14.00"> </text>
<text text-anchor="start" x="1182.37" y="-286.51" font-family="Helvetica,sans-Serif" font-size="14.00"> error: 0.012, n=423 </text>
<text text-anchor="start" x="1160.87" y="-272.51" font-family="Helvetica,sans-Serif" font-size="14.00"> p: (1.00, 0.00, 0.00, 0.00) </text>
</g>
<!-- 19&#45;&gt;20 -->
<g id="edge21" class="edge">
<title>19:s&#45;&gt;20:n</title>
<path fill="none" stroke="black" d="M1256.37,-379.71C1256.37,-379.71 1256.37,-352.33 1256.37,-336.93"/>
<polygon fill="black" stroke="black" points="1259.87,-336.71 1256.37,-326.71 1252.87,-336.71 1259.87,-336.71"/>
<text text-anchor="middle" x="1286.87" y="-350.51" font-family="Helvetica,sans-Serif" font-size="14.00">&lt;= 1.44</text>
</g>
<!-- 21 -->
<g id="node23" class="node">
<title>21</title>
<polygon fill="#44e5a1" stroke="black" points="1681.87,-328.71 1474.87,-328.71 1474.87,-250.71 1681.87,-250.71 1681.87,-328.71"/>
<text text-anchor="start" x="1539.37" y="-314.51" font-family="Helvetica,sans-Serif" font-weight="bold" font-size="14.00"> Class=3 </text>
<text text-anchor="start" x="1612.37" y="-314.51" font-family="Helvetica,sans-Serif" font-size="14.00"> </text>
<text text-anchor="start" x="1504.37" y="-300.51" font-family="Helvetica,sans-Serif" font-size="14.00"> error: 0.351, n=394 </text>
<text text-anchor="start" x="1482.87" y="-286.51" font-family="Helvetica,sans-Serif" font-size="14.00"> p: (0.16, 0.01, 0.83, 0.00) </text>
<text text-anchor="start" x="1570.37" y="-272.51" font-family="Helvetica,sans-Serif" font-size="14.00">&#45;&#45;&#45;</text>
<text text-anchor="start" x="1562.87" y="-258.51" font-family="Helvetica,sans-Serif" font-weight="bold" font-size="14.00">V19</text>
</g>
<!-- 19&#45;&gt;21 -->
<g id="edge22" class="edge">
<title>19:s&#45;&gt;21:n</title>
<path fill="none" stroke="black" d="M1256.37,-379.71C1256.37,-379.71 1514.03,-338.9 1568.38,-330.29"/>
<polygon fill="black" stroke="black" points="1569.04,-333.73 1578.37,-328.71 1567.95,-326.82 1569.04,-333.73"/>
<text text-anchor="middle" x="1480.87" y="-350.51" font-family="Helvetica,sans-Serif" font-size="14.00">&gt; 1.44</text>
</g>
<!-- 15 -->
<g id="node18" class="node">
<title>15</title>
<polygon fill="#3dc0cc" stroke="black" points="968.87,-199.71 761.87,-199.71 761.87,-121.71 968.87,-121.71 968.87,-199.71"/>
<text text-anchor="start" x="826.37" y="-185.51" font-family="Helvetica,sans-Serif" font-weight="bold" font-size="14.00"> Class=1 </text>
<text text-anchor="start" x="899.37" y="-185.51" font-family="Helvetica,sans-Serif" font-size="14.00"> </text>
<text text-anchor="start" x="791.37" y="-171.51" font-family="Helvetica,sans-Serif" font-size="14.00"> error: 0.387, n=313 </text>
<text text-anchor="start" x="769.87" y="-157.51" font-family="Helvetica,sans-Serif" font-size="14.00"> p: (0.80, 0.19, 0.00, 0.01) </text>
<text text-anchor="start" x="857.37" y="-143.51" font-family="Helvetica,sans-Serif" font-size="14.00">&#45;&#45;&#45;</text>
<text text-anchor="start" x="849.87" y="-129.51" font-family="Helvetica,sans-Serif" font-weight="bold" font-size="14.00">V14</text>
</g>
<!-- 14&#45;&gt;15 -->
<g id="edge17" class="edge">
<title>14:s&#45;&gt;15:n</title>
<path fill="none" stroke="black" d="M934.37,-250.71C934.37,-250.71 891.83,-219.27 873.56,-205.76"/>
<polygon fill="black" stroke="black" points="875.49,-202.84 865.37,-199.71 871.33,-208.47 875.49,-202.84"/>
<text text-anchor="middle" x="943.37" y="-221.51" font-family="Helvetica,sans-Serif" font-size="14.00">&lt;= 1.098</text>
</g>
<!-- 17 -->
<g id="node19" class="node">
<title>17</title>
<polygon fill="#3dc0cc" stroke="black" points="1268.87,-199.71 1061.87,-199.71 1061.87,-121.71 1268.87,-121.71 1268.87,-199.71"/>
<text text-anchor="start" x="1126.37" y="-185.51" font-family="Helvetica,sans-Serif" font-weight="bold" font-size="14.00"> Class=1 </text>
<text text-anchor="start" x="1199.37" y="-185.51" font-family="Helvetica,sans-Serif" font-size="14.00"> </text>
<text text-anchor="start" x="1086.87" y="-171.51" font-family="Helvetica,sans-Serif" font-size="14.00"> error: 0.078, n=1445 </text>
<text text-anchor="start" x="1069.87" y="-157.51" font-family="Helvetica,sans-Serif" font-size="14.00"> p: (0.98, 0.00, 0.00, 0.02) </text>
<text text-anchor="start" x="1157.37" y="-143.51" font-family="Helvetica,sans-Serif" font-size="14.00">&#45;&#45;&#45;</text>
<text text-anchor="start" x="1149.87" y="-129.51" font-family="Helvetica,sans-Serif" font-weight="bold" font-size="14.00">V18</text>
</g>
<!-- 14&#45;&gt;17 -->
<g id="edge18" class="edge">
<title>14:s&#45;&gt;17:n</title>
<path fill="none" stroke="black" d="M934.37,-250.71C934.37,-250.71 1111.23,-211.66 1155.45,-201.9"/>
<polygon fill="black" stroke="black" points="1156.36,-205.28 1165.37,-199.71 1154.85,-198.45 1156.36,-205.28"/>
<text text-anchor="middle" x="1106.37" y="-221.51" font-family="Helvetica,sans-Serif" font-size="14.00">&gt; 1.098</text>
</g>
<!-- 16 -->
<g id="node20" class="node">
<title>16</title>
<ellipse fill="#4485e5" stroke="black" cx="843.37" cy="-35.36" rx="146.24" ry="35.21"/>
<text text-anchor="start" x="804.37" y="-46.16" font-family="Helvetica,sans-Serif" font-weight="bold" font-size="14.00"> Class=1 </text>
<text text-anchor="start" x="877.37" y="-46.16" font-family="Helvetica,sans-Serif" font-size="14.00"> </text>
<text text-anchor="start" x="769.37" y="-32.16" font-family="Helvetica,sans-Serif" font-size="14.00"> error: 0.019, n=245 </text>
<text text-anchor="start" x="747.87" y="-18.16" font-family="Helvetica,sans-Serif" font-size="14.00"> p: (1.00, 0.00, 0.00, 0.00) </text>
</g>
<!-- 15&#45;&gt;16 -->
<g id="edge19" class="edge">
<title>15:s&#45;&gt;16:n</title>
<path fill="none" stroke="black" d="M865.37,-121.71C865.37,-121.71 853.76,-94.79 847.41,-80.06"/>
<polygon fill="black" stroke="black" points="850.55,-78.51 843.37,-70.71 844.12,-81.28 850.55,-78.51"/>
<text text-anchor="middle" x="881.87" y="-92.51" font-family="Helvetica,sans-Serif" font-size="14.00">&gt; 0.91</text>
</g>
<!-- 18 -->
<g id="node21" class="node">
<title>18</title>
<ellipse fill="#4485e5" stroke="black" cx="1208.37" cy="-35.36" rx="146.24" ry="35.21"/>
<text text-anchor="start" x="1169.37" y="-46.16" font-family="Helvetica,sans-Serif" font-weight="bold" font-size="14.00"> Class=1 </text>
<text text-anchor="start" x="1242.37" y="-46.16" font-family="Helvetica,sans-Serif" font-size="14.00"> </text>
<text text-anchor="start" x="1129.87" y="-32.16" font-family="Helvetica,sans-Serif" font-size="14.00"> error: 0.000, n=1310 </text>
<text text-anchor="start" x="1112.87" y="-18.16" font-family="Helvetica,sans-Serif" font-size="14.00"> p: (1.00, 0.00, 0.00, 0.00) </text>
</g>
<!-- 17&#45;&gt;18 -->
<g id="edge20" class="edge">
<title>17:s&#45;&gt;18:n</title>
<path fill="none" stroke="black" d="M1165.37,-121.71C1165.37,-121.71 1189.56,-93.02 1201.65,-78.68"/>
<polygon fill="black" stroke="black" points="1204.6,-80.61 1208.37,-70.71 1199.25,-76.1 1204.6,-80.61"/>
<text text-anchor="middle" x="1221.37" y="-92.51" font-family="Helvetica,sans-Serif" font-size="14.00">&gt; 0.532</text>
</g>
<!-- 22 -->
<g id="node24" class="node">
<title>22</title>
<polygon fill="#3dc0cc" stroke="black" points="1681.87,-199.71 1474.87,-199.71 1474.87,-121.71 1681.87,-121.71 1681.87,-199.71"/>
<text text-anchor="start" x="1539.37" y="-185.51" font-family="Helvetica,sans-Serif" font-weight="bold" font-size="14.00"> Class=3 </text>
<text text-anchor="start" x="1612.37" y="-185.51" font-family="Helvetica,sans-Serif" font-size="14.00"> </text>
<text text-anchor="start" x="1504.37" y="-171.51" font-family="Helvetica,sans-Serif" font-size="14.00"> error: 0.086, n=322 </text>
<text text-anchor="start" x="1482.87" y="-157.51" font-family="Helvetica,sans-Serif" font-size="14.00"> p: (0.01, 0.01, 0.98, 0.00) </text>
<text text-anchor="start" x="1570.37" y="-143.51" font-family="Helvetica,sans-Serif" font-size="14.00">&#45;&#45;&#45;</text>
<text text-anchor="start" x="1562.87" y="-129.51" font-family="Helvetica,sans-Serif" font-weight="bold" font-size="14.00">V17</text>
</g>
<!-- 21&#45;&gt;22 -->
<g id="edge23" class="edge">
<title>21:s&#45;&gt;22:n</title>
<path fill="none" stroke="black" d="M1578.37,-250.71C1578.37,-250.71 1578.37,-224.93 1578.37,-210.03"/>
<polygon fill="black" stroke="black" points="1581.87,-209.71 1578.37,-199.71 1574.87,-209.71 1581.87,-209.71"/>
<text text-anchor="middle" x="1607.37" y="-221.51" font-family="Helvetica,sans-Serif" font-size="14.00">&gt; 1.023</text>
</g>
<!-- 23 -->
<g id="node25" class="node">
<title>23</title>
<ellipse fill="#4485e5" stroke="black" cx="1578.37" cy="-35.36" rx="146.24" ry="35.21"/>
<text text-anchor="start" x="1539.37" y="-46.16" font-family="Helvetica,sans-Serif" font-weight="bold" font-size="14.00"> Class=3 </text>
<text text-anchor="start" x="1612.37" y="-46.16" font-family="Helvetica,sans-Serif" font-size="14.00"> </text>
<text text-anchor="start" x="1504.37" y="-32.16" font-family="Helvetica,sans-Serif" font-size="14.00"> error: 0.000, n=255 </text>
<text text-anchor="start" x="1482.87" y="-18.16" font-family="Helvetica,sans-Serif" font-size="14.00"> p: (0.00, 0.00, 1.00, 0.00) </text>
</g>
<!-- 22&#45;&gt;23 -->
<g id="edge24" class="edge">
<title>22:s&#45;&gt;23:n</title>
<path fill="none" stroke="black" d="M1578.37,-121.71C1578.37,-121.71 1578.37,-95.93 1578.37,-81.03"/>
<polygon fill="black" stroke="black" points="1581.87,-80.71 1578.37,-70.71 1574.87,-80.71 1581.87,-80.71"/>
<text text-anchor="middle" x="1607.37" y="-92.51" font-family="Helvetica,sans-Serif" font-size="14.00">&gt; 1.269</text>
</g>
</g>
</svg>
