<?xml version="1.0" encoding="UTF-8" standalone="no"?>
<!DOCTYPE svg PUBLIC "-//W3C//DTD SVG 1.1//EN"
 "http://www.w3.org/Graphics/SVG/1.1/DTD/svg11.dtd">
<!-- Generated by graphviz version 2.43.0 (0)
 -->
<!-- Title: Tree Pages: 1 -->
<svg width="1531pt" height="825pt"
 viewBox="0.00 0.00 1531.20 824.71" xmlns="http://www.w3.org/2000/svg" xmlns:xlink="http://www.w3.org/1999/xlink">
<g id="graph0" class="graph" transform="scale(1 1) rotate(0) translate(18 806.71)">
<title>Tree</title>
<polygon fill="white" stroke="transparent" points="-18,18 -18,-806.71 1513.2,-806.71 1513.2,18 -18,18"/>
<!-- 0 -->
<g id="node1" class="node">
<title>0</title>
<polygon fill="white" stroke="transparent" points="986.6,-788.71 932.6,-788.71 932.6,-752.71 986.6,-752.71 986.6,-788.71"/>
<text text-anchor="middle" x="959.6" y="-767.01" font-family="Helvetica,sans-Serif" font-size="14.00">0</text>
</g>
<!-- 1 -->
<g id="node2" class="node">
<title>1</title>
<polygon fill="#cc3d3d" stroke="black" points="1041.6,-715.71 877.6,-715.71 877.6,-637.71 1041.6,-637.71 1041.6,-715.71"/>
<text text-anchor="start" x="920.6" y="-701.51" font-family="Helvetica,sans-Serif" font-weight="bold" font-size="14.00"> Class=1 </text>
<text text-anchor="start" x="993.6" y="-701.51" font-family="Helvetica,sans-Serif" font-size="14.00"> </text>
<text text-anchor="start" x="885.6" y="-687.51" font-family="Helvetica,sans-Serif" font-size="14.00"> error: 0.953, n=569 </text>
<text text-anchor="start" x="904.6" y="-673.51" font-family="Helvetica,sans-Serif" font-size="14.00"> p: (0.63, 0.37) </text>
<text text-anchor="start" x="954.1" y="-659.51" font-family="Helvetica,sans-Serif" font-size="14.00">&#45;&#45;</text>
<text text-anchor="start" x="949.1" y="-645.51" font-family="Helvetica,sans-Serif" font-weight="bold" font-size="14.00">V8</text>
</g>
<!-- 0&#45;&gt;1 -->
<!-- 2 -->
<g id="node3" class="node">
<title>2</title>
<polygon fill="#e5b844" stroke="black" points="907.6,-586.71 743.6,-586.71 743.6,-508.71 907.6,-508.71 907.6,-586.71"/>
<text text-anchor="start" x="786.6" y="-572.51" font-family="Helvetica,sans-Serif" font-weight="bold" font-size="14.00"> Class=2 </text>
<text text-anchor="start" x="859.6" y="-572.51" font-family="Helvetica,sans-Serif" font-size="14.00"> </text>
<text text-anchor="start" x="751.6" y="-558.51" font-family="Helvetica,sans-Serif" font-size="14.00"> error: 0.831, n=270 </text>
<text text-anchor="start" x="770.6" y="-544.51" font-family="Helvetica,sans-Serif" font-size="14.00"> p: (0.26, 0.74) </text>
<text text-anchor="start" x="817.6" y="-530.51" font-family="Helvetica,sans-Serif" font-size="14.00">&#45;&#45;&#45;</text>
<text text-anchor="start" x="810.1" y="-516.51" font-family="Helvetica,sans-Serif" font-weight="bold" font-size="14.00">V28</text>
</g>
<!-- 1&#45;&gt;2 -->
<g id="edge2" class="edge">
<title>1:s&#45;&gt;2:n</title>
<path fill="none" stroke="black" d="M959.6,-637.71C959.6,-637.71 865.96,-602.07 835.24,-590.38"/>
<polygon fill="black" stroke="black" points="836.19,-587 825.6,-586.71 833.7,-593.54 836.19,-587"/>
<text text-anchor="middle" x="937.6" y="-608.51" font-family="Helvetica,sans-Serif" font-size="14.00">&gt; 0.03711</text>
</g>
<!-- 13 -->
<g id="node4" class="node">
<title>13</title>
<polygon fill="#e5b844" stroke="black" points="1191.6,-586.71 1027.6,-586.71 1027.6,-508.71 1191.6,-508.71 1191.6,-586.71"/>
<text text-anchor="start" x="1070.6" y="-572.51" font-family="Helvetica,sans-Serif" font-weight="bold" font-size="14.00"> Class=1 </text>
<text text-anchor="start" x="1143.6" y="-572.51" font-family="Helvetica,sans-Serif" font-size="14.00"> </text>
<text text-anchor="start" x="1035.6" y="-558.51" font-family="Helvetica,sans-Serif" font-size="14.00"> error: 0.258, n=299 </text>
<text text-anchor="start" x="1054.6" y="-544.51" font-family="Helvetica,sans-Serif" font-size="14.00"> p: (0.96, 0.04) </text>
<text text-anchor="start" x="1101.6" y="-530.51" font-family="Helvetica,sans-Serif" font-size="14.00">&#45;&#45;&#45;</text>
<text text-anchor="start" x="1094.1" y="-516.51" font-family="Helvetica,sans-Serif" font-weight="bold" font-size="14.00">V24</text>
</g>
<!-- 1&#45;&gt;13 -->
<g id="edge3" class="edge">
<title>1:s&#45;&gt;13:n</title>
<path fill="none" stroke="black" d="M959.6,-637.71C959.6,-637.71 1066.39,-601.4 1099.76,-590.06"/>
<polygon fill="black" stroke="black" points="1101.26,-593.24 1109.6,-586.71 1099.01,-586.62 1101.26,-593.24"/>
<text text-anchor="middle" x="1096.6" y="-608.51" font-family="Helvetica,sans-Serif" font-size="14.00">&lt;= 0.03711</text>
</g>
<!-- 3 -->
<g id="node5" class="node">
<title>3</title>
<polygon fill="#8dcc3d" stroke="black" points="609.1,-457.71 454.1,-457.71 454.1,-379.71 609.1,-379.71 609.1,-457.71"/>
<text text-anchor="start" x="492.6" y="-443.51" font-family="Helvetica,sans-Serif" font-weight="bold" font-size="14.00"> Class=1 </text>
<text text-anchor="start" x="565.6" y="-443.51" font-family="Helvetica,sans-Serif" font-size="14.00"> </text>
<text text-anchor="start" x="462.1" y="-429.51" font-family="Helvetica,sans-Serif" font-size="14.00"> error: 0.887, n=92 </text>
<text text-anchor="start" x="476.6" y="-415.51" font-family="Helvetica,sans-Serif" font-size="14.00"> p: (0.70, 0.30) </text>
<text text-anchor="start" x="523.6" y="-401.51" font-family="Helvetica,sans-Serif" font-size="14.00">&#45;&#45;&#45;</text>
<text text-anchor="start" x="516.1" y="-387.51" font-family="Helvetica,sans-Serif" font-weight="bold" font-size="14.00">V24</text>
</g>
<!-- 2&#45;&gt;3 -->
<g id="edge4" class="edge">
<title>2:s&#45;&gt;3:n</title>
<path fill="none" stroke="black" d="M825.6,-508.71C825.6,-508.71 593.42,-468.43 541.72,-459.47"/>
<polygon fill="black" stroke="black" points="542.05,-455.97 531.6,-457.71 540.86,-462.87 542.05,-455.97"/>
<text text-anchor="middle" x="753.1" y="-479.51" font-family="Helvetica,sans-Serif" font-size="14.00">&lt;= 0.1465</text>
</g>
<!-- 10 -->
<g id="node6" class="node">
<title>10</title>
<polygon fill="#8dcc3d" stroke="black" points="907.6,-457.71 743.6,-457.71 743.6,-379.71 907.6,-379.71 907.6,-457.71"/>
<text text-anchor="start" x="786.6" y="-443.51" font-family="Helvetica,sans-Serif" font-weight="bold" font-size="14.00"> Class=2 </text>
<text text-anchor="start" x="859.6" y="-443.51" font-family="Helvetica,sans-Serif" font-size="14.00"> </text>
<text text-anchor="start" x="751.6" y="-429.51" font-family="Helvetica,sans-Serif" font-size="14.00"> error: 0.239, n=178 </text>
<text text-anchor="start" x="770.6" y="-415.51" font-family="Helvetica,sans-Serif" font-size="14.00"> p: (0.04, 0.96) </text>
<text text-anchor="start" x="817.6" y="-401.51" font-family="Helvetica,sans-Serif" font-size="14.00">&#45;&#45;&#45;</text>
<text text-anchor="start" x="810.1" y="-387.51" font-family="Helvetica,sans-Serif" font-weight="bold" font-size="14.00">V23</text>
</g>
<!-- 2&#45;&gt;10 -->
<g id="edge5" class="edge">
<title>2:s&#45;&gt;10:n</title>
<path fill="none" stroke="black" d="M825.6,-508.71C825.6,-508.71 825.6,-482.93 825.6,-468.03"/>
<polygon fill="black" stroke="black" points="829.1,-467.71 825.6,-457.71 822.1,-467.71 829.1,-467.71"/>
<text text-anchor="middle" x="859.1" y="-479.51" font-family="Helvetica,sans-Serif" font-size="14.00">&gt; 0.1465</text>
</g>
<!-- 14 -->
<g id="node15" class="node">
<title>14</title>
<ellipse fill="#8dcc3d" stroke="black" cx="1109.6" cy="-418.71" rx="115.93" ry="35.21"/>
<text text-anchor="start" x="1070.6" y="-429.51" font-family="Helvetica,sans-Serif" font-weight="bold" font-size="14.00"> Class=1 </text>
<text text-anchor="start" x="1143.6" y="-429.51" font-family="Helvetica,sans-Serif" font-size="14.00"> </text>
<text text-anchor="start" x="1035.6" y="-415.51" font-family="Helvetica,sans-Serif" font-size="14.00"> error: 0.068, n=245 </text>
<text text-anchor="start" x="1054.6" y="-401.51" font-family="Helvetica,sans-Serif" font-size="14.00"> p: (0.99, 0.01) </text>
</g>
<!-- 13&#45;&gt;14 -->
<g id="edge14" class="edge">
<title>13:s&#45;&gt;14:n</title>
<path fill="none" stroke="black" d="M1109.6,-508.71C1109.6,-508.71 1109.6,-481.33 1109.6,-465.93"/>
<polygon fill="black" stroke="black" points="1113.1,-465.71 1109.6,-455.71 1106.1,-465.71 1113.1,-465.71"/>
<text text-anchor="middle" x="1144.6" y="-479.51" font-family="Helvetica,sans-Serif" font-size="14.00">&lt;= 688.9</text>
</g>
<!-- 15 -->
<g id="node16" class="node">
<title>15</title>
<polygon fill="#8dcc3d" stroke="black" points="1459.1,-457.71 1304.1,-457.71 1304.1,-379.71 1459.1,-379.71 1459.1,-457.71"/>
<text text-anchor="start" x="1342.6" y="-443.51" font-family="Helvetica,sans-Serif" font-weight="bold" font-size="14.00"> Class=1 </text>
<text text-anchor="start" x="1415.6" y="-443.51" font-family="Helvetica,sans-Serif" font-size="14.00"> </text>
<text text-anchor="start" x="1312.1" y="-429.51" font-family="Helvetica,sans-Serif" font-size="14.00"> error: 0.729, n=54 </text>
<text text-anchor="start" x="1326.6" y="-415.51" font-family="Helvetica,sans-Serif" font-size="14.00"> p: (0.80, 0.20) </text>
<text text-anchor="start" x="1373.6" y="-401.51" font-family="Helvetica,sans-Serif" font-size="14.00">&#45;&#45;&#45;</text>
<text text-anchor="start" x="1366.1" y="-387.51" font-family="Helvetica,sans-Serif" font-weight="bold" font-size="14.00">V24</text>
</g>
<!-- 13&#45;&gt;15 -->
<g id="edge15" class="edge">
<title>13:s&#45;&gt;15:n</title>
<path fill="none" stroke="black" d="M1109.6,-508.71C1109.6,-508.71 1322.53,-468.79 1371.6,-459.59"/>
<polygon fill="black" stroke="black" points="1372.42,-462.99 1381.6,-457.71 1371.13,-456.11 1372.42,-462.99"/>
<text text-anchor="middle" x="1307.6" y="-479.51" font-family="Helvetica,sans-Serif" font-size="14.00">&gt; 688.9</text>
</g>
<!-- 4 -->
<g id="node7" class="node">
<title>4</title>
<polygon fill="#44e55e" stroke="black" points="350.1,-328.71 195.1,-328.71 195.1,-250.71 350.1,-250.71 350.1,-328.71"/>
<text text-anchor="start" x="233.6" y="-314.51" font-family="Helvetica,sans-Serif" font-weight="bold" font-size="14.00"> Class=1 </text>
<text text-anchor="start" x="306.6" y="-314.51" font-family="Helvetica,sans-Serif" font-size="14.00"> </text>
<text text-anchor="start" x="203.1" y="-300.51" font-family="Helvetica,sans-Serif" font-size="14.00"> error: 0.564, n=68 </text>
<text text-anchor="start" x="217.6" y="-286.51" font-family="Helvetica,sans-Serif" font-size="14.00"> p: (0.87, 0.13) </text>
<text text-anchor="start" x="264.6" y="-272.51" font-family="Helvetica,sans-Serif" font-size="14.00">&#45;&#45;&#45;</text>
<text text-anchor="start" x="257.1" y="-258.51" font-family="Helvetica,sans-Serif" font-weight="bold" font-size="14.00">V27</text>
</g>
<!-- 3&#45;&gt;4 -->
<g id="edge6" class="edge">
<title>3:s&#45;&gt;4:n</title>
<path fill="none" stroke="black" d="M531.6,-379.71C531.6,-379.71 329.75,-339.96 282.44,-330.65"/>
<polygon fill="black" stroke="black" points="283.09,-327.21 272.6,-328.71 281.74,-334.08 283.09,-327.21"/>
<text text-anchor="middle" x="468.6" y="-350.51" font-family="Helvetica,sans-Serif" font-size="14.00">&lt;= 876.5</text>
</g>
<!-- 9 -->
<g id="node8" class="node">
<title>9</title>
<ellipse fill="#44e55e" stroke="black" cx="531.6" cy="-289.71" rx="109.7" ry="35.21"/>
<text text-anchor="start" x="492.6" y="-300.51" font-family="Helvetica,sans-Serif" font-weight="bold" font-size="14.00"> Class=2 </text>
<text text-anchor="start" x="565.6" y="-300.51" font-family="Helvetica,sans-Serif" font-size="14.00"> </text>
<text text-anchor="start" x="462.1" y="-286.51" font-family="Helvetica,sans-Serif" font-size="14.00"> error: 0.738, n=24 </text>
<text text-anchor="start" x="476.6" y="-272.51" font-family="Helvetica,sans-Serif" font-size="14.00"> p: (0.21, 0.79) </text>
</g>
<!-- 3&#45;&gt;9 -->
<g id="edge7" class="edge">
<title>3:s&#45;&gt;9:n</title>
<path fill="none" stroke="black" d="M531.6,-379.71C531.6,-379.71 531.6,-352.33 531.6,-336.93"/>
<polygon fill="black" stroke="black" points="535.1,-336.71 531.6,-326.71 528.1,-336.71 535.1,-336.71"/>
<text text-anchor="middle" x="560.6" y="-350.51" font-family="Helvetica,sans-Serif" font-size="14.00">&gt; 876.5</text>
</g>
<!-- 11 -->
<g id="node13" class="node">
<title>11</title>
<ellipse fill="#44e55e" stroke="black" cx="822.6" cy="-289.71" rx="109.7" ry="35.21"/>
<text text-anchor="start" x="783.6" y="-300.51" font-family="Helvetica,sans-Serif" font-weight="bold" font-size="14.00"> Class=2 </text>
<text text-anchor="start" x="856.6" y="-300.51" font-family="Helvetica,sans-Serif" font-size="14.00"> </text>
<text text-anchor="start" x="753.1" y="-286.51" font-family="Helvetica,sans-Serif" font-size="14.00"> error: 0.840, n=26 </text>
<text text-anchor="start" x="767.6" y="-272.51" font-family="Helvetica,sans-Serif" font-size="14.00"> p: (0.27, 0.73) </text>
</g>
<!-- 10&#45;&gt;11 -->
<g id="edge12" class="edge">
<title>10:s&#45;&gt;11:n</title>
<path fill="none" stroke="black" d="M825.6,-379.71C825.6,-379.71 824.05,-352.33 823.18,-336.93"/>
<polygon fill="black" stroke="black" points="826.66,-336.5 822.6,-326.71 819.67,-336.89 826.66,-336.5"/>
<text text-anchor="middle" x="859.6" y="-350.51" font-family="Helvetica,sans-Serif" font-size="14.00">&lt;= 111.6</text>
</g>
<!-- 12 -->
<g id="node14" class="node">
<title>12</title>
<ellipse fill="#44e55e" stroke="black" cx="1120.6" cy="-289.71" rx="115.93" ry="35.21"/>
<text text-anchor="start" x="1081.6" y="-300.51" font-family="Helvetica,sans-Serif" font-weight="bold" font-size="14.00"> Class=2 </text>
<text text-anchor="start" x="1154.6" y="-300.51" font-family="Helvetica,sans-Serif" font-size="14.00"> </text>
<text text-anchor="start" x="1046.6" y="-286.51" font-family="Helvetica,sans-Serif" font-size="14.00"> error: 0.000, n=152 </text>
<text text-anchor="start" x="1065.6" y="-272.51" font-family="Helvetica,sans-Serif" font-size="14.00"> p: (0.00, 1.00) </text>
</g>
<!-- 10&#45;&gt;12 -->
<g id="edge13" class="edge">
<title>10:s&#45;&gt;12:n</title>
<path fill="none" stroke="black" d="M825.6,-379.71C825.6,-379.71 1058.57,-337.85 1110.45,-328.54"/>
<polygon fill="black" stroke="black" points="1111.38,-331.92 1120.6,-326.71 1110.14,-325.03 1111.38,-331.92"/>
<text text-anchor="middle" x="1037.6" y="-350.51" font-family="Helvetica,sans-Serif" font-size="14.00">&gt; 111.6</text>
</g>
<!-- 5 -->
<g id="node9" class="node">
<title>5</title>
<polygon fill="#3dccba" stroke="black" points="219.1,-199.71 64.1,-199.71 64.1,-121.71 219.1,-121.71 219.1,-199.71"/>
<text text-anchor="start" x="102.6" y="-185.51" font-family="Helvetica,sans-Serif" font-weight="bold" font-size="14.00"> Class=1 </text>
<text text-anchor="start" x="175.6" y="-185.51" font-family="Helvetica,sans-Serif" font-size="14.00"> </text>
<text text-anchor="start" x="72.1" y="-171.51" font-family="Helvetica,sans-Serif" font-size="14.00"> error: 0.176, n=38 </text>
<text text-anchor="start" x="86.6" y="-157.51" font-family="Helvetica,sans-Serif" font-size="14.00"> p: (0.97, 0.03) </text>
<text text-anchor="start" x="133.6" y="-143.51" font-family="Helvetica,sans-Serif" font-size="14.00">&#45;&#45;&#45;</text>
<text text-anchor="start" x="126.1" y="-129.51" font-family="Helvetica,sans-Serif" font-weight="bold" font-size="14.00">V10</text>
</g>
<!-- 4&#45;&gt;5 -->
<g id="edge8" class="edge">
<title>4:s&#45;&gt;5:n</title>
<path fill="none" stroke="black" d="M272.6,-250.71C272.6,-250.71 181.06,-215.07 151.02,-203.38"/>
<polygon fill="black" stroke="black" points="152.19,-200.08 141.6,-199.71 149.65,-206.6 152.19,-200.08"/>
<text text-anchor="middle" x="258.1" y="-221.51" font-family="Helvetica,sans-Serif" font-size="14.00">&lt;= 0.2573</text>
</g>
<!-- 7 -->
<g id="node10" class="node">
<title>7</title>
<polygon fill="#3dccba" stroke="black" points="462.1,-199.71 307.1,-199.71 307.1,-121.71 462.1,-121.71 462.1,-199.71"/>
<text text-anchor="start" x="345.6" y="-185.51" font-family="Helvetica,sans-Serif" font-weight="bold" font-size="14.00"> Class=1 </text>
<text text-anchor="start" x="418.6" y="-185.51" font-family="Helvetica,sans-Serif" font-size="14.00"> </text>
<text text-anchor="start" x="315.1" y="-171.51" font-family="Helvetica,sans-Serif" font-size="14.00"> error: 0.837, n=30 </text>
<text text-anchor="start" x="329.6" y="-157.51" font-family="Helvetica,sans-Serif" font-size="14.00"> p: (0.73, 0.27) </text>
<text text-anchor="start" x="376.6" y="-143.51" font-family="Helvetica,sans-Serif" font-size="14.00">&#45;&#45;&#45;</text>
<text text-anchor="start" x="369.1" y="-129.51" font-family="Helvetica,sans-Serif" font-weight="bold" font-size="14.00">V25</text>
</g>
<!-- 4&#45;&gt;7 -->
<g id="edge9" class="edge">
<title>4:s&#45;&gt;7:n</title>
<path fill="none" stroke="black" d="M272.6,-250.71C272.6,-250.71 348.69,-216.06 375.44,-203.88"/>
<polygon fill="black" stroke="black" points="376.95,-207.04 384.6,-199.71 374.05,-200.67 376.95,-207.04"/>
<text text-anchor="middle" x="376.1" y="-221.51" font-family="Helvetica,sans-Serif" font-size="14.00">&gt; 0.2573</text>
</g>
<!-- 6 -->
<g id="node11" class="node">
<title>6</title>
<ellipse fill="#4485e5" stroke="black" cx="109.6" cy="-35.36" rx="109.7" ry="35.21"/>
<text text-anchor="start" x="70.6" y="-46.16" font-family="Helvetica,sans-Serif" font-weight="bold" font-size="14.00"> Class=1 </text>
<text text-anchor="start" x="143.6" y="-46.16" font-family="Helvetica,sans-Serif" font-size="14.00"> </text>
<text text-anchor="start" x="40.1" y="-32.16" font-family="Helvetica,sans-Serif" font-size="14.00"> error: 0.000, n=37 </text>
<text text-anchor="start" x="54.6" y="-18.16" font-family="Helvetica,sans-Serif" font-size="14.00"> p: (1.00, 0.00) </text>
</g>
<!-- 5&#45;&gt;6 -->
<g id="edge10" class="edge">
<title>5:s&#45;&gt;6:n</title>
<path fill="none" stroke="black" d="M141.6,-121.71C141.6,-121.71 124.34,-94.21 115.18,-79.59"/>
<polygon fill="black" stroke="black" points="117.88,-77.32 109.6,-70.71 111.95,-81.04 117.88,-77.32"/>
<text text-anchor="middle" x="167.6" y="-92.51" font-family="Helvetica,sans-Serif" font-size="14.00">&gt; 0.05338</text>
</g>
<!-- 8 -->
<g id="node12" class="node">
<title>8</title>
<ellipse fill="#4485e5" stroke="black" cx="400.6" cy="-35.36" rx="109.7" ry="35.21"/>
<text text-anchor="start" x="361.6" y="-46.16" font-family="Helvetica,sans-Serif" font-weight="bold" font-size="14.00"> Class=1 </text>
<text text-anchor="start" x="434.6" y="-46.16" font-family="Helvetica,sans-Serif" font-size="14.00"> </text>
<text text-anchor="start" x="331.1" y="-32.16" font-family="Helvetica,sans-Serif" font-size="14.00"> error: 0.971, n=20 </text>
<text text-anchor="start" x="345.6" y="-18.16" font-family="Helvetica,sans-Serif" font-size="14.00"> p: (0.60, 0.40) </text>
</g>
<!-- 7&#45;&gt;8 -->
<g id="edge11" class="edge">
<title>7:s&#45;&gt;8:n</title>
<path fill="none" stroke="black" d="M384.6,-121.71C384.6,-121.71 392.87,-95.36 397.52,-80.54"/>
<polygon fill="black" stroke="black" points="400.95,-81.3 400.6,-70.71 394.27,-79.2 400.95,-81.3"/>
<text text-anchor="middle" x="428.1" y="-92.51" font-family="Helvetica,sans-Serif" font-size="14.00">&gt; 0.1294</text>
</g>
<!-- 16 -->
<g id="node17" class="node">
<title>16</title>
<polygon fill="#44e55e" stroke="black" points="1463.1,-328.71 1308.1,-328.71 1308.1,-250.71 1463.1,-250.71 1463.1,-328.71"/>
<text text-anchor="start" x="1346.6" y="-314.51" font-family="Helvetica,sans-Serif" font-weight="bold" font-size="14.00"> Class=1 </text>
<text text-anchor="start" x="1419.6" y="-314.51" font-family="Helvetica,sans-Serif" font-size="14.00"> </text>
<text text-anchor="start" x="1316.1" y="-300.51" font-family="Helvetica,sans-Serif" font-size="14.00"> error: 0.281, n=41 </text>
<text text-anchor="start" x="1330.6" y="-286.51" font-family="Helvetica,sans-Serif" font-size="14.00"> p: (0.95, 0.05) </text>
<text text-anchor="start" x="1377.6" y="-272.51" font-family="Helvetica,sans-Serif" font-size="14.00">&#45;&#45;&#45;</text>
<text text-anchor="start" x="1370.1" y="-258.51" font-family="Helvetica,sans-Serif" font-weight="bold" font-size="14.00">V13</text>
</g>
<!-- 15&#45;&gt;16 -->
<g id="edge16" class="edge">
<title>15:s&#45;&gt;16:n</title>
<path fill="none" stroke="black" d="M1381.6,-379.71C1381.6,-379.71 1383.62,-353.93 1384.79,-339.03"/>
<polygon fill="black" stroke="black" points="1388.31,-338.95 1385.6,-328.71 1381.33,-338.41 1388.31,-338.95"/>
<text text-anchor="middle" x="1419.6" y="-350.51" font-family="Helvetica,sans-Serif" font-size="14.00">&lt;= 840.8</text>
</g>
<!-- 17 -->
<g id="node18" class="node">
<title>17</title>
<polygon fill="#3dccba" stroke="black" points="1463.1,-199.71 1308.1,-199.71 1308.1,-121.71 1463.1,-121.71 1463.1,-199.71"/>
<text text-anchor="start" x="1346.6" y="-185.51" font-family="Helvetica,sans-Serif" font-weight="bold" font-size="14.00"> Class=1 </text>
<text text-anchor="start" x="1419.6" y="-185.51" font-family="Helvetica,sans-Serif" font-size="14.00"> </text>
<text text-anchor="start" x="1316.1" y="-171.51" font-family="Helvetica,sans-Serif" font-size="14.00"> error: 0.169, n=40 </text>
<text text-anchor="start" x="1330.6" y="-157.51" font-family="Helvetica,sans-Serif" font-size="14.00"> p: (0.97, 0.03) </text>
<text text-anchor="start" x="1377.6" y="-143.51" font-family="Helvetica,sans-Serif" font-size="14.00">&#45;&#45;&#45;</text>
<text text-anchor="start" x="1370.1" y="-129.51" font-family="Helvetica,sans-Serif" font-weight="bold" font-size="14.00">V15</text>
</g>
<!-- 16&#45;&gt;17 -->
<g id="edge17" class="edge">
<title>16:s&#45;&gt;17:n</title>
<path fill="none" stroke="black" d="M1385.6,-250.71C1385.6,-250.71 1385.6,-224.93 1385.6,-210.03"/>
<polygon fill="black" stroke="black" points="1389.1,-209.71 1385.6,-199.71 1382.1,-209.71 1389.1,-209.71"/>
<text text-anchor="middle" x="1420.6" y="-221.51" font-family="Helvetica,sans-Serif" font-size="14.00">&lt;= 3.369</text>
</g>
<!-- 18 -->
<g id="node19" class="node">
<title>18</title>
<ellipse fill="#4485e5" stroke="black" cx="1385.6" cy="-35.36" rx="109.7" ry="35.21"/>
<text text-anchor="start" x="1346.6" y="-46.16" font-family="Helvetica,sans-Serif" font-weight="bold" font-size="14.00"> Class=1 </text>
<text text-anchor="start" x="1419.6" y="-46.16" font-family="Helvetica,sans-Serif" font-size="14.00"> </text>
<text text-anchor="start" x="1316.1" y="-32.16" font-family="Helvetica,sans-Serif" font-size="14.00"> error: 0.000, n=37 </text>
<text text-anchor="start" x="1330.6" y="-18.16" font-family="Helvetica,sans-Serif" font-size="14.00"> p: (1.00, 0.00) </text>
</g>
<!-- 17&#45;&gt;18 -->
<g id="edge18" class="edge">
<title>17:s&#45;&gt;18:n</title>
<path fill="none" stroke="black" d="M1385.6,-121.71C1385.6,-121.71 1385.6,-95.93 1385.6,-81.03"/>
<polygon fill="black" stroke="black" points="1389.1,-80.71 1385.6,-70.71 1382.1,-80.71 1389.1,-80.71"/>
<text text-anchor="middle" x="1423.6" y="-92.51" font-family="Helvetica,sans-Serif" font-size="14.00">&gt; 0.00328</text>
</g>
</g>
</svg>
