<svg viewBox="0 0 100 100" xmlns="http://www.w3.org/2000/svg">
  <circle stroke="#F8F9FA" fill="none" stroke-width="3.0" r="48.5" cx="50.0" cy="50.0" />
  <path fill="none" stroke="#F8F9FA" stroke-width="3.0" d="M 17.666666666666664 33.833333333333336 m 0.75 0.75 m 3.291666666666667 0 h 3.291666666666667 m 0 6.583333333333334 h -3.291666666666667 a 3.291666666666667 3.291666666666667 0 0 1 -3.291666666666667 -3.291666666666667 a 3.291666666666667 3.291666666666667 0 0 1 3.291666666666667 -3.291666666666667" />
  <path fill="none" stroke="#F8F9FA" stroke-width="3.0" d="M 17.666666666666664 45.958333333333336 m 0.75 0.75 m 3.291666666666667 0 h 3.291666666666667 m 0 6.583333333333334 h -3.291666666666667 a 3.291666666666667 3.291666666666667 0 0 1 -3.291666666666667 -3.291666666666667 a 3.291666666666667 3.291666666666667 0 0 1 3.291666666666667 -3.291666666666667" />
  <path fill="none" stroke="#F8F9FA" stroke-width="3.0" d="M 17.666666666666664 58.083333333333336 m 0.75 0.75 m 3.291666666666667 0 h 3.291666666666667 m 0 6.583333333333334 h -3.291666666666667 a 3.291666666666667 3.291666666666667 0 0 1 -3.291666666666667 -3.291666666666667 a 3.291666666666667 3.291666666666667 0 0 1 3.291666666666667 -3.291666666666667" />
  <path fill="none" stroke="#F8F9FA" stroke-width="3.0" d="M 58.08333333333333 17.666666666666664 m 0.75 0.75 m 0 3.291666666666667 m 6.583333333333334 0 v 3.291666666666667 m -6.583333333333334 0 v -3.291666666666667 a 3.291666666666667 3.291666666666667 0 0 1 3.291666666666667 -3.291666666666667 a 3.291666666666667 3.291666666666667 0 0 1 3.291666666666667 3.291666666666667" />
  <path fill="none" stroke="#F8F9FA" stroke-width="3.0" d="M 45.95833333333333 17.666666666666664 m 0.75 0.75 m 0 3.291666666666667 m 6.583333333333334 0 v 3.291666666666667 m -6.583333333333334 0 v -3.291666666666667 a 3.291666666666667 3.291666666666667 0 0 1 3.291666666666667 -3.291666666666667 a 3.291666666666667 3.291666666666667 0 0 1 3.291666666666667 3.291666666666667" />
  <path fill="none" stroke="#F8F9FA" stroke-width="3.0" d="M 33.83333333333333 17.666666666666664 m 0.75 0.75 m 0 3.291666666666667 m 6.583333333333334 0 v 3.291666666666667 m -6.583333333333334 0 v -3.291666666666667 a 3.291666666666667 3.291666666666667 0 0 1 3.291666666666667 -3.291666666666667 a 3.291666666666667 3.291666666666667 0 0 1 3.291666666666667 3.291666666666667" />
  <path fill="none" stroke="#F8F9FA" stroke-width="3.0" d="M 33.833333333333336 66.16666666666667 m 0.75 0.75 m 0 6.583333333333334 m 6.583333333333334 0 v 4.9375 m -6.583333333333334 0 v -4.9375 m 0 4.9375 a 3.291666666666667 3.291666666666667 0 0 0 3.291666666666667 3.291666666666667 a 3.291666666666667 3.291666666666667 0 0 0 3.291666666666667 -3.291666666666667" />
  <path fill="none" stroke="#F8F9FA" stroke-width="3.0" d="M 45.958333333333336 66.16666666666667 m 0.75 0.75 m 0 6.583333333333334 m 6.583333333333334 0 v 4.9375 m -6.583333333333334 0 v -4.9375 m 0 4.9375 a 3.291666666666667 3.291666666666667 0 0 0 3.291666666666667 3.291666666666667 a 3.291666666666667 3.291666666666667 0 0 0 3.291666666666667 -3.291666666666667" />
  <path fill="none" stroke="#F8F9FA" stroke-width="3.0" d="M 58.083333333333336 66.16666666666667 m 0.75 0.75 m 0 6.583333333333334 m 6.583333333333334 0 v 4.9375 m -6.583333333333334 0 v -4.9375 m 0 4.9375 a 3.291666666666667 3.291666666666667 0 0 0 3.291666666666667 3.291666666666667 a 3.291666666666667 3.291666666666667 0 0 0 3.291666666666667 -3.291666666666667" />
  <path fill="none" stroke="#F8F9FA" stroke-width="3.0" d="M 66.16666666666667 58.08333333333333 m 0.75 0.75 m 6.583333333333334 0 h 4.9375 m 0 6.583333333333334 h -4.9375 m 4.9375 0 a 3.291666666666667 3.291666666666667 0 0 0 3.291666666666667 -3.291666666666667 a 3.291666666666667 3.291666666666667 0 0 0 -3.291666666666667 -3.291666666666667" />
  <path fill="none" stroke="#F8F9FA" stroke-width="3.0" d="M 66.16666666666667 45.95833333333333 m 0.75 0.75 m 6.583333333333334 0 h 4.9375 m 0 6.583333333333334 h -4.9375 m 4.9375 0 a 3.291666666666667 3.291666666666667 0 0 0 3.291666666666667 -3.291666666666667 a 3.291666666666667 3.291666666666667 0 0 0 -3.291666666666667 -3.291666666666667" />
  <path fill="none" stroke="#F8F9FA" stroke-width="3.0" d="M 66.16666666666667 33.83333333333333 m 0.75 0.75 m 6.583333333333334 0 h 4.9375 m 0 6.583333333333334 h -4.9375 m 4.9375 0 a 3.291666666666667 3.291666666666667 0 0 0 3.291666666666667 -3.291666666666667 a 3.291666666666667 3.291666666666667 0 0 0 -3.291666666666667 -3.291666666666667" />
  <rect x="25.75" y="25.75" width="48.5" height="48.5" rx="8.083333333333334" ry="8.083333333333334" fill="none" stroke="#F8F9FA" stroke-width="3.0" />
  <line stroke-linecap="round" style="stroke:#F8F9FA;stroke-width:3.03125" x1="31.8125" y1="50.0" x2="40.90625" y2="59.09375" />
  <line stroke-linecap="round" style="stroke:#F8F9FA;stroke-width:3.03125" x1="31.8125" y1="50.0" x2="40.90625" y2="40.90625" />
  <line stroke-linecap="round" style="stroke:#F8F9FA;stroke-width:3.03125" x1="68.1875" y1="50.0" x2="59.09375" y2="59.09375" />
  <line stroke-linecap="round" style="stroke:#F8F9FA;stroke-width:3.03125" x1="68.1875" y1="50.0" x2="59.09375" y2="40.90625" />
  <line stroke-linecap="round" style="stroke:#F8F9FA;stroke-width:3.03125" x1="45.453125" y1="61.3671875" x2="50.0" y2="50.0" />
  <line stroke-linecap="round" style="stroke:#F8F9FA;stroke-width:3.03125" x1="54.546875" y1="38.6328125" x2="50.0" y2="50.0" />
</svg>
