<?xml version="1.0" encoding="UTF-8" standalone="no"?>
<!-- Created with Inkscape (http://www.inkscape.org/) -->

<svg
   width="270.93332mm"
   height="270.93332mm"
   viewBox="0 0 270.93332 270.93332"
   version="1.1"
   id="svg1"
   xml:space="preserve"
   inkscape:version="1.4 (e7c3feb1, 2024-10-09)"
   sodipodi:docname="aida-logo.svg"
   xmlns:inkscape="http://www.inkscape.org/namespaces/inkscape"
   xmlns:sodipodi="http://sodipodi.sourceforge.net/DTD/sodipodi-0.dtd"
   xmlns="http://www.w3.org/2000/svg"
   xmlns:svg="http://www.w3.org/2000/svg"><sodipodi:namedview
     id="namedview1"
     pagecolor="#ffffff"
     bordercolor="#000000"
     borderopacity="0.25"
     inkscape:showpageshadow="2"
     inkscape:pageopacity="0.0"
     inkscape:pagecheckerboard="0"
     inkscape:deskcolor="#d1d1d1"
     inkscape:document-units="mm"
     inkscape:zoom="0.50703058"
     inkscape:cx="443.76022"
     inkscape:cy="552.23494"
     inkscape:window-width="1352"
     inkscape:window-height="815"
     inkscape:window-x="0"
     inkscape:window-y="35"
     inkscape:window-maximized="0"
     inkscape:current-layer="layer1" /><defs
     id="defs1" /><g
     inkscape:label="Layer 1"
     inkscape:groupmode="layer"
     id="layer1"
     transform="translate(-147.10835,-98.425018)"
     style="display:inline"><rect
       style="display:inline;fill:#f19a00;fill-opacity:1;stroke:#00000e;stroke-width:2;stroke-dasharray:none"
       id="rect257"
       width="272.09351"
       height="272.09351"
       x="145.58543"
       y="97.917381" /><g
       id="g245"
       style="display:inline"><path
         style="display:inline;fill:#000900"
         d="M 147.10835,233.89168 V 98.425018 H 418.04167 V 369.35834 H 147.10835 Z M 254.3025,355.09986 c 3.7296,-18.97259 9.7483,-31.5629 27.09058,-40.16041 -15.20136,-6.28553 -20.17353,-14.42114 -27.22296,-40.49999 -6.93131,25.82247 -13.99055,30.94186 -26.61936,39.11599 20.6835,10.09122 25.74925,45.31601 26.75174,41.54441 z m 74.39315,-27.40025 c 5.32674,-2.81578 9.51609,-5.67992 15.35142,-7.48763 11.79343,-4.03331 21.6657,-5.4944 36.17683,-8.76421 4.65818,-7.47387 6.51657,-15.37083 3.91261,-21.4234 -4.03112,-4.3575 -7.3407,-10.34159 -13.60588,-11.83332 -9.50873,-0.42107 -17.94299,0.56636 -26.73481,2.64743 -12.57871,5.33804 -28.83615,13.35823 -40.96998,3.83663 -6.15746,-5.93869 -4.77619,-15.61612 -0.79787,-22.46314 0.92085,-6.49523 8.74394,-11.16443 11.80047,-13.96245 9.66535,-11.61394 17.01052,-21.27254 25.05989,-32.95124 7.89837,-20.00935 12.08387,-43.19929 1.89496,-62.36905 -1.0602,-2.70875 -4.9709,-13.16177 0.60711,-14.47005 3.494,1.20919 6.3596,10.67354 10.66845,13.17918 11.62767,9.30955 24.85144,11.07339 39.34152,12.2325 5.99222,-1.31322 16.49687,-13.02941 10.89875,-22.84791 -3.74458,-7.68514 -12.0235,-11.73347 -18.29924,-16.34598 -5.72416,-2.86041 -14.05742,-8.73378 -21.70312,-10.04979 -11.94687,-3.0266 -24.19389,-1.47482 -35.38874,5.20018 -2.08133,3.06034 -7.11483,6.51376 -8.40469,11.76892 -5.5845,11.648 5.22557,23.39976 11.04998,32.76719 4.54184,11.0934 2.73619,25.51856 -1.47179,37.17006 -7.20804,20.61168 -21.67838,32.95006 -38.16443,46.08604 -4.1044,4.67539 -5.34197,10.18646 -9.04208,14.64663 -3.95985,10.27336 -0.39551,21.96577 3.95124,31.38089 5.58453,2.2859 6.7452,6.84461 11.49423,8.50708 4.39624,2.49732 14.9231,3.53941 21.79034,2.65923 6.27135,-1.01482 15.05769,-4.33629 21.38964,-5.87397 7.14449,-2.96157 7.3059,-2.55047 15.3718,-4.81936 6.70131,-2.77231 18.73344,-1.13592 18.32238,8.02162 -1.85959,3.45176 -8.74654,7.22869 -14.62595,6.78668 -10.25119,0.40864 -19.83501,4.59845 -28.27315,10.09995 -1.9962,1.86709 -3.86525,3.77631 -5.18893,4.66263 -2.61233,3.25765 -0.49804,6.61325 3.58904,4.00866 z m 34.36941,-180.60848 c -4.73013,-1.82263 -7.56961,-8.71059 -3.28059,-13.14901 3.3212,-2.87795 3.92124,-2.70273 8.29486,-1.66117 7.61702,6.04214 5.7793,8.41383 1.58825,13.83125 -1.65804,1.50374 -2.46221,1.35019 -6.60252,0.97893 z M 210.76563,326.12912 c 2.6206,-22.89129 12.25025,-39.14335 30.98272,-51.75145 -23.42396,-9.97929 -23.69256,-31.48554 -31.81038,-51.99785 -5.71218,28.68913 -11.14913,41.48264 -32.06326,50.83225 22.4609,9.32993 27.34811,30.8972 32.89092,52.91705 z m 170.06501,-53.19877 c 7.42964,0.0114 15.82393,0.96716 22.84747,-0.66559 1.69601,-4.61839 -4.7864,-8.13798 -3.65352,-10.54235 -9.37508,-40.43747 -7.13444,-33.93402 -14.25909,-68.17955 -0.27594,-7.10721 -5.86788,-15.83678 -3.0739,-21.69182 5.62478,-10.83687 -16.99322,-4.1864 -23.38136,-5.89947 -9.33779,-2.30247 -5.54837,5.66043 -3.50083,9.19486 -0.87135,4.69261 -17.62488,71.99838 -19.21608,81.04021 -1.36661,6.38806 -1.18493,9.74494 -5.12952,12.51255 -2.41367,8.90571 11.47713,2.78459 16.46824,4.43339 8.29288,2.41701 2.41193,-5.79306 2.76573,-10.51521 3.83143,-22.27497 3.27789,-24.22969 7.62535,-25.70152 6.32959,1.37929 19.0301,-3.71624 19.27652,3.43588 2.1752,18.41666 6.76397,22.66708 3.56757,27.40651 -2.61467,0.25777 -1.15356,7.21753 -0.33658,5.17211 z m -19.14522,-49.35742 c -3.26091,-1.2542 2.75307,-23.75363 5.20339,-32.16294 -0.005,3.21471 1.08414,3.61334 1.93814,8.2195 1.58219,7.65826 5.58264,17.07474 4.43271,24.14986 -3.54831,-0.55446 -10.10763,-0.0967 -11.57411,-0.20637 z m 5.28237,44.30787 c 1.27892,-6.62869 4.71381,-9.13793 9.44535,-13.02184 -8.2227,-4.89135 -6.57477,-6.32599 -8.95451,-12.14475 -2.27091,9.37591 -4.79118,8.99861 -9.79,12.53077 6.9201,3.56501 5.49783,4.65597 9.29916,12.63582 z M 176.41205,255.86854 c 4.88831,-0.38123 17.47848,2.70921 14.22415,-4.92803 -3.1234,-1.57529 -2.5636,-6.18458 -1.87637,-9.1754 1.63414,-8.94448 4.36807,-17.73013 5.44349,-26.77092 7.14713,-0.91052 16.05557,-0.70497 24.38971,-0.90535 7.50502,0.23779 6.2132,1.49287 8.65641,10.01374 2.10124,10.52685 5.67376,22.67529 2.53417,24.78565 -4.87234,4.89006 -0.0725,8.62131 8.70659,7.33917 8.62198,-0.37443 26.04164,3.00902 18.82147,-7.60725 -0.84432,-0.64147 -2.57997,-2.45519 -2.75836,-6.05723 -3.90289,-38.41088 -18.88497,-75.34614 -23.79217,-113.47366 -2.74566,-6.90069 1.77636,-10.12289 2.73391,-13.82669 -2.70852,-4.14774 -8.92984,-1.09157 -13.19662,-2.022 -9.70486,0.0809 -20.39035,-0.21614 -29.39215,0.32591 -1.97209,4.47603 6.07666,9.16506 2.21652,14.49135 -10.18666,34.12233 -15.80771,92.29438 -26.43808,118.33477 -0.88366,2.83636 -6.90224,8.18714 -0.45584,9.77845 3.38216,-0.34865 6.79338,-0.25432 10.18317,-0.30251 z m 23.60946,-59.01853 c -3.76371,-2.13257 -1.37426,-5.07613 0.25216,-11.47559 3.55779,-16.08466 1.46962,-6.60437 7.49032,-33.90435 0.44172,-2.74342 2.15038,-14.20623 3.26339,-4.48141 2.08535,8.56042 3.53916,17.05946 5.47434,25.69343 1.56684,6.19675 2.01642,12.75165 3.88883,17.88309 1.06359,4.32239 0.91089,7.22315 -3.80016,6.77901 -8.37527,0.95653 -11.59376,0.0277 -16.56888,-0.49418 z m 65.28981,31.94428 c 2.99323,0.77109 6.99392,-0.2385 4.17801,-5.23955 -2.07325,-7.01181 -1.42758,-65.09883 -0.58396,-72.18814 6.64376,-9.84943 -11.92606,-5.37389 -17.63729,-6.07899 -4.79099,1.45872 2.35748,6.54743 0.77825,10.17312 0.53707,23.89454 -0.63337,47.84266 0.85278,71.67649 2.73054,2.80357 9.44331,1.87209 12.41221,1.65707 z m 23.08453,0.17058 c 4.9465,-0.55809 12.56742,-2.08352 14.15485,-3.8291 1.472,-0.55571 6.60142,-4.30885 7.66523,-6.16408 1.92138,-1.34756 4.97418,-5.35112 5.96072,-7.30507 3.45021,-6.74403 5.81668,-13.18206 6.61456,-20.76979 -0.43611,-11.34112 0.0849,-8.09962 -1.41111,-14.95429 -2.33548,-10.6216 -5.54708,-16.3294 -14.33776,-23.53267 -3.66074,-2.54977 -3.81903,-2.775 -7.86013,-4.95948 -6.4798,-1.89015 -12.99476,-2.89525 -20.23214,-2.28069 -8.0076,-2.27487 -5.08696,5.85971 -2.99487,7.51946 -0.24696,22.84686 0.23421,46.67115 -0.39497,69.27319 -6.96467,6.3491 6.34823,8.25199 12.55484,7.43186 l 0.2802,-0.42889 z m 3.1843,-14.89955 c -0.50089,-18.07724 -0.18796,-36.1719 -0.27389,-54.25697 5.58256,1.22478 4.52944,1.33996 8.93394,5.04982 4.6331,6.50364 3.41456,5.09088 5.98726,15.20322 0.19263,9.06734 0.42719,12.6308 -0.87944,19.1698 -1.76331,3.60604 -4.57655,11.32546 -13.03501,15.32767 l -0.73295,-0.49369 z m -30.3084,-71.8293 c 3.35097,-7.10978 4.79889,-9.58499 11.03227,-12.43176 -6.48324,-5.01034 -7.14752,-6.71004 -9.53345,-14.34432 -2.98397,8.51825 -3.80886,9.99671 -10.98472,13.61955 5.60349,3.48925 6.90562,5.48612 9.4859,13.15653 z"
         id="path247"
         sodipodi:nodetypes="ccccccscccsccccccccccccccccccccccccccccccccccccccccccccccccccccccccccscccssccccccccccccccccccccccccccccccccccccccccccccccccccccccccccccccccc" /><path
         id="path250"
         style="display:inline;fill:#c93d00"
         d="m 349.03906,113.02539 c -3.51559,0.13051 -7.06903,0.4339 -10.45895,1.41067 -19.31249,7.23217 -24.39632,14.90012 -21.78333,30.40694 5.36436,14.39138 12.10915,12.07862 13.80668,37.56184 0.10509,1.72656 -0.056,3.45458 0.0741,5.18222 -0.0424,5.11158 -1.62604,10.05776 -3.13273,14.86611 -0.48267,1.65463 -1.38951,3.14428 -1.98454,4.761 -6.52135,13.4594 -18.10587,25.2519 -29.7712,34.3288 -5.90015,4.34762 -11.70698,13.935 -11.94169,14.45983 -5.30424,8.9531 -6.60794,19.49716 -3.7115,29.47463 1.01588,3.23741 2.79705,6.20112 5.11687,8.67165 3.71811,4.24165 8.50581,7.59809 13.91512,9.27982 7.16944,2.29906 14.89386,2.13556 22.25057,0.91863 5.3943,-0.87357 26.66912,-8.29741 37.32145,-11.03914 3.64898,-0.63465 7.43712,-0.14583 10.7206,1.65671 2.07435,1.15382 3.63321,3.44932 3.33292,5.89057 -4.97277,7.46626 -8.66952,7.27396 -16.1617,8.10077 -10.31112,0.53923 -18.20278,4.00347 -26.05848,9.91913 -2.80234,1.90926 -6.49003,4.21029 -6.61165,7.66227 0.57946,5.78568 8.17186,0.40588 10.22783,-1.83605 12.54264,-6.41535 21.34545,-8.01547 35.93108,-7.80586 2.56694,-0.56181 3.51179,0.32214 7.5768,-3.05218 2.90741,-2.97432 2.45732,-2.04388 6.07692,-7.24369 2.98408,-2.99976 1.7828,-12.2099 1.78229,-12.21564 -0.746,-4.02702 -2.92376,-7.63316 -5.41704,-10.81361 -4.51531,-4.33461 -10.82889,-6.60281 -17.05816,-6.43435 -3.45155,-0.008 -6.89442,0.40767 -10.2386,1.26482 -5.04578,1.20671 -10.09073,2.56209 -14.80651,4.76455 -5.70343,2.84873 -12.15826,4.29248 -18.46195,5.17987 -6.62292,0.80682 -12.42454,-0.56234 -14.84218,-2.66354 -5.35044,-3.77998 -5.7021,-7.04055 -6.03298,-13.63264 0.15832,-3.58958 1.90791,-7.12706 7.78068,-16.69035 10.16223,-10.10469 20.17211,-21.16517 28.45306,-33.14675 6.73259,-9.04789 7.92771,-18.96792 11.30478,-29.20548 1.88035,-10.43528 1.50578,-21.38162 -1.86338,-31.47893 -1.4803,-5.58239 -5.21031,-10.43742 -5.74196,-16.29 -0.6095,-5.10237 3.74159,-8.08378 5.9665,-0.46496 2.7081,4.92164 9.20959,9.78291 11.37786,11.27773 4.39349,3.47245 11.98819,5.88017 17.41755,7.1866 9.56754,1.99454 18.2356,3.96213 26.01995,-2.89168 3.57776,-2.77053 4.29805,-6.57508 4.82844,-11.93628 -0.22461,-6.51854 -2.55235,-9.84187 -5.73059,-13.71702 -3.18994,-3.18902 -2.23096,-2.70871 -10.32441,-7.96779 -9.21438,-5.97399 -21.08287,-11.57798 -27.35782,-12.58024 -3.86864,-0.83326 -7.83412,-1.19741 -11.79062,-1.11898 z m 16.04102,14.66016 c 4.43293,-0.0689 8.86064,2.38136 11.02195,6.27024 2.63025,4.98346 0.75362,11.55493 -3.61428,14.92175 -2.3155,1.82501 -5.39468,2.43418 -8.28173,2.1724 -4.88657,-0.61709 -9.20127,-4.58722 -10.15573,-9.42542 -0.60859,-4.00204 0.81039,-8.41059 4.09229,-10.85304 1.0815,-0.86149 2.03719,-1.93526 3.3859,-2.395 1.12331,-0.45942 2.34054,-0.67418 3.5516,-0.69093 z m 33.27148,24.86328 c -0.009,0.45237 0.50029,2.16215 0.25261,2.46061 -0.43462,0.0528 -2.91088,-0.24613 -2.45507,-0.74675 0.44742,-1.15873 1.86532,-1.61403 2.20246,-1.71386 z m -10.65429,0.25586 c 0.53346,0.47072 2.03738,1.4021 1.90201,2.14843 0.75472,1.29919 -2.67678,1.51242 -2.72492,0.89062 -0.20911,-0.73288 0.6267,-2.33532 0.74087,-3.09765 l 0.0814,0.0581 z"
         sodipodi:nodetypes="scccccccccccccccccccccccccccccccccccccccccccssccccccccccccsccccs" /></g></g></svg>
