<svg id="Layer_1" data-name="Layer 1" xmlns="http://www.w3.org/2000/svg" viewBox="0 0 1100.65 384.36"><defs><style>.cls-1{fill:#1200df;}.cls-1,.cls-10,.cls-11,.cls-12,.cls-13,.cls-14,.cls-15,.cls-16,.cls-17,.cls-2,.cls-3,.cls-4,.cls-5,.cls-6,.cls-7,.cls-8,.cls-9{stroke:#fff;stroke-miterlimit:10;}.cls-2{fill:#2a72ff;}.cls-3{fill:#004b94;}.cls-4{fill:#002faa;}.cls-5{fill:#009c70;}.cls-6{fill:#00ce53;}.cls-7{fill:#00c570;}.cls-8{fill:#9f2800;}.cls-9{fill:#350400;}.cls-10{fill:#d41a00;}.cls-11{fill:#8a0b00;}.cls-12{fill:#9f5000;}.cls-13{fill:#ff7e1f;}.cls-14{fill:#c97700;}.cls-15{fill:#7500b4;}.cls-16{fill:#bc00c9;}.cls-17{fill:#9600bf;}</style></defs><g id="C"><polygon class="cls-1" points="200.44 27.9 200.44 27.98 150.45 55.23 100.47 27.93 100.47 27.9 150.45 0.57 150.46 0.57 200.44 27.9"/><polygon class="cls-2" points="200.44 27.98 200.44 82.57 150.45 109.9 150.45 55.23 200.44 27.98"/><polygon class="cls-2" points="150.45 55.23 150.45 109.9 100.47 82.56 100.47 27.93 150.45 55.23"/><polygon class="cls-2" points="200.44 301.19 200.44 355.86 150.45 328.52 150.45 273.89 200.44 301.19"/><polygon class="cls-1" points="250.42 55.18 250.42 55.26 200.44 82.52 150.45 55.21 150.45 55.18 200.44 27.85 200.44 27.85 250.42 55.18"/><polygon class="cls-3" points="200.44 82.52 200.44 137.18 150.45 109.84 150.45 55.21 200.44 82.52"/><polygon class="cls-1" points="150.45 55.16 150.45 55.23 100.47 82.49 50.48 55.18 50.48 55.15 100.47 27.83 100.47 27.82 150.45 55.16"/><polygon class="cls-4" points="150.45 55.23 150.45 109.82 100.47 137.15 100.47 82.49 150.45 55.23"/><polygon class="cls-4" points="250.42 55.23 250.42 109.82 200.43 137.15 200.43 82.49 250.42 55.23"/><polygon class="cls-4" points="100.47 82.49 100.47 137.15 50.48 109.82 50.48 55.18 100.47 82.49"/><polygon class="cls-3" points="100.47 246.48 100.47 246.56 50.48 273.81 0.5 246.51 0.5 246.48 50.48 219.15 50.49 219.15 100.47 246.48"/><polygon class="cls-2" points="100.47 246.56 100.47 301.14 50.48 328.47 50.48 273.81 100.47 246.56"/><polygon class="cls-3" points="50.48 273.81 50.48 328.47 0.5 301.14 0.5 246.51 50.48 273.81"/><polygon class="cls-4" points="100.47 191.82 100.47 191.89 50.48 219.15 0.5 191.84 0.5 191.81 50.48 164.49 50.49 164.48 100.47 191.82"/><polygon class="cls-4" points="100.47 191.89 100.47 246.48 50.48 273.81 50.48 219.15 100.47 191.89"/><polygon class="cls-3" points="50.48 219.15 50.48 273.81 0.5 246.48 0.5 191.84 50.48 219.15"/><polygon class="cls-4" points="100.47 137.15 100.47 137.23 50.48 164.48 0.5 137.18 0.5 137.15 50.48 109.82 50.49 109.82 100.47 137.15"/><polygon class="cls-4" points="100.47 137.23 100.47 191.82 50.48 219.15 50.48 164.48 100.47 137.23"/><polygon class="cls-3" points="50.48 164.48 50.48 219.15 0.5 191.81 0.5 137.18 50.48 164.48"/><polygon class="cls-1" points="100.47 82.49 100.47 82.56 50.48 109.82 0.5 82.52 0.5 82.49 50.48 55.16 50.49 55.16 100.47 82.49"/><polygon class="cls-4" points="100.47 82.56 100.47 137.15 50.48 164.48 50.48 109.82 100.47 82.56"/><polygon class="cls-3" points="50.48 109.82 50.48 164.48 0.5 137.15 0.5 82.52 50.48 109.82"/><polygon class="cls-1" points="150.45 273.81 150.45 273.89 100.47 301.14 50.48 273.84 50.48 273.81 100.47 246.48 100.47 246.48 150.45 273.81"/><polygon class="cls-2" points="150.45 273.89 150.45 328.48 100.47 355.81 100.47 301.14 150.45 273.89"/><polygon class="cls-3" points="100.47 301.14 100.47 355.81 50.48 328.47 50.48 273.84 100.47 301.14"/><polygon class="cls-1" points="200.44 301.12 200.44 301.19 150.45 328.45 100.47 301.14 100.47 301.11 150.45 273.79 150.46 273.78 200.44 301.12"/><polygon class="cls-4" points="200.44 301.19 200.44 355.78 150.45 383.11 150.45 328.45 200.44 301.19"/><polygon class="cls-3" points="150.45 328.45 150.45 383.11 100.47 355.78 100.47 301.14 150.45 328.45"/></g><g id="A"><g id="basic_A"><polygon class="cls-5" points="450.34 219.22 450.34 273.81 425.6 287.34 425.59 287.34 403.98 299.16 400.36 301.14 400.35 301.14 400.35 246.47 400.36 246.47 400.6 246.33 425.59 232.71 425.6 232.71 450.34 219.22"/><polygon class="cls-6" points="450.34 219.15 450.34 219.22 400.36 246.48 350.37 219.17 350.37 219.15 400.36 191.82 400.36 191.81 450.34 219.15"/><polygon class="cls-7" points="400.36 246.48 400.36 301.14 350.37 273.81 350.37 219.17 400.36 246.48"/></g><g id="basic_A-2" data-name="basic_A"><polygon class="cls-5" points="350.38 219.43 350.38 274.02 325.64 287.55 325.63 287.55 304.02 299.37 300.4 301.35 300.39 301.35 300.39 246.68 300.4 246.68 300.64 246.54 325.63 232.92 325.64 232.92 350.38 219.43"/><polygon class="cls-6" points="350.38 219.35 350.38 219.43 300.39 246.68 250.41 219.38 250.41 219.35 300.39 192.02 300.4 192.02 350.38 219.35"/><polygon class="cls-7" points="300.39 246.68 300.39 301.35 250.41 274.01 250.41 219.38 300.39 246.68"/></g><g id="basic_A-3" data-name="basic_A"><polygon class="cls-5" points="300.4 192.02 300.4 246.61 275.66 260.14 275.65 260.14 254.04 271.96 250.42 273.94 250.41 273.94 250.41 219.27 250.42 219.27 250.66 219.13 275.65 205.51 275.66 205.51 300.4 192.02"/><polygon class="cls-6" points="300.4 191.94 300.4 192.02 250.41 219.28 200.43 191.97 200.43 191.94 250.41 164.61 250.42 164.61 300.4 191.94"/><polygon class="cls-7" points="250.41 219.28 250.41 273.94 200.43 246.6 200.43 191.97 250.41 219.28"/></g><g id="basic_A-4" data-name="basic_A"><polygon class="cls-5" points="350.38 110.65 350.38 165.24 325.64 178.77 325.63 178.77 304.02 190.59 300.4 192.57 300.39 192.57 300.39 137.9 300.4 137.9 300.64 137.76 325.63 124.14 325.64 124.14 350.38 110.65"/><polygon class="cls-6" points="350.37 110.58 350.37 110.65 300.39 137.91 250.41 110.6 250.41 110.57 300.39 83.25 300.39 83.24 350.37 110.58"/><polygon class="cls-7" points="300.39 137.91 300.39 192.57 250.41 165.24 250.41 110.6 300.39 137.91"/></g><g id="basic_A-5" data-name="basic_A"><polygon class="cls-5" points="450.36 110.65 450.36 165.24 425.62 178.77 425.61 178.77 404 190.59 400.38 192.57 400.37 192.57 400.37 137.9 400.38 137.9 400.62 137.76 425.61 124.14 425.62 124.14 450.36 110.65"/><polygon class="cls-6" points="450.36 110.57 450.36 110.65 400.38 137.91 350.39 110.6 350.39 110.57 400.38 83.24 400.38 83.24 450.36 110.57"/><polygon class="cls-7" points="400.38 137.91 400.38 192.57 350.39 165.24 350.39 110.6 400.38 137.91"/></g><g id="basic_A-6" data-name="basic_A"><polygon class="cls-5" points="400.36 28.73 400.36 83.32 375.62 96.85 375.61 96.85 354 108.67 350.38 110.65 350.37 110.65 350.37 55.98 350.38 55.98 350.62 55.84 375.61 42.22 375.62 42.22 400.36 28.73"/><polygon class="cls-6" points="400.36 28.66 400.36 28.73 350.37 55.98 300.39 28.68 300.39 28.65 350.37 1.32 350.38 1.32 400.36 28.66"/><polygon class="cls-7" points="350.37 55.98 350.37 110.65 300.39 83.32 300.39 28.68 350.37 55.98"/></g><g id="basic_A-7" data-name="basic_A"><polygon class="cls-5" points="550.33 273.86 550.33 328.45 525.59 341.98 525.58 341.98 503.97 353.8 500.35 355.78 500.34 355.78 500.34 301.11 500.35 301.11 500.59 300.97 525.58 287.35 525.59 287.35 550.33 273.86"/><polygon class="cls-6" points="550.33 273.79 550.33 273.86 500.35 301.12 450.36 273.81 450.36 273.78 500.35 246.45 500.35 246.45 550.33 273.79"/><polygon class="cls-7" points="500.35 301.12 500.35 355.78 450.36 328.44 450.36 273.81 500.35 301.12"/></g><g id="basic_A-8" data-name="basic_A"><polygon class="cls-5" points="500.34 191.94 500.34 246.53 475.6 260.06 475.59 260.06 453.98 271.88 450.36 273.86 450.35 273.86 450.35 219.19 450.36 219.19 450.6 219.05 475.59 205.43 475.6 205.43 500.34 191.94"/><polygon class="cls-6" points="500.34 191.87 500.34 191.94 450.35 219.2 400.37 191.89 400.37 191.86 450.35 164.53 450.36 164.53 500.34 191.87"/><polygon class="cls-7" points="450.35 219.2 450.35 273.86 400.37 246.53 400.37 191.89 450.35 219.2"/></g><polygon class="cls-6" points="250.41 273.86 250.41 273.94 250.03 274.15 200.44 301.19 150.46 273.89 150.46 273.86 150.53 273.82 200.44 246.53 200.9 246.78 250.41 273.86"/><polygon class="cls-5" points="250.42 273.94 250.42 328.53 200.44 355.86 200.44 301.19 250.42 273.94"/></g><g id="s"><g id="basic_s"><polygon class="cls-8" points="1100.15 301.12 1100.15 301.15 1075.15 314.78 1050.16 301.13 1050.16 301.11 1075.15 287.45 1075.16 287.45 1100.15 301.12"/><polygon class="cls-9" points="1100.15 273.81 1100.15 301.11 1087.78 307.87 1087.77 307.87 1076.97 313.78 1075.16 314.77 1075.15 314.77 1075.15 287.44 1075.16 287.44 1075.28 287.37 1087.77 280.56 1087.78 280.56 1100.15 273.81"/><polygon class="cls-10" points="1100.15 273.78 1100.15 273.81 1075.15 287.44 1050.16 273.79 1050.16 273.77 1075.15 260.11 1075.16 260.11 1100.15 273.78"/><polygon class="cls-11" points="1075.15 287.44 1075.15 314.77 1050.16 301.11 1050.16 273.79 1075.15 287.44"/></g><g id="basic_s-2" data-name="basic_s"><polygon class="cls-8" points="1075.15 314.78 1075.15 314.82 1050.16 328.45 1025.17 314.8 1025.17 314.78 1050.16 301.12 1050.16 301.12 1075.15 314.78"/><polygon class="cls-9" points="1075.16 287.48 1075.16 314.78 1062.79 321.54 1062.78 321.54 1051.98 327.45 1050.17 328.44 1050.16 328.44 1050.16 301.11 1050.17 301.11 1050.29 301.04 1062.78 294.23 1062.79 294.23 1075.16 287.48"/><polygon class="cls-10" points="1075.16 287.45 1075.16 287.48 1050.16 301.11 1025.17 287.46 1025.17 287.44 1050.16 273.78 1050.16 273.78 1075.16 287.45"/><polygon class="cls-11" points="1050.16 301.11 1050.16 328.44 1025.17 314.78 1025.17 287.46 1050.16 301.11"/></g><g id="basic_s-3" data-name="basic_s"><polygon class="cls-8" points="1050.16 328.64 1050.16 328.68 1025.17 342.31 1000.18 328.65 1000.18 328.64 1025.17 314.98 1025.17 314.98 1050.16 328.64"/><polygon class="cls-9" points="1050.16 301.34 1050.16 328.64 1037.8 335.4 1037.79 335.4 1026.98 341.31 1025.17 342.3 1025.17 342.3 1025.17 314.97 1025.17 314.97 1025.3 314.9 1037.79 308.09 1037.8 308.09 1050.16 301.34"/><polygon class="cls-10" points="1050.16 301.3 1050.16 301.34 1025.17 314.97 1000.18 301.32 1000.18 301.3 1025.17 287.64 1025.17 287.64 1050.16 301.3"/><polygon class="cls-11" points="1025.17 314.97 1025.17 342.3 1000.18 328.63 1000.18 301.32 1025.17 314.97"/></g><g id="basic_s-4" data-name="basic_s"><polygon class="cls-8" points="1025.17 342.31 1025.17 342.35 1000.18 355.98 975.19 342.32 975.19 342.31 1000.18 328.65 1000.18 328.64 1025.17 342.31"/><polygon class="cls-9" points="1025.17 315.01 1025.17 342.31 1012.8 349.07 1012.8 349.07 1001.99 354.98 1000.18 355.97 1000.18 355.97 1000.18 328.64 1000.18 328.64 1000.3 328.57 1012.8 321.76 1012.8 321.76 1025.17 315.01"/><polygon class="cls-10" points="1025.17 314.97 1025.17 315.01 1000.18 328.64 975.19 314.99 975.19 314.97 1000.18 301.31 1000.18 301.31 1025.17 314.97"/><polygon class="cls-11" points="1000.18 328.64 1000.18 355.97 975.19 342.3 975.19 314.99 1000.18 328.64"/></g><g id="basic_s-5" data-name="basic_s"><polygon class="cls-8" points="1100.15 273.82 1100.15 273.86 1075.16 287.49 1050.16 273.84 1050.16 273.82 1075.16 260.16 1075.16 260.16 1100.15 273.82"/><polygon class="cls-9" points="1100.15 246.52 1100.15 273.82 1087.78 280.58 1087.77 280.58 1076.97 286.49 1075.16 287.48 1075.15 287.48 1075.15 260.15 1075.16 260.15 1075.28 260.08 1087.77 253.27 1087.78 253.27 1100.15 246.52"/><polygon class="cls-10" points="1100.15 246.49 1100.15 246.53 1075.16 260.15 1050.16 246.5 1050.16 246.49 1075.16 232.82 1075.16 232.82 1100.15 246.49"/><polygon class="cls-11" points="1075.16 260.15 1075.16 287.48 1050.16 273.82 1050.16 246.5 1075.16 260.15"/></g><g id="basic_s-6" data-name="basic_s"><polygon class="cls-8" points="1100.15 246.45 1100.15 246.49 1075.16 260.12 1050.16 246.46 1050.16 246.45 1075.16 232.79 1075.16 232.78 1100.15 246.45"/><polygon class="cls-9" points="1100.15 219.15 1100.15 246.44 1087.78 253.21 1087.77 253.21 1076.97 259.12 1075.16 260.11 1075.15 260.11 1075.15 232.78 1075.16 232.78 1075.28 232.71 1087.77 225.9 1087.78 225.9 1100.15 219.15"/><polygon class="cls-10" points="1100.15 219.11 1100.15 219.15 1075.16 232.78 1050.16 219.13 1050.16 219.11 1075.16 205.45 1075.16 205.45 1100.15 219.11"/><polygon class="cls-11" points="1075.16 232.78 1075.16 260.11 1050.16 246.44 1050.16 219.13 1075.16 232.78"/></g><g id="basic_s-7" data-name="basic_s"><polygon class="cls-8" points="1075.15 260.11 1075.15 260.15 1050.16 273.78 1025.17 260.13 1025.17 260.11 1050.16 246.45 1050.16 246.45 1075.15 260.11"/><polygon class="cls-9" points="1075.15 232.81 1075.15 260.11 1062.78 266.87 1062.78 266.87 1051.97 272.78 1050.16 273.77 1050.16 273.77 1050.16 246.44 1050.16 246.44 1050.28 246.37 1062.78 239.56 1062.78 239.56 1075.15 232.81"/><polygon class="cls-10" points="1075.15 232.78 1075.15 232.81 1050.16 246.44 1025.17 232.79 1025.17 232.77 1050.16 219.11 1050.16 219.11 1075.15 232.78"/><polygon class="cls-11" points="1050.16 246.44 1050.16 273.77 1025.17 260.11 1025.17 232.79 1050.16 246.44"/></g><g id="basic_s-8" data-name="basic_s"><polygon class="cls-8" points="1050.16 273.8 1050.16 273.84 1025.17 287.46 1000.18 273.81 1000.18 273.8 1025.17 260.13 1025.17 260.13 1050.16 273.8"/><polygon class="cls-9" points="1050.16 246.5 1050.16 273.79 1037.8 280.56 1037.79 280.56 1026.98 286.47 1025.17 287.46 1025.17 287.46 1025.17 260.12 1025.17 260.12 1025.3 260.05 1037.79 253.24 1037.8 253.24 1050.16 246.5"/><polygon class="cls-10" points="1050.16 246.46 1050.16 246.5 1025.17 260.13 1000.18 246.47 1000.18 246.46 1025.17 232.8 1025.17 232.79 1050.16 246.46"/><polygon class="cls-11" points="1025.17 260.13 1025.17 287.46 1000.18 273.79 1000.18 246.47 1025.17 260.13"/></g><g id="basic_s-9" data-name="basic_s"><polygon class="cls-8" points="1025.17 287.44 1025.17 287.48 1000.18 301.11 975.19 287.45 975.19 287.44 1000.18 273.78 1000.18 273.78 1025.17 287.44"/><polygon class="cls-9" points="1025.17 260.14 1025.17 287.44 1012.8 294.2 1012.8 294.2 1001.99 300.11 1000.18 301.1 1000.18 301.1 1000.18 273.77 1000.18 273.77 1000.3 273.7 1012.8 266.89 1012.8 266.89 1025.17 260.14"/><polygon class="cls-10" points="1025.17 260.1 1025.17 260.14 1000.18 273.77 975.19 260.12 975.19 260.1 1000.18 246.44 1000.18 246.44 1025.17 260.1"/><polygon class="cls-11" points="1000.18 273.77 1000.18 301.1 975.19 287.44 975.19 260.12 1000.18 273.77"/></g><g id="basic_s-10" data-name="basic_s"><polygon class="cls-8" points="1025.17 260.19 1025.17 260.23 1000.18 273.86 975.19 260.21 975.19 260.19 1000.18 246.53 1000.18 246.53 1025.17 260.19"/><polygon class="cls-9" points="1025.17 232.89 1025.17 260.19 1012.8 266.95 1012.8 266.95 1001.99 272.86 1000.18 273.85 1000.18 273.85 1000.18 246.52 1000.18 246.52 1000.3 246.45 1012.8 239.64 1012.8 239.64 1025.17 232.89"/><polygon class="cls-10" points="1025.17 232.86 1025.17 232.89 1000.18 246.52 975.19 232.87 975.19 232.85 1000.18 219.19 1000.18 219.19 1025.17 232.86"/><polygon class="cls-11" points="1000.18 246.52 1000.18 273.85 975.19 260.19 975.19 232.87 1000.18 246.52"/></g><g id="basic_s-11" data-name="basic_s"><polygon class="cls-8" points="1100.14 191.44 1100.14 191.48 1075.15 205.11 1050.16 191.45 1050.16 191.44 1075.15 177.78 1075.15 177.77 1100.14 191.44"/><polygon class="cls-9" points="1100.14 164.14 1100.14 191.44 1087.78 198.2 1087.77 198.2 1076.96 204.11 1075.15 205.1 1075.15 205.1 1075.15 177.77 1075.15 177.77 1075.28 177.7 1087.77 170.89 1087.78 170.89 1100.14 164.14"/><polygon class="cls-10" points="1100.14 164.1 1100.14 164.14 1075.15 177.77 1050.16 164.12 1050.16 164.1 1075.15 150.44 1075.15 150.44 1100.14 164.1"/><polygon class="cls-11" points="1075.15 177.77 1075.15 205.1 1050.16 191.43 1050.16 164.12 1075.15 177.77"/></g><g id="basic_s-12" data-name="basic_s"><polygon class="cls-8" points="1075.16 205.06 1075.16 205.1 1050.16 218.73 1025.17 205.07 1025.17 205.06 1050.16 191.4 1050.17 191.4 1075.16 205.06"/><polygon class="cls-9" points="1075.16 177.76 1075.16 205.06 1062.79 211.82 1062.78 211.82 1051.98 217.73 1050.17 218.72 1050.16 218.72 1050.16 191.39 1050.17 191.39 1050.29 191.32 1062.78 184.51 1062.79 184.51 1075.16 177.76"/><polygon class="cls-10" points="1075.16 177.72 1075.16 177.76 1050.16 191.39 1025.17 177.74 1025.17 177.72 1050.16 164.06 1050.17 164.06 1075.16 177.72"/><polygon class="cls-11" points="1050.16 191.39 1050.16 218.72 1025.17 205.05 1025.17 177.74 1050.16 191.39"/></g><g id="basic_s-13" data-name="basic_s"><polygon class="cls-8" points="1050.16 218.73 1050.16 218.77 1025.17 232.4 1000.18 218.74 1000.18 218.73 1025.17 205.07 1025.17 205.06 1050.16 218.73"/><polygon class="cls-9" points="1050.16 191.43 1050.16 218.72 1037.79 225.49 1037.79 225.49 1026.98 231.4 1025.17 232.39 1025.17 232.39 1025.17 205.06 1025.17 205.06 1025.29 204.99 1037.79 198.18 1037.79 198.18 1050.16 191.43"/><polygon class="cls-10" points="1050.16 191.39 1050.16 191.43 1025.17 205.06 1000.18 191.41 1000.18 191.39 1025.17 177.73 1025.17 177.73 1050.16 191.39"/><polygon class="cls-11" points="1025.17 205.06 1025.17 232.39 1000.18 218.72 1000.18 191.41 1025.17 205.06"/></g><g id="basic_s-14" data-name="basic_s"><polygon class="cls-8" points="1025.17 232.4 1025.17 232.44 1000.18 246.06 975.19 232.41 975.19 232.4 1000.18 218.74 1000.18 218.73 1025.17 232.4"/><polygon class="cls-9" points="1025.17 205.1 1025.17 232.39 1012.8 239.16 1012.8 239.16 1001.99 245.07 1000.18 246.06 1000.18 246.06 1000.18 218.72 1000.18 218.72 1000.3 218.65 1012.8 211.84 1012.8 211.84 1025.17 205.1"/><polygon class="cls-10" points="1025.17 205.06 1025.17 205.1 1000.18 218.73 975.19 205.07 975.19 205.06 1000.18 191.4 1000.18 191.4 1025.17 205.06"/><polygon class="cls-11" points="1000.18 218.73 1000.18 246.06 975.19 232.39 975.19 205.07 1000.18 218.73"/></g></g><g id="N2"><g id="basic_N2"><polygon class="cls-12" points="850.22 219.47 850.22 274.06 825.48 287.59 825.47 287.59 803.86 299.41 800.24 301.39 800.23 301.39 800.23 246.72 800.24 246.72 800.48 246.58 825.47 232.96 825.48 232.96 850.22 219.47"/><polygon class="cls-13" points="850.22 219.39 850.22 219.47 800.24 246.72 750.25 219.42 750.25 219.39 800.24 192.06 800.24 192.06 850.22 219.39"/><polygon class="cls-14" points="800.24 246.72 800.24 301.39 750.25 274.05 750.25 219.42 800.24 246.72"/></g><g id="basic_N2-2" data-name="basic_N2"><polygon class="cls-12" points="850.22 164.91 850.22 219.5 825.48 233.03 825.47 233.03 803.86 244.85 800.24 246.83 800.23 246.83 800.23 192.16 800.24 192.16 800.48 192.02 825.47 178.4 825.48 178.4 850.22 164.91"/><polygon class="cls-13" points="850.22 164.83 850.22 164.91 800.24 192.16 750.25 164.86 750.25 164.83 800.24 137.5 800.24 137.5 850.22 164.83"/><polygon class="cls-14" points="800.24 192.16 800.24 246.82 750.25 219.49 750.25 164.86 800.24 192.16"/></g><g id="basic_N2-3" data-name="basic_N2"><polygon class="cls-12" points="850.22 110.24 850.22 164.83 825.48 178.36 825.47 178.36 803.86 190.18 800.24 192.16 800.23 192.16 800.23 137.49 800.24 137.49 800.48 137.35 825.47 123.73 825.48 123.73 850.22 110.24"/><polygon class="cls-13" points="850.22 110.17 850.22 110.24 800.24 137.5 750.25 110.19 750.25 110.16 800.24 82.84 800.24 82.83 850.22 110.17"/><polygon class="cls-14" points="800.24 137.5 800.24 192.16 750.25 164.83 750.25 110.19 800.24 137.5"/></g><g id="basic_N2-4" data-name="basic_N2"><polygon class="cls-12" points="850.22 55.47 850.22 110.06 825.48 123.59 825.47 123.59 803.86 135.41 800.24 137.39 800.23 137.39 800.23 82.72 800.24 82.72 800.48 82.58 825.47 68.96 825.48 68.96 850.22 55.47"/><polygon class="cls-13" points="850.22 55.4 850.22 55.47 800.24 82.73 750.25 55.42 750.25 55.4 800.24 28.07 800.24 28.07 850.22 55.4"/><polygon class="cls-14" points="800.24 82.73 800.24 137.39 750.25 110.06 750.25 55.42 800.24 82.73"/></g><g id="basic_N2-5" data-name="basic_N2"><polygon class="cls-14" points="950.2 219.19 950.2 273.79 925.46 287.31 925.45 287.31 903.84 299.13 900.22 301.12 900.21 301.12 900.21 246.44 900.22 246.44 900.46 246.31 925.45 232.69 925.46 232.69 950.2 219.19"/><polygon class="cls-13" points="950.19 219.12 950.19 219.2 900.21 246.45 850.23 219.15 850.23 219.12 900.21 191.79 900.21 191.79 950.19 219.12"/><polygon class="cls-14" points="900.21 246.45 900.21 301.11 850.23 273.78 850.23 219.15 900.21 246.45"/></g><g id="basic_N2-6" data-name="basic_N2"><polygon class="cls-12" points="900.21 136.81 900.21 191.4 875.47 204.93 875.46 204.93 853.85 216.75 850.23 218.73 850.22 218.73 850.22 164.06 850.23 164.06 850.47 163.92 875.46 150.3 875.47 150.3 900.21 136.81"/><polygon class="cls-13" points="900.21 136.74 900.21 136.81 850.23 164.07 800.24 136.76 800.24 136.73 850.23 109.41 850.23 109.4 900.21 136.74"/><polygon class="cls-14" points="850.23 164.07 850.23 218.73 800.24 191.4 800.24 136.76 850.23 164.07"/></g><g id="basic_N2-7" data-name="basic_N2"><polygon class="cls-12" points="1000.18 301.6 1000.18 356.19 975.44 369.72 975.43 369.72 953.82 381.54 950.2 383.52 950.19 383.52 950.19 328.85 950.2 328.85 950.44 328.71 975.43 315.09 975.44 315.09 1000.18 301.6"/><polygon class="cls-13" points="1000.18 302.52 1000.18 302.6 950.19 329.85 900.21 302.55 900.21 302.52 950.19 275.19 950.2 275.19 1000.18 302.52"/><polygon class="cls-14" points="950.19 328.85 950.19 383.52 900.21 356.18 900.21 301.55 950.19 328.85"/></g><g id="basic_N2-8" data-name="basic_N2"><polygon class="cls-12" points="1000.18 246.89 1000.18 301.48 975.44 315.01 975.43 315.01 953.82 326.83 950.2 328.81 950.19 328.81 950.19 274.14 950.2 274.14 950.44 274 975.43 260.38 975.44 260.38 1000.18 246.89"/><polygon class="cls-12" points="1000.18 246.81 1000.18 246.89 950.19 274.14 900.21 246.84 900.21 246.81 950.19 219.48 950.2 219.48 1000.18 246.81"/><polygon class="cls-14" points="950.19 274.14 950.19 328.81 900.21 301.47 900.21 246.84 950.19 274.14"/></g><g id="basic_N2-9" data-name="basic_N2"><polygon class="cls-12" points="1000.18 192.22 1000.18 246.81 975.44 260.34 975.43 260.34 953.82 272.16 950.2 274.14 950.19 274.14 950.19 219.47 950.2 219.47 950.44 219.33 975.43 205.71 975.44 205.71 1000.18 192.22"/><polygon class="cls-13" points="1000.18 192.15 1000.18 192.22 950.19 219.48 900.21 192.18 900.21 192.15 950.19 164.82 950.2 164.82 1000.18 192.15"/><polygon class="cls-14" points="950.19 219.48 950.19 274.14 900.21 246.81 900.21 192.18 950.19 219.48"/></g><g id="basic_N2-10" data-name="basic_N2"><polygon class="cls-12" points="1000.18 137.46 1000.18 192.05 975.44 205.58 975.43 205.58 953.82 217.4 950.2 219.38 950.19 219.38 950.19 164.71 950.2 164.71 950.44 164.57 975.43 150.95 975.44 150.95 1000.18 137.46"/><polygon class="cls-13" points="1000.18 137.38 1000.18 137.46 950.19 164.71 900.21 137.41 900.21 137.38 950.19 110.05 950.2 110.05 1000.18 137.38"/><polygon class="cls-14" points="950.19 164.71 950.19 219.38 900.21 192.04 900.21 137.41 950.19 164.71"/></g></g><g id="N1"><g id="basic_N1"><polygon class="cls-15" points="750.26 220.32 750.26 274.91 725.52 288.44 725.51 288.44 703.9 300.26 700.28 302.24 700.27 302.24 700.27 247.57 700.28 247.57 700.52 247.43 725.51 233.81 725.52 233.81 750.26 220.32"/><polygon class="cls-16" points="750.26 220.25 750.26 220.32 700.27 247.58 650.29 220.27 650.29 220.25 700.27 192.92 700.28 192.91 750.26 220.25"/><polygon class="cls-17" points="700.27 247.58 700.27 302.24 650.29 274.91 650.29 220.27 700.27 247.58"/></g><g id="basic_N1-2" data-name="basic_N1"><polygon class="cls-15" points="750.25 165.62 750.25 220.21 725.51 233.74 725.5 233.74 703.89 245.56 700.27 247.54 700.26 247.54 700.26 192.87 700.27 192.87 700.51 192.73 725.5 179.11 725.51 179.11 750.25 165.62"/><polygon class="cls-16" points="750.25 165.55 750.25 165.62 700.27 192.88 650.29 165.57 650.29 165.54 700.27 138.22 700.27 138.21 750.25 165.55"/><polygon class="cls-17" points="700.27 192.88 700.27 247.54 650.29 220.21 650.29 165.57 700.27 192.88"/></g><g id="basic_N1-3" data-name="basic_N1"><polygon class="cls-15" points="750.25 110.96 750.25 165.55 725.51 179.08 725.5 179.08 703.89 190.9 700.27 192.88 700.26 192.88 700.26 138.21 700.27 138.21 700.51 138.07 725.5 124.45 725.51 124.45 750.25 110.96"/><polygon class="cls-16" points="750.25 110.88 750.25 110.96 700.27 138.21 650.29 110.91 650.29 110.88 700.27 83.55 700.27 83.55 750.25 110.88"/><polygon class="cls-17" points="700.27 138.21 700.27 192.88 650.29 165.54 650.29 110.91 700.27 138.21"/></g><g id="basic_N1-4" data-name="basic_N1"><polygon class="cls-15" points="750.25 56.19 750.25 110.78 725.51 124.31 725.5 124.31 703.89 136.13 700.27 138.11 700.26 138.11 700.26 83.44 700.27 83.44 700.51 83.3 725.5 69.68 725.51 69.68 750.25 56.19"/><polygon class="cls-16" points="750.25 56.12 750.25 56.19 700.27 83.44 650.29 56.14 650.29 56.11 700.27 28.79 700.27 28.78 750.25 56.12"/><polygon class="cls-17" points="700.27 83.44 700.27 138.11 650.29 110.78 650.29 56.14 700.27 83.44"/></g><g id="basic_N1-5" data-name="basic_N1"><polygon class="cls-15" points="700.29 192.97 700.29 247.56 675.55 261.08 675.54 261.08 653.93 272.9 650.31 274.88 650.3 274.88 650.3 220.22 650.31 220.22 650.55 220.07 675.54 206.46 675.55 206.46 700.29 192.97"/><polygon class="cls-16" points="700.29 192.89 700.29 192.97 650.3 220.22 600.32 192.91 600.32 192.89 650.3 165.56 650.31 165.56 700.29 192.89"/><polygon class="cls-17" points="650.3 220.22 650.3 274.88 600.32 247.55 600.32 192.91 650.3 220.22"/></g><g id="basic_N1-6" data-name="basic_N1"><polygon class="cls-15" points="650.3 165.12 650.3 219.71 625.56 233.24 625.55 233.24 603.94 245.06 600.32 247.04 600.31 247.04 600.31 192.37 600.32 192.37 600.56 192.23 625.55 178.61 625.56 178.61 650.3 165.12"/><polygon class="cls-16" points="650.3 165.04 650.3 165.12 600.32 192.38 550.33 165.07 550.33 165.04 600.32 137.72 600.32 137.71 650.3 165.04"/><polygon class="cls-17" points="600.32 192.38 600.32 247.04 550.33 219.71 550.33 165.07 600.32 192.38"/></g><g id="basic_N1-7" data-name="basic_N1"><polygon class="cls-15" points="600.32 301.39 600.32 355.98 575.58 369.51 575.57 369.51 553.96 381.33 550.34 383.31 550.33 383.31 550.33 328.64 550.34 328.64 550.58 328.5 575.57 314.88 575.58 314.88 600.32 301.39"/><polygon class="cls-16" points="600.32 301.31 600.32 301.39 550.33 328.64 500.35 301.34 500.35 301.31 550.33 273.98 550.34 273.98 600.32 301.31"/><polygon class="cls-17" points="550.33 328.64 550.33 383.31 500.35 355.97 500.35 301.34 550.33 328.64"/></g><g id="basic_N1-8" data-name="basic_N1"><polygon class="cls-15" points="600.32 246.72 600.32 301.31 575.58 314.84 575.57 314.84 553.96 326.66 550.34 328.64 550.33 328.64 550.33 273.97 550.34 273.97 550.58 273.83 575.57 260.21 575.58 260.21 600.32 246.72"/><polygon class="cls-16" points="600.32 246.65 600.32 246.72 550.33 273.98 500.35 246.67 500.35 246.64 550.33 219.32 550.34 219.31 600.32 246.65"/><polygon class="cls-17" points="550.33 273.98 550.33 328.64 500.35 301.31 500.35 246.67 550.33 273.98"/></g><g id="basic_N1-9" data-name="basic_N1"><polygon class="cls-15" points="600.31 192.13 600.31 246.72 575.57 260.25 575.56 260.25 553.95 272.07 550.33 274.05 550.32 274.05 550.32 219.38 550.33 219.38 550.57 219.24 575.56 205.62 575.57 205.62 600.31 192.13"/><polygon class="cls-16" points="600.31 192.06 600.31 192.13 550.33 219.39 500.34 192.08 500.34 192.06 550.33 164.73 550.33 164.73 600.31 192.06"/><polygon class="cls-17" points="550.33 219.39 550.33 274.05 500.34 246.72 500.34 192.08 550.33 219.39"/></g><g id="basic_N1-10" data-name="basic_N1"><polygon class="cls-15" points="600.31 137.47 600.31 192.06 575.57 205.59 575.56 205.59 553.95 217.41 550.33 219.39 550.32 219.39 550.32 164.72 550.33 164.72 550.57 164.58 575.56 150.96 575.57 150.96 600.31 137.47"/><polygon class="cls-16" points="600.31 137.4 600.31 137.47 550.33 164.72 500.34 137.42 500.34 137.39 550.33 110.06 550.33 110.06 600.31 137.4"/><polygon class="cls-17" points="550.33 164.72 550.33 219.39 500.34 192.06 500.34 137.42 550.33 164.72"/></g></g></svg>