<?xml version="1.0" encoding="UTF-8" standalone="no"?>
<svg
   viewBox="0 0 64 64"
   version="1.1"
   id="svg63"
   xml:space="preserve"
   xmlns="http://www.w3.org/2000/svg"
   xmlns:svg="http://www.w3.org/2000/svg"><defs
     id="defs63" /><g
     data-name="02-Sweater"
     id="_02-Sweater"><rect
       height="6"
       style="fill:#099dec;fill-opacity:1"
       width="4"
       x="5"
       y="49"
       id="rect1" /><rect
       height="6"
       style="fill:#099dec;fill-opacity:1"
       width="6"
       x="16.99"
       y="57"
       id="rect2" /><rect
       height="6"
       style="fill:#099dec;fill-opacity:1"
       width="6"
       x="28.99"
       y="57"
       id="rect3" /><rect
       height="6"
       style="fill:#099dec;fill-opacity:1"
       width="6.01"
       x="40.99"
       y="57"
       id="rect4" /><rect
       height="6"
       style="fill:#099dec;fill-opacity:1"
       width="4"
       x="55"
       y="49"
       id="rect5" /><path
       d="M28,1,26,9H21c0-2.13,1.01-4.29,1.6-6.52A1.993,1.993,0,0,1,24.53,1Z"
       style="fill:#099dec;fill-opacity:1"
       id="path5" /><polygon
       points="32 1 32 9 26 9 28 1 32 1"
       style="fill:#005c92;fill-opacity:1"
       id="polygon5" /><polygon
       points="36 1 38 9 32 9 32 1 36 1"
       style="fill:#099dec;fill-opacity:1"
       id="polygon6" /><path
       d="M43,9H38L36,1h3.47A1.993,1.993,0,0,1,41.4,2.48C41.99,4.71,43,6.87,43,9Z"
       style="fill:#005c92;fill-opacity:1"
       id="path6" /><path
       d="M52,57v4a2.006,2.006,0,0,1-2,2H47V57Z"
       style="fill:#005c92;fill-opacity:1"
       id="path7" /><rect
       height="6"
       style="fill:#005c92;fill-opacity:1"
       width="6"
       x="34.99"
       y="57"
       id="rect7" /><rect
       height="6"
       style="fill:#005c92;fill-opacity:1"
       width="6"
       x="22.99"
       y="57"
       id="rect8" /><path
       d="M16.99,57v6H14a2.006,2.006,0,0,1-2-2V57Z"
       style="fill:#005c92;fill-opacity:1"
       id="path8" /><path
       d="M5,49v6H3a2.006,2.006,0,0,1-2-2V49Z"
       style="fill:#005c92;fill-opacity:1"
       id="path9" /><path
       d="M12,53a2.006,2.006,0,0,1-2,2H9V49h3Z"
       style="fill:#005c92;fill-opacity:1"
       id="path10" /><path
       d="M55,49v6H54a2.006,2.006,0,0,1-2-2V49Z"
       style="fill:#005d94;fill-opacity:1"
       id="path11" /><path
       d="M63,49v4a2.006,2.006,0,0,1-2,2H59V49Z"
       style="fill:#005d94;fill-opacity:1"
       id="path12" /><path
       d="M62.51,22.92a17.9,17.9,0,0,0-8.08-11.19l-.09-.06A17.959,17.959,0,0,0,44.91,9H19.09a17.959,17.959,0,0,0-9.43,2.67l-.09.06A18.066,18.066,0,0,0,1,27.06V49H12v8H52V49H63V27.06A17.831,17.831,0,0,0,62.51,22.92Z"
       style="fill:#099dec;fill-opacity:1"
       id="path13" /><path
       d="M63,26.913a17.806,17.806,0,0,0-.177-2.328c.044.311.079.625.106.94C62.963,25.984,62.993,26.445,63,26.913Z"
       style="fill:#328016"
       id="path14" /><path
       d="M62.712,23.887c.04.228.074.458.1.689C62.785,24.346,62.753,24.115,62.712,23.887Z"
       style="fill:#328016"
       id="path15" /><polygon
       points="62.818 24.584 62.817 24.576 62.819 24.585 62.818 24.584"
       style="fill:#328016"
       id="polygon15" /><path
       d="M62.712,23.886c-.059-.324-.126-.647-.2-.966.076.319.143.642.2.967Z"
       style="fill:#328016"
       id="path16" /><path
       d="M63,26.913h0v0Z"
       style="fill:#328016"
       id="path17" /><path
       d="M55,23a3,3,0,0,0-3-3V49H63V46H59a4,4,0,0,1-4-4Z"
       style="fill:#007ec7;fill-opacity:1"
       id="path18" /><path
       d="M9,23a3,3,0,0,1,3-3V49H1V46H5a4,4,0,0,0,4-4Z"
       style="fill:#007ec7;fill-opacity:1"
       id="path19" /><path
       d="M17,25a5,5,0,0,0-5-5V57H52V53H31A14,14,0,0,1,17,39Z"
       style="fill:#007ec6;fill-opacity:1"
       id="path20" /><path
       d="M25,6a3.97,3.97,0,0,1-3.039-1.427A14.69,14.69,0,0,0,21,9h5l.75-3Z"
       style="fill:#007ec7;fill-opacity:1"
       id="path21" /><polygon
       points="26.75 6 26 9 32 9 32 6 26.75 6"
       style="fill:#003e63;fill-opacity:1"
       id="polygon21" /><polygon
       points="32 6 32 9 38 9 37.25 6 32 6"
       style="fill:#007ec7;fill-opacity:1"
       id="polygon22" /><path
       d="M39,6H37.25L38,9h5a14.69,14.69,0,0,0-.961-4.427A3.97,3.97,0,0,1,39,6Z"
       style="fill:#003d61;fill-opacity:1"
       id="path22" /><rect
       height="2"
       style="fill:#003d61;fill-opacity:1"
       width="5"
       x="12"
       y="57"
       id="rect22" /><rect
       height="2"
       style="fill:#003d61;fill-opacity:1"
       width="5"
       x="47"
       y="57"
       id="rect23" /><rect
       height="2"
       style="fill:#003e63;fill-opacity:1"
       width="3"
       x="52"
       y="49"
       id="rect24" /><rect
       height="2"
       style="fill:#003e63;fill-opacity:1"
       width="3"
       x="9"
       y="49"
       id="rect25" /><rect
       height="2"
       style="fill:#003e63;fill-opacity:1"
       width="4"
       x="59"
       y="49"
       id="rect26" /><rect
       height="2"
       style="fill:#003e63;fill-opacity:1"
       width="4"
       x="1"
       y="49"
       id="rect27" /><rect
       height="2"
       style="fill:#007ec7;fill-opacity:1"
       width="4"
       x="55"
       y="49"
       id="rect28" /><rect
       height="2"
       style="fill:#007ec7;fill-opacity:1"
       width="4"
       x="5"
       y="49"
       id="rect29" /><rect
       height="2"
       style="fill:#003d61;fill-opacity:1"
       width="6"
       x="23"
       y="57"
       id="rect30" /><rect
       height="2"
       style="fill:#003d61;fill-opacity:1"
       width="6"
       x="35"
       y="57"
       id="rect31" /><rect
       height="2"
       style="fill:#007ec7;fill-opacity:1"
       width="6"
       x="17"
       y="57"
       id="rect32" /><rect
       height="2"
       style="fill:#007ec7;fill-opacity:1"
       width="6"
       x="29"
       y="57"
       id="rect33" /><rect
       height="2"
       style="fill:#007ec7;fill-opacity:1"
       width="6"
       x="41"
       y="57"
       id="rect34" /><polyline
       points="12 20 12 57 52 57 52 20"
       style="fill:none;stroke:#000;stroke-linejoin:round;stroke-width:2px"
       id="polyline46" /><path
       d="M41.4,2.484A1.991,1.991,0,0,0,39.471,1H24.529A1.991,1.991,0,0,0,22.6,2.484C22.012,4.706,21,6.866,21,9H43C43,6.866,41.988,4.706,41.4,2.484Z"
       style="fill:none;stroke:#000;stroke-linejoin:round;stroke-width:2px"
       id="path47" /><line
       style="fill:none;stroke:#000;stroke-linejoin:round;stroke-width:2px"
       x1="28"
       x2="26"
       y1="1"
       y2="9"
       id="line47" /><line
       style="fill:none;stroke:#000;stroke-linejoin:round;stroke-width:2px"
       x1="36"
       x2="38"
       y1="1"
       y2="9"
       id="line48" /><line
       style="fill:none;stroke:#000;stroke-linejoin:round;stroke-width:2px"
       x1="32"
       x2="32"
       y1="1"
       y2="9"
       id="line49" /><path
       d="M12,57v4a2,2,0,0,0,2,2H50a2,2,0,0,0,2-2V57"
       style="fill:none;stroke:#000;stroke-linejoin:round;stroke-width:2px"
       id="path49" /><path
       d="M 1,35.899913 V 53 c 0,1.104569 0.8954305,2 2,2 h 7 c 1.104569,0 2,-0.895431 2,-2 v -7"
       style="fill:none;stroke:#000000;stroke-width:2px;stroke-linejoin:round"
       id="path50" /><path
       d="m 21,9 h -1.9 c -3.331145,-9.08e-5 -6.596975,0.9242006 -9.434,2.67 L 9.571,11.728 C 4.2456788,15.002845 1.0009635,20.806308 1,27.058 V 38"
       style="fill:none;stroke:#000000;stroke-width:2px;stroke-linejoin:round"
       id="path51" /><path
       d="m 43.004952,8.9942764 h 1.9 c 3.331145,-9e-5 6.596975,0.924201 9.434,2.6699956 l 0.095,0.058 c 5.325321,3.274845 8.570037,9.078308 8.571,15.33 v 10.942"
       style="fill:none;stroke:#000000;stroke-width:2px;stroke-linejoin:round"
       id="path51-9" /><line
       style="fill:none;stroke:#000;stroke-linejoin:round;stroke-width:2px"
       x1="1"
       x2="12"
       y1="49"
       y2="49"
       id="line51" /><path
       d="M 63,37.927219 V 53 c 0,1.104569 -0.895431,2 -2,2 h -7 c -1.104569,0 -2,-0.895431 -2,-2 v -7"
       style="fill:none;stroke:#000000;stroke-width:2px;stroke-linejoin:round"
       id="path52" /><line
       style="fill:none;stroke:#000;stroke-linejoin:round;stroke-width:2px"
       x1="63"
       x2="52"
       y1="49"
       y2="49"
       id="line54" /><g
       id="_x39_7-docker"
       transform="matrix(0.07398392,0,0,0.08086478,12.989983,18.767878)"><g
         id="g9"><g
           data-name="&lt;Group&gt;"
           id="_Group_"
           transform="matrix(19.501441,0,0,16.785616,738.25088,116.75856)"><g
             id="g63"
             transform="translate(-36.260976,-5.5299879)"><rect
               data-name="&lt;Rectangle&gt;"
               height="3"
               id="_Rectangle_"
               style="fill:#800080;fill-opacity:1;stroke:#303c42;stroke-linecap:round;stroke-linejoin:round"
               width="3"
               x="1.5"
               y="9.5" /><rect
               data-name="&lt;Rectangle&gt;"
               height="3"
               id="_Rectangle_2"
               style="fill:#ff5555;fill-opacity:1;stroke:#303c42;stroke-linecap:round;stroke-linejoin:round"
               width="3"
               x="4.5"
               y="9.5" /><rect
               data-name="&lt;Rectangle&gt;"
               height="3"
               id="_Rectangle_3"
               style="fill:#ff7f2a;fill-opacity:1;stroke:#303c42;stroke-linecap:round;stroke-linejoin:round"
               width="3"
               x="7.5"
               y="9.5" /><rect
               data-name="&lt;Rectangle&gt;"
               height="3"
               id="_Rectangle_4"
               style="fill:#37c8ab;stroke:#303c42;stroke-linecap:round;stroke-linejoin:round"
               width="3"
               x="10.5"
               y="9.5" /><rect
               data-name="&lt;Rectangle&gt;"
               height="3"
               id="_Rectangle_5"
               style="fill:#ffd42a;stroke:#303c42;stroke-linecap:round;stroke-linejoin:round"
               width="3"
               x="4.5"
               y="6.5" /><rect
               data-name="&lt;Rectangle&gt;"
               height="3"
               id="_Rectangle_6"
               style="fill:#6c6753;stroke:#303c42;stroke-linecap:round;stroke-linejoin:round"
               width="3"
               x="7.5"
               y="6.5" /><rect
               data-name="&lt;Rectangle&gt;"
               height="3"
               id="_Rectangle_7"
               style="fill:#cc00ff;stroke:#303c42;stroke-linecap:round;stroke-linejoin:round"
               width="3"
               x="10.5"
               y="6.5" /><rect
               data-name="&lt;Rectangle&gt;"
               height="3"
               id="_Rectangle_8"
               style="fill:#ff0000;stroke:#303c42;stroke-linecap:round;stroke-linejoin:round"
               width="3"
               x="10.5"
               y="3.5" /><rect
               data-name="&lt;Rectangle&gt;"
               height="3"
               id="_Rectangle_9"
               style="fill:#8080ff;stroke:#303c42;stroke-linecap:round;stroke-linejoin:round"
               width="3"
               x="13.5"
               y="9.5" /><path
               d="m 23.5,11.5 c 0,0 -1.75,-1.12 -3,-0.5 C 20.393972,9.9859603 19.844845,9.0707493 19,8.5 c -0.589357,0.8358837 -0.799862,1.881149 -0.58,2.88 0.07235,0.598421 -0.397237,1.124358 -1,1.12 H 0.5 c 0,6.25 3.83,8 7.5,8 4.992183,0.02717 9.607483,-2.651691 12.06,-7 1.387097,-0.121724 2.647958,-0.854782 3.44,-2 z"
               data-name="&lt;Path&gt;"
               id="_Path_2"
               style="fill:#ffffff;fill-opacity:1;stroke:#303c42;stroke-linecap:round;stroke-linejoin:round" /><circle
               cx="5.04"
               cy="16"
               data-name="&lt;Path&gt;"
               id="_Path_"
               r="0.5"
               style="fill:none;stroke:#303c42;stroke-linecap:round;stroke-linejoin:round" /></g></g></g></g></g></svg>
