<svg xmlns="http://www.w3.org/2000/svg" xml:space="preserve" viewBox="0 0 1920 673"><path d="M0 0h1920v673H0z" style="fill:#244d6a"/><path d="M24.7 19.9h40.9v11.5H24.7zm51.2 0h71.6v11.5H75.9zm81.9 0h61.4v11.5h-61.4zm71.6 0h40.9v11.5h-40.9zm-204.7 46h40.9v11.5H24.7zm51.2 0h10.2v11.5H75.9zm20.4 0h20.5v11.5H96.3zM24.7 112H127v11.5H24.7zm112.6 0h10.2v11.5h-10.2zm20.5 0h20.5v11.5h-20.5zM24.7 135h30.7v11.5H24.7zm40.9 0h10.2v11.5H65.6zm20.5 0h20.5v11.5H86.1zm30.7 0h81.9v11.5h-81.9zm-51.2 23.1h40.9v11.5H65.6zm51.2 0H127v11.5h-10.2zm20.5 0h20.5v11.5h-20.5zm-71.7 23h20.5v11.5H65.6zm30.7 0h61.4v11.5H96.3zm71.7 0h10.2v11.5H168zm20.4 0H301v11.5H188.4zm-81.8 23h102.3v11.5H106.6zm112.5 0h10.2v11.5h-10.2zm20.5 0H301v11.5h-61.4zm-174 23h30.7v11.5H65.6zm41 0H168v11.5h-61.4zm71.6 0h20.5v11.5h-20.5zm30.7 0h20.5v11.5h-20.5zm-102.3 23.1H127v11.5h-20.5zm30.7 0h61.4v11.5h-61.4zm71.6 0h20.5v11.5h-20.5zm30.7 0h143.3v11.5H239.6zm-92.1 23h143.3v11.5H147.5zm-40.9 23h51.2v11.5h-51.2zm40.9 23h143.3v11.5H147.5zm-81.9 23.1h174v11.5h-174zm-40.9 46h51.2v11.5H24.7zm61.4 0h10.2v11.5H86.1zm20.5 0h102.3v11.5H106.6zm112.5 0h10.2v11.5h-10.2zm20.5 0h122.8v11.5H239.6zm133 0h10.2v11.5h-10.2zm20.5 0h10.2v11.5h-10.2zm20.5 0h10.2v11.5h-10.2zm20.4 0h61.4v11.5H434zM24.7 434.4h30.7v11.5H24.7zm40.9 0h10.2v11.5H65.6zm20.5 0h20.5v11.5H86.1zm30.7 0h174v11.5h-174zm-51.2 23h20.5v11.5H65.6zm30.7 0h10.2v11.5H96.3zm20.5 0H127v11.5h-10.2zm-51.2 23h122.8v11.5H65.6zm133.1 0h10.2v11.5h-10.2zm20.4 0h10.2v11.5h-10.2zm-153.5 23h40.9V515H65.6zm51.2 0H127V515h-10.2zm20.5 0h51.2V515h-51.2zm-71.7 23.1h71.6V538H65.6zm81.9 0h10.2V538h-10.2zm20.5 0h10.2V538H168zm-143.3 46h61.4V584H24.7zm71.6 0h20.5V584H96.3zm30.8 0h501.5V584H127.1zM24.7 618.6h40.9v11.5H24.7zm51.2 0h184.2v11.5H75.9zm194.4 0h40.9v11.5h-40.9zm51.2 0H342v11.5h-20.5zm30.7 0h51.2v11.5h-51.2zm-286.6 23h184.2v11.5H65.6z" style="opacity:.2;fill:#fff"/><path d="M774.4 16h271.3v30.5H774.4zm298.4 0h27.1v30.5h-27.1zm54.3 0h162.8v30.5h-162.8zM665.9 77.1h81.4v30.5h-81.4zm108.5 0h162.8v30.5H774.4zm189.9 0h54.3v30.5h-54.3zm81.4 0h54.3v30.5h-54.3zm-271.3 61h54.3v30.5h-54.3zm81.4 0h162.8v30.5H855.8zm189.9 0h54.3v30.5h-54.3zm81.4 0h379.8v30.5h-379.8zm-244.2 61.1h379.8v30.5H883zm-108.5 61H910v30.5H774.4zm108.6 61h379.8v30.5H883zm-217.1 61.1h461.2v30.5H665.9zM557.4 504.4H693v30.5H557.4zm162.8 0h27.1v30.5h-27.1zm54.2 0h271.3v30.5H774.4zm298.4 0h27.1v30.5h-27.1zm54.3 0h325.5v30.5h-325.5zm352.7 0h27.1v30.5h-27.1zm54.2 0h27.1v30.5H1534zm54.3 0h27.1v30.5h-27.1zm54.2 0h162.8v30.5h-162.8zm-1085.1 122h81.4V657h-81.4zm108.5 0H693V657h-27.1zm54.3 0h54.3V657h-54.3zm81.4 0h461.2V657H801.6z" style="opacity:5.000000e-02;fill:#fff"/><path d="M406 29.3h1109.1v168.8H406z" style="fill:none"/><path d="M652 374v-90.3h15.5v36.6h24.2v-36.6h15.5V374h-15.5v-39.7h-24.2V374zm94.3 1.2c-6.9 0-12.4-2-16.4-5.9s-6-9-6-15.4c0-6.6 2.3-11.9 6.8-15.8s10.8-5.9 18.7-5.9H766v-4.8c0-6.8-4-10.3-12-10.3q-5.4 0-8.7 2.1c-2.1 1.4-3.3 3.4-3.6 5.9h-14.8c.3-6.1 2.9-11 7.7-14.8q7.2-5.7 19.5-5.7c8.7 0 15.4 2 20.2 6.1q7.2 6 7.2 17.1V374h-15.1v-12.7c-.6 4.4-2.6 7.8-6.2 10.3-3.6 2.4-8.3 3.6-13.9 3.6m4.9-12.6q6.75 0 10.8-3.3c2.6-2.2 4-5.2 4-8.9v-8h-15.8c-3.4 0-6.1.9-8 2.8-2 1.9-3 4.3-3 7.3 0 3.1 1.1 5.5 3.2 7.4 1.9 1.8 4.9 2.7 8.8 2.7m51.7 11.4v-68H818v13.2c.8-4.5 2.9-8 6.1-10.6 3.3-2.6 7.5-3.9 12.7-3.9 6.9 0 12.3 2.2 16.2 6.7s5.8 10.7 5.8 18.7v6.4h-15.5v-5.7c0-4.1-1.1-7.3-3.2-9.5s-5.2-3.3-9.2-3.3c-4.1 0-7.3 1.2-9.4 3.7s-3.2 6-3.2 10.5V374zm74.2 0v-68h15.1v13.2c.8-4.5 2.9-8 6.1-10.6 3.3-2.6 7.5-3.9 12.7-3.9 6.9 0 12.3 2.2 16.2 6.7s5.8 10.7 5.8 18.7v6.4h-15.5v-5.7c0-4.1-1.1-7.3-3.2-9.5s-5.2-3.3-9.2-3.3c-4.1 0-7.3 1.2-9.4 3.7s-3.2 6-3.2 10.5V374zm71.6 0v-14H972v-40.1h-20.8v-14h36.2V360h20.9v14zm30-79.4c-3.1 0-5.6-.8-7.4-2.4s-2.7-3.8-2.7-6.5.9-4.9 2.7-6.5 4.3-2.4 7.4-2.4 5.6.8 7.4 2.4 2.7 3.8 2.7 6.5-.9 4.9-2.7 6.5-4.3 2.4-7.4 2.4M1018 374l23.7-35.1-22.1-32.9h17.4l10.5 16.7c.7 1 1.3 2.1 1.9 3.3q.9 1.8 1.2 3c.3-.7.8-1.7 1.3-3q.75-1.8 1.8-3.3l10.5-16.7h17.6l-22.1 32.9 23.6 35.1h-17.6l-11.8-18.7c-.7-1-1.3-2.1-1.9-3.4s-1.1-2.3-1.4-3c-.3.7-.8 1.8-1.4 3-.6 1.3-1.2 2.4-1.9 3.4l-11.9 18.7zm153.5 0v-90.3h30.1c6 0 11.3 1.2 15.8 3.5s8 5.5 10.5 9.7 3.7 9.1 3.7 14.7-1.2 10.5-3.7 14.7-6 7.4-10.5 9.7-9.8 3.5-15.8 3.5H1187V374zm15.5-48.3h14.6c4.4 0 7.8-1.3 10.4-4 2.6-2.6 3.8-6.1 3.8-10.3s-1.3-7.6-3.8-10.3c-2.6-2.6-6-4-10.4-4H1187zm69.6 70.5 9.6-26-25.6-64.3h16.3l13.1 34.8c.7 2.1 1.5 4.3 2.2 6.7s1.3 4.7 1.6 6.7c.2-2.1.7-4.3 1.4-6.7s1.4-4.7 2.2-6.7l12.1-34.8h16.3l-33.1 90.3zm68.8-22.2v-90.3h15.5V360h38.3v14zm68.6 0v-14h23.3v-40.1h-20.8v-14h36.2V360h20.9v14zm29.9-79.4c-3.1 0-5.6-.8-7.4-2.4s-2.7-3.8-2.7-6.5.9-4.9 2.7-6.5 4.3-2.4 7.4-2.4 5.6.8 7.4 2.4 2.7 3.8 2.7 6.5-.9 4.9-2.7 6.5-4.2 2.4-7.4 2.4m78.2 80.6q-7.2 0-12-3.6c-3.2-2.4-5.4-5.7-6.7-10V374h-15.1v-90.3h15.5v19l-.5 15.6c1.3-4.3 3.6-7.6 6.9-10s7.2-3.6 11.9-3.6c6.7 0 12 2.3 16.1 7 4 4.7 6.1 11.1 6.1 19v18.4c0 7.9-2 14.2-6.1 18.9s-9.5 7.2-16.1 7.2m-5.8-13.3c4 0 7-1.1 9.2-3.2q3.3-3.15 3.3-9.9v-17.6q0-6.75-3.3-9.9c-2.2-2.1-5.3-3.2-9.2-3.2s-7 1.2-9.2 3.6-3.3 5.8-3.3 10.1v16.3c0 4.4 1.1 7.8 3.3 10.1 2.2 2.5 5.2 3.7 9.2 3.7m-928.1-43.1c7.5 30.6-5.2 62.7-31.4 79.9L512.5 343l-23.3 10.1 24.2 55.7c-30.5 7.5-62.6-5.2-79.9-31.4l-23.6 10.3c25.3 42.7 79 60.8 125.8 40.6 46.7-20.2 70-71.9 56.2-119.6zm-112.3-74.1c-46.6 20.3-70 72-56.2 119.6l23.6-10.3c-7.4-30.4 5.2-62.6 31.5-79.9l24.2 55.7 23.3-10.1-24.1-55.7c30.5-7.5 62.6 5.2 79.9 31.4l23.6-10.3c-25.4-42.5-79-60.6-125.8-40.4" style="fill:#fff"/></svg>