<?xml version="1.0" encoding="UTF-8" standalone="no"?>
<!DOCTYPE svg PUBLIC "-//W3C//DTD SVG 1.1//EN"
 "http://www.w3.org/Graphics/SVG/1.1/DTD/svg11.dtd">
<!-- Generated by graphviz version 2.43.0 (0)
 -->
<!-- Title: Tree Pages: 1 -->
<svg width="2945pt" height="954pt"
 viewBox="0.00 0.00 2944.74 953.71" xmlns="http://www.w3.org/2000/svg" xmlns:xlink="http://www.w3.org/1999/xlink">
<g id="graph0" class="graph" transform="scale(1 1) rotate(0) translate(18 935.71)">
<title>Tree</title>
<polygon fill="white" stroke="transparent" points="-18,18 -18,-935.71 2926.74,-935.71 2926.74,18 -18,18"/>
<!-- 0 -->
<g id="node1" class="node">
<title>0</title>
<polygon fill="white" stroke="transparent" points="1589.37,-917.71 1535.37,-917.71 1535.37,-881.71 1589.37,-881.71 1589.37,-917.71"/>
<text text-anchor="middle" x="1562.37" y="-896.01" font-family="Helvetica,sans-Serif" font-size="14.00">0</text>
</g>
<!-- 1 -->
<g id="node2" class="node">
<title>1</title>
<polygon fill="#cc3d3d" stroke="black" points="1665.87,-844.71 1458.87,-844.71 1458.87,-766.71 1665.87,-766.71 1665.87,-844.71"/>
<text text-anchor="start" x="1500.87" y="-830.51" font-family="Helvetica,sans-Serif" font-weight="bold" font-size="14.00"> Class=Austen </text>
<text text-anchor="start" x="1618.87" y="-830.51" font-family="Helvetica,sans-Serif" font-size="14.00"> </text>
<text text-anchor="start" x="1488.37" y="-816.51" font-family="Helvetica,sans-Serif" font-size="14.00"> error: 0.894, n=841 </text>
<text text-anchor="start" x="1466.87" y="-802.51" font-family="Helvetica,sans-Serif" font-size="14.00"> p: (0.38, 0.35, 0.07, 0.21) </text>
<text text-anchor="start" x="1540.87" y="-788.51" font-family="Helvetica,sans-Serif" font-size="14.00">&#45;&#45;&#45;&#45;&#45;&#45;&#45;&#45;</text>
<text text-anchor="start" x="1525.87" y="-774.51" font-family="Helvetica,sans-Serif" font-weight="bold" font-size="14.00">v_1=0.14</text>
</g>
<!-- 0&#45;&gt;1 -->
<!-- 2 -->
<g id="node3" class="node">
<title>2</title>
<polygon fill="#e5a544" stroke="black" points="1116.87,-715.71 909.87,-715.71 909.87,-637.71 1116.87,-637.71 1116.87,-715.71"/>
<text text-anchor="start" x="951.87" y="-701.51" font-family="Helvetica,sans-Serif" font-weight="bold" font-size="14.00"> Class=Austen </text>
<text text-anchor="start" x="1069.87" y="-701.51" font-family="Helvetica,sans-Serif" font-size="14.00"> </text>
<text text-anchor="start" x="939.37" y="-687.51" font-family="Helvetica,sans-Serif" font-size="14.00"> error: 0.468, n=457 </text>
<text text-anchor="start" x="917.87" y="-673.51" font-family="Helvetica,sans-Serif" font-size="14.00"> p: (0.68, 0.31, 0.00, 0.00) </text>
<text text-anchor="start" x="991.87" y="-659.51" font-family="Helvetica,sans-Serif" font-size="14.00">&#45;&#45;&#45;&#45;&#45;&#45;&#45;&#45;</text>
<text text-anchor="start" x="976.87" y="-645.51" font-family="Helvetica,sans-Serif" font-weight="bold" font-size="14.00">v_0=0.38</text>
</g>
<!-- 1&#45;&gt;2 -->
<g id="edge2" class="edge">
<title>1:s&#45;&gt;2:n</title>
<path fill="none" stroke="black" d="M1562.37,-766.71C1562.37,-766.71 1097.78,-723.55 1023.37,-716.64"/>
<polygon fill="black" stroke="black" points="1023.65,-713.15 1013.37,-715.71 1023,-720.12 1023.65,-713.15"/>
<text text-anchor="middle" x="1384.87" y="-737.51" font-family="Helvetica,sans-Serif" font-size="14.00">&gt; &#45;4.808</text>
</g>
<!-- 18 -->
<g id="node4" class="node">
<title>18</title>
<polygon fill="#e5a544" stroke="black" points="2050.87,-715.71 1843.87,-715.71 1843.87,-637.71 2050.87,-637.71 2050.87,-715.71"/>
<text text-anchor="start" x="1862.37" y="-701.51" font-family="Helvetica,sans-Serif" font-weight="bold" font-size="14.00"> Class=Shakespeare </text>
<text text-anchor="start" x="2027.37" y="-701.51" font-family="Helvetica,sans-Serif" font-size="14.00"> </text>
<text text-anchor="start" x="1873.37" y="-687.51" font-family="Helvetica,sans-Serif" font-size="14.00"> error: 0.757, n=384 </text>
<text text-anchor="start" x="1851.87" y="-673.51" font-family="Helvetica,sans-Serif" font-size="14.00"> p: (0.01, 0.40, 0.14, 0.45) </text>
<text text-anchor="start" x="1925.87" y="-659.51" font-family="Helvetica,sans-Serif" font-size="14.00">&#45;&#45;&#45;&#45;&#45;&#45;&#45;&#45;</text>
<text text-anchor="start" x="1910.87" y="-645.51" font-family="Helvetica,sans-Serif" font-weight="bold" font-size="14.00">v_0=0.38</text>
</g>
<!-- 1&#45;&gt;18 -->
<g id="edge3" class="edge">
<title>1:s&#45;&gt;18:n</title>
<path fill="none" stroke="black" d="M1562.37,-766.71C1562.37,-766.71 1875.85,-725.19 1937.07,-717.07"/>
<polygon fill="black" stroke="black" points="1937.92,-720.49 1947.37,-715.71 1937,-713.55 1937.92,-720.49"/>
<text text-anchor="middle" x="1838.87" y="-737.51" font-family="Helvetica,sans-Serif" font-size="14.00">&lt;= &#45;4.808</text>
</g>
<!-- 3 -->
<g id="node5" class="node">
<title>3</title>
<polygon fill="#afcc3d" stroke="black" points="649.87,-586.71 442.87,-586.71 442.87,-508.71 649.87,-508.71 649.87,-586.71"/>
<text text-anchor="start" x="484.87" y="-572.51" font-family="Helvetica,sans-Serif" font-weight="bold" font-size="14.00"> Class=Austen </text>
<text text-anchor="start" x="602.87" y="-572.51" font-family="Helvetica,sans-Serif" font-size="14.00"> </text>
<text text-anchor="start" x="472.37" y="-558.51" font-family="Helvetica,sans-Serif" font-size="14.00"> error: 0.114, n=265 </text>
<text text-anchor="start" x="450.87" y="-544.51" font-family="Helvetica,sans-Serif" font-size="14.00"> p: (0.97, 0.02, 0.00, 0.00) </text>
<text text-anchor="start" x="524.87" y="-530.51" font-family="Helvetica,sans-Serif" font-size="14.00">&#45;&#45;&#45;&#45;&#45;&#45;&#45;&#45;</text>
<text text-anchor="start" x="509.87" y="-516.51" font-family="Helvetica,sans-Serif" font-weight="bold" font-size="14.00">v_3=0.05</text>
</g>
<!-- 2&#45;&gt;3 -->
<g id="edge4" class="edge">
<title>2:s&#45;&gt;3:n</title>
<path fill="none" stroke="black" d="M1013.37,-637.71C1013.37,-637.71 624.85,-595.28 556.56,-587.82"/>
<polygon fill="black" stroke="black" points="556.69,-584.32 546.37,-586.71 555.93,-591.28 556.69,-584.32"/>
<text text-anchor="middle" x="869.37" y="-608.51" font-family="Helvetica,sans-Serif" font-size="14.00">&lt;= &#45;2.18</text>
</g>
<!-- 8 -->
<g id="node6" class="node">
<title>8</title>
<polygon fill="#afcc3d" stroke="black" points="1116.87,-586.71 909.87,-586.71 909.87,-508.71 1116.87,-508.71 1116.87,-586.71"/>
<text text-anchor="start" x="950.37" y="-572.51" font-family="Helvetica,sans-Serif" font-weight="bold" font-size="14.00"> Class=London </text>
<text text-anchor="start" x="1071.37" y="-572.51" font-family="Helvetica,sans-Serif" font-size="14.00"> </text>
<text text-anchor="start" x="939.37" y="-558.51" font-family="Helvetica,sans-Serif" font-size="14.00"> error: 0.435, n=192 </text>
<text text-anchor="start" x="917.87" y="-544.51" font-family="Helvetica,sans-Serif" font-size="14.00"> p: (0.29, 0.71, 0.00, 0.00) </text>
<text text-anchor="start" x="991.87" y="-530.51" font-family="Helvetica,sans-Serif" font-size="14.00">&#45;&#45;&#45;&#45;&#45;&#45;&#45;&#45;</text>
<text text-anchor="start" x="976.87" y="-516.51" font-family="Helvetica,sans-Serif" font-weight="bold" font-size="14.00">v_1=0.14</text>
</g>
<!-- 2&#45;&gt;8 -->
<g id="edge5" class="edge">
<title>2:s&#45;&gt;8:n</title>
<path fill="none" stroke="black" d="M1013.37,-637.71C1013.37,-637.71 1013.37,-611.93 1013.37,-597.03"/>
<polygon fill="black" stroke="black" points="1016.87,-596.71 1013.37,-586.71 1009.87,-596.71 1016.87,-596.71"/>
<text text-anchor="middle" x="1040.37" y="-608.51" font-family="Helvetica,sans-Serif" font-size="14.00">&gt; &#45;2.18</text>
</g>
<!-- 19 -->
<g id="node20" class="node">
<title>19</title>
<polygon fill="#afcc3d" stroke="black" points="2050.87,-586.71 1843.87,-586.71 1843.87,-508.71 2050.87,-508.71 2050.87,-586.71"/>
<text text-anchor="start" x="1862.37" y="-572.51" font-family="Helvetica,sans-Serif" font-weight="bold" font-size="14.00"> Class=Shakespeare </text>
<text text-anchor="start" x="2027.37" y="-572.51" font-family="Helvetica,sans-Serif" font-size="14.00"> </text>
<text text-anchor="start" x="1873.37" y="-558.51" font-family="Helvetica,sans-Serif" font-size="14.00"> error: 0.428, n=189 </text>
<text text-anchor="start" x="1851.87" y="-544.51" font-family="Helvetica,sans-Serif" font-size="14.00"> p: (0.02, 0.01, 0.16, 0.81) </text>
<text text-anchor="start" x="1925.87" y="-530.51" font-family="Helvetica,sans-Serif" font-size="14.00">&#45;&#45;&#45;&#45;&#45;&#45;&#45;&#45;</text>
<text text-anchor="start" x="1910.87" y="-516.51" font-family="Helvetica,sans-Serif" font-weight="bold" font-size="14.00">v_2=0.08</text>
</g>
<!-- 18&#45;&gt;19 -->
<g id="edge19" class="edge">
<title>18:s&#45;&gt;19:n</title>
<path fill="none" stroke="black" d="M1947.37,-637.71C1947.37,-637.71 1947.37,-611.93 1947.37,-597.03"/>
<polygon fill="black" stroke="black" points="1950.87,-596.71 1947.37,-586.71 1943.87,-596.71 1950.87,-596.71"/>
<text text-anchor="middle" x="1984.87" y="-608.51" font-family="Helvetica,sans-Serif" font-size="14.00">&lt;= &#45;10.57</text>
</g>
<!-- 27 -->
<g id="node21" class="node">
<title>27</title>
<polygon fill="#afcc3d" stroke="black" points="2543.87,-586.71 2336.87,-586.71 2336.87,-508.71 2543.87,-508.71 2543.87,-586.71"/>
<text text-anchor="start" x="2377.37" y="-572.51" font-family="Helvetica,sans-Serif" font-weight="bold" font-size="14.00"> Class=London </text>
<text text-anchor="start" x="2498.37" y="-572.51" font-family="Helvetica,sans-Serif" font-size="14.00"> </text>
<text text-anchor="start" x="2366.37" y="-558.51" font-family="Helvetica,sans-Serif" font-size="14.00"> error: 0.490, n=195 </text>
<text text-anchor="start" x="2344.87" y="-544.51" font-family="Helvetica,sans-Serif" font-size="14.00"> p: (0.00, 0.78, 0.12, 0.10) </text>
<text text-anchor="start" x="2418.87" y="-530.51" font-family="Helvetica,sans-Serif" font-size="14.00">&#45;&#45;&#45;&#45;&#45;&#45;&#45;&#45;</text>
<text text-anchor="start" x="2403.87" y="-516.51" font-family="Helvetica,sans-Serif" font-weight="bold" font-size="14.00">v_1=0.14</text>
</g>
<!-- 18&#45;&gt;27 -->
<g id="edge20" class="edge">
<title>18:s&#45;&gt;27:n</title>
<path fill="none" stroke="black" d="M1947.37,-637.71C1947.37,-637.71 2359.28,-595.1 2430.07,-587.78"/>
<polygon fill="black" stroke="black" points="2430.78,-591.22 2440.37,-586.71 2430.06,-584.26 2430.78,-591.22"/>
<text text-anchor="middle" x="2284.87" y="-608.51" font-family="Helvetica,sans-Serif" font-size="14.00">&gt; &#45;10.57</text>
</g>
<!-- 4 -->
<g id="node7" class="node">
<title>4</title>
<polygon fill="#64e544" stroke="black" points="324.87,-457.71 117.87,-457.71 117.87,-379.71 324.87,-379.71 324.87,-457.71"/>
<text text-anchor="start" x="159.87" y="-443.51" font-family="Helvetica,sans-Serif" font-weight="bold" font-size="14.00"> Class=Austen </text>
<text text-anchor="start" x="277.87" y="-443.51" font-family="Helvetica,sans-Serif" font-size="14.00"> </text>
<text text-anchor="start" x="151.87" y="-429.51" font-family="Helvetica,sans-Serif" font-size="14.00"> error: 0.343, n=48 </text>
<text text-anchor="start" x="125.87" y="-415.51" font-family="Helvetica,sans-Serif" font-size="14.00"> p: (0.85, 0.12, 0.02, 0.00) </text>
<text text-anchor="start" x="199.87" y="-401.51" font-family="Helvetica,sans-Serif" font-size="14.00">&#45;&#45;&#45;&#45;&#45;&#45;&#45;&#45;</text>
<text text-anchor="start" x="184.87" y="-387.51" font-family="Helvetica,sans-Serif" font-weight="bold" font-size="14.00">v_2=0.08</text>
</g>
<!-- 3&#45;&gt;4 -->
<g id="edge6" class="edge">
<title>3:s&#45;&gt;4:n</title>
<path fill="none" stroke="black" d="M546.37,-508.71C546.37,-508.71 286.31,-467.9 231.45,-459.29"/>
<polygon fill="black" stroke="black" points="231.79,-455.8 221.37,-457.71 230.71,-462.72 231.79,-455.8"/>
<text text-anchor="middle" x="460.87" y="-479.51" font-family="Helvetica,sans-Serif" font-size="14.00">&lt;= &#45;4.898</text>
</g>
<!-- 7 -->
<g id="node8" class="node">
<title>7</title>
<ellipse fill="#64e544" stroke="black" cx="546.37" cy="-418.71" rx="146.24" ry="35.21"/>
<text text-anchor="start" x="484.87" y="-429.51" font-family="Helvetica,sans-Serif" font-weight="bold" font-size="14.00"> Class=Austen </text>
<text text-anchor="start" x="602.87" y="-429.51" font-family="Helvetica,sans-Serif" font-size="14.00"> </text>
<text text-anchor="start" x="472.37" y="-415.51" font-family="Helvetica,sans-Serif" font-size="14.00"> error: 0.021, n=217 </text>
<text text-anchor="start" x="450.87" y="-401.51" font-family="Helvetica,sans-Serif" font-size="14.00"> p: (1.00, 0.00, 0.00, 0.00) </text>
</g>
<!-- 3&#45;&gt;7 -->
<g id="edge7" class="edge">
<title>3:s&#45;&gt;7:n</title>
<path fill="none" stroke="black" d="M546.37,-508.71C546.37,-508.71 546.37,-481.33 546.37,-465.93"/>
<polygon fill="black" stroke="black" points="549.87,-465.71 546.37,-455.71 542.87,-465.71 549.87,-465.71"/>
<text text-anchor="middle" x="577.87" y="-479.51" font-family="Helvetica,sans-Serif" font-size="14.00">&gt; &#45;4.898</text>
</g>
<!-- 9 -->
<g id="node11" class="node">
<title>9</title>
<polygon fill="#64e544" stroke="black" points="976.87,-457.71 769.87,-457.71 769.87,-379.71 976.87,-379.71 976.87,-457.71"/>
<text text-anchor="start" x="810.37" y="-443.51" font-family="Helvetica,sans-Serif" font-weight="bold" font-size="14.00"> Class=London </text>
<text text-anchor="start" x="931.37" y="-443.51" font-family="Helvetica,sans-Serif" font-size="14.00"> </text>
<text text-anchor="start" x="799.37" y="-429.51" font-family="Helvetica,sans-Serif" font-size="14.00"> error: 0.225, n=138 </text>
<text text-anchor="start" x="777.87" y="-415.51" font-family="Helvetica,sans-Serif" font-size="14.00"> p: (0.09, 0.91, 0.00, 0.00) </text>
<text text-anchor="start" x="851.87" y="-401.51" font-family="Helvetica,sans-Serif" font-size="14.00">&#45;&#45;&#45;&#45;&#45;&#45;&#45;&#45;</text>
<text text-anchor="start" x="836.87" y="-387.51" font-family="Helvetica,sans-Serif" font-weight="bold" font-size="14.00">v_0=0.38</text>
</g>
<!-- 8&#45;&gt;9 -->
<g id="edge10" class="edge">
<title>8:s&#45;&gt;9:n</title>
<path fill="none" stroke="black" d="M1013.37,-508.71C1013.37,-508.71 914.62,-472.74 882.99,-461.22"/>
<polygon fill="black" stroke="black" points="883.97,-457.84 873.37,-457.71 881.57,-464.42 883.97,-457.84"/>
<text text-anchor="middle" x="995.37" y="-479.51" font-family="Helvetica,sans-Serif" font-size="14.00">&lt;= 18.73</text>
</g>
<!-- 14 -->
<g id="node12" class="node">
<title>14</title>
<polygon fill="#64e544" stroke="black" points="1255.87,-457.71 1048.87,-457.71 1048.87,-379.71 1255.87,-379.71 1255.87,-457.71"/>
<text text-anchor="start" x="1090.87" y="-443.51" font-family="Helvetica,sans-Serif" font-weight="bold" font-size="14.00"> Class=Austen </text>
<text text-anchor="start" x="1208.87" y="-443.51" font-family="Helvetica,sans-Serif" font-size="14.00"> </text>
<text text-anchor="start" x="1082.87" y="-429.51" font-family="Helvetica,sans-Serif" font-size="14.00"> error: 0.365, n=54 </text>
<text text-anchor="start" x="1056.87" y="-415.51" font-family="Helvetica,sans-Serif" font-size="14.00"> p: (0.80, 0.20, 0.00, 0.00) </text>
<text text-anchor="start" x="1130.87" y="-401.51" font-family="Helvetica,sans-Serif" font-size="14.00">&#45;&#45;&#45;&#45;&#45;&#45;&#45;&#45;</text>
<text text-anchor="start" x="1115.87" y="-387.51" font-family="Helvetica,sans-Serif" font-weight="bold" font-size="14.00">v_7=0.02</text>
</g>
<!-- 8&#45;&gt;14 -->
<g id="edge11" class="edge">
<title>8:s&#45;&gt;14:n</title>
<path fill="none" stroke="black" d="M1013.37,-508.71C1013.37,-508.71 1111.41,-472.74 1142.82,-461.22"/>
<polygon fill="black" stroke="black" points="1144.19,-464.44 1152.37,-457.71 1141.78,-457.87 1144.19,-464.44"/>
<text text-anchor="middle" x="1129.37" y="-479.51" font-family="Helvetica,sans-Serif" font-size="14.00">&gt; 18.73</text>
</g>
<!-- 5 -->
<g id="node9" class="node">
<title>5</title>
<polygon fill="#3dcc76" stroke="black" points="292.87,-328.71 85.87,-328.71 85.87,-250.71 292.87,-250.71 292.87,-328.71"/>
<text text-anchor="start" x="127.87" y="-314.51" font-family="Helvetica,sans-Serif" font-weight="bold" font-size="14.00"> Class=Austen </text>
<text text-anchor="start" x="245.87" y="-314.51" font-family="Helvetica,sans-Serif" font-size="14.00"> </text>
<text text-anchor="start" x="119.87" y="-300.51" font-family="Helvetica,sans-Serif" font-size="14.00"> error: 0.098, n=33 </text>
<text text-anchor="start" x="93.87" y="-286.51" font-family="Helvetica,sans-Serif" font-size="14.00"> p: (0.97, 0.00, 0.03, 0.00) </text>
<text text-anchor="start" x="165.37" y="-272.51" font-family="Helvetica,sans-Serif" font-size="14.00">&#45;&#45;&#45;&#45;&#45;&#45;&#45;&#45;&#45;</text>
<text text-anchor="start" x="148.37" y="-258.51" font-family="Helvetica,sans-Serif" font-weight="bold" font-size="14.00">v_26=0.00</text>
</g>
<!-- 4&#45;&gt;5 -->
<g id="edge8" class="edge">
<title>4:s&#45;&gt;5:n</title>
<path fill="none" stroke="black" d="M221.37,-379.71C221.37,-379.71 204.11,-352.21 194.95,-337.59"/>
<polygon fill="black" stroke="black" points="197.65,-335.32 189.37,-328.71 191.72,-339.04 197.65,-335.32"/>
<text text-anchor="middle" x="240.87" y="-350.51" font-family="Helvetica,sans-Serif" font-size="14.00">&gt; &#45;3.904</text>
</g>
<!-- 6 -->
<g id="node10" class="node">
<title>6</title>
<ellipse fill="#44e5e5" stroke="black" cx="146.37" cy="-160.71" rx="146.24" ry="35.21"/>
<text text-anchor="start" x="84.87" y="-171.51" font-family="Helvetica,sans-Serif" font-weight="bold" font-size="14.00"> Class=Austen </text>
<text text-anchor="start" x="202.87" y="-171.51" font-family="Helvetica,sans-Serif" font-size="14.00"> </text>
<text text-anchor="start" x="76.87" y="-157.51" font-family="Helvetica,sans-Serif" font-size="14.00"> error: 0.000, n=31 </text>
<text text-anchor="start" x="50.87" y="-143.51" font-family="Helvetica,sans-Serif" font-size="14.00"> p: (1.00, 0.00, 0.00, 0.00) </text>
</g>
<!-- 5&#45;&gt;6 -->
<g id="edge9" class="edge">
<title>5:s&#45;&gt;6:n</title>
<path fill="none" stroke="black" d="M189.37,-250.71C189.37,-250.71 164.68,-220.27 152.72,-205.53"/>
<polygon fill="black" stroke="black" points="155.39,-203.27 146.37,-197.71 149.95,-207.68 155.39,-203.27"/>
<text text-anchor="middle" x="209.37" y="-221.51" font-family="Helvetica,sans-Serif" font-size="14.00">&lt;= 4.143</text>
</g>
<!-- 10 -->
<g id="node13" class="node">
<title>10</title>
<polygon fill="#3dcc76" stroke="black" points="655.87,-328.71 448.87,-328.71 448.87,-250.71 655.87,-250.71 655.87,-328.71"/>
<text text-anchor="start" x="489.37" y="-314.51" font-family="Helvetica,sans-Serif" font-weight="bold" font-size="14.00"> Class=London </text>
<text text-anchor="start" x="610.37" y="-314.51" font-family="Helvetica,sans-Serif" font-size="14.00"> </text>
<text text-anchor="start" x="482.87" y="-300.51" font-family="Helvetica,sans-Serif" font-size="14.00"> error: 0.427, n=43 </text>
<text text-anchor="start" x="456.87" y="-286.51" font-family="Helvetica,sans-Serif" font-size="14.00"> p: (0.28, 0.72, 0.00, 0.00) </text>
<text text-anchor="start" x="528.37" y="-272.51" font-family="Helvetica,sans-Serif" font-size="14.00">&#45;&#45;&#45;&#45;&#45;&#45;&#45;&#45;&#45;</text>
<text text-anchor="start" x="511.37" y="-258.51" font-family="Helvetica,sans-Serif" font-weight="bold" font-size="14.00">v_23=0.00</text>
</g>
<!-- 9&#45;&gt;10 -->
<g id="edge12" class="edge">
<title>9:s&#45;&gt;10:n</title>
<path fill="none" stroke="black" d="M873.37,-379.71C873.37,-379.71 616.51,-338.9 562.33,-330.29"/>
<polygon fill="black" stroke="black" points="562.8,-326.82 552.37,-328.71 561.7,-333.74 562.8,-326.82"/>
<text text-anchor="middle" x="786.37" y="-350.51" font-family="Helvetica,sans-Serif" font-size="14.00">&lt;= 26.73</text>
</g>
<!-- 12 -->
<g id="node14" class="node">
<title>12</title>
<polygon fill="#3dcc76" stroke="black" points="976.87,-328.71 769.87,-328.71 769.87,-250.71 976.87,-250.71 976.87,-328.71"/>
<text text-anchor="start" x="810.37" y="-314.51" font-family="Helvetica,sans-Serif" font-weight="bold" font-size="14.00"> Class=London </text>
<text text-anchor="start" x="931.37" y="-314.51" font-family="Helvetica,sans-Serif" font-size="14.00"> </text>
<text text-anchor="start" x="803.87" y="-300.51" font-family="Helvetica,sans-Serif" font-size="14.00"> error: 0.042, n=95 </text>
<text text-anchor="start" x="777.87" y="-286.51" font-family="Helvetica,sans-Serif" font-size="14.00"> p: (0.01, 0.99, 0.00, 0.00) </text>
<text text-anchor="start" x="851.87" y="-272.51" font-family="Helvetica,sans-Serif" font-size="14.00">&#45;&#45;&#45;&#45;&#45;&#45;&#45;&#45;</text>
<text text-anchor="start" x="836.87" y="-258.51" font-family="Helvetica,sans-Serif" font-weight="bold" font-size="14.00">v_7=0.02</text>
</g>
<!-- 9&#45;&gt;12 -->
<g id="edge13" class="edge">
<title>9:s&#45;&gt;12:n</title>
<path fill="none" stroke="black" d="M873.37,-379.71C873.37,-379.71 873.37,-353.93 873.37,-339.03"/>
<polygon fill="black" stroke="black" points="876.87,-338.71 873.37,-328.71 869.87,-338.71 876.87,-338.71"/>
<text text-anchor="middle" x="902.37" y="-350.51" font-family="Helvetica,sans-Serif" font-size="14.00">&gt; 26.73</text>
</g>
<!-- 15 -->
<g id="node17" class="node">
<title>15</title>
<polygon fill="#3dcc76" stroke="black" points="1255.87,-328.71 1048.87,-328.71 1048.87,-250.71 1255.87,-250.71 1255.87,-328.71"/>
<text text-anchor="start" x="1090.87" y="-314.51" font-family="Helvetica,sans-Serif" font-weight="bold" font-size="14.00"> Class=Austen </text>
<text text-anchor="start" x="1208.87" y="-314.51" font-family="Helvetica,sans-Serif" font-size="14.00"> </text>
<text text-anchor="start" x="1082.87" y="-300.51" font-family="Helvetica,sans-Serif" font-size="14.00"> error: 0.231, n=41 </text>
<text text-anchor="start" x="1056.87" y="-286.51" font-family="Helvetica,sans-Serif" font-size="14.00"> p: (0.90, 0.10, 0.00, 0.00) </text>
<text text-anchor="start" x="1130.87" y="-272.51" font-family="Helvetica,sans-Serif" font-size="14.00">&#45;&#45;&#45;&#45;&#45;&#45;&#45;&#45;</text>
<text text-anchor="start" x="1115.87" y="-258.51" font-family="Helvetica,sans-Serif" font-weight="bold" font-size="14.00">v_3=0.05</text>
</g>
<!-- 14&#45;&gt;15 -->
<g id="edge16" class="edge">
<title>14:s&#45;&gt;15:n</title>
<path fill="none" stroke="black" d="M1152.37,-379.71C1152.37,-379.71 1152.37,-353.93 1152.37,-339.03"/>
<polygon fill="black" stroke="black" points="1155.87,-338.71 1152.37,-328.71 1148.87,-338.71 1155.87,-338.71"/>
<text text-anchor="middle" x="1187.37" y="-350.51" font-family="Helvetica,sans-Serif" font-size="14.00">&lt;= 6.383</text>
</g>
<!-- 11 -->
<g id="node15" class="node">
<title>11</title>
<ellipse fill="#44e5e5" stroke="black" cx="511.37" cy="-160.71" rx="146.24" ry="35.21"/>
<text text-anchor="start" x="448.37" y="-171.51" font-family="Helvetica,sans-Serif" font-weight="bold" font-size="14.00"> Class=London </text>
<text text-anchor="start" x="569.37" y="-171.51" font-family="Helvetica,sans-Serif" font-size="14.00"> </text>
<text text-anchor="start" x="441.87" y="-157.51" font-family="Helvetica,sans-Serif" font-size="14.00"> error: 0.493, n=28 </text>
<text text-anchor="start" x="415.87" y="-143.51" font-family="Helvetica,sans-Serif" font-size="14.00"> p: (0.43, 0.57, 0.00, 0.00) </text>
</g>
<!-- 10&#45;&gt;11 -->
<g id="edge14" class="edge">
<title>10:s&#45;&gt;11:n</title>
<path fill="none" stroke="black" d="M552.37,-250.71C552.37,-250.71 529.31,-220.9 517.78,-205.99"/>
<polygon fill="black" stroke="black" points="520.26,-203.48 511.37,-197.71 514.72,-207.76 520.26,-203.48"/>
<text text-anchor="middle" x="573.37" y="-221.51" font-family="Helvetica,sans-Serif" font-size="14.00">&lt;= 2.153</text>
</g>
<!-- 13 -->
<g id="node16" class="node">
<title>13</title>
<ellipse fill="#44e5e5" stroke="black" cx="876.37" cy="-160.71" rx="146.24" ry="35.21"/>
<text text-anchor="start" x="813.37" y="-171.51" font-family="Helvetica,sans-Serif" font-weight="bold" font-size="14.00"> Class=London </text>
<text text-anchor="start" x="934.37" y="-171.51" font-family="Helvetica,sans-Serif" font-size="14.00"> </text>
<text text-anchor="start" x="806.87" y="-157.51" font-family="Helvetica,sans-Serif" font-size="14.00"> error: 0.000, n=94 </text>
<text text-anchor="start" x="780.87" y="-143.51" font-family="Helvetica,sans-Serif" font-size="14.00"> p: (0.00, 1.00, 0.00, 0.00) </text>
</g>
<!-- 12&#45;&gt;13 -->
<g id="edge15" class="edge">
<title>12:s&#45;&gt;13:n</title>
<path fill="none" stroke="black" d="M873.37,-250.71C873.37,-250.71 874.92,-223.33 875.79,-207.93"/>
<polygon fill="black" stroke="black" points="879.3,-207.89 876.37,-197.71 872.31,-207.5 879.3,-207.89"/>
<text text-anchor="middle" x="906.87" y="-221.51" font-family="Helvetica,sans-Serif" font-size="14.00">&gt; &#45;17.73</text>
</g>
<!-- 16 -->
<g id="node18" class="node">
<title>16</title>
<polygon fill="#44e5e5" stroke="black" points="1301.87,-199.71 1094.87,-199.71 1094.87,-121.71 1301.87,-121.71 1301.87,-199.71"/>
<text text-anchor="start" x="1136.87" y="-185.51" font-family="Helvetica,sans-Serif" font-weight="bold" font-size="14.00"> Class=Austen </text>
<text text-anchor="start" x="1254.87" y="-185.51" font-family="Helvetica,sans-Serif" font-size="14.00"> </text>
<text text-anchor="start" x="1128.87" y="-171.51" font-family="Helvetica,sans-Serif" font-size="14.00"> error: 0.098, n=33 </text>
<text text-anchor="start" x="1102.87" y="-157.51" font-family="Helvetica,sans-Serif" font-size="14.00"> p: (0.97, 0.03, 0.00, 0.00) </text>
<text text-anchor="start" x="1176.87" y="-143.51" font-family="Helvetica,sans-Serif" font-size="14.00">&#45;&#45;&#45;&#45;&#45;&#45;&#45;&#45;</text>
<text text-anchor="start" x="1161.87" y="-129.51" font-family="Helvetica,sans-Serif" font-weight="bold" font-size="14.00">v_0=0.38</text>
</g>
<!-- 15&#45;&gt;16 -->
<g id="edge17" class="edge">
<title>15:s&#45;&gt;16:n</title>
<path fill="none" stroke="black" d="M1152.37,-250.71C1152.37,-250.71 1178.79,-221.42 1191.58,-207.24"/>
<polygon fill="black" stroke="black" points="1194.27,-209.48 1198.37,-199.71 1189.07,-204.79 1194.27,-209.48"/>
<text text-anchor="middle" x="1212.87" y="-221.51" font-family="Helvetica,sans-Serif" font-size="14.00">&gt; &#45;10.13</text>
</g>
<!-- 17 -->
<g id="node19" class="node">
<title>17</title>
<ellipse fill="#3d76cc" stroke="black" cx="1198.37" cy="-35.36" rx="146.24" ry="35.21"/>
<text text-anchor="start" x="1136.87" y="-46.16" font-family="Helvetica,sans-Serif" font-weight="bold" font-size="14.00"> Class=Austen </text>
<text text-anchor="start" x="1254.87" y="-46.16" font-family="Helvetica,sans-Serif" font-size="14.00"> </text>
<text text-anchor="start" x="1128.87" y="-32.16" font-family="Helvetica,sans-Serif" font-size="14.00"> error: 0.000, n=32 </text>
<text text-anchor="start" x="1102.87" y="-18.16" font-family="Helvetica,sans-Serif" font-size="14.00"> p: (1.00, 0.00, 0.00, 0.00) </text>
</g>
<!-- 16&#45;&gt;17 -->
<g id="edge18" class="edge">
<title>16:s&#45;&gt;17:n</title>
<path fill="none" stroke="black" d="M1198.37,-121.71C1198.37,-121.71 1198.37,-95.93 1198.37,-81.03"/>
<polygon fill="black" stroke="black" points="1201.87,-80.71 1198.37,-70.71 1194.87,-80.71 1201.87,-80.71"/>
<text text-anchor="middle" x="1233.37" y="-92.51" font-family="Helvetica,sans-Serif" font-size="14.00">&lt;= 42.59</text>
</g>
<!-- 20 -->
<g id="node22" class="node">
<title>20</title>
<polygon fill="#64e544" stroke="black" points="1899.87,-457.71 1692.87,-457.71 1692.87,-379.71 1899.87,-379.71 1899.87,-457.71"/>
<text text-anchor="start" x="1711.37" y="-443.51" font-family="Helvetica,sans-Serif" font-weight="bold" font-size="14.00"> Class=Shakespeare </text>
<text text-anchor="start" x="1876.37" y="-443.51" font-family="Helvetica,sans-Serif" font-size="14.00"> </text>
<text text-anchor="start" x="1722.37" y="-429.51" font-family="Helvetica,sans-Serif" font-size="14.00"> error: 0.162, n=157 </text>
<text text-anchor="start" x="1700.87" y="-415.51" font-family="Helvetica,sans-Serif" font-size="14.00"> p: (0.03, 0.01, 0.01, 0.96) </text>
<text text-anchor="start" x="1774.87" y="-401.51" font-family="Helvetica,sans-Serif" font-size="14.00">&#45;&#45;&#45;&#45;&#45;&#45;&#45;&#45;</text>
<text text-anchor="start" x="1759.87" y="-387.51" font-family="Helvetica,sans-Serif" font-weight="bold" font-size="14.00">v_1=0.14</text>
</g>
<!-- 19&#45;&gt;20 -->
<g id="edge21" class="edge">
<title>19:s&#45;&gt;20:n</title>
<path fill="none" stroke="black" d="M1947.37,-508.71C1947.37,-508.71 1839.87,-472.4 1806.28,-461.06"/>
<polygon fill="black" stroke="black" points="1806.97,-457.59 1796.37,-457.71 1804.73,-464.23 1806.97,-457.59"/>
<text text-anchor="middle" x="1925.37" y="-479.51" font-family="Helvetica,sans-Serif" font-size="14.00">&lt;= 23.06</text>
</g>
<!-- 25 -->
<g id="node23" class="node">
<title>25</title>
<polygon fill="#64e544" stroke="black" points="2200.87,-457.71 1993.87,-457.71 1993.87,-379.71 2200.87,-379.71 2200.87,-457.71"/>
<text text-anchor="start" x="2038.87" y="-443.51" font-family="Helvetica,sans-Serif" font-weight="bold" font-size="14.00"> Class=Milton </text>
<text text-anchor="start" x="2150.87" y="-443.51" font-family="Helvetica,sans-Serif" font-size="14.00"> </text>
<text text-anchor="start" x="2027.87" y="-429.51" font-family="Helvetica,sans-Serif" font-size="14.00"> error: 0.224, n=32 </text>
<text text-anchor="start" x="2001.87" y="-415.51" font-family="Helvetica,sans-Serif" font-size="14.00"> p: (0.00, 0.00, 0.91, 0.09) </text>
<text text-anchor="start" x="2075.87" y="-401.51" font-family="Helvetica,sans-Serif" font-size="14.00">&#45;&#45;&#45;&#45;&#45;&#45;&#45;&#45;</text>
<text text-anchor="start" x="2060.87" y="-387.51" font-family="Helvetica,sans-Serif" font-weight="bold" font-size="14.00">v_3=0.05</text>
</g>
<!-- 19&#45;&gt;25 -->
<g id="edge22" class="edge">
<title>19:s&#45;&gt;25:n</title>
<path fill="none" stroke="black" d="M1947.37,-508.71C1947.37,-508.71 2054.16,-472.4 2087.53,-461.06"/>
<polygon fill="black" stroke="black" points="2089.03,-464.24 2097.37,-457.71 2086.78,-457.62 2089.03,-464.24"/>
<text text-anchor="middle" x="2069.37" y="-479.51" font-family="Helvetica,sans-Serif" font-size="14.00">&gt; 23.06</text>
</g>
<!-- 28 -->
<g id="node29" class="node">
<title>28</title>
<polygon fill="#64e544" stroke="black" points="2543.87,-457.71 2336.87,-457.71 2336.87,-379.71 2543.87,-379.71 2543.87,-457.71"/>
<text text-anchor="start" x="2377.37" y="-443.51" font-family="Helvetica,sans-Serif" font-weight="bold" font-size="14.00"> Class=London </text>
<text text-anchor="start" x="2498.37" y="-443.51" font-family="Helvetica,sans-Serif" font-size="14.00"> </text>
<text text-anchor="start" x="2370.87" y="-429.51" font-family="Helvetica,sans-Serif" font-size="14.00"> error: 0.721, n=95 </text>
<text text-anchor="start" x="2344.87" y="-415.51" font-family="Helvetica,sans-Serif" font-size="14.00"> p: (0.00, 0.55, 0.25, 0.20) </text>
<text text-anchor="start" x="2418.87" y="-401.51" font-family="Helvetica,sans-Serif" font-size="14.00">&#45;&#45;&#45;&#45;&#45;&#45;&#45;&#45;</text>
<text text-anchor="start" x="2403.87" y="-387.51" font-family="Helvetica,sans-Serif" font-weight="bold" font-size="14.00">v_2=0.08</text>
</g>
<!-- 27&#45;&gt;28 -->
<g id="edge28" class="edge">
<title>27:s&#45;&gt;28:n</title>
<path fill="none" stroke="black" d="M2440.37,-508.71C2440.37,-508.71 2440.37,-482.93 2440.37,-468.03"/>
<polygon fill="black" stroke="black" points="2443.87,-467.71 2440.37,-457.71 2436.87,-467.71 2443.87,-467.71"/>
<text text-anchor="middle" x="2473.37" y="-479.51" font-family="Helvetica,sans-Serif" font-size="14.00">&lt;= &#45;12.4</text>
</g>
<!-- 34 -->
<g id="node30" class="node">
<title>34</title>
<ellipse fill="#64e544" stroke="black" cx="2762.37" cy="-418.71" rx="146.24" ry="35.21"/>
<text text-anchor="start" x="2699.37" y="-429.51" font-family="Helvetica,sans-Serif" font-weight="bold" font-size="14.00"> Class=London </text>
<text text-anchor="start" x="2820.37" y="-429.51" font-family="Helvetica,sans-Serif" font-size="14.00"> </text>
<text text-anchor="start" x="2688.37" y="-415.51" font-family="Helvetica,sans-Serif" font-size="14.00"> error: 0.000, n=100 </text>
<text text-anchor="start" x="2666.87" y="-401.51" font-family="Helvetica,sans-Serif" font-size="14.00"> p: (0.00, 1.00, 0.00, 0.00) </text>
</g>
<!-- 27&#45;&gt;34 -->
<g id="edge29" class="edge">
<title>27:s&#45;&gt;34:n</title>
<path fill="none" stroke="black" d="M2440.37,-508.71C2440.37,-508.71 2698.03,-466.3 2752.38,-457.35"/>
<polygon fill="black" stroke="black" points="2753.07,-460.79 2762.37,-455.71 2751.94,-453.88 2753.07,-460.79"/>
<text text-anchor="middle" x="2667.37" y="-479.51" font-family="Helvetica,sans-Serif" font-size="14.00">&gt; &#45;12.4</text>
</g>
<!-- 21 -->
<g id="node24" class="node">
<title>21</title>
<ellipse fill="#3dcc76" stroke="black" cx="1474.37" cy="-289.71" rx="146.24" ry="35.21"/>
<text text-anchor="start" x="1389.37" y="-300.51" font-family="Helvetica,sans-Serif" font-weight="bold" font-size="14.00"> Class=Shakespeare </text>
<text text-anchor="start" x="1554.37" y="-300.51" font-family="Helvetica,sans-Serif" font-size="14.00"> </text>
<text text-anchor="start" x="1400.37" y="-286.51" font-family="Helvetica,sans-Serif" font-size="14.00"> error: 0.000, n=102 </text>
<text text-anchor="start" x="1378.87" y="-272.51" font-family="Helvetica,sans-Serif" font-size="14.00"> p: (0.00, 0.00, 0.00, 1.00) </text>
</g>
<!-- 20&#45;&gt;21 -->
<g id="edge23" class="edge">
<title>20:s&#45;&gt;21:n</title>
<path fill="none" stroke="black" d="M1796.37,-379.71C1796.37,-379.71 1538.71,-337.3 1484.36,-328.35"/>
<polygon fill="black" stroke="black" points="1484.81,-324.88 1474.37,-326.71 1483.67,-331.79 1484.81,-324.88"/>
<text text-anchor="middle" x="1716.37" y="-350.51" font-family="Helvetica,sans-Serif" font-size="14.00">&lt;= &#45;25.6</text>
</g>
<!-- 22 -->
<g id="node25" class="node">
<title>22</title>
<polygon fill="#3dcc76" stroke="black" points="1899.87,-328.71 1692.87,-328.71 1692.87,-250.71 1899.87,-250.71 1899.87,-328.71"/>
<text text-anchor="start" x="1711.37" y="-314.51" font-family="Helvetica,sans-Serif" font-weight="bold" font-size="14.00"> Class=Shakespeare </text>
<text text-anchor="start" x="1876.37" y="-314.51" font-family="Helvetica,sans-Serif" font-size="14.00"> </text>
<text text-anchor="start" x="1726.87" y="-300.51" font-family="Helvetica,sans-Serif" font-size="14.00"> error: 0.363, n=55 </text>
<text text-anchor="start" x="1700.87" y="-286.51" font-family="Helvetica,sans-Serif" font-size="14.00"> p: (0.07, 0.04, 0.02, 0.87) </text>
<text text-anchor="start" x="1774.87" y="-272.51" font-family="Helvetica,sans-Serif" font-size="14.00">&#45;&#45;&#45;&#45;&#45;&#45;&#45;&#45;</text>
<text text-anchor="start" x="1759.87" y="-258.51" font-family="Helvetica,sans-Serif" font-weight="bold" font-size="14.00">v_1=0.14</text>
</g>
<!-- 20&#45;&gt;22 -->
<g id="edge24" class="edge">
<title>20:s&#45;&gt;22:n</title>
<path fill="none" stroke="black" d="M1796.37,-379.71C1796.37,-379.71 1796.37,-353.93 1796.37,-339.03"/>
<polygon fill="black" stroke="black" points="1799.87,-338.71 1796.37,-328.71 1792.87,-338.71 1799.87,-338.71"/>
<text text-anchor="middle" x="1823.37" y="-350.51" font-family="Helvetica,sans-Serif" font-size="14.00">&gt; &#45;25.6</text>
</g>
<!-- 26 -->
<g id="node28" class="node">
<title>26</title>
<ellipse fill="#3dcc76" stroke="black" cx="2118.37" cy="-289.71" rx="146.24" ry="35.21"/>
<text text-anchor="start" x="2059.87" y="-300.51" font-family="Helvetica,sans-Serif" font-weight="bold" font-size="14.00"> Class=Milton </text>
<text text-anchor="start" x="2171.87" y="-300.51" font-family="Helvetica,sans-Serif" font-size="14.00"> </text>
<text text-anchor="start" x="2048.87" y="-286.51" font-family="Helvetica,sans-Serif" font-size="14.00"> error: 0.000, n=26 </text>
<text text-anchor="start" x="2022.87" y="-272.51" font-family="Helvetica,sans-Serif" font-size="14.00"> p: (0.00, 0.00, 1.00, 0.00) </text>
</g>
<!-- 25&#45;&gt;26 -->
<g id="edge27" class="edge">
<title>25:s&#45;&gt;26:n</title>
<path fill="none" stroke="black" d="M2097.37,-379.71C2097.37,-379.71 2108.46,-351.73 2114.52,-336.43"/>
<polygon fill="black" stroke="black" points="2117.94,-337.3 2118.37,-326.71 2111.43,-334.72 2117.94,-337.3"/>
<text text-anchor="middle" x="2147.87" y="-350.51" font-family="Helvetica,sans-Serif" font-size="14.00">&lt;= &#45;3.533</text>
</g>
<!-- 23 -->
<g id="node26" class="node">
<title>23</title>
<polygon fill="#44e5e5" stroke="black" points="1899.87,-199.71 1692.87,-199.71 1692.87,-121.71 1899.87,-121.71 1899.87,-199.71"/>
<text text-anchor="start" x="1711.37" y="-185.51" font-family="Helvetica,sans-Serif" font-weight="bold" font-size="14.00"> Class=Shakespeare </text>
<text text-anchor="start" x="1876.37" y="-185.51" font-family="Helvetica,sans-Serif" font-size="14.00"> </text>
<text text-anchor="start" x="1726.87" y="-171.51" font-family="Helvetica,sans-Serif" font-size="14.00"> error: 0.076, n=46 </text>
<text text-anchor="start" x="1700.87" y="-157.51" font-family="Helvetica,sans-Serif" font-size="14.00"> p: (0.00, 0.00, 0.02, 0.98) </text>
<text text-anchor="start" x="1774.87" y="-143.51" font-family="Helvetica,sans-Serif" font-size="14.00">&#45;&#45;&#45;&#45;&#45;&#45;&#45;&#45;</text>
<text text-anchor="start" x="1759.87" y="-129.51" font-family="Helvetica,sans-Serif" font-weight="bold" font-size="14.00">v_5=0.03</text>
</g>
<!-- 22&#45;&gt;23 -->
<g id="edge25" class="edge">
<title>22:s&#45;&gt;23:n</title>
<path fill="none" stroke="black" d="M1796.37,-250.71C1796.37,-250.71 1796.37,-224.93 1796.37,-210.03"/>
<polygon fill="black" stroke="black" points="1799.87,-209.71 1796.37,-199.71 1792.87,-209.71 1799.87,-209.71"/>
<text text-anchor="middle" x="1833.87" y="-221.51" font-family="Helvetica,sans-Serif" font-size="14.00">&lt;= &#45;14.06</text>
</g>
<!-- 24 -->
<g id="node27" class="node">
<title>24</title>
<ellipse fill="#3d76cc" stroke="black" cx="1796.37" cy="-35.36" rx="146.24" ry="35.21"/>
<text text-anchor="start" x="1711.37" y="-46.16" font-family="Helvetica,sans-Serif" font-weight="bold" font-size="14.00"> Class=Shakespeare </text>
<text text-anchor="start" x="1876.37" y="-46.16" font-family="Helvetica,sans-Serif" font-size="14.00"> </text>
<text text-anchor="start" x="1726.87" y="-32.16" font-family="Helvetica,sans-Serif" font-size="14.00"> error: 0.000, n=45 </text>
<text text-anchor="start" x="1700.87" y="-18.16" font-family="Helvetica,sans-Serif" font-size="14.00"> p: (0.00, 0.00, 0.00, 1.00) </text>
</g>
<!-- 23&#45;&gt;24 -->
<g id="edge26" class="edge">
<title>23:s&#45;&gt;24:n</title>
<path fill="none" stroke="black" d="M1796.37,-121.71C1796.37,-121.71 1796.37,-95.93 1796.37,-81.03"/>
<polygon fill="black" stroke="black" points="1799.87,-80.71 1796.37,-70.71 1792.87,-80.71 1799.87,-80.71"/>
<text text-anchor="middle" x="1827.87" y="-92.51" font-family="Helvetica,sans-Serif" font-size="14.00">&gt; &#45;18.87</text>
</g>
<!-- 29 -->
<g id="node31" class="node">
<title>29</title>
<polygon fill="#3dcc76" stroke="black" points="2543.87,-328.71 2336.87,-328.71 2336.87,-250.71 2543.87,-250.71 2543.87,-328.71"/>
<text text-anchor="start" x="2377.37" y="-314.51" font-family="Helvetica,sans-Serif" font-weight="bold" font-size="14.00"> Class=London </text>
<text text-anchor="start" x="2498.37" y="-314.51" font-family="Helvetica,sans-Serif" font-size="14.00"> </text>
<text text-anchor="start" x="2370.87" y="-300.51" font-family="Helvetica,sans-Serif" font-size="14.00"> error: 0.300, n=48 </text>
<text text-anchor="start" x="2344.87" y="-286.51" font-family="Helvetica,sans-Serif" font-size="14.00"> p: (0.00, 0.85, 0.00, 0.15) </text>
<text text-anchor="start" x="2418.87" y="-272.51" font-family="Helvetica,sans-Serif" font-size="14.00">&#45;&#45;&#45;&#45;&#45;&#45;&#45;&#45;</text>
<text text-anchor="start" x="2403.87" y="-258.51" font-family="Helvetica,sans-Serif" font-weight="bold" font-size="14.00">v_1=0.14</text>
</g>
<!-- 28&#45;&gt;29 -->
<g id="edge30" class="edge">
<title>28:s&#45;&gt;29:n</title>
<path fill="none" stroke="black" d="M2440.37,-379.71C2440.37,-379.71 2440.37,-353.93 2440.37,-339.03"/>
<polygon fill="black" stroke="black" points="2443.87,-338.71 2440.37,-328.71 2436.87,-338.71 2443.87,-338.71"/>
<text text-anchor="middle" x="2475.37" y="-350.51" font-family="Helvetica,sans-Serif" font-size="14.00">&lt;= 4.044</text>
</g>
<!-- 31 -->
<g id="node32" class="node">
<title>31</title>
<polygon fill="#3dcc76" stroke="black" points="2843.87,-328.71 2636.87,-328.71 2636.87,-250.71 2843.87,-250.71 2843.87,-328.71"/>
<text text-anchor="start" x="2681.87" y="-314.51" font-family="Helvetica,sans-Serif" font-weight="bold" font-size="14.00"> Class=Milton </text>
<text text-anchor="start" x="2793.87" y="-314.51" font-family="Helvetica,sans-Serif" font-size="14.00"> </text>
<text text-anchor="start" x="2670.87" y="-300.51" font-family="Helvetica,sans-Serif" font-size="14.00"> error: 0.744, n=47 </text>
<text text-anchor="start" x="2644.87" y="-286.51" font-family="Helvetica,sans-Serif" font-size="14.00"> p: (0.00, 0.23, 0.51, 0.26) </text>
<text text-anchor="start" x="2718.87" y="-272.51" font-family="Helvetica,sans-Serif" font-size="14.00">&#45;&#45;&#45;&#45;&#45;&#45;&#45;&#45;</text>
<text text-anchor="start" x="2703.87" y="-258.51" font-family="Helvetica,sans-Serif" font-weight="bold" font-size="14.00">v_2=0.08</text>
</g>
<!-- 28&#45;&gt;31 -->
<g id="edge31" class="edge">
<title>28:s&#45;&gt;31:n</title>
<path fill="none" stroke="black" d="M2440.37,-379.71C2440.37,-379.71 2678.33,-339.26 2730.39,-330.41"/>
<polygon fill="black" stroke="black" points="2731.1,-333.84 2740.37,-328.71 2729.93,-326.94 2731.1,-333.84"/>
<text text-anchor="middle" x="2655.37" y="-350.51" font-family="Helvetica,sans-Serif" font-size="14.00">&gt; 4.044</text>
</g>
<!-- 30 -->
<g id="node33" class="node">
<title>30</title>
<ellipse fill="#44e5e5" stroke="black" cx="2434.37" cy="-160.71" rx="146.24" ry="35.21"/>
<text text-anchor="start" x="2371.37" y="-171.51" font-family="Helvetica,sans-Serif" font-weight="bold" font-size="14.00"> Class=London </text>
<text text-anchor="start" x="2492.37" y="-171.51" font-family="Helvetica,sans-Serif" font-size="14.00"> </text>
<text text-anchor="start" x="2364.87" y="-157.51" font-family="Helvetica,sans-Serif" font-size="14.00"> error: 0.000, n=33 </text>
<text text-anchor="start" x="2338.87" y="-143.51" font-family="Helvetica,sans-Serif" font-size="14.00"> p: (0.00, 1.00, 0.00, 0.00) </text>
</g>
<!-- 29&#45;&gt;30 -->
<g id="edge32" class="edge">
<title>29:s&#45;&gt;30:n</title>
<path fill="none" stroke="black" d="M2440.37,-250.71C2440.37,-250.71 2437.27,-223.33 2435.53,-207.93"/>
<polygon fill="black" stroke="black" points="2438.97,-207.25 2434.37,-197.71 2432.02,-208.04 2438.97,-207.25"/>
<text text-anchor="middle" x="2469.87" y="-221.51" font-family="Helvetica,sans-Serif" font-size="14.00">&gt; &#45;22.22</text>
</g>
<!-- 32 -->
<g id="node34" class="node">
<title>32</title>
<polygon fill="#44e5e5" stroke="black" points="2859.87,-199.71 2652.87,-199.71 2652.87,-121.71 2859.87,-121.71 2859.87,-199.71"/>
<text text-anchor="start" x="2697.87" y="-185.51" font-family="Helvetica,sans-Serif" font-weight="bold" font-size="14.00"> Class=Milton </text>
<text text-anchor="start" x="2809.87" y="-185.51" font-family="Helvetica,sans-Serif" font-size="14.00"> </text>
<text text-anchor="start" x="2686.87" y="-171.51" font-family="Helvetica,sans-Serif" font-size="14.00"> error: 0.367, n=28 </text>
<text text-anchor="start" x="2660.87" y="-157.51" font-family="Helvetica,sans-Serif" font-size="14.00"> p: (0.00, 0.07, 0.86, 0.07) </text>
<text text-anchor="start" x="2734.87" y="-143.51" font-family="Helvetica,sans-Serif" font-size="14.00">&#45;&#45;&#45;&#45;&#45;&#45;&#45;&#45;</text>
<text text-anchor="start" x="2719.87" y="-129.51" font-family="Helvetica,sans-Serif" font-weight="bold" font-size="14.00">v_0=0.38</text>
</g>
<!-- 31&#45;&gt;32 -->
<g id="edge33" class="edge">
<title>31:s&#45;&gt;32:n</title>
<path fill="none" stroke="black" d="M2740.37,-250.71C2740.37,-250.71 2748.64,-224.36 2753.29,-209.54"/>
<polygon fill="black" stroke="black" points="2756.72,-210.3 2756.37,-199.71 2750.04,-208.2 2756.72,-210.3"/>
<text text-anchor="middle" x="2779.37" y="-221.51" font-family="Helvetica,sans-Serif" font-size="14.00">&gt; 18.83</text>
</g>
<!-- 33 -->
<g id="node35" class="node">
<title>33</title>
<ellipse fill="#3d76cc" stroke="black" cx="2756.37" cy="-35.36" rx="146.24" ry="35.21"/>
<text text-anchor="start" x="2697.87" y="-46.16" font-family="Helvetica,sans-Serif" font-weight="bold" font-size="14.00"> Class=Milton </text>
<text text-anchor="start" x="2809.87" y="-46.16" font-family="Helvetica,sans-Serif" font-size="14.00"> </text>
<text text-anchor="start" x="2686.87" y="-32.16" font-family="Helvetica,sans-Serif" font-size="14.00"> error: 0.201, n=25 </text>
<text text-anchor="start" x="2660.87" y="-18.16" font-family="Helvetica,sans-Serif" font-size="14.00"> p: (0.00, 0.00, 0.92, 0.08) </text>
</g>
<!-- 32&#45;&gt;33 -->
<g id="edge34" class="edge">
<title>32:s&#45;&gt;33:n</title>
<path fill="none" stroke="black" d="M2756.37,-121.71C2756.37,-121.71 2756.37,-95.93 2756.37,-81.03"/>
<polygon fill="black" stroke="black" points="2759.87,-80.71 2756.37,-70.71 2752.87,-80.71 2759.87,-80.71"/>
<text text-anchor="middle" x="2791.37" y="-92.51" font-family="Helvetica,sans-Serif" font-size="14.00">&lt;= 21.18</text>
</g>
</g>
</svg>
