<?xml version="1.0" encoding="UTF-8" standalone="no"?>
<!DOCTYPE svg PUBLIC "-//W3C//DTD SVG 1.1//EN"
 "http://www.w3.org/Graphics/SVG/1.1/DTD/svg11.dtd">
<!-- Generated by graphviz version 2.43.0 (0)
 -->
<!-- Title: Tree Pages: 1 -->
<svg width="1445pt" height="696pt"
 viewBox="0.00 0.00 1444.66 695.71" xmlns="http://www.w3.org/2000/svg" xmlns:xlink="http://www.w3.org/1999/xlink">
<g id="graph0" class="graph" transform="scale(1 1) rotate(0) translate(18 677.71)">
<title>Tree</title>
<polygon fill="white" stroke="transparent" points="-18,18 -18,-677.71 1426.66,-677.71 1426.66,18 -18,18"/>
<!-- 0 -->
<g id="node1" class="node">
<title>0</title>
<polygon fill="white" stroke="transparent" points="771.33,-659.71 717.33,-659.71 717.33,-623.71 771.33,-623.71 771.33,-659.71"/>
<text text-anchor="middle" x="744.33" y="-638.01" font-family="Helvetica,sans-Serif" font-size="14.00">0</text>
</g>
<!-- 1 -->
<g id="node2" class="node">
<title>1</title>
<polygon fill="#cc3d3d" stroke="black" points="835.33,-586.71 653.33,-586.71 653.33,-508.71 835.33,-508.71 835.33,-586.71"/>
<text text-anchor="start" x="705.33" y="-572.51" font-family="Helvetica,sans-Serif" font-weight="bold" font-size="14.00"> Class=1 </text>
<text text-anchor="start" x="778.33" y="-572.51" font-family="Helvetica,sans-Serif" font-size="14.00"> </text>
<text text-anchor="start" x="661.33" y="-558.51" font-family="Helvetica,sans-Serif" font-size="14.00"> error: 0.521, n=45211 </text>
<text text-anchor="start" x="689.33" y="-544.51" font-family="Helvetica,sans-Serif" font-size="14.00"> p: (0.88, 0.12) </text>
<text text-anchor="start" x="736.33" y="-530.51" font-family="Helvetica,sans-Serif" font-size="14.00">&#45;&#45;&#45;</text>
<text text-anchor="start" x="728.83" y="-516.51" font-family="Helvetica,sans-Serif" font-weight="bold" font-size="14.00">V12</text>
</g>
<!-- 0&#45;&gt;1 -->
<!-- 2 -->
<g id="node3" class="node">
<title>2</title>
<ellipse fill="#e5d544" stroke="black" cx="684.33" cy="-418.71" rx="122.16" ry="35.21"/>
<text text-anchor="start" x="645.33" y="-429.51" font-family="Helvetica,sans-Serif" font-weight="bold" font-size="14.00"> Class=1 </text>
<text text-anchor="start" x="718.33" y="-429.51" font-family="Helvetica,sans-Serif" font-size="14.00"> </text>
<text text-anchor="start" x="605.83" y="-415.51" font-family="Helvetica,sans-Serif" font-size="14.00"> error: 0.986, n=5143 </text>
<text text-anchor="start" x="629.33" y="-401.51" font-family="Helvetica,sans-Serif" font-size="14.00"> p: (0.57, 0.43) </text>
</g>
<!-- 1&#45;&gt;2 -->
<g id="edge2" class="edge">
<title>1:s&#45;&gt;2:n</title>
<path fill="none" stroke="black" d="M744.33,-508.71C744.33,-508.71 708.44,-477.01 692.17,-462.64"/>
<polygon fill="black" stroke="black" points="694.14,-459.71 684.33,-455.71 689.51,-464.95 694.14,-459.71"/>
<text text-anchor="middle" x="745.33" y="-479.51" font-family="Helvetica,sans-Serif" font-size="14.00">&gt; 512</text>
</g>
<!-- 3 -->
<g id="node4" class="node">
<title>3</title>
<polygon fill="#e5d544" stroke="black" points="1060.33,-457.71 878.33,-457.71 878.33,-379.71 1060.33,-379.71 1060.33,-457.71"/>
<text text-anchor="start" x="930.33" y="-443.51" font-family="Helvetica,sans-Serif" font-weight="bold" font-size="14.00"> Class=1 </text>
<text text-anchor="start" x="1003.33" y="-443.51" font-family="Helvetica,sans-Serif" font-size="14.00"> </text>
<text text-anchor="start" x="886.33" y="-429.51" font-family="Helvetica,sans-Serif" font-size="14.00"> error: 0.390, n=40068 </text>
<text text-anchor="start" x="914.33" y="-415.51" font-family="Helvetica,sans-Serif" font-size="14.00"> p: (0.92, 0.08) </text>
<text text-anchor="start" x="961.33" y="-401.51" font-family="Helvetica,sans-Serif" font-size="14.00">&#45;&#45;&#45;</text>
<text text-anchor="start" x="953.83" y="-387.51" font-family="Helvetica,sans-Serif" font-weight="bold" font-size="14.00">V16</text>
</g>
<!-- 1&#45;&gt;3 -->
<g id="edge3" class="edge">
<title>1:s&#45;&gt;3:n</title>
<path fill="none" stroke="black" d="M744.33,-508.71C744.33,-508.71 915.83,-469.84 959.37,-459.97"/>
<polygon fill="black" stroke="black" points="960.35,-463.33 969.33,-457.71 958.8,-456.51 960.35,-463.33"/>
<text text-anchor="middle" x="912.33" y="-479.51" font-family="Helvetica,sans-Serif" font-size="14.00">&lt;= 512</text>
</g>
<!-- 4 -->
<g id="node5" class="node">
<title>4</title>
<polygon fill="#59cc3d" stroke="black" points="775.33,-328.71 593.33,-328.71 593.33,-250.71 775.33,-250.71 775.33,-328.71"/>
<text text-anchor="start" x="645.33" y="-314.51" font-family="Helvetica,sans-Serif" font-weight="bold" font-size="14.00"> Class=1 </text>
<text text-anchor="start" x="718.33" y="-314.51" font-family="Helvetica,sans-Serif" font-size="14.00"> </text>
<text text-anchor="start" x="601.33" y="-300.51" font-family="Helvetica,sans-Serif" font-size="14.00"> error: 0.287, n=32713 </text>
<text text-anchor="start" x="629.33" y="-286.51" font-family="Helvetica,sans-Serif" font-size="14.00"> p: (0.95, 0.05) </text>
<text text-anchor="start" x="676.33" y="-272.51" font-family="Helvetica,sans-Serif" font-size="14.00">&#45;&#45;&#45;</text>
<text text-anchor="start" x="668.83" y="-258.51" font-family="Helvetica,sans-Serif" font-weight="bold" font-size="14.00">V11</text>
</g>
<!-- 3&#45;&gt;4 -->
<g id="edge4" class="edge">
<title>3:s&#45;&gt;4:n</title>
<path fill="none" stroke="black" d="M969.33,-379.71C969.33,-379.71 745.24,-339.61 694.47,-330.53"/>
<polygon fill="black" stroke="black" points="694.79,-327.03 684.33,-328.71 693.56,-333.92 694.79,-327.03"/>
<text text-anchor="middle" x="893.33" y="-350.51" font-family="Helvetica,sans-Serif" font-size="14.00">unknown</text>
</g>
<!-- 12 -->
<g id="node6" class="node">
<title>12</title>
<ellipse fill="#59cc3d" stroke="black" cx="969.33" cy="-289.71" rx="122.16" ry="35.21"/>
<text text-anchor="start" x="930.33" y="-300.51" font-family="Helvetica,sans-Serif" font-weight="bold" font-size="14.00"> Class=1 </text>
<text text-anchor="start" x="1003.33" y="-300.51" font-family="Helvetica,sans-Serif" font-size="14.00"> </text>
<text text-anchor="start" x="890.83" y="-286.51" font-family="Helvetica,sans-Serif" font-size="14.00"> error: 0.449, n=4433 </text>
<text text-anchor="start" x="914.33" y="-272.51" font-family="Helvetica,sans-Serif" font-size="14.00"> p: (0.91, 0.09) </text>
</g>
<!-- 3&#45;&gt;12 -->
<g id="edge5" class="edge">
<title>3:s&#45;&gt;12:n</title>
<path fill="none" stroke="black" d="M969.33,-379.71C969.33,-379.71 969.33,-352.33 969.33,-336.93"/>
<polygon fill="black" stroke="black" points="972.83,-336.71 969.33,-326.71 965.83,-336.71 972.83,-336.71"/>
<text text-anchor="middle" x="991.33" y="-350.51" font-family="Helvetica,sans-Serif" font-size="14.00">failure</text>
</g>
<!-- 13 -->
<g id="node7" class="node">
<title>13</title>
<ellipse fill="#59cc3d" stroke="black" cx="1286.33" cy="-289.71" rx="122.16" ry="35.21"/>
<text text-anchor="start" x="1247.33" y="-300.51" font-family="Helvetica,sans-Serif" font-weight="bold" font-size="14.00"> Class=1 </text>
<text text-anchor="start" x="1320.33" y="-300.51" font-family="Helvetica,sans-Serif" font-size="14.00"> </text>
<text text-anchor="start" x="1207.83" y="-286.51" font-family="Helvetica,sans-Serif" font-size="14.00"> error: 0.559, n=1630 </text>
<text text-anchor="start" x="1231.33" y="-272.51" font-family="Helvetica,sans-Serif" font-size="14.00"> p: (0.87, 0.13) </text>
</g>
<!-- 3&#45;&gt;13 -->
<g id="edge6" class="edge">
<title>3:s&#45;&gt;13:n</title>
<path fill="none" stroke="black" d="M969.33,-379.71C969.33,-379.71 1221.88,-337.49 1276.14,-328.41"/>
<polygon fill="black" stroke="black" points="1277.04,-331.81 1286.33,-326.71 1275.89,-324.91 1277.04,-331.81"/>
<text text-anchor="middle" x="1183.83" y="-350.51" font-family="Helvetica,sans-Serif" font-size="14.00">other</text>
</g>
<!-- 5 -->
<g id="node8" class="node">
<title>5</title>
<ellipse fill="#44e5b5" stroke="black" cx="122.33" cy="-160.71" rx="122.16" ry="35.21"/>
<text text-anchor="start" x="83.33" y="-171.51" font-family="Helvetica,sans-Serif" font-weight="bold" font-size="14.00"> Class=1 </text>
<text text-anchor="start" x="156.33" y="-171.51" font-family="Helvetica,sans-Serif" font-size="14.00"> </text>
<text text-anchor="start" x="43.83" y="-157.51" font-family="Helvetica,sans-Serif" font-size="14.00"> error: 0.119, n=9984 </text>
<text text-anchor="start" x="67.33" y="-143.51" font-family="Helvetica,sans-Serif" font-size="14.00"> p: (0.98, 0.02) </text>
</g>
<!-- 4&#45;&gt;5 -->
<g id="edge7" class="edge">
<title>4:s&#45;&gt;5:n</title>
<path fill="none" stroke="black" d="M684.33,-250.71C684.33,-250.71 208.73,-205.86 132.56,-198.68"/>
<polygon fill="black" stroke="black" points="132.61,-195.17 122.33,-197.71 131.96,-202.13 132.61,-195.17"/>
<text text-anchor="middle" x="477.83" y="-221.51" font-family="Helvetica,sans-Serif" font-size="14.00">may</text>
</g>
<!-- 6 -->
<g id="node9" class="node">
<title>6</title>
<polygon fill="#44e5b5" stroke="black" points="489.83,-199.71 316.83,-199.71 316.83,-121.71 489.83,-121.71 489.83,-199.71"/>
<text text-anchor="start" x="364.33" y="-185.51" font-family="Helvetica,sans-Serif" font-weight="bold" font-size="14.00"> Class=1 </text>
<text text-anchor="start" x="437.33" y="-185.51" font-family="Helvetica,sans-Serif" font-size="14.00"> </text>
<text text-anchor="start" x="324.83" y="-171.51" font-family="Helvetica,sans-Serif" font-size="14.00"> error: 0.248, n=4493 </text>
<text text-anchor="start" x="348.33" y="-157.51" font-family="Helvetica,sans-Serif" font-size="14.00"> p: (0.96, 0.04) </text>
<text text-anchor="start" x="397.83" y="-143.51" font-family="Helvetica,sans-Serif" font-size="14.00">&#45;&#45;</text>
<text text-anchor="start" x="392.83" y="-129.51" font-family="Helvetica,sans-Serif" font-weight="bold" font-size="14.00">V9</text>
</g>
<!-- 4&#45;&gt;6 -->
<g id="edge8" class="edge">
<title>4:s&#45;&gt;6:n</title>
<path fill="none" stroke="black" d="M684.33,-250.71C684.33,-250.71 463.39,-210.61 413.33,-201.53"/>
<polygon fill="black" stroke="black" points="413.79,-198.05 403.33,-199.71 412.54,-204.94 413.79,-198.05"/>
<text text-anchor="middle" x="588.33" y="-221.51" font-family="Helvetica,sans-Serif" font-size="14.00">jun</text>
</g>
<!-- 8 -->
<g id="node10" class="node">
<title>8</title>
<ellipse fill="#44e5b5" stroke="black" cx="684.33" cy="-160.71" rx="122.16" ry="35.21"/>
<text text-anchor="start" x="645.33" y="-171.51" font-family="Helvetica,sans-Serif" font-weight="bold" font-size="14.00"> Class=1 </text>
<text text-anchor="start" x="718.33" y="-171.51" font-family="Helvetica,sans-Serif" font-size="14.00"> </text>
<text text-anchor="start" x="605.83" y="-157.51" font-family="Helvetica,sans-Serif" font-size="14.00"> error: 0.156, n=5764 </text>
<text text-anchor="start" x="629.33" y="-143.51" font-family="Helvetica,sans-Serif" font-size="14.00"> p: (0.98, 0.02) </text>
</g>
<!-- 4&#45;&gt;8 -->
<g id="edge9" class="edge">
<title>4:s&#45;&gt;8:n</title>
<path fill="none" stroke="black" d="M684.33,-250.71C684.33,-250.71 684.33,-223.33 684.33,-207.93"/>
<polygon fill="black" stroke="black" points="687.83,-207.71 684.33,-197.71 680.83,-207.71 687.83,-207.71"/>
<text text-anchor="middle" x="692.83" y="-221.51" font-family="Helvetica,sans-Serif" font-size="14.00">jul</text>
</g>
<!-- 9 -->
<g id="node11" class="node">
<title>9</title>
<ellipse fill="#44e5b5" stroke="black" cx="1001.33" cy="-160.71" rx="122.16" ry="35.21"/>
<text text-anchor="start" x="962.33" y="-171.51" font-family="Helvetica,sans-Serif" font-weight="bold" font-size="14.00"> Class=1 </text>
<text text-anchor="start" x="1035.33" y="-171.51" font-family="Helvetica,sans-Serif" font-size="14.00"> </text>
<text text-anchor="start" x="922.83" y="-157.51" font-family="Helvetica,sans-Serif" font-size="14.00"> error: 0.224, n=5202 </text>
<text text-anchor="start" x="946.33" y="-143.51" font-family="Helvetica,sans-Serif" font-size="14.00"> p: (0.96, 0.04) </text>
</g>
<!-- 4&#45;&gt;9 -->
<g id="edge10" class="edge">
<title>4:s&#45;&gt;9:n</title>
<path fill="none" stroke="black" d="M684.33,-250.71C684.33,-250.71 936.88,-208.49 991.14,-199.41"/>
<polygon fill="black" stroke="black" points="992.04,-202.81 1001.33,-197.71 990.89,-195.91 992.04,-202.81"/>
<text text-anchor="middle" x="894.83" y="-221.51" font-family="Helvetica,sans-Serif" font-size="14.00">aug</text>
</g>
<!-- 10 -->
<g id="node12" class="node">
<title>10</title>
<polygon fill="#44e5b5" stroke="black" points="1368.83,-199.71 1195.83,-199.71 1195.83,-121.71 1368.83,-121.71 1368.83,-199.71"/>
<text text-anchor="start" x="1243.33" y="-185.51" font-family="Helvetica,sans-Serif" font-weight="bold" font-size="14.00"> Class=1 </text>
<text text-anchor="start" x="1316.33" y="-185.51" font-family="Helvetica,sans-Serif" font-size="14.00"> </text>
<text text-anchor="start" x="1203.83" y="-171.51" font-family="Helvetica,sans-Serif" font-size="14.00"> error: 0.252, n=2462 </text>
<text text-anchor="start" x="1227.33" y="-157.51" font-family="Helvetica,sans-Serif" font-size="14.00"> p: (0.96, 0.04) </text>
<text text-anchor="start" x="1274.33" y="-143.51" font-family="Helvetica,sans-Serif" font-size="14.00">&#45;&#45;&#45;</text>
<text text-anchor="start" x="1266.83" y="-129.51" font-family="Helvetica,sans-Serif" font-weight="bold" font-size="14.00">V10</text>
</g>
<!-- 4&#45;&gt;10 -->
<g id="edge11" class="edge">
<title>4:s&#45;&gt;10:n</title>
<path fill="none" stroke="black" d="M684.33,-250.71C684.33,-250.71 1192.54,-207.37 1271.95,-200.6"/>
<polygon fill="black" stroke="black" points="1272.66,-204.05 1282.33,-199.71 1272.07,-197.07 1272.66,-204.05"/>
<text text-anchor="middle" x="1096.33" y="-221.51" font-family="Helvetica,sans-Serif" font-size="14.00">nov</text>
</g>
<!-- 7 -->
<g id="node13" class="node">
<title>7</title>
<ellipse fill="#3d76cc" stroke="black" cx="403.33" cy="-35.36" rx="122.16" ry="35.21"/>
<text text-anchor="start" x="364.33" y="-46.16" font-family="Helvetica,sans-Serif" font-weight="bold" font-size="14.00"> Class=1 </text>
<text text-anchor="start" x="437.33" y="-46.16" font-family="Helvetica,sans-Serif" font-size="14.00"> </text>
<text text-anchor="start" x="324.83" y="-32.16" font-family="Helvetica,sans-Serif" font-size="14.00"> error: 0.061, n=4047 </text>
<text text-anchor="start" x="348.33" y="-18.16" font-family="Helvetica,sans-Serif" font-size="14.00"> p: (0.99, 0.01) </text>
</g>
<!-- 6&#45;&gt;7 -->
<g id="edge12" class="edge">
<title>6:s&#45;&gt;7:n</title>
<path fill="none" stroke="black" d="M403.33,-121.71C403.33,-121.71 403.33,-95.93 403.33,-81.03"/>
<polygon fill="black" stroke="black" points="406.83,-80.71 403.33,-70.71 399.83,-80.71 406.83,-80.71"/>
<text text-anchor="middle" x="435.33" y="-92.51" font-family="Helvetica,sans-Serif" font-size="14.00">unknown</text>
</g>
<!-- 11 -->
<g id="node14" class="node">
<title>11</title>
<ellipse fill="#3d76cc" stroke="black" cx="1282.33" cy="-35.36" rx="122.16" ry="35.21"/>
<text text-anchor="start" x="1243.33" y="-46.16" font-family="Helvetica,sans-Serif" font-weight="bold" font-size="14.00"> Class=1 </text>
<text text-anchor="start" x="1316.33" y="-46.16" font-family="Helvetica,sans-Serif" font-size="14.00"> </text>
<text text-anchor="start" x="1203.83" y="-32.16" font-family="Helvetica,sans-Serif" font-size="14.00"> error: 0.118, n=1941 </text>
<text text-anchor="start" x="1227.33" y="-18.16" font-family="Helvetica,sans-Serif" font-size="14.00"> p: (0.98, 0.02) </text>
</g>
<!-- 10&#45;&gt;11 -->
<g id="edge13" class="edge">
<title>10:s&#45;&gt;11:n</title>
<path fill="none" stroke="black" d="M1282.33,-121.71C1282.33,-121.71 1282.33,-95.93 1282.33,-81.03"/>
<polygon fill="black" stroke="black" points="1285.83,-80.71 1282.33,-70.71 1278.83,-80.71 1285.83,-80.71"/>
<text text-anchor="middle" x="1299.83" y="-92.51" font-family="Helvetica,sans-Serif" font-size="14.00">&gt; 17</text>
</g>
</g>
</svg>
