<?xml version="1.0" encoding="UTF-8" standalone="no"?>
<!DOCTYPE svg PUBLIC "-//W3C//DTD SVG 1.1//EN"
 "http://www.w3.org/Graphics/SVG/1.1/DTD/svg11.dtd">
<!-- Generated by graphviz version 2.43.0 (0)
 -->
<!-- Title: Tree Pages: 1 -->
<svg width="1563pt" height="567pt"
 viewBox="0.00 0.00 1562.93 566.71" xmlns="http://www.w3.org/2000/svg" xmlns:xlink="http://www.w3.org/1999/xlink">
<g id="graph0" class="graph" transform="scale(1 1) rotate(0) translate(18 548.71)">
<title>Tree</title>
<polygon fill="white" stroke="transparent" points="-18,18 -18,-548.71 1544.93,-548.71 1544.93,18 -18,18"/>
<!-- 0 -->
<g id="node1" class="node">
<title>0</title>
<polygon fill="white" stroke="transparent" points="364.97,-530.71 310.97,-530.71 310.97,-494.71 364.97,-494.71 364.97,-530.71"/>
<text text-anchor="middle" x="337.97" y="-509.01" font-family="Helvetica,sans-Serif" font-size="14.00">0</text>
</g>
<!-- 1 -->
<g id="node2" class="node">
<title>1</title>
<polygon fill="#cc3d3d" stroke="black" points="424.47,-457.71 251.47,-457.71 251.47,-379.71 424.47,-379.71 424.47,-457.71"/>
<text text-anchor="start" x="298.97" y="-443.51" font-family="Helvetica,sans-Serif" font-weight="bold" font-size="14.00"> Class=0 </text>
<text text-anchor="start" x="371.97" y="-443.51" font-family="Helvetica,sans-Serif" font-size="14.00"> </text>
<text text-anchor="start" x="259.47" y="-429.51" font-family="Helvetica,sans-Serif" font-size="14.00"> error: 0.588, n=5000 </text>
<text text-anchor="start" x="282.97" y="-415.51" font-family="Helvetica,sans-Serif" font-size="14.00"> p: (0.86, 0.14) </text>
<text text-anchor="start" x="292.97" y="-401.51" font-family="Helvetica,sans-Serif" font-size="14.00">&#45;&#45;&#45;&#45;&#45;&#45;&#45;&#45;&#45;&#45;&#45;&#45;&#45;&#45;&#45;&#45;&#45;</text>
<text text-anchor="start" x="266.97" y="-387.51" font-family="Helvetica,sans-Serif" font-weight="bold" font-size="14.00">total_day_minutes</text>
</g>
<!-- 0&#45;&gt;1 -->
<!-- 2 -->
<g id="node3" class="node">
<title>2</title>
<polygon fill="#c5e544" stroke="black" points="277.97,-328.71 113.97,-328.71 113.97,-250.71 277.97,-250.71 277.97,-328.71"/>
<text text-anchor="start" x="156.97" y="-314.51" font-family="Helvetica,sans-Serif" font-weight="bold" font-size="14.00"> Class=1 </text>
<text text-anchor="start" x="229.97" y="-314.51" font-family="Helvetica,sans-Serif" font-size="14.00"> </text>
<text text-anchor="start" x="121.97" y="-300.51" font-family="Helvetica,sans-Serif" font-size="14.00"> error: 0.972, n=308 </text>
<text text-anchor="start" x="140.97" y="-286.51" font-family="Helvetica,sans-Serif" font-size="14.00"> p: (0.40, 0.60) </text>
<text text-anchor="start" x="156.47" y="-272.51" font-family="Helvetica,sans-Serif" font-size="14.00">&#45;&#45;&#45;&#45;&#45;&#45;&#45;&#45;&#45;&#45;&#45;&#45;&#45;&#45;&#45;</text>
<text text-anchor="start" x="134.97" y="-258.51" font-family="Helvetica,sans-Serif" font-weight="bold" font-size="14.00">voice_mail_plan</text>
</g>
<!-- 1&#45;&gt;2 -->
<g id="edge2" class="edge">
<title>1:s&#45;&gt;2:n</title>
<path fill="none" stroke="black" d="M337.97,-379.71C337.97,-379.71 237.81,-343.74 205.73,-332.22"/>
<polygon fill="black" stroke="black" points="206.56,-328.8 195.97,-328.71 204.19,-335.38 206.56,-328.8"/>
<text text-anchor="middle" x="312.97" y="-350.51" font-family="Helvetica,sans-Serif" font-size="14.00">&gt; 265.1</text>
</g>
<!-- 4 -->
<g id="node4" class="node">
<title>4</title>
<polygon fill="#c5e544" stroke="black" points="844.97,-328.71 582.97,-328.71 582.97,-250.71 844.97,-250.71 844.97,-328.71"/>
<text text-anchor="start" x="674.97" y="-314.51" font-family="Helvetica,sans-Serif" font-weight="bold" font-size="14.00"> Class=0 </text>
<text text-anchor="start" x="747.97" y="-314.51" font-family="Helvetica,sans-Serif" font-size="14.00"> </text>
<text text-anchor="start" x="635.47" y="-300.51" font-family="Helvetica,sans-Serif" font-size="14.00"> error: 0.504, n=4692 </text>
<text text-anchor="start" x="658.97" y="-286.51" font-family="Helvetica,sans-Serif" font-size="14.00"> p: (0.89, 0.11) </text>
<text text-anchor="start" x="637.47" y="-272.51" font-family="Helvetica,sans-Serif" font-size="14.00">&#45;&#45;&#45;&#45;&#45;&#45;&#45;&#45;&#45;&#45;&#45;&#45;&#45;&#45;&#45;&#45;&#45;&#45;&#45;&#45;&#45;&#45;&#45;&#45;&#45;&#45;&#45;&#45;&#45;</text>
<text text-anchor="start" x="590.97" y="-258.51" font-family="Helvetica,sans-Serif" font-weight="bold" font-size="14.00">number_customer_service_calls</text>
</g>
<!-- 1&#45;&gt;4 -->
<g id="edge3" class="edge">
<title>1:s&#45;&gt;4:n</title>
<path fill="none" stroke="black" d="M337.97,-379.71C337.97,-379.71 644.11,-338.19 703.91,-330.07"/>
<polygon fill="black" stroke="black" points="704.53,-333.52 713.97,-328.71 703.59,-326.59 704.53,-333.52"/>
<text text-anchor="middle" x="605.97" y="-350.51" font-family="Helvetica,sans-Serif" font-size="14.00">&lt;= 265.1</text>
</g>
<!-- 3 -->
<g id="node5" class="node">
<title>3</title>
<ellipse fill="#3dcc76" stroke="black" cx="115.97" cy="-160.71" rx="115.93" ry="35.21"/>
<text text-anchor="start" x="76.97" y="-171.51" font-family="Helvetica,sans-Serif" font-weight="bold" font-size="14.00"> Class=1 </text>
<text text-anchor="start" x="149.97" y="-171.51" font-family="Helvetica,sans-Serif" font-size="14.00"> </text>
<text text-anchor="start" x="41.97" y="-157.51" font-family="Helvetica,sans-Serif" font-size="14.00"> error: 0.806, n=235 </text>
<text text-anchor="start" x="60.97" y="-143.51" font-family="Helvetica,sans-Serif" font-size="14.00"> p: (0.25, 0.75) </text>
</g>
<!-- 2&#45;&gt;3 -->
<g id="edge4" class="edge">
<title>2:s&#45;&gt;3:n</title>
<path fill="none" stroke="black" d="M195.97,-250.71C195.97,-250.71 145.16,-217.06 124.53,-203.38"/>
<polygon fill="black" stroke="black" points="126.24,-200.32 115.97,-197.71 122.37,-206.15 126.24,-200.32"/>
<text text-anchor="middle" x="172.97" y="-221.51" font-family="Helvetica,sans-Serif" font-size="14.00">0</text>
</g>
<!-- 5 -->
<g id="node6" class="node">
<title>5</title>
<polygon fill="#3dcc76" stroke="black" points="476.47,-199.71 303.47,-199.71 303.47,-121.71 476.47,-121.71 476.47,-199.71"/>
<text text-anchor="start" x="350.97" y="-185.51" font-family="Helvetica,sans-Serif" font-weight="bold" font-size="14.00"> Class=0 </text>
<text text-anchor="start" x="423.97" y="-185.51" font-family="Helvetica,sans-Serif" font-size="14.00"> </text>
<text text-anchor="start" x="311.47" y="-171.51" font-family="Helvetica,sans-Serif" font-size="14.00"> error: 0.386, n=1670 </text>
<text text-anchor="start" x="334.97" y="-157.51" font-family="Helvetica,sans-Serif" font-size="14.00"> p: (0.92, 0.08) </text>
<text text-anchor="start" x="342.47" y="-143.51" font-family="Helvetica,sans-Serif" font-size="14.00">&#45;&#45;&#45;&#45;&#45;&#45;&#45;&#45;&#45;&#45;&#45;&#45;&#45;&#45;&#45;&#45;&#45;&#45;</text>
<text text-anchor="start" x="318.47" y="-129.51" font-family="Helvetica,sans-Serif" font-weight="bold" font-size="14.00">international_plan</text>
</g>
<!-- 4&#45;&gt;5 -->
<g id="edge5" class="edge">
<title>4:s&#45;&gt;5:n</title>
<path fill="none" stroke="black" d="M713.97,-250.71C713.97,-250.71 454.71,-209.9 400.02,-201.29"/>
<polygon fill="black" stroke="black" points="400.39,-197.81 389.97,-199.71 399.3,-204.72 400.39,-197.81"/>
<text text-anchor="middle" x="595.97" y="-221.51" font-family="Helvetica,sans-Serif" font-size="14.00">1</text>
</g>
<!-- 7 -->
<g id="node7" class="node">
<title>7</title>
<polygon fill="#3dcc76" stroke="black" points="712.97,-199.71 548.97,-199.71 548.97,-121.71 712.97,-121.71 712.97,-199.71"/>
<text text-anchor="start" x="591.97" y="-185.51" font-family="Helvetica,sans-Serif" font-weight="bold" font-size="14.00"> Class=0 </text>
<text text-anchor="start" x="664.97" y="-185.51" font-family="Helvetica,sans-Serif" font-size="14.00"> </text>
<text text-anchor="start" x="556.97" y="-171.51" font-family="Helvetica,sans-Serif" font-size="14.00"> error: 0.424, n=961 </text>
<text text-anchor="start" x="575.97" y="-157.51" font-family="Helvetica,sans-Serif" font-size="14.00"> p: (0.91, 0.09) </text>
<text text-anchor="start" x="583.47" y="-143.51" font-family="Helvetica,sans-Serif" font-size="14.00">&#45;&#45;&#45;&#45;&#45;&#45;&#45;&#45;&#45;&#45;&#45;&#45;&#45;&#45;&#45;&#45;&#45;&#45;</text>
<text text-anchor="start" x="559.47" y="-129.51" font-family="Helvetica,sans-Serif" font-weight="bold" font-size="14.00">international_plan</text>
</g>
<!-- 4&#45;&gt;7 -->
<g id="edge6" class="edge">
<title>4:s&#45;&gt;7:n</title>
<path fill="none" stroke="black" d="M713.97,-250.71C713.97,-250.71 660.74,-218.01 639.54,-204.98"/>
<polygon fill="black" stroke="black" points="641.32,-201.96 630.97,-199.71 637.65,-207.93 641.32,-201.96"/>
<text text-anchor="middle" x="687.97" y="-221.51" font-family="Helvetica,sans-Serif" font-size="14.00">0</text>
</g>
<!-- 9 -->
<g id="node8" class="node">
<title>9</title>
<polygon fill="#3dcc76" stroke="black" points="948.97,-199.71 784.97,-199.71 784.97,-121.71 948.97,-121.71 948.97,-199.71"/>
<text text-anchor="start" x="827.97" y="-185.51" font-family="Helvetica,sans-Serif" font-weight="bold" font-size="14.00"> Class=0 </text>
<text text-anchor="start" x="900.97" y="-185.51" font-family="Helvetica,sans-Serif" font-size="14.00"> </text>
<text text-anchor="start" x="792.97" y="-171.51" font-family="Helvetica,sans-Serif" font-size="14.00"> error: 0.417, n=628 </text>
<text text-anchor="start" x="811.97" y="-157.51" font-family="Helvetica,sans-Serif" font-size="14.00"> p: (0.92, 0.08) </text>
<text text-anchor="start" x="819.47" y="-143.51" font-family="Helvetica,sans-Serif" font-size="14.00">&#45;&#45;&#45;&#45;&#45;&#45;&#45;&#45;&#45;&#45;&#45;&#45;&#45;&#45;&#45;&#45;&#45;&#45;</text>
<text text-anchor="start" x="795.47" y="-129.51" font-family="Helvetica,sans-Serif" font-weight="bold" font-size="14.00">international_plan</text>
</g>
<!-- 4&#45;&gt;9 -->
<g id="edge7" class="edge">
<title>4:s&#45;&gt;9:n</title>
<path fill="none" stroke="black" d="M713.97,-250.71C713.97,-250.71 823.9,-214.07 857.39,-202.9"/>
<polygon fill="black" stroke="black" points="858.59,-206.19 866.97,-199.71 856.37,-199.55 858.59,-206.19"/>
<text text-anchor="middle" x="813.97" y="-221.51" font-family="Helvetica,sans-Serif" font-size="14.00">3</text>
</g>
<!-- 11 -->
<g id="node9" class="node">
<title>11</title>
<ellipse fill="#3dcc76" stroke="black" cx="1136.97" cy="-160.71" rx="115.93" ry="35.21"/>
<text text-anchor="start" x="1097.97" y="-171.51" font-family="Helvetica,sans-Serif" font-weight="bold" font-size="14.00"> Class=0 </text>
<text text-anchor="start" x="1170.97" y="-171.51" font-family="Helvetica,sans-Serif" font-size="14.00"> </text>
<text text-anchor="start" x="1062.97" y="-157.51" font-family="Helvetica,sans-Serif" font-size="14.00"> error: 0.982, n=235 </text>
<text text-anchor="start" x="1081.97" y="-143.51" font-family="Helvetica,sans-Serif" font-size="14.00"> p: (0.58, 0.42) </text>
</g>
<!-- 4&#45;&gt;11 -->
<g id="edge8" class="edge">
<title>4:s&#45;&gt;11:n</title>
<path fill="none" stroke="black" d="M713.97,-250.71C713.97,-250.71 1062.87,-206.99 1126.93,-198.97"/>
<polygon fill="black" stroke="black" points="1127.48,-202.43 1136.97,-197.71 1126.61,-195.48 1127.48,-202.43"/>
<text text-anchor="middle" x="980.97" y="-221.51" font-family="Helvetica,sans-Serif" font-size="14.00">4</text>
</g>
<!-- 12 -->
<g id="node10" class="node">
<title>12</title>
<polygon fill="#3dcc76" stroke="black" points="1497.47,-199.71 1324.47,-199.71 1324.47,-121.71 1497.47,-121.71 1497.47,-199.71"/>
<text text-anchor="start" x="1371.97" y="-185.51" font-family="Helvetica,sans-Serif" font-weight="bold" font-size="14.00"> Class=0 </text>
<text text-anchor="start" x="1444.97" y="-185.51" font-family="Helvetica,sans-Serif" font-size="14.00"> </text>
<text text-anchor="start" x="1332.47" y="-171.51" font-family="Helvetica,sans-Serif" font-size="14.00"> error: 0.376, n=1059 </text>
<text text-anchor="start" x="1355.97" y="-157.51" font-family="Helvetica,sans-Serif" font-size="14.00"> p: (0.93, 0.07) </text>
<text text-anchor="start" x="1363.47" y="-143.51" font-family="Helvetica,sans-Serif" font-size="14.00">&#45;&#45;&#45;&#45;&#45;&#45;&#45;&#45;&#45;&#45;&#45;&#45;&#45;&#45;&#45;&#45;&#45;&#45;</text>
<text text-anchor="start" x="1339.47" y="-129.51" font-family="Helvetica,sans-Serif" font-weight="bold" font-size="14.00">international_plan</text>
</g>
<!-- 4&#45;&gt;12 -->
<g id="edge9" class="edge">
<title>4:s&#45;&gt;12:n</title>
<path fill="none" stroke="black" d="M713.97,-250.71C713.97,-250.71 1315.13,-206.72 1400.84,-200.45"/>
<polygon fill="black" stroke="black" points="1401.25,-203.93 1410.97,-199.71 1400.74,-196.95 1401.25,-203.93"/>
<text text-anchor="middle" x="1188.97" y="-221.51" font-family="Helvetica,sans-Serif" font-size="14.00">2</text>
</g>
<!-- 6 -->
<g id="node11" class="node">
<title>6</title>
<ellipse fill="#4485e5" stroke="black" cx="320.97" cy="-35.36" rx="122.16" ry="35.21"/>
<text text-anchor="start" x="281.97" y="-46.16" font-family="Helvetica,sans-Serif" font-weight="bold" font-size="14.00"> Class=0 </text>
<text text-anchor="start" x="354.97" y="-46.16" font-family="Helvetica,sans-Serif" font-size="14.00"> </text>
<text text-anchor="start" x="242.47" y="-32.16" font-family="Helvetica,sans-Serif" font-size="14.00"> error: 0.291, n=1529 </text>
<text text-anchor="start" x="265.97" y="-18.16" font-family="Helvetica,sans-Serif" font-size="14.00"> p: (0.95, 0.05) </text>
</g>
<!-- 5&#45;&gt;6 -->
<g id="edge10" class="edge">
<title>5:s&#45;&gt;6:n</title>
<path fill="none" stroke="black" d="M389.97,-121.71C389.97,-121.71 347.43,-90.27 329.15,-76.76"/>
<polygon fill="black" stroke="black" points="331.09,-73.84 320.97,-70.71 326.93,-79.47 331.09,-73.84"/>
<text text-anchor="middle" x="368.97" y="-92.51" font-family="Helvetica,sans-Serif" font-size="14.00">0</text>
</g>
<!-- 8 -->
<g id="node12" class="node">
<title>8</title>
<ellipse fill="#4485e5" stroke="black" cx="630.97" cy="-35.36" rx="115.93" ry="35.21"/>
<text text-anchor="start" x="591.97" y="-46.16" font-family="Helvetica,sans-Serif" font-weight="bold" font-size="14.00"> Class=0 </text>
<text text-anchor="start" x="664.97" y="-46.16" font-family="Helvetica,sans-Serif" font-size="14.00"> </text>
<text text-anchor="start" x="556.97" y="-32.16" font-family="Helvetica,sans-Serif" font-size="14.00"> error: 0.283, n=854 </text>
<text text-anchor="start" x="575.97" y="-18.16" font-family="Helvetica,sans-Serif" font-size="14.00"> p: (0.95, 0.05) </text>
</g>
<!-- 7&#45;&gt;8 -->
<g id="edge11" class="edge">
<title>7:s&#45;&gt;8:n</title>
<path fill="none" stroke="black" d="M630.97,-121.71C630.97,-121.71 630.97,-95.93 630.97,-81.03"/>
<polygon fill="black" stroke="black" points="634.47,-80.71 630.97,-70.71 627.47,-80.71 634.47,-80.71"/>
<text text-anchor="middle" x="635.97" y="-92.51" font-family="Helvetica,sans-Serif" font-size="14.00">0</text>
</g>
<!-- 10 -->
<g id="node13" class="node">
<title>10</title>
<ellipse fill="#4485e5" stroke="black" cx="934.97" cy="-35.36" rx="115.93" ry="35.21"/>
<text text-anchor="start" x="895.97" y="-46.16" font-family="Helvetica,sans-Serif" font-weight="bold" font-size="14.00"> Class=0 </text>
<text text-anchor="start" x="968.97" y="-46.16" font-family="Helvetica,sans-Serif" font-size="14.00"> </text>
<text text-anchor="start" x="860.97" y="-32.16" font-family="Helvetica,sans-Serif" font-size="14.00"> error: 0.305, n=570 </text>
<text text-anchor="start" x="879.97" y="-18.16" font-family="Helvetica,sans-Serif" font-size="14.00"> p: (0.95, 0.05) </text>
</g>
<!-- 9&#45;&gt;10 -->
<g id="edge12" class="edge">
<title>9:s&#45;&gt;10:n</title>
<path fill="none" stroke="black" d="M866.97,-121.71C866.97,-121.71 908.89,-90.27 926.9,-76.76"/>
<polygon fill="black" stroke="black" points="929.07,-79.51 934.97,-70.71 924.87,-73.91 929.07,-79.51"/>
<text text-anchor="middle" x="914.97" y="-92.51" font-family="Helvetica,sans-Serif" font-size="14.00">0</text>
</g>
<!-- 13 -->
<g id="node14" class="node">
<title>13</title>
<ellipse fill="#4485e5" stroke="black" cx="1410.97" cy="-35.36" rx="115.93" ry="35.21"/>
<text text-anchor="start" x="1371.97" y="-46.16" font-family="Helvetica,sans-Serif" font-weight="bold" font-size="14.00"> Class=0 </text>
<text text-anchor="start" x="1444.97" y="-46.16" font-family="Helvetica,sans-Serif" font-size="14.00"> </text>
<text text-anchor="start" x="1336.97" y="-32.16" font-family="Helvetica,sans-Serif" font-size="14.00"> error: 0.262, n=970 </text>
<text text-anchor="start" x="1355.97" y="-18.16" font-family="Helvetica,sans-Serif" font-size="14.00"> p: (0.96, 0.04) </text>
</g>
<!-- 12&#45;&gt;13 -->
<g id="edge13" class="edge">
<title>12:s&#45;&gt;13:n</title>
<path fill="none" stroke="black" d="M1410.97,-121.71C1410.97,-121.71 1410.97,-95.93 1410.97,-81.03"/>
<polygon fill="black" stroke="black" points="1414.47,-80.71 1410.97,-70.71 1407.47,-80.71 1414.47,-80.71"/>
<text text-anchor="middle" x="1415.97" y="-92.51" font-family="Helvetica,sans-Serif" font-size="14.00">0</text>
</g>
</g>
</svg>
