<?xml version="1.0" encoding="UTF-8" standalone="no"?>
<!DOCTYPE svg PUBLIC "-//W3C//DTD SVG 1.1//EN"
 "http://www.w3.org/Graphics/SVG/1.1/DTD/svg11.dtd">
<!-- Generated by graphviz version 2.43.0 (0)
 -->
<!-- Title: Tree Pages: 1 -->
<svg width="1506pt" height="825pt"
 viewBox="0.00 0.00 1506.20 824.71" xmlns="http://www.w3.org/2000/svg" xmlns:xlink="http://www.w3.org/1999/xlink">
<g id="graph0" class="graph" transform="scale(1 1) rotate(0) translate(18 806.71)">
<title>Tree</title>
<polygon fill="white" stroke="transparent" points="-18,18 -18,-806.71 1488.2,-806.71 1488.2,18 -18,18"/>
<!-- 0 -->
<g id="node1" class="node">
<title>0</title>
<polygon fill="white" stroke="transparent" points="546.6,-788.71 492.6,-788.71 492.6,-752.71 546.6,-752.71 546.6,-788.71"/>
<text text-anchor="middle" x="519.6" y="-767.01" font-family="Helvetica,sans-Serif" font-size="14.00">0</text>
</g>
<!-- 1 -->
<g id="node2" class="node">
<title>1</title>
<polygon fill="#cc3d3d" stroke="black" points="601.6,-715.71 437.6,-715.71 437.6,-637.71 601.6,-637.71 601.6,-715.71"/>
<text text-anchor="start" x="480.6" y="-701.51" font-family="Helvetica,sans-Serif" font-weight="bold" font-size="14.00"> Class=1 </text>
<text text-anchor="start" x="553.6" y="-701.51" font-family="Helvetica,sans-Serif" font-size="14.00"> </text>
<text text-anchor="start" x="445.6" y="-687.51" font-family="Helvetica,sans-Serif" font-size="14.00"> error: 0.420, n=540 </text>
<text text-anchor="start" x="464.6" y="-673.51" font-family="Helvetica,sans-Serif" font-size="14.00"> p: (0.09, 0.91) </text>
<text text-anchor="start" x="490.6" y="-659.51" font-family="Helvetica,sans-Serif" font-size="14.00">&#45;&#45;&#45;&#45;&#45;&#45;&#45;&#45;&#45;&#45;&#45;</text>
<text text-anchor="start" x="474.1" y="-645.51" font-family="Helvetica,sans-Serif" font-weight="bold" font-size="14.00">vconst_corr</text>
</g>
<!-- 0&#45;&gt;1 -->
<!-- 2 -->
<g id="node3" class="node">
<title>2</title>
<polygon fill="#e5b844" stroke="black" points="454.1,-586.71 299.1,-586.71 299.1,-508.71 454.1,-508.71 454.1,-586.71"/>
<text text-anchor="start" x="337.6" y="-572.51" font-family="Helvetica,sans-Serif" font-weight="bold" font-size="14.00"> Class=1 </text>
<text text-anchor="start" x="410.6" y="-572.51" font-family="Helvetica,sans-Serif" font-size="14.00"> </text>
<text text-anchor="start" x="307.1" y="-558.51" font-family="Helvetica,sans-Serif" font-size="14.00"> error: 0.848, n=91 </text>
<text text-anchor="start" x="321.6" y="-544.51" font-family="Helvetica,sans-Serif" font-size="14.00"> p: (0.27, 0.73) </text>
<text text-anchor="start" x="355.1" y="-530.51" font-family="Helvetica,sans-Serif" font-size="14.00">&#45;&#45;&#45;&#45;&#45;&#45;&#45;&#45;</text>
<text text-anchor="start" x="342.1" y="-516.51" font-family="Helvetica,sans-Serif" font-weight="bold" font-size="14.00">vconst_2</text>
</g>
<!-- 1&#45;&gt;2 -->
<g id="edge2" class="edge">
<title>1:s&#45;&gt;2:n</title>
<path fill="none" stroke="black" d="M519.6,-637.71C519.6,-637.71 418.74,-601.74 386.43,-590.22"/>
<polygon fill="black" stroke="black" points="387.2,-586.77 376.6,-586.71 384.84,-593.37 387.2,-586.77"/>
<text text-anchor="middle" x="490.1" y="-608.51" font-family="Helvetica,sans-Serif" font-size="14.00">&gt; 0.83</text>
</g>
<!-- 9 -->
<g id="node4" class="node">
<title>9</title>
<polygon fill="#e5b844" stroke="black" points="726.6,-586.71 562.6,-586.71 562.6,-508.71 726.6,-508.71 726.6,-586.71"/>
<text text-anchor="start" x="605.6" y="-572.51" font-family="Helvetica,sans-Serif" font-weight="bold" font-size="14.00"> Class=1 </text>
<text text-anchor="start" x="678.6" y="-572.51" font-family="Helvetica,sans-Serif" font-size="14.00"> </text>
<text text-anchor="start" x="570.6" y="-558.51" font-family="Helvetica,sans-Serif" font-size="14.00"> error: 0.273, n=449 </text>
<text text-anchor="start" x="589.6" y="-544.51" font-family="Helvetica,sans-Serif" font-size="14.00"> p: (0.05, 0.95) </text>
<text text-anchor="start" x="623.1" y="-530.51" font-family="Helvetica,sans-Serif" font-size="14.00">&#45;&#45;&#45;&#45;&#45;&#45;&#45;&#45;</text>
<text text-anchor="start" x="610.1" y="-516.51" font-family="Helvetica,sans-Serif" font-weight="bold" font-size="14.00">vconst_2</text>
</g>
<!-- 1&#45;&gt;9 -->
<g id="edge3" class="edge">
<title>1:s&#45;&gt;9:n</title>
<path fill="none" stroke="black" d="M519.6,-637.71C519.6,-637.71 606.14,-602.4 635.21,-590.54"/>
<polygon fill="black" stroke="black" points="636.66,-593.73 644.6,-586.71 634.02,-587.25 636.66,-593.73"/>
<text text-anchor="middle" x="628.1" y="-608.51" font-family="Helvetica,sans-Serif" font-size="14.00">&lt;= 0.83</text>
</g>
<!-- 3 -->
<g id="node5" class="node">
<title>3</title>
<polygon fill="#8dcc3d" stroke="black" points="211.1,-457.71 56.1,-457.71 56.1,-379.71 211.1,-379.71 211.1,-457.71"/>
<text text-anchor="start" x="94.6" y="-443.51" font-family="Helvetica,sans-Serif" font-weight="bold" font-size="14.00"> Class=1 </text>
<text text-anchor="start" x="167.6" y="-443.51" font-family="Helvetica,sans-Serif" font-size="14.00"> </text>
<text text-anchor="start" x="64.1" y="-429.51" font-family="Helvetica,sans-Serif" font-size="14.00"> error: 0.156, n=44 </text>
<text text-anchor="start" x="78.6" y="-415.51" font-family="Helvetica,sans-Serif" font-size="14.00"> p: (0.02, 0.98) </text>
<text text-anchor="start" x="112.1" y="-401.51" font-family="Helvetica,sans-Serif" font-size="14.00">&#45;&#45;&#45;&#45;&#45;&#45;&#45;&#45;</text>
<text text-anchor="start" x="100.6" y="-387.51" font-family="Helvetica,sans-Serif" font-weight="bold" font-size="14.00">slm_corr</text>
</g>
<!-- 2&#45;&gt;3 -->
<g id="edge4" class="edge">
<title>2:s&#45;&gt;3:n</title>
<path fill="none" stroke="black" d="M376.6,-508.71C376.6,-508.71 188.89,-469.31 143.43,-459.77"/>
<polygon fill="black" stroke="black" points="144.11,-456.34 133.6,-457.71 142.67,-463.19 144.11,-456.34"/>
<text text-anchor="middle" x="319.1" y="-479.51" font-family="Helvetica,sans-Serif" font-size="14.00">&lt;= 0.5258</text>
</g>
<!-- 5 -->
<g id="node6" class="node">
<title>5</title>
<polygon fill="#8dcc3d" stroke="black" points="454.1,-457.71 299.1,-457.71 299.1,-379.71 454.1,-379.71 454.1,-457.71"/>
<text text-anchor="start" x="337.6" y="-443.51" font-family="Helvetica,sans-Serif" font-weight="bold" font-size="14.00"> Class=0 </text>
<text text-anchor="start" x="410.6" y="-443.51" font-family="Helvetica,sans-Serif" font-size="14.00"> </text>
<text text-anchor="start" x="307.1" y="-429.51" font-family="Helvetica,sans-Serif" font-size="14.00"> error: 1.000, n=47 </text>
<text text-anchor="start" x="321.6" y="-415.51" font-family="Helvetica,sans-Serif" font-size="14.00"> p: (0.51, 0.49) </text>
<text text-anchor="start" x="344.6" y="-401.51" font-family="Helvetica,sans-Serif" font-size="14.00">&#45;&#45;&#45;&#45;&#45;&#45;&#45;&#45;&#45;&#45;&#45;&#45;</text>
<text text-anchor="start" x="323.1" y="-387.51" font-family="Helvetica,sans-Serif" font-weight="bold" font-size="14.00">bckgrnd_vdc1</text>
</g>
<!-- 2&#45;&gt;5 -->
<g id="edge5" class="edge">
<title>2:s&#45;&gt;5:n</title>
<path fill="none" stroke="black" d="M376.6,-508.71C376.6,-508.71 376.6,-482.93 376.6,-468.03"/>
<polygon fill="black" stroke="black" points="380.1,-467.71 376.6,-457.71 373.1,-467.71 380.1,-467.71"/>
<text text-anchor="middle" x="410.1" y="-479.51" font-family="Helvetica,sans-Serif" font-size="14.00">&gt; 0.5258</text>
</g>
<!-- 10 -->
<g id="node11" class="node">
<title>10</title>
<ellipse fill="#8dcc3d" stroke="black" cx="644.6" cy="-418.71" rx="115.93" ry="35.21"/>
<text text-anchor="start" x="605.6" y="-429.51" font-family="Helvetica,sans-Serif" font-weight="bold" font-size="14.00"> Class=1 </text>
<text text-anchor="start" x="678.6" y="-429.51" font-family="Helvetica,sans-Serif" font-size="14.00"> </text>
<text text-anchor="start" x="570.6" y="-415.51" font-family="Helvetica,sans-Serif" font-size="14.00"> error: 0.037, n=259 </text>
<text text-anchor="start" x="589.6" y="-401.51" font-family="Helvetica,sans-Serif" font-size="14.00"> p: (0.00, 1.00) </text>
</g>
<!-- 9&#45;&gt;10 -->
<g id="edge10" class="edge">
<title>9:s&#45;&gt;10:n</title>
<path fill="none" stroke="black" d="M644.6,-508.71C644.6,-508.71 644.6,-481.33 644.6,-465.93"/>
<polygon fill="black" stroke="black" points="648.1,-465.71 644.6,-455.71 641.1,-465.71 648.1,-465.71"/>
<text text-anchor="middle" x="684.1" y="-479.51" font-family="Helvetica,sans-Serif" font-size="14.00">&lt;= 0.5734</text>
</g>
<!-- 11 -->
<g id="node12" class="node">
<title>11</title>
<polygon fill="#8dcc3d" stroke="black" points="1007.6,-457.71 843.6,-457.71 843.6,-379.71 1007.6,-379.71 1007.6,-457.71"/>
<text text-anchor="start" x="886.6" y="-443.51" font-family="Helvetica,sans-Serif" font-weight="bold" font-size="14.00"> Class=1 </text>
<text text-anchor="start" x="959.6" y="-443.51" font-family="Helvetica,sans-Serif" font-size="14.00"> </text>
<text text-anchor="start" x="851.6" y="-429.51" font-family="Helvetica,sans-Serif" font-size="14.00"> error: 0.485, n=190 </text>
<text text-anchor="start" x="870.6" y="-415.51" font-family="Helvetica,sans-Serif" font-size="14.00"> p: (0.11, 0.89) </text>
<text text-anchor="start" x="896.6" y="-401.51" font-family="Helvetica,sans-Serif" font-size="14.00">&#45;&#45;&#45;&#45;&#45;&#45;&#45;&#45;&#45;&#45;&#45;</text>
<text text-anchor="start" x="880.1" y="-387.51" font-family="Helvetica,sans-Serif" font-weight="bold" font-size="14.00">vconst_corr</text>
</g>
<!-- 9&#45;&gt;11 -->
<g id="edge11" class="edge">
<title>9:s&#45;&gt;11:n</title>
<path fill="none" stroke="black" d="M644.6,-508.71C644.6,-508.71 865.54,-468.61 915.6,-459.53"/>
<polygon fill="black" stroke="black" points="916.39,-462.94 925.6,-457.71 915.14,-456.05 916.39,-462.94"/>
<text text-anchor="middle" x="852.1" y="-479.51" font-family="Helvetica,sans-Serif" font-size="14.00">&gt; 0.5734</text>
</g>
<!-- 4 -->
<g id="node7" class="node">
<title>4</title>
<ellipse fill="#44e55e" stroke="black" cx="109.6" cy="-289.71" rx="109.7" ry="35.21"/>
<text text-anchor="start" x="70.6" y="-300.51" font-family="Helvetica,sans-Serif" font-weight="bold" font-size="14.00"> Class=1 </text>
<text text-anchor="start" x="143.6" y="-300.51" font-family="Helvetica,sans-Serif" font-size="14.00"> </text>
<text text-anchor="start" x="40.1" y="-286.51" font-family="Helvetica,sans-Serif" font-size="14.00"> error: 0.000, n=41 </text>
<text text-anchor="start" x="54.6" y="-272.51" font-family="Helvetica,sans-Serif" font-size="14.00"> p: (0.00, 1.00) </text>
</g>
<!-- 3&#45;&gt;4 -->
<g id="edge6" class="edge">
<title>3:s&#45;&gt;4:n</title>
<path fill="none" stroke="black" d="M133.6,-379.71C133.6,-379.71 120.66,-351.13 113.78,-335.94"/>
<polygon fill="black" stroke="black" points="116.92,-334.38 109.6,-326.71 110.54,-337.26 116.92,-334.38"/>
<text text-anchor="middle" x="165.1" y="-350.51" font-family="Helvetica,sans-Serif" font-size="14.00">&lt;= 0.9596</text>
</g>
<!-- 6 -->
<g id="node8" class="node">
<title>6</title>
<polygon fill="#44e55e" stroke="black" points="446.1,-328.71 291.1,-328.71 291.1,-250.71 446.1,-250.71 446.1,-328.71"/>
<text text-anchor="start" x="329.6" y="-314.51" font-family="Helvetica,sans-Serif" font-weight="bold" font-size="14.00"> Class=0 </text>
<text text-anchor="start" x="402.6" y="-314.51" font-family="Helvetica,sans-Serif" font-size="14.00"> </text>
<text text-anchor="start" x="299.1" y="-300.51" font-family="Helvetica,sans-Serif" font-size="14.00"> error: 0.738, n=24 </text>
<text text-anchor="start" x="313.6" y="-286.51" font-family="Helvetica,sans-Serif" font-size="14.00"> p: (0.79, 0.21) </text>
<text text-anchor="start" x="331.6" y="-272.51" font-family="Helvetica,sans-Serif" font-size="14.00">&#45;&#45;&#45;&#45;&#45;&#45;&#45;&#45;&#45;&#45;&#45;&#45;&#45;&#45;</text>
<text text-anchor="start" x="306.6" y="-258.51" font-family="Helvetica,sans-Serif" font-weight="bold" font-size="14.00">bckgrnd_vdc_eq</text>
</g>
<!-- 5&#45;&gt;6 -->
<g id="edge7" class="edge">
<title>5:s&#45;&gt;6:n</title>
<path fill="none" stroke="black" d="M376.6,-379.71C376.6,-379.71 372.56,-353.93 370.22,-339.03"/>
<polygon fill="black" stroke="black" points="373.61,-338.05 368.6,-328.71 366.69,-339.13 373.61,-338.05"/>
<text text-anchor="middle" x="413.1" y="-350.51" font-family="Helvetica,sans-Serif" font-size="14.00">&lt;= 0.4486</text>
</g>
<!-- 8 -->
<g id="node9" class="node">
<title>8</title>
<ellipse fill="#44e55e" stroke="black" cx="627.6" cy="-289.71" rx="109.7" ry="35.21"/>
<text text-anchor="start" x="588.6" y="-300.51" font-family="Helvetica,sans-Serif" font-weight="bold" font-size="14.00"> Class=1 </text>
<text text-anchor="start" x="661.6" y="-300.51" font-family="Helvetica,sans-Serif" font-size="14.00"> </text>
<text text-anchor="start" x="558.1" y="-286.51" font-family="Helvetica,sans-Serif" font-size="14.00"> error: 0.755, n=23 </text>
<text text-anchor="start" x="572.6" y="-272.51" font-family="Helvetica,sans-Serif" font-size="14.00"> p: (0.22, 0.78) </text>
</g>
<!-- 5&#45;&gt;8 -->
<g id="edge8" class="edge">
<title>5:s&#45;&gt;8:n</title>
<path fill="none" stroke="black" d="M376.6,-379.71C376.6,-379.71 571.36,-338.59 617.76,-328.79"/>
<polygon fill="black" stroke="black" points="618.54,-332.2 627.6,-326.71 617.09,-325.35 618.54,-332.2"/>
<text text-anchor="middle" x="569.1" y="-350.51" font-family="Helvetica,sans-Serif" font-size="14.00">&gt; 0.4486</text>
</g>
<!-- 7 -->
<g id="node10" class="node">
<title>7</title>
<ellipse fill="#3dccba" stroke="black" cx="368.6" cy="-160.71" rx="109.7" ry="35.21"/>
<text text-anchor="start" x="329.6" y="-171.51" font-family="Helvetica,sans-Serif" font-weight="bold" font-size="14.00"> Class=0 </text>
<text text-anchor="start" x="402.6" y="-171.51" font-family="Helvetica,sans-Serif" font-size="14.00"> </text>
<text text-anchor="start" x="299.1" y="-157.51" font-family="Helvetica,sans-Serif" font-size="14.00"> error: 0.454, n=21 </text>
<text text-anchor="start" x="313.6" y="-143.51" font-family="Helvetica,sans-Serif" font-size="14.00"> p: (0.90, 0.10) </text>
</g>
<!-- 6&#45;&gt;7 -->
<g id="edge9" class="edge">
<title>6:s&#45;&gt;7:n</title>
<path fill="none" stroke="black" d="M368.6,-250.71C368.6,-250.71 368.6,-223.33 368.6,-207.93"/>
<polygon fill="black" stroke="black" points="372.1,-207.71 368.6,-197.71 365.1,-207.71 372.1,-207.71"/>
<text text-anchor="middle" x="408.1" y="-221.51" font-family="Helvetica,sans-Serif" font-size="14.00">&lt;= 0.8583</text>
</g>
<!-- 12 -->
<g id="node13" class="node">
<title>12</title>
<ellipse fill="#44e55e" stroke="black" cx="925.6" cy="-289.71" rx="115.93" ry="35.21"/>
<text text-anchor="start" x="886.6" y="-300.51" font-family="Helvetica,sans-Serif" font-weight="bold" font-size="14.00"> Class=1 </text>
<text text-anchor="start" x="959.6" y="-300.51" font-family="Helvetica,sans-Serif" font-size="14.00"> </text>
<text text-anchor="start" x="851.6" y="-286.51" font-family="Helvetica,sans-Serif" font-size="14.00"> error: 0.000, n=103 </text>
<text text-anchor="start" x="870.6" y="-272.51" font-family="Helvetica,sans-Serif" font-size="14.00"> p: (0.00, 1.00) </text>
</g>
<!-- 11&#45;&gt;12 -->
<g id="edge12" class="edge">
<title>11:s&#45;&gt;12:n</title>
<path fill="none" stroke="black" d="M925.6,-379.71C925.6,-379.71 925.6,-352.33 925.6,-336.93"/>
<polygon fill="black" stroke="black" points="929.1,-336.71 925.6,-326.71 922.1,-336.71 929.1,-336.71"/>
<text text-anchor="middle" x="965.1" y="-350.51" font-family="Helvetica,sans-Serif" font-size="14.00">&lt;= 0.4538</text>
</g>
<!-- 13 -->
<g id="node14" class="node">
<title>13</title>
<polygon fill="#44e55e" stroke="black" points="1268.1,-328.71 1113.1,-328.71 1113.1,-250.71 1268.1,-250.71 1268.1,-328.71"/>
<text text-anchor="start" x="1151.6" y="-314.51" font-family="Helvetica,sans-Serif" font-weight="bold" font-size="14.00"> Class=1 </text>
<text text-anchor="start" x="1224.6" y="-314.51" font-family="Helvetica,sans-Serif" font-size="14.00"> </text>
<text text-anchor="start" x="1121.1" y="-300.51" font-family="Helvetica,sans-Serif" font-size="14.00"> error: 0.778, n=87 </text>
<text text-anchor="start" x="1135.6" y="-286.51" font-family="Helvetica,sans-Serif" font-size="14.00"> p: (0.23, 0.77) </text>
<text text-anchor="start" x="1158.6" y="-272.51" font-family="Helvetica,sans-Serif" font-size="14.00">&#45;&#45;&#45;&#45;&#45;&#45;&#45;&#45;&#45;&#45;&#45;&#45;</text>
<text text-anchor="start" x="1140.6" y="-258.51" font-family="Helvetica,sans-Serif" font-weight="bold" font-size="14.00">convect_corr</text>
</g>
<!-- 11&#45;&gt;13 -->
<g id="edge13" class="edge">
<title>11:s&#45;&gt;13:n</title>
<path fill="none" stroke="black" d="M925.6,-379.71C925.6,-379.71 1132.13,-339.96 1180.54,-330.65"/>
<polygon fill="black" stroke="black" points="1181.44,-334.04 1190.6,-328.71 1180.12,-327.16 1181.44,-334.04"/>
<text text-anchor="middle" x="1130.1" y="-350.51" font-family="Helvetica,sans-Serif" font-size="14.00">&gt; 0.4538</text>
</g>
<!-- 14 -->
<g id="node15" class="node">
<title>14</title>
<polygon fill="#3dccba" stroke="black" points="1164.1,-199.71 1009.1,-199.71 1009.1,-121.71 1164.1,-121.71 1164.1,-199.71"/>
<text text-anchor="start" x="1047.6" y="-185.51" font-family="Helvetica,sans-Serif" font-weight="bold" font-size="14.00"> Class=1 </text>
<text text-anchor="start" x="1120.6" y="-185.51" font-family="Helvetica,sans-Serif" font-size="14.00"> </text>
<text text-anchor="start" x="1017.1" y="-171.51" font-family="Helvetica,sans-Serif" font-size="14.00"> error: 0.258, n=46 </text>
<text text-anchor="start" x="1031.6" y="-157.51" font-family="Helvetica,sans-Serif" font-size="14.00"> p: (0.04, 0.96) </text>
<text text-anchor="start" x="1065.1" y="-143.51" font-family="Helvetica,sans-Serif" font-size="14.00">&#45;&#45;&#45;&#45;&#45;&#45;&#45;&#45;</text>
<text text-anchor="start" x="1052.1" y="-129.51" font-family="Helvetica,sans-Serif" font-weight="bold" font-size="14.00">vconst_4</text>
</g>
<!-- 13&#45;&gt;14 -->
<g id="edge14" class="edge">
<title>13:s&#45;&gt;14:n</title>
<path fill="none" stroke="black" d="M1190.6,-250.71C1190.6,-250.71 1121.28,-216.72 1095.83,-204.24"/>
<polygon fill="black" stroke="black" points="1097.12,-200.97 1086.6,-199.71 1094.04,-207.26 1097.12,-200.97"/>
<text text-anchor="middle" x="1156.1" y="-221.51" font-family="Helvetica,sans-Serif" font-size="14.00">&lt;= 0.5377</text>
</g>
<!-- 16 -->
<g id="node16" class="node">
<title>16</title>
<polygon fill="#3dccba" stroke="black" points="1430.1,-199.71 1275.1,-199.71 1275.1,-121.71 1430.1,-121.71 1430.1,-199.71"/>
<text text-anchor="start" x="1313.6" y="-185.51" font-family="Helvetica,sans-Serif" font-weight="bold" font-size="14.00"> Class=1 </text>
<text text-anchor="start" x="1386.6" y="-185.51" font-family="Helvetica,sans-Serif" font-size="14.00"> </text>
<text text-anchor="start" x="1283.1" y="-171.51" font-family="Helvetica,sans-Serif" font-size="14.00"> error: 0.989, n=41 </text>
<text text-anchor="start" x="1297.6" y="-157.51" font-family="Helvetica,sans-Serif" font-size="14.00"> p: (0.44, 0.56) </text>
<text text-anchor="start" x="1320.6" y="-143.51" font-family="Helvetica,sans-Serif" font-size="14.00">&#45;&#45;&#45;&#45;&#45;&#45;&#45;&#45;&#45;&#45;&#45;&#45;</text>
<text text-anchor="start" x="1299.1" y="-129.51" font-family="Helvetica,sans-Serif" font-weight="bold" font-size="14.00">bckgrnd_vdc1</text>
</g>
<!-- 13&#45;&gt;16 -->
<g id="edge15" class="edge">
<title>13:s&#45;&gt;16:n</title>
<path fill="none" stroke="black" d="M1190.6,-250.71C1190.6,-250.71 1308.08,-213.73 1342.95,-202.75"/>
<polygon fill="black" stroke="black" points="1344.11,-206.05 1352.6,-199.71 1342.01,-199.38 1344.11,-206.05"/>
<text text-anchor="middle" x="1325.1" y="-221.51" font-family="Helvetica,sans-Serif" font-size="14.00">&gt; 0.5377</text>
</g>
<!-- 15 -->
<g id="node17" class="node">
<title>15</title>
<ellipse fill="#4485e5" stroke="black" cx="1069.6" cy="-35.36" rx="109.7" ry="35.21"/>
<text text-anchor="start" x="1030.6" y="-46.16" font-family="Helvetica,sans-Serif" font-weight="bold" font-size="14.00"> Class=1 </text>
<text text-anchor="start" x="1103.6" y="-46.16" font-family="Helvetica,sans-Serif" font-size="14.00"> </text>
<text text-anchor="start" x="1000.1" y="-32.16" font-family="Helvetica,sans-Serif" font-size="14.00"> error: 0.000, n=31 </text>
<text text-anchor="start" x="1014.6" y="-18.16" font-family="Helvetica,sans-Serif" font-size="14.00"> p: (0.00, 1.00) </text>
</g>
<!-- 14&#45;&gt;15 -->
<g id="edge16" class="edge">
<title>14:s&#45;&gt;15:n</title>
<path fill="none" stroke="black" d="M1086.6,-121.71C1086.6,-121.71 1077.82,-95.36 1072.88,-80.54"/>
<polygon fill="black" stroke="black" points="1076.08,-79.09 1069.6,-70.71 1069.44,-81.3 1076.08,-79.09"/>
<text text-anchor="middle" x="1114.1" y="-92.51" font-family="Helvetica,sans-Serif" font-size="14.00">&gt; 0.2689</text>
</g>
<!-- 17 -->
<g id="node18" class="node">
<title>17</title>
<ellipse fill="#4485e5" stroke="black" cx="1360.6" cy="-35.36" rx="109.7" ry="35.21"/>
<text text-anchor="start" x="1321.6" y="-46.16" font-family="Helvetica,sans-Serif" font-weight="bold" font-size="14.00"> Class=1 </text>
<text text-anchor="start" x="1394.6" y="-46.16" font-family="Helvetica,sans-Serif" font-size="14.00"> </text>
<text text-anchor="start" x="1291.1" y="-32.16" font-family="Helvetica,sans-Serif" font-size="14.00"> error: 0.826, n=27 </text>
<text text-anchor="start" x="1305.6" y="-18.16" font-family="Helvetica,sans-Serif" font-size="14.00"> p: (0.26, 0.74) </text>
</g>
<!-- 16&#45;&gt;17 -->
<g id="edge17" class="edge">
<title>16:s&#45;&gt;17:n</title>
<path fill="none" stroke="black" d="M1352.6,-121.71C1352.6,-121.71 1356.65,-95.93 1358.98,-81.03"/>
<polygon fill="black" stroke="black" points="1362.51,-81.13 1360.6,-70.71 1355.59,-80.05 1362.51,-81.13"/>
<text text-anchor="middle" x="1391.1" y="-92.51" font-family="Helvetica,sans-Serif" font-size="14.00">&gt; 0.3696</text>
</g>
</g>
</svg>
