<?xml version="1.0" encoding="UTF-8" standalone="no"?>
<!DOCTYPE svg PUBLIC "-//W3C//DTD SVG 1.1//EN"
 "http://www.w3.org/Graphics/SVG/1.1/DTD/svg11.dtd">
<!-- Generated by graphviz version 2.43.0 (0)
 -->
<!-- Title: Tree Pages: 1 -->
<svg width="1544pt" height="567pt"
 viewBox="0.00 0.00 1544.17 566.71" xmlns="http://www.w3.org/2000/svg" xmlns:xlink="http://www.w3.org/1999/xlink">
<g id="graph0" class="graph" transform="scale(1 1) rotate(0) translate(18 548.71)">
<title>Tree</title>
<polygon fill="white" stroke="transparent" points="-18,18 -18,-548.71 1526.17,-548.71 1526.17,18 -18,18"/>
<!-- 0 -->
<g id="node1" class="node">
<title>0</title>
<polygon fill="white" stroke="transparent" points="528.09,-530.71 474.09,-530.71 474.09,-494.71 528.09,-494.71 528.09,-530.71"/>
<text text-anchor="middle" x="501.09" y="-509.01" font-family="Helvetica,sans-Serif" font-size="14.00">0</text>
</g>
<!-- 1 -->
<g id="node2" class="node">
<title>1</title>
<polygon fill="#cc3d3d" stroke="black" points="587.59,-457.71 414.59,-457.71 414.59,-379.71 587.59,-379.71 587.59,-457.71"/>
<text text-anchor="start" x="462.09" y="-443.51" font-family="Helvetica,sans-Serif" font-weight="bold" font-size="14.00"> Class=1 </text>
<text text-anchor="start" x="535.09" y="-443.51" font-family="Helvetica,sans-Serif" font-size="14.00"> </text>
<text text-anchor="start" x="422.59" y="-429.51" font-family="Helvetica,sans-Serif" font-size="14.00"> error: 0.971, n=1473 </text>
<text text-anchor="start" x="425.59" y="-415.51" font-family="Helvetica,sans-Serif" font-size="14.00"> p: (0.43, 0.23, 0.35) </text>
<text text-anchor="start" x="461.59" y="-401.51" font-family="Helvetica,sans-Serif" font-size="14.00">&#45;&#45;&#45;&#45;&#45;&#45;&#45;&#45;&#45;&#45;&#45;&#45;&#45;&#45;&#45;</text>
<text text-anchor="start" x="436.09" y="-387.51" font-family="Helvetica,sans-Serif" font-weight="bold" font-size="14.00">Wifes_education</text>
</g>
<!-- 0&#45;&gt;1 -->
<!-- 2 -->
<g id="node3" class="node">
<title>2</title>
<polygon fill="#c5e544" stroke="black" points="257.09,-328.71 1.09,-328.71 1.09,-250.71 257.09,-250.71 257.09,-328.71"/>
<text text-anchor="start" x="90.09" y="-314.51" font-family="Helvetica,sans-Serif" font-weight="bold" font-size="14.00"> Class=2 </text>
<text text-anchor="start" x="163.09" y="-314.51" font-family="Helvetica,sans-Serif" font-size="14.00"> </text>
<text text-anchor="start" x="55.09" y="-300.51" font-family="Helvetica,sans-Serif" font-size="14.00"> error: 0.998, n=577 </text>
<text text-anchor="start" x="53.59" y="-286.51" font-family="Helvetica,sans-Serif" font-size="14.00"> p: (0.30, 0.36, 0.34) </text>
<text text-anchor="start" x="55.09" y="-272.51" font-family="Helvetica,sans-Serif" font-size="14.00">&#45;&#45;&#45;&#45;&#45;&#45;&#45;&#45;&#45;&#45;&#45;&#45;&#45;&#45;&#45;&#45;&#45;&#45;&#45;&#45;&#45;&#45;&#45;&#45;&#45;&#45;&#45;&#45;</text>
<text text-anchor="start" x="9.09" y="-258.51" font-family="Helvetica,sans-Serif" font-weight="bold" font-size="14.00">Number_of_children_ever_born</text>
</g>
<!-- 1&#45;&gt;2 -->
<g id="edge2" class="edge">
<title>1:s&#45;&gt;2:n</title>
<path fill="none" stroke="black" d="M501.09,-379.71C501.09,-379.71 198.2,-338.19 139.04,-330.07"/>
<polygon fill="black" stroke="black" points="139.47,-326.6 129.09,-328.71 138.52,-333.54 139.47,-326.6"/>
<text text-anchor="middle" x="365.09" y="-350.51" font-family="Helvetica,sans-Serif" font-size="14.00">4</text>
</g>
<!-- 4 -->
<g id="node4" class="node">
<title>4</title>
<ellipse fill="#c5e544" stroke="black" cx="458.09" cy="-289.71" rx="118.17" ry="35.21"/>
<text text-anchor="start" x="419.09" y="-300.51" font-family="Helvetica,sans-Serif" font-weight="bold" font-size="14.00"> Class=1 </text>
<text text-anchor="start" x="492.09" y="-300.51" font-family="Helvetica,sans-Serif" font-size="14.00"> </text>
<text text-anchor="start" x="384.09" y="-286.51" font-family="Helvetica,sans-Serif" font-size="14.00"> error: 0.956, n=410 </text>
<text text-anchor="start" x="382.59" y="-272.51" font-family="Helvetica,sans-Serif" font-size="14.00"> p: (0.43, 0.20, 0.38) </text>
</g>
<!-- 1&#45;&gt;4 -->
<g id="edge3" class="edge">
<title>1:s&#45;&gt;4:n</title>
<path fill="none" stroke="black" d="M501.09,-379.71C501.09,-379.71 476.39,-349.27 464.43,-334.53"/>
<polygon fill="black" stroke="black" points="467.11,-332.27 458.09,-326.71 461.67,-336.68 467.11,-332.27"/>
<text text-anchor="middle" x="491.09" y="-350.51" font-family="Helvetica,sans-Serif" font-size="14.00">3</text>
</g>
<!-- 5 -->
<g id="node5" class="node">
<title>5</title>
<polygon fill="#c5e544" stroke="black" points="815.59,-328.71 648.59,-328.71 648.59,-250.71 815.59,-250.71 815.59,-328.71"/>
<text text-anchor="start" x="693.09" y="-314.51" font-family="Helvetica,sans-Serif" font-weight="bold" font-size="14.00"> Class=1 </text>
<text text-anchor="start" x="766.09" y="-314.51" font-family="Helvetica,sans-Serif" font-size="14.00"> </text>
<text text-anchor="start" x="658.09" y="-300.51" font-family="Helvetica,sans-Serif" font-size="14.00"> error: 0.712, n=152 </text>
<text text-anchor="start" x="656.59" y="-286.51" font-family="Helvetica,sans-Serif" font-size="14.00"> p: (0.68, 0.06, 0.26) </text>
<text text-anchor="start" x="708.09" y="-272.51" font-family="Helvetica,sans-Serif" font-size="14.00">&#45;&#45;&#45;&#45;&#45;&#45;&#45;&#45;&#45;</text>
<text text-anchor="start" x="691.59" y="-258.51" font-family="Helvetica,sans-Serif" font-weight="bold" font-size="14.00">Wifes_age</text>
</g>
<!-- 1&#45;&gt;5 -->
<g id="edge4" class="edge">
<title>1:s&#45;&gt;5:n</title>
<path fill="none" stroke="black" d="M501.09,-379.71C501.09,-379.71 677.95,-340.66 722.16,-330.9"/>
<polygon fill="black" stroke="black" points="723.08,-334.28 732.09,-328.71 721.57,-327.45 723.08,-334.28"/>
<text text-anchor="middle" x="649.09" y="-350.51" font-family="Helvetica,sans-Serif" font-size="14.00">1</text>
</g>
<!-- 9 -->
<g id="node6" class="node">
<title>9</title>
<polygon fill="#c5e544" stroke="black" points="1155.59,-328.71 988.59,-328.71 988.59,-250.71 1155.59,-250.71 1155.59,-328.71"/>
<text text-anchor="start" x="1033.09" y="-314.51" font-family="Helvetica,sans-Serif" font-weight="bold" font-size="14.00"> Class=1 </text>
<text text-anchor="start" x="1106.09" y="-314.51" font-family="Helvetica,sans-Serif" font-size="14.00"> </text>
<text text-anchor="start" x="998.09" y="-300.51" font-family="Helvetica,sans-Serif" font-size="14.00"> error: 0.864, n=334 </text>
<text text-anchor="start" x="996.59" y="-286.51" font-family="Helvetica,sans-Serif" font-size="14.00"> p: (0.53, 0.11, 0.36) </text>
<text text-anchor="start" x="1048.09" y="-272.51" font-family="Helvetica,sans-Serif" font-size="14.00">&#45;&#45;&#45;&#45;&#45;&#45;&#45;&#45;&#45;</text>
<text text-anchor="start" x="1031.59" y="-258.51" font-family="Helvetica,sans-Serif" font-weight="bold" font-size="14.00">Wifes_age</text>
</g>
<!-- 1&#45;&gt;9 -->
<g id="edge5" class="edge">
<title>1:s&#45;&gt;9:n</title>
<path fill="none" stroke="black" d="M501.09,-379.71C501.09,-379.71 984.3,-336.55 1061.69,-329.64"/>
<polygon fill="black" stroke="black" points="1062.44,-333.09 1072.09,-328.71 1061.82,-326.11 1062.44,-333.09"/>
<text text-anchor="middle" x="860.09" y="-350.51" font-family="Helvetica,sans-Serif" font-size="14.00">2</text>
</g>
<!-- 3 -->
<g id="node7" class="node">
<title>3</title>
<ellipse fill="#3dcc76" stroke="black" cx="118.09" cy="-160.71" rx="118.17" ry="35.21"/>
<text text-anchor="start" x="79.09" y="-171.51" font-family="Helvetica,sans-Serif" font-weight="bold" font-size="14.00"> Class=2 </text>
<text text-anchor="start" x="152.09" y="-171.51" font-family="Helvetica,sans-Serif" font-size="14.00"> </text>
<text text-anchor="start" x="44.09" y="-157.51" font-family="Helvetica,sans-Serif" font-size="14.00"> error: 0.987, n=541 </text>
<text text-anchor="start" x="42.59" y="-143.51" font-family="Helvetica,sans-Serif" font-size="14.00"> p: (0.26, 0.38, 0.36) </text>
</g>
<!-- 2&#45;&gt;3 -->
<g id="edge6" class="edge">
<title>2:s&#45;&gt;3:n</title>
<path fill="none" stroke="black" d="M129.09,-250.71C129.09,-250.71 123.4,-223.33 120.21,-207.93"/>
<polygon fill="black" stroke="black" points="123.55,-206.79 118.09,-197.71 116.69,-208.21 123.55,-206.79"/>
<text text-anchor="middle" x="139.09" y="-221.51" font-family="Helvetica,sans-Serif" font-size="14.00">&gt; 0</text>
</g>
<!-- 6 -->
<g id="node8" class="node">
<title>6</title>
<polygon fill="#3dcc76" stroke="black" points="564.09,-199.71 308.09,-199.71 308.09,-121.71 564.09,-121.71 564.09,-199.71"/>
<text text-anchor="start" x="397.09" y="-185.51" font-family="Helvetica,sans-Serif" font-weight="bold" font-size="14.00"> Class=3 </text>
<text text-anchor="start" x="470.09" y="-185.51" font-family="Helvetica,sans-Serif" font-size="14.00"> </text>
<text text-anchor="start" x="366.59" y="-171.51" font-family="Helvetica,sans-Serif" font-size="14.00"> error: 0.821, n=69 </text>
<text text-anchor="start" x="360.59" y="-157.51" font-family="Helvetica,sans-Serif" font-size="14.00"> p: (0.45, 0.07, 0.48) </text>
<text text-anchor="start" x="362.09" y="-143.51" font-family="Helvetica,sans-Serif" font-size="14.00">&#45;&#45;&#45;&#45;&#45;&#45;&#45;&#45;&#45;&#45;&#45;&#45;&#45;&#45;&#45;&#45;&#45;&#45;&#45;&#45;&#45;&#45;&#45;&#45;&#45;&#45;&#45;&#45;</text>
<text text-anchor="start" x="316.09" y="-129.51" font-family="Helvetica,sans-Serif" font-weight="bold" font-size="14.00">Number_of_children_ever_born</text>
</g>
<!-- 5&#45;&gt;6 -->
<g id="edge7" class="edge">
<title>5:s&#45;&gt;6:n</title>
<path fill="none" stroke="black" d="M732.09,-250.71C732.09,-250.71 498.32,-210.43 446.28,-201.47"/>
<polygon fill="black" stroke="black" points="446.54,-197.96 436.09,-199.71 445.35,-204.86 446.54,-197.96"/>
<text text-anchor="middle" x="643.59" y="-221.51" font-family="Helvetica,sans-Serif" font-size="14.00">&lt;= 37</text>
</g>
<!-- 8 -->
<g id="node9" class="node">
<title>8</title>
<ellipse fill="#3dcc76" stroke="black" cx="754.09" cy="-160.71" rx="118.17" ry="35.21"/>
<text text-anchor="start" x="715.09" y="-171.51" font-family="Helvetica,sans-Serif" font-weight="bold" font-size="14.00"> Class=1 </text>
<text text-anchor="start" x="788.09" y="-171.51" font-family="Helvetica,sans-Serif" font-size="14.00"> </text>
<text text-anchor="start" x="684.59" y="-157.51" font-family="Helvetica,sans-Serif" font-size="14.00"> error: 0.435, n=83 </text>
<text text-anchor="start" x="678.59" y="-143.51" font-family="Helvetica,sans-Serif" font-size="14.00"> p: (0.87, 0.05, 0.08) </text>
</g>
<!-- 5&#45;&gt;8 -->
<g id="edge8" class="edge">
<title>5:s&#45;&gt;8:n</title>
<path fill="none" stroke="black" d="M732.09,-250.71C732.09,-250.71 743.7,-222.73 750.05,-207.43"/>
<polygon fill="black" stroke="black" points="753.49,-208.29 754.09,-197.71 747.02,-205.6 753.49,-208.29"/>
<text text-anchor="middle" x="763.59" y="-221.51" font-family="Helvetica,sans-Serif" font-size="14.00">&gt; 37</text>
</g>
<!-- 10 -->
<g id="node11" class="node">
<title>10</title>
<polygon fill="#3dcc76" stroke="black" points="1200.09,-199.71 944.09,-199.71 944.09,-121.71 1200.09,-121.71 1200.09,-199.71"/>
<text text-anchor="start" x="1033.09" y="-185.51" font-family="Helvetica,sans-Serif" font-weight="bold" font-size="14.00"> Class=1 </text>
<text text-anchor="start" x="1106.09" y="-185.51" font-family="Helvetica,sans-Serif" font-size="14.00"> </text>
<text text-anchor="start" x="998.09" y="-171.51" font-family="Helvetica,sans-Serif" font-size="14.00"> error: 0.862, n=287 </text>
<text text-anchor="start" x="996.59" y="-157.51" font-family="Helvetica,sans-Serif" font-size="14.00"> p: (0.49, 0.10, 0.41) </text>
<text text-anchor="start" x="998.09" y="-143.51" font-family="Helvetica,sans-Serif" font-size="14.00">&#45;&#45;&#45;&#45;&#45;&#45;&#45;&#45;&#45;&#45;&#45;&#45;&#45;&#45;&#45;&#45;&#45;&#45;&#45;&#45;&#45;&#45;&#45;&#45;&#45;&#45;&#45;&#45;</text>
<text text-anchor="start" x="952.09" y="-129.51" font-family="Helvetica,sans-Serif" font-weight="bold" font-size="14.00">Number_of_children_ever_born</text>
</g>
<!-- 9&#45;&gt;10 -->
<g id="edge10" class="edge">
<title>9:s&#45;&gt;10:n</title>
<path fill="none" stroke="black" d="M1072.09,-250.71C1072.09,-250.71 1072.09,-224.93 1072.09,-210.03"/>
<polygon fill="black" stroke="black" points="1075.59,-209.71 1072.09,-199.71 1068.59,-209.71 1075.59,-209.71"/>
<text text-anchor="middle" x="1095.59" y="-221.51" font-family="Helvetica,sans-Serif" font-size="14.00">&lt;= 40</text>
</g>
<!-- 13 -->
<g id="node12" class="node">
<title>13</title>
<ellipse fill="#3dcc76" stroke="black" cx="1390.09" cy="-160.71" rx="118.17" ry="35.21"/>
<text text-anchor="start" x="1351.09" y="-171.51" font-family="Helvetica,sans-Serif" font-weight="bold" font-size="14.00"> Class=1 </text>
<text text-anchor="start" x="1424.09" y="-171.51" font-family="Helvetica,sans-Serif" font-size="14.00"> </text>
<text text-anchor="start" x="1320.59" y="-157.51" font-family="Helvetica,sans-Serif" font-size="14.00"> error: 0.665, n=47 </text>
<text text-anchor="start" x="1314.59" y="-143.51" font-family="Helvetica,sans-Serif" font-size="14.00"> p: (0.74, 0.17, 0.09) </text>
</g>
<!-- 9&#45;&gt;13 -->
<g id="edge11" class="edge">
<title>9:s&#45;&gt;13:n</title>
<path fill="none" stroke="black" d="M1072.09,-250.71C1072.09,-250.71 1326.55,-208.3 1380.22,-199.35"/>
<polygon fill="black" stroke="black" points="1380.8,-202.81 1390.09,-197.71 1379.65,-195.9 1380.8,-202.81"/>
<text text-anchor="middle" x="1286.59" y="-221.51" font-family="Helvetica,sans-Serif" font-size="14.00">&gt; 40</text>
</g>
<!-- 7 -->
<g id="node10" class="node">
<title>7</title>
<ellipse fill="#4485e5" stroke="black" cx="436.09" cy="-35.36" rx="118.17" ry="35.21"/>
<text text-anchor="start" x="397.09" y="-46.16" font-family="Helvetica,sans-Serif" font-weight="bold" font-size="14.00"> Class=3 </text>
<text text-anchor="start" x="470.09" y="-46.16" font-family="Helvetica,sans-Serif" font-size="14.00"> </text>
<text text-anchor="start" x="366.59" y="-32.16" font-family="Helvetica,sans-Serif" font-size="14.00"> error: 0.779, n=43 </text>
<text text-anchor="start" x="360.59" y="-18.16" font-family="Helvetica,sans-Serif" font-size="14.00"> p: (0.33, 0.07, 0.60) </text>
</g>
<!-- 6&#45;&gt;7 -->
<g id="edge9" class="edge">
<title>6:s&#45;&gt;7:n</title>
<path fill="none" stroke="black" d="M436.09,-121.71C436.09,-121.71 436.09,-95.93 436.09,-81.03"/>
<polygon fill="black" stroke="black" points="439.59,-80.71 436.09,-70.71 432.59,-80.71 439.59,-80.71"/>
<text text-anchor="middle" x="449.09" y="-92.51" font-family="Helvetica,sans-Serif" font-size="14.00">&gt; 2</text>
</g>
<!-- 11 -->
<g id="node13" class="node">
<title>11</title>
<ellipse fill="#4485e5" stroke="black" cx="918.09" cy="-35.36" rx="118.17" ry="35.21"/>
<text text-anchor="start" x="879.09" y="-46.16" font-family="Helvetica,sans-Serif" font-weight="bold" font-size="14.00"> Class=1 </text>
<text text-anchor="start" x="952.09" y="-46.16" font-family="Helvetica,sans-Serif" font-size="14.00"> </text>
<text text-anchor="start" x="848.59" y="-32.16" font-family="Helvetica,sans-Serif" font-size="14.00"> error: 0.630, n=75 </text>
<text text-anchor="start" x="842.59" y="-18.16" font-family="Helvetica,sans-Serif" font-size="14.00"> p: (0.73, 0.04, 0.23) </text>
</g>
<!-- 10&#45;&gt;11 -->
<g id="edge12" class="edge">
<title>10:s&#45;&gt;11:n</title>
<path fill="none" stroke="black" d="M1072.09,-121.71C1072.09,-121.71 961.43,-85.07 927.72,-73.9"/>
<polygon fill="black" stroke="black" points="928.68,-70.53 918.09,-70.71 926.48,-77.18 928.68,-70.53"/>
<text text-anchor="middle" x="1033.09" y="-92.51" font-family="Helvetica,sans-Serif" font-size="14.00">&lt;= 1</text>
</g>
<!-- 12 -->
<g id="node14" class="node">
<title>12</title>
<ellipse fill="#4485e5" stroke="black" cx="1226.09" cy="-35.36" rx="118.17" ry="35.21"/>
<text text-anchor="start" x="1187.09" y="-46.16" font-family="Helvetica,sans-Serif" font-weight="bold" font-size="14.00"> Class=3 </text>
<text text-anchor="start" x="1260.09" y="-46.16" font-family="Helvetica,sans-Serif" font-size="14.00"> </text>
<text text-anchor="start" x="1152.09" y="-32.16" font-family="Helvetica,sans-Serif" font-size="14.00"> error: 0.890, n=212 </text>
<text text-anchor="start" x="1150.59" y="-18.16" font-family="Helvetica,sans-Serif" font-size="14.00"> p: (0.41, 0.12, 0.47) </text>
</g>
<!-- 10&#45;&gt;12 -->
<g id="edge13" class="edge">
<title>10:s&#45;&gt;12:n</title>
<path fill="none" stroke="black" d="M1072.09,-121.71C1072.09,-121.71 1182.74,-85.07 1216.45,-73.9"/>
<polygon fill="black" stroke="black" points="1217.69,-77.18 1226.09,-70.71 1215.49,-70.53 1217.69,-77.18"/>
<text text-anchor="middle" x="1181.09" y="-92.51" font-family="Helvetica,sans-Serif" font-size="14.00">&gt; 1</text>
</g>
</g>
</svg>
