<?xml version="1.0" encoding="UTF-8" standalone="no"?>
<!DOCTYPE svg PUBLIC "-//W3C//DTD SVG 1.1//EN"
 "http://www.w3.org/Graphics/SVG/1.1/DTD/svg11.dtd">
<!-- Generated by graphviz version 2.43.0 (0)
 -->
<!-- Title: Tree Pages: 1 -->
<svg width="2184pt" height="825pt"
 viewBox="0.00 0.00 2184.40 824.71" xmlns="http://www.w3.org/2000/svg" xmlns:xlink="http://www.w3.org/1999/xlink">
<g id="graph0" class="graph" transform="scale(1 1) rotate(0) translate(18 806.71)">
<title>Tree</title>
<polygon fill="white" stroke="transparent" points="-18,18 -18,-806.71 2166.4,-806.71 2166.4,18 -18,18"/>
<!-- 0 -->
<g id="node1" class="node">
<title>0</title>
<polygon fill="white" stroke="transparent" points="842.2,-788.71 788.2,-788.71 788.2,-752.71 842.2,-752.71 842.2,-788.71"/>
<text text-anchor="middle" x="815.2" y="-767.01" font-family="Helvetica,sans-Serif" font-size="14.00">0</text>
</g>
<!-- 1 -->
<g id="node2" class="node">
<title>1</title>
<polygon fill="#cc3d3d" stroke="black" points="920.7,-715.71 709.7,-715.71 709.7,-637.71 920.7,-637.71 920.7,-715.71"/>
<text text-anchor="start" x="717.7" y="-701.51" font-family="Helvetica,sans-Serif" font-weight="bold" font-size="14.00"> Class=tested_negative </text>
<text text-anchor="start" x="907.7" y="-701.51" font-family="Helvetica,sans-Serif" font-size="14.00"> </text>
<text text-anchor="start" x="741.2" y="-687.51" font-family="Helvetica,sans-Serif" font-size="14.00"> error: 0.933, n=768 </text>
<text text-anchor="start" x="760.2" y="-673.51" font-family="Helvetica,sans-Serif" font-size="14.00"> p: (0.65, 0.35) </text>
<text text-anchor="start" x="804.2" y="-659.51" font-family="Helvetica,sans-Serif" font-size="14.00">&#45;&#45;&#45;&#45;</text>
<text text-anchor="start" x="798.7" y="-645.51" font-family="Helvetica,sans-Serif" font-weight="bold" font-size="14.00">plas</text>
</g>
<!-- 0&#45;&gt;1 -->
<!-- 2 -->
<g id="node3" class="node">
<title>2</title>
<polygon fill="#e5b844" stroke="black" points="735.2,-586.71 531.2,-586.71 531.2,-508.71 735.2,-508.71 735.2,-586.71"/>
<text text-anchor="start" x="539.2" y="-572.51" font-family="Helvetica,sans-Serif" font-weight="bold" font-size="14.00"> Class=tested_positive </text>
<text text-anchor="start" x="722.2" y="-572.51" font-family="Helvetica,sans-Serif" font-size="14.00"> </text>
<text text-anchor="start" x="559.2" y="-558.51" font-family="Helvetica,sans-Serif" font-size="14.00"> error: 0.940, n=230 </text>
<text text-anchor="start" x="578.2" y="-544.51" font-family="Helvetica,sans-Serif" font-size="14.00"> p: (0.36, 0.64) </text>
<text text-anchor="start" x="622.2" y="-530.51" font-family="Helvetica,sans-Serif" font-size="14.00">&#45;&#45;&#45;&#45;</text>
<text text-anchor="start" x="612.7" y="-516.51" font-family="Helvetica,sans-Serif" font-weight="bold" font-size="14.00">mass</text>
</g>
<!-- 1&#45;&gt;2 -->
<g id="edge2" class="edge">
<title>1:s&#45;&gt;2:n</title>
<path fill="none" stroke="black" d="M815.2,-637.71C815.2,-637.71 680.79,-600.05 642.98,-589.45"/>
<polygon fill="black" stroke="black" points="643.77,-586.04 633.2,-586.71 641.88,-592.78 643.77,-586.04"/>
<text text-anchor="middle" x="768.2" y="-608.51" font-family="Helvetica,sans-Serif" font-size="14.00">&gt; 134</text>
</g>
<!-- 6 -->
<g id="node4" class="node">
<title>6</title>
<polygon fill="#e5b844" stroke="black" points="1103.7,-586.71 892.7,-586.71 892.7,-508.71 1103.7,-508.71 1103.7,-586.71"/>
<text text-anchor="start" x="900.7" y="-572.51" font-family="Helvetica,sans-Serif" font-weight="bold" font-size="14.00"> Class=tested_negative </text>
<text text-anchor="start" x="1090.7" y="-572.51" font-family="Helvetica,sans-Serif" font-size="14.00"> </text>
<text text-anchor="start" x="924.2" y="-558.51" font-family="Helvetica,sans-Serif" font-size="14.00"> error: 0.766, n=538 </text>
<text text-anchor="start" x="943.2" y="-544.51" font-family="Helvetica,sans-Serif" font-size="14.00"> p: (0.78, 0.22) </text>
<text text-anchor="start" x="987.2" y="-530.51" font-family="Helvetica,sans-Serif" font-size="14.00">&#45;&#45;&#45;&#45;</text>
<text text-anchor="start" x="977.7" y="-516.51" font-family="Helvetica,sans-Serif" font-weight="bold" font-size="14.00">mass</text>
</g>
<!-- 1&#45;&gt;6 -->
<g id="edge3" class="edge">
<title>1:s&#45;&gt;6:n</title>
<path fill="none" stroke="black" d="M815.2,-637.71C815.2,-637.71 950.35,-600.05 988.36,-589.45"/>
<polygon fill="black" stroke="black" points="989.51,-592.77 998.2,-586.71 987.63,-586.02 989.51,-592.77"/>
<text text-anchor="middle" x="957.2" y="-608.51" font-family="Helvetica,sans-Serif" font-size="14.00">&lt;= 134</text>
</g>
<!-- 3 -->
<g id="node5" class="node">
<title>3</title>
<polygon fill="#8dcc3d" stroke="black" points="416.7,-457.71 205.7,-457.71 205.7,-379.71 416.7,-379.71 416.7,-457.71"/>
<text text-anchor="start" x="213.7" y="-443.51" font-family="Helvetica,sans-Serif" font-weight="bold" font-size="14.00"> Class=tested_negative </text>
<text text-anchor="start" x="403.7" y="-443.51" font-family="Helvetica,sans-Serif" font-size="14.00"> </text>
<text text-anchor="start" x="241.7" y="-429.51" font-family="Helvetica,sans-Serif" font-size="14.00"> error: 0.935, n=57 </text>
<text text-anchor="start" x="256.2" y="-415.51" font-family="Helvetica,sans-Serif" font-size="14.00"> p: (0.65, 0.35) </text>
<text text-anchor="start" x="300.2" y="-401.51" font-family="Helvetica,sans-Serif" font-size="14.00">&#45;&#45;&#45;&#45;</text>
<text text-anchor="start" x="294.7" y="-387.51" font-family="Helvetica,sans-Serif" font-weight="bold" font-size="14.00">plas</text>
</g>
<!-- 2&#45;&gt;3 -->
<g id="edge4" class="edge">
<title>2:s&#45;&gt;3:n</title>
<path fill="none" stroke="black" d="M633.2,-508.71C633.2,-508.71 375.54,-467.9 321.19,-459.29"/>
<polygon fill="black" stroke="black" points="321.62,-455.82 311.2,-457.71 320.53,-462.73 321.62,-455.82"/>
<text text-anchor="middle" x="541.7" y="-479.51" font-family="Helvetica,sans-Serif" font-size="14.00">&lt;= 29.9</text>
</g>
<!-- 5 -->
<g id="node6" class="node">
<title>5</title>
<ellipse fill="#8dcc3d" stroke="black" cx="633.2" cy="-418.71" rx="144.5" ry="35.21"/>
<text text-anchor="start" x="539.2" y="-429.51" font-family="Helvetica,sans-Serif" font-weight="bold" font-size="14.00"> Class=tested_positive </text>
<text text-anchor="start" x="722.2" y="-429.51" font-family="Helvetica,sans-Serif" font-size="14.00"> </text>
<text text-anchor="start" x="559.2" y="-415.51" font-family="Helvetica,sans-Serif" font-size="14.00"> error: 0.827, n=173 </text>
<text text-anchor="start" x="578.2" y="-401.51" font-family="Helvetica,sans-Serif" font-size="14.00"> p: (0.26, 0.74) </text>
</g>
<!-- 2&#45;&gt;5 -->
<g id="edge5" class="edge">
<title>2:s&#45;&gt;5:n</title>
<path fill="none" stroke="black" d="M633.2,-508.71C633.2,-508.71 633.2,-481.33 633.2,-465.93"/>
<polygon fill="black" stroke="black" points="636.7,-465.71 633.2,-455.71 629.7,-465.71 636.7,-465.71"/>
<text text-anchor="middle" x="657.7" y="-479.51" font-family="Helvetica,sans-Serif" font-size="14.00">&gt; 29.9</text>
</g>
<!-- 7 -->
<g id="node8" class="node">
<title>7</title>
<ellipse fill="#8dcc3d" stroke="black" cx="998.2" cy="-418.71" rx="149.4" ry="35.21"/>
<text text-anchor="start" x="900.7" y="-429.51" font-family="Helvetica,sans-Serif" font-weight="bold" font-size="14.00"> Class=tested_negative </text>
<text text-anchor="start" x="1090.7" y="-429.51" font-family="Helvetica,sans-Serif" font-size="14.00"> </text>
<text text-anchor="start" x="924.2" y="-415.51" font-family="Helvetica,sans-Serif" font-size="14.00"> error: 0.246, n=147 </text>
<text text-anchor="start" x="943.2" y="-401.51" font-family="Helvetica,sans-Serif" font-size="14.00"> p: (0.96, 0.04) </text>
</g>
<!-- 6&#45;&gt;7 -->
<g id="edge7" class="edge">
<title>6:s&#45;&gt;7:n</title>
<path fill="none" stroke="black" d="M998.2,-508.71C998.2,-508.71 998.2,-481.33 998.2,-465.93"/>
<polygon fill="black" stroke="black" points="1001.7,-465.71 998.2,-455.71 994.7,-465.71 1001.7,-465.71"/>
<text text-anchor="middle" x="1028.7" y="-479.51" font-family="Helvetica,sans-Serif" font-size="14.00">&lt;= 26.6</text>
</g>
<!-- 8 -->
<g id="node9" class="node">
<title>8</title>
<polygon fill="#8dcc3d" stroke="black" points="1430.7,-457.71 1219.7,-457.71 1219.7,-379.71 1430.7,-379.71 1430.7,-457.71"/>
<text text-anchor="start" x="1227.7" y="-443.51" font-family="Helvetica,sans-Serif" font-weight="bold" font-size="14.00"> Class=tested_negative </text>
<text text-anchor="start" x="1417.7" y="-443.51" font-family="Helvetica,sans-Serif" font-size="14.00"> </text>
<text text-anchor="start" x="1251.2" y="-429.51" font-family="Helvetica,sans-Serif" font-size="14.00"> error: 0.871, n=391 </text>
<text text-anchor="start" x="1270.2" y="-415.51" font-family="Helvetica,sans-Serif" font-size="14.00"> p: (0.71, 0.29) </text>
<text text-anchor="start" x="1314.2" y="-401.51" font-family="Helvetica,sans-Serif" font-size="14.00">&#45;&#45;&#45;&#45;</text>
<text text-anchor="start" x="1308.7" y="-387.51" font-family="Helvetica,sans-Serif" font-weight="bold" font-size="14.00">plas</text>
</g>
<!-- 6&#45;&gt;8 -->
<g id="edge8" class="edge">
<title>6:s&#45;&gt;8:n</title>
<path fill="none" stroke="black" d="M998.2,-508.71C998.2,-508.71 1259.86,-467.9 1315.05,-459.29"/>
<polygon fill="black" stroke="black" points="1315.86,-462.71 1325.2,-457.71 1314.78,-455.79 1315.86,-462.71"/>
<text text-anchor="middle" x="1225.7" y="-479.51" font-family="Helvetica,sans-Serif" font-size="14.00">&gt; 26.6</text>
</g>
<!-- 4 -->
<g id="node7" class="node">
<title>4</title>
<ellipse fill="#44e55e" stroke="black" cx="311.2" cy="-289.71" rx="149.4" ry="35.21"/>
<text text-anchor="start" x="213.7" y="-300.51" font-family="Helvetica,sans-Serif" font-weight="bold" font-size="14.00"> Class=tested_negative </text>
<text text-anchor="start" x="403.7" y="-300.51" font-family="Helvetica,sans-Serif" font-size="14.00"> </text>
<text text-anchor="start" x="241.7" y="-286.51" font-family="Helvetica,sans-Serif" font-size="14.00"> error: 0.696, n=32 </text>
<text text-anchor="start" x="256.2" y="-272.51" font-family="Helvetica,sans-Serif" font-size="14.00"> p: (0.81, 0.19) </text>
</g>
<!-- 3&#45;&gt;4 -->
<g id="edge6" class="edge">
<title>3:s&#45;&gt;4:n</title>
<path fill="none" stroke="black" d="M311.2,-379.71C311.2,-379.71 311.2,-352.33 311.2,-336.93"/>
<polygon fill="black" stroke="black" points="314.7,-336.71 311.2,-326.71 307.7,-336.71 314.7,-336.71"/>
<text text-anchor="middle" x="339.2" y="-350.51" font-family="Helvetica,sans-Serif" font-size="14.00">&lt;= 151</text>
</g>
<!-- 9 -->
<g id="node10" class="node">
<title>9</title>
<polygon fill="#44e55e" stroke="black" points="1020.7,-328.71 809.7,-328.71 809.7,-250.71 1020.7,-250.71 1020.7,-328.71"/>
<text text-anchor="start" x="817.7" y="-314.51" font-family="Helvetica,sans-Serif" font-weight="bold" font-size="14.00"> Class=tested_negative </text>
<text text-anchor="start" x="1007.7" y="-314.51" font-family="Helvetica,sans-Serif" font-size="14.00"> </text>
<text text-anchor="start" x="841.2" y="-300.51" font-family="Helvetica,sans-Serif" font-size="14.00"> error: 0.717, n=228 </text>
<text text-anchor="start" x="860.2" y="-286.51" font-family="Helvetica,sans-Serif" font-size="14.00"> p: (0.80, 0.20) </text>
<text text-anchor="start" x="907.2" y="-272.51" font-family="Helvetica,sans-Serif" font-size="14.00">&#45;&#45;&#45;</text>
<text text-anchor="start" x="900.2" y="-258.51" font-family="Helvetica,sans-Serif" font-weight="bold" font-size="14.00">age</text>
</g>
<!-- 8&#45;&gt;9 -->
<g id="edge9" class="edge">
<title>8:s&#45;&gt;9:n</title>
<path fill="none" stroke="black" d="M1325.2,-379.71C1325.2,-379.71 988.47,-337.82 925.33,-329.97"/>
<polygon fill="black" stroke="black" points="925.56,-326.47 915.2,-328.71 924.69,-333.42 925.56,-326.47"/>
<text text-anchor="middle" x="1197.2" y="-350.51" font-family="Helvetica,sans-Serif" font-size="14.00">&lt;= 111</text>
</g>
<!-- 16 -->
<g id="node11" class="node">
<title>16</title>
<polygon fill="#44e55e" stroke="black" points="1734.7,-328.71 1523.7,-328.71 1523.7,-250.71 1734.7,-250.71 1734.7,-328.71"/>
<text text-anchor="start" x="1531.7" y="-314.51" font-family="Helvetica,sans-Serif" font-weight="bold" font-size="14.00"> Class=tested_negative </text>
<text text-anchor="start" x="1721.7" y="-314.51" font-family="Helvetica,sans-Serif" font-size="14.00"> </text>
<text text-anchor="start" x="1555.2" y="-300.51" font-family="Helvetica,sans-Serif" font-size="14.00"> error: 0.983, n=163 </text>
<text text-anchor="start" x="1574.2" y="-286.51" font-family="Helvetica,sans-Serif" font-size="14.00"> p: (0.58, 0.42) </text>
<text text-anchor="start" x="1621.2" y="-272.51" font-family="Helvetica,sans-Serif" font-size="14.00">&#45;&#45;&#45;</text>
<text text-anchor="start" x="1614.2" y="-258.51" font-family="Helvetica,sans-Serif" font-weight="bold" font-size="14.00">age</text>
</g>
<!-- 8&#45;&gt;16 -->
<g id="edge10" class="edge">
<title>8:s&#45;&gt;16:n</title>
<path fill="none" stroke="black" d="M1325.2,-379.71C1325.2,-379.71 1566.34,-339.26 1619.08,-330.41"/>
<polygon fill="black" stroke="black" points="1619.92,-333.82 1629.2,-328.71 1618.76,-326.91 1619.92,-333.82"/>
<text text-anchor="middle" x="1536.2" y="-350.51" font-family="Helvetica,sans-Serif" font-size="14.00">&gt; 111</text>
</g>
<!-- 10 -->
<g id="node12" class="node">
<title>10</title>
<polygon fill="#3dccba" stroke="black" points="624.7,-199.71 413.7,-199.71 413.7,-121.71 624.7,-121.71 624.7,-199.71"/>
<text text-anchor="start" x="421.7" y="-185.51" font-family="Helvetica,sans-Serif" font-weight="bold" font-size="14.00"> Class=tested_negative </text>
<text text-anchor="start" x="611.7" y="-185.51" font-family="Helvetica,sans-Serif" font-size="14.00"> </text>
<text text-anchor="start" x="449.7" y="-171.51" font-family="Helvetica,sans-Serif" font-size="14.00"> error: 0.294, n=58 </text>
<text text-anchor="start" x="464.2" y="-157.51" font-family="Helvetica,sans-Serif" font-size="14.00"> p: (0.95, 0.05) </text>
<text text-anchor="start" x="508.2" y="-143.51" font-family="Helvetica,sans-Serif" font-size="14.00">&#45;&#45;&#45;&#45;</text>
<text text-anchor="start" x="502.7" y="-129.51" font-family="Helvetica,sans-Serif" font-weight="bold" font-size="14.00">insu</text>
</g>
<!-- 9&#45;&gt;10 -->
<g id="edge11" class="edge">
<title>9:s&#45;&gt;10:n</title>
<path fill="none" stroke="black" d="M915.2,-250.71C915.2,-250.71 591.37,-209.01 529.39,-201.02"/>
<polygon fill="black" stroke="black" points="529.56,-197.52 519.2,-199.71 528.67,-204.46 529.56,-197.52"/>
<text text-anchor="middle" x="788.7" y="-221.51" font-family="Helvetica,sans-Serif" font-size="14.00">&lt;= 23</text>
</g>
<!-- 13 -->
<g id="node13" class="node">
<title>13</title>
<polygon fill="#3dccba" stroke="black" points="1020.7,-199.71 809.7,-199.71 809.7,-121.71 1020.7,-121.71 1020.7,-199.71"/>
<text text-anchor="start" x="817.7" y="-185.51" font-family="Helvetica,sans-Serif" font-weight="bold" font-size="14.00"> Class=tested_negative </text>
<text text-anchor="start" x="1007.7" y="-185.51" font-family="Helvetica,sans-Serif" font-size="14.00"> </text>
<text text-anchor="start" x="841.2" y="-171.51" font-family="Helvetica,sans-Serif" font-size="14.00"> error: 0.807, n=170 </text>
<text text-anchor="start" x="860.2" y="-157.51" font-family="Helvetica,sans-Serif" font-size="14.00"> p: (0.75, 0.25) </text>
<text text-anchor="start" x="904.2" y="-143.51" font-family="Helvetica,sans-Serif" font-size="14.00">&#45;&#45;&#45;&#45;</text>
<text text-anchor="start" x="898.2" y="-129.51" font-family="Helvetica,sans-Serif" font-weight="bold" font-size="14.00">pedi</text>
</g>
<!-- 9&#45;&gt;13 -->
<g id="edge12" class="edge">
<title>9:s&#45;&gt;13:n</title>
<path fill="none" stroke="black" d="M915.2,-250.71C915.2,-250.71 915.2,-224.93 915.2,-210.03"/>
<polygon fill="black" stroke="black" points="918.7,-209.71 915.2,-199.71 911.7,-209.71 918.7,-209.71"/>
<text text-anchor="middle" x="932.7" y="-221.51" font-family="Helvetica,sans-Serif" font-size="14.00">&gt; 23</text>
</g>
<!-- 17 -->
<g id="node18" class="node">
<title>17</title>
<polygon fill="#3dccba" stroke="black" points="1734.7,-199.71 1523.7,-199.71 1523.7,-121.71 1734.7,-121.71 1734.7,-199.71"/>
<text text-anchor="start" x="1531.7" y="-185.51" font-family="Helvetica,sans-Serif" font-weight="bold" font-size="14.00"> Class=tested_negative </text>
<text text-anchor="start" x="1721.7" y="-185.51" font-family="Helvetica,sans-Serif" font-size="14.00"> </text>
<text text-anchor="start" x="1559.7" y="-171.51" font-family="Helvetica,sans-Serif" font-size="14.00"> error: 0.830, n=84 </text>
<text text-anchor="start" x="1574.2" y="-157.51" font-family="Helvetica,sans-Serif" font-size="14.00"> p: (0.74, 0.26) </text>
<text text-anchor="start" x="1618.2" y="-143.51" font-family="Helvetica,sans-Serif" font-size="14.00">&#45;&#45;&#45;&#45;</text>
<text text-anchor="start" x="1613.2" y="-129.51" font-family="Helvetica,sans-Serif" font-weight="bold" font-size="14.00">skin</text>
</g>
<!-- 16&#45;&gt;17 -->
<g id="edge17" class="edge">
<title>16:s&#45;&gt;17:n</title>
<path fill="none" stroke="black" d="M1629.2,-250.71C1629.2,-250.71 1629.2,-224.93 1629.2,-210.03"/>
<polygon fill="black" stroke="black" points="1632.7,-209.71 1629.2,-199.71 1625.7,-209.71 1632.7,-209.71"/>
<text text-anchor="middle" x="1652.7" y="-221.51" font-family="Helvetica,sans-Serif" font-size="14.00">&lt;= 29</text>
</g>
<!-- 19 -->
<g id="node19" class="node">
<title>19</title>
<polygon fill="#3dccba" stroke="black" points="2056.2,-199.71 1852.2,-199.71 1852.2,-121.71 2056.2,-121.71 2056.2,-199.71"/>
<text text-anchor="start" x="1860.2" y="-185.51" font-family="Helvetica,sans-Serif" font-weight="bold" font-size="14.00"> Class=tested_positive </text>
<text text-anchor="start" x="2043.2" y="-185.51" font-family="Helvetica,sans-Serif" font-size="14.00"> </text>
<text text-anchor="start" x="1884.7" y="-171.51" font-family="Helvetica,sans-Serif" font-size="14.00"> error: 0.974, n=79 </text>
<text text-anchor="start" x="1899.2" y="-157.51" font-family="Helvetica,sans-Serif" font-size="14.00"> p: (0.41, 0.59) </text>
<text text-anchor="start" x="1943.2" y="-143.51" font-family="Helvetica,sans-Serif" font-size="14.00">&#45;&#45;&#45;&#45;</text>
<text text-anchor="start" x="1937.2" y="-129.51" font-family="Helvetica,sans-Serif" font-weight="bold" font-size="14.00">pedi</text>
</g>
<!-- 16&#45;&gt;19 -->
<g id="edge18" class="edge">
<title>16:s&#45;&gt;19:n</title>
<path fill="none" stroke="black" d="M1629.2,-250.71C1629.2,-250.71 1889.26,-209.9 1944.12,-201.29"/>
<polygon fill="black" stroke="black" points="1944.86,-204.72 1954.2,-199.71 1943.78,-197.8 1944.86,-204.72"/>
<text text-anchor="middle" x="1848.7" y="-221.51" font-family="Helvetica,sans-Serif" font-size="14.00">&gt; 29</text>
</g>
<!-- 11 -->
<g id="node14" class="node">
<title>11</title>
<ellipse fill="#4485e5" stroke="black" cx="149.2" cy="-35.36" rx="149.4" ry="35.21"/>
<text text-anchor="start" x="51.7" y="-46.16" font-family="Helvetica,sans-Serif" font-weight="bold" font-size="14.00"> Class=tested_negative </text>
<text text-anchor="start" x="241.7" y="-46.16" font-family="Helvetica,sans-Serif" font-size="14.00"> </text>
<text text-anchor="start" x="79.7" y="-32.16" font-family="Helvetica,sans-Serif" font-size="14.00"> error: 0.000, n=30 </text>
<text text-anchor="start" x="94.2" y="-18.16" font-family="Helvetica,sans-Serif" font-size="14.00"> p: (1.00, 0.00) </text>
</g>
<!-- 10&#45;&gt;11 -->
<g id="edge13" class="edge">
<title>10:s&#45;&gt;11:n</title>
<path fill="none" stroke="black" d="M519.2,-121.71C519.2,-121.71 219.24,-80.36 159.48,-72.13"/>
<polygon fill="black" stroke="black" points="159.58,-68.61 149.2,-70.71 158.63,-75.54 159.58,-68.61"/>
<text text-anchor="middle" x="402.7" y="-92.51" font-family="Helvetica,sans-Serif" font-size="14.00">&lt;= 53</text>
</g>
<!-- 12 -->
<g id="node15" class="node">
<title>12</title>
<ellipse fill="#4485e5" stroke="black" cx="519.2" cy="-35.36" rx="149.4" ry="35.21"/>
<text text-anchor="start" x="421.7" y="-46.16" font-family="Helvetica,sans-Serif" font-weight="bold" font-size="14.00"> Class=tested_negative </text>
<text text-anchor="start" x="611.7" y="-46.16" font-family="Helvetica,sans-Serif" font-size="14.00"> </text>
<text text-anchor="start" x="449.7" y="-32.16" font-family="Helvetica,sans-Serif" font-size="14.00"> error: 0.491, n=28 </text>
<text text-anchor="start" x="464.2" y="-18.16" font-family="Helvetica,sans-Serif" font-size="14.00"> p: (0.89, 0.11) </text>
</g>
<!-- 10&#45;&gt;12 -->
<g id="edge14" class="edge">
<title>10:s&#45;&gt;12:n</title>
<path fill="none" stroke="black" d="M519.2,-121.71C519.2,-121.71 519.2,-95.93 519.2,-81.03"/>
<polygon fill="black" stroke="black" points="522.7,-80.71 519.2,-70.71 515.7,-80.71 522.7,-80.71"/>
<text text-anchor="middle" x="536.7" y="-92.51" font-family="Helvetica,sans-Serif" font-size="14.00">&gt; 53</text>
</g>
<!-- 14 -->
<g id="node16" class="node">
<title>14</title>
<ellipse fill="#4485e5" stroke="black" cx="889.2" cy="-35.36" rx="149.4" ry="35.21"/>
<text text-anchor="start" x="791.7" y="-46.16" font-family="Helvetica,sans-Serif" font-weight="bold" font-size="14.00"> Class=tested_negative </text>
<text text-anchor="start" x="981.7" y="-46.16" font-family="Helvetica,sans-Serif" font-size="14.00"> </text>
<text text-anchor="start" x="815.2" y="-32.16" font-family="Helvetica,sans-Serif" font-size="14.00"> error: 0.707, n=135 </text>
<text text-anchor="start" x="834.2" y="-18.16" font-family="Helvetica,sans-Serif" font-size="14.00"> p: (0.81, 0.19) </text>
</g>
<!-- 13&#45;&gt;14 -->
<g id="edge15" class="edge">
<title>13:s&#45;&gt;14:n</title>
<path fill="none" stroke="black" d="M915.2,-121.71C915.2,-121.71 901.47,-94.79 893.97,-80.06"/>
<polygon fill="black" stroke="black" points="896.86,-78.03 889.2,-70.71 890.62,-81.21 896.86,-78.03"/>
<text text-anchor="middle" x="941.2" y="-92.51" font-family="Helvetica,sans-Serif" font-size="14.00">&lt;= 0.722</text>
</g>
<!-- 15 -->
<g id="node17" class="node">
<title>15</title>
<ellipse fill="#4485e5" stroke="black" cx="1259.2" cy="-35.36" rx="149.4" ry="35.21"/>
<text text-anchor="start" x="1161.7" y="-46.16" font-family="Helvetica,sans-Serif" font-weight="bold" font-size="14.00"> Class=tested_negative </text>
<text text-anchor="start" x="1351.7" y="-46.16" font-family="Helvetica,sans-Serif" font-size="14.00"> </text>
<text text-anchor="start" x="1189.7" y="-32.16" font-family="Helvetica,sans-Serif" font-size="14.00"> error: 0.995, n=35 </text>
<text text-anchor="start" x="1204.2" y="-18.16" font-family="Helvetica,sans-Serif" font-size="14.00"> p: (0.54, 0.46) </text>
</g>
<!-- 13&#45;&gt;15 -->
<g id="edge16" class="edge">
<title>13:s&#45;&gt;15:n</title>
<path fill="none" stroke="black" d="M915.2,-121.71C915.2,-121.71 1192.87,-80.54 1249.28,-72.18"/>
<polygon fill="black" stroke="black" points="1249.82,-75.64 1259.2,-70.71 1248.79,-68.72 1249.82,-75.64"/>
<text text-anchor="middle" x="1157.2" y="-92.51" font-family="Helvetica,sans-Serif" font-size="14.00">&gt; 0.722</text>
</g>
<!-- 18 -->
<g id="node20" class="node">
<title>18</title>
<ellipse fill="#4485e5" stroke="black" cx="1629.2" cy="-35.36" rx="149.4" ry="35.21"/>
<text text-anchor="start" x="1531.7" y="-46.16" font-family="Helvetica,sans-Serif" font-weight="bold" font-size="14.00"> Class=tested_negative </text>
<text text-anchor="start" x="1721.7" y="-46.16" font-family="Helvetica,sans-Serif" font-size="14.00"> </text>
<text text-anchor="start" x="1559.7" y="-32.16" font-family="Helvetica,sans-Serif" font-size="14.00"> error: 0.668, n=63 </text>
<text text-anchor="start" x="1574.2" y="-18.16" font-family="Helvetica,sans-Serif" font-size="14.00"> p: (0.83, 0.17) </text>
</g>
<!-- 17&#45;&gt;18 -->
<g id="edge19" class="edge">
<title>17:s&#45;&gt;18:n</title>
<path fill="none" stroke="black" d="M1629.2,-121.71C1629.2,-121.71 1629.2,-95.93 1629.2,-81.03"/>
<polygon fill="black" stroke="black" points="1632.7,-80.71 1629.2,-70.71 1625.7,-80.71 1632.7,-80.71"/>
<text text-anchor="middle" x="1642.2" y="-92.51" font-family="Helvetica,sans-Serif" font-size="14.00">&gt; 0</text>
</g>
<!-- 20 -->
<g id="node21" class="node">
<title>20</title>
<ellipse fill="#4485e5" stroke="black" cx="1999.2" cy="-35.36" rx="149.4" ry="35.21"/>
<text text-anchor="start" x="1901.7" y="-46.16" font-family="Helvetica,sans-Serif" font-weight="bold" font-size="14.00"> Class=tested_negative </text>
<text text-anchor="start" x="2091.7" y="-46.16" font-family="Helvetica,sans-Serif" font-size="14.00"> </text>
<text text-anchor="start" x="1929.7" y="-32.16" font-family="Helvetica,sans-Serif" font-size="14.00"> error: 1.000, n=54 </text>
<text text-anchor="start" x="1944.2" y="-18.16" font-family="Helvetica,sans-Serif" font-size="14.00"> p: (0.50, 0.50) </text>
</g>
<!-- 19&#45;&gt;20 -->
<g id="edge20" class="edge">
<title>19:s&#45;&gt;20:n</title>
<path fill="none" stroke="black" d="M1954.2,-121.71C1954.2,-121.71 1980.04,-92.42 1992.56,-78.24"/>
<polygon fill="black" stroke="black" points="1995.21,-80.52 1999.2,-70.71 1989.96,-75.89 1995.21,-80.52"/>
<text text-anchor="middle" x="2017.2" y="-92.51" font-family="Helvetica,sans-Serif" font-size="14.00">&lt;= 0.551</text>
</g>
</g>
</svg>
