<?xml version="1.0" encoding="UTF-8" standalone="no"?>
<!DOCTYPE svg PUBLIC "-//W3C//DTD SVG 1.1//EN"
 "http://www.w3.org/Graphics/SVG/1.1/DTD/svg11.dtd">
<!-- Generated by graphviz version 2.43.0 (0)
 -->
<!-- Title: Tree Pages: 1 -->
<svg width="1504pt" height="825pt"
 viewBox="0.00 0.00 1504.20 824.71" xmlns="http://www.w3.org/2000/svg" xmlns:xlink="http://www.w3.org/1999/xlink">
<g id="graph0" class="graph" transform="scale(1 1) rotate(0) translate(18 806.71)">
<title>Tree</title>
<polygon fill="white" stroke="transparent" points="-18,18 -18,-806.71 1486.2,-806.71 1486.2,18 -18,18"/>
<!-- 0 -->
<g id="node1" class="node">
<title>0</title>
<polygon fill="white" stroke="transparent" points="970.6,-788.71 916.6,-788.71 916.6,-752.71 970.6,-752.71 970.6,-788.71"/>
<text text-anchor="middle" x="943.6" y="-767.01" font-family="Helvetica,sans-Serif" font-size="14.00">0</text>
</g>
<!-- 1 -->
<g id="node2" class="node">
<title>1</title>
<polygon fill="#cc3d3d" stroke="black" points="1025.6,-715.71 861.6,-715.71 861.6,-637.71 1025.6,-637.71 1025.6,-715.71"/>
<text text-anchor="start" x="904.6" y="-701.51" font-family="Helvetica,sans-Serif" font-weight="bold" font-size="14.00"> Class=1 </text>
<text text-anchor="start" x="977.6" y="-701.51" font-family="Helvetica,sans-Serif" font-size="14.00"> </text>
<text text-anchor="start" x="869.6" y="-687.51" font-family="Helvetica,sans-Serif" font-size="14.00"> error: 0.864, n=583 </text>
<text text-anchor="start" x="888.6" y="-673.51" font-family="Helvetica,sans-Serif" font-size="14.00"> p: (0.71, 0.29) </text>
<text text-anchor="start" x="938.1" y="-659.51" font-family="Helvetica,sans-Serif" font-size="14.00">&#45;&#45;</text>
<text text-anchor="start" x="933.1" y="-645.51" font-family="Helvetica,sans-Serif" font-weight="bold" font-size="14.00">V3</text>
</g>
<!-- 0&#45;&gt;1 -->
<!-- 2 -->
<g id="node3" class="node">
<title>2</title>
<polygon fill="#e5b844" stroke="black" points="877.6,-586.71 713.6,-586.71 713.6,-508.71 877.6,-508.71 877.6,-586.71"/>
<text text-anchor="start" x="756.6" y="-572.51" font-family="Helvetica,sans-Serif" font-weight="bold" font-size="14.00"> Class=1 </text>
<text text-anchor="start" x="829.6" y="-572.51" font-family="Helvetica,sans-Serif" font-size="14.00"> </text>
<text text-anchor="start" x="721.6" y="-558.51" font-family="Helvetica,sans-Serif" font-size="14.00"> error: 0.386, n=172 </text>
<text text-anchor="start" x="740.6" y="-544.51" font-family="Helvetica,sans-Serif" font-size="14.00"> p: (0.92, 0.08) </text>
<text text-anchor="start" x="790.1" y="-530.51" font-family="Helvetica,sans-Serif" font-size="14.00">&#45;&#45;</text>
<text text-anchor="start" x="785.1" y="-516.51" font-family="Helvetica,sans-Serif" font-weight="bold" font-size="14.00">V3</text>
</g>
<!-- 1&#45;&gt;2 -->
<g id="edge2" class="edge">
<title>1:s&#45;&gt;2:n</title>
<path fill="none" stroke="black" d="M943.6,-637.71C943.6,-637.71 838.24,-601.4 805.31,-590.06"/>
<polygon fill="black" stroke="black" points="806.2,-586.66 795.6,-586.71 803.92,-593.28 806.2,-586.66"/>
<text text-anchor="middle" x="900.6" y="-608.51" font-family="Helvetica,sans-Serif" font-size="14.00">&gt; 2</text>
</g>
<!-- 12 -->
<g id="node4" class="node">
<title>12</title>
<polygon fill="#e5b844" stroke="black" points="1175.6,-586.71 1011.6,-586.71 1011.6,-508.71 1175.6,-508.71 1175.6,-586.71"/>
<text text-anchor="start" x="1054.6" y="-572.51" font-family="Helvetica,sans-Serif" font-weight="bold" font-size="14.00"> Class=1 </text>
<text text-anchor="start" x="1127.6" y="-572.51" font-family="Helvetica,sans-Serif" font-size="14.00"> </text>
<text text-anchor="start" x="1019.6" y="-558.51" font-family="Helvetica,sans-Serif" font-size="14.00"> error: 0.954, n=411 </text>
<text text-anchor="start" x="1038.6" y="-544.51" font-family="Helvetica,sans-Serif" font-size="14.00"> p: (0.63, 0.37) </text>
<text text-anchor="start" x="1088.1" y="-530.51" font-family="Helvetica,sans-Serif" font-size="14.00">&#45;&#45;</text>
<text text-anchor="start" x="1083.1" y="-516.51" font-family="Helvetica,sans-Serif" font-weight="bold" font-size="14.00">V6</text>
</g>
<!-- 1&#45;&gt;12 -->
<g id="edge3" class="edge">
<title>1:s&#45;&gt;12:n</title>
<path fill="none" stroke="black" d="M943.6,-637.71C943.6,-637.71 1050.39,-601.4 1083.76,-590.06"/>
<polygon fill="black" stroke="black" points="1085.26,-593.24 1093.6,-586.71 1083.01,-586.62 1085.26,-593.24"/>
<text text-anchor="middle" x="1055.6" y="-608.51" font-family="Helvetica,sans-Serif" font-size="14.00">&lt;= 2</text>
</g>
<!-- 3 -->
<g id="node5" class="node">
<title>3</title>
<polygon fill="#8dcc3d" stroke="black" points="613.6,-457.71 449.6,-457.71 449.6,-379.71 613.6,-379.71 613.6,-457.71"/>
<text text-anchor="start" x="492.6" y="-443.51" font-family="Helvetica,sans-Serif" font-weight="bold" font-size="14.00"> Class=1 </text>
<text text-anchor="start" x="565.6" y="-443.51" font-family="Helvetica,sans-Serif" font-size="14.00"> </text>
<text text-anchor="start" x="457.6" y="-429.51" font-family="Helvetica,sans-Serif" font-size="14.00"> error: 0.479, n=126 </text>
<text text-anchor="start" x="476.6" y="-415.51" font-family="Helvetica,sans-Serif" font-size="14.00"> p: (0.90, 0.10) </text>
<text text-anchor="start" x="526.1" y="-401.51" font-family="Helvetica,sans-Serif" font-size="14.00">&#45;&#45;</text>
<text text-anchor="start" x="521.1" y="-387.51" font-family="Helvetica,sans-Serif" font-weight="bold" font-size="14.00">V1</text>
</g>
<!-- 2&#45;&gt;3 -->
<g id="edge4" class="edge">
<title>2:s&#45;&gt;3:n</title>
<path fill="none" stroke="black" d="M795.6,-508.71C795.6,-508.71 589.85,-468.96 541.63,-459.65"/>
<polygon fill="black" stroke="black" points="542.08,-456.17 531.6,-457.71 540.76,-463.04 542.08,-456.17"/>
<text text-anchor="middle" x="726.1" y="-479.51" font-family="Helvetica,sans-Serif" font-size="14.00">&lt;= 10.9</text>
</g>
<!-- 11 -->
<g id="node6" class="node">
<title>11</title>
<ellipse fill="#8dcc3d" stroke="black" cx="795.6" cy="-418.71" rx="109.7" ry="35.21"/>
<text text-anchor="start" x="756.6" y="-429.51" font-family="Helvetica,sans-Serif" font-weight="bold" font-size="14.00"> Class=1 </text>
<text text-anchor="start" x="829.6" y="-429.51" font-family="Helvetica,sans-Serif" font-size="14.00"> </text>
<text text-anchor="start" x="726.1" y="-415.51" font-family="Helvetica,sans-Serif" font-size="14.00"> error: 0.000, n=46 </text>
<text text-anchor="start" x="740.6" y="-401.51" font-family="Helvetica,sans-Serif" font-size="14.00"> p: (1.00, 0.00) </text>
</g>
<!-- 2&#45;&gt;11 -->
<g id="edge5" class="edge">
<title>2:s&#45;&gt;11:n</title>
<path fill="none" stroke="black" d="M795.6,-508.71C795.6,-508.71 795.6,-481.33 795.6,-465.93"/>
<polygon fill="black" stroke="black" points="799.1,-465.71 795.6,-455.71 792.1,-465.71 799.1,-465.71"/>
<text text-anchor="middle" x="820.1" y="-479.51" font-family="Helvetica,sans-Serif" font-size="14.00">&gt; 10.9</text>
</g>
<!-- 13 -->
<g id="node14" class="node">
<title>13</title>
<ellipse fill="#8dcc3d" stroke="black" cx="1093.6" cy="-418.71" rx="115.93" ry="35.21"/>
<text text-anchor="start" x="1054.6" y="-429.51" font-family="Helvetica,sans-Serif" font-weight="bold" font-size="14.00"> Class=1 </text>
<text text-anchor="start" x="1127.6" y="-429.51" font-family="Helvetica,sans-Serif" font-size="14.00"> </text>
<text text-anchor="start" x="1019.6" y="-415.51" font-family="Helvetica,sans-Serif" font-size="14.00"> error: 0.978, n=361 </text>
<text text-anchor="start" x="1038.6" y="-401.51" font-family="Helvetica,sans-Serif" font-size="14.00"> p: (0.59, 0.41) </text>
</g>
<!-- 12&#45;&gt;13 -->
<g id="edge13" class="edge">
<title>12:s&#45;&gt;13:n</title>
<path fill="none" stroke="black" d="M1093.6,-508.71C1093.6,-508.71 1093.6,-481.33 1093.6,-465.93"/>
<polygon fill="black" stroke="black" points="1097.1,-465.71 1093.6,-455.71 1090.1,-465.71 1097.1,-465.71"/>
<text text-anchor="middle" x="1117.1" y="-479.51" font-family="Helvetica,sans-Serif" font-size="14.00">&lt;= 72</text>
</g>
<!-- 14 -->
<g id="node15" class="node">
<title>14</title>
<polygon fill="#8dcc3d" stroke="black" points="1436.1,-457.71 1281.1,-457.71 1281.1,-379.71 1436.1,-379.71 1436.1,-457.71"/>
<text text-anchor="start" x="1319.6" y="-443.51" font-family="Helvetica,sans-Serif" font-weight="bold" font-size="14.00"> Class=1 </text>
<text text-anchor="start" x="1392.6" y="-443.51" font-family="Helvetica,sans-Serif" font-size="14.00"> </text>
<text text-anchor="start" x="1289.1" y="-429.51" font-family="Helvetica,sans-Serif" font-size="14.00"> error: 0.469, n=50 </text>
<text text-anchor="start" x="1303.6" y="-415.51" font-family="Helvetica,sans-Serif" font-size="14.00"> p: (0.90, 0.10) </text>
<text text-anchor="start" x="1353.1" y="-401.51" font-family="Helvetica,sans-Serif" font-size="14.00">&#45;&#45;</text>
<text text-anchor="start" x="1348.1" y="-387.51" font-family="Helvetica,sans-Serif" font-weight="bold" font-size="14.00">V5</text>
</g>
<!-- 12&#45;&gt;14 -->
<g id="edge14" class="edge">
<title>12:s&#45;&gt;14:n</title>
<path fill="none" stroke="black" d="M1093.6,-508.71C1093.6,-508.71 1300.13,-468.96 1348.54,-459.65"/>
<polygon fill="black" stroke="black" points="1349.44,-463.04 1358.6,-457.71 1348.12,-456.16 1349.44,-463.04"/>
<text text-anchor="middle" x="1276.1" y="-479.51" font-family="Helvetica,sans-Serif" font-size="14.00">&gt; 72</text>
</g>
<!-- 4 -->
<g id="node7" class="node">
<title>4</title>
<polygon fill="#44e55e" stroke="black" points="446.1,-328.71 291.1,-328.71 291.1,-250.71 446.1,-250.71 446.1,-328.71"/>
<text text-anchor="start" x="329.6" y="-314.51" font-family="Helvetica,sans-Serif" font-weight="bold" font-size="14.00"> Class=1 </text>
<text text-anchor="start" x="402.6" y="-314.51" font-family="Helvetica,sans-Serif" font-size="14.00"> </text>
<text text-anchor="start" x="299.1" y="-300.51" font-family="Helvetica,sans-Serif" font-size="14.00"> error: 0.645, n=73 </text>
<text text-anchor="start" x="313.6" y="-286.51" font-family="Helvetica,sans-Serif" font-size="14.00"> p: (0.84, 0.16) </text>
<text text-anchor="start" x="363.1" y="-272.51" font-family="Helvetica,sans-Serif" font-size="14.00">&#45;&#45;</text>
<text text-anchor="start" x="358.1" y="-258.51" font-family="Helvetica,sans-Serif" font-weight="bold" font-size="14.00">V7</text>
</g>
<!-- 3&#45;&gt;4 -->
<g id="edge6" class="edge">
<title>3:s&#45;&gt;4:n</title>
<path fill="none" stroke="black" d="M531.6,-379.71C531.6,-379.71 413.4,-342.73 378.31,-331.75"/>
<polygon fill="black" stroke="black" points="379.19,-328.36 368.6,-328.71 377.1,-335.04 379.19,-328.36"/>
<text text-anchor="middle" x="493.1" y="-350.51" font-family="Helvetica,sans-Serif" font-size="14.00">&lt;= 50</text>
</g>
<!-- 9 -->
<g id="node8" class="node">
<title>9</title>
<polygon fill="#44e55e" stroke="black" points="689.1,-328.71 534.1,-328.71 534.1,-250.71 689.1,-250.71 689.1,-328.71"/>
<text text-anchor="start" x="572.6" y="-314.51" font-family="Helvetica,sans-Serif" font-weight="bold" font-size="14.00"> Class=1 </text>
<text text-anchor="start" x="645.6" y="-314.51" font-family="Helvetica,sans-Serif" font-size="14.00"> </text>
<text text-anchor="start" x="542.1" y="-300.51" font-family="Helvetica,sans-Serif" font-size="14.00"> error: 0.135, n=53 </text>
<text text-anchor="start" x="556.6" y="-286.51" font-family="Helvetica,sans-Serif" font-size="14.00"> p: (0.98, 0.02) </text>
<text text-anchor="start" x="606.1" y="-272.51" font-family="Helvetica,sans-Serif" font-size="14.00">&#45;&#45;</text>
<text text-anchor="start" x="601.1" y="-258.51" font-family="Helvetica,sans-Serif" font-weight="bold" font-size="14.00">V3</text>
</g>
<!-- 3&#45;&gt;9 -->
<g id="edge7" class="edge">
<title>3:s&#45;&gt;9:n</title>
<path fill="none" stroke="black" d="M531.6,-379.71C531.6,-379.71 582.4,-347.33 603.04,-334.17"/>
<polygon fill="black" stroke="black" points="605.05,-337.04 611.6,-328.71 601.29,-331.13 605.05,-337.04"/>
<text text-anchor="middle" x="599.1" y="-350.51" font-family="Helvetica,sans-Serif" font-size="14.00">&gt; 50</text>
</g>
<!-- 5 -->
<g id="node9" class="node">
<title>5</title>
<ellipse fill="#3dccba" stroke="black" cx="109.6" cy="-160.71" rx="109.7" ry="35.21"/>
<text text-anchor="start" x="70.6" y="-171.51" font-family="Helvetica,sans-Serif" font-weight="bold" font-size="14.00"> Class=1 </text>
<text text-anchor="start" x="143.6" y="-171.51" font-family="Helvetica,sans-Serif" font-size="14.00"> </text>
<text text-anchor="start" x="40.1" y="-157.51" font-family="Helvetica,sans-Serif" font-size="14.00"> error: 0.877, n=27 </text>
<text text-anchor="start" x="54.6" y="-143.51" font-family="Helvetica,sans-Serif" font-size="14.00"> p: (0.70, 0.30) </text>
</g>
<!-- 4&#45;&gt;5 -->
<g id="edge8" class="edge">
<title>4:s&#45;&gt;5:n</title>
<path fill="none" stroke="black" d="M368.6,-250.71C368.6,-250.71 166.75,-209.4 119.44,-199.72"/>
<polygon fill="black" stroke="black" points="120.1,-196.29 109.6,-197.71 118.7,-203.14 120.1,-196.29"/>
<text text-anchor="middle" x="301.1" y="-221.51" font-family="Helvetica,sans-Serif" font-size="14.00">&lt;= 64</text>
</g>
<!-- 6 -->
<g id="node10" class="node">
<title>6</title>
<polygon fill="#3dccba" stroke="black" points="446.1,-199.71 291.1,-199.71 291.1,-121.71 446.1,-121.71 446.1,-199.71"/>
<text text-anchor="start" x="329.6" y="-185.51" font-family="Helvetica,sans-Serif" font-weight="bold" font-size="14.00"> Class=1 </text>
<text text-anchor="start" x="402.6" y="-185.51" font-family="Helvetica,sans-Serif" font-size="14.00"> </text>
<text text-anchor="start" x="299.1" y="-171.51" font-family="Helvetica,sans-Serif" font-size="14.00"> error: 0.426, n=46 </text>
<text text-anchor="start" x="313.6" y="-157.51" font-family="Helvetica,sans-Serif" font-size="14.00"> p: (0.91, 0.09) </text>
<text text-anchor="start" x="363.1" y="-143.51" font-family="Helvetica,sans-Serif" font-size="14.00">&#45;&#45;</text>
<text text-anchor="start" x="358.1" y="-129.51" font-family="Helvetica,sans-Serif" font-weight="bold" font-size="14.00">V8</text>
</g>
<!-- 4&#45;&gt;6 -->
<g id="edge9" class="edge">
<title>4:s&#45;&gt;6:n</title>
<path fill="none" stroke="black" d="M368.6,-250.71C368.6,-250.71 368.6,-224.93 368.6,-210.03"/>
<polygon fill="black" stroke="black" points="372.1,-209.71 368.6,-199.71 365.1,-209.71 372.1,-209.71"/>
<text text-anchor="middle" x="386.1" y="-221.51" font-family="Helvetica,sans-Serif" font-size="14.00">&gt; 64</text>
</g>
<!-- 10 -->
<g id="node13" class="node">
<title>10</title>
<ellipse fill="#3dccba" stroke="black" cx="627.6" cy="-160.71" rx="109.7" ry="35.21"/>
<text text-anchor="start" x="588.6" y="-171.51" font-family="Helvetica,sans-Serif" font-weight="bold" font-size="14.00"> Class=1 </text>
<text text-anchor="start" x="661.6" y="-171.51" font-family="Helvetica,sans-Serif" font-size="14.00"> </text>
<text text-anchor="start" x="558.1" y="-157.51" font-family="Helvetica,sans-Serif" font-size="14.00"> error: 0.000, n=45 </text>
<text text-anchor="start" x="572.6" y="-143.51" font-family="Helvetica,sans-Serif" font-size="14.00"> p: (1.00, 0.00) </text>
</g>
<!-- 9&#45;&gt;10 -->
<g id="edge12" class="edge">
<title>9:s&#45;&gt;10:n</title>
<path fill="none" stroke="black" d="M611.6,-250.71C611.6,-250.71 620.05,-222.73 624.67,-207.43"/>
<polygon fill="black" stroke="black" points="628.06,-208.3 627.6,-197.71 621.36,-206.27 628.06,-208.3"/>
<text text-anchor="middle" x="641.6" y="-221.51" font-family="Helvetica,sans-Serif" font-size="14.00">&gt; 2.4</text>
</g>
<!-- 7 -->
<g id="node11" class="node">
<title>7</title>
<ellipse fill="#4485e5" stroke="black" cx="222.6" cy="-35.36" rx="109.7" ry="35.21"/>
<text text-anchor="start" x="183.6" y="-46.16" font-family="Helvetica,sans-Serif" font-weight="bold" font-size="14.00"> Class=1 </text>
<text text-anchor="start" x="256.6" y="-46.16" font-family="Helvetica,sans-Serif" font-size="14.00"> </text>
<text text-anchor="start" x="153.1" y="-32.16" font-family="Helvetica,sans-Serif" font-size="14.00"> error: 0.684, n=22 </text>
<text text-anchor="start" x="167.6" y="-18.16" font-family="Helvetica,sans-Serif" font-size="14.00"> p: (0.82, 0.18) </text>
</g>
<!-- 6&#45;&gt;7 -->
<g id="edge10" class="edge">
<title>6:s&#45;&gt;7:n</title>
<path fill="none" stroke="black" d="M368.6,-121.71C368.6,-121.71 264.66,-85.4 232.18,-74.06"/>
<polygon fill="black" stroke="black" points="233.2,-70.7 222.6,-70.71 230.89,-77.31 233.2,-70.7"/>
<text text-anchor="middle" x="339.6" y="-92.51" font-family="Helvetica,sans-Serif" font-size="14.00">&lt;= 6.3</text>
</g>
<!-- 8 -->
<g id="node12" class="node">
<title>8</title>
<ellipse fill="#4485e5" stroke="black" cx="513.6" cy="-35.36" rx="109.7" ry="35.21"/>
<text text-anchor="start" x="474.6" y="-46.16" font-family="Helvetica,sans-Serif" font-weight="bold" font-size="14.00"> Class=1 </text>
<text text-anchor="start" x="547.6" y="-46.16" font-family="Helvetica,sans-Serif" font-size="14.00"> </text>
<text text-anchor="start" x="444.1" y="-32.16" font-family="Helvetica,sans-Serif" font-size="14.00"> error: 0.000, n=24 </text>
<text text-anchor="start" x="458.6" y="-18.16" font-family="Helvetica,sans-Serif" font-size="14.00"> p: (1.00, 0.00) </text>
</g>
<!-- 6&#45;&gt;8 -->
<g id="edge11" class="edge">
<title>6:s&#45;&gt;8:n</title>
<path fill="none" stroke="black" d="M368.6,-121.71C368.6,-121.71 471.83,-85.4 504.09,-74.06"/>
<polygon fill="black" stroke="black" points="505.33,-77.33 513.6,-70.71 503.01,-70.73 505.33,-77.33"/>
<text text-anchor="middle" x="478.6" y="-92.51" font-family="Helvetica,sans-Serif" font-size="14.00">&gt; 6.3</text>
</g>
<!-- 15 -->
<g id="node16" class="node">
<title>15</title>
<polygon fill="#44e55e" stroke="black" points="1436.1,-328.71 1281.1,-328.71 1281.1,-250.71 1436.1,-250.71 1436.1,-328.71"/>
<text text-anchor="start" x="1319.6" y="-314.51" font-family="Helvetica,sans-Serif" font-weight="bold" font-size="14.00"> Class=1 </text>
<text text-anchor="start" x="1392.6" y="-314.51" font-family="Helvetica,sans-Serif" font-size="14.00"> </text>
<text text-anchor="start" x="1289.1" y="-300.51" font-family="Helvetica,sans-Serif" font-size="14.00"> error: 0.592, n=35 </text>
<text text-anchor="start" x="1303.6" y="-286.51" font-family="Helvetica,sans-Serif" font-size="14.00"> p: (0.86, 0.14) </text>
<text text-anchor="start" x="1353.1" y="-272.51" font-family="Helvetica,sans-Serif" font-size="14.00">&#45;&#45;</text>
<text text-anchor="start" x="1348.1" y="-258.51" font-family="Helvetica,sans-Serif" font-weight="bold" font-size="14.00">V7</text>
</g>
<!-- 14&#45;&gt;15 -->
<g id="edge15" class="edge">
<title>14:s&#45;&gt;15:n</title>
<path fill="none" stroke="black" d="M1358.6,-379.71C1358.6,-379.71 1358.6,-353.93 1358.6,-339.03"/>
<polygon fill="black" stroke="black" points="1362.1,-338.71 1358.6,-328.71 1355.1,-338.71 1362.1,-338.71"/>
<text text-anchor="middle" x="1386.6" y="-350.51" font-family="Helvetica,sans-Serif" font-size="14.00">&lt;= 460</text>
</g>
<!-- 16 -->
<g id="node17" class="node">
<title>16</title>
<polygon fill="#3dccba" stroke="black" points="1436.1,-199.71 1281.1,-199.71 1281.1,-121.71 1436.1,-121.71 1436.1,-199.71"/>
<text text-anchor="start" x="1319.6" y="-185.51" font-family="Helvetica,sans-Serif" font-weight="bold" font-size="14.00"> Class=1 </text>
<text text-anchor="start" x="1392.6" y="-185.51" font-family="Helvetica,sans-Serif" font-size="14.00"> </text>
<text text-anchor="start" x="1289.1" y="-171.51" font-family="Helvetica,sans-Serif" font-size="14.00"> error: 0.459, n=31 </text>
<text text-anchor="start" x="1303.6" y="-157.51" font-family="Helvetica,sans-Serif" font-size="14.00"> p: (0.90, 0.10) </text>
<text text-anchor="start" x="1353.1" y="-143.51" font-family="Helvetica,sans-Serif" font-size="14.00">&#45;&#45;</text>
<text text-anchor="start" x="1348.1" y="-129.51" font-family="Helvetica,sans-Serif" font-weight="bold" font-size="14.00">V5</text>
</g>
<!-- 15&#45;&gt;16 -->
<g id="edge16" class="edge">
<title>15:s&#45;&gt;16:n</title>
<path fill="none" stroke="black" d="M1358.6,-250.71C1358.6,-250.71 1358.6,-224.93 1358.6,-210.03"/>
<polygon fill="black" stroke="black" points="1362.1,-209.71 1358.6,-199.71 1355.1,-209.71 1362.1,-209.71"/>
<text text-anchor="middle" x="1376.1" y="-221.51" font-family="Helvetica,sans-Serif" font-size="14.00">&gt; 53</text>
</g>
<!-- 17 -->
<g id="node18" class="node">
<title>17</title>
<ellipse fill="#4485e5" stroke="black" cx="1358.6" cy="-35.36" rx="109.7" ry="35.21"/>
<text text-anchor="start" x="1319.6" y="-46.16" font-family="Helvetica,sans-Serif" font-weight="bold" font-size="14.00"> Class=1 </text>
<text text-anchor="start" x="1392.6" y="-46.16" font-family="Helvetica,sans-Serif" font-size="14.00"> </text>
<text text-anchor="start" x="1289.1" y="-32.16" font-family="Helvetica,sans-Serif" font-size="14.00"> error: 0.222, n=28 </text>
<text text-anchor="start" x="1303.6" y="-18.16" font-family="Helvetica,sans-Serif" font-size="14.00"> p: (0.96, 0.04) </text>
</g>
<!-- 16&#45;&gt;17 -->
<g id="edge17" class="edge">
<title>16:s&#45;&gt;17:n</title>
<path fill="none" stroke="black" d="M1358.6,-121.71C1358.6,-121.71 1358.6,-95.93 1358.6,-81.03"/>
<polygon fill="black" stroke="black" points="1362.1,-80.71 1358.6,-70.71 1355.1,-80.71 1362.1,-80.71"/>
<text text-anchor="middle" x="1386.6" y="-92.51" font-family="Helvetica,sans-Serif" font-size="14.00">&lt;= 342</text>
</g>
</g>
</svg>
