<?xml version="1.0" encoding="UTF-8" standalone="no"?>
<!DOCTYPE svg PUBLIC "-//W3C//DTD SVG 1.1//EN"
 "http://www.w3.org/Graphics/SVG/1.1/DTD/svg11.dtd">
<!-- Generated by graphviz version 2.43.0 (0)
 -->
<!-- Title: Tree Pages: 1 -->
<svg width="861pt" height="696pt"
 viewBox="0.00 0.00 861.33 695.71" xmlns="http://www.w3.org/2000/svg" xmlns:xlink="http://www.w3.org/1999/xlink">
<g id="graph0" class="graph" transform="scale(1 1) rotate(0) translate(18 677.71)">
<title>Tree</title>
<polygon fill="white" stroke="transparent" points="-18,18 -18,-677.71 843.33,-677.71 843.33,18 -18,18"/>
<!-- 0 -->
<g id="node1" class="node">
<title>0</title>
<polygon fill="white" stroke="transparent" points="555.33,-659.71 501.33,-659.71 501.33,-623.71 555.33,-623.71 555.33,-659.71"/>
<text text-anchor="middle" x="528.33" y="-638.01" font-family="Helvetica,sans-Serif" font-size="14.00">0</text>
</g>
<!-- 1 -->
<g id="node2" class="node">
<title>1</title>
<polygon fill="#cc3d3d" stroke="black" points="614.83,-586.71 441.83,-586.71 441.83,-508.71 614.83,-508.71 614.83,-586.71"/>
<text text-anchor="start" x="474.83" y="-572.51" font-family="Helvetica,sans-Serif" font-weight="bold" font-size="14.00"> Class=noad </text>
<text text-anchor="start" x="576.83" y="-572.51" font-family="Helvetica,sans-Serif" font-size="14.00"> </text>
<text text-anchor="start" x="449.83" y="-558.51" font-family="Helvetica,sans-Serif" font-size="14.00"> error: 0.584, n=3279 </text>
<text text-anchor="start" x="473.33" y="-544.51" font-family="Helvetica,sans-Serif" font-size="14.00"> p: (0.14, 0.86) </text>
<text text-anchor="start" x="501.83" y="-530.51" font-family="Helvetica,sans-Serif" font-size="14.00">&#45;&#45;&#45;&#45;&#45;&#45;&#45;&#45;&#45;&#45;</text>
<text text-anchor="start" x="484.83" y="-516.51" font-family="Helvetica,sans-Serif" font-weight="bold" font-size="14.00">ancurl.com</text>
</g>
<!-- 0&#45;&gt;1 -->
<!-- 2 -->
<g id="node3" class="node">
<title>2</title>
<polygon fill="#e5d544" stroke="black" points="484.83,-457.71 311.83,-457.71 311.83,-379.71 484.83,-379.71 484.83,-457.71"/>
<text text-anchor="start" x="344.83" y="-443.51" font-family="Helvetica,sans-Serif" font-weight="bold" font-size="14.00"> Class=noad </text>
<text text-anchor="start" x="446.83" y="-443.51" font-family="Helvetica,sans-Serif" font-size="14.00"> </text>
<text text-anchor="start" x="319.83" y="-429.51" font-family="Helvetica,sans-Serif" font-size="14.00"> error: 0.429, n=3072 </text>
<text text-anchor="start" x="343.33" y="-415.51" font-family="Helvetica,sans-Serif" font-size="14.00"> p: (0.09, 0.91) </text>
<text text-anchor="start" x="379.83" y="-401.51" font-family="Helvetica,sans-Serif" font-size="14.00">&#45;&#45;&#45;&#45;&#45;&#45;&#45;</text>
<text text-anchor="start" x="370.83" y="-387.51" font-family="Helvetica,sans-Serif" font-weight="bold" font-size="14.00">url.ads</text>
</g>
<!-- 1&#45;&gt;2 -->
<g id="edge2" class="edge">
<title>1:s&#45;&gt;2:n</title>
<path fill="none" stroke="black" d="M528.33,-508.71C528.33,-508.71 437.49,-473.07 407.68,-461.38"/>
<polygon fill="black" stroke="black" points="408.92,-458.1 398.33,-457.71 406.36,-464.62 408.92,-458.1"/>
<text text-anchor="middle" x="484.33" y="-479.51" font-family="Helvetica,sans-Serif" font-size="14.00">0</text>
</g>
<!-- 7 -->
<g id="node4" class="node">
<title>7</title>
<polygon fill="#e5d544" stroke="black" points="763.83,-457.71 556.83,-457.71 556.83,-379.71 763.83,-379.71 763.83,-457.71"/>
<text text-anchor="start" x="616.83" y="-443.51" font-family="Helvetica,sans-Serif" font-weight="bold" font-size="14.00"> Class=ad </text>
<text text-anchor="start" x="698.83" y="-443.51" font-family="Helvetica,sans-Serif" font-size="14.00"> </text>
<text text-anchor="start" x="586.33" y="-429.51" font-family="Helvetica,sans-Serif" font-size="14.00"> error: 0.426, n=207 </text>
<text text-anchor="start" x="605.33" y="-415.51" font-family="Helvetica,sans-Serif" font-size="14.00"> p: (0.91, 0.09) </text>
<text text-anchor="start" x="602.33" y="-401.51" font-family="Helvetica,sans-Serif" font-size="14.00">&#45;&#45;&#45;&#45;&#45;&#45;&#45;&#45;&#45;&#45;&#45;&#45;&#45;&#45;&#45;&#45;&#45;&#45;&#45;&#45;&#45;&#45;</text>
<text text-anchor="start" x="564.83" y="-387.51" font-family="Helvetica,sans-Serif" font-weight="bold" font-size="14.00">ancurl.readersndex.com</text>
</g>
<!-- 1&#45;&gt;7 -->
<g id="edge3" class="edge">
<title>1:s&#45;&gt;7:n</title>
<path fill="none" stroke="black" d="M528.33,-508.71C528.33,-508.71 620.57,-473.07 650.84,-461.38"/>
<polygon fill="black" stroke="black" points="652.26,-464.58 660.33,-457.71 649.74,-458.05 652.26,-464.58"/>
<text text-anchor="middle" x="615.33" y="-479.51" font-family="Helvetica,sans-Serif" font-size="14.00">1</text>
</g>
<!-- 3 -->
<g id="node5" class="node">
<title>3</title>
<polygon fill="#59cc3d" stroke="black" points="484.83,-328.71 311.83,-328.71 311.83,-250.71 484.83,-250.71 484.83,-328.71"/>
<text text-anchor="start" x="344.83" y="-314.51" font-family="Helvetica,sans-Serif" font-weight="bold" font-size="14.00"> Class=noad </text>
<text text-anchor="start" x="446.83" y="-314.51" font-family="Helvetica,sans-Serif" font-size="14.00"> </text>
<text text-anchor="start" x="319.83" y="-300.51" font-family="Helvetica,sans-Serif" font-size="14.00"> error: 0.349, n=2995 </text>
<text text-anchor="start" x="343.33" y="-286.51" font-family="Helvetica,sans-Serif" font-size="14.00"> p: (0.07, 0.93) </text>
<text text-anchor="start" x="384.83" y="-272.51" font-family="Helvetica,sans-Serif" font-size="14.00">&#45;&#45;&#45;&#45;&#45;</text>
<text text-anchor="start" x="376.33" y="-258.51" font-family="Helvetica,sans-Serif" font-weight="bold" font-size="14.00">width</text>
</g>
<!-- 2&#45;&gt;3 -->
<g id="edge4" class="edge">
<title>2:s&#45;&gt;3:n</title>
<path fill="none" stroke="black" d="M398.33,-379.71C398.33,-379.71 398.33,-353.93 398.33,-339.03"/>
<polygon fill="black" stroke="black" points="401.83,-338.71 398.33,-328.71 394.83,-338.71 401.83,-338.71"/>
<text text-anchor="middle" x="403.33" y="-350.51" font-family="Helvetica,sans-Serif" font-size="14.00">0</text>
</g>
<!-- 8 -->
<g id="node9" class="node">
<title>8</title>
<polygon fill="#59cc3d" stroke="black" points="784.33,-328.71 578.33,-328.71 578.33,-250.71 784.33,-250.71 784.33,-328.71"/>
<text text-anchor="start" x="637.83" y="-314.51" font-family="Helvetica,sans-Serif" font-weight="bold" font-size="14.00"> Class=ad </text>
<text text-anchor="start" x="719.83" y="-314.51" font-family="Helvetica,sans-Serif" font-size="14.00"> </text>
<text text-anchor="start" x="607.33" y="-300.51" font-family="Helvetica,sans-Serif" font-size="14.00"> error: 0.267, n=198 </text>
<text text-anchor="start" x="626.33" y="-286.51" font-family="Helvetica,sans-Serif" font-size="14.00"> p: (0.95, 0.05) </text>
<text text-anchor="start" x="623.33" y="-272.51" font-family="Helvetica,sans-Serif" font-size="14.00">&#45;&#45;&#45;&#45;&#45;&#45;&#45;&#45;&#45;&#45;&#45;&#45;&#45;&#45;&#45;&#45;&#45;&#45;&#45;&#45;&#45;&#45;</text>
<text text-anchor="start" x="586.33" y="-258.51" font-family="Helvetica,sans-Serif" font-weight="bold" font-size="14.00">url.members.tripod.com</text>
</g>
<!-- 7&#45;&gt;8 -->
<g id="edge8" class="edge">
<title>7:s&#45;&gt;8:n</title>
<path fill="none" stroke="black" d="M660.33,-379.71C660.33,-379.71 671.42,-352.79 677.48,-338.06"/>
<polygon fill="black" stroke="black" points="680.76,-339.29 681.33,-328.71 674.29,-336.62 680.76,-339.29"/>
<text text-anchor="middle" x="678.33" y="-350.51" font-family="Helvetica,sans-Serif" font-size="14.00">0</text>
</g>
<!-- 4 -->
<g id="node6" class="node">
<title>4</title>
<ellipse fill="#44e5b5" stroke="black" cx="122.33" cy="-160.71" rx="122.16" ry="35.21"/>
<text text-anchor="start" x="68.83" y="-171.51" font-family="Helvetica,sans-Serif" font-weight="bold" font-size="14.00"> Class=noad </text>
<text text-anchor="start" x="170.83" y="-171.51" font-family="Helvetica,sans-Serif" font-size="14.00"> </text>
<text text-anchor="start" x="43.83" y="-157.51" font-family="Helvetica,sans-Serif" font-size="14.00"> error: 0.231, n=2846 </text>
<text text-anchor="start" x="67.33" y="-143.51" font-family="Helvetica,sans-Serif" font-size="14.00"> p: (0.04, 0.96) </text>
</g>
<!-- 3&#45;&gt;4 -->
<g id="edge5" class="edge">
<title>3:s&#45;&gt;4:n</title>
<path fill="none" stroke="black" d="M398.33,-250.71C398.33,-250.71 181.32,-209.04 132.15,-199.6"/>
<polygon fill="black" stroke="black" points="132.81,-196.16 122.33,-197.71 131.49,-203.03 132.81,-196.16"/>
<text text-anchor="middle" x="329.33" y="-221.51" font-family="Helvetica,sans-Serif" font-size="14.00">&lt;= 350</text>
</g>
<!-- 5 -->
<g id="node7" class="node">
<title>5</title>
<polygon fill="#44e5b5" stroke="black" points="480.33,-199.71 316.33,-199.71 316.33,-121.71 480.33,-121.71 480.33,-199.71"/>
<text text-anchor="start" x="354.83" y="-185.51" font-family="Helvetica,sans-Serif" font-weight="bold" font-size="14.00"> Class=ad </text>
<text text-anchor="start" x="436.83" y="-185.51" font-family="Helvetica,sans-Serif" font-size="14.00"> </text>
<text text-anchor="start" x="324.33" y="-171.51" font-family="Helvetica,sans-Serif" font-size="14.00"> error: 0.972, n=149 </text>
<text text-anchor="start" x="343.33" y="-157.51" font-family="Helvetica,sans-Serif" font-size="14.00"> p: (0.60, 0.40) </text>
<text text-anchor="start" x="382.33" y="-143.51" font-family="Helvetica,sans-Serif" font-size="14.00">&#45;&#45;&#45;&#45;&#45;&#45;</text>
<text text-anchor="start" x="372.83" y="-129.51" font-family="Helvetica,sans-Serif" font-weight="bold" font-size="14.00">height</text>
</g>
<!-- 3&#45;&gt;5 -->
<g id="edge6" class="edge">
<title>3:s&#45;&gt;5:n</title>
<path fill="none" stroke="black" d="M398.33,-250.71C398.33,-250.71 398.33,-224.93 398.33,-210.03"/>
<polygon fill="black" stroke="black" points="401.83,-209.71 398.33,-199.71 394.83,-209.71 401.83,-209.71"/>
<text text-anchor="middle" x="420.33" y="-221.51" font-family="Helvetica,sans-Serif" font-size="14.00">&gt; 350</text>
</g>
<!-- 6 -->
<g id="node8" class="node">
<title>6</title>
<ellipse fill="#3d76cc" stroke="black" cx="395.33" cy="-35.36" rx="115.93" ry="35.21"/>
<text text-anchor="start" x="351.83" y="-46.16" font-family="Helvetica,sans-Serif" font-weight="bold" font-size="14.00"> Class=ad </text>
<text text-anchor="start" x="433.83" y="-46.16" font-family="Helvetica,sans-Serif" font-size="14.00"> </text>
<text text-anchor="start" x="321.33" y="-32.16" font-family="Helvetica,sans-Serif" font-size="14.00"> error: 0.887, n=128 </text>
<text text-anchor="start" x="340.33" y="-18.16" font-family="Helvetica,sans-Serif" font-size="14.00"> p: (0.70, 0.30) </text>
</g>
<!-- 5&#45;&gt;6 -->
<g id="edge7" class="edge">
<title>5:s&#45;&gt;6:n</title>
<path fill="none" stroke="black" d="M398.33,-121.71C398.33,-121.71 396.81,-95.93 395.94,-81.03"/>
<polygon fill="black" stroke="black" points="399.41,-80.49 395.33,-70.71 392.42,-80.9 399.41,-80.49"/>
<text text-anchor="middle" x="414.83" y="-92.51" font-family="Helvetica,sans-Serif" font-size="14.00">&gt; 11</text>
</g>
<!-- 9 -->
<g id="node10" class="node">
<title>9</title>
<polygon fill="#44e5b5" stroke="black" points="825.33,-199.71 557.33,-199.71 557.33,-121.71 825.33,-121.71 825.33,-199.71"/>
<text text-anchor="start" x="647.83" y="-185.51" font-family="Helvetica,sans-Serif" font-weight="bold" font-size="14.00"> Class=ad </text>
<text text-anchor="start" x="729.83" y="-185.51" font-family="Helvetica,sans-Serif" font-size="14.00"> </text>
<text text-anchor="start" x="617.33" y="-171.51" font-family="Helvetica,sans-Serif" font-size="14.00"> error: 0.198, n=195 </text>
<text text-anchor="start" x="636.33" y="-157.51" font-family="Helvetica,sans-Serif" font-size="14.00"> p: (0.97, 0.03) </text>
<text text-anchor="start" x="614.83" y="-143.51" font-family="Helvetica,sans-Serif" font-size="14.00">&#45;&#45;&#45;&#45;&#45;&#45;&#45;&#45;&#45;&#45;&#45;&#45;&#45;&#45;&#45;&#45;&#45;&#45;&#45;&#45;&#45;&#45;&#45;&#45;&#45;&#45;&#45;&#45;&#45;</text>
<text text-anchor="start" x="565.33" y="-129.51" font-family="Helvetica,sans-Serif" font-weight="bold" font-size="14.00">origurl.www.news.observer.com</text>
</g>
<!-- 8&#45;&gt;9 -->
<g id="edge9" class="edge">
<title>8:s&#45;&gt;9:n</title>
<path fill="none" stroke="black" d="M681.33,-250.71C681.33,-250.71 686.5,-224.36 689.4,-209.54"/>
<polygon fill="black" stroke="black" points="692.84,-210.2 691.33,-199.71 685.97,-208.85 692.84,-210.2"/>
<text text-anchor="middle" x="693.33" y="-221.51" font-family="Helvetica,sans-Serif" font-size="14.00">0</text>
</g>
<!-- 10 -->
<g id="node11" class="node">
<title>10</title>
<ellipse fill="#3d76cc" stroke="black" cx="699.33" cy="-35.36" rx="115.93" ry="35.21"/>
<text text-anchor="start" x="655.83" y="-46.16" font-family="Helvetica,sans-Serif" font-weight="bold" font-size="14.00"> Class=ad </text>
<text text-anchor="start" x="737.83" y="-46.16" font-family="Helvetica,sans-Serif" font-size="14.00"> </text>
<text text-anchor="start" x="625.33" y="-32.16" font-family="Helvetica,sans-Serif" font-size="14.00"> error: 0.146, n=192 </text>
<text text-anchor="start" x="644.33" y="-18.16" font-family="Helvetica,sans-Serif" font-size="14.00"> p: (0.98, 0.02) </text>
</g>
<!-- 9&#45;&gt;10 -->
<g id="edge10" class="edge">
<title>9:s&#45;&gt;10:n</title>
<path fill="none" stroke="black" d="M691.33,-121.71C691.33,-121.71 695.37,-95.93 697.71,-81.03"/>
<polygon fill="black" stroke="black" points="701.24,-81.13 699.33,-70.71 694.32,-80.05 701.24,-81.13"/>
<text text-anchor="middle" x="701.33" y="-92.51" font-family="Helvetica,sans-Serif" font-size="14.00">0</text>
</g>
</g>
</svg>
