<?xml version="1.0" encoding="UTF-8" standalone="no"?>
<!DOCTYPE svg PUBLIC "-//W3C//DTD SVG 1.1//EN"
 "http://www.w3.org/Graphics/SVG/1.1/DTD/svg11.dtd">
<!-- Generated by graphviz version 2.43.0 (0)
 -->
<!-- Title: Tree Pages: 1 -->
<svg width="3134pt" height="696pt"
 viewBox="0.00 0.00 3133.66 695.71" xmlns="http://www.w3.org/2000/svg" xmlns:xlink="http://www.w3.org/1999/xlink">
<g id="graph0" class="graph" transform="scale(1 1) rotate(0) translate(18 677.71)">
<title>Tree</title>
<polygon fill="white" stroke="transparent" points="-18,18 -18,-677.71 3115.66,-677.71 3115.66,18 -18,18"/>
<!-- 0 -->
<g id="node1" class="node">
<title>0</title>
<polygon fill="white" stroke="transparent" points="1613.33,-659.71 1559.33,-659.71 1559.33,-623.71 1613.33,-623.71 1613.33,-659.71"/>
<text text-anchor="middle" x="1586.33" y="-638.01" font-family="Helvetica,sans-Serif" font-size="14.00">0</text>
</g>
<!-- 1 -->
<g id="node2" class="node">
<title>1</title>
<polygon fill="#cc3d3d" stroke="black" points="1677.33,-586.71 1495.33,-586.71 1495.33,-508.71 1677.33,-508.71 1677.33,-586.71"/>
<text text-anchor="start" x="1545.83" y="-572.51" font-family="Helvetica,sans-Serif" font-weight="bold" font-size="14.00"> Class=w </text>
<text text-anchor="start" x="1621.83" y="-572.51" font-family="Helvetica,sans-Serif" font-size="14.00"> </text>
<text text-anchor="start" x="1503.33" y="-558.51" font-family="Helvetica,sans-Serif" font-size="14.00"> error: 0.851, n=44819 </text>
<text text-anchor="start" x="1510.83" y="-544.51" font-family="Helvetica,sans-Serif" font-size="14.00"> p: (0.39, 0.10, 0.51) </text>
<text text-anchor="start" x="1541.33" y="-530.51" font-family="Helvetica,sans-Serif" font-size="14.00">&#45;&#45;&#45;&#45;&#45;&#45;&#45;&#45;&#45;&#45;&#45;&#45;&#45;&#45;&#45;&#45;&#45;</text>
<text text-anchor="start" x="1513.83" y="-516.51" font-family="Helvetica,sans-Serif" font-weight="bold" font-size="14.00">white_piece0_rank</text>
</g>
<!-- 0&#45;&gt;1 -->
<!-- 2 -->
<g id="node3" class="node">
<title>2</title>
<polygon fill="#e5d544" stroke="black" points="1506.33,-457.71 1324.33,-457.71 1324.33,-379.71 1506.33,-379.71 1506.33,-457.71"/>
<text text-anchor="start" x="1374.83" y="-443.51" font-family="Helvetica,sans-Serif" font-weight="bold" font-size="14.00"> Class=w </text>
<text text-anchor="start" x="1450.83" y="-443.51" font-family="Helvetica,sans-Serif" font-size="14.00"> </text>
<text text-anchor="start" x="1332.33" y="-429.51" font-family="Helvetica,sans-Serif" font-size="14.00"> error: 0.617, n=20700 </text>
<text text-anchor="start" x="1339.83" y="-415.51" font-family="Helvetica,sans-Serif" font-size="14.00"> p: (0.23, 0.03, 0.73) </text>
<text text-anchor="start" x="1370.33" y="-401.51" font-family="Helvetica,sans-Serif" font-size="14.00">&#45;&#45;&#45;&#45;&#45;&#45;&#45;&#45;&#45;&#45;&#45;&#45;&#45;&#45;&#45;&#45;&#45;</text>
<text text-anchor="start" x="1344.33" y="-387.51" font-family="Helvetica,sans-Serif" font-weight="bold" font-size="14.00">black_piece0_rank</text>
</g>
<!-- 1&#45;&gt;2 -->
<g id="edge2" class="edge">
<title>1:s&#45;&gt;2:n</title>
<path fill="none" stroke="black" d="M1586.33,-508.71C1586.33,-508.71 1461.19,-471.39 1425.01,-460.6"/>
<polygon fill="black" stroke="black" points="1425.91,-457.21 1415.33,-457.71 1423.91,-463.92 1425.91,-457.21"/>
<text text-anchor="middle" x="1534.33" y="-479.51" font-family="Helvetica,sans-Serif" font-size="14.00">&gt; 4</text>
</g>
<!-- 15 -->
<g id="node4" class="node">
<title>15</title>
<polygon fill="#e5d544" stroke="black" points="1925.33,-457.71 1743.33,-457.71 1743.33,-379.71 1925.33,-379.71 1925.33,-457.71"/>
<text text-anchor="start" x="1795.33" y="-443.51" font-family="Helvetica,sans-Serif" font-weight="bold" font-size="14.00"> Class=b </text>
<text text-anchor="start" x="1868.33" y="-443.51" font-family="Helvetica,sans-Serif" font-size="14.00"> </text>
<text text-anchor="start" x="1751.33" y="-429.51" font-family="Helvetica,sans-Serif" font-size="14.00"> error: 0.902, n=24119 </text>
<text text-anchor="start" x="1758.83" y="-415.51" font-family="Helvetica,sans-Serif" font-size="14.00"> p: (0.52, 0.15, 0.33) </text>
<text text-anchor="start" x="1789.33" y="-401.51" font-family="Helvetica,sans-Serif" font-size="14.00">&#45;&#45;&#45;&#45;&#45;&#45;&#45;&#45;&#45;&#45;&#45;&#45;&#45;&#45;&#45;&#45;&#45;</text>
<text text-anchor="start" x="1763.33" y="-387.51" font-family="Helvetica,sans-Serif" font-weight="bold" font-size="14.00">black_piece0_rank</text>
</g>
<!-- 1&#45;&gt;15 -->
<g id="edge3" class="edge">
<title>1:s&#45;&gt;15:n</title>
<path fill="none" stroke="black" d="M1586.33,-508.71C1586.33,-508.71 1777.9,-469.31 1824.3,-459.77"/>
<polygon fill="black" stroke="black" points="1825.24,-463.15 1834.33,-457.71 1823.83,-456.3 1825.24,-463.15"/>
<text text-anchor="middle" x="1759.33" y="-479.51" font-family="Helvetica,sans-Serif" font-size="14.00">&lt;= 4</text>
</g>
<!-- 3 -->
<g id="node5" class="node">
<title>3</title>
<polygon fill="#59cc3d" stroke="black" points="1029.83,-328.71 856.83,-328.71 856.83,-250.71 1029.83,-250.71 1029.83,-328.71"/>
<text text-anchor="start" x="902.83" y="-314.51" font-family="Helvetica,sans-Serif" font-weight="bold" font-size="14.00"> Class=w </text>
<text text-anchor="start" x="978.83" y="-314.51" font-family="Helvetica,sans-Serif" font-size="14.00"> </text>
<text text-anchor="start" x="864.83" y="-300.51" font-family="Helvetica,sans-Serif" font-size="14.00"> error: 0.626, n=8140 </text>
<text text-anchor="start" x="867.83" y="-286.51" font-family="Helvetica,sans-Serif" font-size="14.00"> p: (0.45, 0.00, 0.55) </text>
<text text-anchor="start" x="898.33" y="-272.51" font-family="Helvetica,sans-Serif" font-size="14.00">&#45;&#45;&#45;&#45;&#45;&#45;&#45;&#45;&#45;&#45;&#45;&#45;&#45;&#45;&#45;&#45;&#45;</text>
<text text-anchor="start" x="870.83" y="-258.51" font-family="Helvetica,sans-Serif" font-weight="bold" font-size="14.00">white_piece0_rank</text>
</g>
<!-- 2&#45;&gt;3 -->
<g id="edge4" class="edge">
<title>2:s&#45;&gt;3:n</title>
<path fill="none" stroke="black" d="M1415.33,-379.71C1415.33,-379.71 1022.65,-337.28 953.63,-329.82"/>
<polygon fill="black" stroke="black" points="953.65,-326.31 943.33,-328.71 952.9,-333.26 953.65,-326.31"/>
<text text-anchor="middle" x="1255.33" y="-350.51" font-family="Helvetica,sans-Serif" font-size="14.00">&lt;= 2</text>
</g>
<!-- 10 -->
<g id="node6" class="node">
<title>10</title>
<polygon fill="#59cc3d" stroke="black" points="1506.33,-328.71 1324.33,-328.71 1324.33,-250.71 1506.33,-250.71 1506.33,-328.71"/>
<text text-anchor="start" x="1374.83" y="-314.51" font-family="Helvetica,sans-Serif" font-weight="bold" font-size="14.00"> Class=w </text>
<text text-anchor="start" x="1450.83" y="-314.51" font-family="Helvetica,sans-Serif" font-size="14.00"> </text>
<text text-anchor="start" x="1332.33" y="-300.51" font-family="Helvetica,sans-Serif" font-size="14.00"> error: 0.471, n=12560 </text>
<text text-anchor="start" x="1339.83" y="-286.51" font-family="Helvetica,sans-Serif" font-size="14.00"> p: (0.10, 0.05, 0.85) </text>
<text text-anchor="start" x="1370.33" y="-272.51" font-family="Helvetica,sans-Serif" font-size="14.00">&#45;&#45;&#45;&#45;&#45;&#45;&#45;&#45;&#45;&#45;&#45;&#45;&#45;&#45;&#45;&#45;&#45;</text>
<text text-anchor="start" x="1342.83" y="-258.51" font-family="Helvetica,sans-Serif" font-weight="bold" font-size="14.00">white_piece0_rank</text>
</g>
<!-- 2&#45;&gt;10 -->
<g id="edge5" class="edge">
<title>2:s&#45;&gt;10:n</title>
<path fill="none" stroke="black" d="M1415.33,-379.71C1415.33,-379.71 1415.33,-353.93 1415.33,-339.03"/>
<polygon fill="black" stroke="black" points="1418.83,-338.71 1415.33,-328.71 1411.83,-338.71 1418.83,-338.71"/>
<text text-anchor="middle" x="1428.33" y="-350.51" font-family="Helvetica,sans-Serif" font-size="14.00">&gt; 2</text>
</g>
<!-- 16 -->
<g id="node17" class="node">
<title>16</title>
<ellipse fill="#59cc3d" stroke="black" cx="1834.33" cy="-289.71" rx="122.16" ry="35.21"/>
<text text-anchor="start" x="1795.33" y="-300.51" font-family="Helvetica,sans-Serif" font-weight="bold" font-size="14.00"> Class=b </text>
<text text-anchor="start" x="1868.33" y="-300.51" font-family="Helvetica,sans-Serif" font-size="14.00"> </text>
<text text-anchor="start" x="1755.83" y="-286.51" font-family="Helvetica,sans-Serif" font-size="14.00"> error: 0.604, n=9139 </text>
<text text-anchor="start" x="1758.83" y="-272.51" font-family="Helvetica,sans-Serif" font-size="14.00"> p: (0.77, 0.06, 0.17) </text>
</g>
<!-- 15&#45;&gt;16 -->
<g id="edge16" class="edge">
<title>15:s&#45;&gt;16:n</title>
<path fill="none" stroke="black" d="M1834.33,-379.71C1834.33,-379.71 1834.33,-352.33 1834.33,-336.93"/>
<polygon fill="black" stroke="black" points="1837.83,-336.71 1834.33,-326.71 1830.83,-336.71 1837.83,-336.71"/>
<text text-anchor="middle" x="1853.33" y="-350.51" font-family="Helvetica,sans-Serif" font-size="14.00">&lt;= 2</text>
</g>
<!-- 17 -->
<g id="node18" class="node">
<title>17</title>
<polygon fill="#59cc3d" stroke="black" points="2250.83,-328.71 2057.83,-328.71 2057.83,-250.71 2250.83,-250.71 2250.83,-328.71"/>
<text text-anchor="start" x="2113.83" y="-314.51" font-family="Helvetica,sans-Serif" font-weight="bold" font-size="14.00"> Class=w </text>
<text text-anchor="start" x="2189.83" y="-314.51" font-family="Helvetica,sans-Serif" font-size="14.00"> </text>
<text text-anchor="start" x="2071.33" y="-300.51" font-family="Helvetica,sans-Serif" font-size="14.00"> error: 0.965, n=14980 </text>
<text text-anchor="start" x="2078.83" y="-286.51" font-family="Helvetica,sans-Serif" font-size="14.00"> p: (0.37, 0.21, 0.42) </text>
<text text-anchor="start" x="2098.83" y="-272.51" font-family="Helvetica,sans-Serif" font-size="14.00">&#45;&#45;&#45;&#45;&#45;&#45;&#45;&#45;&#45;&#45;&#45;&#45;&#45;&#45;&#45;&#45;&#45;&#45;&#45;&#45;&#45;</text>
<text text-anchor="start" x="2065.83" y="-258.51" font-family="Helvetica,sans-Serif" font-weight="bold" font-size="14.00">white_piece0_strength</text>
</g>
<!-- 15&#45;&gt;17 -->
<g id="edge17" class="edge">
<title>15:s&#45;&gt;17:n</title>
<path fill="none" stroke="black" d="M1834.33,-379.71C1834.33,-379.71 2090.39,-338.9 2144.4,-330.29"/>
<polygon fill="black" stroke="black" points="2145,-333.74 2154.33,-328.71 2143.9,-326.83 2145,-333.74"/>
<text text-anchor="middle" x="2046.33" y="-350.51" font-family="Helvetica,sans-Serif" font-size="14.00">&gt; 2</text>
</g>
<!-- 4 -->
<g id="node7" class="node">
<title>4</title>
<polygon fill="#44e5b5" stroke="black" points="525.83,-199.71 352.83,-199.71 352.83,-121.71 525.83,-121.71 525.83,-199.71"/>
<text text-anchor="start" x="400.33" y="-185.51" font-family="Helvetica,sans-Serif" font-weight="bold" font-size="14.00"> Class=b </text>
<text text-anchor="start" x="473.33" y="-185.51" font-family="Helvetica,sans-Serif" font-size="14.00"> </text>
<text text-anchor="start" x="360.83" y="-171.51" font-family="Helvetica,sans-Serif" font-size="14.00"> error: 0.590, n=3720 </text>
<text text-anchor="start" x="363.83" y="-157.51" font-family="Helvetica,sans-Serif" font-size="14.00"> p: (0.65, 0.00, 0.35) </text>
<text text-anchor="start" x="394.33" y="-143.51" font-family="Helvetica,sans-Serif" font-size="14.00">&#45;&#45;&#45;&#45;&#45;&#45;&#45;&#45;&#45;&#45;&#45;&#45;&#45;&#45;&#45;&#45;&#45;</text>
<text text-anchor="start" x="368.33" y="-129.51" font-family="Helvetica,sans-Serif" font-weight="bold" font-size="14.00">black_piece0_rank</text>
</g>
<!-- 3&#45;&gt;4 -->
<g id="edge6" class="edge">
<title>3:s&#45;&gt;4:n</title>
<path fill="none" stroke="black" d="M943.33,-250.71C943.33,-250.71 520.43,-207.92 449.4,-200.73"/>
<polygon fill="black" stroke="black" points="449.63,-197.24 439.33,-199.71 448.93,-204.2 449.63,-197.24"/>
<text text-anchor="middle" x="770.33" y="-221.51" font-family="Helvetica,sans-Serif" font-size="14.00">&lt;= 6</text>
</g>
<!-- 7 -->
<g id="node8" class="node">
<title>7</title>
<polygon fill="#44e5b5" stroke="black" points="1029.83,-199.71 856.83,-199.71 856.83,-121.71 1029.83,-121.71 1029.83,-199.71"/>
<text text-anchor="start" x="902.83" y="-185.51" font-family="Helvetica,sans-Serif" font-weight="bold" font-size="14.00"> Class=w </text>
<text text-anchor="start" x="978.83" y="-185.51" font-family="Helvetica,sans-Serif" font-size="14.00"> </text>
<text text-anchor="start" x="864.83" y="-171.51" font-family="Helvetica,sans-Serif" font-size="14.00"> error: 0.537, n=4420 </text>
<text text-anchor="start" x="867.83" y="-157.51" font-family="Helvetica,sans-Serif" font-size="14.00"> p: (0.28, 0.00, 0.72) </text>
<text text-anchor="start" x="898.33" y="-143.51" font-family="Helvetica,sans-Serif" font-size="14.00">&#45;&#45;&#45;&#45;&#45;&#45;&#45;&#45;&#45;&#45;&#45;&#45;&#45;&#45;&#45;&#45;&#45;</text>
<text text-anchor="start" x="872.33" y="-129.51" font-family="Helvetica,sans-Serif" font-weight="bold" font-size="14.00">black_piece0_rank</text>
</g>
<!-- 3&#45;&gt;7 -->
<g id="edge7" class="edge">
<title>3:s&#45;&gt;7:n</title>
<path fill="none" stroke="black" d="M943.33,-250.71C943.33,-250.71 943.33,-224.93 943.33,-210.03"/>
<polygon fill="black" stroke="black" points="946.83,-209.71 943.33,-199.71 939.83,-209.71 946.83,-209.71"/>
<text text-anchor="middle" x="956.33" y="-221.51" font-family="Helvetica,sans-Serif" font-size="14.00">&gt; 6</text>
</g>
<!-- 11 -->
<g id="node13" class="node">
<title>11</title>
<polygon fill="#44e5b5" stroke="black" points="1483.83,-199.71 1310.83,-199.71 1310.83,-121.71 1483.83,-121.71 1483.83,-199.71"/>
<text text-anchor="start" x="1356.83" y="-185.51" font-family="Helvetica,sans-Serif" font-weight="bold" font-size="14.00"> Class=w </text>
<text text-anchor="start" x="1432.83" y="-185.51" font-family="Helvetica,sans-Serif" font-size="14.00"> </text>
<text text-anchor="start" x="1318.83" y="-171.51" font-family="Helvetica,sans-Serif" font-size="14.00"> error: 0.664, n=5748 </text>
<text text-anchor="start" x="1321.83" y="-157.51" font-family="Helvetica,sans-Serif" font-size="14.00"> p: (0.16, 0.09, 0.75) </text>
<text text-anchor="start" x="1352.33" y="-143.51" font-family="Helvetica,sans-Serif" font-size="14.00">&#45;&#45;&#45;&#45;&#45;&#45;&#45;&#45;&#45;&#45;&#45;&#45;&#45;&#45;&#45;&#45;&#45;</text>
<text text-anchor="start" x="1326.33" y="-129.51" font-family="Helvetica,sans-Serif" font-weight="bold" font-size="14.00">black_piece0_rank</text>
</g>
<!-- 10&#45;&gt;11 -->
<g id="edge12" class="edge">
<title>10:s&#45;&gt;11:n</title>
<path fill="none" stroke="black" d="M1415.33,-250.71C1415.33,-250.71 1406.03,-224.36 1400.8,-209.54"/>
<polygon fill="black" stroke="black" points="1403.96,-207.98 1397.33,-199.71 1397.36,-210.31 1403.96,-207.98"/>
<text text-anchor="middle" x="1428.33" y="-221.51" font-family="Helvetica,sans-Serif" font-size="14.00">&lt;= 6</text>
</g>
<!-- 14 -->
<g id="node14" class="node">
<title>14</title>
<ellipse fill="#44e5b5" stroke="black" cx="1678.33" cy="-160.71" rx="122.16" ry="35.21"/>
<text text-anchor="start" x="1637.83" y="-171.51" font-family="Helvetica,sans-Serif" font-weight="bold" font-size="14.00"> Class=w </text>
<text text-anchor="start" x="1713.83" y="-171.51" font-family="Helvetica,sans-Serif" font-size="14.00"> </text>
<text text-anchor="start" x="1599.83" y="-157.51" font-family="Helvetica,sans-Serif" font-size="14.00"> error: 0.247, n=6812 </text>
<text text-anchor="start" x="1602.83" y="-143.51" font-family="Helvetica,sans-Serif" font-size="14.00"> p: (0.04, 0.02, 0.94) </text>
</g>
<!-- 10&#45;&gt;14 -->
<g id="edge13" class="edge">
<title>10:s&#45;&gt;14:n</title>
<path fill="none" stroke="black" d="M1415.33,-250.71C1415.33,-250.71 1620.3,-209.4 1668.34,-199.72"/>
<polygon fill="black" stroke="black" points="1669.22,-203.12 1678.33,-197.71 1667.84,-196.26 1669.22,-203.12"/>
<text text-anchor="middle" x="1591.33" y="-221.51" font-family="Helvetica,sans-Serif" font-size="14.00">&gt; 6</text>
</g>
<!-- 5 -->
<g id="node9" class="node">
<title>5</title>
<ellipse fill="#3d76cc" stroke="black" cx="122.33" cy="-35.36" rx="122.16" ry="35.21"/>
<text text-anchor="start" x="83.33" y="-46.16" font-family="Helvetica,sans-Serif" font-weight="bold" font-size="14.00"> Class=b </text>
<text text-anchor="start" x="156.33" y="-46.16" font-family="Helvetica,sans-Serif" font-size="14.00"> </text>
<text text-anchor="start" x="43.83" y="-32.16" font-family="Helvetica,sans-Serif" font-size="14.00"> error: 0.503, n=2418 </text>
<text text-anchor="start" x="46.83" y="-18.16" font-family="Helvetica,sans-Serif" font-size="14.00"> p: (0.76, 0.00, 0.24) </text>
</g>
<!-- 4&#45;&gt;5 -->
<g id="edge8" class="edge">
<title>4:s&#45;&gt;5:n</title>
<path fill="none" stroke="black" d="M439.33,-121.71C439.33,-121.71 186.78,-81.08 132.52,-72.35"/>
<polygon fill="black" stroke="black" points="132.76,-68.84 122.33,-70.71 131.65,-75.75 132.76,-68.84"/>
<text text-anchor="middle" x="338.33" y="-92.51" font-family="Helvetica,sans-Serif" font-size="14.00">&lt;= 1</text>
</g>
<!-- 6 -->
<g id="node10" class="node">
<title>6</title>
<ellipse fill="#3d76cc" stroke="black" cx="439.33" cy="-35.36" rx="122.16" ry="35.21"/>
<text text-anchor="start" x="398.83" y="-46.16" font-family="Helvetica,sans-Serif" font-weight="bold" font-size="14.00"> Class=w </text>
<text text-anchor="start" x="474.83" y="-46.16" font-family="Helvetica,sans-Serif" font-size="14.00"> </text>
<text text-anchor="start" x="360.83" y="-32.16" font-family="Helvetica,sans-Serif" font-size="14.00"> error: 0.625, n=1302 </text>
<text text-anchor="start" x="363.83" y="-18.16" font-family="Helvetica,sans-Serif" font-size="14.00"> p: (0.44, 0.00, 0.56) </text>
</g>
<!-- 4&#45;&gt;6 -->
<g id="edge9" class="edge">
<title>4:s&#45;&gt;6:n</title>
<path fill="none" stroke="black" d="M439.33,-121.71C439.33,-121.71 439.33,-95.93 439.33,-81.03"/>
<polygon fill="black" stroke="black" points="442.83,-80.71 439.33,-70.71 435.83,-80.71 442.83,-80.71"/>
<text text-anchor="middle" x="452.33" y="-92.51" font-family="Helvetica,sans-Serif" font-size="14.00">&gt; 1</text>
</g>
<!-- 8 -->
<g id="node11" class="node">
<title>8</title>
<ellipse fill="#3d76cc" stroke="black" cx="756.33" cy="-35.36" rx="122.16" ry="35.21"/>
<text text-anchor="start" x="715.83" y="-46.16" font-family="Helvetica,sans-Serif" font-weight="bold" font-size="14.00"> Class=w </text>
<text text-anchor="start" x="791.83" y="-46.16" font-family="Helvetica,sans-Serif" font-size="14.00"> </text>
<text text-anchor="start" x="677.83" y="-32.16" font-family="Helvetica,sans-Serif" font-size="14.00"> error: 0.598, n=2873 </text>
<text text-anchor="start" x="680.83" y="-18.16" font-family="Helvetica,sans-Serif" font-size="14.00"> p: (0.37, 0.00, 0.63) </text>
</g>
<!-- 7&#45;&gt;8 -->
<g id="edge10" class="edge">
<title>7:s&#45;&gt;8:n</title>
<path fill="none" stroke="black" d="M943.33,-121.71C943.33,-121.71 804.6,-83.87 766.12,-73.38"/>
<polygon fill="black" stroke="black" points="766.9,-69.97 756.33,-70.71 765.06,-76.72 766.9,-69.97"/>
<text text-anchor="middle" x="891.33" y="-92.51" font-family="Helvetica,sans-Serif" font-size="14.00">&lt;= 1</text>
</g>
<!-- 9 -->
<g id="node12" class="node">
<title>9</title>
<ellipse fill="#3d76cc" stroke="black" cx="1073.33" cy="-35.36" rx="122.16" ry="35.21"/>
<text text-anchor="start" x="1032.83" y="-46.16" font-family="Helvetica,sans-Serif" font-weight="bold" font-size="14.00"> Class=w </text>
<text text-anchor="start" x="1108.83" y="-46.16" font-family="Helvetica,sans-Serif" font-size="14.00"> </text>
<text text-anchor="start" x="994.83" y="-32.16" font-family="Helvetica,sans-Serif" font-size="14.00"> error: 0.315, n=1547 </text>
<text text-anchor="start" x="997.83" y="-18.16" font-family="Helvetica,sans-Serif" font-size="14.00"> p: (0.11, 0.00, 0.89) </text>
</g>
<!-- 7&#45;&gt;9 -->
<g id="edge11" class="edge">
<title>7:s&#45;&gt;9:n</title>
<path fill="none" stroke="black" d="M943.33,-121.71C943.33,-121.71 1034.17,-86.07 1063.98,-74.38"/>
<polygon fill="black" stroke="black" points="1065.3,-77.62 1073.33,-70.71 1062.74,-71.1 1065.3,-77.62"/>
<text text-anchor="middle" x="1037.33" y="-92.51" font-family="Helvetica,sans-Serif" font-size="14.00">&gt; 1</text>
</g>
<!-- 12 -->
<g id="node15" class="node">
<title>12</title>
<ellipse fill="#3d76cc" stroke="black" cx="1390.33" cy="-35.36" rx="122.16" ry="35.21"/>
<text text-anchor="start" x="1349.83" y="-46.16" font-family="Helvetica,sans-Serif" font-weight="bold" font-size="14.00"> Class=w </text>
<text text-anchor="start" x="1425.83" y="-46.16" font-family="Helvetica,sans-Serif" font-size="14.00"> </text>
<text text-anchor="start" x="1311.83" y="-32.16" font-family="Helvetica,sans-Serif" font-size="14.00"> error: 0.442, n=2147 </text>
<text text-anchor="start" x="1314.83" y="-18.16" font-family="Helvetica,sans-Serif" font-size="14.00"> p: (0.17, 0.00, 0.82) </text>
</g>
<!-- 11&#45;&gt;12 -->
<g id="edge14" class="edge">
<title>11:s&#45;&gt;12:n</title>
<path fill="none" stroke="black" d="M1397.33,-121.71C1397.33,-121.71 1393.79,-95.93 1391.75,-81.03"/>
<polygon fill="black" stroke="black" points="1395.16,-80.14 1390.33,-70.71 1388.22,-81.09 1395.16,-80.14"/>
<text text-anchor="middle" x="1414.33" y="-92.51" font-family="Helvetica,sans-Serif" font-size="14.00">&lt;= 5</text>
</g>
<!-- 13 -->
<g id="node16" class="node">
<title>13</title>
<ellipse fill="#3d76cc" stroke="black" cx="1707.33" cy="-35.36" rx="122.16" ry="35.21"/>
<text text-anchor="start" x="1666.83" y="-46.16" font-family="Helvetica,sans-Serif" font-weight="bold" font-size="14.00"> Class=w </text>
<text text-anchor="start" x="1742.83" y="-46.16" font-family="Helvetica,sans-Serif" font-size="14.00"> </text>
<text text-anchor="start" x="1628.83" y="-32.16" font-family="Helvetica,sans-Serif" font-size="14.00"> error: 0.742, n=3601 </text>
<text text-anchor="start" x="1631.83" y="-18.16" font-family="Helvetica,sans-Serif" font-size="14.00"> p: (0.16, 0.14, 0.70) </text>
</g>
<!-- 11&#45;&gt;13 -->
<g id="edge15" class="edge">
<title>11:s&#45;&gt;13:n</title>
<path fill="none" stroke="black" d="M1397.33,-121.71C1397.33,-121.71 1644.31,-81.08 1697.37,-72.35"/>
<polygon fill="black" stroke="black" points="1698.03,-75.79 1707.33,-70.71 1696.89,-68.88 1698.03,-75.79"/>
<text text-anchor="middle" x="1602.33" y="-92.51" font-family="Helvetica,sans-Serif" font-size="14.00">&gt; 5</text>
</g>
<!-- 18 -->
<g id="node19" class="node">
<title>18</title>
<polygon fill="#44e5b5" stroke="black" points="2249.83,-199.71 2058.83,-199.71 2058.83,-121.71 2249.83,-121.71 2249.83,-199.71"/>
<text text-anchor="start" x="2115.33" y="-185.51" font-family="Helvetica,sans-Serif" font-weight="bold" font-size="14.00"> Class=b </text>
<text text-anchor="start" x="2188.33" y="-185.51" font-family="Helvetica,sans-Serif" font-size="14.00"> </text>
<text text-anchor="start" x="2075.83" y="-171.51" font-family="Helvetica,sans-Serif" font-size="14.00"> error: 0.938, n=6876 </text>
<text text-anchor="start" x="2078.83" y="-157.51" font-family="Helvetica,sans-Serif" font-size="14.00"> p: (0.51, 0.22, 0.27) </text>
<text text-anchor="start" x="2098.83" y="-143.51" font-family="Helvetica,sans-Serif" font-size="14.00">&#45;&#45;&#45;&#45;&#45;&#45;&#45;&#45;&#45;&#45;&#45;&#45;&#45;&#45;&#45;&#45;&#45;&#45;&#45;&#45;&#45;</text>
<text text-anchor="start" x="2066.83" y="-129.51" font-family="Helvetica,sans-Serif" font-weight="bold" font-size="14.00">black_piece0_strength</text>
</g>
<!-- 17&#45;&gt;18 -->
<g id="edge18" class="edge">
<title>17:s&#45;&gt;18:n</title>
<path fill="none" stroke="black" d="M2154.33,-250.71C2154.33,-250.71 2154.33,-224.93 2154.33,-210.03"/>
<polygon fill="black" stroke="black" points="2157.83,-209.71 2154.33,-199.71 2150.83,-209.71 2157.83,-209.71"/>
<text text-anchor="middle" x="2173.33" y="-221.51" font-family="Helvetica,sans-Serif" font-size="14.00">&lt;= 4</text>
</g>
<!-- 21 -->
<g id="node20" class="node">
<title>21</title>
<polygon fill="#44e5b5" stroke="black" points="2753.83,-199.71 2562.83,-199.71 2562.83,-121.71 2753.83,-121.71 2753.83,-199.71"/>
<text text-anchor="start" x="2617.83" y="-185.51" font-family="Helvetica,sans-Serif" font-weight="bold" font-size="14.00"> Class=w </text>
<text text-anchor="start" x="2693.83" y="-185.51" font-family="Helvetica,sans-Serif" font-size="14.00"> </text>
<text text-anchor="start" x="2579.83" y="-171.51" font-family="Helvetica,sans-Serif" font-size="14.00"> error: 0.910, n=8104 </text>
<text text-anchor="start" x="2582.83" y="-157.51" font-family="Helvetica,sans-Serif" font-size="14.00"> p: (0.25, 0.20, 0.55) </text>
<text text-anchor="start" x="2602.83" y="-143.51" font-family="Helvetica,sans-Serif" font-size="14.00">&#45;&#45;&#45;&#45;&#45;&#45;&#45;&#45;&#45;&#45;&#45;&#45;&#45;&#45;&#45;&#45;&#45;&#45;&#45;&#45;&#45;</text>
<text text-anchor="start" x="2570.83" y="-129.51" font-family="Helvetica,sans-Serif" font-weight="bold" font-size="14.00">black_piece0_strength</text>
</g>
<!-- 17&#45;&gt;21 -->
<g id="edge19" class="edge">
<title>17:s&#45;&gt;21:n</title>
<path fill="none" stroke="black" d="M2154.33,-250.71C2154.33,-250.71 2577.23,-207.92 2648.26,-200.73"/>
<polygon fill="black" stroke="black" points="2648.73,-204.2 2658.33,-199.71 2648.03,-197.24 2648.73,-204.2"/>
<text text-anchor="middle" x="2479.33" y="-221.51" font-family="Helvetica,sans-Serif" font-size="14.00">&gt; 4</text>
</g>
<!-- 19 -->
<g id="node21" class="node">
<title>19</title>
<ellipse fill="#3d76cc" stroke="black" cx="2024.33" cy="-35.36" rx="122.16" ry="35.21"/>
<text text-anchor="start" x="1983.83" y="-46.16" font-family="Helvetica,sans-Serif" font-weight="bold" font-size="14.00"> Class=w </text>
<text text-anchor="start" x="2059.83" y="-46.16" font-family="Helvetica,sans-Serif" font-size="14.00"> </text>
<text text-anchor="start" x="1945.83" y="-32.16" font-family="Helvetica,sans-Serif" font-size="14.00"> error: 0.949, n=2440 </text>
<text text-anchor="start" x="1948.83" y="-18.16" font-family="Helvetica,sans-Serif" font-size="14.00"> p: (0.30, 0.22, 0.49) </text>
</g>
<!-- 18&#45;&gt;19 -->
<g id="edge20" class="edge">
<title>18:s&#45;&gt;19:n</title>
<path fill="none" stroke="black" d="M2154.33,-121.71C2154.33,-121.71 2063.49,-86.07 2033.68,-74.38"/>
<polygon fill="black" stroke="black" points="2034.92,-71.1 2024.33,-70.71 2032.36,-77.62 2034.92,-71.1"/>
<text text-anchor="middle" x="2124.33" y="-92.51" font-family="Helvetica,sans-Serif" font-size="14.00">&lt;= 0</text>
</g>
<!-- 20 -->
<g id="node22" class="node">
<title>20</title>
<ellipse fill="#3d76cc" stroke="black" cx="2341.33" cy="-35.36" rx="122.16" ry="35.21"/>
<text text-anchor="start" x="2302.33" y="-46.16" font-family="Helvetica,sans-Serif" font-weight="bold" font-size="14.00"> Class=b </text>
<text text-anchor="start" x="2375.33" y="-46.16" font-family="Helvetica,sans-Serif" font-size="14.00"> </text>
<text text-anchor="start" x="2262.83" y="-32.16" font-family="Helvetica,sans-Serif" font-size="14.00"> error: 0.831, n=4436 </text>
<text text-anchor="start" x="2265.83" y="-18.16" font-family="Helvetica,sans-Serif" font-size="14.00"> p: (0.63, 0.22, 0.15) </text>
</g>
<!-- 18&#45;&gt;20 -->
<g id="edge21" class="edge">
<title>18:s&#45;&gt;20:n</title>
<path fill="none" stroke="black" d="M2154.33,-121.71C2154.33,-121.71 2293.06,-83.87 2331.54,-73.38"/>
<polygon fill="black" stroke="black" points="2332.6,-76.72 2341.33,-70.71 2330.76,-69.97 2332.6,-76.72"/>
<text text-anchor="middle" x="2283.33" y="-92.51" font-family="Helvetica,sans-Serif" font-size="14.00">&gt; 0</text>
</g>
<!-- 22 -->
<g id="node23" class="node">
<title>22</title>
<ellipse fill="#3d76cc" stroke="black" cx="2658.33" cy="-35.36" rx="122.16" ry="35.21"/>
<text text-anchor="start" x="2617.83" y="-46.16" font-family="Helvetica,sans-Serif" font-weight="bold" font-size="14.00"> Class=w </text>
<text text-anchor="start" x="2693.83" y="-46.16" font-family="Helvetica,sans-Serif" font-size="14.00"> </text>
<text text-anchor="start" x="2579.83" y="-32.16" font-family="Helvetica,sans-Serif" font-size="14.00"> error: 0.706, n=4364 </text>
<text text-anchor="start" x="2582.83" y="-18.16" font-family="Helvetica,sans-Serif" font-size="14.00"> p: (0.14, 0.13, 0.73) </text>
</g>
<!-- 21&#45;&gt;22 -->
<g id="edge22" class="edge">
<title>21:s&#45;&gt;22:n</title>
<path fill="none" stroke="black" d="M2658.33,-121.71C2658.33,-121.71 2658.33,-95.93 2658.33,-81.03"/>
<polygon fill="black" stroke="black" points="2661.83,-80.71 2658.33,-70.71 2654.83,-80.71 2661.83,-80.71"/>
<text text-anchor="middle" x="2677.33" y="-92.51" font-family="Helvetica,sans-Serif" font-size="14.00">&lt;= 5</text>
</g>
<!-- 23 -->
<g id="node24" class="node">
<title>23</title>
<ellipse fill="#3d76cc" stroke="black" cx="2975.33" cy="-35.36" rx="122.16" ry="35.21"/>
<text text-anchor="start" x="2936.33" y="-46.16" font-family="Helvetica,sans-Serif" font-weight="bold" font-size="14.00"> Class=b </text>
<text text-anchor="start" x="3009.33" y="-46.16" font-family="Helvetica,sans-Serif" font-size="14.00"> </text>
<text text-anchor="start" x="2896.83" y="-32.16" font-family="Helvetica,sans-Serif" font-size="14.00"> error: 0.995, n=3740 </text>
<text text-anchor="start" x="2899.83" y="-18.16" font-family="Helvetica,sans-Serif" font-size="14.00"> p: (0.37, 0.29, 0.34) </text>
</g>
<!-- 21&#45;&gt;23 -->
<g id="edge23" class="edge">
<title>21:s&#45;&gt;23:n</title>
<path fill="none" stroke="black" d="M2658.33,-121.71C2658.33,-121.71 2910.88,-81.08 2965.14,-72.35"/>
<polygon fill="black" stroke="black" points="2966.01,-75.75 2975.33,-70.71 2964.9,-68.84 2966.01,-75.75"/>
<text text-anchor="middle" x="2868.33" y="-92.51" font-family="Helvetica,sans-Serif" font-size="14.00">&gt; 5</text>
</g>
</g>
</svg>
