<?xml version="1.0" encoding="UTF-8" standalone="no"?>
<!DOCTYPE svg PUBLIC "-//W3C//DTD SVG 1.1//EN"
 "http://www.w3.org/Graphics/SVG/1.1/DTD/svg11.dtd">
<!-- Generated by graphviz version 2.43.0 (0)
 -->
<!-- Title: Tree Pages: 1 -->
<svg width="727pt" height="825pt"
 viewBox="0.00 0.00 726.93 824.71" xmlns="http://www.w3.org/2000/svg" xmlns:xlink="http://www.w3.org/1999/xlink">
<g id="graph0" class="graph" transform="scale(1 1) rotate(0) translate(18 806.71)">
<title>Tree</title>
<polygon fill="white" stroke="transparent" points="-18,18 -18,-806.71 708.93,-806.71 708.93,18 -18,18"/>
<!-- 0 -->
<g id="node1" class="node">
<title>0</title>
<polygon fill="white" stroke="transparent" points="466.97,-788.71 412.97,-788.71 412.97,-752.71 466.97,-752.71 466.97,-788.71"/>
<text text-anchor="middle" x="439.97" y="-767.01" font-family="Helvetica,sans-Serif" font-size="14.00">0</text>
</g>
<!-- 1 -->
<g id="node2" class="node">
<title>1</title>
<polygon fill="#cc3d3d" stroke="black" points="521.97,-715.71 357.97,-715.71 357.97,-637.71 521.97,-637.71 521.97,-715.71"/>
<text text-anchor="start" x="396.47" y="-701.51" font-family="Helvetica,sans-Serif" font-weight="bold" font-size="14.00"> Class=no </text>
<text text-anchor="start" x="478.47" y="-701.51" font-family="Helvetica,sans-Serif" font-size="14.00"> </text>
<text text-anchor="start" x="365.97" y="-687.51" font-family="Helvetica,sans-Serif" font-size="14.00"> error: 0.732, n=522 </text>
<text text-anchor="start" x="384.97" y="-673.51" font-family="Helvetica,sans-Serif" font-size="14.00"> p: (0.80, 0.20) </text>
<text text-anchor="start" x="415.97" y="-659.51" font-family="Helvetica,sans-Serif" font-size="14.00">&#45;&#45;&#45;&#45;&#45;&#45;&#45;&#45;&#45;</text>
<text text-anchor="start" x="398.97" y="-645.51" font-family="Helvetica,sans-Serif" font-weight="bold" font-size="14.00">uniq_Opnd</text>
</g>
<!-- 0&#45;&gt;1 -->
<!-- 2 -->
<g id="node3" class="node">
<title>2</title>
<polygon fill="#e5b844" stroke="black" points="386.97,-586.71 222.97,-586.71 222.97,-508.71 386.97,-508.71 386.97,-586.71"/>
<text text-anchor="start" x="257.47" y="-572.51" font-family="Helvetica,sans-Serif" font-weight="bold" font-size="14.00"> Class=yes </text>
<text text-anchor="start" x="347.47" y="-572.51" font-family="Helvetica,sans-Serif" font-size="14.00"> </text>
<text text-anchor="start" x="230.97" y="-558.51" font-family="Helvetica,sans-Serif" font-size="14.00"> error: 0.999, n=163 </text>
<text text-anchor="start" x="249.97" y="-544.51" font-family="Helvetica,sans-Serif" font-size="14.00"> p: (0.48, 0.52) </text>
<text text-anchor="start" x="291.47" y="-530.51" font-family="Helvetica,sans-Serif" font-size="14.00">&#45;&#45;&#45;&#45;&#45;</text>
<text text-anchor="start" x="283.47" y="-516.51" font-family="Helvetica,sans-Serif" font-weight="bold" font-size="14.00">ev(g)</text>
</g>
<!-- 1&#45;&gt;2 -->
<g id="edge2" class="edge">
<title>1:s&#45;&gt;2:n</title>
<path fill="none" stroke="black" d="M439.97,-637.71C439.97,-637.71 345.63,-602.07 314.67,-590.38"/>
<polygon fill="black" stroke="black" points="315.56,-586.97 304.97,-586.71 313.08,-593.52 315.56,-586.97"/>
<text text-anchor="middle" x="406.47" y="-608.51" font-family="Helvetica,sans-Serif" font-size="14.00">&gt; 16</text>
</g>
<!-- 9 -->
<g id="node4" class="node">
<title>9</title>
<ellipse fill="#e5b844" stroke="black" cx="574.97" cy="-547.71" rx="115.93" ry="35.21"/>
<text text-anchor="start" x="531.47" y="-558.51" font-family="Helvetica,sans-Serif" font-weight="bold" font-size="14.00"> Class=no </text>
<text text-anchor="start" x="613.47" y="-558.51" font-family="Helvetica,sans-Serif" font-size="14.00"> </text>
<text text-anchor="start" x="500.97" y="-544.51" font-family="Helvetica,sans-Serif" font-size="14.00"> error: 0.333, n=359 </text>
<text text-anchor="start" x="519.97" y="-530.51" font-family="Helvetica,sans-Serif" font-size="14.00"> p: (0.94, 0.06) </text>
</g>
<!-- 1&#45;&gt;9 -->
<g id="edge3" class="edge">
<title>1:s&#45;&gt;9:n</title>
<path fill="none" stroke="black" d="M439.97,-637.71C439.97,-637.71 534.3,-600.67 565.26,-588.52"/>
<polygon fill="black" stroke="black" points="566.94,-591.62 574.97,-584.71 564.38,-585.11 566.94,-591.62"/>
<text text-anchor="middle" x="547.47" y="-608.51" font-family="Helvetica,sans-Serif" font-size="14.00">&lt;= 16</text>
</g>
<!-- 3 -->
<g id="node5" class="node">
<title>3</title>
<polygon fill="#8dcc3d" stroke="black" points="254.97,-457.71 90.97,-457.71 90.97,-379.71 254.97,-379.71 254.97,-457.71"/>
<text text-anchor="start" x="129.47" y="-443.51" font-family="Helvetica,sans-Serif" font-weight="bold" font-size="14.00"> Class=no </text>
<text text-anchor="start" x="211.47" y="-443.51" font-family="Helvetica,sans-Serif" font-size="14.00"> </text>
<text text-anchor="start" x="98.97" y="-429.51" font-family="Helvetica,sans-Serif" font-size="14.00"> error: 0.997, n=145 </text>
<text text-anchor="start" x="117.97" y="-415.51" font-family="Helvetica,sans-Serif" font-size="14.00"> p: (0.53, 0.47) </text>
<text text-anchor="start" x="159.47" y="-401.51" font-family="Helvetica,sans-Serif" font-size="14.00">&#45;&#45;&#45;&#45;&#45;</text>
<text text-anchor="start" x="151.47" y="-387.51" font-family="Helvetica,sans-Serif" font-weight="bold" font-size="14.00">ev(g)</text>
</g>
<!-- 2&#45;&gt;3 -->
<g id="edge4" class="edge">
<title>2:s&#45;&gt;3:n</title>
<path fill="none" stroke="black" d="M304.97,-508.71C304.97,-508.71 212.73,-473.07 182.46,-461.38"/>
<polygon fill="black" stroke="black" points="183.55,-458.05 172.97,-457.71 181.03,-464.58 183.55,-458.05"/>
<text text-anchor="middle" x="273.97" y="-479.51" font-family="Helvetica,sans-Serif" font-size="14.00">&lt;= 9</text>
</g>
<!-- 8 -->
<g id="node6" class="node">
<title>8</title>
<ellipse fill="#8dcc3d" stroke="black" cx="436.97" cy="-418.71" rx="109.7" ry="35.21"/>
<text text-anchor="start" x="389.47" y="-429.51" font-family="Helvetica,sans-Serif" font-weight="bold" font-size="14.00"> Class=yes </text>
<text text-anchor="start" x="479.47" y="-429.51" font-family="Helvetica,sans-Serif" font-size="14.00"> </text>
<text text-anchor="start" x="367.47" y="-415.51" font-family="Helvetica,sans-Serif" font-size="14.00"> error: 0.310, n=18 </text>
<text text-anchor="start" x="381.97" y="-401.51" font-family="Helvetica,sans-Serif" font-size="14.00"> p: (0.06, 0.94) </text>
</g>
<!-- 2&#45;&gt;8 -->
<g id="edge5" class="edge">
<title>2:s&#45;&gt;8:n</title>
<path fill="none" stroke="black" d="M304.97,-508.71C304.97,-508.71 397.21,-471.67 427.47,-459.52"/>
<polygon fill="black" stroke="black" points="428.99,-462.68 436.97,-455.71 426.38,-456.19 428.99,-462.68"/>
<text text-anchor="middle" x="399.97" y="-479.51" font-family="Helvetica,sans-Serif" font-size="14.00">&gt; 9</text>
</g>
<!-- 4 -->
<g id="node7" class="node">
<title>4</title>
<ellipse fill="#44e55e" stroke="black" cx="115.97" cy="-289.71" rx="115.93" ry="35.21"/>
<text text-anchor="start" x="72.47" y="-300.51" font-family="Helvetica,sans-Serif" font-weight="bold" font-size="14.00"> Class=no </text>
<text text-anchor="start" x="154.47" y="-300.51" font-family="Helvetica,sans-Serif" font-size="14.00"> </text>
<text text-anchor="start" x="41.97" y="-286.51" font-family="Helvetica,sans-Serif" font-size="14.00"> error: 0.954, n=104 </text>
<text text-anchor="start" x="60.97" y="-272.51" font-family="Helvetica,sans-Serif" font-size="14.00"> p: (0.62, 0.38) </text>
</g>
<!-- 3&#45;&gt;4 -->
<g id="edge6" class="edge">
<title>3:s&#45;&gt;4:n</title>
<path fill="none" stroke="black" d="M172.97,-379.71C172.97,-379.71 138.87,-348.01 123.42,-333.64"/>
<polygon fill="black" stroke="black" points="125.67,-330.96 115.97,-326.71 120.91,-336.08 125.67,-330.96"/>
<text text-anchor="middle" x="171.97" y="-350.51" font-family="Helvetica,sans-Serif" font-size="14.00">&lt;= 4</text>
</g>
<!-- 5 -->
<g id="node8" class="node">
<title>5</title>
<polygon fill="#44e55e" stroke="black" points="458.47,-328.71 303.47,-328.71 303.47,-250.71 458.47,-250.71 458.47,-328.71"/>
<text text-anchor="start" x="333.47" y="-314.51" font-family="Helvetica,sans-Serif" font-weight="bold" font-size="14.00"> Class=yes </text>
<text text-anchor="start" x="423.47" y="-314.51" font-family="Helvetica,sans-Serif" font-size="14.00"> </text>
<text text-anchor="start" x="311.47" y="-300.51" font-family="Helvetica,sans-Serif" font-size="14.00"> error: 0.872, n=41 </text>
<text text-anchor="start" x="325.97" y="-286.51" font-family="Helvetica,sans-Serif" font-size="14.00"> p: (0.29, 0.71) </text>
<text text-anchor="start" x="377.97" y="-272.51" font-family="Helvetica,sans-Serif" font-size="14.00">&#45;</text>
<text text-anchor="start" x="378.47" y="-258.51" font-family="Helvetica,sans-Serif" font-weight="bold" font-size="14.00">i</text>
</g>
<!-- 3&#45;&gt;5 -->
<g id="edge7" class="edge">
<title>3:s&#45;&gt;5:n</title>
<path fill="none" stroke="black" d="M172.97,-379.71C172.97,-379.71 330.09,-341.19 371.21,-331.1"/>
<polygon fill="black" stroke="black" points="372.09,-334.49 380.97,-328.71 370.42,-327.69 372.09,-334.49"/>
<text text-anchor="middle" x="314.97" y="-350.51" font-family="Helvetica,sans-Serif" font-size="14.00">&gt; 4</text>
</g>
<!-- 6 -->
<g id="node9" class="node">
<title>6</title>
<polygon fill="#3dccba" stroke="black" points="458.47,-199.71 303.47,-199.71 303.47,-121.71 458.47,-121.71 458.47,-199.71"/>
<text text-anchor="start" x="333.47" y="-185.51" font-family="Helvetica,sans-Serif" font-weight="bold" font-size="14.00"> Class=yes </text>
<text text-anchor="start" x="423.47" y="-185.51" font-family="Helvetica,sans-Serif" font-size="14.00"> </text>
<text text-anchor="start" x="311.47" y="-171.51" font-family="Helvetica,sans-Serif" font-size="14.00"> error: 0.937, n=34 </text>
<text text-anchor="start" x="325.97" y="-157.51" font-family="Helvetica,sans-Serif" font-size="14.00"> p: (0.35, 0.65) </text>
<text text-anchor="start" x="362.47" y="-143.51" font-family="Helvetica,sans-Serif" font-size="14.00">&#45;&#45;&#45;&#45;&#45;&#45;&#45;</text>
<text text-anchor="start" x="349.47" y="-129.51" font-family="Helvetica,sans-Serif" font-weight="bold" font-size="14.00">uniq_Op</text>
</g>
<!-- 5&#45;&gt;6 -->
<g id="edge8" class="edge">
<title>5:s&#45;&gt;6:n</title>
<path fill="none" stroke="black" d="M380.97,-250.71C380.97,-250.71 380.97,-224.93 380.97,-210.03"/>
<polygon fill="black" stroke="black" points="384.47,-209.71 380.97,-199.71 377.47,-209.71 384.47,-209.71"/>
<text text-anchor="middle" x="415.97" y="-221.51" font-family="Helvetica,sans-Serif" font-size="14.00">&lt;= 83.01</text>
</g>
<!-- 7 -->
<g id="node10" class="node">
<title>7</title>
<ellipse fill="#4485e5" stroke="black" cx="380.97" cy="-35.36" rx="109.7" ry="35.21"/>
<text text-anchor="start" x="333.47" y="-46.16" font-family="Helvetica,sans-Serif" font-weight="bold" font-size="14.00"> Class=yes </text>
<text text-anchor="start" x="423.47" y="-46.16" font-family="Helvetica,sans-Serif" font-size="14.00"> </text>
<text text-anchor="start" x="311.47" y="-32.16" font-family="Helvetica,sans-Serif" font-size="14.00"> error: 0.826, n=27 </text>
<text text-anchor="start" x="325.97" y="-18.16" font-family="Helvetica,sans-Serif" font-size="14.00"> p: (0.26, 0.74) </text>
</g>
<!-- 6&#45;&gt;7 -->
<g id="edge9" class="edge">
<title>6:s&#45;&gt;7:n</title>
<path fill="none" stroke="black" d="M380.97,-121.71C380.97,-121.71 380.97,-95.93 380.97,-81.03"/>
<polygon fill="black" stroke="black" points="384.47,-80.71 380.97,-70.71 377.47,-80.71 384.47,-80.71"/>
<text text-anchor="middle" x="398.47" y="-92.51" font-family="Helvetica,sans-Serif" font-size="14.00">&gt; 14</text>
</g>
</g>
</svg>
