<?xml version="1.0" encoding="UTF-8" standalone="no"?>
<!DOCTYPE svg PUBLIC "-//W3C//DTD SVG 1.1//EN"
 "http://www.w3.org/Graphics/SVG/1.1/DTD/svg11.dtd">
<!-- Generated by graphviz version 2.43.0 (0)
 -->
<!-- Title: Tree Pages: 1 -->
<svg width="1585pt" height="1212pt"
 viewBox="0.00 0.00 1584.93 1211.71" xmlns="http://www.w3.org/2000/svg" xmlns:xlink="http://www.w3.org/1999/xlink">
<g id="graph0" class="graph" transform="scale(1 1) rotate(0) translate(18 1193.71)">
<title>Tree</title>
<polygon fill="white" stroke="transparent" points="-18,18 -18,-1193.71 1566.93,-1193.71 1566.93,18 -18,18"/>
<!-- 0 -->
<g id="node1" class="node">
<title>0</title>
<polygon fill="white" stroke="transparent" points="923.97,-1175.71 869.97,-1175.71 869.97,-1139.71 923.97,-1139.71 923.97,-1175.71"/>
<text text-anchor="middle" x="896.97" y="-1154.01" font-family="Helvetica,sans-Serif" font-size="14.00">0</text>
</g>
<!-- 1 -->
<g id="node2" class="node">
<title>1</title>
<polygon fill="#cc3d3d" stroke="black" points="983.47,-1102.71 810.47,-1102.71 810.47,-1024.71 983.47,-1024.71 983.47,-1102.71"/>
<text text-anchor="start" x="846.97" y="-1088.51" font-family="Helvetica,sans-Serif" font-weight="bold" font-size="14.00"> Class=won </text>
<text text-anchor="start" x="941.97" y="-1088.51" font-family="Helvetica,sans-Serif" font-size="14.00"> </text>
<text text-anchor="start" x="818.47" y="-1074.51" font-family="Helvetica,sans-Serif" font-size="14.00"> error: 0.999, n=3196 </text>
<text text-anchor="start" x="841.97" y="-1060.51" font-family="Helvetica,sans-Serif" font-size="14.00"> p: (0.48, 0.52) </text>
<text text-anchor="start" x="883.47" y="-1046.51" font-family="Helvetica,sans-Serif" font-size="14.00">&#45;&#45;&#45;&#45;&#45;</text>
<text text-anchor="start" x="872.47" y="-1032.51" font-family="Helvetica,sans-Serif" font-weight="bold" font-size="14.00">rimmx</text>
</g>
<!-- 0&#45;&gt;1 -->
<!-- 2 -->
<g id="node3" class="node">
<title>2</title>
<ellipse fill="#e58d44" stroke="black" cx="855.97" cy="-934.71" rx="115.93" ry="35.21"/>
<text text-anchor="start" x="805.97" y="-945.51" font-family="Helvetica,sans-Serif" font-weight="bold" font-size="14.00"> Class=won </text>
<text text-anchor="start" x="900.97" y="-945.51" font-family="Helvetica,sans-Serif" font-size="14.00"> </text>
<text text-anchor="start" x="781.97" y="-931.51" font-family="Helvetica,sans-Serif" font-size="14.00"> error: 0.000, n=584 </text>
<text text-anchor="start" x="800.97" y="-917.51" font-family="Helvetica,sans-Serif" font-size="14.00"> p: (0.00, 1.00) </text>
</g>
<!-- 1&#45;&gt;2 -->
<g id="edge2" class="edge">
<title>1:s&#45;&gt;2:n</title>
<path fill="none" stroke="black" d="M896.97,-1024.71C896.97,-1024.71 873.9,-994.9 862.37,-979.99"/>
<polygon fill="black" stroke="black" points="864.85,-977.48 855.97,-971.71 859.32,-981.76 864.85,-977.48"/>
<text text-anchor="middle" x="885.97" y="-995.51" font-family="Helvetica,sans-Serif" font-size="14.00">t</text>
</g>
<!-- 3 -->
<g id="node4" class="node">
<title>3</title>
<polygon fill="#e58d44" stroke="black" points="1216.47,-973.71 1043.47,-973.71 1043.47,-895.71 1216.47,-895.71 1216.47,-973.71"/>
<text text-anchor="start" x="1072.97" y="-959.51" font-family="Helvetica,sans-Serif" font-weight="bold" font-size="14.00"> Class=nowin </text>
<text text-anchor="start" x="1181.97" y="-959.51" font-family="Helvetica,sans-Serif" font-size="14.00"> </text>
<text text-anchor="start" x="1051.47" y="-945.51" font-family="Helvetica,sans-Serif" font-size="14.00"> error: 0.979, n=2612 </text>
<text text-anchor="start" x="1074.97" y="-931.51" font-family="Helvetica,sans-Serif" font-size="14.00"> p: (0.58, 0.42) </text>
<text text-anchor="start" x="1116.47" y="-917.51" font-family="Helvetica,sans-Serif" font-size="14.00">&#45;&#45;&#45;&#45;&#45;</text>
<text text-anchor="start" x="1106.47" y="-903.51" font-family="Helvetica,sans-Serif" font-weight="bold" font-size="14.00">bxqsq</text>
</g>
<!-- 1&#45;&gt;3 -->
<g id="edge3" class="edge">
<title>1:s&#45;&gt;3:n</title>
<path fill="none" stroke="black" d="M896.97,-1024.71C896.97,-1024.71 1075.36,-985.66 1119.95,-975.9"/>
<polygon fill="black" stroke="black" points="1120.95,-979.27 1129.97,-973.71 1119.45,-972.43 1120.95,-979.27"/>
<text text-anchor="middle" x="1044.97" y="-995.51" font-family="Helvetica,sans-Serif" font-size="14.00">f</text>
</g>
<!-- 4 -->
<g id="node5" class="node">
<title>4</title>
<polygon fill="#ccbd3d" stroke="black" points="1031.47,-844.71 858.47,-844.71 858.47,-766.71 1031.47,-766.71 1031.47,-844.71"/>
<text text-anchor="start" x="894.97" y="-830.51" font-family="Helvetica,sans-Serif" font-weight="bold" font-size="14.00"> Class=won </text>
<text text-anchor="start" x="989.97" y="-830.51" font-family="Helvetica,sans-Serif" font-size="14.00"> </text>
<text text-anchor="start" x="866.47" y="-816.51" font-family="Helvetica,sans-Serif" font-size="14.00"> error: 0.981, n=1869 </text>
<text text-anchor="start" x="889.97" y="-802.51" font-family="Helvetica,sans-Serif" font-size="14.00"> p: (0.42, 0.58) </text>
<text text-anchor="start" x="931.47" y="-788.51" font-family="Helvetica,sans-Serif" font-size="14.00">&#45;&#45;&#45;&#45;&#45;</text>
<text text-anchor="start" x="920.47" y="-774.51" font-family="Helvetica,sans-Serif" font-weight="bold" font-size="14.00">wknck</text>
</g>
<!-- 3&#45;&gt;4 -->
<g id="edge4" class="edge">
<title>3:s&#45;&gt;4:n</title>
<path fill="none" stroke="black" d="M1129.97,-895.71C1129.97,-895.71 992.72,-857.87 954.65,-847.38"/>
<polygon fill="black" stroke="black" points="955.54,-843.99 944.97,-844.71 953.68,-850.74 955.54,-843.99"/>
<text text-anchor="middle" x="1062.97" y="-866.51" font-family="Helvetica,sans-Serif" font-size="14.00">f</text>
</g>
<!-- 20 -->
<g id="node6" class="node">
<title>20</title>
<ellipse fill="#ccbd3d" stroke="black" cx="1218.97" cy="-805.71" rx="115.93" ry="35.21"/>
<text text-anchor="start" x="1161.97" y="-816.51" font-family="Helvetica,sans-Serif" font-weight="bold" font-size="14.00"> Class=nowin </text>
<text text-anchor="start" x="1270.97" y="-816.51" font-family="Helvetica,sans-Serif" font-size="14.00"> </text>
<text text-anchor="start" x="1144.97" y="-802.51" font-family="Helvetica,sans-Serif" font-size="14.00"> error: 0.000, n=743 </text>
<text text-anchor="start" x="1163.97" y="-788.51" font-family="Helvetica,sans-Serif" font-size="14.00"> p: (1.00, 0.00) </text>
</g>
<!-- 3&#45;&gt;20 -->
<g id="edge5" class="edge">
<title>3:s&#45;&gt;20:n</title>
<path fill="none" stroke="black" d="M1129.97,-895.71C1129.97,-895.71 1187.59,-861.39 1210.11,-847.99"/>
<polygon fill="black" stroke="black" points="1212.16,-850.83 1218.97,-842.71 1208.58,-844.82 1212.16,-850.83"/>
<text text-anchor="middle" x="1188.97" y="-866.51" font-family="Helvetica,sans-Serif" font-size="14.00">t</text>
</g>
<!-- 5 -->
<g id="node7" class="node">
<title>5</title>
<polygon fill="#ade544" stroke="black" points="897.47,-715.71 724.47,-715.71 724.47,-637.71 897.47,-637.71 897.47,-715.71"/>
<text text-anchor="start" x="760.97" y="-701.51" font-family="Helvetica,sans-Serif" font-weight="bold" font-size="14.00"> Class=won </text>
<text text-anchor="start" x="855.97" y="-701.51" font-family="Helvetica,sans-Serif" font-size="14.00"> </text>
<text text-anchor="start" x="732.47" y="-687.51" font-family="Helvetica,sans-Serif" font-size="14.00"> error: 0.722, n=1299 </text>
<text text-anchor="start" x="755.97" y="-673.51" font-family="Helvetica,sans-Serif" font-size="14.00"> p: (0.20, 0.80) </text>
<text text-anchor="start" x="797.47" y="-659.51" font-family="Helvetica,sans-Serif" font-size="14.00">&#45;&#45;&#45;&#45;&#45;</text>
<text text-anchor="start" x="784.97" y="-645.51" font-family="Helvetica,sans-Serif" font-weight="bold" font-size="14.00">wkna8</text>
</g>
<!-- 4&#45;&gt;5 -->
<g id="edge6" class="edge">
<title>4:s&#45;&gt;5:n</title>
<path fill="none" stroke="black" d="M944.97,-766.71C944.97,-766.71 851.33,-731.07 820.6,-719.38"/>
<polygon fill="black" stroke="black" points="821.56,-716 810.97,-715.71 819.07,-722.54 821.56,-716"/>
<text text-anchor="middle" x="896.97" y="-737.51" font-family="Helvetica,sans-Serif" font-size="14.00">f</text>
</g>
<!-- 14 -->
<g id="node8" class="node">
<title>14</title>
<polygon fill="#ade544" stroke="black" points="1178.97,-715.71 1014.97,-715.71 1014.97,-637.71 1178.97,-637.71 1178.97,-715.71"/>
<text text-anchor="start" x="1039.97" y="-701.51" font-family="Helvetica,sans-Serif" font-weight="bold" font-size="14.00"> Class=nowin </text>
<text text-anchor="start" x="1148.97" y="-701.51" font-family="Helvetica,sans-Serif" font-size="14.00"> </text>
<text text-anchor="start" x="1022.97" y="-687.51" font-family="Helvetica,sans-Serif" font-size="14.00"> error: 0.405, n=570 </text>
<text text-anchor="start" x="1041.97" y="-673.51" font-family="Helvetica,sans-Serif" font-size="14.00"> p: (0.92, 0.08) </text>
<text text-anchor="start" x="1083.47" y="-659.51" font-family="Helvetica,sans-Serif" font-size="14.00">&#45;&#45;&#45;&#45;&#45;</text>
<text text-anchor="start" x="1073.97" y="-645.51" font-family="Helvetica,sans-Serif" font-weight="bold" font-size="14.00">wkovl</text>
</g>
<!-- 4&#45;&gt;14 -->
<g id="edge7" class="edge">
<title>4:s&#45;&gt;14:n</title>
<path fill="none" stroke="black" d="M944.97,-766.71C944.97,-766.71 1054.18,-730.07 1087.46,-718.9"/>
<polygon fill="black" stroke="black" points="1088.6,-722.21 1096.97,-715.71 1086.37,-715.57 1088.6,-722.21"/>
<text text-anchor="middle" x="1042.97" y="-737.51" font-family="Helvetica,sans-Serif" font-size="14.00">t</text>
</g>
<!-- 6 -->
<g id="node9" class="node">
<title>6</title>
<polygon fill="#59cc3d" stroke="black" points="607.47,-586.71 434.47,-586.71 434.47,-508.71 607.47,-508.71 607.47,-586.71"/>
<text text-anchor="start" x="470.97" y="-572.51" font-family="Helvetica,sans-Serif" font-weight="bold" font-size="14.00"> Class=won </text>
<text text-anchor="start" x="565.97" y="-572.51" font-family="Helvetica,sans-Serif" font-size="14.00"> </text>
<text text-anchor="start" x="442.47" y="-558.51" font-family="Helvetica,sans-Serif" font-size="14.00"> error: 0.527, n=1176 </text>
<text text-anchor="start" x="465.97" y="-544.51" font-family="Helvetica,sans-Serif" font-size="14.00"> p: (0.12, 0.88) </text>
<text text-anchor="start" x="507.47" y="-530.51" font-family="Helvetica,sans-Serif" font-size="14.00">&#45;&#45;&#45;&#45;&#45;</text>
<text text-anchor="start" x="496.97" y="-516.51" font-family="Helvetica,sans-Serif" font-weight="bold" font-size="14.00">bkxbq</text>
</g>
<!-- 5&#45;&gt;6 -->
<g id="edge8" class="edge">
<title>5:s&#45;&gt;6:n</title>
<path fill="none" stroke="black" d="M810.97,-637.71C810.97,-637.71 581.94,-597.43 530.95,-588.47"/>
<polygon fill="black" stroke="black" points="531.42,-585 520.97,-586.71 530.21,-591.89 531.42,-585"/>
<text text-anchor="middle" x="703.97" y="-608.51" font-family="Helvetica,sans-Serif" font-size="14.00">f</text>
</g>
<!-- 13 -->
<g id="node10" class="node">
<title>13</title>
<ellipse fill="#59cc3d" stroke="black" cx="810.97" cy="-547.71" rx="115.93" ry="35.21"/>
<text text-anchor="start" x="753.97" y="-558.51" font-family="Helvetica,sans-Serif" font-weight="bold" font-size="14.00"> Class=nowin </text>
<text text-anchor="start" x="862.97" y="-558.51" font-family="Helvetica,sans-Serif" font-size="14.00"> </text>
<text text-anchor="start" x="736.97" y="-544.51" font-family="Helvetica,sans-Serif" font-size="14.00"> error: 0.165, n=123 </text>
<text text-anchor="start" x="755.97" y="-530.51" font-family="Helvetica,sans-Serif" font-size="14.00"> p: (0.98, 0.02) </text>
</g>
<!-- 5&#45;&gt;13 -->
<g id="edge9" class="edge">
<title>5:s&#45;&gt;13:n</title>
<path fill="none" stroke="black" d="M810.97,-637.71C810.97,-637.71 810.97,-610.33 810.97,-594.93"/>
<polygon fill="black" stroke="black" points="814.47,-594.71 810.97,-584.71 807.47,-594.71 814.47,-594.71"/>
<text text-anchor="middle" x="813.97" y="-608.51" font-family="Helvetica,sans-Serif" font-size="14.00">t</text>
</g>
<!-- 15 -->
<g id="node17" class="node">
<title>15</title>
<polygon fill="#59cc3d" stroke="black" points="1178.97,-586.71 1014.97,-586.71 1014.97,-508.71 1178.97,-508.71 1178.97,-586.71"/>
<text text-anchor="start" x="1039.97" y="-572.51" font-family="Helvetica,sans-Serif" font-weight="bold" font-size="14.00"> Class=nowin </text>
<text text-anchor="start" x="1148.97" y="-572.51" font-family="Helvetica,sans-Serif" font-size="14.00"> </text>
<text text-anchor="start" x="1022.97" y="-558.51" font-family="Helvetica,sans-Serif" font-size="14.00"> error: 0.647, n=260 </text>
<text text-anchor="start" x="1041.97" y="-544.51" font-family="Helvetica,sans-Serif" font-size="14.00"> p: (0.83, 0.17) </text>
<text text-anchor="start" x="1083.47" y="-530.51" font-family="Helvetica,sans-Serif" font-size="14.00">&#45;&#45;&#45;&#45;&#45;</text>
<text text-anchor="start" x="1075.47" y="-516.51" font-family="Helvetica,sans-Serif" font-weight="bold" font-size="14.00">bkxcr</text>
</g>
<!-- 14&#45;&gt;15 -->
<g id="edge16" class="edge">
<title>14:s&#45;&gt;15:n</title>
<path fill="none" stroke="black" d="M1096.97,-637.71C1096.97,-637.71 1096.97,-611.93 1096.97,-597.03"/>
<polygon fill="black" stroke="black" points="1100.47,-596.71 1096.97,-586.71 1093.47,-596.71 1100.47,-596.71"/>
<text text-anchor="middle" x="1099.97" y="-608.51" font-family="Helvetica,sans-Serif" font-size="14.00">f</text>
</g>
<!-- 18 -->
<g id="node18" class="node">
<title>18</title>
<polygon fill="#59cc3d" stroke="black" points="1464.97,-586.71 1300.97,-586.71 1300.97,-508.71 1464.97,-508.71 1464.97,-586.71"/>
<text text-anchor="start" x="1325.97" y="-572.51" font-family="Helvetica,sans-Serif" font-weight="bold" font-size="14.00"> Class=nowin </text>
<text text-anchor="start" x="1434.97" y="-572.51" font-family="Helvetica,sans-Serif" font-size="14.00"> </text>
<text text-anchor="start" x="1308.97" y="-558.51" font-family="Helvetica,sans-Serif" font-size="14.00"> error: 0.079, n=310 </text>
<text text-anchor="start" x="1327.97" y="-544.51" font-family="Helvetica,sans-Serif" font-size="14.00"> p: (0.99, 0.01) </text>
<text text-anchor="start" x="1369.47" y="-530.51" font-family="Helvetica,sans-Serif" font-size="14.00">&#45;&#45;&#45;&#45;&#45;</text>
<text text-anchor="start" x="1357.47" y="-516.51" font-family="Helvetica,sans-Serif" font-weight="bold" font-size="14.00">bknwy</text>
</g>
<!-- 14&#45;&gt;18 -->
<g id="edge17" class="edge">
<title>14:s&#45;&gt;18:n</title>
<path fill="none" stroke="black" d="M1096.97,-637.71C1096.97,-637.71 1322.83,-597.43 1373.12,-588.47"/>
<polygon fill="black" stroke="black" points="1373.74,-591.91 1382.97,-586.71 1372.51,-585.02 1373.74,-591.91"/>
<text text-anchor="middle" x="1277.97" y="-608.51" font-family="Helvetica,sans-Serif" font-size="14.00">t</text>
</g>
<!-- 7 -->
<g id="node11" class="node">
<title>7</title>
<polygon fill="#44e56d" stroke="black" points="332.97,-457.71 168.97,-457.71 168.97,-379.71 332.97,-379.71 332.97,-457.71"/>
<text text-anchor="start" x="200.97" y="-443.51" font-family="Helvetica,sans-Serif" font-weight="bold" font-size="14.00"> Class=won </text>
<text text-anchor="start" x="295.97" y="-443.51" font-family="Helvetica,sans-Serif" font-size="14.00"> </text>
<text text-anchor="start" x="176.97" y="-429.51" font-family="Helvetica,sans-Serif" font-size="14.00"> error: 0.799, n=577 </text>
<text text-anchor="start" x="195.97" y="-415.51" font-family="Helvetica,sans-Serif" font-size="14.00"> p: (0.24, 0.76) </text>
<text text-anchor="start" x="237.47" y="-401.51" font-family="Helvetica,sans-Serif" font-size="14.00">&#45;&#45;&#45;&#45;&#45;</text>
<text text-anchor="start" x="225.97" y="-387.51" font-family="Helvetica,sans-Serif" font-weight="bold" font-size="14.00">wkpos</text>
</g>
<!-- 6&#45;&gt;7 -->
<g id="edge10" class="edge">
<title>6:s&#45;&gt;7:n</title>
<path fill="none" stroke="black" d="M520.97,-508.71C520.97,-508.71 309.61,-468.79 260.9,-459.59"/>
<polygon fill="black" stroke="black" points="261.44,-456.13 250.97,-457.71 260.14,-463.01 261.44,-456.13"/>
<text text-anchor="middle" x="421.97" y="-479.51" font-family="Helvetica,sans-Serif" font-size="14.00">f</text>
</g>
<!-- 12 -->
<g id="node12" class="node">
<title>12</title>
<ellipse fill="#44e56d" stroke="black" cx="520.97" cy="-418.71" rx="115.93" ry="35.21"/>
<text text-anchor="start" x="470.97" y="-429.51" font-family="Helvetica,sans-Serif" font-weight="bold" font-size="14.00"> Class=won </text>
<text text-anchor="start" x="565.97" y="-429.51" font-family="Helvetica,sans-Serif" font-size="14.00"> </text>
<text text-anchor="start" x="446.97" y="-415.51" font-family="Helvetica,sans-Serif" font-size="14.00"> error: 0.000, n=599 </text>
<text text-anchor="start" x="465.97" y="-401.51" font-family="Helvetica,sans-Serif" font-size="14.00"> p: (0.00, 1.00) </text>
</g>
<!-- 6&#45;&gt;12 -->
<g id="edge11" class="edge">
<title>6:s&#45;&gt;12:n</title>
<path fill="none" stroke="black" d="M520.97,-508.71C520.97,-508.71 520.97,-481.33 520.97,-465.93"/>
<polygon fill="black" stroke="black" points="524.47,-465.71 520.97,-455.71 517.47,-465.71 524.47,-465.71"/>
<text text-anchor="middle" x="523.97" y="-479.51" font-family="Helvetica,sans-Serif" font-size="14.00">t</text>
</g>
<!-- 8 -->
<g id="node13" class="node">
<title>8</title>
<polygon fill="#3dcca1" stroke="black" points="197.97,-328.71 33.97,-328.71 33.97,-250.71 197.97,-250.71 197.97,-328.71"/>
<text text-anchor="start" x="65.97" y="-314.51" font-family="Helvetica,sans-Serif" font-weight="bold" font-size="14.00"> Class=won </text>
<text text-anchor="start" x="160.97" y="-314.51" font-family="Helvetica,sans-Serif" font-size="14.00"> </text>
<text text-anchor="start" x="41.97" y="-300.51" font-family="Helvetica,sans-Serif" font-size="14.00"> error: 0.471, n=378 </text>
<text text-anchor="start" x="60.97" y="-286.51" font-family="Helvetica,sans-Serif" font-size="14.00"> p: (0.10, 0.90) </text>
<text text-anchor="start" x="102.47" y="-272.51" font-family="Helvetica,sans-Serif" font-size="14.00">&#45;&#45;&#45;&#45;&#45;</text>
<text text-anchor="start" x="97.47" y="-258.51" font-family="Helvetica,sans-Serif" font-weight="bold" font-size="14.00">katri</text>
</g>
<!-- 7&#45;&gt;8 -->
<g id="edge12" class="edge">
<title>7:s&#45;&gt;8:n</title>
<path fill="none" stroke="black" d="M250.97,-379.71C250.97,-379.71 156.63,-344.07 125.67,-332.38"/>
<polygon fill="black" stroke="black" points="126.56,-328.97 115.97,-328.71 124.08,-335.52 126.56,-328.97"/>
<text text-anchor="middle" x="202.97" y="-350.51" font-family="Helvetica,sans-Serif" font-size="14.00">t</text>
</g>
<!-- 11 -->
<g id="node14" class="node">
<title>11</title>
<ellipse fill="#3dcca1" stroke="black" cx="385.97" cy="-289.71" rx="115.93" ry="35.21"/>
<text text-anchor="start" x="328.97" y="-300.51" font-family="Helvetica,sans-Serif" font-weight="bold" font-size="14.00"> Class=nowin </text>
<text text-anchor="start" x="437.97" y="-300.51" font-family="Helvetica,sans-Serif" font-size="14.00"> </text>
<text text-anchor="start" x="311.97" y="-286.51" font-family="Helvetica,sans-Serif" font-size="14.00"> error: 1.000, n=199 </text>
<text text-anchor="start" x="330.97" y="-272.51" font-family="Helvetica,sans-Serif" font-size="14.00"> p: (0.51, 0.49) </text>
</g>
<!-- 7&#45;&gt;11 -->
<g id="edge13" class="edge">
<title>7:s&#45;&gt;11:n</title>
<path fill="none" stroke="black" d="M250.97,-379.71C250.97,-379.71 345.3,-342.67 376.26,-330.52"/>
<polygon fill="black" stroke="black" points="377.94,-333.62 385.97,-326.71 375.38,-327.11 377.94,-333.62"/>
<text text-anchor="middle" x="337.97" y="-350.51" font-family="Helvetica,sans-Serif" font-size="14.00">f</text>
</g>
<!-- 9 -->
<g id="node15" class="node">
<title>9</title>
<polygon fill="#44cde5" stroke="black" points="197.97,-199.71 33.97,-199.71 33.97,-121.71 197.97,-121.71 197.97,-199.71"/>
<text text-anchor="start" x="65.97" y="-185.51" font-family="Helvetica,sans-Serif" font-weight="bold" font-size="14.00"> Class=won </text>
<text text-anchor="start" x="160.97" y="-185.51" font-family="Helvetica,sans-Serif" font-size="14.00"> </text>
<text text-anchor="start" x="41.97" y="-171.51" font-family="Helvetica,sans-Serif" font-size="14.00"> error: 0.315, n=299 </text>
<text text-anchor="start" x="60.97" y="-157.51" font-family="Helvetica,sans-Serif" font-size="14.00"> p: (0.06, 0.94) </text>
<text text-anchor="start" x="102.47" y="-143.51" font-family="Helvetica,sans-Serif" font-size="14.00">&#45;&#45;&#45;&#45;&#45;</text>
<text text-anchor="start" x="91.47" y="-129.51" font-family="Helvetica,sans-Serif" font-weight="bold" font-size="14.00">rxmsq</text>
</g>
<!-- 8&#45;&gt;9 -->
<g id="edge14" class="edge">
<title>8:s&#45;&gt;9:n</title>
<path fill="none" stroke="black" d="M115.97,-250.71C115.97,-250.71 115.97,-224.93 115.97,-210.03"/>
<polygon fill="black" stroke="black" points="119.47,-209.71 115.97,-199.71 112.47,-209.71 119.47,-209.71"/>
<text text-anchor="middle" x="120.97" y="-221.51" font-family="Helvetica,sans-Serif" font-size="14.00">n</text>
</g>
<!-- 10 -->
<g id="node16" class="node">
<title>10</title>
<ellipse fill="#3d76cc" stroke="black" cx="115.97" cy="-35.36" rx="115.93" ry="35.21"/>
<text text-anchor="start" x="65.97" y="-46.16" font-family="Helvetica,sans-Serif" font-weight="bold" font-size="14.00"> Class=won </text>
<text text-anchor="start" x="160.97" y="-46.16" font-family="Helvetica,sans-Serif" font-size="14.00"> </text>
<text text-anchor="start" x="41.97" y="-32.16" font-family="Helvetica,sans-Serif" font-size="14.00"> error: 0.066, n=257 </text>
<text text-anchor="start" x="60.97" y="-18.16" font-family="Helvetica,sans-Serif" font-size="14.00"> p: (0.01, 0.99) </text>
</g>
<!-- 9&#45;&gt;10 -->
<g id="edge15" class="edge">
<title>9:s&#45;&gt;10:n</title>
<path fill="none" stroke="black" d="M115.97,-121.71C115.97,-121.71 115.97,-95.93 115.97,-81.03"/>
<polygon fill="black" stroke="black" points="119.47,-80.71 115.97,-70.71 112.47,-80.71 119.47,-80.71"/>
<text text-anchor="middle" x="118.97" y="-92.51" font-family="Helvetica,sans-Serif" font-size="14.00">f</text>
</g>
<!-- 16 -->
<g id="node19" class="node">
<title>16</title>
<ellipse fill="#44e56d" stroke="black" cx="824.97" cy="-418.71" rx="115.93" ry="35.21"/>
<text text-anchor="start" x="767.97" y="-429.51" font-family="Helvetica,sans-Serif" font-weight="bold" font-size="14.00"> Class=nowin </text>
<text text-anchor="start" x="876.97" y="-429.51" font-family="Helvetica,sans-Serif" font-size="14.00"> </text>
<text text-anchor="start" x="750.97" y="-415.51" font-family="Helvetica,sans-Serif" font-size="14.00"> error: 0.885, n=142 </text>
<text text-anchor="start" x="769.97" y="-401.51" font-family="Helvetica,sans-Serif" font-size="14.00"> p: (0.70, 0.30) </text>
</g>
<!-- 15&#45;&gt;16 -->
<g id="edge18" class="edge">
<title>15:s&#45;&gt;16:n</title>
<path fill="none" stroke="black" d="M1096.97,-508.71C1096.97,-508.71 884.04,-467.22 834.97,-457.66"/>
<polygon fill="black" stroke="black" points="835.45,-454.19 824.97,-455.71 834.11,-461.06 835.45,-454.19"/>
<text text-anchor="middle" x="1004.97" y="-479.51" font-family="Helvetica,sans-Serif" font-size="14.00">f</text>
</g>
<!-- 17 -->
<g id="node20" class="node">
<title>17</title>
<ellipse fill="#44e56d" stroke="black" cx="1128.97" cy="-418.71" rx="115.93" ry="35.21"/>
<text text-anchor="start" x="1071.97" y="-429.51" font-family="Helvetica,sans-Serif" font-weight="bold" font-size="14.00"> Class=nowin </text>
<text text-anchor="start" x="1180.97" y="-429.51" font-family="Helvetica,sans-Serif" font-size="14.00"> </text>
<text text-anchor="start" x="1054.97" y="-415.51" font-family="Helvetica,sans-Serif" font-size="14.00"> error: 0.000, n=118 </text>
<text text-anchor="start" x="1073.97" y="-401.51" font-family="Helvetica,sans-Serif" font-size="14.00"> p: (1.00, 0.00) </text>
</g>
<!-- 15&#45;&gt;17 -->
<g id="edge19" class="edge">
<title>15:s&#45;&gt;17:n</title>
<path fill="none" stroke="black" d="M1096.97,-508.71C1096.97,-508.71 1114.59,-479.52 1123.68,-464.46"/>
<polygon fill="black" stroke="black" points="1126.79,-466.08 1128.97,-455.71 1120.8,-462.46 1126.79,-466.08"/>
<text text-anchor="middle" x="1119.97" y="-479.51" font-family="Helvetica,sans-Serif" font-size="14.00">t</text>
</g>
<!-- 19 -->
<g id="node21" class="node">
<title>19</title>
<ellipse fill="#44e56d" stroke="black" cx="1432.97" cy="-418.71" rx="115.93" ry="35.21"/>
<text text-anchor="start" x="1375.97" y="-429.51" font-family="Helvetica,sans-Serif" font-weight="bold" font-size="14.00"> Class=nowin </text>
<text text-anchor="start" x="1484.97" y="-429.51" font-family="Helvetica,sans-Serif" font-size="14.00"> </text>
<text text-anchor="start" x="1358.97" y="-415.51" font-family="Helvetica,sans-Serif" font-size="14.00"> error: 0.000, n=302 </text>
<text text-anchor="start" x="1377.97" y="-401.51" font-family="Helvetica,sans-Serif" font-size="14.00"> p: (1.00, 0.00) </text>
</g>
<!-- 18&#45;&gt;19 -->
<g id="edge20" class="edge">
<title>18:s&#45;&gt;19:n</title>
<path fill="none" stroke="black" d="M1382.97,-508.71C1382.97,-508.71 1412.27,-477.64 1426.01,-463.08"/>
<polygon fill="black" stroke="black" points="1428.65,-465.39 1432.97,-455.71 1423.56,-460.58 1428.65,-465.39"/>
<text text-anchor="middle" x="1416.97" y="-479.51" font-family="Helvetica,sans-Serif" font-size="14.00">f</text>
</g>
</g>
</svg>
