<?xml version="1.0" encoding="UTF-8" standalone="no"?>
<!DOCTYPE svg PUBLIC "-//W3C//DTD SVG 1.1//EN"
 "http://www.w3.org/Graphics/SVG/1.1/DTD/svg11.dtd">
<!-- Generated by graphviz version 2.43.0 (0)
 -->
<!-- Title: Tree Pages: 1 -->
<svg width="2036pt" height="1083pt"
 viewBox="0.00 0.00 2035.66 1082.71" xmlns="http://www.w3.org/2000/svg" xmlns:xlink="http://www.w3.org/1999/xlink">
<g id="graph0" class="graph" transform="scale(1 1) rotate(0) translate(18 1064.71)">
<title>Tree</title>
<polygon fill="white" stroke="transparent" points="-18,18 -18,-1064.71 2017.66,-1064.71 2017.66,18 -18,18"/>
<!-- 0 -->
<g id="node1" class="node">
<title>0</title>
<polygon fill="white" stroke="transparent" points="1174.33,-1046.71 1120.33,-1046.71 1120.33,-1010.71 1174.33,-1010.71 1174.33,-1046.71"/>
<text text-anchor="middle" x="1147.33" y="-1025.01" font-family="Helvetica,sans-Serif" font-size="14.00">0</text>
</g>
<!-- 1 -->
<g id="node2" class="node">
<title>1</title>
<polygon fill="#cc3d3d" stroke="black" points="1238.33,-973.71 1056.33,-973.71 1056.33,-895.71 1238.33,-895.71 1238.33,-973.71"/>
<text text-anchor="start" x="1108.33" y="-959.51" font-family="Helvetica,sans-Serif" font-weight="bold" font-size="14.00"> Class=2 </text>
<text text-anchor="start" x="1181.33" y="-959.51" font-family="Helvetica,sans-Serif" font-size="14.00"> </text>
<text text-anchor="start" x="1064.33" y="-945.51" font-family="Helvetica,sans-Serif" font-size="14.00"> error: 0.863, n=34465 </text>
<text text-anchor="start" x="1092.33" y="-931.51" font-family="Helvetica,sans-Serif" font-size="14.00"> p: (0.29, 0.71) </text>
<text text-anchor="start" x="1136.33" y="-917.51" font-family="Helvetica,sans-Serif" font-size="14.00">&#45;&#45;&#45;&#45;</text>
<text text-anchor="start" x="1127.33" y="-903.51" font-family="Helvetica,sans-Serif" font-weight="bold" font-size="14.00">V100</text>
</g>
<!-- 0&#45;&gt;1 -->
<!-- 2 -->
<g id="node3" class="node">
<title>2</title>
<polygon fill="#e59744" stroke="black" points="1095.33,-844.71 913.33,-844.71 913.33,-766.71 1095.33,-766.71 1095.33,-844.71"/>
<text text-anchor="start" x="965.33" y="-830.51" font-family="Helvetica,sans-Serif" font-weight="bold" font-size="14.00"> Class=1 </text>
<text text-anchor="start" x="1038.33" y="-830.51" font-family="Helvetica,sans-Serif" font-size="14.00"> </text>
<text text-anchor="start" x="921.33" y="-816.51" font-family="Helvetica,sans-Serif" font-size="14.00"> error: 0.996, n=16355 </text>
<text text-anchor="start" x="949.33" y="-802.51" font-family="Helvetica,sans-Serif" font-size="14.00"> p: (0.54, 0.46) </text>
<text text-anchor="start" x="998.83" y="-788.51" font-family="Helvetica,sans-Serif" font-size="14.00">&#45;&#45;</text>
<text text-anchor="start" x="993.83" y="-774.51" font-family="Helvetica,sans-Serif" font-weight="bold" font-size="14.00">V7</text>
</g>
<!-- 1&#45;&gt;2 -->
<g id="edge2" class="edge">
<title>1:s&#45;&gt;2:n</title>
<path fill="none" stroke="black" d="M1147.33,-895.71C1147.33,-895.71 1046.47,-859.74 1014.16,-848.22"/>
<polygon fill="black" stroke="black" points="1014.92,-844.77 1004.33,-844.71 1012.57,-851.37 1014.92,-844.77"/>
<text text-anchor="middle" x="1098.33" y="-866.51" font-family="Helvetica,sans-Serif" font-size="14.00">2</text>
</g>
<!-- 17 -->
<g id="node4" class="node">
<title>17</title>
<polygon fill="#e59744" stroke="black" points="1394.33,-844.71 1212.33,-844.71 1212.33,-766.71 1394.33,-766.71 1394.33,-844.71"/>
<text text-anchor="start" x="1264.33" y="-830.51" font-family="Helvetica,sans-Serif" font-weight="bold" font-size="14.00"> Class=2 </text>
<text text-anchor="start" x="1337.33" y="-830.51" font-family="Helvetica,sans-Serif" font-size="14.00"> </text>
<text text-anchor="start" x="1220.33" y="-816.51" font-family="Helvetica,sans-Serif" font-size="14.00"> error: 0.206, n=17183 </text>
<text text-anchor="start" x="1248.33" y="-802.51" font-family="Helvetica,sans-Serif" font-size="14.00"> p: (0.03, 0.97) </text>
<text text-anchor="start" x="1297.83" y="-788.51" font-family="Helvetica,sans-Serif" font-size="14.00">&#45;&#45;</text>
<text text-anchor="start" x="1292.83" y="-774.51" font-family="Helvetica,sans-Serif" font-weight="bold" font-size="14.00">V7</text>
</g>
<!-- 1&#45;&gt;17 -->
<g id="edge3" class="edge">
<title>1:s&#45;&gt;17:n</title>
<path fill="none" stroke="black" d="M1147.33,-895.71C1147.33,-895.71 1259.42,-859.07 1293.57,-847.9"/>
<polygon fill="black" stroke="black" points="1294.91,-851.14 1303.33,-844.71 1292.74,-844.49 1294.91,-851.14"/>
<text text-anchor="middle" x="1249.33" y="-866.51" font-family="Helvetica,sans-Serif" font-size="14.00">3</text>
</g>
<!-- 3 -->
<g id="node5" class="node">
<title>3</title>
<polygon fill="#c8cc3d" stroke="black" points="775.33,-715.71 593.33,-715.71 593.33,-637.71 775.33,-637.71 775.33,-715.71"/>
<text text-anchor="start" x="645.33" y="-701.51" font-family="Helvetica,sans-Serif" font-weight="bold" font-size="14.00"> Class=1 </text>
<text text-anchor="start" x="718.33" y="-701.51" font-family="Helvetica,sans-Serif" font-size="14.00"> </text>
<text text-anchor="start" x="601.33" y="-687.51" font-family="Helvetica,sans-Serif" font-size="14.00"> error: 0.787, n=10692 </text>
<text text-anchor="start" x="629.33" y="-673.51" font-family="Helvetica,sans-Serif" font-size="14.00"> p: (0.76, 0.24) </text>
<text text-anchor="start" x="676.33" y="-659.51" font-family="Helvetica,sans-Serif" font-size="14.00">&#45;&#45;&#45;</text>
<text text-anchor="start" x="668.83" y="-645.51" font-family="Helvetica,sans-Serif" font-weight="bold" font-size="14.00">V92</text>
</g>
<!-- 2&#45;&gt;3 -->
<g id="edge4" class="edge">
<title>2:s&#45;&gt;3:n</title>
<path fill="none" stroke="black" d="M1004.33,-766.71C1004.33,-766.71 748.27,-725.9 694.26,-717.29"/>
<polygon fill="black" stroke="black" points="694.76,-713.83 684.33,-715.71 693.65,-720.74 694.76,-713.83"/>
<text text-anchor="middle" x="888.33" y="-737.51" font-family="Helvetica,sans-Serif" font-size="14.00">1</text>
</g>
<!-- 13 -->
<g id="node6" class="node">
<title>13</title>
<polygon fill="#c8cc3d" stroke="black" points="1090.83,-715.71 917.83,-715.71 917.83,-637.71 1090.83,-637.71 1090.83,-715.71"/>
<text text-anchor="start" x="965.33" y="-701.51" font-family="Helvetica,sans-Serif" font-weight="bold" font-size="14.00"> Class=2 </text>
<text text-anchor="start" x="1038.33" y="-701.51" font-family="Helvetica,sans-Serif" font-size="14.00"> </text>
<text text-anchor="start" x="925.83" y="-687.51" font-family="Helvetica,sans-Serif" font-size="14.00"> error: 0.488, n=5663 </text>
<text text-anchor="start" x="949.33" y="-673.51" font-family="Helvetica,sans-Serif" font-size="14.00"> p: (0.11, 0.89) </text>
<text text-anchor="start" x="996.33" y="-659.51" font-family="Helvetica,sans-Serif" font-size="14.00">&#45;&#45;&#45;</text>
<text text-anchor="start" x="988.83" y="-645.51" font-family="Helvetica,sans-Serif" font-weight="bold" font-size="14.00">V23</text>
</g>
<!-- 2&#45;&gt;13 -->
<g id="edge5" class="edge">
<title>2:s&#45;&gt;13:n</title>
<path fill="none" stroke="black" d="M1004.33,-766.71C1004.33,-766.71 1004.33,-740.93 1004.33,-726.03"/>
<polygon fill="black" stroke="black" points="1007.83,-725.71 1004.33,-715.71 1000.83,-725.71 1007.83,-725.71"/>
<text text-anchor="middle" x="1009.33" y="-737.51" font-family="Helvetica,sans-Serif" font-size="14.00">2</text>
</g>
<!-- 18 -->
<g id="node19" class="node">
<title>18</title>
<ellipse fill="#c8cc3d" stroke="black" cx="1303.33" cy="-676.71" rx="128.89" ry="35.21"/>
<text text-anchor="start" x="1264.33" y="-687.51" font-family="Helvetica,sans-Serif" font-weight="bold" font-size="14.00"> Class=2 </text>
<text text-anchor="start" x="1337.33" y="-687.51" font-family="Helvetica,sans-Serif" font-size="14.00"> </text>
<text text-anchor="start" x="1220.33" y="-673.51" font-family="Helvetica,sans-Serif" font-size="14.00"> error: 0.018, n=11664 </text>
<text text-anchor="start" x="1248.33" y="-659.51" font-family="Helvetica,sans-Serif" font-size="14.00"> p: (0.00, 1.00) </text>
</g>
<!-- 17&#45;&gt;18 -->
<g id="edge18" class="edge">
<title>17:s&#45;&gt;18:n</title>
<path fill="none" stroke="black" d="M1303.33,-766.71C1303.33,-766.71 1303.33,-738.81 1303.33,-723.12"/>
<polygon fill="black" stroke="black" points="1306.83,-722.71 1303.33,-712.71 1299.83,-722.71 1306.83,-722.71"/>
<text text-anchor="middle" x="1308.33" y="-737.51" font-family="Helvetica,sans-Serif" font-size="14.00">2</text>
</g>
<!-- 19 -->
<g id="node20" class="node">
<title>19</title>
<polygon fill="#c8cc3d" stroke="black" points="1682.83,-715.71 1509.83,-715.71 1509.83,-637.71 1682.83,-637.71 1682.83,-715.71"/>
<text text-anchor="start" x="1557.33" y="-701.51" font-family="Helvetica,sans-Serif" font-weight="bold" font-size="14.00"> Class=2 </text>
<text text-anchor="start" x="1630.33" y="-701.51" font-family="Helvetica,sans-Serif" font-size="14.00"> </text>
<text text-anchor="start" x="1517.83" y="-687.51" font-family="Helvetica,sans-Serif" font-size="14.00"> error: 0.460, n=5519 </text>
<text text-anchor="start" x="1541.33" y="-673.51" font-family="Helvetica,sans-Serif" font-size="14.00"> p: (0.10, 0.90) </text>
<text text-anchor="start" x="1588.33" y="-659.51" font-family="Helvetica,sans-Serif" font-size="14.00">&#45;&#45;&#45;</text>
<text text-anchor="start" x="1580.83" y="-645.51" font-family="Helvetica,sans-Serif" font-weight="bold" font-size="14.00">V92</text>
</g>
<!-- 17&#45;&gt;19 -->
<g id="edge19" class="edge">
<title>17:s&#45;&gt;19:n</title>
<path fill="none" stroke="black" d="M1303.33,-766.71C1303.33,-766.71 1534.72,-726.43 1586.24,-717.47"/>
<polygon fill="black" stroke="black" points="1587.08,-720.87 1596.33,-715.71 1585.88,-713.98 1587.08,-720.87"/>
<text text-anchor="middle" x="1490.33" y="-737.51" font-family="Helvetica,sans-Serif" font-size="14.00">1</text>
</g>
<!-- 4 -->
<g id="node7" class="node">
<title>4</title>
<polygon fill="#8ee544" stroke="black" points="489.83,-586.71 316.83,-586.71 316.83,-508.71 489.83,-508.71 489.83,-586.71"/>
<text text-anchor="start" x="364.33" y="-572.51" font-family="Helvetica,sans-Serif" font-weight="bold" font-size="14.00"> Class=1 </text>
<text text-anchor="start" x="437.33" y="-572.51" font-family="Helvetica,sans-Serif" font-size="14.00"> </text>
<text text-anchor="start" x="324.83" y="-558.51" font-family="Helvetica,sans-Serif" font-size="14.00"> error: 0.694, n=6958 </text>
<text text-anchor="start" x="348.33" y="-544.51" font-family="Helvetica,sans-Serif" font-size="14.00"> p: (0.81, 0.19) </text>
<text text-anchor="start" x="395.33" y="-530.51" font-family="Helvetica,sans-Serif" font-size="14.00">&#45;&#45;&#45;</text>
<text text-anchor="start" x="387.83" y="-516.51" font-family="Helvetica,sans-Serif" font-weight="bold" font-size="14.00">V31</text>
</g>
<!-- 3&#45;&gt;4 -->
<g id="edge6" class="edge">
<title>3:s&#45;&gt;4:n</title>
<path fill="none" stroke="black" d="M684.33,-637.71C684.33,-637.71 463.39,-597.61 413.33,-588.53"/>
<polygon fill="black" stroke="black" points="413.79,-585.05 403.33,-586.71 412.54,-591.94 413.79,-585.05"/>
<text text-anchor="middle" x="582.33" y="-608.51" font-family="Helvetica,sans-Serif" font-size="14.00">1</text>
</g>
<!-- 11 -->
<g id="node8" class="node">
<title>11</title>
<polygon fill="#8ee544" stroke="black" points="770.83,-586.71 597.83,-586.71 597.83,-508.71 770.83,-508.71 770.83,-586.71"/>
<text text-anchor="start" x="645.33" y="-572.51" font-family="Helvetica,sans-Serif" font-weight="bold" font-size="14.00"> Class=1 </text>
<text text-anchor="start" x="718.33" y="-572.51" font-family="Helvetica,sans-Serif" font-size="14.00"> </text>
<text text-anchor="start" x="605.83" y="-558.51" font-family="Helvetica,sans-Serif" font-size="14.00"> error: 0.336, n=2588 </text>
<text text-anchor="start" x="629.33" y="-544.51" font-family="Helvetica,sans-Serif" font-size="14.00"> p: (0.94, 0.06) </text>
<text text-anchor="start" x="660.33" y="-530.51" font-family="Helvetica,sans-Serif" font-size="14.00">&#45;&#45;&#45;&#45;&#45;&#45;&#45;&#45;&#45;</text>
<text text-anchor="start" x="643.33" y="-516.51" font-family="Helvetica,sans-Serif" font-weight="bold" font-size="14.00">v_14=0.01</text>
</g>
<!-- 3&#45;&gt;11 -->
<g id="edge7" class="edge">
<title>3:s&#45;&gt;11:n</title>
<path fill="none" stroke="black" d="M684.33,-637.71C684.33,-637.71 684.33,-611.93 684.33,-597.03"/>
<polygon fill="black" stroke="black" points="687.83,-596.71 684.33,-586.71 680.83,-596.71 687.83,-596.71"/>
<text text-anchor="middle" x="689.33" y="-608.51" font-family="Helvetica,sans-Serif" font-size="14.00">2</text>
</g>
<!-- 14 -->
<g id="node16" class="node">
<title>14</title>
<polygon fill="#8ee544" stroke="black" points="1090.83,-586.71 917.83,-586.71 917.83,-508.71 1090.83,-508.71 1090.83,-586.71"/>
<text text-anchor="start" x="965.33" y="-572.51" font-family="Helvetica,sans-Serif" font-weight="bold" font-size="14.00"> Class=2 </text>
<text text-anchor="start" x="1038.33" y="-572.51" font-family="Helvetica,sans-Serif" font-size="14.00"> </text>
<text text-anchor="start" x="925.83" y="-558.51" font-family="Helvetica,sans-Serif" font-size="14.00"> error: 0.326, n=4552 </text>
<text text-anchor="start" x="949.33" y="-544.51" font-family="Helvetica,sans-Serif" font-size="14.00"> p: (0.06, 0.94) </text>
<text text-anchor="start" x="996.33" y="-530.51" font-family="Helvetica,sans-Serif" font-size="14.00">&#45;&#45;&#45;</text>
<text text-anchor="start" x="988.83" y="-516.51" font-family="Helvetica,sans-Serif" font-weight="bold" font-size="14.00">V92</text>
</g>
<!-- 13&#45;&gt;14 -->
<g id="edge15" class="edge">
<title>13:s&#45;&gt;14:n</title>
<path fill="none" stroke="black" d="M1004.33,-637.71C1004.33,-637.71 1004.33,-611.93 1004.33,-597.03"/>
<polygon fill="black" stroke="black" points="1007.83,-596.71 1004.33,-586.71 1000.83,-596.71 1007.83,-596.71"/>
<text text-anchor="middle" x="1009.33" y="-608.51" font-family="Helvetica,sans-Serif" font-size="14.00">1</text>
</g>
<!-- 5 -->
<g id="node9" class="node">
<title>5</title>
<ellipse fill="#3dcc45" stroke="black" cx="122.33" cy="-418.71" rx="122.16" ry="35.21"/>
<text text-anchor="start" x="83.33" y="-429.51" font-family="Helvetica,sans-Serif" font-weight="bold" font-size="14.00"> Class=1 </text>
<text text-anchor="start" x="156.33" y="-429.51" font-family="Helvetica,sans-Serif" font-size="14.00"> </text>
<text text-anchor="start" x="43.83" y="-415.51" font-family="Helvetica,sans-Serif" font-size="14.00"> error: 0.294, n=2336 </text>
<text text-anchor="start" x="67.33" y="-401.51" font-family="Helvetica,sans-Serif" font-size="14.00"> p: (0.95, 0.05) </text>
</g>
<!-- 4&#45;&gt;5 -->
<g id="edge8" class="edge">
<title>4:s&#45;&gt;5:n</title>
<path fill="none" stroke="black" d="M403.33,-508.71C403.33,-508.71 182.39,-467.04 132.33,-457.6"/>
<polygon fill="black" stroke="black" points="132.8,-454.12 122.33,-455.71 131.51,-461 132.8,-454.12"/>
<text text-anchor="middle" x="310.33" y="-479.51" font-family="Helvetica,sans-Serif" font-size="14.00">2</text>
</g>
<!-- 6 -->
<g id="node10" class="node">
<title>6</title>
<polygon fill="#3dcc45" stroke="black" points="489.83,-457.71 316.83,-457.71 316.83,-379.71 489.83,-379.71 489.83,-457.71"/>
<text text-anchor="start" x="364.33" y="-443.51" font-family="Helvetica,sans-Serif" font-weight="bold" font-size="14.00"> Class=1 </text>
<text text-anchor="start" x="437.33" y="-443.51" font-family="Helvetica,sans-Serif" font-size="14.00"> </text>
<text text-anchor="start" x="324.83" y="-429.51" font-family="Helvetica,sans-Serif" font-size="14.00"> error: 0.806, n=4318 </text>
<text text-anchor="start" x="348.33" y="-415.51" font-family="Helvetica,sans-Serif" font-size="14.00"> p: (0.75, 0.25) </text>
<text text-anchor="start" x="381.83" y="-401.51" font-family="Helvetica,sans-Serif" font-size="14.00">&#45;&#45;&#45;&#45;&#45;&#45;&#45;&#45;</text>
<text text-anchor="start" x="366.83" y="-387.51" font-family="Helvetica,sans-Serif" font-weight="bold" font-size="14.00">v_1=0.18</text>
</g>
<!-- 4&#45;&gt;6 -->
<g id="edge9" class="edge">
<title>4:s&#45;&gt;6:n</title>
<path fill="none" stroke="black" d="M403.33,-508.71C403.33,-508.71 403.33,-482.93 403.33,-468.03"/>
<polygon fill="black" stroke="black" points="406.83,-467.71 403.33,-457.71 399.83,-467.71 406.83,-467.71"/>
<text text-anchor="middle" x="408.33" y="-479.51" font-family="Helvetica,sans-Serif" font-size="14.00">1</text>
</g>
<!-- 12 -->
<g id="node15" class="node">
<title>12</title>
<ellipse fill="#3dcc45" stroke="black" cx="684.33" cy="-418.71" rx="122.16" ry="35.21"/>
<text text-anchor="start" x="645.33" y="-429.51" font-family="Helvetica,sans-Serif" font-weight="bold" font-size="14.00"> Class=1 </text>
<text text-anchor="start" x="718.33" y="-429.51" font-family="Helvetica,sans-Serif" font-size="14.00"> </text>
<text text-anchor="start" x="605.83" y="-415.51" font-family="Helvetica,sans-Serif" font-size="14.00"> error: 0.206, n=2258 </text>
<text text-anchor="start" x="629.33" y="-401.51" font-family="Helvetica,sans-Serif" font-size="14.00"> p: (0.97, 0.03) </text>
</g>
<!-- 11&#45;&gt;12 -->
<g id="edge14" class="edge">
<title>11:s&#45;&gt;12:n</title>
<path fill="none" stroke="black" d="M684.33,-508.71C684.33,-508.71 684.33,-481.33 684.33,-465.93"/>
<polygon fill="black" stroke="black" points="687.83,-465.71 684.33,-455.71 680.83,-465.71 687.83,-465.71"/>
<text text-anchor="middle" x="724.83" y="-479.51" font-family="Helvetica,sans-Serif" font-size="14.00">&gt; &#45;0.02101</text>
</g>
<!-- 7 -->
<g id="node11" class="node">
<title>7</title>
<ellipse fill="#44e5a1" stroke="black" cx="295.33" cy="-289.71" rx="122.16" ry="35.21"/>
<text text-anchor="start" x="256.33" y="-300.51" font-family="Helvetica,sans-Serif" font-weight="bold" font-size="14.00"> Class=1 </text>
<text text-anchor="start" x="329.33" y="-300.51" font-family="Helvetica,sans-Serif" font-size="14.00"> </text>
<text text-anchor="start" x="216.83" y="-286.51" font-family="Helvetica,sans-Serif" font-size="14.00"> error: 0.359, n=1495 </text>
<text text-anchor="start" x="240.33" y="-272.51" font-family="Helvetica,sans-Serif" font-size="14.00"> p: (0.93, 0.07) </text>
</g>
<!-- 6&#45;&gt;7 -->
<g id="edge10" class="edge">
<title>6:s&#45;&gt;7:n</title>
<path fill="none" stroke="black" d="M403.33,-379.71C403.33,-379.71 330.65,-344.05 304.54,-331.23"/>
<polygon fill="black" stroke="black" points="305.85,-327.97 295.33,-326.71 302.76,-334.26 305.85,-327.97"/>
<text text-anchor="middle" x="383.83" y="-350.51" font-family="Helvetica,sans-Serif" font-size="14.00">&lt;= &#45;1.011</text>
</g>
<!-- 8 -->
<g id="node12" class="node">
<title>8</title>
<polygon fill="#44e5a1" stroke="black" points="662.83,-328.71 489.83,-328.71 489.83,-250.71 662.83,-250.71 662.83,-328.71"/>
<text text-anchor="start" x="537.33" y="-314.51" font-family="Helvetica,sans-Serif" font-weight="bold" font-size="14.00"> Class=1 </text>
<text text-anchor="start" x="610.33" y="-314.51" font-family="Helvetica,sans-Serif" font-size="14.00"> </text>
<text text-anchor="start" x="497.83" y="-300.51" font-family="Helvetica,sans-Serif" font-size="14.00"> error: 0.926, n=2823 </text>
<text text-anchor="start" x="521.33" y="-286.51" font-family="Helvetica,sans-Serif" font-size="14.00"> p: (0.66, 0.34) </text>
<text text-anchor="start" x="554.83" y="-272.51" font-family="Helvetica,sans-Serif" font-size="14.00">&#45;&#45;&#45;&#45;&#45;&#45;&#45;&#45;</text>
<text text-anchor="start" x="539.83" y="-258.51" font-family="Helvetica,sans-Serif" font-weight="bold" font-size="14.00">v_0=0.32</text>
</g>
<!-- 6&#45;&gt;8 -->
<g id="edge11" class="edge">
<title>6:s&#45;&gt;8:n</title>
<path fill="none" stroke="black" d="M403.33,-379.71C403.33,-379.71 529.94,-342.39 566.53,-331.6"/>
<polygon fill="black" stroke="black" points="567.73,-334.9 576.33,-328.71 565.75,-328.18 567.73,-334.9"/>
<text text-anchor="middle" x="542.83" y="-350.51" font-family="Helvetica,sans-Serif" font-size="14.00">&gt; &#45;1.011</text>
</g>
<!-- 9 -->
<g id="node13" class="node">
<title>9</title>
<polygon fill="#3dc0cc" stroke="black" points="662.83,-199.71 489.83,-199.71 489.83,-121.71 662.83,-121.71 662.83,-199.71"/>
<text text-anchor="start" x="537.33" y="-185.51" font-family="Helvetica,sans-Serif" font-weight="bold" font-size="14.00"> Class=1 </text>
<text text-anchor="start" x="610.33" y="-185.51" font-family="Helvetica,sans-Serif" font-size="14.00"> </text>
<text text-anchor="start" x="497.83" y="-171.51" font-family="Helvetica,sans-Serif" font-size="14.00"> error: 0.849, n=2336 </text>
<text text-anchor="start" x="521.33" y="-157.51" font-family="Helvetica,sans-Serif" font-size="14.00"> p: (0.72, 0.28) </text>
<text text-anchor="start" x="554.83" y="-143.51" font-family="Helvetica,sans-Serif" font-size="14.00">&#45;&#45;&#45;&#45;&#45;&#45;&#45;&#45;</text>
<text text-anchor="start" x="539.83" y="-129.51" font-family="Helvetica,sans-Serif" font-weight="bold" font-size="14.00">v_1=0.18</text>
</g>
<!-- 8&#45;&gt;9 -->
<g id="edge12" class="edge">
<title>8:s&#45;&gt;9:n</title>
<path fill="none" stroke="black" d="M576.33,-250.71C576.33,-250.71 576.33,-224.93 576.33,-210.03"/>
<polygon fill="black" stroke="black" points="579.83,-209.71 576.33,-199.71 572.83,-209.71 579.83,-209.71"/>
<text text-anchor="middle" x="622.83" y="-221.51" font-family="Helvetica,sans-Serif" font-size="14.00">&lt;= &#45;0.04842</text>
</g>
<!-- 10 -->
<g id="node14" class="node">
<title>10</title>
<ellipse fill="#4485e5" stroke="black" cx="576.33" cy="-35.36" rx="122.16" ry="35.21"/>
<text text-anchor="start" x="537.33" y="-46.16" font-family="Helvetica,sans-Serif" font-weight="bold" font-size="14.00"> Class=1 </text>
<text text-anchor="start" x="610.33" y="-46.16" font-family="Helvetica,sans-Serif" font-size="14.00"> </text>
<text text-anchor="start" x="497.83" y="-32.16" font-family="Helvetica,sans-Serif" font-size="14.00"> error: 0.951, n=1408 </text>
<text text-anchor="start" x="521.33" y="-18.16" font-family="Helvetica,sans-Serif" font-size="14.00"> p: (0.63, 0.37) </text>
</g>
<!-- 9&#45;&gt;10 -->
<g id="edge13" class="edge">
<title>9:s&#45;&gt;10:n</title>
<path fill="none" stroke="black" d="M576.33,-121.71C576.33,-121.71 576.33,-95.93 576.33,-81.03"/>
<polygon fill="black" stroke="black" points="579.83,-80.71 576.33,-70.71 572.83,-80.71 579.83,-80.71"/>
<text text-anchor="middle" x="603.33" y="-92.51" font-family="Helvetica,sans-Serif" font-size="14.00">&gt; &#45;0.17</text>
</g>
<!-- 15 -->
<g id="node17" class="node">
<title>15</title>
<ellipse fill="#3dcc45" stroke="black" cx="1001.33" cy="-418.71" rx="122.16" ry="35.21"/>
<text text-anchor="start" x="962.33" y="-429.51" font-family="Helvetica,sans-Serif" font-weight="bold" font-size="14.00"> Class=2 </text>
<text text-anchor="start" x="1035.33" y="-429.51" font-family="Helvetica,sans-Serif" font-size="14.00"> </text>
<text text-anchor="start" x="922.83" y="-415.51" font-family="Helvetica,sans-Serif" font-size="14.00"> error: 0.357, n=2429 </text>
<text text-anchor="start" x="946.33" y="-401.51" font-family="Helvetica,sans-Serif" font-size="14.00"> p: (0.07, 0.93) </text>
</g>
<!-- 14&#45;&gt;15 -->
<g id="edge16" class="edge">
<title>14:s&#45;&gt;15:n</title>
<path fill="none" stroke="black" d="M1004.33,-508.71C1004.33,-508.71 1002.78,-481.33 1001.91,-465.93"/>
<polygon fill="black" stroke="black" points="1005.39,-465.5 1001.33,-455.71 998.4,-465.89 1005.39,-465.5"/>
<text text-anchor="middle" x="1008.33" y="-479.51" font-family="Helvetica,sans-Serif" font-size="14.00">1</text>
</g>
<!-- 16 -->
<g id="node18" class="node">
<title>16</title>
<ellipse fill="#3dcc45" stroke="black" cx="1318.33" cy="-418.71" rx="122.16" ry="35.21"/>
<text text-anchor="start" x="1279.33" y="-429.51" font-family="Helvetica,sans-Serif" font-weight="bold" font-size="14.00"> Class=2 </text>
<text text-anchor="start" x="1352.33" y="-429.51" font-family="Helvetica,sans-Serif" font-size="14.00"> </text>
<text text-anchor="start" x="1239.83" y="-415.51" font-family="Helvetica,sans-Serif" font-size="14.00"> error: 0.079, n=1748 </text>
<text text-anchor="start" x="1263.33" y="-401.51" font-family="Helvetica,sans-Serif" font-size="14.00"> p: (0.01, 0.99) </text>
</g>
<!-- 14&#45;&gt;16 -->
<g id="edge17" class="edge">
<title>14:s&#45;&gt;16:n</title>
<path fill="none" stroke="black" d="M1004.33,-508.71C1004.33,-508.71 1254.49,-466.49 1308.24,-457.41"/>
<polygon fill="black" stroke="black" points="1309.05,-460.83 1318.33,-455.71 1307.89,-453.92 1309.05,-460.83"/>
<text text-anchor="middle" x="1204.33" y="-479.51" font-family="Helvetica,sans-Serif" font-size="14.00">3</text>
</g>
<!-- 20 -->
<g id="node21" class="node">
<title>20</title>
<polygon fill="#8ee544" stroke="black" points="1682.83,-586.71 1509.83,-586.71 1509.83,-508.71 1682.83,-508.71 1682.83,-586.71"/>
<text text-anchor="start" x="1557.33" y="-572.51" font-family="Helvetica,sans-Serif" font-weight="bold" font-size="14.00"> Class=2 </text>
<text text-anchor="start" x="1630.33" y="-572.51" font-family="Helvetica,sans-Serif" font-size="14.00"> </text>
<text text-anchor="start" x="1517.83" y="-558.51" font-family="Helvetica,sans-Serif" font-size="14.00"> error: 0.461, n=2991 </text>
<text text-anchor="start" x="1541.33" y="-544.51" font-family="Helvetica,sans-Serif" font-size="14.00"> p: (0.10, 0.90) </text>
<text text-anchor="start" x="1574.83" y="-530.51" font-family="Helvetica,sans-Serif" font-size="14.00">&#45;&#45;&#45;&#45;&#45;&#45;&#45;&#45;</text>
<text text-anchor="start" x="1559.83" y="-516.51" font-family="Helvetica,sans-Serif" font-weight="bold" font-size="14.00">v_1=0.18</text>
</g>
<!-- 19&#45;&gt;20 -->
<g id="edge20" class="edge">
<title>19:s&#45;&gt;20:n</title>
<path fill="none" stroke="black" d="M1596.33,-637.71C1596.33,-637.71 1596.33,-611.93 1596.33,-597.03"/>
<polygon fill="black" stroke="black" points="1599.83,-596.71 1596.33,-586.71 1592.83,-596.71 1599.83,-596.71"/>
<text text-anchor="middle" x="1601.33" y="-608.51" font-family="Helvetica,sans-Serif" font-size="14.00">1</text>
</g>
<!-- 23 -->
<g id="node22" class="node">
<title>23</title>
<ellipse fill="#8ee544" stroke="black" cx="1877.33" cy="-547.71" rx="122.16" ry="35.21"/>
<text text-anchor="start" x="1838.33" y="-558.51" font-family="Helvetica,sans-Serif" font-weight="bold" font-size="14.00"> Class=2 </text>
<text text-anchor="start" x="1911.33" y="-558.51" font-family="Helvetica,sans-Serif" font-size="14.00"> </text>
<text text-anchor="start" x="1798.83" y="-544.51" font-family="Helvetica,sans-Serif" font-size="14.00"> error: 0.091, n=1726 </text>
<text text-anchor="start" x="1822.33" y="-530.51" font-family="Helvetica,sans-Serif" font-size="14.00"> p: (0.01, 0.99) </text>
</g>
<!-- 19&#45;&gt;23 -->
<g id="edge21" class="edge">
<title>19:s&#45;&gt;23:n</title>
<path fill="none" stroke="black" d="M1596.33,-637.71C1596.33,-637.71 1817.27,-596.04 1867.33,-586.6"/>
<polygon fill="black" stroke="black" points="1868.15,-590 1877.33,-584.71 1866.85,-583.12 1868.15,-590"/>
<text text-anchor="middle" x="1775.33" y="-608.51" font-family="Helvetica,sans-Serif" font-size="14.00">3</text>
</g>
<!-- 21 -->
<g id="node23" class="node">
<title>21</title>
<polygon fill="#3dcc45" stroke="black" points="1685.83,-457.71 1512.83,-457.71 1512.83,-379.71 1685.83,-379.71 1685.83,-457.71"/>
<text text-anchor="start" x="1560.33" y="-443.51" font-family="Helvetica,sans-Serif" font-weight="bold" font-size="14.00"> Class=2 </text>
<text text-anchor="start" x="1633.33" y="-443.51" font-family="Helvetica,sans-Serif" font-size="14.00"> </text>
<text text-anchor="start" x="1520.83" y="-429.51" font-family="Helvetica,sans-Serif" font-size="14.00"> error: 0.269, n=2500 </text>
<text text-anchor="start" x="1544.33" y="-415.51" font-family="Helvetica,sans-Serif" font-size="14.00"> p: (0.05, 0.95) </text>
<text text-anchor="start" x="1591.33" y="-401.51" font-family="Helvetica,sans-Serif" font-size="14.00">&#45;&#45;&#45;</text>
<text text-anchor="start" x="1583.83" y="-387.51" font-family="Helvetica,sans-Serif" font-weight="bold" font-size="14.00">V71</text>
</g>
<!-- 20&#45;&gt;21 -->
<g id="edge22" class="edge">
<title>20:s&#45;&gt;21:n</title>
<path fill="none" stroke="black" d="M1596.33,-508.71C1596.33,-508.71 1597.85,-482.93 1598.72,-468.03"/>
<polygon fill="black" stroke="black" points="1602.24,-467.9 1599.33,-457.71 1595.25,-467.49 1602.24,-467.9"/>
<text text-anchor="middle" x="1629.83" y="-479.51" font-family="Helvetica,sans-Serif" font-size="14.00">&gt; &#45;1.109</text>
</g>
<!-- 22 -->
<g id="node24" class="node">
<title>22</title>
<ellipse fill="#44e5a1" stroke="black" cx="1599.33" cy="-289.71" rx="122.16" ry="35.21"/>
<text text-anchor="start" x="1560.33" y="-300.51" font-family="Helvetica,sans-Serif" font-weight="bold" font-size="14.00"> Class=2 </text>
<text text-anchor="start" x="1633.33" y="-300.51" font-family="Helvetica,sans-Serif" font-size="14.00"> </text>
<text text-anchor="start" x="1520.83" y="-286.51" font-family="Helvetica,sans-Serif" font-size="14.00"> error: 0.129, n=2250 </text>
<text text-anchor="start" x="1544.33" y="-272.51" font-family="Helvetica,sans-Serif" font-size="14.00"> p: (0.02, 0.98) </text>
</g>
<!-- 21&#45;&gt;22 -->
<g id="edge23" class="edge">
<title>21:s&#45;&gt;22:n</title>
<path fill="none" stroke="black" d="M1599.33,-379.71C1599.33,-379.71 1599.33,-352.33 1599.33,-336.93"/>
<polygon fill="black" stroke="black" points="1602.83,-336.71 1599.33,-326.71 1595.83,-336.71 1602.83,-336.71"/>
<text text-anchor="middle" x="1604.33" y="-350.51" font-family="Helvetica,sans-Serif" font-size="14.00">3</text>
</g>
</g>
</svg>
