<?xml version="1.0" encoding="UTF-8" standalone="no"?>
<!DOCTYPE svg PUBLIC "-//W3C//DTD SVG 1.1//EN"
 "http://www.w3.org/Graphics/SVG/1.1/DTD/svg11.dtd">
<!-- Generated by graphviz version 2.43.0 (0)
 -->
<!-- Title: Tree Pages: 1 -->
<svg width="572pt" height="309pt"
 viewBox="0.00 0.00 571.93 308.71" xmlns="http://www.w3.org/2000/svg" xmlns:xlink="http://www.w3.org/1999/xlink">
<g id="graph0" class="graph" transform="scale(1 1) rotate(0) translate(18 290.71)">
<title>Tree</title>
<polygon fill="white" stroke="transparent" points="-18,18 -18,-290.71 553.93,-290.71 553.93,18 -18,18"/>
<!-- 0 -->
<g id="node1" class="node">
<title>0</title>
<polygon fill="white" stroke="transparent" points="294.97,-272.71 240.97,-272.71 240.97,-236.71 294.97,-236.71 294.97,-272.71"/>
<text text-anchor="middle" x="267.97" y="-251.01" font-family="Helvetica,sans-Serif" font-size="14.00">0</text>
</g>
<!-- 1 -->
<g id="node2" class="node">
<title>1</title>
<polygon fill="#cc3d3d" stroke="black" points="354.47,-199.71 181.47,-199.71 181.47,-121.71 354.47,-121.71 354.47,-199.71"/>
<text text-anchor="start" x="213.47" y="-185.51" font-family="Helvetica,sans-Serif" font-weight="bold" font-size="14.00"> Class=False </text>
<text text-anchor="start" x="317.47" y="-185.51" font-family="Helvetica,sans-Serif" font-size="14.00"> </text>
<text text-anchor="start" x="189.47" y="-171.51" font-family="Helvetica,sans-Serif" font-size="14.00"> error: 0.476, n=1563 </text>
<text text-anchor="start" x="212.97" y="-157.51" font-family="Helvetica,sans-Serif" font-size="14.00"> p: (0.90, 0.10) </text>
<text text-anchor="start" x="246.47" y="-143.51" font-family="Helvetica,sans-Serif" font-size="14.00">&#45;&#45;&#45;&#45;&#45;&#45;&#45;&#45;</text>
<text text-anchor="start" x="231.47" y="-129.51" font-family="Helvetica,sans-Serif" font-weight="bold" font-size="14.00">v_2=0.00</text>
</g>
<!-- 0&#45;&gt;1 -->
<!-- 2 -->
<g id="node3" class="node">
<title>2</title>
<ellipse fill="#4485e5" stroke="black" cx="115.97" cy="-35.36" rx="115.93" ry="35.21"/>
<text text-anchor="start" x="61.47" y="-46.16" font-family="Helvetica,sans-Serif" font-weight="bold" font-size="14.00"> Class=False </text>
<text text-anchor="start" x="165.47" y="-46.16" font-family="Helvetica,sans-Serif" font-size="14.00"> </text>
<text text-anchor="start" x="41.97" y="-32.16" font-family="Helvetica,sans-Serif" font-size="14.00"> error: 0.693, n=725 </text>
<text text-anchor="start" x="60.97" y="-18.16" font-family="Helvetica,sans-Serif" font-size="14.00"> p: (0.81, 0.19) </text>
</g>
<!-- 1&#45;&gt;2 -->
<g id="edge2" class="edge">
<title>1:s&#45;&gt;2:n</title>
<path fill="none" stroke="black" d="M267.97,-121.71C267.97,-121.71 158.75,-85.07 125.47,-73.9"/>
<polygon fill="black" stroke="black" points="126.56,-70.57 115.97,-70.71 124.33,-77.21 126.56,-70.57"/>
<text text-anchor="middle" x="242.47" y="-92.51" font-family="Helvetica,sans-Serif" font-size="14.00">&gt; &#45;12.55</text>
</g>
<!-- 3 -->
<g id="node4" class="node">
<title>3</title>
<ellipse fill="#4485e5" stroke="black" cx="419.97" cy="-35.36" rx="115.93" ry="35.21"/>
<text text-anchor="start" x="365.47" y="-46.16" font-family="Helvetica,sans-Serif" font-weight="bold" font-size="14.00"> Class=False </text>
<text text-anchor="start" x="469.47" y="-46.16" font-family="Helvetica,sans-Serif" font-size="14.00"> </text>
<text text-anchor="start" x="345.97" y="-32.16" font-family="Helvetica,sans-Serif" font-size="14.00"> error: 0.194, n=838 </text>
<text text-anchor="start" x="364.97" y="-18.16" font-family="Helvetica,sans-Serif" font-size="14.00"> p: (0.97, 0.03) </text>
</g>
<!-- 1&#45;&gt;3 -->
<g id="edge3" class="edge">
<title>1:s&#45;&gt;3:n</title>
<path fill="none" stroke="black" d="M267.97,-121.71C267.97,-121.71 377.18,-85.07 410.46,-73.9"/>
<polygon fill="black" stroke="black" points="411.6,-77.21 419.97,-70.71 409.37,-70.57 411.6,-77.21"/>
<text text-anchor="middle" x="399.47" y="-92.51" font-family="Helvetica,sans-Serif" font-size="14.00">&lt;= &#45;12.55</text>
</g>
</g>
</svg>
