<?xml version="1.0" encoding="UTF-8" standalone="no"?>
<!DOCTYPE svg PUBLIC "-//W3C//DTD SVG 1.1//EN"
 "http://www.w3.org/Graphics/SVG/1.1/DTD/svg11.dtd">
<!-- Generated by graphviz version 2.43.0 (0)
 -->
<!-- Title: Tree Pages: 1 -->
<svg width="1794pt" height="954pt"
 viewBox="0.00 0.00 1794.20 953.71" xmlns="http://www.w3.org/2000/svg" xmlns:xlink="http://www.w3.org/1999/xlink">
<g id="graph0" class="graph" transform="scale(1 1) rotate(0) translate(18 935.71)">
<title>Tree</title>
<polygon fill="white" stroke="transparent" points="-18,18 -18,-935.71 1776.2,-935.71 1776.2,18 -18,18"/>
<!-- 0 -->
<g id="node1" class="node">
<title>0</title>
<polygon fill="white" stroke="transparent" points="590.6,-917.71 536.6,-917.71 536.6,-881.71 590.6,-881.71 590.6,-917.71"/>
<text text-anchor="middle" x="563.6" y="-896.01" font-family="Helvetica,sans-Serif" font-size="14.00">0</text>
</g>
<!-- 1 -->
<g id="node2" class="node">
<title>1</title>
<polygon fill="#cc3d3d" stroke="black" points="650.1,-844.71 477.1,-844.71 477.1,-766.71 650.1,-766.71 650.1,-844.71"/>
<text text-anchor="start" x="509.1" y="-830.51" font-family="Helvetica,sans-Serif" font-weight="bold" font-size="14.00"> Class=False </text>
<text text-anchor="start" x="613.1" y="-830.51" font-family="Helvetica,sans-Serif" font-size="14.00"> </text>
<text text-anchor="start" x="485.1" y="-816.51" font-family="Helvetica,sans-Serif" font-size="14.00"> error: 0.535, n=1458 </text>
<text text-anchor="start" x="508.6" y="-802.51" font-family="Helvetica,sans-Serif" font-size="14.00"> p: (0.88, 0.12) </text>
<text text-anchor="start" x="539.6" y="-788.51" font-family="Helvetica,sans-Serif" font-size="14.00">&#45;&#45;&#45;&#45;&#45;&#45;&#45;&#45;&#45;</text>
<text text-anchor="start" x="522.6" y="-774.51" font-family="Helvetica,sans-Serif" font-weight="bold" font-size="14.00">v_11=0.00</text>
</g>
<!-- 0&#45;&gt;1 -->
<!-- 2 -->
<g id="node3" class="node">
<title>2</title>
<polygon fill="#e5a544" stroke="black" points="528.6,-715.71 364.6,-715.71 364.6,-637.71 528.6,-637.71 528.6,-715.71"/>
<text text-anchor="start" x="392.1" y="-701.51" font-family="Helvetica,sans-Serif" font-weight="bold" font-size="14.00"> Class=False </text>
<text text-anchor="start" x="496.1" y="-701.51" font-family="Helvetica,sans-Serif" font-size="14.00"> </text>
<text text-anchor="start" x="372.6" y="-687.51" font-family="Helvetica,sans-Serif" font-size="14.00"> error: 0.171, n=863 </text>
<text text-anchor="start" x="391.6" y="-673.51" font-family="Helvetica,sans-Serif" font-size="14.00"> p: (0.97, 0.03) </text>
<text text-anchor="start" x="425.1" y="-659.51" font-family="Helvetica,sans-Serif" font-size="14.00">&#45;&#45;&#45;&#45;&#45;&#45;&#45;&#45;</text>
<text text-anchor="start" x="410.1" y="-645.51" font-family="Helvetica,sans-Serif" font-weight="bold" font-size="14.00">v_1=0.00</text>
</g>
<!-- 1&#45;&gt;2 -->
<g id="edge2" class="edge">
<title>1:s&#45;&gt;2:n</title>
<path fill="none" stroke="black" d="M563.6,-766.71C563.6,-766.71 483.36,-731.74 455.78,-719.71"/>
<polygon fill="black" stroke="black" points="457.17,-716.5 446.6,-715.71 454.37,-722.92 457.17,-716.5"/>
<text text-anchor="middle" x="534.6" y="-737.51" font-family="Helvetica,sans-Serif" font-size="14.00">&gt; &#45;0.3947</text>
</g>
<!-- 8 -->
<g id="node4" class="node">
<title>8</title>
<polygon fill="#e5a544" stroke="black" points="834.6,-715.71 670.6,-715.71 670.6,-637.71 834.6,-637.71 834.6,-715.71"/>
<text text-anchor="start" x="698.1" y="-701.51" font-family="Helvetica,sans-Serif" font-weight="bold" font-size="14.00"> Class=False </text>
<text text-anchor="start" x="802.1" y="-701.51" font-family="Helvetica,sans-Serif" font-size="14.00"> </text>
<text text-anchor="start" x="678.6" y="-687.51" font-family="Helvetica,sans-Serif" font-size="14.00"> error: 0.830, n=595 </text>
<text text-anchor="start" x="697.6" y="-673.51" font-family="Helvetica,sans-Serif" font-size="14.00"> p: (0.74, 0.26) </text>
<text text-anchor="start" x="728.6" y="-659.51" font-family="Helvetica,sans-Serif" font-size="14.00">&#45;&#45;&#45;&#45;&#45;&#45;&#45;&#45;&#45;</text>
<text text-anchor="start" x="711.6" y="-645.51" font-family="Helvetica,sans-Serif" font-weight="bold" font-size="14.00">v_12=0.00</text>
</g>
<!-- 1&#45;&gt;8 -->
<g id="edge3" class="edge">
<title>1:s&#45;&gt;8:n</title>
<path fill="none" stroke="black" d="M563.6,-766.71C563.6,-766.71 703.82,-728.87 742.71,-718.38"/>
<polygon fill="black" stroke="black" points="743.86,-721.7 752.6,-715.71 742.04,-714.94 743.86,-721.7"/>
<text text-anchor="middle" x="722.6" y="-737.51" font-family="Helvetica,sans-Serif" font-size="14.00">&lt;= &#45;0.3947</text>
</g>
<!-- 3 -->
<g id="node5" class="node">
<title>3</title>
<ellipse fill="#afcc3d" stroke="black" cx="176.6" cy="-547.71" rx="115.93" ry="35.21"/>
<text text-anchor="start" x="122.1" y="-558.51" font-family="Helvetica,sans-Serif" font-weight="bold" font-size="14.00"> Class=False </text>
<text text-anchor="start" x="226.1" y="-558.51" font-family="Helvetica,sans-Serif" font-size="14.00"> </text>
<text text-anchor="start" x="102.6" y="-544.51" font-family="Helvetica,sans-Serif" font-size="14.00"> error: 0.067, n=752 </text>
<text text-anchor="start" x="121.6" y="-530.51" font-family="Helvetica,sans-Serif" font-size="14.00"> p: (0.99, 0.01) </text>
</g>
<!-- 2&#45;&gt;3 -->
<g id="edge4" class="edge">
<title>2:s&#45;&gt;3:n</title>
<path fill="none" stroke="black" d="M446.6,-637.71C446.6,-637.71 235.24,-596.22 186.53,-586.66"/>
<polygon fill="black" stroke="black" points="187.09,-583.2 176.6,-584.71 185.74,-590.07 187.09,-583.2"/>
<text text-anchor="middle" x="386.6" y="-608.51" font-family="Helvetica,sans-Serif" font-size="14.00">&lt;= 173.4</text>
</g>
<!-- 4 -->
<g id="node6" class="node">
<title>4</title>
<polygon fill="#afcc3d" stroke="black" points="528.6,-586.71 364.6,-586.71 364.6,-508.71 528.6,-508.71 528.6,-586.71"/>
<text text-anchor="start" x="392.1" y="-572.51" font-family="Helvetica,sans-Serif" font-weight="bold" font-size="14.00"> Class=False </text>
<text text-anchor="start" x="496.1" y="-572.51" font-family="Helvetica,sans-Serif" font-size="14.00"> </text>
<text text-anchor="start" x="372.6" y="-558.51" font-family="Helvetica,sans-Serif" font-size="14.00"> error: 0.595, n=111 </text>
<text text-anchor="start" x="391.6" y="-544.51" font-family="Helvetica,sans-Serif" font-size="14.00"> p: (0.86, 0.14) </text>
<text text-anchor="start" x="425.1" y="-530.51" font-family="Helvetica,sans-Serif" font-size="14.00">&#45;&#45;&#45;&#45;&#45;&#45;&#45;&#45;</text>
<text text-anchor="start" x="410.1" y="-516.51" font-family="Helvetica,sans-Serif" font-weight="bold" font-size="14.00">v_9=0.00</text>
</g>
<!-- 2&#45;&gt;4 -->
<g id="edge5" class="edge">
<title>2:s&#45;&gt;4:n</title>
<path fill="none" stroke="black" d="M446.6,-637.71C446.6,-637.71 446.6,-611.93 446.6,-597.03"/>
<polygon fill="black" stroke="black" points="450.1,-596.71 446.6,-586.71 443.1,-596.71 450.1,-596.71"/>
<text text-anchor="middle" x="475.6" y="-608.51" font-family="Helvetica,sans-Serif" font-size="14.00">&gt; 173.4</text>
</g>
<!-- 9 -->
<g id="node10" class="node">
<title>9</title>
<polygon fill="#afcc3d" stroke="black" points="834.6,-586.71 670.6,-586.71 670.6,-508.71 834.6,-508.71 834.6,-586.71"/>
<text text-anchor="start" x="698.1" y="-572.51" font-family="Helvetica,sans-Serif" font-weight="bold" font-size="14.00"> Class=False </text>
<text text-anchor="start" x="802.1" y="-572.51" font-family="Helvetica,sans-Serif" font-size="14.00"> </text>
<text text-anchor="start" x="678.6" y="-558.51" font-family="Helvetica,sans-Serif" font-size="14.00"> error: 0.599, n=302 </text>
<text text-anchor="start" x="697.6" y="-544.51" font-family="Helvetica,sans-Serif" font-size="14.00"> p: (0.85, 0.15) </text>
<text text-anchor="start" x="728.6" y="-530.51" font-family="Helvetica,sans-Serif" font-size="14.00">&#45;&#45;&#45;&#45;&#45;&#45;&#45;&#45;&#45;</text>
<text text-anchor="start" x="711.6" y="-516.51" font-family="Helvetica,sans-Serif" font-weight="bold" font-size="14.00">v_23=0.00</text>
</g>
<!-- 8&#45;&gt;9 -->
<g id="edge9" class="edge">
<title>8:s&#45;&gt;9:n</title>
<path fill="none" stroke="black" d="M752.6,-637.71C752.6,-637.71 752.6,-611.93 752.6,-597.03"/>
<polygon fill="black" stroke="black" points="756.1,-596.71 752.6,-586.71 749.1,-596.71 756.1,-596.71"/>
<text text-anchor="middle" x="790.1" y="-608.51" font-family="Helvetica,sans-Serif" font-size="14.00">&lt;= &#45;0.285</text>
</g>
<!-- 19 -->
<g id="node11" class="node">
<title>19</title>
<polygon fill="#afcc3d" stroke="black" points="1105.6,-586.71 941.6,-586.71 941.6,-508.71 1105.6,-508.71 1105.6,-586.71"/>
<text text-anchor="start" x="969.1" y="-572.51" font-family="Helvetica,sans-Serif" font-weight="bold" font-size="14.00"> Class=False </text>
<text text-anchor="start" x="1073.1" y="-572.51" font-family="Helvetica,sans-Serif" font-size="14.00"> </text>
<text text-anchor="start" x="949.6" y="-558.51" font-family="Helvetica,sans-Serif" font-size="14.00"> error: 0.960, n=293 </text>
<text text-anchor="start" x="968.6" y="-544.51" font-family="Helvetica,sans-Serif" font-size="14.00"> p: (0.62, 0.38) </text>
<text text-anchor="start" x="999.6" y="-530.51" font-family="Helvetica,sans-Serif" font-size="14.00">&#45;&#45;&#45;&#45;&#45;&#45;&#45;&#45;&#45;</text>
<text text-anchor="start" x="982.6" y="-516.51" font-family="Helvetica,sans-Serif" font-weight="bold" font-size="14.00">v_13=0.00</text>
</g>
<!-- 8&#45;&gt;19 -->
<g id="edge10" class="edge">
<title>8:s&#45;&gt;19:n</title>
<path fill="none" stroke="black" d="M752.6,-637.71C752.6,-637.71 964.74,-597.79 1013.64,-588.59"/>
<polygon fill="black" stroke="black" points="1014.42,-592 1023.6,-586.71 1013.13,-585.12 1014.42,-592"/>
<text text-anchor="middle" x="952.1" y="-608.51" font-family="Helvetica,sans-Serif" font-size="14.00">&gt; &#45;0.285</text>
</g>
<!-- 5 -->
<g id="node7" class="node">
<title>5</title>
<polygon fill="#64e544" stroke="black" points="474.1,-457.71 319.1,-457.71 319.1,-379.71 474.1,-379.71 474.1,-457.71"/>
<text text-anchor="start" x="342.1" y="-443.51" font-family="Helvetica,sans-Serif" font-weight="bold" font-size="14.00"> Class=False </text>
<text text-anchor="start" x="446.1" y="-443.51" font-family="Helvetica,sans-Serif" font-size="14.00"> </text>
<text text-anchor="start" x="327.1" y="-429.51" font-family="Helvetica,sans-Serif" font-size="14.00"> error: 0.707, n=83 </text>
<text text-anchor="start" x="341.6" y="-415.51" font-family="Helvetica,sans-Serif" font-size="14.00"> p: (0.81, 0.19) </text>
<text text-anchor="start" x="372.6" y="-401.51" font-family="Helvetica,sans-Serif" font-size="14.00">&#45;&#45;&#45;&#45;&#45;&#45;&#45;&#45;&#45;</text>
<text text-anchor="start" x="355.6" y="-387.51" font-family="Helvetica,sans-Serif" font-weight="bold" font-size="14.00">v_10=0.00</text>
</g>
<!-- 4&#45;&gt;5 -->
<g id="edge6" class="edge">
<title>4:s&#45;&gt;5:n</title>
<path fill="none" stroke="black" d="M446.6,-508.71C446.6,-508.71 417.89,-479.42 403.98,-465.24"/>
<polygon fill="black" stroke="black" points="406.1,-462.4 396.6,-457.71 401.1,-467.3 406.1,-462.4"/>
<text text-anchor="middle" x="462.6" y="-479.51" font-family="Helvetica,sans-Serif" font-size="14.00">&lt;= 6.441</text>
</g>
<!-- 6 -->
<g id="node8" class="node">
<title>6</title>
<polygon fill="#3dcc76" stroke="black" points="219.1,-328.71 64.1,-328.71 64.1,-250.71 219.1,-250.71 219.1,-328.71"/>
<text text-anchor="start" x="87.1" y="-314.51" font-family="Helvetica,sans-Serif" font-weight="bold" font-size="14.00"> Class=False </text>
<text text-anchor="start" x="191.1" y="-314.51" font-family="Helvetica,sans-Serif" font-size="14.00"> </text>
<text text-anchor="start" x="72.1" y="-300.51" font-family="Helvetica,sans-Serif" font-size="14.00"> error: 0.528, n=67 </text>
<text text-anchor="start" x="86.6" y="-286.51" font-family="Helvetica,sans-Serif" font-size="14.00"> p: (0.88, 0.12) </text>
<text text-anchor="start" x="120.1" y="-272.51" font-family="Helvetica,sans-Serif" font-size="14.00">&#45;&#45;&#45;&#45;&#45;&#45;&#45;&#45;</text>
<text text-anchor="start" x="105.1" y="-258.51" font-family="Helvetica,sans-Serif" font-weight="bold" font-size="14.00">v_9=0.00</text>
</g>
<!-- 5&#45;&gt;6 -->
<g id="edge7" class="edge">
<title>5:s&#45;&gt;6:n</title>
<path fill="none" stroke="black" d="M396.6,-379.71C396.6,-379.71 198.74,-340.14 151.6,-330.71"/>
<polygon fill="black" stroke="black" points="152.09,-327.24 141.6,-328.71 150.72,-334.1 152.09,-327.24"/>
<text text-anchor="middle" x="326.6" y="-350.51" font-family="Helvetica,sans-Serif" font-size="14.00">&gt; &#45;10.1</text>
</g>
<!-- 7 -->
<g id="node9" class="node">
<title>7</title>
<ellipse fill="#44e5e5" stroke="black" cx="109.6" cy="-160.71" rx="109.7" ry="35.21"/>
<text text-anchor="start" x="55.1" y="-171.51" font-family="Helvetica,sans-Serif" font-weight="bold" font-size="14.00"> Class=False </text>
<text text-anchor="start" x="159.1" y="-171.51" font-family="Helvetica,sans-Serif" font-size="14.00"> </text>
<text text-anchor="start" x="40.1" y="-157.51" font-family="Helvetica,sans-Serif" font-size="14.00"> error: 0.362, n=58 </text>
<text text-anchor="start" x="54.6" y="-143.51" font-family="Helvetica,sans-Serif" font-size="14.00"> p: (0.93, 0.07) </text>
</g>
<!-- 6&#45;&gt;7 -->
<g id="edge8" class="edge">
<title>6:s&#45;&gt;7:n</title>
<path fill="none" stroke="black" d="M141.6,-250.71C141.6,-250.71 123.97,-221.52 114.89,-206.46"/>
<polygon fill="black" stroke="black" points="117.77,-204.46 109.6,-197.71 111.77,-208.08 117.77,-204.46"/>
<text text-anchor="middle" x="162.1" y="-221.51" font-family="Helvetica,sans-Serif" font-size="14.00">&gt; &#45;18.56</text>
</g>
<!-- 10 -->
<g id="node12" class="node">
<title>10</title>
<polygon fill="#64e544" stroke="black" points="773.6,-457.71 609.6,-457.71 609.6,-379.71 773.6,-379.71 773.6,-457.71"/>
<text text-anchor="start" x="637.1" y="-443.51" font-family="Helvetica,sans-Serif" font-weight="bold" font-size="14.00"> Class=False </text>
<text text-anchor="start" x="741.1" y="-443.51" font-family="Helvetica,sans-Serif" font-size="14.00"> </text>
<text text-anchor="start" x="617.6" y="-429.51" font-family="Helvetica,sans-Serif" font-size="14.00"> error: 0.386, n=172 </text>
<text text-anchor="start" x="636.6" y="-415.51" font-family="Helvetica,sans-Serif" font-size="14.00"> p: (0.92, 0.08) </text>
<text text-anchor="start" x="667.6" y="-401.51" font-family="Helvetica,sans-Serif" font-size="14.00">&#45;&#45;&#45;&#45;&#45;&#45;&#45;&#45;&#45;</text>
<text text-anchor="start" x="650.6" y="-387.51" font-family="Helvetica,sans-Serif" font-weight="bold" font-size="14.00">v_11=0.00</text>
</g>
<!-- 9&#45;&gt;10 -->
<g id="edge11" class="edge">
<title>9:s&#45;&gt;10:n</title>
<path fill="none" stroke="black" d="M752.6,-508.71C752.6,-508.71 715.74,-477.89 699.33,-464.17"/>
<polygon fill="black" stroke="black" points="701.52,-461.44 691.6,-457.71 697.03,-466.81 701.52,-461.44"/>
<text text-anchor="middle" x="767.1" y="-479.51" font-family="Helvetica,sans-Serif" font-size="14.00">&lt;= 0.1234</text>
</g>
<!-- 15 -->
<g id="node13" class="node">
<title>15</title>
<polygon fill="#64e544" stroke="black" points="1011.6,-457.71 847.6,-457.71 847.6,-379.71 1011.6,-379.71 1011.6,-457.71"/>
<text text-anchor="start" x="875.1" y="-443.51" font-family="Helvetica,sans-Serif" font-weight="bold" font-size="14.00"> Class=False </text>
<text text-anchor="start" x="979.1" y="-443.51" font-family="Helvetica,sans-Serif" font-size="14.00"> </text>
<text text-anchor="start" x="855.6" y="-429.51" font-family="Helvetica,sans-Serif" font-size="14.00"> error: 0.792, n=130 </text>
<text text-anchor="start" x="874.6" y="-415.51" font-family="Helvetica,sans-Serif" font-size="14.00"> p: (0.76, 0.24) </text>
<text text-anchor="start" x="905.6" y="-401.51" font-family="Helvetica,sans-Serif" font-size="14.00">&#45;&#45;&#45;&#45;&#45;&#45;&#45;&#45;&#45;</text>
<text text-anchor="start" x="888.6" y="-387.51" font-family="Helvetica,sans-Serif" font-weight="bold" font-size="14.00">v_11=0.00</text>
</g>
<!-- 9&#45;&gt;15 -->
<g id="edge12" class="edge">
<title>9:s&#45;&gt;15:n</title>
<path fill="none" stroke="black" d="M752.6,-508.71C752.6,-508.71 882.73,-471.22 919.83,-460.53"/>
<polygon fill="black" stroke="black" points="920.96,-463.84 929.6,-457.71 919.02,-457.12 920.96,-463.84"/>
<text text-anchor="middle" x="902.1" y="-479.51" font-family="Helvetica,sans-Serif" font-size="14.00">&gt; 0.1234</text>
</g>
<!-- 20 -->
<g id="node21" class="node">
<title>20</title>
<polygon fill="#64e544" stroke="black" points="1291.6,-457.71 1127.6,-457.71 1127.6,-379.71 1291.6,-379.71 1291.6,-457.71"/>
<text text-anchor="start" x="1155.1" y="-443.51" font-family="Helvetica,sans-Serif" font-weight="bold" font-size="14.00"> Class=False </text>
<text text-anchor="start" x="1259.1" y="-443.51" font-family="Helvetica,sans-Serif" font-size="14.00"> </text>
<text text-anchor="start" x="1135.6" y="-429.51" font-family="Helvetica,sans-Serif" font-size="14.00"> error: 0.901, n=259 </text>
<text text-anchor="start" x="1154.6" y="-415.51" font-family="Helvetica,sans-Serif" font-size="14.00"> p: (0.68, 0.32) </text>
<text text-anchor="start" x="1185.6" y="-401.51" font-family="Helvetica,sans-Serif" font-size="14.00">&#45;&#45;&#45;&#45;&#45;&#45;&#45;&#45;&#45;</text>
<text text-anchor="start" x="1168.6" y="-387.51" font-family="Helvetica,sans-Serif" font-weight="bold" font-size="14.00">v_13=0.00</text>
</g>
<!-- 19&#45;&gt;20 -->
<g id="edge20" class="edge">
<title>19:s&#45;&gt;20:n</title>
<path fill="none" stroke="black" d="M1023.6,-508.71C1023.6,-508.71 1161.59,-470.87 1199.86,-460.38"/>
<polygon fill="black" stroke="black" points="1200.88,-463.73 1209.6,-457.71 1199.03,-456.98 1200.88,-463.73"/>
<text text-anchor="middle" x="1174.6" y="-479.51" font-family="Helvetica,sans-Serif" font-size="14.00">&lt;= 5.412</text>
</g>
<!-- 11 -->
<g id="node14" class="node">
<title>11</title>
<polygon fill="#3dcc76" stroke="black" points="510.1,-328.71 355.1,-328.71 355.1,-250.71 510.1,-250.71 510.1,-328.71"/>
<text text-anchor="start" x="378.1" y="-314.51" font-family="Helvetica,sans-Serif" font-weight="bold" font-size="14.00"> Class=False </text>
<text text-anchor="start" x="482.1" y="-314.51" font-family="Helvetica,sans-Serif" font-size="14.00"> </text>
<text text-anchor="start" x="363.1" y="-300.51" font-family="Helvetica,sans-Serif" font-size="14.00"> error: 0.582, n=79 </text>
<text text-anchor="start" x="377.6" y="-286.51" font-family="Helvetica,sans-Serif" font-size="14.00"> p: (0.86, 0.14) </text>
<text text-anchor="start" x="411.1" y="-272.51" font-family="Helvetica,sans-Serif" font-size="14.00">&#45;&#45;&#45;&#45;&#45;&#45;&#45;&#45;</text>
<text text-anchor="start" x="396.1" y="-258.51" font-family="Helvetica,sans-Serif" font-weight="bold" font-size="14.00">v_8=0.00</text>
</g>
<!-- 10&#45;&gt;11 -->
<g id="edge13" class="edge">
<title>10:s&#45;&gt;11:n</title>
<path fill="none" stroke="black" d="M691.6,-379.71C691.6,-379.71 489.75,-339.96 442.44,-330.65"/>
<polygon fill="black" stroke="black" points="443.09,-327.21 432.6,-328.71 441.74,-334.08 443.09,-327.21"/>
<text text-anchor="middle" x="636.1" y="-350.51" font-family="Helvetica,sans-Serif" font-size="14.00">&lt;= &#45;3.304</text>
</g>
<!-- 13 -->
<g id="node15" class="node">
<title>13</title>
<polygon fill="#3dcc76" stroke="black" points="769.1,-328.71 614.1,-328.71 614.1,-250.71 769.1,-250.71 769.1,-328.71"/>
<text text-anchor="start" x="637.1" y="-314.51" font-family="Helvetica,sans-Serif" font-weight="bold" font-size="14.00"> Class=False </text>
<text text-anchor="start" x="741.1" y="-314.51" font-family="Helvetica,sans-Serif" font-size="14.00"> </text>
<text text-anchor="start" x="622.1" y="-300.51" font-family="Helvetica,sans-Serif" font-size="14.00"> error: 0.150, n=93 </text>
<text text-anchor="start" x="636.6" y="-286.51" font-family="Helvetica,sans-Serif" font-size="14.00"> p: (0.98, 0.02) </text>
<text text-anchor="start" x="667.6" y="-272.51" font-family="Helvetica,sans-Serif" font-size="14.00">&#45;&#45;&#45;&#45;&#45;&#45;&#45;&#45;&#45;</text>
<text text-anchor="start" x="650.6" y="-258.51" font-family="Helvetica,sans-Serif" font-weight="bold" font-size="14.00">v_31=0.00</text>
</g>
<!-- 10&#45;&gt;13 -->
<g id="edge14" class="edge">
<title>10:s&#45;&gt;13:n</title>
<path fill="none" stroke="black" d="M691.6,-379.71C691.6,-379.71 691.6,-353.93 691.6,-339.03"/>
<polygon fill="black" stroke="black" points="695.1,-338.71 691.6,-328.71 688.1,-338.71 695.1,-338.71"/>
<text text-anchor="middle" x="723.1" y="-350.51" font-family="Helvetica,sans-Serif" font-size="14.00">&gt; &#45;3.304</text>
</g>
<!-- 16 -->
<g id="node18" class="node">
<title>16</title>
<polygon fill="#3dcc76" stroke="black" points="1020.6,-328.71 856.6,-328.71 856.6,-250.71 1020.6,-250.71 1020.6,-328.71"/>
<text text-anchor="start" x="884.1" y="-314.51" font-family="Helvetica,sans-Serif" font-weight="bold" font-size="14.00"> Class=False </text>
<text text-anchor="start" x="988.1" y="-314.51" font-family="Helvetica,sans-Serif" font-size="14.00"> </text>
<text text-anchor="start" x="864.6" y="-300.51" font-family="Helvetica,sans-Serif" font-size="14.00"> error: 0.658, n=100 </text>
<text text-anchor="start" x="883.6" y="-286.51" font-family="Helvetica,sans-Serif" font-size="14.00"> p: (0.83, 0.17) </text>
<text text-anchor="start" x="914.6" y="-272.51" font-family="Helvetica,sans-Serif" font-size="14.00">&#45;&#45;&#45;&#45;&#45;&#45;&#45;&#45;&#45;</text>
<text text-anchor="start" x="897.6" y="-258.51" font-family="Helvetica,sans-Serif" font-weight="bold" font-size="14.00">v_31=0.00</text>
</g>
<!-- 15&#45;&gt;16 -->
<g id="edge17" class="edge">
<title>15:s&#45;&gt;16:n</title>
<path fill="none" stroke="black" d="M929.6,-379.71C929.6,-379.71 934.15,-353.93 936.78,-339.03"/>
<polygon fill="black" stroke="black" points="940.31,-339.17 938.6,-328.71 933.42,-337.95 940.31,-339.17"/>
<text text-anchor="middle" x="967.1" y="-350.51" font-family="Helvetica,sans-Serif" font-size="14.00">&gt; &#45;5.645</text>
</g>
<!-- 12 -->
<g id="node16" class="node">
<title>12</title>
<ellipse fill="#44e5e5" stroke="black" cx="400.6" cy="-160.71" rx="109.7" ry="35.21"/>
<text text-anchor="start" x="346.1" y="-171.51" font-family="Helvetica,sans-Serif" font-weight="bold" font-size="14.00"> Class=False </text>
<text text-anchor="start" x="450.1" y="-171.51" font-family="Helvetica,sans-Serif" font-size="14.00"> </text>
<text text-anchor="start" x="331.1" y="-157.51" font-family="Helvetica,sans-Serif" font-size="14.00"> error: 0.494, n=74 </text>
<text text-anchor="start" x="345.6" y="-143.51" font-family="Helvetica,sans-Serif" font-size="14.00"> p: (0.89, 0.11) </text>
</g>
<!-- 11&#45;&gt;12 -->
<g id="edge15" class="edge">
<title>11:s&#45;&gt;12:n</title>
<path fill="none" stroke="black" d="M432.6,-250.71C432.6,-250.71 414.97,-221.52 405.89,-206.46"/>
<polygon fill="black" stroke="black" points="408.77,-204.46 400.6,-197.71 402.77,-208.08 408.77,-204.46"/>
<text text-anchor="middle" x="452.1" y="-221.51" font-family="Helvetica,sans-Serif" font-size="14.00">&lt;= 20.5</text>
</g>
<!-- 14 -->
<g id="node17" class="node">
<title>14</title>
<ellipse fill="#44e5e5" stroke="black" cx="691.6" cy="-160.71" rx="109.7" ry="35.21"/>
<text text-anchor="start" x="637.1" y="-171.51" font-family="Helvetica,sans-Serif" font-weight="bold" font-size="14.00"> Class=False </text>
<text text-anchor="start" x="741.1" y="-171.51" font-family="Helvetica,sans-Serif" font-size="14.00"> </text>
<text text-anchor="start" x="622.1" y="-157.51" font-family="Helvetica,sans-Serif" font-size="14.00"> error: 0.000, n=73 </text>
<text text-anchor="start" x="636.6" y="-143.51" font-family="Helvetica,sans-Serif" font-size="14.00"> p: (1.00, 0.00) </text>
</g>
<!-- 13&#45;&gt;14 -->
<g id="edge16" class="edge">
<title>13:s&#45;&gt;14:n</title>
<path fill="none" stroke="black" d="M691.6,-250.71C691.6,-250.71 691.6,-223.33 691.6,-207.93"/>
<polygon fill="black" stroke="black" points="695.1,-207.71 691.6,-197.71 688.1,-207.71 695.1,-207.71"/>
<text text-anchor="middle" x="735.6" y="-221.51" font-family="Helvetica,sans-Serif" font-size="14.00">&lt;= 0.01808</text>
</g>
<!-- 17 -->
<g id="node19" class="node">
<title>17</title>
<polygon fill="#44e5e5" stroke="black" points="1028.1,-199.71 873.1,-199.71 873.1,-121.71 1028.1,-121.71 1028.1,-199.71"/>
<text text-anchor="start" x="896.1" y="-185.51" font-family="Helvetica,sans-Serif" font-weight="bold" font-size="14.00"> Class=False </text>
<text text-anchor="start" x="1000.1" y="-185.51" font-family="Helvetica,sans-Serif" font-size="14.00"> </text>
<text text-anchor="start" x="881.1" y="-171.51" font-family="Helvetica,sans-Serif" font-size="14.00"> error: 0.449, n=64 </text>
<text text-anchor="start" x="895.6" y="-157.51" font-family="Helvetica,sans-Serif" font-size="14.00"> p: (0.91, 0.09) </text>
<text text-anchor="start" x="929.1" y="-143.51" font-family="Helvetica,sans-Serif" font-size="14.00">&#45;&#45;&#45;&#45;&#45;&#45;&#45;&#45;</text>
<text text-anchor="start" x="914.1" y="-129.51" font-family="Helvetica,sans-Serif" font-weight="bold" font-size="14.00">v_2=0.00</text>
</g>
<!-- 16&#45;&gt;17 -->
<g id="edge18" class="edge">
<title>16:s&#45;&gt;17:n</title>
<path fill="none" stroke="black" d="M938.6,-250.71C938.6,-250.71 944.8,-224.36 948.29,-209.54"/>
<polygon fill="black" stroke="black" points="951.72,-210.25 950.6,-199.71 944.9,-208.64 951.72,-210.25"/>
<text text-anchor="middle" x="987.1" y="-221.51" font-family="Helvetica,sans-Serif" font-size="14.00">&gt; &#45;0.02371</text>
</g>
<!-- 18 -->
<g id="node20" class="node">
<title>18</title>
<ellipse fill="#3d76cc" stroke="black" cx="950.6" cy="-35.36" rx="109.7" ry="35.21"/>
<text text-anchor="start" x="896.1" y="-46.16" font-family="Helvetica,sans-Serif" font-weight="bold" font-size="14.00"> Class=False </text>
<text text-anchor="start" x="1000.1" y="-46.16" font-family="Helvetica,sans-Serif" font-size="14.00"> </text>
<text text-anchor="start" x="881.1" y="-32.16" font-family="Helvetica,sans-Serif" font-size="14.00"> error: 0.139, n=51 </text>
<text text-anchor="start" x="895.6" y="-18.16" font-family="Helvetica,sans-Serif" font-size="14.00"> p: (0.98, 0.02) </text>
</g>
<!-- 17&#45;&gt;18 -->
<g id="edge19" class="edge">
<title>17:s&#45;&gt;18:n</title>
<path fill="none" stroke="black" d="M950.6,-121.71C950.6,-121.71 950.6,-95.93 950.6,-81.03"/>
<polygon fill="black" stroke="black" points="954.1,-80.71 950.6,-70.71 947.1,-80.71 954.1,-80.71"/>
<text text-anchor="middle" x="985.6" y="-92.51" font-family="Helvetica,sans-Serif" font-size="14.00">&lt;= 23.95</text>
</g>
<!-- 21 -->
<g id="node22" class="node">
<title>21</title>
<polygon fill="#3dcc76" stroke="black" points="1287.1,-328.71 1132.1,-328.71 1132.1,-250.71 1287.1,-250.71 1287.1,-328.71"/>
<text text-anchor="start" x="1155.1" y="-314.51" font-family="Helvetica,sans-Serif" font-weight="bold" font-size="14.00"> Class=False </text>
<text text-anchor="start" x="1259.1" y="-314.51" font-family="Helvetica,sans-Serif" font-size="14.00"> </text>
<text text-anchor="start" x="1140.1" y="-300.51" font-family="Helvetica,sans-Serif" font-size="14.00"> error: 0.596, n=90 </text>
<text text-anchor="start" x="1154.6" y="-286.51" font-family="Helvetica,sans-Serif" font-size="14.00"> p: (0.86, 0.14) </text>
<text text-anchor="start" x="1188.1" y="-272.51" font-family="Helvetica,sans-Serif" font-size="14.00">&#45;&#45;&#45;&#45;&#45;&#45;&#45;&#45;</text>
<text text-anchor="start" x="1173.1" y="-258.51" font-family="Helvetica,sans-Serif" font-weight="bold" font-size="14.00">v_7=0.00</text>
</g>
<!-- 20&#45;&gt;21 -->
<g id="edge21" class="edge">
<title>20:s&#45;&gt;21:n</title>
<path fill="none" stroke="black" d="M1209.6,-379.71C1209.6,-379.71 1209.6,-353.93 1209.6,-339.03"/>
<polygon fill="black" stroke="black" points="1213.1,-338.71 1209.6,-328.71 1206.1,-338.71 1213.1,-338.71"/>
<text text-anchor="middle" x="1247.1" y="-350.51" font-family="Helvetica,sans-Serif" font-size="14.00">&lt;= &#45;2.438</text>
</g>
<!-- 23 -->
<g id="node23" class="node">
<title>23</title>
<polygon fill="#3dcc76" stroke="black" points="1539.6,-328.71 1375.6,-328.71 1375.6,-250.71 1539.6,-250.71 1539.6,-328.71"/>
<text text-anchor="start" x="1403.1" y="-314.51" font-family="Helvetica,sans-Serif" font-weight="bold" font-size="14.00"> Class=False </text>
<text text-anchor="start" x="1507.1" y="-314.51" font-family="Helvetica,sans-Serif" font-size="14.00"> </text>
<text text-anchor="start" x="1383.6" y="-300.51" font-family="Helvetica,sans-Serif" font-size="14.00"> error: 0.976, n=169 </text>
<text text-anchor="start" x="1402.6" y="-286.51" font-family="Helvetica,sans-Serif" font-size="14.00"> p: (0.59, 0.41) </text>
<text text-anchor="start" x="1433.6" y="-272.51" font-family="Helvetica,sans-Serif" font-size="14.00">&#45;&#45;&#45;&#45;&#45;&#45;&#45;&#45;&#45;</text>
<text text-anchor="start" x="1416.6" y="-258.51" font-family="Helvetica,sans-Serif" font-weight="bold" font-size="14.00">v_22=0.00</text>
</g>
<!-- 20&#45;&gt;23 -->
<g id="edge22" class="edge">
<title>20:s&#45;&gt;23:n</title>
<path fill="none" stroke="black" d="M1209.6,-379.71C1209.6,-379.71 1401.18,-340.31 1447.57,-330.77"/>
<polygon fill="black" stroke="black" points="1448.51,-334.15 1457.6,-328.71 1447.1,-327.3 1448.51,-334.15"/>
<text text-anchor="middle" x="1403.1" y="-350.51" font-family="Helvetica,sans-Serif" font-size="14.00">&gt; &#45;2.438</text>
</g>
<!-- 22 -->
<g id="node24" class="node">
<title>22</title>
<ellipse fill="#44e5e5" stroke="black" cx="1209.6" cy="-160.71" rx="109.7" ry="35.21"/>
<text text-anchor="start" x="1155.1" y="-171.51" font-family="Helvetica,sans-Serif" font-weight="bold" font-size="14.00"> Class=False </text>
<text text-anchor="start" x="1259.1" y="-171.51" font-family="Helvetica,sans-Serif" font-size="14.00"> </text>
<text text-anchor="start" x="1140.1" y="-157.51" font-family="Helvetica,sans-Serif" font-size="14.00"> error: 0.741, n=62 </text>
<text text-anchor="start" x="1154.6" y="-143.51" font-family="Helvetica,sans-Serif" font-size="14.00"> p: (0.79, 0.21) </text>
</g>
<!-- 21&#45;&gt;22 -->
<g id="edge23" class="edge">
<title>21:s&#45;&gt;22:n</title>
<path fill="none" stroke="black" d="M1209.6,-250.71C1209.6,-250.71 1209.6,-223.33 1209.6,-207.93"/>
<polygon fill="black" stroke="black" points="1213.1,-207.71 1209.6,-197.71 1206.1,-207.71 1213.1,-207.71"/>
<text text-anchor="middle" x="1245.6" y="-221.51" font-family="Helvetica,sans-Serif" font-size="14.00">&gt; &#45;0.5457</text>
</g>
<!-- 24 -->
<g id="node25" class="node">
<title>24</title>
<polygon fill="#44e5e5" stroke="black" points="1555.6,-199.71 1391.6,-199.71 1391.6,-121.71 1555.6,-121.71 1555.6,-199.71"/>
<text text-anchor="start" x="1419.1" y="-185.51" font-family="Helvetica,sans-Serif" font-weight="bold" font-size="14.00"> Class=False </text>
<text text-anchor="start" x="1523.1" y="-185.51" font-family="Helvetica,sans-Serif" font-size="14.00"> </text>
<text text-anchor="start" x="1399.6" y="-171.51" font-family="Helvetica,sans-Serif" font-size="14.00"> error: 0.999, n=131 </text>
<text text-anchor="start" x="1418.6" y="-157.51" font-family="Helvetica,sans-Serif" font-size="14.00"> p: (0.52, 0.48) </text>
<text text-anchor="start" x="1449.6" y="-143.51" font-family="Helvetica,sans-Serif" font-size="14.00">&#45;&#45;&#45;&#45;&#45;&#45;&#45;&#45;&#45;</text>
<text text-anchor="start" x="1432.6" y="-129.51" font-family="Helvetica,sans-Serif" font-weight="bold" font-size="14.00">v_18=0.00</text>
</g>
<!-- 23&#45;&gt;24 -->
<g id="edge24" class="edge">
<title>23:s&#45;&gt;24:n</title>
<path fill="none" stroke="black" d="M1457.6,-250.71C1457.6,-250.71 1465.87,-224.36 1470.52,-209.54"/>
<polygon fill="black" stroke="black" points="1473.95,-210.3 1473.6,-199.71 1467.27,-208.2 1473.95,-210.3"/>
<text text-anchor="middle" x="1503.6" y="-221.51" font-family="Helvetica,sans-Serif" font-size="14.00">&gt; &#45;0.4512</text>
</g>
<!-- 25 -->
<g id="node26" class="node">
<title>25</title>
<ellipse fill="#3d76cc" stroke="black" cx="1357.6" cy="-35.36" rx="109.7" ry="35.21"/>
<text text-anchor="start" x="1303.1" y="-46.16" font-family="Helvetica,sans-Serif" font-weight="bold" font-size="14.00"> Class=False </text>
<text text-anchor="start" x="1407.1" y="-46.16" font-family="Helvetica,sans-Serif" font-size="14.00"> </text>
<text text-anchor="start" x="1288.1" y="-32.16" font-family="Helvetica,sans-Serif" font-size="14.00"> error: 0.894, n=58 </text>
<text text-anchor="start" x="1302.6" y="-18.16" font-family="Helvetica,sans-Serif" font-size="14.00"> p: (0.69, 0.31) </text>
</g>
<!-- 24&#45;&gt;25 -->
<g id="edge25" class="edge">
<title>24:s&#45;&gt;25:n</title>
<path fill="none" stroke="black" d="M1473.6,-121.71C1473.6,-121.71 1394.8,-87.06 1367.09,-74.88"/>
<polygon fill="black" stroke="black" points="1368.16,-71.53 1357.6,-70.71 1365.35,-77.94 1368.16,-71.53"/>
<text text-anchor="middle" x="1473.6" y="-92.51" font-family="Helvetica,sans-Serif" font-size="14.00">&lt;= 0.08397</text>
</g>
<!-- 26 -->
<g id="node27" class="node">
<title>26</title>
<ellipse fill="#3d76cc" stroke="black" cx="1648.6" cy="-35.36" rx="109.7" ry="35.21"/>
<text text-anchor="start" x="1597.6" y="-46.16" font-family="Helvetica,sans-Serif" font-weight="bold" font-size="14.00"> Class=True </text>
<text text-anchor="start" x="1694.6" y="-46.16" font-family="Helvetica,sans-Serif" font-size="14.00"> </text>
<text text-anchor="start" x="1579.1" y="-32.16" font-family="Helvetica,sans-Serif" font-size="14.00"> error: 0.961, n=73 </text>
<text text-anchor="start" x="1593.6" y="-18.16" font-family="Helvetica,sans-Serif" font-size="14.00"> p: (0.38, 0.62) </text>
</g>
<!-- 24&#45;&gt;26 -->
<g id="edge26" class="edge">
<title>24:s&#45;&gt;26:n</title>
<path fill="none" stroke="black" d="M1473.6,-121.71C1473.6,-121.71 1602.26,-84.22 1638.94,-73.53"/>
<polygon fill="black" stroke="black" points="1639.98,-76.87 1648.6,-70.71 1638.02,-70.15 1639.98,-76.87"/>
<text text-anchor="middle" x="1622.6" y="-92.51" font-family="Helvetica,sans-Serif" font-size="14.00">&gt; 0.08397</text>
</g>
</g>
</svg>
