<?xml version="1.0" encoding="UTF-8" standalone="no"?>
<!DOCTYPE svg PUBLIC "-//W3C//DTD SVG 1.1//EN"
 "http://www.w3.org/Graphics/SVG/1.1/DTD/svg11.dtd">
<!-- Generated by graphviz version 2.43.0 (0)
 -->
<!-- Title: Tree Pages: 1 -->
<svg width="870pt" height="696pt"
 viewBox="0.00 0.00 870.29 695.71" xmlns="http://www.w3.org/2000/svg" xmlns:xlink="http://www.w3.org/1999/xlink">
<g id="graph0" class="graph" transform="scale(1 1) rotate(0) translate(18 677.71)">
<title>Tree</title>
<polygon fill="white" stroke="transparent" points="-18,18 -18,-677.71 852.29,-677.71 852.29,18 -18,18"/>
<!-- 0 -->
<g id="node1" class="node">
<title>0</title>
<polygon fill="white" stroke="transparent" points="289.33,-659.71 235.33,-659.71 235.33,-623.71 289.33,-623.71 289.33,-659.71"/>
<text text-anchor="middle" x="262.33" y="-638.01" font-family="Helvetica,sans-Serif" font-size="14.00">0</text>
</g>
<!-- 1 -->
<g id="node2" class="node">
<title>1</title>
<polygon fill="#cc3d3d" stroke="black" points="348.83,-586.71 175.83,-586.71 175.83,-508.71 348.83,-508.71 348.83,-586.71"/>
<text text-anchor="start" x="223.33" y="-572.51" font-family="Helvetica,sans-Serif" font-weight="bold" font-size="14.00"> Class=1 </text>
<text text-anchor="start" x="296.33" y="-572.51" font-family="Helvetica,sans-Serif" font-size="14.00"> </text>
<text text-anchor="start" x="183.83" y="-558.51" font-family="Helvetica,sans-Serif" font-size="14.00"> error: 0.873, n=5404 </text>
<text text-anchor="start" x="207.33" y="-544.51" font-family="Helvetica,sans-Serif" font-size="14.00"> p: (0.71, 0.29) </text>
<text text-anchor="start" x="256.83" y="-530.51" font-family="Helvetica,sans-Serif" font-size="14.00">&#45;&#45;</text>
<text text-anchor="start" x="251.83" y="-516.51" font-family="Helvetica,sans-Serif" font-weight="bold" font-size="14.00">V4</text>
</g>
<!-- 0&#45;&gt;1 -->
<!-- 2 -->
<g id="node3" class="node">
<title>2</title>
<polygon fill="#e5d544" stroke="black" points="226.83,-457.71 53.83,-457.71 53.83,-379.71 226.83,-379.71 226.83,-457.71"/>
<text text-anchor="start" x="101.33" y="-443.51" font-family="Helvetica,sans-Serif" font-weight="bold" font-size="14.00"> Class=2 </text>
<text text-anchor="start" x="174.33" y="-443.51" font-family="Helvetica,sans-Serif" font-size="14.00"> </text>
<text text-anchor="start" x="61.83" y="-429.51" font-family="Helvetica,sans-Serif" font-size="14.00"> error: 0.997, n=2216 </text>
<text text-anchor="start" x="85.33" y="-415.51" font-family="Helvetica,sans-Serif" font-size="14.00"> p: (0.47, 0.53) </text>
<text text-anchor="start" x="134.83" y="-401.51" font-family="Helvetica,sans-Serif" font-size="14.00">&#45;&#45;</text>
<text text-anchor="start" x="129.83" y="-387.51" font-family="Helvetica,sans-Serif" font-weight="bold" font-size="14.00">V1</text>
</g>
<!-- 1&#45;&gt;2 -->
<g id="edge2" class="edge">
<title>1:s&#45;&gt;2:n</title>
<path fill="none" stroke="black" d="M262.33,-508.71C262.33,-508.71 178.66,-473.74 149.9,-461.71"/>
<polygon fill="black" stroke="black" points="150.91,-458.34 140.33,-457.71 148.21,-464.8 150.91,-458.34"/>
<text text-anchor="middle" x="235.83" y="-479.51" font-family="Helvetica,sans-Serif" font-size="14.00">&gt; 0.1029</text>
</g>
<!-- 4 -->
<g id="node4" class="node">
<title>4</title>
<polygon fill="#e5d544" stroke="black" points="489.83,-457.71 316.83,-457.71 316.83,-379.71 489.83,-379.71 489.83,-457.71"/>
<text text-anchor="start" x="364.33" y="-443.51" font-family="Helvetica,sans-Serif" font-weight="bold" font-size="14.00"> Class=1 </text>
<text text-anchor="start" x="437.33" y="-443.51" font-family="Helvetica,sans-Serif" font-size="14.00"> </text>
<text text-anchor="start" x="324.83" y="-429.51" font-family="Helvetica,sans-Serif" font-size="14.00"> error: 0.554, n=3188 </text>
<text text-anchor="start" x="348.33" y="-415.51" font-family="Helvetica,sans-Serif" font-size="14.00"> p: (0.87, 0.13) </text>
<text text-anchor="start" x="397.83" y="-401.51" font-family="Helvetica,sans-Serif" font-size="14.00">&#45;&#45;</text>
<text text-anchor="start" x="392.83" y="-387.51" font-family="Helvetica,sans-Serif" font-weight="bold" font-size="14.00">V4</text>
</g>
<!-- 1&#45;&gt;4 -->
<g id="edge3" class="edge">
<title>1:s&#45;&gt;4:n</title>
<path fill="none" stroke="black" d="M262.33,-508.71C262.33,-508.71 361.78,-472.74 393.64,-461.22"/>
<polygon fill="black" stroke="black" points="395.12,-464.4 403.33,-457.71 392.74,-457.82 395.12,-464.4"/>
<text text-anchor="middle" x="389.83" y="-479.51" font-family="Helvetica,sans-Serif" font-size="14.00">&lt;= 0.1029</text>
</g>
<!-- 3 -->
<g id="node5" class="node">
<title>3</title>
<ellipse fill="#59cc3d" stroke="black" cx="122.33" cy="-289.71" rx="122.16" ry="35.21"/>
<text text-anchor="start" x="83.33" y="-300.51" font-family="Helvetica,sans-Serif" font-weight="bold" font-size="14.00"> Class=2 </text>
<text text-anchor="start" x="156.33" y="-300.51" font-family="Helvetica,sans-Serif" font-size="14.00"> </text>
<text text-anchor="start" x="43.83" y="-286.51" font-family="Helvetica,sans-Serif" font-size="14.00"> error: 0.992, n=2123 </text>
<text text-anchor="start" x="67.33" y="-272.51" font-family="Helvetica,sans-Serif" font-size="14.00"> p: (0.45, 0.55) </text>
</g>
<!-- 2&#45;&gt;3 -->
<g id="edge4" class="edge">
<title>2:s&#45;&gt;3:n</title>
<path fill="none" stroke="black" d="M140.33,-379.71C140.33,-379.71 130.83,-351.73 125.63,-336.43"/>
<polygon fill="black" stroke="black" points="128.86,-335.05 122.33,-326.71 122.23,-337.31 128.86,-335.05"/>
<text text-anchor="middle" x="173.83" y="-350.51" font-family="Helvetica,sans-Serif" font-size="14.00">&lt;= 0.9989</text>
</g>
<!-- 5 -->
<g id="node6" class="node">
<title>5</title>
<polygon fill="#59cc3d" stroke="black" points="489.83,-328.71 316.83,-328.71 316.83,-250.71 489.83,-250.71 489.83,-328.71"/>
<text text-anchor="start" x="364.33" y="-314.51" font-family="Helvetica,sans-Serif" font-weight="bold" font-size="14.00"> Class=1 </text>
<text text-anchor="start" x="437.33" y="-314.51" font-family="Helvetica,sans-Serif" font-size="14.00"> </text>
<text text-anchor="start" x="324.83" y="-300.51" font-family="Helvetica,sans-Serif" font-size="14.00"> error: 0.884, n=1061 </text>
<text text-anchor="start" x="348.33" y="-286.51" font-family="Helvetica,sans-Serif" font-size="14.00"> p: (0.70, 0.30) </text>
<text text-anchor="start" x="397.83" y="-272.51" font-family="Helvetica,sans-Serif" font-size="14.00">&#45;&#45;</text>
<text text-anchor="start" x="392.83" y="-258.51" font-family="Helvetica,sans-Serif" font-weight="bold" font-size="14.00">V2</text>
</g>
<!-- 4&#45;&gt;5 -->
<g id="edge5" class="edge">
<title>4:s&#45;&gt;5:n</title>
<path fill="none" stroke="black" d="M403.33,-379.71C403.33,-379.71 403.33,-353.93 403.33,-339.03"/>
<polygon fill="black" stroke="black" points="406.83,-338.71 403.33,-328.71 399.83,-338.71 406.83,-338.71"/>
<text text-anchor="middle" x="445.33" y="-350.51" font-family="Helvetica,sans-Serif" font-size="14.00">&lt;= &#45;0.8946</text>
</g>
<!-- 10 -->
<g id="node7" class="node">
<title>10</title>
<ellipse fill="#59cc3d" stroke="black" cx="684.33" cy="-289.71" rx="122.16" ry="35.21"/>
<text text-anchor="start" x="645.33" y="-300.51" font-family="Helvetica,sans-Serif" font-weight="bold" font-size="14.00"> Class=1 </text>
<text text-anchor="start" x="718.33" y="-300.51" font-family="Helvetica,sans-Serif" font-size="14.00"> </text>
<text text-anchor="start" x="605.83" y="-286.51" font-family="Helvetica,sans-Serif" font-size="14.00"> error: 0.251, n=2127 </text>
<text text-anchor="start" x="629.33" y="-272.51" font-family="Helvetica,sans-Serif" font-size="14.00"> p: (0.96, 0.04) </text>
</g>
<!-- 4&#45;&gt;10 -->
<g id="edge6" class="edge">
<title>4:s&#45;&gt;10:n</title>
<path fill="none" stroke="black" d="M403.33,-379.71C403.33,-379.71 624.27,-338.04 674.33,-328.6"/>
<polygon fill="black" stroke="black" points="675.15,-332 684.33,-326.71 673.85,-325.12 675.15,-332"/>
<text text-anchor="middle" x="615.33" y="-350.51" font-family="Helvetica,sans-Serif" font-size="14.00">&gt; &#45;0.8946</text>
</g>
<!-- 6 -->
<g id="node8" class="node">
<title>6</title>
<ellipse fill="#44e5b5" stroke="black" cx="296.33" cy="-160.71" rx="115.93" ry="35.21"/>
<text text-anchor="start" x="257.33" y="-171.51" font-family="Helvetica,sans-Serif" font-weight="bold" font-size="14.00"> Class=1 </text>
<text text-anchor="start" x="330.33" y="-171.51" font-family="Helvetica,sans-Serif" font-size="14.00"> </text>
<text text-anchor="start" x="222.33" y="-157.51" font-family="Helvetica,sans-Serif" font-size="14.00"> error: 0.999, n=363 </text>
<text text-anchor="start" x="241.33" y="-143.51" font-family="Helvetica,sans-Serif" font-size="14.00"> p: (0.52, 0.48) </text>
</g>
<!-- 5&#45;&gt;6 -->
<g id="edge7" class="edge">
<title>5:s&#45;&gt;6:n</title>
<path fill="none" stroke="black" d="M403.33,-250.71C403.33,-250.71 331.33,-215.05 305.45,-202.23"/>
<polygon fill="black" stroke="black" points="306.84,-199.01 296.33,-197.71 303.74,-205.29 306.84,-199.01"/>
<text text-anchor="middle" x="379.33" y="-221.51" font-family="Helvetica,sans-Serif" font-size="14.00">&lt;= &#45;0.3643</text>
</g>
<!-- 7 -->
<g id="node9" class="node">
<title>7</title>
<polygon fill="#44e5b5" stroke="black" points="648.33,-199.71 484.33,-199.71 484.33,-121.71 648.33,-121.71 648.33,-199.71"/>
<text text-anchor="start" x="527.33" y="-185.51" font-family="Helvetica,sans-Serif" font-weight="bold" font-size="14.00"> Class=1 </text>
<text text-anchor="start" x="600.33" y="-185.51" font-family="Helvetica,sans-Serif" font-size="14.00"> </text>
<text text-anchor="start" x="492.33" y="-171.51" font-family="Helvetica,sans-Serif" font-size="14.00"> error: 0.737, n=698 </text>
<text text-anchor="start" x="511.33" y="-157.51" font-family="Helvetica,sans-Serif" font-size="14.00"> p: (0.79, 0.21) </text>
<text text-anchor="start" x="560.83" y="-143.51" font-family="Helvetica,sans-Serif" font-size="14.00">&#45;&#45;</text>
<text text-anchor="start" x="555.83" y="-129.51" font-family="Helvetica,sans-Serif" font-weight="bold" font-size="14.00">V1</text>
</g>
<!-- 5&#45;&gt;7 -->
<g id="edge8" class="edge">
<title>5:s&#45;&gt;7:n</title>
<path fill="none" stroke="black" d="M403.33,-250.71C403.33,-250.71 521.53,-213.73 556.62,-202.75"/>
<polygon fill="black" stroke="black" points="557.83,-206.04 566.33,-199.71 555.74,-199.36 557.83,-206.04"/>
<text text-anchor="middle" x="540.33" y="-221.51" font-family="Helvetica,sans-Serif" font-size="14.00">&gt; &#45;0.3643</text>
</g>
<!-- 8 -->
<g id="node10" class="node">
<title>8</title>
<ellipse fill="#3d76cc" stroke="black" cx="414.33" cy="-35.36" rx="115.93" ry="35.21"/>
<text text-anchor="start" x="375.33" y="-46.16" font-family="Helvetica,sans-Serif" font-weight="bold" font-size="14.00"> Class=1 </text>
<text text-anchor="start" x="448.33" y="-46.16" font-family="Helvetica,sans-Serif" font-size="14.00"> </text>
<text text-anchor="start" x="340.33" y="-32.16" font-family="Helvetica,sans-Serif" font-size="14.00"> error: 0.145, n=193 </text>
<text text-anchor="start" x="359.33" y="-18.16" font-family="Helvetica,sans-Serif" font-size="14.00"> p: (0.98, 0.02) </text>
</g>
<!-- 7&#45;&gt;8 -->
<g id="edge9" class="edge">
<title>7:s&#45;&gt;8:n</title>
<path fill="none" stroke="black" d="M566.33,-121.71C566.33,-121.71 457.11,-85.07 423.84,-73.9"/>
<polygon fill="black" stroke="black" points="424.92,-70.57 414.33,-70.71 422.7,-77.21 424.92,-70.57"/>
<text text-anchor="middle" x="551.33" y="-92.51" font-family="Helvetica,sans-Serif" font-size="14.00">&lt;= &#45;0.6571</text>
</g>
<!-- 9 -->
<g id="node11" class="node">
<title>9</title>
<ellipse fill="#3d76cc" stroke="black" cx="718.33" cy="-35.36" rx="115.93" ry="35.21"/>
<text text-anchor="start" x="679.33" y="-46.16" font-family="Helvetica,sans-Serif" font-weight="bold" font-size="14.00"> Class=1 </text>
<text text-anchor="start" x="752.33" y="-46.16" font-family="Helvetica,sans-Serif" font-size="14.00"> </text>
<text text-anchor="start" x="644.33" y="-32.16" font-family="Helvetica,sans-Serif" font-size="14.00"> error: 0.854, n=505 </text>
<text text-anchor="start" x="663.33" y="-18.16" font-family="Helvetica,sans-Serif" font-size="14.00"> p: (0.72, 0.28) </text>
</g>
<!-- 7&#45;&gt;9 -->
<g id="edge10" class="edge">
<title>7:s&#45;&gt;9:n</title>
<path fill="none" stroke="black" d="M566.33,-121.71C566.33,-121.71 675.54,-85.07 708.82,-73.9"/>
<polygon fill="black" stroke="black" points="709.96,-77.21 718.33,-70.71 707.74,-70.57 709.96,-77.21"/>
<text text-anchor="middle" x="697.33" y="-92.51" font-family="Helvetica,sans-Serif" font-size="14.00">&gt; &#45;0.6571</text>
</g>
</g>
</svg>
