<?xml version="1.0" encoding="UTF-8" standalone="no"?>
<!DOCTYPE svg PUBLIC "-//W3C//DTD SVG 1.1//EN"
 "http://www.w3.org/Graphics/SVG/1.1/DTD/svg11.dtd">
<!-- Generated by graphviz version 2.43.0 (0)
 -->
<!-- Title: Tree Pages: 1 -->
<svg width="855pt" height="567pt"
 viewBox="0.00 0.00 854.93 566.71" xmlns="http://www.w3.org/2000/svg" xmlns:xlink="http://www.w3.org/1999/xlink">
<g id="graph0" class="graph" transform="scale(1 1) rotate(0) translate(18 548.71)">
<title>Tree</title>
<polygon fill="white" stroke="transparent" points="-18,18 -18,-548.71 836.93,-548.71 836.93,18 -18,18"/>
<!-- 0 -->
<g id="node1" class="node">
<title>0</title>
<polygon fill="white" stroke="transparent" points="453.97,-530.71 399.97,-530.71 399.97,-494.71 453.97,-494.71 453.97,-530.71"/>
<text text-anchor="middle" x="426.97" y="-509.01" font-family="Helvetica,sans-Serif" font-size="14.00">0</text>
</g>
<!-- 1 -->
<g id="node2" class="node">
<title>1</title>
<polygon fill="#cc3d3d" stroke="black" points="513.47,-457.71 340.47,-457.71 340.47,-379.71 513.47,-379.71 513.47,-457.71"/>
<text text-anchor="start" x="358.47" y="-443.51" font-family="Helvetica,sans-Serif" font-weight="bold" font-size="14.00"> Class=negative </text>
<text text-anchor="start" x="490.47" y="-443.51" font-family="Helvetica,sans-Serif" font-size="14.00"> </text>
<text text-anchor="start" x="348.47" y="-429.51" font-family="Helvetica,sans-Serif" font-size="14.00"> error: 0.332, n=3772 </text>
<text text-anchor="start" x="371.97" y="-415.51" font-family="Helvetica,sans-Serif" font-size="14.00"> p: (0.94, 0.06) </text>
<text text-anchor="start" x="387.47" y="-401.51" font-family="Helvetica,sans-Serif" font-size="14.00">&#45;&#45;&#45;&#45;&#45;&#45;&#45;&#45;&#45;&#45;&#45;&#45;&#45;&#45;&#45;</text>
<text text-anchor="start" x="366.97" y="-387.51" font-family="Helvetica,sans-Serif" font-weight="bold" font-size="14.00">referral_source</text>
</g>
<!-- 0&#45;&gt;1 -->
<!-- 2 -->
<g id="node3" class="node">
<title>2</title>
<polygon fill="#c5e544" stroke="black" points="232.47,-328.71 59.47,-328.71 59.47,-250.71 232.47,-250.71 232.47,-328.71"/>
<text text-anchor="start" x="77.47" y="-314.51" font-family="Helvetica,sans-Serif" font-weight="bold" font-size="14.00"> Class=negative </text>
<text text-anchor="start" x="209.47" y="-314.51" font-family="Helvetica,sans-Serif" font-size="14.00"> </text>
<text text-anchor="start" x="67.47" y="-300.51" font-family="Helvetica,sans-Serif" font-size="14.00"> error: 0.680, n=1034 </text>
<text text-anchor="start" x="90.97" y="-286.51" font-family="Helvetica,sans-Serif" font-size="14.00"> p: (0.82, 0.18) </text>
<text text-anchor="start" x="140.47" y="-272.51" font-family="Helvetica,sans-Serif" font-size="14.00">&#45;&#45;</text>
<text text-anchor="start" x="135.97" y="-258.51" font-family="Helvetica,sans-Serif" font-weight="bold" font-size="14.00">T3</text>
</g>
<!-- 1&#45;&gt;2 -->
<g id="edge2" class="edge">
<title>1:s&#45;&gt;2:n</title>
<path fill="none" stroke="black" d="M426.97,-379.71C426.97,-379.71 206.02,-339.61 155.97,-330.53"/>
<polygon fill="black" stroke="black" points="156.43,-327.05 145.97,-328.71 155.18,-333.94 156.43,-327.05"/>
<text text-anchor="middle" x="331.97" y="-350.51" font-family="Helvetica,sans-Serif" font-size="14.00">SVI</text>
</g>
<!-- 7 -->
<g id="node4" class="node">
<title>7</title>
<ellipse fill="#c5e544" stroke="black" cx="426.97" cy="-289.71" rx="122.16" ry="35.21"/>
<text text-anchor="start" x="358.47" y="-300.51" font-family="Helvetica,sans-Serif" font-weight="bold" font-size="14.00"> Class=negative </text>
<text text-anchor="start" x="490.47" y="-300.51" font-family="Helvetica,sans-Serif" font-size="14.00"> </text>
<text text-anchor="start" x="348.47" y="-286.51" font-family="Helvetica,sans-Serif" font-size="14.00"> error: 0.112, n=2201 </text>
<text text-anchor="start" x="371.97" y="-272.51" font-family="Helvetica,sans-Serif" font-size="14.00"> p: (0.99, 0.01) </text>
</g>
<!-- 1&#45;&gt;7 -->
<g id="edge3" class="edge">
<title>1:s&#45;&gt;7:n</title>
<path fill="none" stroke="black" d="M426.97,-379.71C426.97,-379.71 426.97,-352.33 426.97,-336.93"/>
<polygon fill="black" stroke="black" points="430.47,-336.71 426.97,-326.71 423.47,-336.71 430.47,-336.71"/>
<text text-anchor="middle" x="445.47" y="-350.51" font-family="Helvetica,sans-Serif" font-size="14.00">other</text>
</g>
<!-- 8 -->
<g id="node5" class="node">
<title>8</title>
<polygon fill="#c5e544" stroke="black" points="784.97,-328.71 620.97,-328.71 620.97,-250.71 784.97,-250.71 784.97,-328.71"/>
<text text-anchor="start" x="634.47" y="-314.51" font-family="Helvetica,sans-Serif" font-weight="bold" font-size="14.00"> Class=negative </text>
<text text-anchor="start" x="766.47" y="-314.51" font-family="Helvetica,sans-Serif" font-size="14.00"> </text>
<text text-anchor="start" x="628.97" y="-300.51" font-family="Helvetica,sans-Serif" font-size="14.00"> error: 0.160, n=386 </text>
<text text-anchor="start" x="647.97" y="-286.51" font-family="Helvetica,sans-Serif" font-size="14.00"> p: (0.98, 0.02) </text>
<text text-anchor="start" x="697.47" y="-272.51" font-family="Helvetica,sans-Serif" font-size="14.00">&#45;&#45;</text>
<text text-anchor="start" x="692.97" y="-258.51" font-family="Helvetica,sans-Serif" font-weight="bold" font-size="14.00">T3</text>
</g>
<!-- 1&#45;&gt;8 -->
<g id="edge4" class="edge">
<title>1:s&#45;&gt;8:n</title>
<path fill="none" stroke="black" d="M426.97,-379.71C426.97,-379.71 643.02,-339.79 692.82,-330.59"/>
<polygon fill="black" stroke="black" points="693.77,-333.97 702.97,-328.71 692.5,-327.09 693.77,-333.97"/>
<text text-anchor="middle" x="617.97" y="-350.51" font-family="Helvetica,sans-Serif" font-size="14.00">SVHC</text>
</g>
<!-- 3 -->
<g id="node6" class="node">
<title>3</title>
<polygon fill="#3dcc76" stroke="black" points="215.97,-199.71 51.97,-199.71 51.97,-121.71 215.97,-121.71 215.97,-199.71"/>
<text text-anchor="start" x="84.97" y="-185.51" font-family="Helvetica,sans-Serif" font-weight="bold" font-size="14.00"> Class=sick </text>
<text text-anchor="start" x="177.97" y="-185.51" font-family="Helvetica,sans-Serif" font-size="14.00"> </text>
<text text-anchor="start" x="59.97" y="-171.51" font-family="Helvetica,sans-Serif" font-size="14.00"> error: 0.917, n=259 </text>
<text text-anchor="start" x="78.97" y="-157.51" font-family="Helvetica,sans-Serif" font-size="14.00"> p: (0.33, 0.67) </text>
<text text-anchor="start" x="125.97" y="-143.51" font-family="Helvetica,sans-Serif" font-size="14.00">&#45;&#45;&#45;</text>
<text text-anchor="start" x="118.97" y="-129.51" font-family="Helvetica,sans-Serif" font-weight="bold" font-size="14.00">TT4</text>
</g>
<!-- 2&#45;&gt;3 -->
<g id="edge5" class="edge">
<title>2:s&#45;&gt;3:n</title>
<path fill="none" stroke="black" d="M145.97,-250.71C145.97,-250.71 139.77,-224.36 136.28,-209.54"/>
<polygon fill="black" stroke="black" points="139.66,-208.64 133.97,-199.71 132.85,-210.25 139.66,-208.64"/>
<text text-anchor="middle" x="167.97" y="-221.51" font-family="Helvetica,sans-Serif" font-size="14.00">&lt;= 1.2</text>
</g>
<!-- 5 -->
<g id="node7" class="node">
<title>5</title>
<polygon fill="#3dcc76" stroke="black" points="483.97,-199.71 319.97,-199.71 319.97,-121.71 483.97,-121.71 483.97,-199.71"/>
<text text-anchor="start" x="333.47" y="-185.51" font-family="Helvetica,sans-Serif" font-weight="bold" font-size="14.00"> Class=negative </text>
<text text-anchor="start" x="465.47" y="-185.51" font-family="Helvetica,sans-Serif" font-size="14.00"> </text>
<text text-anchor="start" x="327.97" y="-171.51" font-family="Helvetica,sans-Serif" font-size="14.00"> error: 0.113, n=727 </text>
<text text-anchor="start" x="346.97" y="-157.51" font-family="Helvetica,sans-Serif" font-size="14.00"> p: (0.98, 0.02) </text>
<text text-anchor="start" x="393.97" y="-143.51" font-family="Helvetica,sans-Serif" font-size="14.00">&#45;&#45;&#45;</text>
<text text-anchor="start" x="389.47" y="-129.51" font-family="Helvetica,sans-Serif" font-weight="bold" font-size="14.00">FTI</text>
</g>
<!-- 2&#45;&gt;5 -->
<g id="edge6" class="edge">
<title>2:s&#45;&gt;5:n</title>
<path fill="none" stroke="black" d="M145.97,-250.71C145.97,-250.71 344.6,-211.14 391.93,-201.71"/>
<polygon fill="black" stroke="black" points="392.84,-205.1 401.97,-199.71 391.47,-198.23 392.84,-205.1"/>
<text text-anchor="middle" x="324.97" y="-221.51" font-family="Helvetica,sans-Serif" font-size="14.00">&gt; 1.2</text>
</g>
<!-- 9 -->
<g id="node10" class="node">
<title>9</title>
<ellipse fill="#3dcc76" stroke="black" cx="702.97" cy="-160.71" rx="115.93" ry="35.21"/>
<text text-anchor="start" x="634.47" y="-171.51" font-family="Helvetica,sans-Serif" font-weight="bold" font-size="14.00"> Class=negative </text>
<text text-anchor="start" x="766.47" y="-171.51" font-family="Helvetica,sans-Serif" font-size="14.00"> </text>
<text text-anchor="start" x="628.97" y="-157.51" font-family="Helvetica,sans-Serif" font-size="14.00"> error: 0.000, n=332 </text>
<text text-anchor="start" x="647.97" y="-143.51" font-family="Helvetica,sans-Serif" font-size="14.00"> p: (1.00, 0.00) </text>
</g>
<!-- 8&#45;&gt;9 -->
<g id="edge9" class="edge">
<title>8:s&#45;&gt;9:n</title>
<path fill="none" stroke="black" d="M702.97,-250.71C702.97,-250.71 702.97,-223.33 702.97,-207.93"/>
<polygon fill="black" stroke="black" points="706.47,-207.71 702.97,-197.71 699.47,-207.71 706.47,-207.71"/>
<text text-anchor="middle" x="722.97" y="-221.51" font-family="Helvetica,sans-Serif" font-size="14.00">&gt; 1.5</text>
</g>
<!-- 4 -->
<g id="node8" class="node">
<title>4</title>
<ellipse fill="#4485e5" stroke="black" cx="115.97" cy="-35.36" rx="115.93" ry="35.21"/>
<text text-anchor="start" x="66.97" y="-46.16" font-family="Helvetica,sans-Serif" font-weight="bold" font-size="14.00"> Class=sick </text>
<text text-anchor="start" x="159.97" y="-46.16" font-family="Helvetica,sans-Serif" font-size="14.00"> </text>
<text text-anchor="start" x="41.97" y="-32.16" font-family="Helvetica,sans-Serif" font-size="14.00"> error: 0.807, n=198 </text>
<text text-anchor="start" x="60.97" y="-18.16" font-family="Helvetica,sans-Serif" font-size="14.00"> p: (0.25, 0.75) </text>
</g>
<!-- 3&#45;&gt;4 -->
<g id="edge7" class="edge">
<title>3:s&#45;&gt;4:n</title>
<path fill="none" stroke="black" d="M133.97,-121.71C133.97,-121.71 124.67,-95.36 119.44,-80.54"/>
<polygon fill="black" stroke="black" points="122.59,-78.98 115.97,-70.71 115.99,-81.31 122.59,-78.98"/>
<text text-anchor="middle" x="145.47" y="-92.51" font-family="Helvetica,sans-Serif" font-size="14.00">&gt; 61</text>
</g>
<!-- 6 -->
<g id="node9" class="node">
<title>6</title>
<ellipse fill="#4485e5" stroke="black" cx="419.97" cy="-35.36" rx="115.93" ry="35.21"/>
<text text-anchor="start" x="351.47" y="-46.16" font-family="Helvetica,sans-Serif" font-weight="bold" font-size="14.00"> Class=negative </text>
<text text-anchor="start" x="483.47" y="-46.16" font-family="Helvetica,sans-Serif" font-size="14.00"> </text>
<text text-anchor="start" x="345.97" y="-32.16" font-family="Helvetica,sans-Serif" font-size="14.00"> error: 0.051, n=695 </text>
<text text-anchor="start" x="364.97" y="-18.16" font-family="Helvetica,sans-Serif" font-size="14.00"> p: (0.99, 0.01) </text>
</g>
<!-- 5&#45;&gt;6 -->
<g id="edge8" class="edge">
<title>5:s&#45;&gt;6:n</title>
<path fill="none" stroke="black" d="M401.97,-121.71C401.97,-121.71 411.26,-95.36 416.49,-80.54"/>
<polygon fill="black" stroke="black" points="419.94,-81.31 419.97,-70.71 413.34,-78.98 419.94,-81.31"/>
<text text-anchor="middle" x="441.97" y="-92.51" font-family="Helvetica,sans-Serif" font-size="14.00">&lt;= 182</text>
</g>
</g>
</svg>
