<?xml version="1.0" encoding="UTF-8" standalone="no"?>
<!DOCTYPE svg PUBLIC "-//W3C//DTD SVG 1.1//EN"
 "http://www.w3.org/Graphics/SVG/1.1/DTD/svg11.dtd">
<!-- Generated by graphviz version 2.43.0 (0)
 -->
<!-- Title: Tree Pages: 1 -->
<svg width="2231pt" height="1341pt"
 viewBox="0.00 0.00 2230.93 1340.71" xmlns="http://www.w3.org/2000/svg" xmlns:xlink="http://www.w3.org/1999/xlink">
<g id="graph0" class="graph" transform="scale(1 1) rotate(0) translate(18 1322.71)">
<title>Tree</title>
<polygon fill="white" stroke="transparent" points="-18,18 -18,-1322.71 2212.93,-1322.71 2212.93,18 -18,18"/>
<!-- 0 -->
<g id="node1" class="node">
<title>0</title>
<polygon fill="white" stroke="transparent" points="1074.97,-1304.71 1020.97,-1304.71 1020.97,-1268.71 1074.97,-1268.71 1074.97,-1304.71"/>
<text text-anchor="middle" x="1047.97" y="-1283.01" font-family="Helvetica,sans-Serif" font-size="14.00">0</text>
</g>
<!-- 1 -->
<g id="node2" class="node">
<title>1</title>
<polygon fill="#cc3d3d" stroke="black" points="1134.47,-1231.71 961.47,-1231.71 961.47,-1153.71 1134.47,-1153.71 1134.47,-1231.71"/>
<text text-anchor="start" x="1008.97" y="-1217.51" font-family="Helvetica,sans-Serif" font-weight="bold" font-size="14.00"> Class=0 </text>
<text text-anchor="start" x="1081.97" y="-1217.51" font-family="Helvetica,sans-Serif" font-size="14.00"> </text>
<text text-anchor="start" x="969.47" y="-1203.51" font-family="Helvetica,sans-Serif" font-size="14.00"> error: 0.967, n=4601 </text>
<text text-anchor="start" x="992.97" y="-1189.51" font-family="Helvetica,sans-Serif" font-size="14.00"> p: (0.61, 0.39) </text>
<text text-anchor="start" x="1026.47" y="-1175.51" font-family="Helvetica,sans-Serif" font-size="14.00">&#45;&#45;&#45;&#45;&#45;&#45;&#45;&#45;</text>
<text text-anchor="start" x="1011.47" y="-1161.51" font-family="Helvetica,sans-Serif" font-weight="bold" font-size="14.00">v_4=0.00</text>
</g>
<!-- 0&#45;&gt;1 -->
<!-- 2 -->
<g id="node3" class="node">
<title>2</title>
<polygon fill="#e58544" stroke="black" points="997.47,-1102.71 824.47,-1102.71 824.47,-1024.71 997.47,-1024.71 997.47,-1102.71"/>
<text text-anchor="start" x="871.97" y="-1088.51" font-family="Helvetica,sans-Serif" font-weight="bold" font-size="14.00"> Class=1 </text>
<text text-anchor="start" x="944.97" y="-1088.51" font-family="Helvetica,sans-Serif" font-size="14.00"> </text>
<text text-anchor="start" x="832.47" y="-1074.51" font-family="Helvetica,sans-Serif" font-size="14.00"> error: 0.976, n=2381 </text>
<text text-anchor="start" x="855.97" y="-1060.51" font-family="Helvetica,sans-Serif" font-size="14.00"> p: (0.41, 0.59) </text>
<text text-anchor="start" x="889.47" y="-1046.51" font-family="Helvetica,sans-Serif" font-size="14.00">&#45;&#45;&#45;&#45;&#45;&#45;&#45;&#45;</text>
<text text-anchor="start" x="874.47" y="-1032.51" font-family="Helvetica,sans-Serif" font-weight="bold" font-size="14.00">v_0=0.93</text>
</g>
<!-- 1&#45;&gt;2 -->
<g id="edge2" class="edge">
<title>1:s&#45;&gt;2:n</title>
<path fill="none" stroke="black" d="M1047.97,-1153.71C1047.97,-1153.71 951.33,-1117.74 920.38,-1106.22"/>
<polygon fill="black" stroke="black" points="921.56,-1102.92 910.97,-1102.71 919.12,-1109.48 921.56,-1102.92"/>
<text text-anchor="middle" x="1023.97" y="-1124.51" font-family="Helvetica,sans-Serif" font-size="14.00">&gt; &#45;0.001081</text>
</g>
<!-- 22 -->
<g id="node4" class="node">
<title>22</title>
<polygon fill="#e58544" stroke="black" points="1273.47,-1102.71 1100.47,-1102.71 1100.47,-1024.71 1273.47,-1024.71 1273.47,-1102.71"/>
<text text-anchor="start" x="1147.97" y="-1088.51" font-family="Helvetica,sans-Serif" font-weight="bold" font-size="14.00"> Class=0 </text>
<text text-anchor="start" x="1220.97" y="-1088.51" font-family="Helvetica,sans-Serif" font-size="14.00"> </text>
<text text-anchor="start" x="1108.47" y="-1074.51" font-family="Helvetica,sans-Serif" font-size="14.00"> error: 0.684, n=2220 </text>
<text text-anchor="start" x="1131.97" y="-1060.51" font-family="Helvetica,sans-Serif" font-size="14.00"> p: (0.82, 0.18) </text>
<text text-anchor="start" x="1165.47" y="-1046.51" font-family="Helvetica,sans-Serif" font-size="14.00">&#45;&#45;&#45;&#45;&#45;&#45;&#45;&#45;</text>
<text text-anchor="start" x="1150.47" y="-1032.51" font-family="Helvetica,sans-Serif" font-weight="bold" font-size="14.00">v_4=0.00</text>
</g>
<!-- 1&#45;&gt;22 -->
<g id="edge3" class="edge">
<title>1:s&#45;&gt;22:n</title>
<path fill="none" stroke="black" d="M1047.97,-1153.71C1047.97,-1153.71 1146.01,-1117.74 1177.41,-1106.22"/>
<polygon fill="black" stroke="black" points="1178.78,-1109.44 1186.97,-1102.71 1176.37,-1102.87 1178.78,-1109.44"/>
<text text-anchor="middle" x="1185.97" y="-1124.51" font-family="Helvetica,sans-Serif" font-size="14.00">&lt;= &#45;0.001081</text>
</g>
<!-- 3 -->
<g id="node5" class="node">
<title>3</title>
<polygon fill="#ccaf3d" stroke="black" points="742.47,-973.71 569.47,-973.71 569.47,-895.71 742.47,-895.71 742.47,-973.71"/>
<text text-anchor="start" x="616.97" y="-959.51" font-family="Helvetica,sans-Serif" font-weight="bold" font-size="14.00"> Class=0 </text>
<text text-anchor="start" x="689.97" y="-959.51" font-family="Helvetica,sans-Serif" font-size="14.00"> </text>
<text text-anchor="start" x="577.47" y="-945.51" font-family="Helvetica,sans-Serif" font-size="14.00"> error: 0.998, n=1770 </text>
<text text-anchor="start" x="600.97" y="-931.51" font-family="Helvetica,sans-Serif" font-size="14.00"> p: (0.52, 0.48) </text>
<text text-anchor="start" x="634.47" y="-917.51" font-family="Helvetica,sans-Serif" font-size="14.00">&#45;&#45;&#45;&#45;&#45;&#45;&#45;&#45;</text>
<text text-anchor="start" x="619.47" y="-903.51" font-family="Helvetica,sans-Serif" font-weight="bold" font-size="14.00">v_0=0.93</text>
</g>
<!-- 2&#45;&gt;3 -->
<g id="edge4" class="edge">
<title>2:s&#45;&gt;3:n</title>
<path fill="none" stroke="black" d="M910.97,-1024.71C910.97,-1024.71 713.11,-985.14 665.96,-975.71"/>
<polygon fill="black" stroke="black" points="666.46,-972.24 655.97,-973.71 665.08,-979.1 666.46,-972.24"/>
<text text-anchor="middle" x="855.47" y="-995.51" font-family="Helvetica,sans-Serif" font-size="14.00">&lt;= &#45;3.787</text>
</g>
<!-- 20 -->
<g id="node6" class="node">
<title>20</title>
<polygon fill="#ccaf3d" stroke="black" points="992.97,-973.71 828.97,-973.71 828.97,-895.71 992.97,-895.71 992.97,-973.71"/>
<text text-anchor="start" x="871.97" y="-959.51" font-family="Helvetica,sans-Serif" font-weight="bold" font-size="14.00"> Class=1 </text>
<text text-anchor="start" x="944.97" y="-959.51" font-family="Helvetica,sans-Serif" font-size="14.00"> </text>
<text text-anchor="start" x="836.97" y="-945.51" font-family="Helvetica,sans-Serif" font-size="14.00"> error: 0.373, n=611 </text>
<text text-anchor="start" x="855.97" y="-931.51" font-family="Helvetica,sans-Serif" font-size="14.00"> p: (0.07, 0.93) </text>
<text text-anchor="start" x="886.97" y="-917.51" font-family="Helvetica,sans-Serif" font-size="14.00">&#45;&#45;&#45;&#45;&#45;&#45;&#45;&#45;&#45;</text>
<text text-anchor="start" x="869.97" y="-903.51" font-family="Helvetica,sans-Serif" font-weight="bold" font-size="14.00">v_18=0.00</text>
</g>
<!-- 2&#45;&gt;20 -->
<g id="edge5" class="edge">
<title>2:s&#45;&gt;20:n</title>
<path fill="none" stroke="black" d="M910.97,-1024.71C910.97,-1024.71 910.97,-998.93 910.97,-984.03"/>
<polygon fill="black" stroke="black" points="914.47,-983.71 910.97,-973.71 907.47,-983.71 914.47,-983.71"/>
<text text-anchor="middle" x="942.47" y="-995.51" font-family="Helvetica,sans-Serif" font-size="14.00">&gt; &#45;3.787</text>
</g>
<!-- 23 -->
<g id="node24" class="node">
<title>23</title>
<ellipse fill="#ccaf3d" stroke="black" cx="1186.97" cy="-934.71" rx="122.16" ry="35.21"/>
<text text-anchor="start" x="1147.97" y="-945.51" font-family="Helvetica,sans-Serif" font-weight="bold" font-size="14.00"> Class=0 </text>
<text text-anchor="start" x="1220.97" y="-945.51" font-family="Helvetica,sans-Serif" font-size="14.00"> </text>
<text text-anchor="start" x="1108.47" y="-931.51" font-family="Helvetica,sans-Serif" font-size="14.00"> error: 0.276, n=1009 </text>
<text text-anchor="start" x="1131.97" y="-917.51" font-family="Helvetica,sans-Serif" font-size="14.00"> p: (0.95, 0.05) </text>
</g>
<!-- 22&#45;&gt;23 -->
<g id="edge23" class="edge">
<title>22:s&#45;&gt;23:n</title>
<path fill="none" stroke="black" d="M1186.97,-1024.71C1186.97,-1024.71 1186.97,-997.33 1186.97,-981.93"/>
<polygon fill="black" stroke="black" points="1190.47,-981.71 1186.97,-971.71 1183.47,-981.71 1190.47,-981.71"/>
<text text-anchor="middle" x="1228.97" y="-995.51" font-family="Helvetica,sans-Serif" font-size="14.00">&lt;= &#45;0.9618</text>
</g>
<!-- 24 -->
<g id="node25" class="node">
<title>24</title>
<polygon fill="#ccaf3d" stroke="black" points="1554.47,-973.71 1381.47,-973.71 1381.47,-895.71 1554.47,-895.71 1554.47,-973.71"/>
<text text-anchor="start" x="1428.97" y="-959.51" font-family="Helvetica,sans-Serif" font-weight="bold" font-size="14.00"> Class=0 </text>
<text text-anchor="start" x="1501.97" y="-959.51" font-family="Helvetica,sans-Serif" font-size="14.00"> </text>
<text text-anchor="start" x="1389.47" y="-945.51" font-family="Helvetica,sans-Serif" font-size="14.00"> error: 0.874, n=1211 </text>
<text text-anchor="start" x="1412.97" y="-931.51" font-family="Helvetica,sans-Serif" font-size="14.00"> p: (0.71, 0.29) </text>
<text text-anchor="start" x="1443.97" y="-917.51" font-family="Helvetica,sans-Serif" font-size="14.00">&#45;&#45;&#45;&#45;&#45;&#45;&#45;&#45;&#45;</text>
<text text-anchor="start" x="1426.97" y="-903.51" font-family="Helvetica,sans-Serif" font-weight="bold" font-size="14.00">v_13=0.00</text>
</g>
<!-- 22&#45;&gt;24 -->
<g id="edge24" class="edge">
<title>22:s&#45;&gt;24:n</title>
<path fill="none" stroke="black" d="M1186.97,-1024.71C1186.97,-1024.71 1407.91,-984.61 1457.96,-975.53"/>
<polygon fill="black" stroke="black" points="1458.75,-978.94 1467.97,-973.71 1457.5,-972.05 1458.75,-978.94"/>
<text text-anchor="middle" x="1403.97" y="-995.51" font-family="Helvetica,sans-Serif" font-size="14.00">&gt; &#45;0.9618</text>
</g>
<!-- 4 -->
<g id="node7" class="node">
<title>4</title>
<polygon fill="#c5e544" stroke="black" points="467.97,-844.71 303.97,-844.71 303.97,-766.71 467.97,-766.71 467.97,-844.71"/>
<text text-anchor="start" x="346.97" y="-830.51" font-family="Helvetica,sans-Serif" font-weight="bold" font-size="14.00"> Class=0 </text>
<text text-anchor="start" x="419.97" y="-830.51" font-family="Helvetica,sans-Serif" font-size="14.00"> </text>
<text text-anchor="start" x="311.97" y="-816.51" font-family="Helvetica,sans-Serif" font-size="14.00"> error: 0.753, n=852 </text>
<text text-anchor="start" x="330.97" y="-802.51" font-family="Helvetica,sans-Serif" font-size="14.00"> p: (0.78, 0.22) </text>
<text text-anchor="start" x="364.47" y="-788.51" font-family="Helvetica,sans-Serif" font-size="14.00">&#45;&#45;&#45;&#45;&#45;&#45;&#45;&#45;</text>
<text text-anchor="start" x="349.47" y="-774.51" font-family="Helvetica,sans-Serif" font-weight="bold" font-size="14.00">v_3=0.00</text>
</g>
<!-- 3&#45;&gt;4 -->
<g id="edge6" class="edge">
<title>3:s&#45;&gt;4:n</title>
<path fill="none" stroke="black" d="M655.97,-895.71C655.97,-895.71 444.61,-855.79 395.9,-846.59"/>
<polygon fill="black" stroke="black" points="396.44,-843.13 385.97,-844.71 395.14,-850.01 396.44,-843.13"/>
<text text-anchor="middle" x="591.47" y="-866.51" font-family="Helvetica,sans-Serif" font-size="14.00">&lt;= &#45;227.7</text>
</g>
<!-- 10 -->
<g id="node8" class="node">
<title>10</title>
<polygon fill="#c5e544" stroke="black" points="737.97,-844.71 573.97,-844.71 573.97,-766.71 737.97,-766.71 737.97,-844.71"/>
<text text-anchor="start" x="616.97" y="-830.51" font-family="Helvetica,sans-Serif" font-weight="bold" font-size="14.00"> Class=1 </text>
<text text-anchor="start" x="689.97" y="-830.51" font-family="Helvetica,sans-Serif" font-size="14.00"> </text>
<text text-anchor="start" x="581.97" y="-816.51" font-family="Helvetica,sans-Serif" font-size="14.00"> error: 0.860, n=918 </text>
<text text-anchor="start" x="600.97" y="-802.51" font-family="Helvetica,sans-Serif" font-size="14.00"> p: (0.28, 0.72) </text>
<text text-anchor="start" x="634.47" y="-788.51" font-family="Helvetica,sans-Serif" font-size="14.00">&#45;&#45;&#45;&#45;&#45;&#45;&#45;&#45;</text>
<text text-anchor="start" x="619.47" y="-774.51" font-family="Helvetica,sans-Serif" font-weight="bold" font-size="14.00">v_8=0.00</text>
</g>
<!-- 3&#45;&gt;10 -->
<g id="edge7" class="edge">
<title>3:s&#45;&gt;10:n</title>
<path fill="none" stroke="black" d="M655.97,-895.71C655.97,-895.71 655.97,-869.93 655.97,-855.03"/>
<polygon fill="black" stroke="black" points="659.47,-854.71 655.97,-844.71 652.47,-854.71 659.47,-854.71"/>
<text text-anchor="middle" x="687.47" y="-866.51" font-family="Helvetica,sans-Serif" font-size="14.00">&gt; &#45;227.7</text>
</g>
<!-- 21 -->
<g id="node23" class="node">
<title>21</title>
<ellipse fill="#c5e544" stroke="black" cx="925.97" cy="-805.71" rx="115.93" ry="35.21"/>
<text text-anchor="start" x="886.97" y="-816.51" font-family="Helvetica,sans-Serif" font-weight="bold" font-size="14.00"> Class=1 </text>
<text text-anchor="start" x="959.97" y="-816.51" font-family="Helvetica,sans-Serif" font-size="14.00"> </text>
<text text-anchor="start" x="851.97" y="-802.51" font-family="Helvetica,sans-Serif" font-size="14.00"> error: 0.229, n=512 </text>
<text text-anchor="start" x="870.97" y="-788.51" font-family="Helvetica,sans-Serif" font-size="14.00"> p: (0.04, 0.96) </text>
</g>
<!-- 20&#45;&gt;21 -->
<g id="edge22" class="edge">
<title>20:s&#45;&gt;21:n</title>
<path fill="none" stroke="black" d="M910.97,-895.71C910.97,-895.71 918.88,-867.73 923.21,-852.43"/>
<polygon fill="black" stroke="black" points="926.61,-853.29 925.97,-842.71 919.87,-851.38 926.61,-853.29"/>
<text text-anchor="middle" x="956.97" y="-866.51" font-family="Helvetica,sans-Serif" font-size="14.00">&gt; &#45;0.3235</text>
</g>
<!-- 5 -->
<g id="node9" class="node">
<title>5</title>
<polygon fill="#76cc3d" stroke="black" points="197.97,-715.71 33.97,-715.71 33.97,-637.71 197.97,-637.71 197.97,-715.71"/>
<text text-anchor="start" x="76.97" y="-701.51" font-family="Helvetica,sans-Serif" font-weight="bold" font-size="14.00"> Class=0 </text>
<text text-anchor="start" x="149.97" y="-701.51" font-family="Helvetica,sans-Serif" font-size="14.00"> </text>
<text text-anchor="start" x="41.97" y="-687.51" font-family="Helvetica,sans-Serif" font-size="14.00"> error: 0.871, n=631 </text>
<text text-anchor="start" x="60.97" y="-673.51" font-family="Helvetica,sans-Serif" font-size="14.00"> p: (0.71, 0.29) </text>
<text text-anchor="start" x="91.97" y="-659.51" font-family="Helvetica,sans-Serif" font-size="14.00">&#45;&#45;&#45;&#45;&#45;&#45;&#45;&#45;&#45;</text>
<text text-anchor="start" x="74.97" y="-645.51" font-family="Helvetica,sans-Serif" font-weight="bold" font-size="14.00">v_13=0.00</text>
</g>
<!-- 4&#45;&gt;5 -->
<g id="edge8" class="edge">
<title>4:s&#45;&gt;5:n</title>
<path fill="none" stroke="black" d="M385.97,-766.71C385.97,-766.71 174.61,-726.79 125.9,-717.59"/>
<polygon fill="black" stroke="black" points="126.44,-714.13 115.97,-715.71 125.14,-721.01 126.44,-714.13"/>
<text text-anchor="middle" x="325.97" y="-737.51" font-family="Helvetica,sans-Serif" font-size="14.00">&lt;= &#45;0.1782</text>
</g>
<!-- 9 -->
<g id="node10" class="node">
<title>9</title>
<ellipse fill="#76cc3d" stroke="black" cx="385.97" cy="-676.71" rx="115.93" ry="35.21"/>
<text text-anchor="start" x="346.97" y="-687.51" font-family="Helvetica,sans-Serif" font-weight="bold" font-size="14.00"> Class=0 </text>
<text text-anchor="start" x="419.97" y="-687.51" font-family="Helvetica,sans-Serif" font-size="14.00"> </text>
<text text-anchor="start" x="311.97" y="-673.51" font-family="Helvetica,sans-Serif" font-size="14.00"> error: 0.000, n=221 </text>
<text text-anchor="start" x="330.97" y="-659.51" font-family="Helvetica,sans-Serif" font-size="14.00"> p: (1.00, 0.00) </text>
</g>
<!-- 4&#45;&gt;9 -->
<g id="edge9" class="edge">
<title>4:s&#45;&gt;9:n</title>
<path fill="none" stroke="black" d="M385.97,-766.71C385.97,-766.71 385.97,-739.33 385.97,-723.93"/>
<polygon fill="black" stroke="black" points="389.47,-723.71 385.97,-713.71 382.47,-723.71 389.47,-723.71"/>
<text text-anchor="middle" x="421.97" y="-737.51" font-family="Helvetica,sans-Serif" font-size="14.00">&gt; &#45;0.1782</text>
</g>
<!-- 11 -->
<g id="node14" class="node">
<title>11</title>
<polygon fill="#76cc3d" stroke="black" points="737.97,-715.71 573.97,-715.71 573.97,-637.71 737.97,-637.71 737.97,-715.71"/>
<text text-anchor="start" x="616.97" y="-701.51" font-family="Helvetica,sans-Serif" font-weight="bold" font-size="14.00"> Class=1 </text>
<text text-anchor="start" x="689.97" y="-701.51" font-family="Helvetica,sans-Serif" font-size="14.00"> </text>
<text text-anchor="start" x="581.97" y="-687.51" font-family="Helvetica,sans-Serif" font-size="14.00"> error: 0.999, n=344 </text>
<text text-anchor="start" x="600.97" y="-673.51" font-family="Helvetica,sans-Serif" font-size="14.00"> p: (0.49, 0.51) </text>
<text text-anchor="start" x="631.97" y="-659.51" font-family="Helvetica,sans-Serif" font-size="14.00">&#45;&#45;&#45;&#45;&#45;&#45;&#45;&#45;&#45;</text>
<text text-anchor="start" x="614.97" y="-645.51" font-family="Helvetica,sans-Serif" font-weight="bold" font-size="14.00">v_12=0.00</text>
</g>
<!-- 10&#45;&gt;11 -->
<g id="edge13" class="edge">
<title>10:s&#45;&gt;11:n</title>
<path fill="none" stroke="black" d="M655.97,-766.71C655.97,-766.71 655.97,-740.93 655.97,-726.03"/>
<polygon fill="black" stroke="black" points="659.47,-725.71 655.97,-715.71 652.47,-725.71 659.47,-725.71"/>
<text text-anchor="middle" x="702.47" y="-737.51" font-family="Helvetica,sans-Serif" font-size="14.00">&lt;= &#45;0.09099</text>
</g>
<!-- 13 -->
<g id="node15" class="node">
<title>13</title>
<polygon fill="#76cc3d" stroke="black" points="990.97,-715.71 826.97,-715.71 826.97,-637.71 990.97,-637.71 990.97,-715.71"/>
<text text-anchor="start" x="869.97" y="-701.51" font-family="Helvetica,sans-Serif" font-weight="bold" font-size="14.00"> Class=1 </text>
<text text-anchor="start" x="942.97" y="-701.51" font-family="Helvetica,sans-Serif" font-size="14.00"> </text>
<text text-anchor="start" x="834.97" y="-687.51" font-family="Helvetica,sans-Serif" font-size="14.00"> error: 0.639, n=574 </text>
<text text-anchor="start" x="853.97" y="-673.51" font-family="Helvetica,sans-Serif" font-size="14.00"> p: (0.16, 0.84) </text>
<text text-anchor="start" x="884.97" y="-659.51" font-family="Helvetica,sans-Serif" font-size="14.00">&#45;&#45;&#45;&#45;&#45;&#45;&#45;&#45;&#45;</text>
<text text-anchor="start" x="867.97" y="-645.51" font-family="Helvetica,sans-Serif" font-weight="bold" font-size="14.00">v_14=0.00</text>
</g>
<!-- 10&#45;&gt;13 -->
<g id="edge14" class="edge">
<title>10:s&#45;&gt;13:n</title>
<path fill="none" stroke="black" d="M655.97,-766.71C655.97,-766.71 852.27,-727.14 899.05,-717.71"/>
<polygon fill="black" stroke="black" points="899.85,-721.12 908.97,-715.71 898.47,-714.26 899.85,-721.12"/>
<text text-anchor="middle" x="870.47" y="-737.51" font-family="Helvetica,sans-Serif" font-size="14.00">&gt; &#45;0.09099</text>
</g>
<!-- 6 -->
<g id="node11" class="node">
<title>6</title>
<polygon fill="#45e544" stroke="black" points="197.97,-586.71 33.97,-586.71 33.97,-508.71 197.97,-508.71 197.97,-586.71"/>
<text text-anchor="start" x="76.97" y="-572.51" font-family="Helvetica,sans-Serif" font-weight="bold" font-size="14.00"> Class=0 </text>
<text text-anchor="start" x="149.97" y="-572.51" font-family="Helvetica,sans-Serif" font-size="14.00"> </text>
<text text-anchor="start" x="41.97" y="-558.51" font-family="Helvetica,sans-Serif" font-size="14.00"> error: 0.789, n=550 </text>
<text text-anchor="start" x="60.97" y="-544.51" font-family="Helvetica,sans-Serif" font-size="14.00"> p: (0.76, 0.24) </text>
<text text-anchor="start" x="91.97" y="-530.51" font-family="Helvetica,sans-Serif" font-size="14.00">&#45;&#45;&#45;&#45;&#45;&#45;&#45;&#45;&#45;</text>
<text text-anchor="start" x="74.97" y="-516.51" font-family="Helvetica,sans-Serif" font-weight="bold" font-size="14.00">v_30=0.00</text>
</g>
<!-- 5&#45;&gt;6 -->
<g id="edge10" class="edge">
<title>5:s&#45;&gt;6:n</title>
<path fill="none" stroke="black" d="M115.97,-637.71C115.97,-637.71 115.97,-611.93 115.97,-597.03"/>
<polygon fill="black" stroke="black" points="119.47,-596.71 115.97,-586.71 112.47,-596.71 119.47,-596.71"/>
<text text-anchor="middle" x="151.97" y="-608.51" font-family="Helvetica,sans-Serif" font-size="14.00">&gt; &#45;0.4851</text>
</g>
<!-- 7 -->
<g id="node12" class="node">
<title>7</title>
<polygon fill="#3dcc76" stroke="black" points="197.97,-457.71 33.97,-457.71 33.97,-379.71 197.97,-379.71 197.97,-457.71"/>
<text text-anchor="start" x="76.97" y="-443.51" font-family="Helvetica,sans-Serif" font-weight="bold" font-size="14.00"> Class=0 </text>
<text text-anchor="start" x="149.97" y="-443.51" font-family="Helvetica,sans-Serif" font-size="14.00"> </text>
<text text-anchor="start" x="41.97" y="-429.51" font-family="Helvetica,sans-Serif" font-size="14.00"> error: 0.632, n=471 </text>
<text text-anchor="start" x="60.97" y="-415.51" font-family="Helvetica,sans-Serif" font-size="14.00"> p: (0.84, 0.16) </text>
<text text-anchor="start" x="91.97" y="-401.51" font-family="Helvetica,sans-Serif" font-size="14.00">&#45;&#45;&#45;&#45;&#45;&#45;&#45;&#45;&#45;</text>
<text text-anchor="start" x="74.97" y="-387.51" font-family="Helvetica,sans-Serif" font-weight="bold" font-size="14.00">v_30=0.00</text>
</g>
<!-- 6&#45;&gt;7 -->
<g id="edge11" class="edge">
<title>6:s&#45;&gt;7:n</title>
<path fill="none" stroke="black" d="M115.97,-508.71C115.97,-508.71 115.97,-482.93 115.97,-468.03"/>
<polygon fill="black" stroke="black" points="119.47,-467.71 115.97,-457.71 112.47,-467.71 119.47,-467.71"/>
<text text-anchor="middle" x="151.97" y="-479.51" font-family="Helvetica,sans-Serif" font-size="14.00">&gt; &#45;0.1883</text>
</g>
<!-- 8 -->
<g id="node13" class="node">
<title>8</title>
<ellipse fill="#44e5c5" stroke="black" cx="115.97" cy="-289.71" rx="115.93" ry="35.21"/>
<text text-anchor="start" x="76.97" y="-300.51" font-family="Helvetica,sans-Serif" font-weight="bold" font-size="14.00"> Class=0 </text>
<text text-anchor="start" x="149.97" y="-300.51" font-family="Helvetica,sans-Serif" font-size="14.00"> </text>
<text text-anchor="start" x="41.97" y="-286.51" font-family="Helvetica,sans-Serif" font-size="14.00"> error: 0.498, n=430 </text>
<text text-anchor="start" x="60.97" y="-272.51" font-family="Helvetica,sans-Serif" font-size="14.00"> p: (0.89, 0.11) </text>
</g>
<!-- 7&#45;&gt;8 -->
<g id="edge12" class="edge">
<title>7:s&#45;&gt;8:n</title>
<path fill="none" stroke="black" d="M115.97,-379.71C115.97,-379.71 115.97,-352.33 115.97,-336.93"/>
<polygon fill="black" stroke="black" points="119.47,-336.71 115.97,-326.71 112.47,-336.71 119.47,-336.71"/>
<text text-anchor="middle" x="155.47" y="-350.51" font-family="Helvetica,sans-Serif" font-size="14.00">&lt;= 0.1971</text>
</g>
<!-- 12 -->
<g id="node16" class="node">
<title>12</title>
<ellipse fill="#45e544" stroke="black" cx="650.97" cy="-547.71" rx="115.93" ry="35.21"/>
<text text-anchor="start" x="611.97" y="-558.51" font-family="Helvetica,sans-Serif" font-weight="bold" font-size="14.00"> Class=0 </text>
<text text-anchor="start" x="684.97" y="-558.51" font-family="Helvetica,sans-Serif" font-size="14.00"> </text>
<text text-anchor="start" x="576.97" y="-544.51" font-family="Helvetica,sans-Serif" font-size="14.00"> error: 0.855, n=200 </text>
<text text-anchor="start" x="595.97" y="-530.51" font-family="Helvetica,sans-Serif" font-size="14.00"> p: (0.72, 0.28) </text>
</g>
<!-- 11&#45;&gt;12 -->
<g id="edge15" class="edge">
<title>11:s&#45;&gt;12:n</title>
<path fill="none" stroke="black" d="M655.97,-637.71C655.97,-637.71 653.38,-610.33 651.93,-594.93"/>
<polygon fill="black" stroke="black" points="655.39,-594.34 650.97,-584.71 648.42,-595 655.39,-594.34"/>
<text text-anchor="middle" x="690.97" y="-608.51" font-family="Helvetica,sans-Serif" font-size="14.00">&gt; &#45;0.2748</text>
</g>
<!-- 14 -->
<g id="node17" class="node">
<title>14</title>
<polygon fill="#45e544" stroke="black" points="1002.97,-586.71 838.97,-586.71 838.97,-508.71 1002.97,-508.71 1002.97,-586.71"/>
<text text-anchor="start" x="881.97" y="-572.51" font-family="Helvetica,sans-Serif" font-weight="bold" font-size="14.00"> Class=1 </text>
<text text-anchor="start" x="954.97" y="-572.51" font-family="Helvetica,sans-Serif" font-size="14.00"> </text>
<text text-anchor="start" x="846.97" y="-558.51" font-family="Helvetica,sans-Serif" font-size="14.00"> error: 0.540, n=525 </text>
<text text-anchor="start" x="865.97" y="-544.51" font-family="Helvetica,sans-Serif" font-size="14.00"> p: (0.12, 0.88) </text>
<text text-anchor="start" x="896.97" y="-530.51" font-family="Helvetica,sans-Serif" font-size="14.00">&#45;&#45;&#45;&#45;&#45;&#45;&#45;&#45;&#45;</text>
<text text-anchor="start" x="879.97" y="-516.51" font-family="Helvetica,sans-Serif" font-weight="bold" font-size="14.00">v_28=0.00</text>
</g>
<!-- 13&#45;&gt;14 -->
<g id="edge16" class="edge">
<title>13:s&#45;&gt;14:n</title>
<path fill="none" stroke="black" d="M908.97,-637.71C908.97,-637.71 915.16,-611.36 918.65,-596.54"/>
<polygon fill="black" stroke="black" points="922.08,-597.25 920.97,-586.71 915.27,-595.64 922.08,-597.25"/>
<text text-anchor="middle" x="952.97" y="-608.51" font-family="Helvetica,sans-Serif" font-size="14.00">&gt; &#45;0.5309</text>
</g>
<!-- 15 -->
<g id="node18" class="node">
<title>15</title>
<ellipse fill="#3dcc76" stroke="black" cx="812.97" cy="-418.71" rx="115.93" ry="35.21"/>
<text text-anchor="start" x="773.97" y="-429.51" font-family="Helvetica,sans-Serif" font-weight="bold" font-size="14.00"> Class=1 </text>
<text text-anchor="start" x="846.97" y="-429.51" font-family="Helvetica,sans-Serif" font-size="14.00"> </text>
<text text-anchor="start" x="738.97" y="-415.51" font-family="Helvetica,sans-Serif" font-size="14.00"> error: 0.092, n=170 </text>
<text text-anchor="start" x="757.97" y="-401.51" font-family="Helvetica,sans-Serif" font-size="14.00"> p: (0.01, 0.99) </text>
</g>
<!-- 14&#45;&gt;15 -->
<g id="edge17" class="edge">
<title>14:s&#45;&gt;15:n</title>
<path fill="none" stroke="black" d="M920.97,-508.71C920.97,-508.71 848.29,-473.05 822.17,-460.23"/>
<polygon fill="black" stroke="black" points="823.48,-456.97 812.97,-455.71 820.4,-463.26 823.48,-456.97"/>
<text text-anchor="middle" x="896.97" y="-479.51" font-family="Helvetica,sans-Serif" font-size="14.00">&lt;= &#45;0.1361</text>
</g>
<!-- 16 -->
<g id="node19" class="node">
<title>16</title>
<polygon fill="#3dcc76" stroke="black" points="1164.97,-457.71 1000.97,-457.71 1000.97,-379.71 1164.97,-379.71 1164.97,-457.71"/>
<text text-anchor="start" x="1043.97" y="-443.51" font-family="Helvetica,sans-Serif" font-weight="bold" font-size="14.00"> Class=1 </text>
<text text-anchor="start" x="1116.97" y="-443.51" font-family="Helvetica,sans-Serif" font-size="14.00"> </text>
<text text-anchor="start" x="1008.97" y="-429.51" font-family="Helvetica,sans-Serif" font-size="14.00"> error: 0.674, n=355 </text>
<text text-anchor="start" x="1027.97" y="-415.51" font-family="Helvetica,sans-Serif" font-size="14.00"> p: (0.18, 0.82) </text>
<text text-anchor="start" x="1058.97" y="-401.51" font-family="Helvetica,sans-Serif" font-size="14.00">&#45;&#45;&#45;&#45;&#45;&#45;&#45;&#45;&#45;</text>
<text text-anchor="start" x="1041.97" y="-387.51" font-family="Helvetica,sans-Serif" font-weight="bold" font-size="14.00">v_17=0.00</text>
</g>
<!-- 14&#45;&gt;16 -->
<g id="edge18" class="edge">
<title>14:s&#45;&gt;16:n</title>
<path fill="none" stroke="black" d="M920.97,-508.71C920.97,-508.71 1038.44,-471.73 1073.32,-460.75"/>
<polygon fill="black" stroke="black" points="1074.48,-464.05 1082.97,-457.71 1072.38,-457.38 1074.48,-464.05"/>
<text text-anchor="middle" x="1057.97" y="-479.51" font-family="Helvetica,sans-Serif" font-size="14.00">&gt; &#45;0.1361</text>
</g>
<!-- 17 -->
<g id="node20" class="node">
<title>17</title>
<polygon fill="#44e5c5" stroke="black" points="1164.97,-328.71 1000.97,-328.71 1000.97,-250.71 1164.97,-250.71 1164.97,-328.71"/>
<text text-anchor="start" x="1043.97" y="-314.51" font-family="Helvetica,sans-Serif" font-weight="bold" font-size="14.00"> Class=1 </text>
<text text-anchor="start" x="1116.97" y="-314.51" font-family="Helvetica,sans-Serif" font-size="14.00"> </text>
<text text-anchor="start" x="1008.97" y="-300.51" font-family="Helvetica,sans-Serif" font-size="14.00"> error: 0.531, n=282 </text>
<text text-anchor="start" x="1027.97" y="-286.51" font-family="Helvetica,sans-Serif" font-size="14.00"> p: (0.12, 0.88) </text>
<text text-anchor="start" x="1058.97" y="-272.51" font-family="Helvetica,sans-Serif" font-size="14.00">&#45;&#45;&#45;&#45;&#45;&#45;&#45;&#45;&#45;</text>
<text text-anchor="start" x="1041.97" y="-258.51" font-family="Helvetica,sans-Serif" font-weight="bold" font-size="14.00">v_18=0.00</text>
</g>
<!-- 16&#45;&gt;17 -->
<g id="edge19" class="edge">
<title>16:s&#45;&gt;17:n</title>
<path fill="none" stroke="black" d="M1082.97,-379.71C1082.97,-379.71 1082.97,-353.93 1082.97,-339.03"/>
<polygon fill="black" stroke="black" points="1086.47,-338.71 1082.97,-328.71 1079.47,-338.71 1086.47,-338.71"/>
<text text-anchor="middle" x="1122.47" y="-350.51" font-family="Helvetica,sans-Serif" font-size="14.00">&lt;= 0.1261</text>
</g>
<!-- 18 -->
<g id="node21" class="node">
<title>18</title>
<polygon fill="#3dafcc" stroke="black" points="1164.97,-199.71 1000.97,-199.71 1000.97,-121.71 1164.97,-121.71 1164.97,-199.71"/>
<text text-anchor="start" x="1043.97" y="-185.51" font-family="Helvetica,sans-Serif" font-weight="bold" font-size="14.00"> Class=1 </text>
<text text-anchor="start" x="1116.97" y="-185.51" font-family="Helvetica,sans-Serif" font-size="14.00"> </text>
<text text-anchor="start" x="1008.97" y="-171.51" font-family="Helvetica,sans-Serif" font-size="14.00"> error: 0.375, n=207 </text>
<text text-anchor="start" x="1027.97" y="-157.51" font-family="Helvetica,sans-Serif" font-size="14.00"> p: (0.07, 0.93) </text>
<text text-anchor="start" x="1061.47" y="-143.51" font-family="Helvetica,sans-Serif" font-size="14.00">&#45;&#45;&#45;&#45;&#45;&#45;&#45;&#45;</text>
<text text-anchor="start" x="1046.47" y="-129.51" font-family="Helvetica,sans-Serif" font-weight="bold" font-size="14.00">v_3=0.00</text>
</g>
<!-- 17&#45;&gt;18 -->
<g id="edge20" class="edge">
<title>17:s&#45;&gt;18:n</title>
<path fill="none" stroke="black" d="M1082.97,-250.71C1082.97,-250.71 1082.97,-224.93 1082.97,-210.03"/>
<polygon fill="black" stroke="black" points="1086.47,-209.71 1082.97,-199.71 1079.47,-209.71 1086.47,-209.71"/>
<text text-anchor="middle" x="1118.97" y="-221.51" font-family="Helvetica,sans-Serif" font-size="14.00">&gt; &#45;0.1472</text>
</g>
<!-- 19 -->
<g id="node22" class="node">
<title>19</title>
<ellipse fill="#4485e5" stroke="black" cx="1082.97" cy="-35.36" rx="115.93" ry="35.21"/>
<text text-anchor="start" x="1043.97" y="-46.16" font-family="Helvetica,sans-Serif" font-weight="bold" font-size="14.00"> Class=1 </text>
<text text-anchor="start" x="1116.97" y="-46.16" font-family="Helvetica,sans-Serif" font-size="14.00"> </text>
<text text-anchor="start" x="1008.97" y="-32.16" font-family="Helvetica,sans-Serif" font-size="14.00"> error: 0.306, n=201 </text>
<text text-anchor="start" x="1027.97" y="-18.16" font-family="Helvetica,sans-Serif" font-size="14.00"> p: (0.05, 0.95) </text>
</g>
<!-- 18&#45;&gt;19 -->
<g id="edge21" class="edge">
<title>18:s&#45;&gt;19:n</title>
<path fill="none" stroke="black" d="M1082.97,-121.71C1082.97,-121.71 1082.97,-95.93 1082.97,-81.03"/>
<polygon fill="black" stroke="black" points="1086.47,-80.71 1082.97,-70.71 1079.47,-80.71 1086.47,-80.71"/>
<text text-anchor="middle" x="1120.47" y="-92.51" font-family="Helvetica,sans-Serif" font-size="14.00">&lt;= &#45;0.745</text>
</g>
<!-- 25 -->
<g id="node26" class="node">
<title>25</title>
<polygon fill="#c5e544" stroke="black" points="1426.97,-844.71 1262.97,-844.71 1262.97,-766.71 1426.97,-766.71 1426.97,-844.71"/>
<text text-anchor="start" x="1305.97" y="-830.51" font-family="Helvetica,sans-Serif" font-weight="bold" font-size="14.00"> Class=1 </text>
<text text-anchor="start" x="1378.97" y="-830.51" font-family="Helvetica,sans-Serif" font-size="14.00"> </text>
<text text-anchor="start" x="1270.97" y="-816.51" font-family="Helvetica,sans-Serif" font-size="14.00"> error: 0.921, n=265 </text>
<text text-anchor="start" x="1289.97" y="-802.51" font-family="Helvetica,sans-Serif" font-size="14.00"> p: (0.34, 0.66) </text>
<text text-anchor="start" x="1320.97" y="-788.51" font-family="Helvetica,sans-Serif" font-size="14.00">&#45;&#45;&#45;&#45;&#45;&#45;&#45;&#45;&#45;</text>
<text text-anchor="start" x="1303.97" y="-774.51" font-family="Helvetica,sans-Serif" font-weight="bold" font-size="14.00">v_14=0.00</text>
</g>
<!-- 24&#45;&gt;25 -->
<g id="edge25" class="edge">
<title>24:s&#45;&gt;25:n</title>
<path fill="none" stroke="black" d="M1467.97,-895.71C1467.97,-895.71 1382.82,-860.4 1354.21,-848.54"/>
<polygon fill="black" stroke="black" points="1355.54,-845.31 1344.97,-844.71 1352.86,-851.77 1355.54,-845.31"/>
<text text-anchor="middle" x="1431.97" y="-866.51" font-family="Helvetica,sans-Serif" font-size="14.00">&lt;= &#45;0.3427</text>
</g>
<!-- 28 -->
<g id="node27" class="node">
<title>28</title>
<polygon fill="#c5e544" stroke="black" points="1710.97,-844.71 1546.97,-844.71 1546.97,-766.71 1710.97,-766.71 1710.97,-844.71"/>
<text text-anchor="start" x="1589.97" y="-830.51" font-family="Helvetica,sans-Serif" font-weight="bold" font-size="14.00"> Class=0 </text>
<text text-anchor="start" x="1662.97" y="-830.51" font-family="Helvetica,sans-Serif" font-size="14.00"> </text>
<text text-anchor="start" x="1554.97" y="-816.51" font-family="Helvetica,sans-Serif" font-size="14.00"> error: 0.702, n=946 </text>
<text text-anchor="start" x="1573.97" y="-802.51" font-family="Helvetica,sans-Serif" font-size="14.00"> p: (0.81, 0.19) </text>
<text text-anchor="start" x="1607.47" y="-788.51" font-family="Helvetica,sans-Serif" font-size="14.00">&#45;&#45;&#45;&#45;&#45;&#45;&#45;&#45;</text>
<text text-anchor="start" x="1592.47" y="-774.51" font-family="Helvetica,sans-Serif" font-weight="bold" font-size="14.00">v_0=0.93</text>
</g>
<!-- 24&#45;&gt;28 -->
<g id="edge26" class="edge">
<title>24:s&#45;&gt;28:n</title>
<path fill="none" stroke="black" d="M1467.97,-895.71C1467.97,-895.71 1584.72,-858.73 1619.38,-847.75"/>
<polygon fill="black" stroke="black" points="1620.49,-851.07 1628.97,-844.71 1618.38,-844.39 1620.49,-851.07"/>
<text text-anchor="middle" x="1603.97" y="-866.51" font-family="Helvetica,sans-Serif" font-size="14.00">&gt; &#45;0.3427</text>
</g>
<!-- 26 -->
<g id="node28" class="node">
<title>26</title>
<polygon fill="#76cc3d" stroke="black" points="1332.97,-715.71 1168.97,-715.71 1168.97,-637.71 1332.97,-637.71 1332.97,-715.71"/>
<text text-anchor="start" x="1211.97" y="-701.51" font-family="Helvetica,sans-Serif" font-weight="bold" font-size="14.00"> Class=1 </text>
<text text-anchor="start" x="1284.97" y="-701.51" font-family="Helvetica,sans-Serif" font-size="14.00"> </text>
<text text-anchor="start" x="1176.97" y="-687.51" font-family="Helvetica,sans-Serif" font-size="14.00"> error: 0.848, n=237 </text>
<text text-anchor="start" x="1195.97" y="-673.51" font-family="Helvetica,sans-Serif" font-size="14.00"> p: (0.27, 0.73) </text>
<text text-anchor="start" x="1226.97" y="-659.51" font-family="Helvetica,sans-Serif" font-size="14.00">&#45;&#45;&#45;&#45;&#45;&#45;&#45;&#45;&#45;</text>
<text text-anchor="start" x="1209.97" y="-645.51" font-family="Helvetica,sans-Serif" font-weight="bold" font-size="14.00">v_12=0.00</text>
</g>
<!-- 25&#45;&gt;26 -->
<g id="edge27" class="edge">
<title>25:s&#45;&gt;26:n</title>
<path fill="none" stroke="black" d="M1344.97,-766.71C1344.97,-766.71 1283.51,-733.37 1259.98,-720.6"/>
<polygon fill="black" stroke="black" points="1261.42,-717.4 1250.97,-715.71 1258.09,-723.56 1261.42,-717.4"/>
<text text-anchor="middle" x="1341.47" y="-737.51" font-family="Helvetica,sans-Serif" font-size="14.00">&gt; &#45;0.565</text>
</g>
<!-- 29 -->
<g id="node30" class="node">
<title>29</title>
<polygon fill="#76cc3d" stroke="black" points="1710.97,-715.71 1546.97,-715.71 1546.97,-637.71 1710.97,-637.71 1710.97,-715.71"/>
<text text-anchor="start" x="1589.97" y="-701.51" font-family="Helvetica,sans-Serif" font-weight="bold" font-size="14.00"> Class=0 </text>
<text text-anchor="start" x="1662.97" y="-701.51" font-family="Helvetica,sans-Serif" font-size="14.00"> </text>
<text text-anchor="start" x="1554.97" y="-687.51" font-family="Helvetica,sans-Serif" font-size="14.00"> error: 0.401, n=666 </text>
<text text-anchor="start" x="1573.97" y="-673.51" font-family="Helvetica,sans-Serif" font-size="14.00"> p: (0.92, 0.08) </text>
<text text-anchor="start" x="1607.47" y="-659.51" font-family="Helvetica,sans-Serif" font-size="14.00">&#45;&#45;&#45;&#45;&#45;&#45;&#45;&#45;</text>
<text text-anchor="start" x="1592.47" y="-645.51" font-family="Helvetica,sans-Serif" font-weight="bold" font-size="14.00">v_0=0.93</text>
</g>
<!-- 28&#45;&gt;29 -->
<g id="edge29" class="edge">
<title>28:s&#45;&gt;29:n</title>
<path fill="none" stroke="black" d="M1628.97,-766.71C1628.97,-766.71 1628.97,-740.93 1628.97,-726.03"/>
<polygon fill="black" stroke="black" points="1632.47,-725.71 1628.97,-715.71 1625.47,-725.71 1632.47,-725.71"/>
<text text-anchor="middle" x="1666.47" y="-737.51" font-family="Helvetica,sans-Serif" font-size="14.00">&lt;= &#45;123.8</text>
</g>
<!-- 32 -->
<g id="node31" class="node">
<title>32</title>
<polygon fill="#76cc3d" stroke="black" points="2047.97,-715.71 1883.97,-715.71 1883.97,-637.71 2047.97,-637.71 2047.97,-715.71"/>
<text text-anchor="start" x="1926.97" y="-701.51" font-family="Helvetica,sans-Serif" font-weight="bold" font-size="14.00"> Class=0 </text>
<text text-anchor="start" x="1999.97" y="-701.51" font-family="Helvetica,sans-Serif" font-size="14.00"> </text>
<text text-anchor="start" x="1891.97" y="-687.51" font-family="Helvetica,sans-Serif" font-size="14.00"> error: 0.994, n=280 </text>
<text text-anchor="start" x="1910.97" y="-673.51" font-family="Helvetica,sans-Serif" font-size="14.00"> p: (0.55, 0.45) </text>
<text text-anchor="start" x="1944.47" y="-659.51" font-family="Helvetica,sans-Serif" font-size="14.00">&#45;&#45;&#45;&#45;&#45;&#45;&#45;&#45;</text>
<text text-anchor="start" x="1929.47" y="-645.51" font-family="Helvetica,sans-Serif" font-weight="bold" font-size="14.00">v_1=0.07</text>
</g>
<!-- 28&#45;&gt;32 -->
<g id="edge30" class="edge">
<title>28:s&#45;&gt;32:n</title>
<path fill="none" stroke="black" d="M1628.97,-766.71C1628.97,-766.71 1899.81,-725.72 1955.88,-717.24"/>
<polygon fill="black" stroke="black" points="1956.6,-720.67 1965.97,-715.71 1955.55,-713.75 1956.6,-720.67"/>
<text text-anchor="middle" x="1869.47" y="-737.51" font-family="Helvetica,sans-Serif" font-size="14.00">&gt; &#45;123.8</text>
</g>
<!-- 27 -->
<g id="node29" class="node">
<title>27</title>
<ellipse fill="#45e544" stroke="black" cx="1200.97" cy="-547.71" rx="115.93" ry="35.21"/>
<text text-anchor="start" x="1161.97" y="-558.51" font-family="Helvetica,sans-Serif" font-weight="bold" font-size="14.00"> Class=1 </text>
<text text-anchor="start" x="1234.97" y="-558.51" font-family="Helvetica,sans-Serif" font-size="14.00"> </text>
<text text-anchor="start" x="1126.97" y="-544.51" font-family="Helvetica,sans-Serif" font-size="14.00"> error: 0.746, n=198 </text>
<text text-anchor="start" x="1145.97" y="-530.51" font-family="Helvetica,sans-Serif" font-size="14.00"> p: (0.21, 0.79) </text>
</g>
<!-- 26&#45;&gt;27 -->
<g id="edge28" class="edge">
<title>26:s&#45;&gt;27:n</title>
<path fill="none" stroke="black" d="M1250.97,-637.71C1250.97,-637.71 1221.66,-606.64 1207.92,-592.08"/>
<polygon fill="black" stroke="black" points="1210.37,-589.58 1200.97,-584.71 1205.28,-594.39 1210.37,-589.58"/>
<text text-anchor="middle" x="1280.47" y="-608.51" font-family="Helvetica,sans-Serif" font-size="14.00">&lt;= &#45;0.06988</text>
</g>
<!-- 30 -->
<g id="node32" class="node">
<title>30</title>
<ellipse fill="#45e544" stroke="black" cx="1504.97" cy="-547.71" rx="115.93" ry="35.21"/>
<text text-anchor="start" x="1465.97" y="-558.51" font-family="Helvetica,sans-Serif" font-weight="bold" font-size="14.00"> Class=0 </text>
<text text-anchor="start" x="1538.97" y="-558.51" font-family="Helvetica,sans-Serif" font-size="14.00"> </text>
<text text-anchor="start" x="1430.97" y="-544.51" font-family="Helvetica,sans-Serif" font-size="14.00"> error: 0.196, n=428 </text>
<text text-anchor="start" x="1449.97" y="-530.51" font-family="Helvetica,sans-Serif" font-size="14.00"> p: (0.97, 0.03) </text>
</g>
<!-- 29&#45;&gt;30 -->
<g id="edge31" class="edge">
<title>29:s&#45;&gt;30:n</title>
<path fill="none" stroke="black" d="M1628.97,-637.71C1628.97,-637.71 1543.12,-601.02 1514.29,-588.69"/>
<polygon fill="black" stroke="black" points="1515.54,-585.42 1504.97,-584.71 1512.79,-591.86 1515.54,-585.42"/>
<text text-anchor="middle" x="1623.47" y="-608.51" font-family="Helvetica,sans-Serif" font-size="14.00">&lt;= &#45;232.3</text>
</g>
<!-- 31 -->
<g id="node33" class="node">
<title>31</title>
<ellipse fill="#45e544" stroke="black" cx="1808.97" cy="-547.71" rx="115.93" ry="35.21"/>
<text text-anchor="start" x="1769.97" y="-558.51" font-family="Helvetica,sans-Serif" font-weight="bold" font-size="14.00"> Class=0 </text>
<text text-anchor="start" x="1842.97" y="-558.51" font-family="Helvetica,sans-Serif" font-size="14.00"> </text>
<text text-anchor="start" x="1734.97" y="-544.51" font-family="Helvetica,sans-Serif" font-size="14.00"> error: 0.653, n=238 </text>
<text text-anchor="start" x="1753.97" y="-530.51" font-family="Helvetica,sans-Serif" font-size="14.00"> p: (0.83, 0.17) </text>
</g>
<!-- 29&#45;&gt;31 -->
<g id="edge32" class="edge">
<title>29:s&#45;&gt;31:n</title>
<path fill="none" stroke="black" d="M1628.97,-637.71C1628.97,-637.71 1761.9,-598.57 1799.29,-587.56"/>
<polygon fill="black" stroke="black" points="1800.36,-590.89 1808.97,-584.71 1798.38,-584.18 1800.36,-590.89"/>
<text text-anchor="middle" x="1772.47" y="-608.51" font-family="Helvetica,sans-Serif" font-size="14.00">&gt; &#45;232.3</text>
</g>
<!-- 33 -->
<g id="node34" class="node">
<title>33</title>
<polygon fill="#45e544" stroke="black" points="2160.97,-586.71 1996.97,-586.71 1996.97,-508.71 2160.97,-508.71 2160.97,-586.71"/>
<text text-anchor="start" x="2039.97" y="-572.51" font-family="Helvetica,sans-Serif" font-weight="bold" font-size="14.00"> Class=0 </text>
<text text-anchor="start" x="2112.97" y="-572.51" font-family="Helvetica,sans-Serif" font-size="14.00"> </text>
<text text-anchor="start" x="2004.97" y="-558.51" font-family="Helvetica,sans-Serif" font-size="14.00"> error: 0.942, n=237 </text>
<text text-anchor="start" x="2023.97" y="-544.51" font-family="Helvetica,sans-Serif" font-size="14.00"> p: (0.64, 0.36) </text>
<text text-anchor="start" x="2054.97" y="-530.51" font-family="Helvetica,sans-Serif" font-size="14.00">&#45;&#45;&#45;&#45;&#45;&#45;&#45;&#45;&#45;</text>
<text text-anchor="start" x="2037.97" y="-516.51" font-family="Helvetica,sans-Serif" font-weight="bold" font-size="14.00">v_31=0.00</text>
</g>
<!-- 32&#45;&gt;33 -->
<g id="edge33" class="edge">
<title>32:s&#45;&gt;33:n</title>
<path fill="none" stroke="black" d="M1965.97,-637.71C1965.97,-637.71 2042.73,-603.06 2069.72,-590.88"/>
<polygon fill="black" stroke="black" points="2071.29,-594.01 2078.97,-586.71 2068.41,-587.63 2071.29,-594.01"/>
<text text-anchor="middle" x="2070.97" y="-608.51" font-family="Helvetica,sans-Serif" font-size="14.00">&lt;= 102.1</text>
</g>
<!-- 34 -->
<g id="node35" class="node">
<title>34</title>
<ellipse fill="#3dcc76" stroke="black" cx="2078.97" cy="-418.71" rx="115.93" ry="35.21"/>
<text text-anchor="start" x="2039.97" y="-429.51" font-family="Helvetica,sans-Serif" font-weight="bold" font-size="14.00"> Class=0 </text>
<text text-anchor="start" x="2112.97" y="-429.51" font-family="Helvetica,sans-Serif" font-size="14.00"> </text>
<text text-anchor="start" x="2004.97" y="-415.51" font-family="Helvetica,sans-Serif" font-size="14.00"> error: 0.998, n=173 </text>
<text text-anchor="start" x="2023.97" y="-401.51" font-family="Helvetica,sans-Serif" font-size="14.00"> p: (0.53, 0.47) </text>
</g>
<!-- 33&#45;&gt;34 -->
<g id="edge34" class="edge">
<title>33:s&#45;&gt;34:n</title>
<path fill="none" stroke="black" d="M2078.97,-508.71C2078.97,-508.71 2078.97,-481.33 2078.97,-465.93"/>
<polygon fill="black" stroke="black" points="2082.47,-465.71 2078.97,-455.71 2075.47,-465.71 2082.47,-465.71"/>
<text text-anchor="middle" x="2118.47" y="-479.51" font-family="Helvetica,sans-Serif" font-size="14.00">&lt;= 0.1002</text>
</g>
</g>
</svg>
